M48
; DRILL file {KiCad (5.1.9)-1} date 08/21/21 12:12:38
; FORMAT={-:-/ absolute / inch / decimal}
; #@! TF.CreationDate,2021-08-21T12:12:38+01:00
; #@! TF.GenerationSoftware,Kicad,Pcbnew,(5.1.9)-1
; #@! TF.FileFunction,Plated,1,2,PTH
FMAT,2
INCH
T1C0.1260
T2C0.1969
T3C0.2756
T4C0.3937
%
G90
G05
T2
X-3.9488Y-3.115
X-2.448Y-3.1157
X-0.9484Y-1.3394
X-0.9469Y-3.115
T3
X-3.9362Y-3.913
X-3.9354Y-2.1417
X-2.4358Y-3.913
X-2.4339Y-2.1421
X-0.9362Y-2.1417
X-0.9354Y-3.913
T4
X-3.9091Y-7.1094
X-3.9087Y-6.1268
X-3.4173Y-5.4516
X-2.9248Y-6.1248
X-2.924Y-7.1098
X-1.9413Y-7.1102
X-1.9406Y-6.1256
X-0.9567Y-7.1106
X-0.9563Y-6.1256
T1
G00X-4.2772Y-7.9752
M15
G01X-4.1669Y-7.9752
M16
G05
G00X-4.2764Y-0.3378
M15
G01X-4.1661Y-0.3378
M16
G05
G00X-0.7012Y-7.9772
M15
G01X-0.5909Y-7.9772
M16
G05
G00X-0.7Y-0.3394
M15
G01X-0.5898Y-0.3394
M16
G05
T0
M30
