%TF.GenerationSoftware,KiCad,Pcbnew,(5.1.9)-1*%
%TF.CreationDate,2021-08-21T12:12:35+01:00*%
%TF.ProjectId,KOSMOS LFO6 Front Panel,4b4f534d-4f53-4204-9c46-4f362046726f,rev?*%
%TF.SameCoordinates,Original*%
%TF.FileFunction,OtherDrawing,Comment*%
%FSLAX46Y46*%
G04 Gerber Fmt 4.6, Leading zero omitted, Abs format (unit mm)*
G04 Created by KiCad (PCBNEW (5.1.9)-1) date 2021-08-21 12:12:35*
%MOMM*%
%LPD*%
G01*
G04 APERTURE LIST*
%ADD10C,0.200000*%
%ADD11C,0.625000*%
%ADD12C,0.312500*%
G04 APERTURE END LIST*
D10*
X-13791038Y-17603634D02*
X-109791038Y-17603634D01*
X-73964739Y-125948633D02*
X-73797339Y-127648633D01*
X-100294238Y-50980233D02*
X-99617839Y-57847033D01*
X-20322639Y-54075433D02*
X-27189439Y-54751833D01*
X-96456038Y-54413633D02*
G75*
G03*
X-96456038Y-54413633I-3500000J0D01*
G01*
X-71424738Y-125948633D02*
X-71257339Y-127648633D01*
X-57791038Y-126714633D02*
X-59491039Y-126882634D01*
X-66344738Y-125948633D02*
X-66177338Y-127648633D01*
X-67951039Y-126714633D02*
X-69651038Y-126882634D01*
X-58724739Y-125948633D02*
X-58557338Y-127648633D01*
X-58382638Y-54075433D02*
X-65249438Y-54751833D01*
X-24309572Y-76690602D02*
X-23831172Y-81547202D01*
X-61264739Y-125948633D02*
X-61097338Y-127648633D01*
X-11791038Y-5603634D02*
X-111791038Y-5603634D01*
X-24094239Y-95950233D02*
X-23417838Y-102817033D01*
X-26508572Y-79359002D02*
X-21642072Y-78892726D01*
X-20256038Y-54413633D02*
G75*
G03*
X-20256038Y-54413633I-3500000J0D01*
G01*
X-58356039Y-99388833D02*
G75*
G03*
X-58356039Y-99388833I-3500000J0D01*
G01*
X-64625939Y-79359333D02*
X-59759438Y-78893057D01*
X-102714238Y-79358733D02*
X-97847738Y-78892457D01*
X-24315038Y-31605333D02*
X-23823038Y-36601233D01*
X-11791038Y-205603634D02*
X-11791038Y-5603634D01*
X-97775405Y-79125061D02*
G75*
G03*
X-97775405Y-79125061I-2500000J0D01*
G01*
X-60331038Y-126714633D02*
X-62031039Y-126882634D01*
X-62194238Y-95955434D02*
X-61517838Y-102822233D01*
X-62871038Y-126714633D02*
X-64571038Y-126882634D01*
X-96522639Y-99045433D02*
X-103389439Y-99721833D01*
X-21575895Y-34033662D02*
G75*
G03*
X-21575895Y-34033662I-2500000J0D01*
G01*
X-63804738Y-125948633D02*
X-63637338Y-127648633D01*
X-68884738Y-125948633D02*
X-68717339Y-127648633D01*
X-111791038Y-205603634D02*
X-11791038Y-205603634D01*
X-65411038Y-126714633D02*
X-67111038Y-126882634D01*
X-96456038Y-99383633D02*
G75*
G03*
X-96456038Y-99383633I-3500000J0D01*
G01*
X-62154238Y-50980233D02*
X-61477838Y-57847033D01*
X-100515238Y-76690333D02*
X-100036838Y-81546933D01*
X-13791038Y-188603634D02*
X-13791038Y-17603634D01*
X-20256038Y-99383633D02*
G75*
G03*
X-20256038Y-99383633I-3500000J0D01*
G01*
X-59687105Y-79125661D02*
G75*
G03*
X-59687105Y-79125661I-2500000J0D01*
G01*
X-109791038Y-17603634D02*
X-109791038Y-188603634D01*
X-24094239Y-50980233D02*
X-23417838Y-57847033D01*
X-62426938Y-76690933D02*
X-61948539Y-81547533D01*
X-73031039Y-126714633D02*
X-74731039Y-126882634D01*
X-70491038Y-126714633D02*
X-72191038Y-126882634D01*
X-109791038Y-188603634D02*
X-13791038Y-188603634D01*
X-111791038Y-5603634D02*
X-111791038Y-205603634D01*
X-100294238Y-95950233D02*
X-99617839Y-102817033D01*
X-96522639Y-54075433D02*
X-103389439Y-54751833D01*
X-21569739Y-79125329D02*
G75*
G03*
X-21569739Y-79125329I-2500000J0D01*
G01*
X-26504038Y-34272833D02*
X-21638038Y-33793533D01*
X-58316038Y-54413633D02*
G75*
G03*
X-58316038Y-54413633I-3500000J0D01*
G01*
X-20322639Y-99045433D02*
X-27189439Y-99721833D01*
X-58422638Y-99050633D02*
X-65289438Y-99727033D01*
X-79291038Y-180603634D02*
X-69291038Y-180603634D01*
X-54291038Y-180603634D02*
X-44291038Y-180603634D01*
X-13791038Y-122617673D02*
X-109791038Y-122617673D01*
X-53644738Y-125948633D02*
X-53477339Y-127648633D01*
X-51104738Y-125948633D02*
X-50937338Y-127648633D01*
X-110391038Y-8603634D02*
X-107191038Y-8603634D01*
X-94291038Y-155603634D02*
G75*
G03*
X-94291038Y-155603634I-5000000J0D01*
G01*
X-69291038Y-155603634D02*
G75*
G03*
X-69291038Y-155603634I-5000000J0D01*
G01*
X-19291038Y-155603634D02*
G75*
G03*
X-19291038Y-155603634I-5000000J0D01*
G01*
X-48564738Y-125948633D02*
X-48397338Y-127648633D01*
X-49291038Y-150603634D02*
X-49291038Y-160603634D01*
X-19291038Y-180603634D02*
G75*
G03*
X-19291038Y-180603634I-5000000J0D01*
G01*
X-24291038Y-175603634D02*
X-24291038Y-185603634D01*
X-56184739Y-125948633D02*
X-56017339Y-127648633D01*
X-108791038Y-7003633D02*
X-108791038Y-10203633D01*
X-109791038Y-122617673D02*
X-109791038Y-188603634D01*
X-54291038Y-155603634D02*
X-44291038Y-155603634D01*
X-44291038Y-180603634D02*
G75*
G03*
X-44291038Y-180603634I-5000000J0D01*
G01*
X-74291038Y-175603634D02*
X-74291038Y-185603634D01*
X-74291038Y-150603634D02*
X-74291038Y-160603634D01*
X-86791038Y-133464861D02*
X-86791038Y-143464861D01*
X-69291038Y-180603634D02*
G75*
G03*
X-69291038Y-180603634I-5000000J0D01*
G01*
X-91791038Y-138464861D02*
X-81791038Y-138464861D01*
X-44291038Y-155603634D02*
G75*
G03*
X-44291038Y-155603634I-5000000J0D01*
G01*
X-104291038Y-180603634D02*
X-94291038Y-180603634D01*
X-24291038Y-150603634D02*
X-24291038Y-160603634D01*
X-107191038Y-202603634D02*
G75*
G03*
X-107191038Y-202603634I-1600000J0D01*
G01*
X-14791038Y-201003633D02*
X-14791038Y-204203633D01*
X-99291038Y-150603634D02*
X-99291038Y-160603634D01*
X-110391038Y-202603634D02*
X-107191038Y-202603634D01*
X-99291038Y-175603634D02*
X-99291038Y-185603634D01*
X-50171038Y-126714633D02*
X-51871038Y-126882634D01*
X-108791038Y-201003633D02*
X-108791038Y-204203633D01*
X-16391038Y-202603634D02*
X-13191038Y-202603634D01*
X-107191038Y-8603634D02*
G75*
G03*
X-107191038Y-8603634I-1600000J0D01*
G01*
X-14791038Y-7003633D02*
X-14791038Y-10203633D01*
X-13191038Y-8603634D02*
G75*
G03*
X-13191038Y-8603634I-1600000J0D01*
G01*
X-104291038Y-155603634D02*
X-94291038Y-155603634D01*
X-109791038Y-188603634D02*
X-14463039Y-188603634D01*
X-13191038Y-202603634D02*
G75*
G03*
X-13191038Y-202603634I-1600000J0D01*
G01*
X-16391038Y-8603634D02*
X-13191038Y-8603634D01*
X-79291038Y-155603634D02*
X-69291038Y-155603634D01*
X-94291038Y-180603634D02*
G75*
G03*
X-94291038Y-180603634I-5000000J0D01*
G01*
X-52711039Y-126714633D02*
X-54411038Y-126882634D01*
X-55251039Y-126714633D02*
X-56951039Y-126882634D01*
X-49291038Y-175603634D02*
X-49291038Y-185603634D01*
X-29291038Y-155603634D02*
X-19291038Y-155603634D01*
X-47631038Y-126714633D02*
X-49331038Y-126882634D01*
X-29291038Y-180603634D02*
X-19291038Y-180603634D01*
X-81791038Y-138464861D02*
G75*
G03*
X-81791038Y-138464861I-5000000J0D01*
G01*
X283631945Y1518485687D02*
X286218466Y1518485687D01*
X238477841Y1518485687D02*
G75*
G03*
X238477841Y1518485687I-1600000J0D01*
G01*
X288804988Y1518485687D02*
X286218466Y1518485687D01*
X329277841Y1518485687D02*
X332477841Y1518485687D01*
X236877841Y1518485687D02*
X236877841Y1518485687D01*
X332477841Y1518485687D02*
G75*
G03*
X332477841Y1518485687I-1600000J0D01*
G01*
X288804988Y1518485687D02*
X286218466Y1518485687D01*
X278458902Y1518485687D02*
X281045424Y1518485687D01*
X283631945Y1518485687D02*
X281045424Y1518485687D01*
X278091011Y1518485687D02*
X289753016Y1518485687D01*
X283631945Y1518485687D02*
X281045424Y1518485687D01*
X278091011Y1518485687D02*
X289753016Y1518485687D01*
X278458902Y1518485687D02*
X281045424Y1518485687D01*
X283631945Y1518485687D02*
X286218466Y1518485687D01*
X330877841Y1518485687D02*
X330877841Y1518485687D01*
X235277841Y1518485687D02*
X238477841Y1518485687D01*
X297104141Y1518485687D02*
X297271541Y1518485687D01*
X266377841Y1518485687D02*
X276377841Y1518485687D01*
X276377841Y1518485687D02*
G75*
G03*
X276377841Y1518485687I-5000000J0D01*
G01*
X235877841Y1518485687D02*
X331205841Y1518485687D01*
X276784141Y1518485687D02*
X276951541Y1518485687D01*
X287246241Y1518485687D02*
X280379441Y1518485687D01*
X290417841Y1518485687D02*
X288717841Y1518485687D01*
X281864141Y1518485687D02*
X282031541Y1518485687D01*
X277717841Y1518485687D02*
X276017841Y1518485687D01*
X274244141Y1518485687D02*
X274411541Y1518485687D01*
X249146241Y1518485687D02*
X242279441Y1518485687D01*
X280257841Y1518485687D02*
X278557841Y1518485687D01*
X235877841Y1518485687D02*
X235877841Y1518485687D01*
X325412841Y1518485687D02*
G75*
G03*
X325412841Y1518485687I-3500000J0D01*
G01*
X331877841Y1518485687D02*
X235877841Y1518485687D01*
X251377841Y1518485687D02*
G75*
G03*
X251377841Y1518485687I-5000000J0D01*
G01*
X271377841Y1518485687D02*
X271377841Y1518485687D01*
X266377841Y1518485687D02*
X276377841Y1518485687D01*
X285337841Y1518485687D02*
X283637841Y1518485687D01*
X272637841Y1518485687D02*
X270937841Y1518485687D01*
X295497841Y1518485687D02*
X293797841Y1518485687D01*
X294564141Y1518485687D02*
X294731541Y1518485687D01*
X286944141Y1518485687D02*
X287111541Y1518485687D01*
X325346241Y1518485687D02*
X318479441Y1518485687D01*
X245374641Y1518485687D02*
X246051041Y1518485687D01*
X275177841Y1518485687D02*
X273477841Y1518485687D01*
X249212841Y1518485687D02*
G75*
G03*
X249212841Y1518485687I-3500000J0D01*
G01*
X251377841Y1518485687D02*
G75*
G03*
X251377841Y1518485687I-5000000J0D01*
G01*
X289484141Y1518485687D02*
X289651541Y1518485687D01*
X287877841Y1518485687D02*
X286177841Y1518485687D01*
X283474641Y1518485687D02*
X284151041Y1518485687D01*
X241377841Y1518485687D02*
X251377841Y1518485687D01*
X292024141Y1518485687D02*
X292191541Y1518485687D01*
X298037841Y1518485687D02*
X296337841Y1518485687D01*
X291377841Y1518485687D02*
X301377841Y1518485687D01*
X296377841Y1518485687D02*
X296377841Y1518485687D01*
X316377841Y1518485687D02*
X326377841Y1518485687D01*
X271704141Y1518485687D02*
X271871541Y1518485687D01*
X326377841Y1518485687D02*
G75*
G03*
X326377841Y1518485687I-5000000J0D01*
G01*
X301377841Y1518485687D02*
G75*
G03*
X301377841Y1518485687I-5000000J0D01*
G01*
X321377841Y1518485687D02*
X321377841Y1518485687D01*
X321574641Y1518485687D02*
X322251041Y1518485687D01*
X291377841Y1518485687D02*
X301377841Y1518485687D01*
X246377841Y1518485687D02*
X246377841Y1518485687D01*
X279324141Y1518485687D02*
X279491541Y1518485687D01*
X258877841Y1518485687D02*
X258877841Y1518485687D01*
X253877841Y1518485687D02*
X263877841Y1518485687D01*
X276377841Y1518485687D02*
G75*
G03*
X276377841Y1518485687I-5000000J0D01*
G01*
X292957841Y1518485687D02*
X291257841Y1518485687D01*
X263877841Y1518485687D02*
G75*
G03*
X263877841Y1518485687I-5000000J0D01*
G01*
X284404141Y1518485687D02*
X284571541Y1518485687D01*
X246377841Y1518485687D02*
X246377841Y1518485687D01*
X241377841Y1518485687D02*
X251377841Y1518485687D01*
X321377841Y1518485687D02*
X321377841Y1518485687D01*
X282797841Y1518485687D02*
X281097841Y1518485687D01*
X316377841Y1518485687D02*
X326377841Y1518485687D01*
X287312841Y1518485687D02*
G75*
G03*
X287312841Y1518485687I-3500000J0D01*
G01*
X326377841Y1518485687D02*
G75*
G03*
X326377841Y1518485687I-5000000J0D01*
G01*
X296377841Y1518485687D02*
X296377841Y1518485687D01*
X301377841Y1518485687D02*
G75*
G03*
X301377841Y1518485687I-5000000J0D01*
G01*
X271377841Y1518485687D02*
X271377841Y1518485687D01*
X233877841Y-1518485687D02*
X233877841Y1518485687D01*
X235877841Y1518485687D02*
X331877841Y1518485687D01*
X233877841Y1518485687D02*
X333877841Y1518485687D01*
X333877841Y1518485687D02*
X333877841Y-1518485687D01*
X235877841Y-1518485687D02*
X235877841Y1518485687D01*
X331877841Y1518485687D02*
X331877841Y-1518485687D01*
D11*
X280514193Y1523723782D02*
X279657050Y1523723782D01*
X279228478Y1523485687D01*
X279014193Y1523247591D01*
X278585621Y1522533306D01*
X278371335Y1521580925D01*
X278371335Y1519676163D01*
X278585621Y1519199972D01*
X278799907Y1518961877D01*
X279228478Y1518723782D01*
X280085621Y1518723782D01*
X280514193Y1518961877D01*
X280728478Y1519199972D01*
X280942764Y1519676163D01*
X280942764Y1520866639D01*
X280728478Y1521342829D01*
X280514193Y1521580925D01*
X280085621Y1521819020D01*
X279228478Y1521819020D01*
X278799907Y1521580925D01*
X278585621Y1521342829D01*
X278371335Y1520866639D01*
X286299907Y1520628544D02*
X289728478Y1520628544D01*
X288014193Y1518723782D02*
X288014193Y1522533306D01*
X297657050Y1518723782D02*
X295085621Y1518723782D01*
X296371335Y1518723782D02*
X296371335Y1523723782D01*
X295942764Y1523009496D01*
X295514193Y1522533306D01*
X295085621Y1522295210D01*
D12*
X258513433Y1518842829D02*
X258406290Y1518723782D01*
X258084862Y1518604734D01*
X257870576Y1518604734D01*
X257549147Y1518723782D01*
X257334862Y1518961877D01*
X257227719Y1519199972D01*
X257120576Y1519676163D01*
X257120576Y1520033306D01*
X257227719Y1520509496D01*
X257334862Y1520747591D01*
X257549147Y1520985687D01*
X257870576Y1521104734D01*
X258084862Y1521104734D01*
X258406290Y1520985687D01*
X258513433Y1520866639D01*
X259156290Y1521104734D02*
X259906290Y1518604734D01*
X260656290Y1521104734D01*
X271216948Y1520866639D02*
X271324091Y1520985687D01*
X271538377Y1521104734D01*
X272074091Y1521104734D01*
X272288377Y1520985687D01*
X272395519Y1520866639D01*
X272502662Y1520628544D01*
X272502662Y1520390448D01*
X272395519Y1520033306D01*
X271109805Y1518604734D01*
X272502662Y1518604734D01*
X247224695Y1518604734D02*
X245938981Y1518604734D01*
X246581838Y1518604734D02*
X246581838Y1521104734D01*
X246367552Y1520747591D01*
X246153267Y1520509496D01*
X245938981Y1520390448D01*
X296065467Y1521104734D02*
X297458324Y1521104734D01*
X296708324Y1520152353D01*
X297029753Y1520152353D01*
X297244039Y1520033306D01*
X297351181Y1519914258D01*
X297458324Y1519676163D01*
X297458324Y1519080925D01*
X297351181Y1518842829D01*
X297244039Y1518723782D01*
X297029753Y1518604734D01*
X296386896Y1518604734D01*
X296172610Y1518723782D01*
X296065467Y1518842829D01*
X322346358Y1520271401D02*
X322346358Y1518604734D01*
X321810643Y1521223782D02*
X321274929Y1519438067D01*
X322667786Y1519438067D01*
M02*
