%TF.GenerationSoftware,KiCad,Pcbnew,(5.1.9)-1*%
%TF.CreationDate,2021-08-21T12:12:35+01:00*%
%TF.ProjectId,KOSMOS LFO6 Front Panel,4b4f534d-4f53-4204-9c46-4f362046726f,rev?*%
%TF.SameCoordinates,Original*%
%TF.FileFunction,Legend,Top*%
%TF.FilePolarity,Positive*%
%FSLAX46Y46*%
G04 Gerber Fmt 4.6, Leading zero omitted, Abs format (unit mm)*
G04 Created by KiCad (PCBNEW (5.1.9)-1) date 2021-08-21 12:12:35*
%MOMM*%
%LPD*%
G01*
G04 APERTURE LIST*
%ADD10C,0.200000*%
%ADD11C,0.312500*%
%ADD12C,1.500000*%
%ADD13C,0.002000*%
%ADD14C,0.100000*%
G04 APERTURE END LIST*
D10*
X-67577868Y-180236448D02*
X-55915863Y-180236448D01*
X-67209977Y-180236448D02*
X-64623456Y-175951260D01*
X-62036934Y-180236448D02*
X-64623456Y-175951260D01*
X-67577868Y-160000079D02*
X-55915863Y-160000079D01*
X-56863892Y-155714891D02*
X-59450413Y-160000079D01*
X-62036934Y-155714891D02*
X-59450413Y-160000079D01*
X-56863892Y-180236448D02*
X-59450413Y-184521637D01*
X-62036934Y-180236448D02*
X-59450413Y-184521637D01*
X-62036934Y-155714891D02*
X-64623456Y-151429702D01*
X-67209977Y-155714891D02*
X-64623456Y-151429702D01*
D11*
X-100128646Y-41622973D02*
X-100235789Y-41742020D01*
X-100557217Y-41861068D01*
X-100771503Y-41861068D01*
X-101092932Y-41742020D01*
X-101307217Y-41503925D01*
X-101414360Y-41265830D01*
X-101521503Y-40789639D01*
X-101521503Y-40432496D01*
X-101414360Y-39956306D01*
X-101307217Y-39718211D01*
X-101092932Y-39480116D01*
X-100771503Y-39361068D01*
X-100557217Y-39361068D01*
X-100235789Y-39480116D01*
X-100128646Y-39599163D01*
X-99485789Y-39361068D02*
X-98735789Y-41861068D01*
X-97985789Y-39361068D01*
X-65124285Y-86832774D02*
X-66195713Y-86832774D01*
X-66195713Y-84332774D01*
X-63624285Y-85523250D02*
X-64374285Y-85523250D01*
X-64374285Y-86832774D02*
X-64374285Y-84332774D01*
X-63302856Y-84332774D01*
X-62017142Y-84332774D02*
X-61588570Y-84332774D01*
X-61374285Y-84451822D01*
X-61159999Y-84689917D01*
X-61052856Y-85166107D01*
X-61052856Y-85999441D01*
X-61159999Y-86475631D01*
X-61374285Y-86713726D01*
X-61588570Y-86832774D01*
X-62017142Y-86832774D01*
X-62231428Y-86713726D01*
X-62445713Y-86475631D01*
X-62552856Y-85999441D01*
X-62552856Y-85166107D01*
X-62445713Y-84689917D01*
X-62231428Y-84451822D01*
X-62017142Y-84332774D01*
X-58588570Y-84332774D02*
X-57195713Y-84332774D01*
X-57945713Y-85285155D01*
X-57624285Y-85285155D01*
X-57409999Y-85404202D01*
X-57302856Y-85523250D01*
X-57195713Y-85761345D01*
X-57195713Y-86356583D01*
X-57302856Y-86594679D01*
X-57409999Y-86713726D01*
X-57624285Y-86832774D01*
X-58267142Y-86832774D01*
X-58481428Y-86713726D01*
X-58588570Y-86594679D01*
X-74451930Y-143400520D02*
X-74344787Y-143281473D01*
X-74130502Y-143162425D01*
X-73594787Y-143162425D01*
X-73380502Y-143281473D01*
X-73273359Y-143400520D01*
X-73166216Y-143638615D01*
X-73166216Y-143876711D01*
X-73273359Y-144233853D01*
X-74559073Y-145662425D01*
X-73166216Y-145662425D01*
X-73521569Y-39481822D02*
X-73735855Y-39362774D01*
X-74057283Y-39362774D01*
X-74378712Y-39481822D01*
X-74592997Y-39719917D01*
X-74700140Y-39958012D01*
X-74807283Y-40434202D01*
X-74807283Y-40791345D01*
X-74700140Y-41267536D01*
X-74592997Y-41505631D01*
X-74378712Y-41743726D01*
X-74057283Y-41862774D01*
X-73842997Y-41862774D01*
X-73521569Y-41743726D01*
X-73414426Y-41624679D01*
X-73414426Y-40791345D01*
X-73842997Y-40791345D01*
X-71378712Y-41862774D02*
X-72450140Y-41862774D01*
X-72450140Y-39362774D01*
X-70200140Y-39362774D02*
X-69771569Y-39362774D01*
X-69557283Y-39481822D01*
X-69342997Y-39719917D01*
X-69235855Y-40196107D01*
X-69235855Y-41029441D01*
X-69342997Y-41505631D01*
X-69557283Y-41743726D01*
X-69771569Y-41862774D01*
X-70200140Y-41862774D01*
X-70414426Y-41743726D01*
X-70628712Y-41505631D01*
X-70735855Y-41029441D01*
X-70735855Y-40196107D01*
X-70628712Y-39719917D01*
X-70414426Y-39481822D01*
X-70200140Y-39362774D01*
X-67521569Y-40553250D02*
X-67200140Y-40672298D01*
X-67092997Y-40791345D01*
X-66985855Y-41029441D01*
X-66985855Y-41386583D01*
X-67092997Y-41624679D01*
X-67200140Y-41743726D01*
X-67414426Y-41862774D01*
X-68271569Y-41862774D01*
X-68271569Y-39362774D01*
X-67521569Y-39362774D01*
X-67307283Y-39481822D01*
X-67200140Y-39600869D01*
X-67092997Y-39838964D01*
X-67092997Y-40077060D01*
X-67200140Y-40315155D01*
X-67307283Y-40434202D01*
X-67521569Y-40553250D01*
X-68271569Y-40553250D01*
X-66128712Y-41148488D02*
X-65057283Y-41148488D01*
X-66342997Y-41862774D02*
X-65592997Y-39362774D01*
X-64842997Y-41862774D01*
X-63021569Y-41862774D02*
X-64092997Y-41862774D01*
X-64092997Y-39362774D01*
X-60664426Y-41743726D02*
X-60342997Y-41862774D01*
X-59807283Y-41862774D01*
X-59592997Y-41743726D01*
X-59485855Y-41624679D01*
X-59378712Y-41386583D01*
X-59378712Y-41148488D01*
X-59485855Y-40910393D01*
X-59592997Y-40791345D01*
X-59807283Y-40672298D01*
X-60235855Y-40553250D01*
X-60450140Y-40434202D01*
X-60557283Y-40315155D01*
X-60664426Y-40077060D01*
X-60664426Y-39838964D01*
X-60557283Y-39600869D01*
X-60450140Y-39481822D01*
X-60235855Y-39362774D01*
X-59700140Y-39362774D01*
X-59378712Y-39481822D01*
X-58414426Y-41862774D02*
X-58414426Y-39362774D01*
X-57557283Y-39362774D01*
X-57342997Y-39481822D01*
X-57235855Y-39600869D01*
X-57128712Y-39838964D01*
X-57128712Y-40196107D01*
X-57235855Y-40434202D01*
X-57342997Y-40553250D01*
X-57557283Y-40672298D01*
X-58414426Y-40672298D01*
X-56164426Y-40553250D02*
X-55414426Y-40553250D01*
X-55092997Y-41862774D02*
X-56164426Y-41862774D01*
X-56164426Y-39362774D01*
X-55092997Y-39362774D01*
X-54128712Y-40553250D02*
X-53378712Y-40553250D01*
X-53057283Y-41862774D02*
X-54128712Y-41862774D01*
X-54128712Y-39362774D01*
X-53057283Y-39362774D01*
X-52092997Y-41862774D02*
X-52092997Y-39362774D01*
X-51557283Y-39362774D01*
X-51235855Y-39481822D01*
X-51021569Y-39719917D01*
X-50914426Y-39958012D01*
X-50807283Y-40434202D01*
X-50807283Y-40791345D01*
X-50914426Y-41267536D01*
X-51021569Y-41505631D01*
X-51235855Y-41743726D01*
X-51557283Y-41862774D01*
X-52092997Y-41862774D01*
X-102806439Y-86832774D02*
X-103877867Y-86832774D01*
X-103877867Y-84332774D01*
X-101306439Y-85523250D02*
X-102056439Y-85523250D01*
X-102056439Y-86832774D02*
X-102056439Y-84332774D01*
X-100985010Y-84332774D01*
X-99699296Y-84332774D02*
X-99270724Y-84332774D01*
X-99056439Y-84451822D01*
X-98842153Y-84689917D01*
X-98735010Y-85166107D01*
X-98735010Y-85999441D01*
X-98842153Y-86475631D01*
X-99056439Y-86713726D01*
X-99270724Y-86832774D01*
X-99699296Y-86832774D01*
X-99913582Y-86713726D01*
X-100127867Y-86475631D01*
X-100235010Y-85999441D01*
X-100235010Y-85166107D01*
X-100127867Y-84689917D01*
X-99913582Y-84451822D01*
X-99699296Y-84332774D01*
X-96163582Y-84570869D02*
X-96056439Y-84451822D01*
X-95842153Y-84332774D01*
X-95306439Y-84332774D01*
X-95092153Y-84451822D01*
X-94985010Y-84570869D01*
X-94877867Y-84808964D01*
X-94877867Y-85047060D01*
X-94985010Y-85404202D01*
X-96270724Y-86832774D01*
X-94877867Y-86832774D01*
X-26879378Y-86832774D02*
X-27950806Y-86832774D01*
X-27950806Y-84332774D01*
X-25379378Y-85523250D02*
X-26129378Y-85523250D01*
X-26129378Y-86832774D02*
X-26129378Y-84332774D01*
X-25057949Y-84332774D01*
X-23772235Y-84332774D02*
X-23343663Y-84332774D01*
X-23129378Y-84451822D01*
X-22915092Y-84689917D01*
X-22807949Y-85166107D01*
X-22807949Y-85999441D01*
X-22915092Y-86475631D01*
X-23129378Y-86713726D01*
X-23343663Y-86832774D01*
X-23772235Y-86832774D01*
X-23986521Y-86713726D01*
X-24200806Y-86475631D01*
X-24307949Y-85999441D01*
X-24307949Y-85166107D01*
X-24200806Y-84689917D01*
X-23986521Y-84451822D01*
X-23772235Y-84332774D01*
X-19165092Y-85166107D02*
X-19165092Y-86832774D01*
X-19700806Y-84213726D02*
X-20236521Y-85999441D01*
X-18843663Y-85999441D01*
X-98444183Y-145662425D02*
X-99729897Y-145662425D01*
X-99087040Y-145662425D02*
X-99087040Y-143162425D01*
X-99301326Y-143519568D01*
X-99515611Y-143757663D01*
X-99729897Y-143876711D01*
D12*
X-79752142Y-18345714D02*
X-78466428Y-18821904D01*
X-78037857Y-19298095D01*
X-77609285Y-20250476D01*
X-77609285Y-21679047D01*
X-78037857Y-22631428D01*
X-78466428Y-23107619D01*
X-79323571Y-23583809D01*
X-82752142Y-23583809D01*
X-82752142Y-13583809D01*
X-79752142Y-13583809D01*
X-78895000Y-14060000D01*
X-78466428Y-14536190D01*
X-78037857Y-15488571D01*
X-78037857Y-16440952D01*
X-78466428Y-17393333D01*
X-78895000Y-17869523D01*
X-79752142Y-18345714D01*
X-82752142Y-18345714D01*
X-68609285Y-23583809D02*
X-71609285Y-18821904D01*
X-73752142Y-23583809D02*
X-73752142Y-13583809D01*
X-70323571Y-13583809D01*
X-69466428Y-14060000D01*
X-69037857Y-14536190D01*
X-68609285Y-15488571D01*
X-68609285Y-16917142D01*
X-69037857Y-17869523D01*
X-69466428Y-18345714D01*
X-70323571Y-18821904D01*
X-73752142Y-18821904D01*
X-64752142Y-18345714D02*
X-61752142Y-18345714D01*
X-60466428Y-23583809D02*
X-64752142Y-23583809D01*
X-64752142Y-13583809D01*
X-60466428Y-13583809D01*
X-56609285Y-23583809D02*
X-56609285Y-13583809D01*
X-51466428Y-23583809D01*
X-51466428Y-13583809D01*
X-47180714Y-23583809D02*
X-47180714Y-13583809D01*
X-42037857Y-23583809D01*
X-42037857Y-13583809D01*
D11*
X-26494142Y-41862774D02*
X-27565570Y-41862774D01*
X-27565570Y-39362774D01*
X-24994142Y-40553250D02*
X-25744142Y-40553250D01*
X-25744142Y-41862774D02*
X-25744142Y-39362774D01*
X-24672713Y-39362774D01*
X-23386999Y-39362774D02*
X-22958427Y-39362774D01*
X-22744142Y-39481822D01*
X-22529856Y-39719917D01*
X-22422713Y-40196107D01*
X-22422713Y-41029441D01*
X-22529856Y-41505631D01*
X-22744142Y-41743726D01*
X-22958427Y-41862774D01*
X-23386999Y-41862774D01*
X-23601285Y-41743726D01*
X-23815570Y-41505631D01*
X-23922713Y-41029441D01*
X-23922713Y-40196107D01*
X-23815570Y-39719917D01*
X-23601285Y-39481822D01*
X-23386999Y-39362774D01*
X-18565570Y-41862774D02*
X-19851285Y-41862774D01*
X-19208427Y-41862774D02*
X-19208427Y-39362774D01*
X-19422713Y-39719917D01*
X-19636999Y-39958012D01*
X-19851285Y-40077060D01*
X-23322521Y-143985527D02*
X-23322521Y-145652194D01*
X-23858235Y-143033146D02*
X-24393949Y-144818861D01*
X-23001092Y-144818861D01*
X-49603411Y-143162425D02*
X-48210554Y-143162425D01*
X-48960554Y-144114806D01*
X-48639125Y-144114806D01*
X-48424840Y-144233853D01*
X-48317697Y-144352901D01*
X-48210554Y-144590996D01*
X-48210554Y-145186234D01*
X-48317697Y-145424330D01*
X-48424840Y-145543377D01*
X-48639125Y-145662425D01*
X-49281982Y-145662425D01*
X-49496268Y-145543377D01*
X-49603411Y-145424330D01*
X-87155446Y-129542857D02*
X-87262589Y-129661904D01*
X-87584017Y-129780952D01*
X-87798303Y-129780952D01*
X-88119732Y-129661904D01*
X-88334017Y-129423809D01*
X-88441160Y-129185714D01*
X-88548303Y-128709523D01*
X-88548303Y-128352380D01*
X-88441160Y-127876190D01*
X-88334017Y-127638095D01*
X-88119732Y-127400000D01*
X-87798303Y-127280952D01*
X-87584017Y-127280952D01*
X-87262589Y-127400000D01*
X-87155446Y-127519047D01*
X-86512589Y-127280952D02*
X-85762589Y-129780952D01*
X-85012589Y-127280952D01*
D13*
%TO.C,REF\u002A\u002A*%
X-72506153Y-199280699D02*
G75*
G02*
X-72458350Y-199304263I0J-60270D01*
G01*
X-72901474Y-199580700D02*
G75*
G02*
X-72864307Y-199652603I-352208J-227614D01*
G01*
X-72991349Y-199718237D02*
G75*
G02*
X-72998411Y-199630699I538978J87537D01*
G01*
X-72969935Y-199816011D02*
G75*
G02*
X-72991348Y-199718237I883899J244807D01*
G01*
X-72822903Y-200064384D02*
G75*
G02*
X-72847458Y-200058677I-8921J17296D01*
G01*
X-72938641Y-199908796D02*
G75*
G02*
X-72969936Y-199816012I825219J330007D01*
G01*
X-72806994Y-200039556D02*
G75*
G02*
X-72822903Y-200064383I-29400J1329D01*
G01*
X-63028708Y-199688146D02*
G75*
G02*
X-63014427Y-199710075I-59981J-54677D01*
G01*
X-63164014Y-199851324D02*
G75*
G02*
X-63167125Y-199818909I47411J20907D01*
G01*
X-63142870Y-199872870D02*
G75*
G02*
X-63164013Y-199851324I17994J38804D01*
G01*
X-72980044Y-199497014D02*
G75*
G02*
X-72955488Y-199502722I8921J-17297D01*
G01*
X-63014427Y-199710075D02*
G75*
G02*
X-63004708Y-199742415I-125533J-55357D01*
G01*
X-72378022Y-199418172D02*
G75*
G02*
X-72290056Y-199569391I-1573417J-1016470D01*
G01*
X-63151473Y-199780700D02*
G75*
G02*
X-63124574Y-199742422I337497J-208585D01*
G01*
X-63124574Y-199742422D02*
G75*
G02*
X-63094871Y-199710075I241481J-191928D01*
G01*
X-63094871Y-199710074D02*
G75*
G02*
X-63066644Y-199687253I162318J-171899D01*
G01*
X-63107375Y-199880700D02*
G75*
G02*
X-63142870Y-199872871I0J84378D01*
G01*
X-72901473Y-199980699D02*
G75*
G02*
X-72938640Y-199908796I352208J227614D01*
G01*
X-72995953Y-199521843D02*
G75*
G02*
X-72980044Y-199497016I29400J-1329D01*
G01*
X-63066645Y-199687253D02*
G75*
G02*
X-63045572Y-199680699I21073J-30601D01*
G01*
X-63045573Y-199680699D02*
G75*
G02*
X-63028709Y-199688145I1J-22819D01*
G01*
X-63004708Y-199742414D02*
G75*
G02*
X-63001473Y-199780699I-224963J-38286D01*
G01*
X-63167124Y-199818909D02*
G75*
G02*
X-63151473Y-199780699I122695J-27947D01*
G01*
X-63001474Y-199780700D02*
G75*
G02*
X-63009580Y-199818855I-93851J1D01*
G01*
X-63066950Y-199873087D02*
G75*
G02*
X-63107375Y-199880699I-40425J103535D01*
G01*
X-72833011Y-199745387D02*
G75*
G02*
X-72811598Y-199843162I-883900J-244808D01*
G01*
X-63009579Y-199818855D02*
G75*
G02*
X-63032582Y-199851324I-92552J41184D01*
G01*
X-63032582Y-199851325D02*
G75*
G02*
X-63066950Y-199873087I-73086J77400D01*
G01*
X-72864306Y-199652603D02*
G75*
G02*
X-72833011Y-199745387I-825219J-330007D01*
G01*
X-72811598Y-199843161D02*
G75*
G02*
X-72804536Y-199930699I-538978J-87538D01*
G01*
X-70347792Y-198688926D02*
G75*
G02*
X-70323505Y-198724881I-100028J-93750D01*
G01*
X-68101964Y-195673251D02*
G75*
G02*
X-68145875Y-195817598I-161391J-29757D01*
G01*
X-71059085Y-199642148D02*
G75*
G02*
X-71295775Y-199252066I842343J777960D01*
G01*
X-70677854Y-199922079D02*
G75*
G02*
X-71059085Y-199642148I530361J1121844D01*
G01*
X-70238503Y-200020700D02*
G75*
G02*
X-70677854Y-199922079I1J1027959D01*
G01*
X-70183081Y-195332564D02*
G75*
G02*
X-69789987Y-195223551I585448J-1347840D01*
G01*
X-68556481Y-195988802D02*
G75*
G02*
X-68516859Y-195947365I117288J-72488D01*
G01*
X-72040291Y-200312292D02*
G75*
G02*
X-72121584Y-200305417I-38271J31528D01*
G01*
X-72020564Y-200188398D02*
G75*
G02*
X-72040291Y-200312291I-115307J-45157D01*
G01*
X-67608943Y-199073353D02*
G75*
G02*
X-67601473Y-199130699I-216396J-57346D01*
G01*
X-67663338Y-198992256D02*
G75*
G02*
X-67630848Y-199024762I-65125J-97582D01*
G01*
X-69789987Y-195223552D02*
G75*
G02*
X-69263544Y-195189051I524866J-3975221D01*
G01*
X-71269364Y-198711891D02*
G75*
G02*
X-71165956Y-198649832I132199J-103096D01*
G01*
X-69263544Y-195189050D02*
G75*
G02*
X-68747724Y-195223014I-1558J-3957674D01*
G01*
X-67630849Y-199024762D02*
G75*
G02*
X-67608943Y-199073354I-135427J-90286D01*
G01*
X-67701474Y-198980699D02*
G75*
G02*
X-67663338Y-198992256I0J-68699D01*
G01*
X-69123790Y-196152997D02*
G75*
G02*
X-69088110Y-196058940I143510J-643D01*
G01*
X-68452279Y-195912454D02*
G75*
G02*
X-68374773Y-195888713I162597J-392435D01*
G01*
X-67794004Y-199073354D02*
G75*
G02*
X-67772098Y-199024762I157333J-41694D01*
G01*
X-67739609Y-198992256D02*
G75*
G02*
X-67701473Y-198980699I38136J-57142D01*
G01*
X-68396507Y-195333268D02*
G75*
G02*
X-68196506Y-195485143I-336562J-650839D01*
G01*
X-67801473Y-199130700D02*
G75*
G02*
X-67794004Y-199073354I223865J1D01*
G01*
X-71295775Y-199252066D02*
G75*
G02*
X-71327937Y-198841103I735183J264276D01*
G01*
X-69983283Y-199388373D02*
G75*
G02*
X-69778472Y-199689352I-1788030J-1436898D01*
G01*
X-70282576Y-198920629D02*
G75*
G02*
X-70301473Y-198836563I177546J84066D01*
G01*
X-68374774Y-195888713D02*
G75*
G02*
X-68295572Y-195880699I79202J-387369D01*
G01*
X-68599373Y-196025896D02*
G75*
G02*
X-68673899Y-196047522I-122305J282261D01*
G01*
X-70376474Y-198675239D02*
G75*
G02*
X-70347792Y-198688926I-3169J-43539D01*
G01*
X-68673900Y-196047522D02*
G75*
G02*
X-68765967Y-196051854I-65840J418766D01*
G01*
X-69778472Y-199689352D02*
G75*
G02*
X-69765899Y-199876101I-186597J-106360D01*
G01*
X-67772099Y-199024762D02*
G75*
G02*
X-67739609Y-198992256I97615J-65076D01*
G01*
X-67630848Y-199236637D02*
G75*
G02*
X-67663338Y-199269143I-97615J65076D01*
G01*
X-72569100Y-199310968D02*
G75*
G02*
X-72506153Y-199280699I62947J-50317D01*
G01*
X-72583036Y-199378038D02*
G75*
G02*
X-72569100Y-199310968I73071J19800D01*
G01*
X-72527044Y-199526612D02*
G75*
G02*
X-72583035Y-199378038I745260J365693D01*
G01*
X-68145876Y-195817598D02*
G75*
G02*
X-68295572Y-195880699I-149696J146014D01*
G01*
X-69004277Y-196020319D02*
G75*
G02*
X-68862383Y-196036897I7344J-552667D01*
G01*
X-67794004Y-199188045D02*
G75*
G02*
X-67801473Y-199130699I216396J57345D01*
G01*
X-67772098Y-199236637D02*
G75*
G02*
X-67794004Y-199188045I135427J90286D01*
G01*
X-67701473Y-199280700D02*
G75*
G02*
X-67739609Y-199269143I0J68699D01*
G01*
X-70307001Y-198776511D02*
G75*
G02*
X-70301473Y-198836563I-323429J-60052D01*
G01*
X-67663338Y-199269142D02*
G75*
G02*
X-67701473Y-199280699I-38136J57141D01*
G01*
X-69765899Y-199876101D02*
G75*
G02*
X-69902848Y-199988769I-171902J69383D01*
G01*
X-68516859Y-195947365D02*
G75*
G02*
X-68452279Y-195912455I201521J-295604D01*
G01*
X-70323504Y-198724880D02*
G75*
G02*
X-70307001Y-198776511I-195877J-91064D01*
G01*
X-71165956Y-198649832D02*
G75*
G02*
X-70957516Y-198637704I156960J-900390D01*
G01*
X-68556482Y-195988802D02*
G75*
G02*
X-68599373Y-196025897I-80530J49770D01*
G01*
X-67739608Y-199269142D02*
G75*
G02*
X-67772098Y-199236637I65124J97581D01*
G01*
X-69109226Y-196317967D02*
G75*
G02*
X-69123789Y-196152997I881692J160960D01*
G01*
X-68747723Y-195223013D02*
G75*
G02*
X-68396507Y-195333267I-139723J-1059626D01*
G01*
X-68765967Y-196051855D02*
G75*
G02*
X-68862383Y-196036897I32856J530018D01*
G01*
X-69088110Y-196058941D02*
G75*
G02*
X-69004277Y-196020319I85342J-74949D01*
G01*
X-67601474Y-199130699D02*
G75*
G02*
X-67608943Y-199188045I-223865J-1D01*
G01*
X-67608942Y-199188045D02*
G75*
G02*
X-67630848Y-199236637I-157334J41694D01*
G01*
X-68196505Y-195485142D02*
G75*
G02*
X-68101964Y-195673251I-275691J-256372D01*
G01*
X-69902848Y-199988768D02*
G75*
G02*
X-70238502Y-200020699I-335653J1748217D01*
G01*
X-71327937Y-198841102D02*
G75*
G02*
X-71269363Y-198711891I297082J-56792D01*
G01*
X-69405588Y-197352801D02*
G75*
G02*
X-69306618Y-197336410I138655J-530216D01*
G01*
X-68670135Y-197522693D02*
G75*
G02*
X-68602885Y-197553447I-87377J-279972D01*
G01*
X-70267523Y-197213197D02*
G75*
G02*
X-70208281Y-197269685I-78452J-141587D01*
G01*
X-70157870Y-197326836D02*
G75*
G02*
X-70208281Y-197269685I142030J176087D01*
G01*
X-70100236Y-197349617D02*
G75*
G02*
X-70157870Y-197326836I7704J103785D01*
G01*
X-69197135Y-197336212D02*
G75*
G02*
X-69093961Y-197350906I-49443J-716739D01*
G01*
X-68582875Y-197760795D02*
G75*
G02*
X-68584183Y-197739250I19289J11983D01*
G01*
X-71161277Y-196899657D02*
G75*
G02*
X-70933684Y-196612564I848092J-438567D01*
G01*
X-71250022Y-197322595D02*
G75*
G02*
X-71294614Y-197266546I14679J57441D01*
G01*
X-71151474Y-197316862D02*
G75*
G02*
X-71250022Y-197322595I-58276J151865D01*
G01*
X-69093962Y-197350907D02*
G75*
G02*
X-69014951Y-197379748I-65912J-303205D01*
G01*
X-69577463Y-197343508D02*
G75*
G02*
X-69561209Y-197296452I112861J-12650D01*
G01*
X-71094078Y-197302896D02*
G75*
G02*
X-71045536Y-197308253I12344J-110745D01*
G01*
X-70975565Y-197400808D02*
G75*
G02*
X-71001473Y-197368383I7337J32425D01*
G01*
X-67401473Y-199259610D02*
G75*
G02*
X-67462141Y-199492855I-478702J0D01*
G01*
X-68545960Y-197645184D02*
G75*
G02*
X-68560586Y-197695444I-97977J1254D01*
G01*
X-70794382Y-197371909D02*
G75*
G02*
X-70906005Y-197402679I-208810J539637D01*
G01*
X-70343426Y-197197052D02*
G75*
G02*
X-70267523Y-197213197I11518J-132346D01*
G01*
X-69739710Y-197208455D02*
G75*
G02*
X-69606333Y-197184925I127957J-335528D01*
G01*
X-69560945Y-197370099D02*
G75*
G02*
X-69577464Y-197343508I8609J23774D01*
G01*
X-69306618Y-197336410D02*
G75*
G02*
X-69197135Y-197336213I56133J-773168D01*
G01*
X-68559895Y-197596018D02*
G75*
G02*
X-68545960Y-197645184I-75723J-48019D01*
G01*
X-68528360Y-197747316D02*
G75*
G02*
X-68566064Y-197766318I-128097J207264D01*
G01*
X-67692282Y-199859752D02*
G75*
G02*
X-68000478Y-200252813I-3827687J2683900D01*
G01*
X-68528360Y-197747316D02*
G75*
G02*
X-68387374Y-197771889I56656J-91673D01*
G01*
X-68000478Y-200252813D02*
G75*
G02*
X-68343256Y-200602750I-3256516J2847047D01*
G01*
X-69920765Y-197291024D02*
G75*
G02*
X-69739711Y-197208456I739484J-1381736D01*
G01*
X-69109227Y-196317967D02*
G75*
G02*
X-69117142Y-196345598I-31872J-5819D01*
G01*
X-69117142Y-196345598D02*
G75*
G02*
X-69145806Y-196361246I-36986J33675D01*
G01*
X-69145806Y-196361246D02*
G75*
G02*
X-69194782Y-196360510I-22491J133309D01*
G01*
X-71294614Y-197266546D02*
G75*
G02*
X-71268817Y-197129899I333320J7832D01*
G01*
X-71151474Y-197316862D02*
G75*
G02*
X-71094078Y-197302895I83086J-216518D01*
G01*
X-69194782Y-196360510D02*
G75*
G02*
X-69256126Y-196342751I74016J370500D01*
G01*
X-68602885Y-197553447D02*
G75*
G02*
X-68559895Y-197596017I-71433J-115131D01*
G01*
X-69343697Y-196314664D02*
G75*
G02*
X-69256126Y-196342751I-206605J-794696D01*
G01*
X-70933684Y-196612565D02*
G75*
G02*
X-70575860Y-196375195I1149144J-1343897D01*
G01*
X-71045536Y-197308253D02*
G75*
G02*
X-71013616Y-197331616I-21671J-63095D01*
G01*
X-69553527Y-197222610D02*
G75*
G02*
X-69561209Y-197296452I-80290J-28968D01*
G01*
X-69507571Y-197374845D02*
G75*
G02*
X-69560944Y-197370099I-17718J103217D01*
G01*
X-70906005Y-197402679D02*
G75*
G02*
X-70975565Y-197400809I-30062J176436D01*
G01*
X-69920765Y-197291025D02*
G75*
G02*
X-70025975Y-197338854I-421627J787817D01*
G01*
X-68584183Y-197739250D02*
G75*
G02*
X-68560586Y-197695444I379710J-176285D01*
G01*
X-68566065Y-197766319D02*
G75*
G02*
X-68582876Y-197760796I-5110J12792D01*
G01*
X-70170431Y-196230641D02*
G75*
G02*
X-69801375Y-196219116I214525J-954859D01*
G01*
X-67462141Y-199492855D02*
G75*
G02*
X-67692282Y-199859752I-3688434J2057989D01*
G01*
X-71013616Y-197331616D02*
G75*
G02*
X-71001473Y-197368383I-49592J-36767D01*
G01*
X-69606334Y-197184925D02*
G75*
G02*
X-69553527Y-197222610I-861J-57048D01*
G01*
X-67482542Y-198994813D02*
G75*
G02*
X-67401473Y-199259610I-391919J-264797D01*
G01*
X-70575860Y-196375195D02*
G75*
G02*
X-70170431Y-196230640I794658J-1587933D01*
G01*
X-70025975Y-197338853D02*
G75*
G02*
X-70100235Y-197349617I-61422J162212D01*
G01*
X-70455847Y-197224105D02*
G75*
G02*
X-70343427Y-197197052I146114J-360083D01*
G01*
X-57536247Y-197305072D02*
G75*
G02*
X-57545727Y-197443405I-390343J-42743D01*
G01*
X-59210069Y-197060261D02*
G75*
G02*
X-59120204Y-197106660I-60763J-227911D01*
G01*
X-59029200Y-197149005D02*
G75*
G02*
X-59120204Y-197106660I35003J194186D01*
G01*
X-68556705Y-200777633D02*
G75*
G02*
X-68760820Y-200903924I-892952J1215119D01*
G01*
X-68760820Y-200903924D02*
G75*
G02*
X-68970393Y-200989737I-603846J1175904D01*
G01*
X-70637587Y-195558216D02*
G75*
G02*
X-70183081Y-195332564I2435146J-4334275D01*
G01*
X-72351555Y-200940061D02*
G75*
G02*
X-72685415Y-200572720I1453051J1656002D01*
G01*
X-73167501Y-199040375D02*
G75*
G02*
X-73136773Y-198771182I1842043J-73919D01*
G01*
X-70394390Y-201353832D02*
G75*
G02*
X-70961202Y-201375364I-442240J4170273D01*
G01*
X-61617562Y-194428752D02*
G75*
G02*
X-61496286Y-194390256I130562J-201037D01*
G01*
X-71970303Y-201186155D02*
G75*
G02*
X-72351555Y-200940061I640306J1410338D01*
G01*
X-72944647Y-200117676D02*
G75*
G02*
X-73105284Y-199612342I2361961J1029026D01*
G01*
X-57591064Y-197236948D02*
G75*
G02*
X-57536247Y-197305072I-25908J-76964D01*
G01*
X-73056985Y-198408689D02*
G75*
G02*
X-72876371Y-197816774I5997240J-1506454D01*
G01*
X-72649720Y-197297006D02*
G75*
G02*
X-72383917Y-196861886I3141270J-1620172D01*
G01*
X-61173108Y-194480699D02*
G75*
G02*
X-61101862Y-194746858I-2209991J-734194D01*
G01*
X-60754469Y-196775853D02*
G75*
G02*
X-60776084Y-196721987I144268J89163D01*
G01*
X-61202070Y-194412567D02*
G75*
G02*
X-61173108Y-194480699I-404100J-212003D01*
G01*
X-68343257Y-200602750D02*
G75*
G02*
X-68556705Y-200777633I-1765497J1937123D01*
G01*
X-68970393Y-200989736D02*
G75*
G02*
X-69199812Y-201042604I-460069J1472260D01*
G01*
X-61425018Y-194433135D02*
G75*
G02*
X-61394445Y-194555699I-280469J-135057D01*
G01*
X-71532048Y-201319612D02*
G75*
G02*
X-71970304Y-201186155I288954J1735215D01*
G01*
X-72685416Y-200572721D02*
G75*
G02*
X-72944648Y-200117676I1989440J1434718D01*
G01*
X-69971600Y-201245554D02*
G75*
G02*
X-69815840Y-201188880I682729J-1634003D01*
G01*
X-69971601Y-201245554D02*
G75*
G02*
X-70394390Y-201353832I-581982J1392884D01*
G01*
X-70961202Y-201375365D02*
G75*
G02*
X-71532047Y-201319611I126031J4240660D01*
G01*
X-72085403Y-196524934D02*
G75*
G02*
X-71737080Y-196246600I2241157J-2447588D01*
G01*
X-73157149Y-199296554D02*
G75*
G02*
X-73167501Y-199040375I1582707J192254D01*
G01*
X-72876371Y-197816774D02*
G75*
G02*
X-72649720Y-197297006I4107072J-1481635D01*
G01*
X-60707136Y-196809802D02*
G75*
G02*
X-60754469Y-196775853I17044J73736D01*
G01*
X-61229554Y-194402133D02*
G75*
G02*
X-61202071Y-194412568I7850J-20735D01*
G01*
X-72383917Y-196861886D02*
G75*
G02*
X-72085403Y-196524934I1756945J-1255811D01*
G01*
X-61817845Y-194572114D02*
G75*
G02*
X-61617562Y-194428752I1682528J-2138987D01*
G01*
X-61496287Y-194390255D02*
G75*
G02*
X-61425018Y-194433135I2938J-75784D01*
G01*
X-61373816Y-194662887D02*
G75*
G02*
X-61388482Y-194652691I-3124J11153D01*
G01*
X-61353892Y-194645559D02*
G75*
G02*
X-61373816Y-194662888I-28234J12343D01*
G01*
X-61260053Y-194429990D02*
G75*
G02*
X-61229554Y-194402133I50300J-24446D01*
G01*
X-57742905Y-197211308D02*
G75*
G02*
X-57591064Y-197236948I-4834J-491055D01*
G01*
X-60601487Y-199780692D02*
G75*
G02*
X-60550750Y-199819308I-173063J-280022D01*
G01*
X-60714087Y-200423452D02*
G75*
G02*
X-60752800Y-200578646I-1408004J268802D01*
G01*
X-62061867Y-202029771D02*
G75*
G02*
X-62088590Y-202026726I-10956J22629D01*
G01*
X-60979963Y-201089042D02*
G75*
G02*
X-61000931Y-201073328I-4596J15714D01*
G01*
X-60633411Y-199970661D02*
G75*
G02*
X-60590797Y-199924101I103484J-51931D01*
G01*
X-60557481Y-199188713D02*
G75*
G02*
X-60370670Y-199013478I585615J-437107D01*
G01*
X-61472258Y-201733534D02*
G75*
G02*
X-61414464Y-201729394I42668J-190165D01*
G01*
X-61629436Y-201835737D02*
G75*
G02*
X-61677655Y-201835215I-22748J126177D01*
G01*
X-60701473Y-200290120D02*
G75*
G02*
X-60693314Y-200171180I870955J1D01*
G01*
X-60677401Y-199538785D02*
G75*
G02*
X-60657251Y-199407005I1030598J-90152D01*
G01*
X-61189777Y-201667159D02*
G75*
G02*
X-61239643Y-201722476I-170268J103352D01*
G01*
X-62018637Y-201997718D02*
G75*
G02*
X-62061867Y-202029771I-106267J98147D01*
G01*
X-60674095Y-199647354D02*
G75*
G02*
X-60677401Y-199538785I457451J68264D01*
G01*
X-60701474Y-200290120D02*
G75*
G02*
X-60714087Y-200423452I-711016J1D01*
G01*
X-61000931Y-201073328D02*
G75*
G02*
X-60987678Y-201027575I85604J0D01*
G01*
X-62251473Y-201880700D02*
G75*
G02*
X-62194171Y-201889682I0J-187269D01*
G01*
X-61966644Y-201934534D02*
G75*
G02*
X-61907042Y-201868958I336996J-246419D01*
G01*
X-62145536Y-201915689D02*
G75*
G02*
X-62113022Y-201954386I-78761J-99185D01*
G01*
X-60750863Y-201032730D02*
G75*
G02*
X-60705960Y-201082992I-1383J-46424D01*
G01*
X-60876202Y-201054027D02*
G75*
G02*
X-60750862Y-201032730I115716J-301550D01*
G01*
X-61775088Y-201805418D02*
G75*
G02*
X-61723554Y-201817053I8868J-80670D01*
G01*
X-60754922Y-201180219D02*
G75*
G02*
X-60894701Y-201277075I-490765J558967D01*
G01*
X-61521807Y-201753545D02*
G75*
G02*
X-61472258Y-201733535I85571J-140536D01*
G01*
X-61297556Y-201747920D02*
G75*
G02*
X-61357305Y-201742299I-19821J109671D01*
G01*
X-60705960Y-201082992D02*
G75*
G02*
X-60754922Y-201180219I-144875J12015D01*
G01*
X-57545726Y-197443405D02*
G75*
G02*
X-57595752Y-197563203I-422233J105974D01*
G01*
X-61050499Y-201411016D02*
G75*
G02*
X-60973508Y-201331828I555400J-462968D01*
G01*
X-60657252Y-199407005D02*
G75*
G02*
X-60557481Y-199188713I555768J-122067D01*
G01*
X-60546287Y-199888252D02*
G75*
G02*
X-60590797Y-199924101I-165537J159976D01*
G01*
X-61153735Y-201587825D02*
G75*
G02*
X-61189778Y-201667158I-349472J110917D01*
G01*
X-61555181Y-201786698D02*
G75*
G02*
X-61586417Y-201818671I-87055J53803D01*
G01*
X-58028457Y-198117654D02*
G75*
G02*
X-58355781Y-198397363I-1650826J1600470D01*
G01*
X-58355781Y-198397363D02*
G75*
G02*
X-58709757Y-198590504I-1021406J1451020D01*
G01*
X-58709757Y-198590504D02*
G75*
G02*
X-59150153Y-198722631I-919863J2266010D01*
G01*
X-60648451Y-199729103D02*
G75*
G02*
X-60674095Y-199647355I247342J122486D01*
G01*
X-60550749Y-199819308D02*
G75*
G02*
X-60533962Y-199854167I-35962J-38790D01*
G01*
X-60533962Y-199854166D02*
G75*
G02*
X-60546287Y-199888253I-44188J-3294D01*
G01*
X-61153735Y-201587826D02*
G75*
G02*
X-61114423Y-201500868I388760J-123387D01*
G01*
X-61239643Y-201722476D02*
G75*
G02*
X-61297556Y-201747920I-82055J108135D01*
G01*
X-61586417Y-201818672D02*
G75*
G02*
X-61629437Y-201835736I-63760J97981D01*
G01*
X-62194171Y-201889682D02*
G75*
G02*
X-62145536Y-201915689I-47113J-146583D01*
G01*
X-60973508Y-201331827D02*
G75*
G02*
X-60894701Y-201277075I274735J-311344D01*
G01*
X-62088590Y-202026725D02*
G75*
G02*
X-62101473Y-201999812I21668J26913D01*
G01*
X-61114424Y-201500867D02*
G75*
G02*
X-61050499Y-201411015I617928J-371952D01*
G01*
X-61555180Y-201786698D02*
G75*
G02*
X-61521807Y-201753545I85877J-53075D01*
G01*
X-61677655Y-201835215D02*
G75*
G02*
X-61723554Y-201817053I27879J137537D01*
G01*
X-60099385Y-198888119D02*
G75*
G02*
X-59751473Y-198817094I580766J-1957207D01*
G01*
X-60370670Y-199013477D02*
G75*
G02*
X-60099385Y-198888119I566663J-870080D01*
G01*
X-60752801Y-200578646D02*
G75*
G02*
X-60809264Y-200730600I-1395985J432259D01*
G01*
X-60693314Y-200171180D02*
G75*
G02*
X-60668962Y-200059835I721520J-99464D01*
G01*
X-61414464Y-201729394D02*
G75*
G02*
X-61357305Y-201742299I-15807J-203051D01*
G01*
X-61839619Y-201823964D02*
G75*
G02*
X-61775087Y-201805419I86171J-178302D01*
G01*
X-60668962Y-200059835D02*
G75*
G02*
X-60633411Y-199970662I536571J-162247D01*
G01*
X-61966644Y-201934535D02*
G75*
G02*
X-62018637Y-201997719I-578047J422679D01*
G01*
X-61907042Y-201868959D02*
G75*
G02*
X-61839619Y-201823964I195359J-219726D01*
G01*
X-60809263Y-200730600D02*
G75*
G02*
X-60876202Y-200854406I-765283J333767D01*
G01*
X-60601486Y-199780691D02*
G75*
G02*
X-60648451Y-199729102I66658J107855D01*
G01*
X-62113022Y-201954385D02*
G75*
G02*
X-62101473Y-201999812I-83569J-45428D01*
G01*
X-62931785Y-200265288D02*
G75*
G02*
X-62916744Y-200332125I-166431J-72563D01*
G01*
X-62870942Y-200951528D02*
G75*
G02*
X-62898541Y-200784511I1438692J323528D01*
G01*
X-63056125Y-199130733D02*
G75*
G02*
X-63068623Y-199134241I-7182J1571D01*
G01*
X-62627788Y-199428973D02*
G75*
G02*
X-62680762Y-199889427I-3859634J210769D01*
G01*
X-65424534Y-198006401D02*
G75*
G02*
X-65513146Y-198116266I-813464J565436D01*
G01*
X-65476375Y-198682579D02*
G75*
G02*
X-65665265Y-198565538I38938J273785D01*
G01*
X-63005439Y-198927323D02*
G75*
G02*
X-62960919Y-198845385I445832J-189171D01*
G01*
X-62788939Y-201138446D02*
G75*
G02*
X-62833157Y-201083430I55601J89965D01*
G01*
X-62726304Y-200819348D02*
G75*
G02*
X-62738818Y-200632216I1527646J196138D01*
G01*
X-64835688Y-198831297D02*
G75*
G02*
X-64855784Y-198811738I931J21059D01*
G01*
X-64844301Y-198728582D02*
G75*
G02*
X-64845953Y-198771767I-38951J-20134D01*
G01*
X-65116678Y-198692532D02*
G75*
G02*
X-65476375Y-198682579I-136230J1581228D01*
G01*
X-65665265Y-198565538D02*
G75*
G02*
X-65682583Y-198370572I163980J112818D01*
G01*
X-64881223Y-198698155D02*
G75*
G02*
X-64844300Y-198728582I-17074J-58337D01*
G01*
X-62516125Y-201754985D02*
G75*
G02*
X-62605121Y-201677052I543455J710384D01*
G01*
X-62251473Y-201880699D02*
G75*
G02*
X-62323151Y-201866740I0J191006D01*
G01*
X-62417232Y-201820878D02*
G75*
G02*
X-62516125Y-201754985I454497J789265D01*
G01*
X-64650678Y-198780397D02*
G75*
G02*
X-64507948Y-198741864I264105J-694652D01*
G01*
X-64855784Y-198811738D02*
G75*
G02*
X-64845953Y-198771767I66791J4767D01*
G01*
X-62714904Y-201099399D02*
G75*
G02*
X-62743835Y-201139385I-57772J11340D01*
G01*
X-62846464Y-201518821D02*
G75*
G02*
X-62773496Y-201548398I-108524J-372533D01*
G01*
X-62892341Y-201525055D02*
G75*
G02*
X-62846464Y-201518821I29946J-48453D01*
G01*
X-62708604Y-200996986D02*
G75*
G02*
X-62714904Y-201099398I-387691J-27551D01*
G01*
X-62954416Y-200265822D02*
G75*
G02*
X-62931784Y-200265289I11425J-4353D01*
G01*
X-65388375Y-197827116D02*
G75*
G02*
X-65385717Y-197916280I-184235J-50114D01*
G01*
X-65430854Y-197722411D02*
G75*
G02*
X-65388376Y-197827116I-413617J-228769D01*
G01*
X-62743835Y-201139385D02*
G75*
G02*
X-62788940Y-201138446I-21756J38718D01*
G01*
X-62906196Y-198780046D02*
G75*
G02*
X-62849304Y-198743704I117153J-120697D01*
G01*
X-62849304Y-198743703D02*
G75*
G02*
X-62723516Y-198792514I35980J-93765D01*
G01*
X-64971167Y-198685654D02*
G75*
G02*
X-64881223Y-198698156I2646J-310774D01*
G01*
X-62898541Y-200784512D02*
G75*
G02*
X-62910069Y-200599798I2091474J223248D01*
G01*
X-62723516Y-198792514D02*
G75*
G02*
X-62645599Y-199039941I-732448J-366636D01*
G01*
X-63328384Y-198686067D02*
G75*
G02*
X-63184417Y-198716912I-10296J-399453D01*
G01*
X-62960920Y-198845385D02*
G75*
G02*
X-62906196Y-198780046I343164J-231826D01*
G01*
X-62323151Y-201866740D02*
G75*
G02*
X-62417232Y-201820878I285275J704640D01*
G01*
X-62689217Y-201602852D02*
G75*
G02*
X-62605121Y-201677052I-551410J-709705D01*
G01*
X-63116076Y-198792681D02*
G75*
G02*
X-63087855Y-198955699I-651026J-196655D01*
G01*
X-62833156Y-201083430D02*
G75*
G02*
X-62870941Y-200951529I1120967J392477D01*
G01*
X-63068623Y-199134241D02*
G75*
G02*
X-63079356Y-199109661I28210J26951D01*
G01*
X-64772012Y-198822809D02*
G75*
G02*
X-64835687Y-198831298I-55608J174061D01*
G01*
X-62773497Y-201548398D02*
G75*
G02*
X-62689217Y-201602852I-270385J-510933D01*
G01*
X-62892341Y-201525055D02*
G75*
G02*
X-62973820Y-201488737I-28372J45906D01*
G01*
X-63026167Y-201107199D02*
G75*
G02*
X-63043678Y-200688867I3991232J376604D01*
G01*
X-63032008Y-199014155D02*
G75*
G02*
X-63005439Y-198927324I427849J-83435D01*
G01*
X-63043678Y-200688867D02*
G75*
G02*
X-62998863Y-200396137I1049838J-10927D01*
G01*
X-65682583Y-198370571D02*
G75*
G02*
X-65513146Y-198116266I861295J-390261D01*
G01*
X-63184417Y-198716912D02*
G75*
G02*
X-63116076Y-198792682I-46188J-110365D01*
G01*
X-62645599Y-199039941D02*
G75*
G02*
X-62627788Y-199428973I-1923815J-283003D01*
G01*
X-65385717Y-197916280D02*
G75*
G02*
X-65424534Y-198006402I-240876J50329D01*
G01*
X-52159090Y-194328855D02*
G75*
G02*
X-52114893Y-194427898I-161647J-131515D01*
G01*
X-62489629Y-195443262D02*
G75*
G02*
X-62586287Y-195440085I-45559J85858D01*
G01*
X-51557500Y-199702581D02*
G75*
G02*
X-51517205Y-199879971I-1262828J-380130D01*
G01*
X-62220885Y-194770436D02*
G75*
G02*
X-62348619Y-194797114I-212381J697730D01*
G01*
X-62653955Y-195039964D02*
G75*
G02*
X-62671210Y-194953077I37431J52590D01*
G01*
X-51517205Y-199879970D02*
G75*
G02*
X-51504654Y-200051650I-1046365J-162796D01*
G01*
X-62261704Y-195226074D02*
G75*
G02*
X-62357475Y-195348195I-462040J263731D01*
G01*
X-62309581Y-195118742D02*
G75*
G02*
X-62272902Y-195142604I-38017J-98558D01*
G01*
X-62526474Y-195080699D02*
G75*
G02*
X-62448559Y-195085261I0J-667694D01*
G01*
X-52300578Y-194316658D02*
G75*
G02*
X-52356940Y-194287237I15374J98148D01*
G01*
X-62372924Y-195098884D02*
G75*
G02*
X-62309581Y-195118742I-122418J-501442D01*
G01*
X-51700314Y-199401650D02*
G75*
G02*
X-51620311Y-199537174I-636577J-467159D01*
G01*
X-62526473Y-195080700D02*
G75*
G02*
X-62653955Y-195039964I0J219845D01*
G01*
X-52401182Y-194215894D02*
G75*
G02*
X-52434238Y-194098330I797627J287707D01*
G01*
X-62671210Y-194953077D02*
G75*
G02*
X-62550450Y-194850332I223178J-139969D01*
G01*
X-52053330Y-198131145D02*
G75*
G02*
X-52111534Y-196967604I13264576J1246763D01*
G01*
X-52232022Y-194309399D02*
G75*
G02*
X-52159090Y-194328854I23043J-60046D01*
G01*
X-62623272Y-195454372D02*
G75*
G02*
X-62586287Y-195440085I23907J-6873D01*
G01*
X-52232022Y-194309397D02*
G75*
G02*
X-52300578Y-194316658I-47876J124763D01*
G01*
X-62272902Y-195142604D02*
G75*
G02*
X-62261704Y-195226073I-49069J-49069D01*
G01*
X-65492876Y-197607889D02*
G75*
G02*
X-65491197Y-197586442I17733J9401D01*
G01*
X-61931960Y-194647890D02*
G75*
G02*
X-62074139Y-194717166I-730958J1319648D01*
G01*
X-52709269Y-193575595D02*
G75*
G02*
X-52620264Y-193662237I-269435J-365818D01*
G01*
X-51925943Y-198911596D02*
G75*
G02*
X-52053330Y-198131145I5659508J1324378D01*
G01*
X-61817845Y-194572114D02*
G75*
G02*
X-61931961Y-194647890I-527637J670780D01*
G01*
X-52909374Y-193584878D02*
G75*
G02*
X-52793111Y-193552296I147396J-302240D01*
G01*
X-52464811Y-193983532D02*
G75*
G02*
X-52434238Y-194098330I-968993J-319533D01*
G01*
X-65491197Y-197586441D02*
G75*
G02*
X-65473725Y-197584110I9881J-7414D01*
G01*
X-62448559Y-195085261D02*
G75*
G02*
X-62372924Y-195098884I-73263J-623536D01*
G01*
X-65296554Y-197713097D02*
G75*
G02*
X-65382002Y-197657304I217458J426366D01*
G01*
X-65244297Y-197707888D02*
G75*
G02*
X-65296554Y-197713097I-30183J38070D01*
G01*
X-65205898Y-197649559D02*
G75*
G02*
X-65244296Y-197707887I-107732J29119D01*
G01*
X-51700314Y-199401650D02*
G75*
G02*
X-51925943Y-198911596I1086025J796992D01*
G01*
X-65167834Y-197487499D02*
G75*
G02*
X-65054937Y-197275188I410463J-82093D01*
G01*
X-65054936Y-197275189D02*
G75*
G02*
X-64840268Y-197151602I332034J-328507D01*
G01*
X-62975822Y-197072754D02*
G75*
G02*
X-63159463Y-197101959I-370389J1737030D01*
G01*
X-52356939Y-194287238D02*
G75*
G02*
X-52401181Y-194215894I146146J140018D01*
G01*
X-52114892Y-194427898D02*
G75*
G02*
X-52096816Y-194655454I-1461965J-230629D01*
G01*
X-52620264Y-193662236D02*
G75*
G02*
X-52566015Y-193745864I-456444J-355509D01*
G01*
X-62357475Y-195348195D02*
G75*
G02*
X-62489629Y-195443263I-414057J436195D01*
G01*
X-62896597Y-197024823D02*
G75*
G02*
X-62975822Y-197072754I-108678J90194D01*
G01*
X-62856071Y-196942699D02*
G75*
G02*
X-62896597Y-197024824I-192283J43822D01*
G01*
X-62550449Y-194850333D02*
G75*
G02*
X-62348619Y-194797114I287723J-681858D01*
G01*
X-51620311Y-199537174D02*
G75*
G02*
X-51557500Y-199702580I-1139230J-527240D01*
G01*
X-64840269Y-197151601D02*
G75*
G02*
X-64452546Y-197100769I398384J-1534583D01*
G01*
X-63159463Y-197101958D02*
G75*
G02*
X-63407832Y-197116338I-275397J2604642D01*
G01*
X-62074139Y-194717166D02*
G75*
G02*
X-62220885Y-194770435I-577984J1363459D01*
G01*
X-52793111Y-193552296D02*
G75*
G02*
X-52709269Y-193575595I11322J-121761D01*
G01*
X-52357770Y-200933013D02*
G75*
G02*
X-52199295Y-200843257I579700J-838743D01*
G01*
X-52402491Y-201017363D02*
G75*
G02*
X-52357770Y-200933014I103662J-930D01*
G01*
X-54244893Y-196397440D02*
G75*
G02*
X-54125067Y-196359990I287091J-708146D01*
G01*
X-55501473Y-197182732D02*
G75*
G02*
X-55509115Y-197220117I-95271J0D01*
G01*
X-52402491Y-201017362D02*
G75*
G02*
X-52489419Y-201161605I-165603J1486D01*
G01*
X-55160004Y-195830507D02*
G75*
G02*
X-55014721Y-195576831I2131893J-1052514D01*
G01*
X-53887688Y-200703803D02*
G75*
G02*
X-53815750Y-200735954I-34754J-174318D01*
G01*
X-53562016Y-200992819D02*
G75*
G02*
X-53515212Y-201074384I-578861J-386379D01*
G01*
X-55217548Y-196102619D02*
G75*
G02*
X-55274911Y-196245590I-1639084J574644D01*
G01*
X-55601472Y-197280700D02*
G75*
G02*
X-55683904Y-197218235I-1J85622D01*
G01*
X-54125067Y-196359990D02*
G75*
G02*
X-54026801Y-196347476I115486J-514791D01*
G01*
X-55201473Y-196008183D02*
G75*
G02*
X-55217548Y-196102619I-285438J0D01*
G01*
X-52489419Y-201161605D02*
G75*
G02*
X-52826171Y-201312679I-1196693J2216639D01*
G01*
X-53973718Y-196368454D02*
G75*
G02*
X-53945511Y-196439862I-68223J-68225D01*
G01*
X-55509115Y-197220116D02*
G75*
G02*
X-55530848Y-197251921I-90873J38768D01*
G01*
X-55501473Y-197182732D02*
G75*
G02*
X-55479854Y-197132403I69392J0D01*
G01*
X-53185148Y-201413533D02*
G75*
G02*
X-53367123Y-201367712I-43078J213181D01*
G01*
X-53943508Y-200715331D02*
G75*
G02*
X-53887688Y-200703803I41526J-60169D01*
G01*
X-53707578Y-200825174D02*
G75*
G02*
X-53628699Y-200905567I-637173J-704070D01*
G01*
X-52826171Y-201312679D02*
G75*
G02*
X-53185147Y-201413532I-855142J2354494D01*
G01*
X-54037007Y-194352570D02*
G75*
G02*
X-53793456Y-194118408I1872477J-1703817D01*
G01*
X-53418529Y-201316014D02*
G75*
G02*
X-53462008Y-201253051I357995J293707D01*
G01*
X-53793456Y-194118408D02*
G75*
G02*
X-53530653Y-193927838I1460525J-1737630D01*
G01*
X-55563306Y-197273227D02*
G75*
G02*
X-55601473Y-197280699I-38168J93747D01*
G01*
X-51504654Y-200051650D02*
G75*
G02*
X-51535693Y-200319302I-1260730J10577D01*
G01*
X-53515212Y-201074384D02*
G75*
G02*
X-53501473Y-201133954I-122275J-59570D01*
G01*
X-53993705Y-200768129D02*
G75*
G02*
X-54140074Y-200736154I-67556J41752D01*
G01*
X-55530849Y-197251922D02*
G75*
G02*
X-55563307Y-197273228I-70379J71841D01*
G01*
X-52014043Y-200779106D02*
G75*
G02*
X-51865237Y-200773630I87635J-356816D01*
G01*
X-55479854Y-197132403D02*
G75*
G02*
X-55381451Y-197046851I1027361J-1082324D01*
G01*
X-53367123Y-201367712D02*
G75*
G02*
X-53418529Y-201316014I244139J294169D01*
G01*
X-55201473Y-196008183D02*
G75*
G02*
X-55160003Y-195830507I401355J0D01*
G01*
X-53491827Y-201188842D02*
G75*
G02*
X-53501473Y-201133954I151345J54888D01*
G01*
X-55274910Y-196245590D02*
G75*
G02*
X-55355782Y-196404926I-1860220J843967D01*
G01*
X-55683904Y-197218234D02*
G75*
G02*
X-55689306Y-197061414I318513J89476D01*
G01*
X-53628700Y-200905567D02*
G75*
G02*
X-53562017Y-200992819I-647443J-563919D01*
G01*
X-54140074Y-200736154D02*
G75*
G02*
X-54196707Y-199926360I7519175J932732D01*
G01*
X-55381451Y-197046852D02*
G75*
G02*
X-55249398Y-196951834I1050463J-1320632D01*
G01*
X-54371005Y-196457582D02*
G75*
G02*
X-54244893Y-196397440I565092J-1022660D01*
G01*
X-53462008Y-201253052D02*
G75*
G02*
X-53491828Y-201188842I353761J203323D01*
G01*
X-53993705Y-200768130D02*
G75*
G02*
X-53943508Y-200715331I151074J-93368D01*
G01*
X-51535693Y-200319303D02*
G75*
G02*
X-51622765Y-200563236I-1052134J238055D01*
G01*
X-51622766Y-200563235D02*
G75*
G02*
X-51741242Y-200732262I-625492J312392D01*
G01*
X-53815750Y-200735955D02*
G75*
G02*
X-53707578Y-200825175I-917513J-1222589D01*
G01*
X-55689306Y-197061413D02*
G75*
G02*
X-55607952Y-196826612I948904J-197283D01*
G01*
X-55607952Y-196826612D02*
G75*
G02*
X-55451473Y-196559218I2059446J-1025705D01*
G01*
X-51741241Y-200732263D02*
G75*
G02*
X-51865237Y-200773630I-100844J95753D01*
G01*
X-54026801Y-196347475D02*
G75*
G02*
X-53973718Y-196368455I2342J-71721D01*
G01*
X-52199295Y-200843257D02*
G75*
G02*
X-52014042Y-200779106I438279J-966088D01*
G01*
D14*
G36*
X-68747723Y-195223014D02*
G01*
X-68396508Y-195333268D01*
X-68196505Y-195485143D01*
X-68101964Y-195673251D01*
X-68145876Y-195817598D01*
X-68295572Y-195880699D01*
X-68452279Y-195912455D01*
X-68637012Y-195939032D01*
X-68556481Y-195988802D01*
X-68599373Y-196025897D01*
X-68673899Y-196047522D01*
X-68765967Y-196051855D01*
X-68862383Y-196036897D01*
X-69004277Y-196020319D01*
X-69088110Y-196058941D01*
X-69109227Y-196317967D01*
X-69117142Y-196345598D01*
X-69194782Y-196360510D01*
X-69343697Y-196314664D01*
X-69643023Y-196247115D01*
X-69801375Y-196219116D01*
X-70170431Y-196230640D01*
X-70575860Y-196375195D01*
X-70933684Y-196612564D01*
X-71161277Y-196899658D01*
X-71268817Y-197129899D01*
X-71294614Y-197266546D01*
X-71250022Y-197322595D01*
X-71151474Y-197316862D01*
X-71094078Y-197302896D01*
X-71013616Y-197331616D01*
X-70975565Y-197400808D01*
X-70906005Y-197402679D01*
X-70455848Y-197224105D01*
X-70343427Y-197197052D01*
X-70267523Y-197213197D01*
X-70157870Y-197326836D01*
X-70025975Y-197338854D01*
X-69920765Y-197291024D01*
X-69606334Y-197184925D01*
X-69553527Y-197222610D01*
X-69561209Y-197296452D01*
X-69560945Y-197370100D01*
X-69464602Y-197356158D01*
X-69306618Y-197336410D01*
X-69197135Y-197336213D01*
X-69014951Y-197379748D01*
X-68846227Y-197457358D01*
X-68670135Y-197522693D01*
X-68559895Y-197596017D01*
X-68545960Y-197645184D01*
X-68584183Y-197739250D01*
X-68582875Y-197760796D01*
X-68528360Y-197747316D01*
X-68387374Y-197771889D01*
X-67482542Y-198994813D01*
X-70379643Y-198718778D01*
X-70376474Y-198675240D01*
X-71165956Y-198649832D01*
X-73105284Y-199612342D01*
X-73157149Y-199296554D01*
X-73167501Y-199040375D01*
X-73136773Y-198771182D01*
X-73056985Y-198408689D01*
X-72649720Y-197297006D01*
X-72383917Y-196861887D01*
X-72085403Y-196524934D01*
X-71737080Y-196246600D01*
X-71201733Y-195893236D01*
X-70637586Y-195558217D01*
X-70183081Y-195332564D01*
X-69789987Y-195223551D01*
X-69263544Y-195189051D01*
X-68747723Y-195223014D01*
G37*
X-68747723Y-195223014D02*
X-68396508Y-195333268D01*
X-68196505Y-195485143D01*
X-68101964Y-195673251D01*
X-68145876Y-195817598D01*
X-68295572Y-195880699D01*
X-68452279Y-195912455D01*
X-68637012Y-195939032D01*
X-68556481Y-195988802D01*
X-68599373Y-196025897D01*
X-68673899Y-196047522D01*
X-68765967Y-196051855D01*
X-68862383Y-196036897D01*
X-69004277Y-196020319D01*
X-69088110Y-196058941D01*
X-69109227Y-196317967D01*
X-69117142Y-196345598D01*
X-69194782Y-196360510D01*
X-69343697Y-196314664D01*
X-69643023Y-196247115D01*
X-69801375Y-196219116D01*
X-70170431Y-196230640D01*
X-70575860Y-196375195D01*
X-70933684Y-196612564D01*
X-71161277Y-196899658D01*
X-71268817Y-197129899D01*
X-71294614Y-197266546D01*
X-71250022Y-197322595D01*
X-71151474Y-197316862D01*
X-71094078Y-197302896D01*
X-71013616Y-197331616D01*
X-70975565Y-197400808D01*
X-70906005Y-197402679D01*
X-70455848Y-197224105D01*
X-70343427Y-197197052D01*
X-70267523Y-197213197D01*
X-70157870Y-197326836D01*
X-70025975Y-197338854D01*
X-69920765Y-197291024D01*
X-69606334Y-197184925D01*
X-69553527Y-197222610D01*
X-69561209Y-197296452D01*
X-69560945Y-197370100D01*
X-69464602Y-197356158D01*
X-69306618Y-197336410D01*
X-69197135Y-197336213D01*
X-69014951Y-197379748D01*
X-68846227Y-197457358D01*
X-68670135Y-197522693D01*
X-68559895Y-197596017D01*
X-68545960Y-197645184D01*
X-68584183Y-197739250D01*
X-68582875Y-197760796D01*
X-68528360Y-197747316D01*
X-68387374Y-197771889D01*
X-67482542Y-198994813D01*
X-70379643Y-198718778D01*
X-70376474Y-198675240D01*
X-71165956Y-198649832D01*
X-73105284Y-199612342D01*
X-73157149Y-199296554D01*
X-73167501Y-199040375D01*
X-73136773Y-198771182D01*
X-73056985Y-198408689D01*
X-72649720Y-197297006D01*
X-72383917Y-196861887D01*
X-72085403Y-196524934D01*
X-71737080Y-196246600D01*
X-71201733Y-195893236D01*
X-70637586Y-195558217D01*
X-70183081Y-195332564D01*
X-69789987Y-195223551D01*
X-69263544Y-195189051D01*
X-68747723Y-195223014D01*
G36*
X-67692282Y-199859752D02*
G01*
X-68000478Y-200252813D01*
X-68343257Y-200602750D01*
X-68556705Y-200777633D01*
X-68760820Y-200903924D01*
X-68970393Y-200989737D01*
X-69395103Y-201078415D01*
X-69611465Y-201130190D01*
X-69815840Y-201188880D01*
X-69971601Y-201245554D01*
X-70394390Y-201353832D01*
X-69765899Y-199876101D01*
X-67701473Y-199280700D01*
X-67692282Y-199859752D01*
G37*
X-67692282Y-199859752D02*
X-68000478Y-200252813D01*
X-68343257Y-200602750D01*
X-68556705Y-200777633D01*
X-68760820Y-200903924D01*
X-68970393Y-200989737D01*
X-69395103Y-201078415D01*
X-69611465Y-201130190D01*
X-69815840Y-201188880D01*
X-69971601Y-201245554D01*
X-70394390Y-201353832D01*
X-69765899Y-199876101D01*
X-67701473Y-199280700D01*
X-67692282Y-199859752D01*
G36*
X-71269363Y-198711892D02*
G01*
X-71327937Y-198841103D01*
X-71295775Y-199252066D01*
X-71059084Y-199642147D01*
X-70677854Y-199922079D01*
X-70238503Y-200020700D01*
X-69902848Y-199988768D01*
X-69765899Y-199876101D01*
X-70394390Y-201353832D01*
X-70961202Y-201375364D01*
X-71532048Y-201319611D01*
X-71970303Y-201186155D01*
X-72351555Y-200940061D01*
X-72685416Y-200572721D01*
X-72944648Y-200117676D01*
X-72847458Y-200058677D01*
X-72121584Y-200305417D01*
X-72040291Y-200312291D01*
X-72020564Y-200188397D01*
X-72203817Y-199748692D01*
X-72290056Y-199569391D01*
X-72458350Y-199304263D01*
X-72505521Y-199281011D01*
X-71165956Y-198649832D01*
X-71269363Y-198711892D01*
G37*
X-71269363Y-198711892D02*
X-71327937Y-198841103D01*
X-71295775Y-199252066D01*
X-71059084Y-199642147D01*
X-70677854Y-199922079D01*
X-70238503Y-200020700D01*
X-69902848Y-199988768D01*
X-69765899Y-199876101D01*
X-70394390Y-201353832D01*
X-70961202Y-201375364D01*
X-71532048Y-201319611D01*
X-71970303Y-201186155D01*
X-72351555Y-200940061D01*
X-72685416Y-200572721D01*
X-72944648Y-200117676D01*
X-72847458Y-200058677D01*
X-72121584Y-200305417D01*
X-72040291Y-200312291D01*
X-72020564Y-200188397D01*
X-72203817Y-199748692D01*
X-72290056Y-199569391D01*
X-72458350Y-199304263D01*
X-72505521Y-199281011D01*
X-71165956Y-198649832D01*
X-71269363Y-198711892D01*
G36*
X-72583036Y-199378038D02*
G01*
X-72527044Y-199526613D01*
X-72121584Y-200305417D01*
X-72822903Y-200064384D01*
X-72822903Y-200064383D01*
X-72806994Y-200039556D01*
X-72804536Y-199930699D01*
X-72811598Y-199843161D01*
X-72833011Y-199745387D01*
X-72864307Y-199652603D01*
X-72901474Y-199580700D01*
X-72980044Y-199497016D01*
X-72569100Y-199310968D01*
X-72583036Y-199378038D01*
G37*
X-72583036Y-199378038D02*
X-72527044Y-199526613D01*
X-72121584Y-200305417D01*
X-72822903Y-200064384D01*
X-72822903Y-200064383D01*
X-72806994Y-200039556D01*
X-72804536Y-199930699D01*
X-72811598Y-199843161D01*
X-72833011Y-199745387D01*
X-72864307Y-199652603D01*
X-72901474Y-199580700D01*
X-72980044Y-199497016D01*
X-72569100Y-199310968D01*
X-72583036Y-199378038D01*
G36*
X-72995953Y-199521843D02*
G01*
X-72998411Y-199630699D01*
X-72991348Y-199718237D01*
X-72969935Y-199816012D01*
X-72938641Y-199908796D01*
X-72847458Y-200058677D01*
X-72822903Y-200064383D01*
X-72944648Y-200117676D01*
X-73105284Y-199612342D01*
X-72980044Y-199497016D01*
X-72995953Y-199521843D01*
G37*
X-72995953Y-199521843D02*
X-72998411Y-199630699D01*
X-72991348Y-199718237D01*
X-72969935Y-199816012D01*
X-72938641Y-199908796D01*
X-72847458Y-200058677D01*
X-72822903Y-200064383D01*
X-72944648Y-200117676D01*
X-73105284Y-199612342D01*
X-72980044Y-199497016D01*
X-72995953Y-199521843D01*
G36*
X-67701473Y-198980699D02*
G01*
X-67772098Y-199024762D01*
X-67794004Y-199073354D01*
X-67801473Y-199130699D01*
X-67794004Y-199188045D01*
X-67772098Y-199236637D01*
X-67739609Y-199269143D01*
X-69765899Y-199876101D01*
X-69778472Y-199689352D01*
X-69983283Y-199388373D01*
X-70105099Y-199225353D01*
X-70208005Y-199062951D01*
X-70282576Y-198920629D01*
X-70301473Y-198836563D01*
X-70307001Y-198776511D01*
X-70323505Y-198724881D01*
X-70347792Y-198688926D01*
X-67701473Y-198980699D01*
G37*
X-67701473Y-198980699D02*
X-67772098Y-199024762D01*
X-67794004Y-199073354D01*
X-67801473Y-199130699D01*
X-67794004Y-199188045D01*
X-67772098Y-199236637D01*
X-67739609Y-199269143D01*
X-69765899Y-199876101D01*
X-69778472Y-199689352D01*
X-69983283Y-199388373D01*
X-70105099Y-199225353D01*
X-70208005Y-199062951D01*
X-70282576Y-198920629D01*
X-70301473Y-198836563D01*
X-70307001Y-198776511D01*
X-70323505Y-198724881D01*
X-70347792Y-198688926D01*
X-67701473Y-198980699D01*
G36*
X-67482543Y-198994814D02*
G01*
X-67401473Y-199259610D01*
X-67462141Y-199492855D01*
X-67692282Y-199859752D01*
X-67701473Y-199280700D01*
X-67663338Y-199269142D01*
X-67630848Y-199236637D01*
X-67608942Y-199188045D01*
X-67601474Y-199130699D01*
X-67608943Y-199073353D01*
X-67630848Y-199024762D01*
X-67663338Y-198992256D01*
X-67701473Y-198980699D01*
X-67482543Y-198994814D01*
G37*
X-67482543Y-198994814D02*
X-67401473Y-199259610D01*
X-67462141Y-199492855D01*
X-67692282Y-199859752D01*
X-67701473Y-199280700D01*
X-67663338Y-199269142D01*
X-67630848Y-199236637D01*
X-67608942Y-199188045D01*
X-67601474Y-199130699D01*
X-67608943Y-199073353D01*
X-67630848Y-199024762D01*
X-67663338Y-198992256D01*
X-67701473Y-198980699D01*
X-67482543Y-198994814D01*
G36*
X-52709269Y-193575595D02*
G01*
X-52620264Y-193662237D01*
X-52566015Y-193745864D01*
X-52511495Y-193859830D01*
X-52464811Y-193983533D01*
X-52434238Y-194098330D01*
X-52401181Y-194215894D01*
X-52356939Y-194287238D01*
X-52300578Y-194316658D01*
X-52232022Y-194309399D01*
X-52159090Y-194328855D01*
X-52114893Y-194427898D01*
X-52096816Y-194655454D01*
X-52100712Y-195141767D01*
X-52111534Y-196967604D01*
X-52053330Y-198131145D01*
X-51925943Y-198911596D01*
X-51700314Y-199401651D01*
X-51557500Y-199702581D01*
X-51517205Y-199879971D01*
X-51504654Y-200051650D01*
X-51535692Y-200319303D01*
X-51622765Y-200563236D01*
X-51741242Y-200732262D01*
X-51865237Y-200773630D01*
X-52014042Y-200779106D01*
X-52357770Y-200933014D01*
X-52402490Y-201017363D01*
X-52489419Y-201161605D01*
X-52826171Y-201312679D01*
X-53185148Y-201413533D01*
X-53367123Y-201367712D01*
X-53462008Y-201253052D01*
X-53491828Y-201188842D01*
X-53515212Y-201074384D01*
X-53562017Y-200992819D01*
X-53628699Y-200905567D01*
X-53707578Y-200825175D01*
X-53815750Y-200735955D01*
X-53887688Y-200703803D01*
X-53943508Y-200715331D01*
X-53993705Y-200768129D01*
X-54140074Y-200736154D01*
X-54196707Y-199926360D01*
X-54168160Y-198767117D01*
X-54045600Y-197570011D01*
X-53960187Y-196756058D01*
X-54024459Y-196419196D01*
X-53973718Y-196368455D01*
X-54026801Y-196347476D01*
X-54125067Y-196359990D01*
X-54244892Y-196397440D01*
X-54520000Y-196540000D01*
X-54913575Y-196758166D01*
X-55092887Y-196857732D01*
X-55249398Y-196951834D01*
X-55381451Y-197046852D01*
X-55479854Y-197132403D01*
X-55530848Y-197251921D01*
X-55601473Y-197280699D01*
X-55683903Y-197218234D01*
X-55689306Y-197061414D01*
X-55607952Y-196826612D01*
X-55451473Y-196559218D01*
X-55355782Y-196404926D01*
X-55217548Y-196102619D01*
X-55201473Y-196008183D01*
X-55160003Y-195830507D01*
X-55014721Y-195576831D01*
X-54763697Y-195227722D01*
X-54351473Y-194715401D01*
X-54037007Y-194352570D01*
X-53793456Y-194118408D01*
X-53530653Y-193927838D01*
X-53157981Y-193712237D01*
X-52909374Y-193584877D01*
X-52793111Y-193552296D01*
X-52709269Y-193575595D01*
G37*
X-52709269Y-193575595D02*
X-52620264Y-193662237D01*
X-52566015Y-193745864D01*
X-52511495Y-193859830D01*
X-52464811Y-193983533D01*
X-52434238Y-194098330D01*
X-52401181Y-194215894D01*
X-52356939Y-194287238D01*
X-52300578Y-194316658D01*
X-52232022Y-194309399D01*
X-52159090Y-194328855D01*
X-52114893Y-194427898D01*
X-52096816Y-194655454D01*
X-52100712Y-195141767D01*
X-52111534Y-196967604D01*
X-52053330Y-198131145D01*
X-51925943Y-198911596D01*
X-51700314Y-199401651D01*
X-51557500Y-199702581D01*
X-51517205Y-199879971D01*
X-51504654Y-200051650D01*
X-51535692Y-200319303D01*
X-51622765Y-200563236D01*
X-51741242Y-200732262D01*
X-51865237Y-200773630D01*
X-52014042Y-200779106D01*
X-52357770Y-200933014D01*
X-52402490Y-201017363D01*
X-52489419Y-201161605D01*
X-52826171Y-201312679D01*
X-53185148Y-201413533D01*
X-53367123Y-201367712D01*
X-53462008Y-201253052D01*
X-53491828Y-201188842D01*
X-53515212Y-201074384D01*
X-53562017Y-200992819D01*
X-53628699Y-200905567D01*
X-53707578Y-200825175D01*
X-53815750Y-200735955D01*
X-53887688Y-200703803D01*
X-53943508Y-200715331D01*
X-53993705Y-200768129D01*
X-54140074Y-200736154D01*
X-54196707Y-199926360D01*
X-54168160Y-198767117D01*
X-54045600Y-197570011D01*
X-53960187Y-196756058D01*
X-54024459Y-196419196D01*
X-53973718Y-196368455D01*
X-54026801Y-196347476D01*
X-54125067Y-196359990D01*
X-54244892Y-196397440D01*
X-54520000Y-196540000D01*
X-54913575Y-196758166D01*
X-55092887Y-196857732D01*
X-55249398Y-196951834D01*
X-55381451Y-197046852D01*
X-55479854Y-197132403D01*
X-55530848Y-197251921D01*
X-55601473Y-197280699D01*
X-55683903Y-197218234D01*
X-55689306Y-197061414D01*
X-55607952Y-196826612D01*
X-55451473Y-196559218D01*
X-55355782Y-196404926D01*
X-55217548Y-196102619D01*
X-55201473Y-196008183D01*
X-55160003Y-195830507D01*
X-55014721Y-195576831D01*
X-54763697Y-195227722D01*
X-54351473Y-194715401D01*
X-54037007Y-194352570D01*
X-53793456Y-194118408D01*
X-53530653Y-193927838D01*
X-53157981Y-193712237D01*
X-52909374Y-193584877D01*
X-52793111Y-193552296D01*
X-52709269Y-193575595D01*
G36*
X-63028709Y-199688145D02*
G01*
X-63028708Y-199688146D01*
X-63014427Y-199710075D01*
X-63004708Y-199742415D01*
X-63001474Y-199780700D01*
X-63009580Y-199818855D01*
X-63032582Y-199851324D01*
X-63066950Y-199873087D01*
X-63107375Y-199880700D01*
X-63142870Y-199872871D01*
X-63164014Y-199851324D01*
X-63167124Y-199818909D01*
X-63151473Y-199780699D01*
X-63124574Y-199742422D01*
X-63094871Y-199710074D01*
X-63045573Y-199680699D01*
X-63028709Y-199688145D01*
G37*
X-63028709Y-199688145D02*
X-63028708Y-199688146D01*
X-63014427Y-199710075D01*
X-63004708Y-199742415D01*
X-63001474Y-199780700D01*
X-63009580Y-199818855D01*
X-63032582Y-199851324D01*
X-63066950Y-199873087D01*
X-63107375Y-199880700D01*
X-63142870Y-199872871D01*
X-63164014Y-199851324D01*
X-63167124Y-199818909D01*
X-63151473Y-199780699D01*
X-63124574Y-199742422D01*
X-63094871Y-199710074D01*
X-63045573Y-199680699D01*
X-63028709Y-199688145D01*
G36*
X-61425018Y-194433135D02*
G01*
X-61394445Y-194555699D01*
X-61388482Y-194652691D01*
X-61373816Y-194662888D01*
X-61353893Y-194645559D01*
X-61305178Y-194530699D01*
X-61260053Y-194429990D01*
X-61229554Y-194402133D01*
X-61173108Y-194480699D01*
X-61101862Y-194746858D01*
X-61004313Y-195249613D01*
X-60913616Y-195782565D01*
X-60856024Y-196213992D01*
X-60870000Y-196540000D01*
X-60707136Y-196809801D01*
X-60260868Y-196892918D01*
X-59426534Y-197008677D01*
X-59120204Y-197106660D01*
X-58806753Y-197182110D01*
X-58237473Y-197210538D01*
X-57536248Y-197305072D01*
X-57712161Y-197739610D01*
X-58028458Y-198117654D01*
X-58355781Y-198397363D01*
X-58709757Y-198590504D01*
X-59150153Y-198722631D01*
X-59751473Y-198817094D01*
X-60099385Y-198888119D01*
X-60370670Y-199013478D01*
X-60557481Y-199188713D01*
X-60657251Y-199407005D01*
X-60677401Y-199538785D01*
X-60648451Y-199729102D01*
X-60550750Y-199819308D01*
X-60529927Y-200022592D01*
X-60590797Y-199924101D01*
X-60693314Y-200171180D01*
X-60714087Y-200423452D01*
X-60752800Y-200578646D01*
X-60809264Y-200730600D01*
X-60876202Y-200854406D01*
X-60987678Y-201027575D01*
X-61000931Y-201073328D01*
X-60915327Y-201073328D01*
X-60876202Y-201054026D01*
X-60750863Y-201032730D01*
X-60705960Y-201082992D01*
X-60754922Y-201180219D01*
X-60894701Y-201277075D01*
X-61050499Y-201411015D01*
X-61114423Y-201500868D01*
X-61153735Y-201587826D01*
X-61189778Y-201667159D01*
X-61239643Y-201722476D01*
X-61297556Y-201747920D01*
X-61414464Y-201729394D01*
X-61472258Y-201733535D01*
X-61521807Y-201753545D01*
X-61555181Y-201786698D01*
X-61586417Y-201818671D01*
X-61629437Y-201835736D01*
X-61677655Y-201835215D01*
X-61723554Y-201817053D01*
X-61839619Y-201823964D01*
X-61907042Y-201868959D01*
X-61966644Y-201934534D01*
X-62018637Y-201997719D01*
X-62061867Y-202029771D01*
X-62088590Y-202026725D01*
X-62101473Y-201999812D01*
X-62113022Y-201954386D01*
X-62145536Y-201915689D01*
X-62194171Y-201889682D01*
X-62251473Y-201880699D01*
X-62323151Y-201866740D01*
X-62417232Y-201820878D01*
X-62516125Y-201754985D01*
X-62689217Y-201602852D01*
X-62773497Y-201548398D01*
X-62846464Y-201518821D01*
X-62892342Y-201525055D01*
X-62973820Y-201488737D01*
X-63026167Y-201107199D01*
X-63043678Y-200688867D01*
X-62998863Y-200396137D01*
X-62954416Y-200265822D01*
X-62931784Y-200265288D01*
X-62916744Y-200332125D01*
X-62910069Y-200599798D01*
X-62898541Y-200784512D01*
X-62870941Y-200951529D01*
X-62833157Y-201083430D01*
X-62788940Y-201138446D01*
X-62743835Y-201139385D01*
X-62714904Y-201099399D01*
X-62708604Y-200996986D01*
X-62726305Y-200819348D01*
X-62738818Y-200632216D01*
X-62733510Y-200385866D01*
X-62713670Y-200125104D01*
X-62680762Y-199889427D01*
X-62627788Y-199428973D01*
X-62645599Y-199039941D01*
X-62723516Y-198792514D01*
X-62849304Y-198743704D01*
X-62906196Y-198780046D01*
X-62960920Y-198845385D01*
X-63005439Y-198927323D01*
X-63032008Y-199014155D01*
X-63063307Y-199129162D01*
X-63079356Y-199109661D01*
X-63087855Y-198955699D01*
X-63116076Y-198792682D01*
X-63184417Y-198716912D01*
X-63328384Y-198686067D01*
X-63744963Y-198680699D01*
X-64276457Y-198709986D01*
X-64650678Y-198780398D01*
X-64772013Y-198822809D01*
X-64835687Y-198831298D01*
X-64855784Y-198811738D01*
X-64845953Y-198771767D01*
X-64844301Y-198728582D01*
X-64881223Y-198698156D01*
X-64971167Y-198685655D01*
X-65116678Y-198692533D01*
X-65476375Y-198682579D01*
X-65665265Y-198565537D01*
X-65682583Y-198370571D01*
X-65513146Y-198116266D01*
X-65424534Y-198006401D01*
X-65385717Y-197916280D01*
X-65388375Y-197827116D01*
X-65430854Y-197722410D01*
X-65492876Y-197607889D01*
X-65491196Y-197586441D01*
X-65473725Y-197584110D01*
X-65382002Y-197657304D01*
X-65296554Y-197713097D01*
X-65244296Y-197707887D01*
X-65205898Y-197649560D01*
X-65167833Y-197487499D01*
X-65054936Y-197275189D01*
X-64840268Y-197151602D01*
X-64452546Y-197100769D01*
X-63721628Y-197112057D01*
X-63407832Y-197116338D01*
X-63159463Y-197101959D01*
X-62975822Y-197072754D01*
X-62896597Y-197024824D01*
X-62856072Y-196942699D01*
X-62810458Y-196720071D01*
X-62768631Y-196448523D01*
X-62737023Y-196148425D01*
X-62706157Y-195860012D01*
X-62666184Y-195626147D01*
X-62623272Y-195454372D01*
X-62586287Y-195440085D01*
X-62489629Y-195443263D01*
X-62357475Y-195348195D01*
X-62261704Y-195226073D01*
X-62272903Y-195142604D01*
X-62448032Y-195093046D01*
X-62526473Y-195080700D01*
X-62653955Y-195039964D01*
X-62671210Y-194953077D01*
X-62550450Y-194850332D01*
X-62348619Y-194797114D01*
X-62220885Y-194770435D01*
X-61931960Y-194647890D01*
X-61817846Y-194572114D01*
X-61617562Y-194428752D01*
X-61496287Y-194390255D01*
X-61425018Y-194433135D01*
G37*
X-61425018Y-194433135D02*
X-61394445Y-194555699D01*
X-61388482Y-194652691D01*
X-61373816Y-194662888D01*
X-61353893Y-194645559D01*
X-61305178Y-194530699D01*
X-61260053Y-194429990D01*
X-61229554Y-194402133D01*
X-61173108Y-194480699D01*
X-61101862Y-194746858D01*
X-61004313Y-195249613D01*
X-60913616Y-195782565D01*
X-60856024Y-196213992D01*
X-60870000Y-196540000D01*
X-60707136Y-196809801D01*
X-60260868Y-196892918D01*
X-59426534Y-197008677D01*
X-59120204Y-197106660D01*
X-58806753Y-197182110D01*
X-58237473Y-197210538D01*
X-57536248Y-197305072D01*
X-57712161Y-197739610D01*
X-58028458Y-198117654D01*
X-58355781Y-198397363D01*
X-58709757Y-198590504D01*
X-59150153Y-198722631D01*
X-59751473Y-198817094D01*
X-60099385Y-198888119D01*
X-60370670Y-199013478D01*
X-60557481Y-199188713D01*
X-60657251Y-199407005D01*
X-60677401Y-199538785D01*
X-60648451Y-199729102D01*
X-60550750Y-199819308D01*
X-60529927Y-200022592D01*
X-60590797Y-199924101D01*
X-60693314Y-200171180D01*
X-60714087Y-200423452D01*
X-60752800Y-200578646D01*
X-60809264Y-200730600D01*
X-60876202Y-200854406D01*
X-60987678Y-201027575D01*
X-61000931Y-201073328D01*
X-60915327Y-201073328D01*
X-60876202Y-201054026D01*
X-60750863Y-201032730D01*
X-60705960Y-201082992D01*
X-60754922Y-201180219D01*
X-60894701Y-201277075D01*
X-61050499Y-201411015D01*
X-61114423Y-201500868D01*
X-61153735Y-201587826D01*
X-61189778Y-201667159D01*
X-61239643Y-201722476D01*
X-61297556Y-201747920D01*
X-61414464Y-201729394D01*
X-61472258Y-201733535D01*
X-61521807Y-201753545D01*
X-61555181Y-201786698D01*
X-61586417Y-201818671D01*
X-61629437Y-201835736D01*
X-61677655Y-201835215D01*
X-61723554Y-201817053D01*
X-61839619Y-201823964D01*
X-61907042Y-201868959D01*
X-61966644Y-201934534D01*
X-62018637Y-201997719D01*
X-62061867Y-202029771D01*
X-62088590Y-202026725D01*
X-62101473Y-201999812D01*
X-62113022Y-201954386D01*
X-62145536Y-201915689D01*
X-62194171Y-201889682D01*
X-62251473Y-201880699D01*
X-62323151Y-201866740D01*
X-62417232Y-201820878D01*
X-62516125Y-201754985D01*
X-62689217Y-201602852D01*
X-62773497Y-201548398D01*
X-62846464Y-201518821D01*
X-62892342Y-201525055D01*
X-62973820Y-201488737D01*
X-63026167Y-201107199D01*
X-63043678Y-200688867D01*
X-62998863Y-200396137D01*
X-62954416Y-200265822D01*
X-62931784Y-200265288D01*
X-62916744Y-200332125D01*
X-62910069Y-200599798D01*
X-62898541Y-200784512D01*
X-62870941Y-200951529D01*
X-62833157Y-201083430D01*
X-62788940Y-201138446D01*
X-62743835Y-201139385D01*
X-62714904Y-201099399D01*
X-62708604Y-200996986D01*
X-62726305Y-200819348D01*
X-62738818Y-200632216D01*
X-62733510Y-200385866D01*
X-62713670Y-200125104D01*
X-62680762Y-199889427D01*
X-62627788Y-199428973D01*
X-62645599Y-199039941D01*
X-62723516Y-198792514D01*
X-62849304Y-198743704D01*
X-62906196Y-198780046D01*
X-62960920Y-198845385D01*
X-63005439Y-198927323D01*
X-63032008Y-199014155D01*
X-63063307Y-199129162D01*
X-63079356Y-199109661D01*
X-63087855Y-198955699D01*
X-63116076Y-198792682D01*
X-63184417Y-198716912D01*
X-63328384Y-198686067D01*
X-63744963Y-198680699D01*
X-64276457Y-198709986D01*
X-64650678Y-198780398D01*
X-64772013Y-198822809D01*
X-64835687Y-198831298D01*
X-64855784Y-198811738D01*
X-64845953Y-198771767D01*
X-64844301Y-198728582D01*
X-64881223Y-198698156D01*
X-64971167Y-198685655D01*
X-65116678Y-198692533D01*
X-65476375Y-198682579D01*
X-65665265Y-198565537D01*
X-65682583Y-198370571D01*
X-65513146Y-198116266D01*
X-65424534Y-198006401D01*
X-65385717Y-197916280D01*
X-65388375Y-197827116D01*
X-65430854Y-197722410D01*
X-65492876Y-197607889D01*
X-65491196Y-197586441D01*
X-65473725Y-197584110D01*
X-65382002Y-197657304D01*
X-65296554Y-197713097D01*
X-65244296Y-197707887D01*
X-65205898Y-197649560D01*
X-65167833Y-197487499D01*
X-65054936Y-197275189D01*
X-64840268Y-197151602D01*
X-64452546Y-197100769D01*
X-63721628Y-197112057D01*
X-63407832Y-197116338D01*
X-63159463Y-197101959D01*
X-62975822Y-197072754D01*
X-62896597Y-197024824D01*
X-62856072Y-196942699D01*
X-62810458Y-196720071D01*
X-62768631Y-196448523D01*
X-62737023Y-196148425D01*
X-62706157Y-195860012D01*
X-62666184Y-195626147D01*
X-62623272Y-195454372D01*
X-62586287Y-195440085D01*
X-62489629Y-195443263D01*
X-62357475Y-195348195D01*
X-62261704Y-195226073D01*
X-62272903Y-195142604D01*
X-62448032Y-195093046D01*
X-62526473Y-195080700D01*
X-62653955Y-195039964D01*
X-62671210Y-194953077D01*
X-62550450Y-194850332D01*
X-62348619Y-194797114D01*
X-62220885Y-194770435D01*
X-61931960Y-194647890D01*
X-61817846Y-194572114D01*
X-61617562Y-194428752D01*
X-61496287Y-194390255D01*
X-61425018Y-194433135D01*
D13*
X-72458350Y-199304263D02*
X-72378022Y-199418172D01*
X-72804536Y-199930699D02*
X-72806994Y-200039556D01*
X-72290056Y-199569391D02*
X-72203817Y-199748692D01*
X-72955488Y-199502722D02*
X-72901473Y-199580699D01*
X-72998411Y-199630699D02*
X-72995953Y-199521843D01*
X-72847458Y-200058677D02*
X-72901473Y-199980699D01*
X-72335892Y-199909024D02*
X-72527044Y-199526613D01*
X-70282577Y-198920629D02*
X-70208005Y-199062951D01*
X-72121584Y-200305417D02*
X-72335892Y-199909024D01*
X-72203817Y-199748692D02*
X-72020564Y-200188397D01*
X-70208005Y-199062951D02*
X-70105099Y-199225353D01*
X-70957516Y-198637704D02*
X-70376473Y-198675240D01*
X-70105099Y-199225353D02*
X-69983283Y-199388373D01*
X-69643023Y-196247115D02*
X-69483461Y-196280659D01*
X-69801375Y-196219116D02*
X-69643023Y-196247115D01*
X-70455847Y-197224104D02*
X-70645564Y-197307742D01*
X-68939256Y-197416923D02*
X-69014951Y-197379748D01*
X-68751423Y-197494783D02*
X-68846227Y-197457358D01*
X-67482543Y-198994814D02*
X-67917708Y-198381755D01*
X-69483461Y-196280659D02*
X-69343697Y-196314664D01*
X-69405588Y-197352801D02*
X-69507571Y-197374846D01*
X-70645564Y-197307742D02*
X-70794383Y-197371909D01*
X-68846227Y-197457358D02*
X-68939256Y-197416923D01*
X-67917708Y-198381755D02*
X-68387374Y-197771889D01*
X-71268817Y-197129899D02*
X-71161277Y-196899658D01*
X-68670135Y-197522693D02*
X-68751423Y-197494783D01*
X-61305178Y-194530699D02*
X-61353893Y-194645559D01*
X-60913616Y-195782565D02*
X-61004313Y-195249613D01*
X-60260868Y-196892918D02*
X-60506555Y-196852389D01*
X-60804331Y-196578397D02*
X-60832181Y-196404822D01*
X-59690618Y-196961480D02*
X-59978693Y-196926073D01*
X-57742905Y-197211308D02*
X-58237473Y-197210538D01*
X-59978693Y-196926073D02*
X-60260868Y-196892918D01*
X-58806753Y-197182110D02*
X-59029200Y-197149005D01*
X-58534840Y-197204511D02*
X-58806753Y-197182110D01*
X-69395103Y-201078415D02*
X-69199812Y-201042604D01*
X-69611465Y-201130190D02*
X-69395103Y-201078415D01*
X-60776084Y-196721987D02*
X-60804331Y-196578397D01*
X-58237473Y-197210538D02*
X-58534840Y-197204511D01*
X-69815840Y-201188880D02*
X-69611465Y-201130190D01*
X-73157149Y-199296554D02*
X-73105284Y-199612342D01*
X-73056985Y-198408689D02*
X-73136773Y-198771182D01*
X-61388482Y-194652691D02*
X-61394445Y-194555699D01*
X-59426534Y-197008677D02*
X-59690618Y-196961480D01*
X-60506555Y-196852389D02*
X-60707136Y-196809801D01*
X-71201733Y-195893236D02*
X-71737080Y-196246600D01*
X-70637586Y-195558217D02*
X-71201733Y-195893236D01*
X-61004313Y-195249613D02*
X-61101862Y-194746858D01*
X-60856024Y-196213992D02*
X-60913616Y-195782565D01*
X-61260053Y-194429990D02*
X-61305178Y-194530699D01*
X-59210068Y-197060262D02*
X-59426534Y-197008677D01*
X-60832181Y-196404822D02*
X-60856024Y-196213992D01*
X-60876202Y-201054026D02*
X-60979963Y-201089042D01*
X-57712161Y-197739610D02*
X-57595752Y-197563203D01*
X-58028458Y-198117654D02*
X-57862147Y-197933146D01*
X-59751473Y-198817094D02*
X-59150153Y-198722631D01*
X-57862147Y-197933146D02*
X-57712161Y-197739610D01*
X-60987678Y-201027575D02*
X-60876202Y-200854406D01*
X-62680762Y-199889427D02*
X-62713670Y-200125104D01*
X-64772013Y-198822809D02*
X-64650678Y-198780397D01*
X-64010557Y-198688026D02*
X-63744963Y-198680699D01*
X-62910069Y-200599798D02*
X-62916744Y-200332125D01*
X-62713670Y-200125104D02*
X-62733510Y-200385866D01*
X-65116678Y-198692532D02*
X-64971167Y-198685655D01*
X-63087855Y-198955699D02*
X-63079356Y-199109661D01*
X-63744963Y-198680699D02*
X-63328384Y-198686067D01*
X-62733510Y-200385866D02*
X-62738818Y-200632216D01*
X-63026167Y-201107199D02*
X-62973820Y-201488737D01*
X-64276457Y-198709986D02*
X-64010557Y-198688026D01*
X-63056124Y-199130734D02*
X-63032008Y-199014155D01*
X-62954416Y-200265822D02*
X-62998863Y-200396137D01*
X-62726305Y-200819348D02*
X-62708604Y-200996987D01*
X-64507948Y-198741864D02*
X-64276457Y-198709986D01*
X-62810458Y-196720071D02*
X-62856072Y-196942699D01*
X-62706157Y-195860012D02*
X-62737023Y-196148425D01*
X-62623272Y-195454372D02*
X-62666184Y-195626147D01*
X-52464811Y-193983532D02*
X-52511495Y-193859830D01*
X-52511495Y-193859830D02*
X-52566015Y-193745864D01*
X-63721628Y-197112057D02*
X-64452546Y-197100769D01*
X-65492876Y-197607889D02*
X-65430854Y-197722410D01*
X-65382002Y-197657304D02*
X-65473725Y-197584110D01*
X-65167833Y-197487499D02*
X-65205898Y-197649560D01*
X-62768631Y-196448523D02*
X-62810458Y-196720071D01*
X-62737023Y-196148425D02*
X-62768631Y-196448523D01*
X-52909374Y-193584877D02*
X-53157981Y-193712237D01*
X-52100712Y-195141767D02*
X-52096816Y-194655454D01*
X-62666184Y-195626147D02*
X-62706157Y-195860012D01*
X-52111534Y-196967604D02*
X-52100712Y-195141767D01*
X-63407832Y-197116338D02*
X-63721628Y-197112057D01*
X-54168160Y-198767117D02*
X-54196707Y-199926360D01*
X-54351473Y-194715401D02*
X-54763697Y-195227722D01*
X-55092887Y-196857732D02*
X-54913575Y-196758166D01*
X-55355782Y-196404926D02*
X-55451473Y-196559218D01*
X-54712293Y-196646537D02*
X-54520000Y-196540000D01*
X-53991949Y-197135654D02*
X-54045600Y-197570011D01*
X-55249398Y-196951834D02*
X-55092887Y-196857732D01*
X-54037007Y-194352570D02*
X-54351473Y-194715401D01*
X-54913575Y-196758166D02*
X-54712293Y-196646537D01*
X-54763697Y-195227722D02*
X-55014721Y-195576831D01*
X-54045600Y-197570011D02*
X-54168160Y-198767117D01*
X-53960187Y-196756058D02*
X-53991949Y-197135654D01*
X-53945511Y-196439862D02*
X-53960187Y-196756058D01*
X-53157981Y-193712237D02*
X-53530653Y-193927838D01*
X-54520000Y-196540000D02*
X-54371005Y-196457582D01*
%TD*%
M02*
