%TF.GenerationSoftware,KiCad,Pcbnew,(5.1.9)-1*%
%TF.CreationDate,2021-08-21T12:12:35+01:00*%
%TF.ProjectId,KOSMOS LFO6 Front Panel,4b4f534d-4f53-4204-9c46-4f362046726f,rev?*%
%TF.SameCoordinates,Original*%
%TF.FileFunction,Other,Fab,Top*%
%FSLAX46Y46*%
G04 Gerber Fmt 4.6, Leading zero omitted, Abs format (unit mm)*
G04 Created by KiCad (PCBNEW (5.1.9)-1) date 2021-08-21 12:12:35*
%MOMM*%
%LPD*%
G01*
G04 APERTURE LIST*
%ADD10C,0.150000*%
G04 APERTURE END LIST*
%TO.C,REF\u002A\u002A*%
D10*
X-63473333Y-189872380D02*
X-63806666Y-189396190D01*
X-64044761Y-189872380D02*
X-64044761Y-188872380D01*
X-63663809Y-188872380D01*
X-63568571Y-188920000D01*
X-63520952Y-188967619D01*
X-63473333Y-189062857D01*
X-63473333Y-189205714D01*
X-63520952Y-189300952D01*
X-63568571Y-189348571D01*
X-63663809Y-189396190D01*
X-64044761Y-189396190D01*
X-63044761Y-189348571D02*
X-62711428Y-189348571D01*
X-62568571Y-189872380D02*
X-63044761Y-189872380D01*
X-63044761Y-188872380D01*
X-62568571Y-188872380D01*
X-61806666Y-189348571D02*
X-62140000Y-189348571D01*
X-62140000Y-189872380D02*
X-62140000Y-188872380D01*
X-61663809Y-188872380D01*
X-61140000Y-188872380D02*
X-61140000Y-189110476D01*
X-61378095Y-189015238D02*
X-61140000Y-189110476D01*
X-60901904Y-189015238D01*
X-61282857Y-189300952D02*
X-61140000Y-189110476D01*
X-60997142Y-189300952D01*
X-60378095Y-188872380D02*
X-60378095Y-189110476D01*
X-60616190Y-189015238D02*
X-60378095Y-189110476D01*
X-60140000Y-189015238D01*
X-60520952Y-189300952D02*
X-60378095Y-189110476D01*
X-60235238Y-189300952D01*
X-64663809Y-187872380D02*
X-64854285Y-187872380D01*
X-64949523Y-187920000D01*
X-64997142Y-187967619D01*
X-65092380Y-188110476D01*
X-65140000Y-188300952D01*
X-65140000Y-188681904D01*
X-65092380Y-188777142D01*
X-65044761Y-188824761D01*
X-64949523Y-188872380D01*
X-64759047Y-188872380D01*
X-64663809Y-188824761D01*
X-64616190Y-188777142D01*
X-64568571Y-188681904D01*
X-64568571Y-188443809D01*
X-64616190Y-188348571D01*
X-64663809Y-188300952D01*
X-64759047Y-188253333D01*
X-64949523Y-188253333D01*
X-65044761Y-188300952D01*
X-65092380Y-188348571D01*
X-65140000Y-188443809D01*
X-64140000Y-188491428D02*
X-63378095Y-188491428D01*
X-63759047Y-188872380D02*
X-63759047Y-188110476D01*
X-62378095Y-188872380D02*
X-62949523Y-188872380D01*
X-62663809Y-188872380D02*
X-62663809Y-187872380D01*
X-62759047Y-188015238D01*
X-62854285Y-188110476D01*
X-62949523Y-188158095D01*
X-61806666Y-188872380D02*
X-61901904Y-188824761D01*
X-61949523Y-188729523D01*
X-61949523Y-187872380D01*
X-61282857Y-188872380D02*
X-61378095Y-188824761D01*
X-61425714Y-188777142D01*
X-61473333Y-188681904D01*
X-61473333Y-188396190D01*
X-61425714Y-188300952D01*
X-61378095Y-188253333D01*
X-61282857Y-188205714D01*
X-61140000Y-188205714D01*
X-61044761Y-188253333D01*
X-60997142Y-188300952D01*
X-60949523Y-188396190D01*
X-60949523Y-188681904D01*
X-60997142Y-188777142D01*
X-61044761Y-188824761D01*
X-61140000Y-188872380D01*
X-61282857Y-188872380D01*
X-60092380Y-188205714D02*
X-60092380Y-189015238D01*
X-60140000Y-189110476D01*
X-60187619Y-189158095D01*
X-60282857Y-189205714D01*
X-60425714Y-189205714D01*
X-60520952Y-189158095D01*
X-60092380Y-188824761D02*
X-60187619Y-188872380D01*
X-60378095Y-188872380D01*
X-60473333Y-188824761D01*
X-60520952Y-188777142D01*
X-60568571Y-188681904D01*
X-60568571Y-188396190D01*
X-60520952Y-188300952D01*
X-60473333Y-188253333D01*
X-60378095Y-188205714D01*
X-60187619Y-188205714D01*
X-60092380Y-188253333D01*
X-59473333Y-188872380D02*
X-59568571Y-188824761D01*
X-59616190Y-188777142D01*
X-59663809Y-188681904D01*
X-59663809Y-188396190D01*
X-59616190Y-188300952D01*
X-59568571Y-188253333D01*
X-59473333Y-188205714D01*
X-59330476Y-188205714D01*
X-59235238Y-188253333D01*
X-59187619Y-188300952D01*
X-59140000Y-188396190D01*
X-59140000Y-188681904D01*
X-59187619Y-188777142D01*
X-59235238Y-188824761D01*
X-59330476Y-188872380D01*
X-59473333Y-188872380D01*
%TO.C,H1*%
X-115430476Y-207222380D02*
X-115430476Y-206222380D01*
X-115097142Y-206936666D01*
X-114763809Y-206222380D01*
X-114763809Y-207222380D01*
X-114144761Y-207222380D02*
X-114240000Y-207174761D01*
X-114287619Y-207127142D01*
X-114335238Y-207031904D01*
X-114335238Y-206746190D01*
X-114287619Y-206650952D01*
X-114240000Y-206603333D01*
X-114144761Y-206555714D01*
X-114001904Y-206555714D01*
X-113906666Y-206603333D01*
X-113859047Y-206650952D01*
X-113811428Y-206746190D01*
X-113811428Y-207031904D01*
X-113859047Y-207127142D01*
X-113906666Y-207174761D01*
X-114001904Y-207222380D01*
X-114144761Y-207222380D01*
X-112954285Y-206555714D02*
X-112954285Y-207222380D01*
X-113382857Y-206555714D02*
X-113382857Y-207079523D01*
X-113335238Y-207174761D01*
X-113240000Y-207222380D01*
X-113097142Y-207222380D01*
X-113001904Y-207174761D01*
X-112954285Y-207127142D01*
X-112478095Y-206555714D02*
X-112478095Y-207222380D01*
X-112478095Y-206650952D02*
X-112430476Y-206603333D01*
X-112335238Y-206555714D01*
X-112192380Y-206555714D01*
X-112097142Y-206603333D01*
X-112049523Y-206698571D01*
X-112049523Y-207222380D01*
X-111716190Y-206555714D02*
X-111335238Y-206555714D01*
X-111573333Y-206222380D02*
X-111573333Y-207079523D01*
X-111525714Y-207174761D01*
X-111430476Y-207222380D01*
X-111335238Y-207222380D01*
X-111001904Y-207222380D02*
X-111001904Y-206555714D01*
X-111001904Y-206222380D02*
X-111049523Y-206270000D01*
X-111001904Y-206317619D01*
X-110954285Y-206270000D01*
X-111001904Y-206222380D01*
X-111001904Y-206317619D01*
X-110525714Y-206555714D02*
X-110525714Y-207222380D01*
X-110525714Y-206650952D02*
X-110478095Y-206603333D01*
X-110382857Y-206555714D01*
X-110240000Y-206555714D01*
X-110144761Y-206603333D01*
X-110097142Y-206698571D01*
X-110097142Y-207222380D01*
X-109192380Y-206555714D02*
X-109192380Y-207365238D01*
X-109240000Y-207460476D01*
X-109287619Y-207508095D01*
X-109382857Y-207555714D01*
X-109525714Y-207555714D01*
X-109620952Y-207508095D01*
X-109192380Y-207174761D02*
X-109287619Y-207222380D01*
X-109478095Y-207222380D01*
X-109573333Y-207174761D01*
X-109620952Y-207127142D01*
X-109668571Y-207031904D01*
X-109668571Y-206746190D01*
X-109620952Y-206650952D01*
X-109573333Y-206603333D01*
X-109478095Y-206555714D01*
X-109287619Y-206555714D01*
X-109192380Y-206603333D01*
X-108954285Y-207317619D02*
X-108192380Y-207317619D01*
X-107954285Y-207222380D02*
X-107954285Y-206222380D01*
X-107954285Y-206698571D02*
X-107382857Y-206698571D01*
X-107382857Y-207222380D02*
X-107382857Y-206222380D01*
X-106763809Y-207222380D02*
X-106859047Y-207174761D01*
X-106906666Y-207127142D01*
X-106954285Y-207031904D01*
X-106954285Y-206746190D01*
X-106906666Y-206650952D01*
X-106859047Y-206603333D01*
X-106763809Y-206555714D01*
X-106620952Y-206555714D01*
X-106525714Y-206603333D01*
X-106478095Y-206650952D01*
X-106430476Y-206746190D01*
X-106430476Y-207031904D01*
X-106478095Y-207127142D01*
X-106525714Y-207174761D01*
X-106620952Y-207222380D01*
X-106763809Y-207222380D01*
X-105859047Y-207222380D02*
X-105954285Y-207174761D01*
X-106001904Y-207079523D01*
X-106001904Y-206222380D01*
X-105097142Y-207174761D02*
X-105192380Y-207222380D01*
X-105382857Y-207222380D01*
X-105478095Y-207174761D01*
X-105525714Y-207079523D01*
X-105525714Y-206698571D01*
X-105478095Y-206603333D01*
X-105382857Y-206555714D01*
X-105192380Y-206555714D01*
X-105097142Y-206603333D01*
X-105049523Y-206698571D01*
X-105049523Y-206793809D01*
X-105525714Y-206889047D01*
X-104859047Y-207317619D02*
X-104097142Y-207317619D01*
X-103906666Y-207174761D02*
X-103763809Y-207222380D01*
X-103525714Y-207222380D01*
X-103430476Y-207174761D01*
X-103382857Y-207127142D01*
X-103335238Y-207031904D01*
X-103335238Y-206936666D01*
X-103382857Y-206841428D01*
X-103430476Y-206793809D01*
X-103525714Y-206746190D01*
X-103716190Y-206698571D01*
X-103811428Y-206650952D01*
X-103859047Y-206603333D01*
X-103906666Y-206508095D01*
X-103906666Y-206412857D01*
X-103859047Y-206317619D01*
X-103811428Y-206270000D01*
X-103716190Y-206222380D01*
X-103478095Y-206222380D01*
X-103335238Y-206270000D01*
X-102763809Y-207222380D02*
X-102859047Y-207174761D01*
X-102906666Y-207079523D01*
X-102906666Y-206222380D01*
X-102240000Y-207222380D02*
X-102335238Y-207174761D01*
X-102382857Y-207127142D01*
X-102430476Y-207031904D01*
X-102430476Y-206746190D01*
X-102382857Y-206650952D01*
X-102335238Y-206603333D01*
X-102240000Y-206555714D01*
X-102097142Y-206555714D01*
X-102001904Y-206603333D01*
X-101954285Y-206650952D01*
X-101906666Y-206746190D01*
X-101906666Y-207031904D01*
X-101954285Y-207127142D01*
X-102001904Y-207174761D01*
X-102097142Y-207222380D01*
X-102240000Y-207222380D01*
X-101620952Y-206555714D02*
X-101240000Y-206555714D01*
X-101478095Y-206222380D02*
X-101478095Y-207079523D01*
X-101430476Y-207174761D01*
X-101335238Y-207222380D01*
X-101240000Y-207222380D01*
X-101049523Y-206555714D02*
X-100668571Y-206555714D01*
X-100906666Y-206222380D02*
X-100906666Y-207079523D01*
X-100859047Y-207174761D01*
X-100763809Y-207222380D01*
X-100668571Y-207222380D01*
X-99954285Y-207174761D02*
X-100049523Y-207222380D01*
X-100240000Y-207222380D01*
X-100335238Y-207174761D01*
X-100382857Y-207079523D01*
X-100382857Y-206698571D01*
X-100335238Y-206603333D01*
X-100240000Y-206555714D01*
X-100049523Y-206555714D01*
X-99954285Y-206603333D01*
X-99906666Y-206698571D01*
X-99906666Y-206793809D01*
X-100382857Y-206889047D01*
X-99049523Y-207222380D02*
X-99049523Y-206222380D01*
X-99049523Y-207174761D02*
X-99144761Y-207222380D01*
X-99335238Y-207222380D01*
X-99430476Y-207174761D01*
X-99478095Y-207127142D01*
X-99525714Y-207031904D01*
X-99525714Y-206746190D01*
X-99478095Y-206650952D01*
X-99430476Y-206603333D01*
X-99335238Y-206555714D01*
X-99144761Y-206555714D01*
X-99049523Y-206603333D01*
X-107701904Y-203022380D02*
X-107701904Y-202022380D01*
X-107701904Y-202498571D02*
X-107130476Y-202498571D01*
X-107130476Y-203022380D02*
X-107130476Y-202022380D01*
X-106130476Y-203022380D02*
X-106701904Y-203022380D01*
X-106416190Y-203022380D02*
X-106416190Y-202022380D01*
X-106511428Y-202165238D01*
X-106606666Y-202260476D01*
X-106701904Y-202308095D01*
%TO.C,H2*%
X-64799047Y-85592380D02*
X-65275238Y-85592380D01*
X-65275238Y-84592380D01*
X-64084761Y-85544761D02*
X-64180000Y-85592380D01*
X-64370476Y-85592380D01*
X-64465714Y-85544761D01*
X-64513333Y-85449523D01*
X-64513333Y-85068571D01*
X-64465714Y-84973333D01*
X-64370476Y-84925714D01*
X-64180000Y-84925714D01*
X-64084761Y-84973333D01*
X-64037142Y-85068571D01*
X-64037142Y-85163809D01*
X-64513333Y-85259047D01*
X-63180000Y-85592380D02*
X-63180000Y-84592380D01*
X-63180000Y-85544761D02*
X-63275238Y-85592380D01*
X-63465714Y-85592380D01*
X-63560952Y-85544761D01*
X-63608571Y-85497142D01*
X-63656190Y-85401904D01*
X-63656190Y-85116190D01*
X-63608571Y-85020952D01*
X-63560952Y-84973333D01*
X-63465714Y-84925714D01*
X-63275238Y-84925714D01*
X-63180000Y-84973333D01*
X-62941904Y-85687619D02*
X-62180000Y-85687619D01*
X-61941904Y-85592380D02*
X-61941904Y-84592380D01*
X-61941904Y-85068571D02*
X-61370476Y-85068571D01*
X-61370476Y-85592380D02*
X-61370476Y-84592380D01*
X-60751428Y-85592380D02*
X-60846666Y-85544761D01*
X-60894285Y-85497142D01*
X-60941904Y-85401904D01*
X-60941904Y-85116190D01*
X-60894285Y-85020952D01*
X-60846666Y-84973333D01*
X-60751428Y-84925714D01*
X-60608571Y-84925714D01*
X-60513333Y-84973333D01*
X-60465714Y-85020952D01*
X-60418095Y-85116190D01*
X-60418095Y-85401904D01*
X-60465714Y-85497142D01*
X-60513333Y-85544761D01*
X-60608571Y-85592380D01*
X-60751428Y-85592380D01*
X-59846666Y-85592380D02*
X-59941904Y-85544761D01*
X-59989523Y-85449523D01*
X-59989523Y-84592380D01*
X-59084761Y-85544761D02*
X-59180000Y-85592380D01*
X-59370476Y-85592380D01*
X-59465714Y-85544761D01*
X-59513333Y-85449523D01*
X-59513333Y-85068571D01*
X-59465714Y-84973333D01*
X-59370476Y-84925714D01*
X-59180000Y-84925714D01*
X-59084761Y-84973333D01*
X-59037142Y-85068571D01*
X-59037142Y-85163809D01*
X-59513333Y-85259047D01*
X-62641904Y-79592380D02*
X-62641904Y-78592380D01*
X-62641904Y-79068571D02*
X-62070476Y-79068571D01*
X-62070476Y-79592380D02*
X-62070476Y-78592380D01*
X-61641904Y-78687619D02*
X-61594285Y-78640000D01*
X-61499047Y-78592380D01*
X-61260952Y-78592380D01*
X-61165714Y-78640000D01*
X-61118095Y-78687619D01*
X-61070476Y-78782857D01*
X-61070476Y-78878095D01*
X-61118095Y-79020952D01*
X-61689523Y-79592380D01*
X-61070476Y-79592380D01*
%TO.C,H3*%
X-26827619Y-61852380D02*
X-26827619Y-60852380D01*
X-26446666Y-60852380D01*
X-26351428Y-60900000D01*
X-26303809Y-60947619D01*
X-26256190Y-61042857D01*
X-26256190Y-61185714D01*
X-26303809Y-61280952D01*
X-26351428Y-61328571D01*
X-26446666Y-61376190D01*
X-26827619Y-61376190D01*
X-25684761Y-61852380D02*
X-25780000Y-61804761D01*
X-25827619Y-61757142D01*
X-25875238Y-61661904D01*
X-25875238Y-61376190D01*
X-25827619Y-61280952D01*
X-25780000Y-61233333D01*
X-25684761Y-61185714D01*
X-25541904Y-61185714D01*
X-25446666Y-61233333D01*
X-25399047Y-61280952D01*
X-25351428Y-61376190D01*
X-25351428Y-61661904D01*
X-25399047Y-61757142D01*
X-25446666Y-61804761D01*
X-25541904Y-61852380D01*
X-25684761Y-61852380D01*
X-25065714Y-61185714D02*
X-24684761Y-61185714D01*
X-24922857Y-60852380D02*
X-24922857Y-61709523D01*
X-24875238Y-61804761D01*
X-24780000Y-61852380D01*
X-24684761Y-61852380D01*
X-24589523Y-61947619D02*
X-23827619Y-61947619D01*
X-23589523Y-61852380D02*
X-23589523Y-60852380D01*
X-23589523Y-61328571D02*
X-23018095Y-61328571D01*
X-23018095Y-61852380D02*
X-23018095Y-60852380D01*
X-22399047Y-61852380D02*
X-22494285Y-61804761D01*
X-22541904Y-61757142D01*
X-22589523Y-61661904D01*
X-22589523Y-61376190D01*
X-22541904Y-61280952D01*
X-22494285Y-61233333D01*
X-22399047Y-61185714D01*
X-22256190Y-61185714D01*
X-22160952Y-61233333D01*
X-22113333Y-61280952D01*
X-22065714Y-61376190D01*
X-22065714Y-61661904D01*
X-22113333Y-61757142D01*
X-22160952Y-61804761D01*
X-22256190Y-61852380D01*
X-22399047Y-61852380D01*
X-21494285Y-61852380D02*
X-21589523Y-61804761D01*
X-21637142Y-61709523D01*
X-21637142Y-60852380D01*
X-20732380Y-61804761D02*
X-20827619Y-61852380D01*
X-21018095Y-61852380D01*
X-21113333Y-61804761D01*
X-21160952Y-61709523D01*
X-21160952Y-61328571D01*
X-21113333Y-61233333D01*
X-21018095Y-61185714D01*
X-20827619Y-61185714D01*
X-20732380Y-61233333D01*
X-20684761Y-61328571D01*
X-20684761Y-61423809D01*
X-21160952Y-61519047D01*
X-24241904Y-54852380D02*
X-24241904Y-53852380D01*
X-24241904Y-54328571D02*
X-23670476Y-54328571D01*
X-23670476Y-54852380D02*
X-23670476Y-53852380D01*
X-23289523Y-53852380D02*
X-22670476Y-53852380D01*
X-23003809Y-54233333D01*
X-22860952Y-54233333D01*
X-22765714Y-54280952D01*
X-22718095Y-54328571D01*
X-22670476Y-54423809D01*
X-22670476Y-54661904D01*
X-22718095Y-54757142D01*
X-22765714Y-54804761D01*
X-22860952Y-54852380D01*
X-23146666Y-54852380D01*
X-23241904Y-54804761D01*
X-23289523Y-54757142D01*
%TO.C,H4*%
X-77460476Y-191042380D02*
X-77460476Y-191756666D01*
X-77508095Y-191899523D01*
X-77603333Y-191994761D01*
X-77746190Y-192042380D01*
X-77841428Y-192042380D01*
X-76555714Y-192042380D02*
X-76555714Y-191518571D01*
X-76603333Y-191423333D01*
X-76698571Y-191375714D01*
X-76889047Y-191375714D01*
X-76984285Y-191423333D01*
X-76555714Y-191994761D02*
X-76650952Y-192042380D01*
X-76889047Y-192042380D01*
X-76984285Y-191994761D01*
X-77031904Y-191899523D01*
X-77031904Y-191804285D01*
X-76984285Y-191709047D01*
X-76889047Y-191661428D01*
X-76650952Y-191661428D01*
X-76555714Y-191613809D01*
X-75650952Y-191994761D02*
X-75746190Y-192042380D01*
X-75936666Y-192042380D01*
X-76031904Y-191994761D01*
X-76079523Y-191947142D01*
X-76127142Y-191851904D01*
X-76127142Y-191566190D01*
X-76079523Y-191470952D01*
X-76031904Y-191423333D01*
X-75936666Y-191375714D01*
X-75746190Y-191375714D01*
X-75650952Y-191423333D01*
X-75222380Y-192042380D02*
X-75222380Y-191042380D01*
X-75127142Y-191661428D02*
X-74841428Y-192042380D01*
X-74841428Y-191375714D02*
X-75222380Y-191756666D01*
X-74650952Y-192137619D02*
X-73889047Y-192137619D01*
X-73650952Y-192042380D02*
X-73650952Y-191042380D01*
X-73650952Y-191518571D02*
X-73079523Y-191518571D01*
X-73079523Y-192042380D02*
X-73079523Y-191042380D01*
X-72460476Y-192042380D02*
X-72555714Y-191994761D01*
X-72603333Y-191947142D01*
X-72650952Y-191851904D01*
X-72650952Y-191566190D01*
X-72603333Y-191470952D01*
X-72555714Y-191423333D01*
X-72460476Y-191375714D01*
X-72317619Y-191375714D01*
X-72222380Y-191423333D01*
X-72174761Y-191470952D01*
X-72127142Y-191566190D01*
X-72127142Y-191851904D01*
X-72174761Y-191947142D01*
X-72222380Y-191994761D01*
X-72317619Y-192042380D01*
X-72460476Y-192042380D01*
X-71555714Y-192042380D02*
X-71650952Y-191994761D01*
X-71698571Y-191899523D01*
X-71698571Y-191042380D01*
X-70793809Y-191994761D02*
X-70889047Y-192042380D01*
X-71079523Y-192042380D01*
X-71174761Y-191994761D01*
X-71222380Y-191899523D01*
X-71222380Y-191518571D01*
X-71174761Y-191423333D01*
X-71079523Y-191375714D01*
X-70889047Y-191375714D01*
X-70793809Y-191423333D01*
X-70746190Y-191518571D01*
X-70746190Y-191613809D01*
X-71222380Y-191709047D01*
X-74731904Y-181042380D02*
X-74731904Y-180042380D01*
X-74731904Y-180518571D02*
X-74160476Y-180518571D01*
X-74160476Y-181042380D02*
X-74160476Y-180042380D01*
X-73255714Y-180375714D02*
X-73255714Y-181042380D01*
X-73493809Y-179994761D02*
X-73731904Y-180709047D01*
X-73112857Y-180709047D01*
%TO.C,H5*%
X-103027619Y-106842380D02*
X-103027619Y-105842380D01*
X-102646666Y-105842380D01*
X-102551428Y-105890000D01*
X-102503809Y-105937619D01*
X-102456190Y-106032857D01*
X-102456190Y-106175714D01*
X-102503809Y-106270952D01*
X-102551428Y-106318571D01*
X-102646666Y-106366190D01*
X-103027619Y-106366190D01*
X-101884761Y-106842380D02*
X-101980000Y-106794761D01*
X-102027619Y-106747142D01*
X-102075238Y-106651904D01*
X-102075238Y-106366190D01*
X-102027619Y-106270952D01*
X-101980000Y-106223333D01*
X-101884761Y-106175714D01*
X-101741904Y-106175714D01*
X-101646666Y-106223333D01*
X-101599047Y-106270952D01*
X-101551428Y-106366190D01*
X-101551428Y-106651904D01*
X-101599047Y-106747142D01*
X-101646666Y-106794761D01*
X-101741904Y-106842380D01*
X-101884761Y-106842380D01*
X-101265714Y-106175714D02*
X-100884761Y-106175714D01*
X-101122857Y-105842380D02*
X-101122857Y-106699523D01*
X-101075238Y-106794761D01*
X-100980000Y-106842380D01*
X-100884761Y-106842380D01*
X-100789523Y-106937619D02*
X-100027619Y-106937619D01*
X-99789523Y-106842380D02*
X-99789523Y-105842380D01*
X-99789523Y-106318571D02*
X-99218095Y-106318571D01*
X-99218095Y-106842380D02*
X-99218095Y-105842380D01*
X-98599047Y-106842380D02*
X-98694285Y-106794761D01*
X-98741904Y-106747142D01*
X-98789523Y-106651904D01*
X-98789523Y-106366190D01*
X-98741904Y-106270952D01*
X-98694285Y-106223333D01*
X-98599047Y-106175714D01*
X-98456190Y-106175714D01*
X-98360952Y-106223333D01*
X-98313333Y-106270952D01*
X-98265714Y-106366190D01*
X-98265714Y-106651904D01*
X-98313333Y-106747142D01*
X-98360952Y-106794761D01*
X-98456190Y-106842380D01*
X-98599047Y-106842380D01*
X-97694285Y-106842380D02*
X-97789523Y-106794761D01*
X-97837142Y-106699523D01*
X-97837142Y-105842380D01*
X-96932380Y-106794761D02*
X-97027619Y-106842380D01*
X-97218095Y-106842380D01*
X-97313333Y-106794761D01*
X-97360952Y-106699523D01*
X-97360952Y-106318571D01*
X-97313333Y-106223333D01*
X-97218095Y-106175714D01*
X-97027619Y-106175714D01*
X-96932380Y-106223333D01*
X-96884761Y-106318571D01*
X-96884761Y-106413809D01*
X-97360952Y-106509047D01*
X-100441904Y-99842380D02*
X-100441904Y-98842380D01*
X-100441904Y-99318571D02*
X-99870476Y-99318571D01*
X-99870476Y-99842380D02*
X-99870476Y-98842380D01*
X-98918095Y-98842380D02*
X-99394285Y-98842380D01*
X-99441904Y-99318571D01*
X-99394285Y-99270952D01*
X-99299047Y-99223333D01*
X-99060952Y-99223333D01*
X-98965714Y-99270952D01*
X-98918095Y-99318571D01*
X-98870476Y-99413809D01*
X-98870476Y-99651904D01*
X-98918095Y-99747142D01*
X-98965714Y-99794761D01*
X-99060952Y-99842380D01*
X-99299047Y-99842380D01*
X-99394285Y-99794761D01*
X-99441904Y-99747142D01*
%TO.C,H6*%
X-27480476Y-166042380D02*
X-27480476Y-166756666D01*
X-27528095Y-166899523D01*
X-27623333Y-166994761D01*
X-27766190Y-167042380D01*
X-27861428Y-167042380D01*
X-26575714Y-167042380D02*
X-26575714Y-166518571D01*
X-26623333Y-166423333D01*
X-26718571Y-166375714D01*
X-26909047Y-166375714D01*
X-27004285Y-166423333D01*
X-26575714Y-166994761D02*
X-26670952Y-167042380D01*
X-26909047Y-167042380D01*
X-27004285Y-166994761D01*
X-27051904Y-166899523D01*
X-27051904Y-166804285D01*
X-27004285Y-166709047D01*
X-26909047Y-166661428D01*
X-26670952Y-166661428D01*
X-26575714Y-166613809D01*
X-25670952Y-166994761D02*
X-25766190Y-167042380D01*
X-25956666Y-167042380D01*
X-26051904Y-166994761D01*
X-26099523Y-166947142D01*
X-26147142Y-166851904D01*
X-26147142Y-166566190D01*
X-26099523Y-166470952D01*
X-26051904Y-166423333D01*
X-25956666Y-166375714D01*
X-25766190Y-166375714D01*
X-25670952Y-166423333D01*
X-25242380Y-167042380D02*
X-25242380Y-166042380D01*
X-25147142Y-166661428D02*
X-24861428Y-167042380D01*
X-24861428Y-166375714D02*
X-25242380Y-166756666D01*
X-24670952Y-167137619D02*
X-23909047Y-167137619D01*
X-23670952Y-167042380D02*
X-23670952Y-166042380D01*
X-23670952Y-166518571D02*
X-23099523Y-166518571D01*
X-23099523Y-167042380D02*
X-23099523Y-166042380D01*
X-22480476Y-167042380D02*
X-22575714Y-166994761D01*
X-22623333Y-166947142D01*
X-22670952Y-166851904D01*
X-22670952Y-166566190D01*
X-22623333Y-166470952D01*
X-22575714Y-166423333D01*
X-22480476Y-166375714D01*
X-22337619Y-166375714D01*
X-22242380Y-166423333D01*
X-22194761Y-166470952D01*
X-22147142Y-166566190D01*
X-22147142Y-166851904D01*
X-22194761Y-166947142D01*
X-22242380Y-166994761D01*
X-22337619Y-167042380D01*
X-22480476Y-167042380D01*
X-21575714Y-167042380D02*
X-21670952Y-166994761D01*
X-21718571Y-166899523D01*
X-21718571Y-166042380D01*
X-20813809Y-166994761D02*
X-20909047Y-167042380D01*
X-21099523Y-167042380D01*
X-21194761Y-166994761D01*
X-21242380Y-166899523D01*
X-21242380Y-166518571D01*
X-21194761Y-166423333D01*
X-21099523Y-166375714D01*
X-20909047Y-166375714D01*
X-20813809Y-166423333D01*
X-20766190Y-166518571D01*
X-20766190Y-166613809D01*
X-21242380Y-166709047D01*
X-24751904Y-156042380D02*
X-24751904Y-155042380D01*
X-24751904Y-155518571D02*
X-24180476Y-155518571D01*
X-24180476Y-156042380D02*
X-24180476Y-155042380D01*
X-23275714Y-155042380D02*
X-23466190Y-155042380D01*
X-23561428Y-155090000D01*
X-23609047Y-155137619D01*
X-23704285Y-155280476D01*
X-23751904Y-155470952D01*
X-23751904Y-155851904D01*
X-23704285Y-155947142D01*
X-23656666Y-155994761D01*
X-23561428Y-156042380D01*
X-23370952Y-156042380D01*
X-23275714Y-155994761D01*
X-23228095Y-155947142D01*
X-23180476Y-155851904D01*
X-23180476Y-155613809D01*
X-23228095Y-155518571D01*
X-23275714Y-155470952D01*
X-23370952Y-155423333D01*
X-23561428Y-155423333D01*
X-23656666Y-155470952D01*
X-23704285Y-155518571D01*
X-23751904Y-155613809D01*
%TO.C,H7*%
X-115410476Y-13232380D02*
X-115410476Y-12232380D01*
X-115077142Y-12946666D01*
X-114743809Y-12232380D01*
X-114743809Y-13232380D01*
X-114124761Y-13232380D02*
X-114220000Y-13184761D01*
X-114267619Y-13137142D01*
X-114315238Y-13041904D01*
X-114315238Y-12756190D01*
X-114267619Y-12660952D01*
X-114220000Y-12613333D01*
X-114124761Y-12565714D01*
X-113981904Y-12565714D01*
X-113886666Y-12613333D01*
X-113839047Y-12660952D01*
X-113791428Y-12756190D01*
X-113791428Y-13041904D01*
X-113839047Y-13137142D01*
X-113886666Y-13184761D01*
X-113981904Y-13232380D01*
X-114124761Y-13232380D01*
X-112934285Y-12565714D02*
X-112934285Y-13232380D01*
X-113362857Y-12565714D02*
X-113362857Y-13089523D01*
X-113315238Y-13184761D01*
X-113220000Y-13232380D01*
X-113077142Y-13232380D01*
X-112981904Y-13184761D01*
X-112934285Y-13137142D01*
X-112458095Y-12565714D02*
X-112458095Y-13232380D01*
X-112458095Y-12660952D02*
X-112410476Y-12613333D01*
X-112315238Y-12565714D01*
X-112172380Y-12565714D01*
X-112077142Y-12613333D01*
X-112029523Y-12708571D01*
X-112029523Y-13232380D01*
X-111696190Y-12565714D02*
X-111315238Y-12565714D01*
X-111553333Y-12232380D02*
X-111553333Y-13089523D01*
X-111505714Y-13184761D01*
X-111410476Y-13232380D01*
X-111315238Y-13232380D01*
X-110981904Y-13232380D02*
X-110981904Y-12565714D01*
X-110981904Y-12232380D02*
X-111029523Y-12280000D01*
X-110981904Y-12327619D01*
X-110934285Y-12280000D01*
X-110981904Y-12232380D01*
X-110981904Y-12327619D01*
X-110505714Y-12565714D02*
X-110505714Y-13232380D01*
X-110505714Y-12660952D02*
X-110458095Y-12613333D01*
X-110362857Y-12565714D01*
X-110220000Y-12565714D01*
X-110124761Y-12613333D01*
X-110077142Y-12708571D01*
X-110077142Y-13232380D01*
X-109172380Y-12565714D02*
X-109172380Y-13375238D01*
X-109220000Y-13470476D01*
X-109267619Y-13518095D01*
X-109362857Y-13565714D01*
X-109505714Y-13565714D01*
X-109600952Y-13518095D01*
X-109172380Y-13184761D02*
X-109267619Y-13232380D01*
X-109458095Y-13232380D01*
X-109553333Y-13184761D01*
X-109600952Y-13137142D01*
X-109648571Y-13041904D01*
X-109648571Y-12756190D01*
X-109600952Y-12660952D01*
X-109553333Y-12613333D01*
X-109458095Y-12565714D01*
X-109267619Y-12565714D01*
X-109172380Y-12613333D01*
X-108934285Y-13327619D02*
X-108172380Y-13327619D01*
X-107934285Y-13232380D02*
X-107934285Y-12232380D01*
X-107934285Y-12708571D02*
X-107362857Y-12708571D01*
X-107362857Y-13232380D02*
X-107362857Y-12232380D01*
X-106743809Y-13232380D02*
X-106839047Y-13184761D01*
X-106886666Y-13137142D01*
X-106934285Y-13041904D01*
X-106934285Y-12756190D01*
X-106886666Y-12660952D01*
X-106839047Y-12613333D01*
X-106743809Y-12565714D01*
X-106600952Y-12565714D01*
X-106505714Y-12613333D01*
X-106458095Y-12660952D01*
X-106410476Y-12756190D01*
X-106410476Y-13041904D01*
X-106458095Y-13137142D01*
X-106505714Y-13184761D01*
X-106600952Y-13232380D01*
X-106743809Y-13232380D01*
X-105839047Y-13232380D02*
X-105934285Y-13184761D01*
X-105981904Y-13089523D01*
X-105981904Y-12232380D01*
X-105077142Y-13184761D02*
X-105172380Y-13232380D01*
X-105362857Y-13232380D01*
X-105458095Y-13184761D01*
X-105505714Y-13089523D01*
X-105505714Y-12708571D01*
X-105458095Y-12613333D01*
X-105362857Y-12565714D01*
X-105172380Y-12565714D01*
X-105077142Y-12613333D01*
X-105029523Y-12708571D01*
X-105029523Y-12803809D01*
X-105505714Y-12899047D01*
X-104839047Y-13327619D02*
X-104077142Y-13327619D01*
X-103886666Y-13184761D02*
X-103743809Y-13232380D01*
X-103505714Y-13232380D01*
X-103410476Y-13184761D01*
X-103362857Y-13137142D01*
X-103315238Y-13041904D01*
X-103315238Y-12946666D01*
X-103362857Y-12851428D01*
X-103410476Y-12803809D01*
X-103505714Y-12756190D01*
X-103696190Y-12708571D01*
X-103791428Y-12660952D01*
X-103839047Y-12613333D01*
X-103886666Y-12518095D01*
X-103886666Y-12422857D01*
X-103839047Y-12327619D01*
X-103791428Y-12280000D01*
X-103696190Y-12232380D01*
X-103458095Y-12232380D01*
X-103315238Y-12280000D01*
X-102743809Y-13232380D02*
X-102839047Y-13184761D01*
X-102886666Y-13089523D01*
X-102886666Y-12232380D01*
X-102220000Y-13232380D02*
X-102315238Y-13184761D01*
X-102362857Y-13137142D01*
X-102410476Y-13041904D01*
X-102410476Y-12756190D01*
X-102362857Y-12660952D01*
X-102315238Y-12613333D01*
X-102220000Y-12565714D01*
X-102077142Y-12565714D01*
X-101981904Y-12613333D01*
X-101934285Y-12660952D01*
X-101886666Y-12756190D01*
X-101886666Y-13041904D01*
X-101934285Y-13137142D01*
X-101981904Y-13184761D01*
X-102077142Y-13232380D01*
X-102220000Y-13232380D01*
X-101600952Y-12565714D02*
X-101220000Y-12565714D01*
X-101458095Y-12232380D02*
X-101458095Y-13089523D01*
X-101410476Y-13184761D01*
X-101315238Y-13232380D01*
X-101220000Y-13232380D01*
X-101029523Y-12565714D02*
X-100648571Y-12565714D01*
X-100886666Y-12232380D02*
X-100886666Y-13089523D01*
X-100839047Y-13184761D01*
X-100743809Y-13232380D01*
X-100648571Y-13232380D01*
X-99934285Y-13184761D02*
X-100029523Y-13232380D01*
X-100220000Y-13232380D01*
X-100315238Y-13184761D01*
X-100362857Y-13089523D01*
X-100362857Y-12708571D01*
X-100315238Y-12613333D01*
X-100220000Y-12565714D01*
X-100029523Y-12565714D01*
X-99934285Y-12613333D01*
X-99886666Y-12708571D01*
X-99886666Y-12803809D01*
X-100362857Y-12899047D01*
X-99029523Y-13232380D02*
X-99029523Y-12232380D01*
X-99029523Y-13184761D02*
X-99124761Y-13232380D01*
X-99315238Y-13232380D01*
X-99410476Y-13184761D01*
X-99458095Y-13137142D01*
X-99505714Y-13041904D01*
X-99505714Y-12756190D01*
X-99458095Y-12660952D01*
X-99410476Y-12613333D01*
X-99315238Y-12565714D01*
X-99124761Y-12565714D01*
X-99029523Y-12613333D01*
X-107681904Y-9032380D02*
X-107681904Y-8032380D01*
X-107681904Y-8508571D02*
X-107110476Y-8508571D01*
X-107110476Y-9032380D02*
X-107110476Y-8032380D01*
X-106729523Y-8032380D02*
X-106062857Y-8032380D01*
X-106491428Y-9032380D01*
%TO.C,H8*%
X-26669047Y-85572380D02*
X-27145238Y-85572380D01*
X-27145238Y-84572380D01*
X-25954761Y-85524761D02*
X-26050000Y-85572380D01*
X-26240476Y-85572380D01*
X-26335714Y-85524761D01*
X-26383333Y-85429523D01*
X-26383333Y-85048571D01*
X-26335714Y-84953333D01*
X-26240476Y-84905714D01*
X-26050000Y-84905714D01*
X-25954761Y-84953333D01*
X-25907142Y-85048571D01*
X-25907142Y-85143809D01*
X-26383333Y-85239047D01*
X-25050000Y-85572380D02*
X-25050000Y-84572380D01*
X-25050000Y-85524761D02*
X-25145238Y-85572380D01*
X-25335714Y-85572380D01*
X-25430952Y-85524761D01*
X-25478571Y-85477142D01*
X-25526190Y-85381904D01*
X-25526190Y-85096190D01*
X-25478571Y-85000952D01*
X-25430952Y-84953333D01*
X-25335714Y-84905714D01*
X-25145238Y-84905714D01*
X-25050000Y-84953333D01*
X-24811904Y-85667619D02*
X-24050000Y-85667619D01*
X-23811904Y-85572380D02*
X-23811904Y-84572380D01*
X-23811904Y-85048571D02*
X-23240476Y-85048571D01*
X-23240476Y-85572380D02*
X-23240476Y-84572380D01*
X-22621428Y-85572380D02*
X-22716666Y-85524761D01*
X-22764285Y-85477142D01*
X-22811904Y-85381904D01*
X-22811904Y-85096190D01*
X-22764285Y-85000952D01*
X-22716666Y-84953333D01*
X-22621428Y-84905714D01*
X-22478571Y-84905714D01*
X-22383333Y-84953333D01*
X-22335714Y-85000952D01*
X-22288095Y-85096190D01*
X-22288095Y-85381904D01*
X-22335714Y-85477142D01*
X-22383333Y-85524761D01*
X-22478571Y-85572380D01*
X-22621428Y-85572380D01*
X-21716666Y-85572380D02*
X-21811904Y-85524761D01*
X-21859523Y-85429523D01*
X-21859523Y-84572380D01*
X-20954761Y-85524761D02*
X-21050000Y-85572380D01*
X-21240476Y-85572380D01*
X-21335714Y-85524761D01*
X-21383333Y-85429523D01*
X-21383333Y-85048571D01*
X-21335714Y-84953333D01*
X-21240476Y-84905714D01*
X-21050000Y-84905714D01*
X-20954761Y-84953333D01*
X-20907142Y-85048571D01*
X-20907142Y-85143809D01*
X-21383333Y-85239047D01*
X-24511904Y-79572380D02*
X-24511904Y-78572380D01*
X-24511904Y-79048571D02*
X-23940476Y-79048571D01*
X-23940476Y-79572380D02*
X-23940476Y-78572380D01*
X-23321428Y-79000952D02*
X-23416666Y-78953333D01*
X-23464285Y-78905714D01*
X-23511904Y-78810476D01*
X-23511904Y-78762857D01*
X-23464285Y-78667619D01*
X-23416666Y-78620000D01*
X-23321428Y-78572380D01*
X-23130952Y-78572380D01*
X-23035714Y-78620000D01*
X-22988095Y-78667619D01*
X-22940476Y-78762857D01*
X-22940476Y-78810476D01*
X-22988095Y-78905714D01*
X-23035714Y-78953333D01*
X-23130952Y-79000952D01*
X-23321428Y-79000952D01*
X-23416666Y-79048571D01*
X-23464285Y-79096190D01*
X-23511904Y-79191428D01*
X-23511904Y-79381904D01*
X-23464285Y-79477142D01*
X-23416666Y-79524761D01*
X-23321428Y-79572380D01*
X-23130952Y-79572380D01*
X-23035714Y-79524761D01*
X-22988095Y-79477142D01*
X-22940476Y-79381904D01*
X-22940476Y-79191428D01*
X-22988095Y-79096190D01*
X-23035714Y-79048571D01*
X-23130952Y-79000952D01*
%TO.C,H9*%
X-64917619Y-106842380D02*
X-64917619Y-105842380D01*
X-64536666Y-105842380D01*
X-64441428Y-105890000D01*
X-64393809Y-105937619D01*
X-64346190Y-106032857D01*
X-64346190Y-106175714D01*
X-64393809Y-106270952D01*
X-64441428Y-106318571D01*
X-64536666Y-106366190D01*
X-64917619Y-106366190D01*
X-63774761Y-106842380D02*
X-63870000Y-106794761D01*
X-63917619Y-106747142D01*
X-63965238Y-106651904D01*
X-63965238Y-106366190D01*
X-63917619Y-106270952D01*
X-63870000Y-106223333D01*
X-63774761Y-106175714D01*
X-63631904Y-106175714D01*
X-63536666Y-106223333D01*
X-63489047Y-106270952D01*
X-63441428Y-106366190D01*
X-63441428Y-106651904D01*
X-63489047Y-106747142D01*
X-63536666Y-106794761D01*
X-63631904Y-106842380D01*
X-63774761Y-106842380D01*
X-63155714Y-106175714D02*
X-62774761Y-106175714D01*
X-63012857Y-105842380D02*
X-63012857Y-106699523D01*
X-62965238Y-106794761D01*
X-62870000Y-106842380D01*
X-62774761Y-106842380D01*
X-62679523Y-106937619D02*
X-61917619Y-106937619D01*
X-61679523Y-106842380D02*
X-61679523Y-105842380D01*
X-61679523Y-106318571D02*
X-61108095Y-106318571D01*
X-61108095Y-106842380D02*
X-61108095Y-105842380D01*
X-60489047Y-106842380D02*
X-60584285Y-106794761D01*
X-60631904Y-106747142D01*
X-60679523Y-106651904D01*
X-60679523Y-106366190D01*
X-60631904Y-106270952D01*
X-60584285Y-106223333D01*
X-60489047Y-106175714D01*
X-60346190Y-106175714D01*
X-60250952Y-106223333D01*
X-60203333Y-106270952D01*
X-60155714Y-106366190D01*
X-60155714Y-106651904D01*
X-60203333Y-106747142D01*
X-60250952Y-106794761D01*
X-60346190Y-106842380D01*
X-60489047Y-106842380D01*
X-59584285Y-106842380D02*
X-59679523Y-106794761D01*
X-59727142Y-106699523D01*
X-59727142Y-105842380D01*
X-58822380Y-106794761D02*
X-58917619Y-106842380D01*
X-59108095Y-106842380D01*
X-59203333Y-106794761D01*
X-59250952Y-106699523D01*
X-59250952Y-106318571D01*
X-59203333Y-106223333D01*
X-59108095Y-106175714D01*
X-58917619Y-106175714D01*
X-58822380Y-106223333D01*
X-58774761Y-106318571D01*
X-58774761Y-106413809D01*
X-59250952Y-106509047D01*
X-62331904Y-99842380D02*
X-62331904Y-98842380D01*
X-62331904Y-99318571D02*
X-61760476Y-99318571D01*
X-61760476Y-99842380D02*
X-61760476Y-98842380D01*
X-61236666Y-99842380D02*
X-61046190Y-99842380D01*
X-60950952Y-99794761D01*
X-60903333Y-99747142D01*
X-60808095Y-99604285D01*
X-60760476Y-99413809D01*
X-60760476Y-99032857D01*
X-60808095Y-98937619D01*
X-60855714Y-98890000D01*
X-60950952Y-98842380D01*
X-61141428Y-98842380D01*
X-61236666Y-98890000D01*
X-61284285Y-98937619D01*
X-61331904Y-99032857D01*
X-61331904Y-99270952D01*
X-61284285Y-99366190D01*
X-61236666Y-99413809D01*
X-61141428Y-99461428D01*
X-60950952Y-99461428D01*
X-60855714Y-99413809D01*
X-60808095Y-99366190D01*
X-60760476Y-99270952D01*
%TO.C,H10*%
X-89990476Y-148922380D02*
X-89990476Y-149636666D01*
X-90038095Y-149779523D01*
X-90133333Y-149874761D01*
X-90276190Y-149922380D01*
X-90371428Y-149922380D01*
X-89085714Y-149922380D02*
X-89085714Y-149398571D01*
X-89133333Y-149303333D01*
X-89228571Y-149255714D01*
X-89419047Y-149255714D01*
X-89514285Y-149303333D01*
X-89085714Y-149874761D02*
X-89180952Y-149922380D01*
X-89419047Y-149922380D01*
X-89514285Y-149874761D01*
X-89561904Y-149779523D01*
X-89561904Y-149684285D01*
X-89514285Y-149589047D01*
X-89419047Y-149541428D01*
X-89180952Y-149541428D01*
X-89085714Y-149493809D01*
X-88180952Y-149874761D02*
X-88276190Y-149922380D01*
X-88466666Y-149922380D01*
X-88561904Y-149874761D01*
X-88609523Y-149827142D01*
X-88657142Y-149731904D01*
X-88657142Y-149446190D01*
X-88609523Y-149350952D01*
X-88561904Y-149303333D01*
X-88466666Y-149255714D01*
X-88276190Y-149255714D01*
X-88180952Y-149303333D01*
X-87752380Y-149922380D02*
X-87752380Y-148922380D01*
X-87657142Y-149541428D02*
X-87371428Y-149922380D01*
X-87371428Y-149255714D02*
X-87752380Y-149636666D01*
X-87180952Y-150017619D02*
X-86419047Y-150017619D01*
X-86180952Y-149922380D02*
X-86180952Y-148922380D01*
X-86180952Y-149398571D02*
X-85609523Y-149398571D01*
X-85609523Y-149922380D02*
X-85609523Y-148922380D01*
X-84990476Y-149922380D02*
X-85085714Y-149874761D01*
X-85133333Y-149827142D01*
X-85180952Y-149731904D01*
X-85180952Y-149446190D01*
X-85133333Y-149350952D01*
X-85085714Y-149303333D01*
X-84990476Y-149255714D01*
X-84847619Y-149255714D01*
X-84752380Y-149303333D01*
X-84704761Y-149350952D01*
X-84657142Y-149446190D01*
X-84657142Y-149731904D01*
X-84704761Y-149827142D01*
X-84752380Y-149874761D01*
X-84847619Y-149922380D01*
X-84990476Y-149922380D01*
X-84085714Y-149922380D02*
X-84180952Y-149874761D01*
X-84228571Y-149779523D01*
X-84228571Y-148922380D01*
X-83323809Y-149874761D02*
X-83419047Y-149922380D01*
X-83609523Y-149922380D01*
X-83704761Y-149874761D01*
X-83752380Y-149779523D01*
X-83752380Y-149398571D01*
X-83704761Y-149303333D01*
X-83609523Y-149255714D01*
X-83419047Y-149255714D01*
X-83323809Y-149303333D01*
X-83276190Y-149398571D01*
X-83276190Y-149493809D01*
X-83752380Y-149589047D01*
X-87738095Y-138922380D02*
X-87738095Y-137922380D01*
X-87738095Y-138398571D02*
X-87166666Y-138398571D01*
X-87166666Y-138922380D02*
X-87166666Y-137922380D01*
X-86166666Y-138922380D02*
X-86738095Y-138922380D01*
X-86452380Y-138922380D02*
X-86452380Y-137922380D01*
X-86547619Y-138065238D01*
X-86642857Y-138160476D01*
X-86738095Y-138208095D01*
X-85547619Y-137922380D02*
X-85452380Y-137922380D01*
X-85357142Y-137970000D01*
X-85309523Y-138017619D01*
X-85261904Y-138112857D01*
X-85214285Y-138303333D01*
X-85214285Y-138541428D01*
X-85261904Y-138731904D01*
X-85309523Y-138827142D01*
X-85357142Y-138874761D01*
X-85452380Y-138922380D01*
X-85547619Y-138922380D01*
X-85642857Y-138874761D01*
X-85690476Y-138827142D01*
X-85738095Y-138731904D01*
X-85785714Y-138541428D01*
X-85785714Y-138303333D01*
X-85738095Y-138112857D01*
X-85690476Y-138017619D01*
X-85642857Y-137970000D01*
X-85547619Y-137922380D01*
%TO.C,H11*%
X-24600476Y-207272380D02*
X-24600476Y-206272380D01*
X-24267142Y-206986666D01*
X-23933809Y-206272380D01*
X-23933809Y-207272380D01*
X-23314761Y-207272380D02*
X-23409999Y-207224761D01*
X-23457619Y-207177142D01*
X-23505238Y-207081904D01*
X-23505238Y-206796190D01*
X-23457619Y-206700952D01*
X-23409999Y-206653333D01*
X-23314761Y-206605714D01*
X-23171904Y-206605714D01*
X-23076666Y-206653333D01*
X-23029047Y-206700952D01*
X-22981428Y-206796190D01*
X-22981428Y-207081904D01*
X-23029047Y-207177142D01*
X-23076666Y-207224761D01*
X-23171904Y-207272380D01*
X-23314761Y-207272380D01*
X-22124285Y-206605714D02*
X-22124285Y-207272380D01*
X-22552857Y-206605714D02*
X-22552857Y-207129523D01*
X-22505238Y-207224761D01*
X-22409999Y-207272380D01*
X-22267142Y-207272380D01*
X-22171904Y-207224761D01*
X-22124285Y-207177142D01*
X-21648095Y-206605714D02*
X-21648095Y-207272380D01*
X-21648095Y-206700952D02*
X-21600476Y-206653333D01*
X-21505238Y-206605714D01*
X-21362380Y-206605714D01*
X-21267142Y-206653333D01*
X-21219523Y-206748571D01*
X-21219523Y-207272380D01*
X-20886190Y-206605714D02*
X-20505238Y-206605714D01*
X-20743333Y-206272380D02*
X-20743333Y-207129523D01*
X-20695714Y-207224761D01*
X-20600476Y-207272380D01*
X-20505238Y-207272380D01*
X-20171904Y-207272380D02*
X-20171904Y-206605714D01*
X-20171904Y-206272380D02*
X-20219523Y-206320000D01*
X-20171904Y-206367619D01*
X-20124285Y-206320000D01*
X-20171904Y-206272380D01*
X-20171904Y-206367619D01*
X-19695714Y-206605714D02*
X-19695714Y-207272380D01*
X-19695714Y-206700952D02*
X-19648095Y-206653333D01*
X-19552857Y-206605714D01*
X-19410000Y-206605714D01*
X-19314761Y-206653333D01*
X-19267142Y-206748571D01*
X-19267142Y-207272380D01*
X-18362380Y-206605714D02*
X-18362380Y-207415238D01*
X-18410000Y-207510476D01*
X-18457619Y-207558095D01*
X-18552857Y-207605714D01*
X-18695714Y-207605714D01*
X-18790952Y-207558095D01*
X-18362380Y-207224761D02*
X-18457619Y-207272380D01*
X-18648095Y-207272380D01*
X-18743333Y-207224761D01*
X-18790952Y-207177142D01*
X-18838571Y-207081904D01*
X-18838571Y-206796190D01*
X-18790952Y-206700952D01*
X-18743333Y-206653333D01*
X-18648095Y-206605714D01*
X-18457619Y-206605714D01*
X-18362380Y-206653333D01*
X-18124285Y-207367619D02*
X-17362380Y-207367619D01*
X-17124285Y-207272380D02*
X-17124285Y-206272380D01*
X-17124285Y-206748571D02*
X-16552857Y-206748571D01*
X-16552857Y-207272380D02*
X-16552857Y-206272380D01*
X-15933809Y-207272380D02*
X-16029047Y-207224761D01*
X-16076666Y-207177142D01*
X-16124285Y-207081904D01*
X-16124285Y-206796190D01*
X-16076666Y-206700952D01*
X-16029047Y-206653333D01*
X-15933809Y-206605714D01*
X-15790952Y-206605714D01*
X-15695714Y-206653333D01*
X-15648095Y-206700952D01*
X-15600476Y-206796190D01*
X-15600476Y-207081904D01*
X-15648095Y-207177142D01*
X-15695714Y-207224761D01*
X-15790952Y-207272380D01*
X-15933809Y-207272380D01*
X-15029047Y-207272380D02*
X-15124285Y-207224761D01*
X-15171904Y-207129523D01*
X-15171904Y-206272380D01*
X-14267142Y-207224761D02*
X-14362380Y-207272380D01*
X-14552857Y-207272380D01*
X-14648095Y-207224761D01*
X-14695714Y-207129523D01*
X-14695714Y-206748571D01*
X-14648095Y-206653333D01*
X-14552857Y-206605714D01*
X-14362380Y-206605714D01*
X-14267142Y-206653333D01*
X-14219523Y-206748571D01*
X-14219523Y-206843809D01*
X-14695714Y-206939047D01*
X-14029047Y-207367619D02*
X-13267142Y-207367619D01*
X-13076666Y-207224761D02*
X-12933809Y-207272380D01*
X-12695714Y-207272380D01*
X-12600476Y-207224761D01*
X-12552857Y-207177142D01*
X-12505238Y-207081904D01*
X-12505238Y-206986666D01*
X-12552857Y-206891428D01*
X-12600476Y-206843809D01*
X-12695714Y-206796190D01*
X-12886190Y-206748571D01*
X-12981428Y-206700952D01*
X-13029047Y-206653333D01*
X-13076666Y-206558095D01*
X-13076666Y-206462857D01*
X-13029047Y-206367619D01*
X-12981428Y-206320000D01*
X-12886190Y-206272380D01*
X-12648095Y-206272380D01*
X-12505238Y-206320000D01*
X-11933809Y-207272380D02*
X-12029047Y-207224761D01*
X-12076666Y-207129523D01*
X-12076666Y-206272380D01*
X-11410000Y-207272380D02*
X-11505238Y-207224761D01*
X-11552857Y-207177142D01*
X-11600476Y-207081904D01*
X-11600476Y-206796190D01*
X-11552857Y-206700952D01*
X-11505238Y-206653333D01*
X-11410000Y-206605714D01*
X-11267142Y-206605714D01*
X-11171904Y-206653333D01*
X-11124285Y-206700952D01*
X-11076666Y-206796190D01*
X-11076666Y-207081904D01*
X-11124285Y-207177142D01*
X-11171904Y-207224761D01*
X-11267142Y-207272380D01*
X-11410000Y-207272380D01*
X-10790952Y-206605714D02*
X-10410000Y-206605714D01*
X-10648095Y-206272380D02*
X-10648095Y-207129523D01*
X-10600476Y-207224761D01*
X-10505238Y-207272380D01*
X-10410000Y-207272380D01*
X-10219523Y-206605714D02*
X-9838571Y-206605714D01*
X-10076666Y-206272380D02*
X-10076666Y-207129523D01*
X-10029047Y-207224761D01*
X-9933809Y-207272380D01*
X-9838571Y-207272380D01*
X-9124285Y-207224761D02*
X-9219523Y-207272380D01*
X-9410000Y-207272380D01*
X-9505238Y-207224761D01*
X-9552857Y-207129523D01*
X-9552857Y-206748571D01*
X-9505238Y-206653333D01*
X-9410000Y-206605714D01*
X-9219523Y-206605714D01*
X-9124285Y-206653333D01*
X-9076666Y-206748571D01*
X-9076666Y-206843809D01*
X-9552857Y-206939047D01*
X-8219523Y-207272380D02*
X-8219523Y-206272380D01*
X-8219523Y-207224761D02*
X-8314761Y-207272380D01*
X-8505238Y-207272380D01*
X-8600476Y-207224761D01*
X-8648095Y-207177142D01*
X-8695714Y-207081904D01*
X-8695714Y-206796190D01*
X-8648095Y-206700952D01*
X-8600476Y-206653333D01*
X-8505238Y-206605714D01*
X-8314761Y-206605714D01*
X-8219523Y-206653333D01*
X-17348095Y-203072380D02*
X-17348095Y-202072380D01*
X-17348095Y-202548571D02*
X-16776666Y-202548571D01*
X-16776666Y-203072380D02*
X-16776666Y-202072380D01*
X-15776666Y-203072380D02*
X-16348095Y-203072380D01*
X-16062380Y-203072380D02*
X-16062380Y-202072380D01*
X-16157619Y-202215238D01*
X-16252857Y-202310476D01*
X-16348095Y-202358095D01*
X-14824285Y-203072380D02*
X-15395714Y-203072380D01*
X-15110000Y-203072380D02*
X-15110000Y-202072380D01*
X-15205238Y-202215238D01*
X-15300476Y-202310476D01*
X-15395714Y-202358095D01*
%TO.C,H12*%
X-102919047Y-85572380D02*
X-103395238Y-85572380D01*
X-103395238Y-84572380D01*
X-102204761Y-85524761D02*
X-102300000Y-85572380D01*
X-102490476Y-85572380D01*
X-102585714Y-85524761D01*
X-102633333Y-85429523D01*
X-102633333Y-85048571D01*
X-102585714Y-84953333D01*
X-102490476Y-84905714D01*
X-102300000Y-84905714D01*
X-102204761Y-84953333D01*
X-102157142Y-85048571D01*
X-102157142Y-85143809D01*
X-102633333Y-85239047D01*
X-101300000Y-85572380D02*
X-101300000Y-84572380D01*
X-101300000Y-85524761D02*
X-101395238Y-85572380D01*
X-101585714Y-85572380D01*
X-101680952Y-85524761D01*
X-101728571Y-85477142D01*
X-101776190Y-85381904D01*
X-101776190Y-85096190D01*
X-101728571Y-85000952D01*
X-101680952Y-84953333D01*
X-101585714Y-84905714D01*
X-101395238Y-84905714D01*
X-101300000Y-84953333D01*
X-101061904Y-85667619D02*
X-100300000Y-85667619D01*
X-100061904Y-85572380D02*
X-100061904Y-84572380D01*
X-100061904Y-85048571D02*
X-99490476Y-85048571D01*
X-99490476Y-85572380D02*
X-99490476Y-84572380D01*
X-98871428Y-85572380D02*
X-98966666Y-85524761D01*
X-99014285Y-85477142D01*
X-99061904Y-85381904D01*
X-99061904Y-85096190D01*
X-99014285Y-85000952D01*
X-98966666Y-84953333D01*
X-98871428Y-84905714D01*
X-98728571Y-84905714D01*
X-98633333Y-84953333D01*
X-98585714Y-85000952D01*
X-98538095Y-85096190D01*
X-98538095Y-85381904D01*
X-98585714Y-85477142D01*
X-98633333Y-85524761D01*
X-98728571Y-85572380D01*
X-98871428Y-85572380D01*
X-97966666Y-85572380D02*
X-98061904Y-85524761D01*
X-98109523Y-85429523D01*
X-98109523Y-84572380D01*
X-97204761Y-85524761D02*
X-97300000Y-85572380D01*
X-97490476Y-85572380D01*
X-97585714Y-85524761D01*
X-97633333Y-85429523D01*
X-97633333Y-85048571D01*
X-97585714Y-84953333D01*
X-97490476Y-84905714D01*
X-97300000Y-84905714D01*
X-97204761Y-84953333D01*
X-97157142Y-85048571D01*
X-97157142Y-85143809D01*
X-97633333Y-85239047D01*
X-101238095Y-79572380D02*
X-101238095Y-78572380D01*
X-101238095Y-79048571D02*
X-100666666Y-79048571D01*
X-100666666Y-79572380D02*
X-100666666Y-78572380D01*
X-99666666Y-79572380D02*
X-100238095Y-79572380D01*
X-99952380Y-79572380D02*
X-99952380Y-78572380D01*
X-100047619Y-78715238D01*
X-100142857Y-78810476D01*
X-100238095Y-78858095D01*
X-99285714Y-78667619D02*
X-99238095Y-78620000D01*
X-99142857Y-78572380D01*
X-98904761Y-78572380D01*
X-98809523Y-78620000D01*
X-98761904Y-78667619D01*
X-98714285Y-78762857D01*
X-98714285Y-78858095D01*
X-98761904Y-79000952D01*
X-99333333Y-79572380D01*
X-98714285Y-79572380D01*
%TO.C,H13*%
X-64867619Y-61862380D02*
X-64867619Y-60862380D01*
X-64486666Y-60862380D01*
X-64391428Y-60910000D01*
X-64343809Y-60957619D01*
X-64296190Y-61052857D01*
X-64296190Y-61195714D01*
X-64343809Y-61290952D01*
X-64391428Y-61338571D01*
X-64486666Y-61386190D01*
X-64867619Y-61386190D01*
X-63724761Y-61862380D02*
X-63820000Y-61814761D01*
X-63867619Y-61767142D01*
X-63915238Y-61671904D01*
X-63915238Y-61386190D01*
X-63867619Y-61290952D01*
X-63820000Y-61243333D01*
X-63724761Y-61195714D01*
X-63581904Y-61195714D01*
X-63486666Y-61243333D01*
X-63439047Y-61290952D01*
X-63391428Y-61386190D01*
X-63391428Y-61671904D01*
X-63439047Y-61767142D01*
X-63486666Y-61814761D01*
X-63581904Y-61862380D01*
X-63724761Y-61862380D01*
X-63105714Y-61195714D02*
X-62724761Y-61195714D01*
X-62962857Y-60862380D02*
X-62962857Y-61719523D01*
X-62915238Y-61814761D01*
X-62820000Y-61862380D01*
X-62724761Y-61862380D01*
X-62629523Y-61957619D02*
X-61867619Y-61957619D01*
X-61629523Y-61862380D02*
X-61629523Y-60862380D01*
X-61629523Y-61338571D02*
X-61058095Y-61338571D01*
X-61058095Y-61862380D02*
X-61058095Y-60862380D01*
X-60439047Y-61862380D02*
X-60534285Y-61814761D01*
X-60581904Y-61767142D01*
X-60629523Y-61671904D01*
X-60629523Y-61386190D01*
X-60581904Y-61290952D01*
X-60534285Y-61243333D01*
X-60439047Y-61195714D01*
X-60296190Y-61195714D01*
X-60200952Y-61243333D01*
X-60153333Y-61290952D01*
X-60105714Y-61386190D01*
X-60105714Y-61671904D01*
X-60153333Y-61767142D01*
X-60200952Y-61814761D01*
X-60296190Y-61862380D01*
X-60439047Y-61862380D01*
X-59534285Y-61862380D02*
X-59629523Y-61814761D01*
X-59677142Y-61719523D01*
X-59677142Y-60862380D01*
X-58772380Y-61814761D02*
X-58867619Y-61862380D01*
X-59058095Y-61862380D01*
X-59153333Y-61814761D01*
X-59200952Y-61719523D01*
X-59200952Y-61338571D01*
X-59153333Y-61243333D01*
X-59058095Y-61195714D01*
X-58867619Y-61195714D01*
X-58772380Y-61243333D01*
X-58724761Y-61338571D01*
X-58724761Y-61433809D01*
X-59200952Y-61529047D01*
X-62758095Y-54862380D02*
X-62758095Y-53862380D01*
X-62758095Y-54338571D02*
X-62186666Y-54338571D01*
X-62186666Y-54862380D02*
X-62186666Y-53862380D01*
X-61186666Y-54862380D02*
X-61758095Y-54862380D01*
X-61472380Y-54862380D02*
X-61472380Y-53862380D01*
X-61567619Y-54005238D01*
X-61662857Y-54100476D01*
X-61758095Y-54148095D01*
X-60853333Y-53862380D02*
X-60234285Y-53862380D01*
X-60567619Y-54243333D01*
X-60424761Y-54243333D01*
X-60329523Y-54290952D01*
X-60281904Y-54338571D01*
X-60234285Y-54433809D01*
X-60234285Y-54671904D01*
X-60281904Y-54767142D01*
X-60329523Y-54814761D01*
X-60424761Y-54862380D01*
X-60710476Y-54862380D01*
X-60805714Y-54814761D01*
X-60853333Y-54767142D01*
%TO.C,H14*%
X-52480476Y-166042380D02*
X-52480476Y-166756666D01*
X-52528095Y-166899523D01*
X-52623333Y-166994761D01*
X-52766190Y-167042380D01*
X-52861428Y-167042380D01*
X-51575714Y-167042380D02*
X-51575714Y-166518571D01*
X-51623333Y-166423333D01*
X-51718571Y-166375714D01*
X-51909047Y-166375714D01*
X-52004285Y-166423333D01*
X-51575714Y-166994761D02*
X-51670952Y-167042380D01*
X-51909047Y-167042380D01*
X-52004285Y-166994761D01*
X-52051904Y-166899523D01*
X-52051904Y-166804285D01*
X-52004285Y-166709047D01*
X-51909047Y-166661428D01*
X-51670952Y-166661428D01*
X-51575714Y-166613809D01*
X-50670952Y-166994761D02*
X-50766190Y-167042380D01*
X-50956666Y-167042380D01*
X-51051904Y-166994761D01*
X-51099523Y-166947142D01*
X-51147142Y-166851904D01*
X-51147142Y-166566190D01*
X-51099523Y-166470952D01*
X-51051904Y-166423333D01*
X-50956666Y-166375714D01*
X-50766190Y-166375714D01*
X-50670952Y-166423333D01*
X-50242380Y-167042380D02*
X-50242380Y-166042380D01*
X-50147142Y-166661428D02*
X-49861428Y-167042380D01*
X-49861428Y-166375714D02*
X-50242380Y-166756666D01*
X-49670952Y-167137619D02*
X-48909047Y-167137619D01*
X-48670952Y-167042380D02*
X-48670952Y-166042380D01*
X-48670952Y-166518571D02*
X-48099523Y-166518571D01*
X-48099523Y-167042380D02*
X-48099523Y-166042380D01*
X-47480476Y-167042380D02*
X-47575714Y-166994761D01*
X-47623333Y-166947142D01*
X-47670952Y-166851904D01*
X-47670952Y-166566190D01*
X-47623333Y-166470952D01*
X-47575714Y-166423333D01*
X-47480476Y-166375714D01*
X-47337619Y-166375714D01*
X-47242380Y-166423333D01*
X-47194761Y-166470952D01*
X-47147142Y-166566190D01*
X-47147142Y-166851904D01*
X-47194761Y-166947142D01*
X-47242380Y-166994761D01*
X-47337619Y-167042380D01*
X-47480476Y-167042380D01*
X-46575714Y-167042380D02*
X-46670952Y-166994761D01*
X-46718571Y-166899523D01*
X-46718571Y-166042380D01*
X-45813809Y-166994761D02*
X-45909047Y-167042380D01*
X-46099523Y-167042380D01*
X-46194761Y-166994761D01*
X-46242380Y-166899523D01*
X-46242380Y-166518571D01*
X-46194761Y-166423333D01*
X-46099523Y-166375714D01*
X-45909047Y-166375714D01*
X-45813809Y-166423333D01*
X-45766190Y-166518571D01*
X-45766190Y-166613809D01*
X-46242380Y-166709047D01*
X-50228095Y-156042380D02*
X-50228095Y-155042380D01*
X-50228095Y-155518571D02*
X-49656666Y-155518571D01*
X-49656666Y-156042380D02*
X-49656666Y-155042380D01*
X-48656666Y-156042380D02*
X-49228095Y-156042380D01*
X-48942380Y-156042380D02*
X-48942380Y-155042380D01*
X-49037619Y-155185238D01*
X-49132857Y-155280476D01*
X-49228095Y-155328095D01*
X-47799523Y-155375714D02*
X-47799523Y-156042380D01*
X-48037619Y-154994761D02*
X-48275714Y-155709047D01*
X-47656666Y-155709047D01*
%TO.C,H15*%
X-26807619Y-106842380D02*
X-26807619Y-105842380D01*
X-26426666Y-105842380D01*
X-26331428Y-105890000D01*
X-26283809Y-105937619D01*
X-26236190Y-106032857D01*
X-26236190Y-106175714D01*
X-26283809Y-106270952D01*
X-26331428Y-106318571D01*
X-26426666Y-106366190D01*
X-26807619Y-106366190D01*
X-25664761Y-106842380D02*
X-25760000Y-106794761D01*
X-25807619Y-106747142D01*
X-25855238Y-106651904D01*
X-25855238Y-106366190D01*
X-25807619Y-106270952D01*
X-25760000Y-106223333D01*
X-25664761Y-106175714D01*
X-25521904Y-106175714D01*
X-25426666Y-106223333D01*
X-25379047Y-106270952D01*
X-25331428Y-106366190D01*
X-25331428Y-106651904D01*
X-25379047Y-106747142D01*
X-25426666Y-106794761D01*
X-25521904Y-106842380D01*
X-25664761Y-106842380D01*
X-25045714Y-106175714D02*
X-24664761Y-106175714D01*
X-24902857Y-105842380D02*
X-24902857Y-106699523D01*
X-24855238Y-106794761D01*
X-24760000Y-106842380D01*
X-24664761Y-106842380D01*
X-24569523Y-106937619D02*
X-23807619Y-106937619D01*
X-23569523Y-106842380D02*
X-23569523Y-105842380D01*
X-23569523Y-106318571D02*
X-22998095Y-106318571D01*
X-22998095Y-106842380D02*
X-22998095Y-105842380D01*
X-22379047Y-106842380D02*
X-22474285Y-106794761D01*
X-22521904Y-106747142D01*
X-22569523Y-106651904D01*
X-22569523Y-106366190D01*
X-22521904Y-106270952D01*
X-22474285Y-106223333D01*
X-22379047Y-106175714D01*
X-22236190Y-106175714D01*
X-22140952Y-106223333D01*
X-22093333Y-106270952D01*
X-22045714Y-106366190D01*
X-22045714Y-106651904D01*
X-22093333Y-106747142D01*
X-22140952Y-106794761D01*
X-22236190Y-106842380D01*
X-22379047Y-106842380D01*
X-21474285Y-106842380D02*
X-21569523Y-106794761D01*
X-21617142Y-106699523D01*
X-21617142Y-105842380D01*
X-20712380Y-106794761D02*
X-20807619Y-106842380D01*
X-20998095Y-106842380D01*
X-21093333Y-106794761D01*
X-21140952Y-106699523D01*
X-21140952Y-106318571D01*
X-21093333Y-106223333D01*
X-20998095Y-106175714D01*
X-20807619Y-106175714D01*
X-20712380Y-106223333D01*
X-20664761Y-106318571D01*
X-20664761Y-106413809D01*
X-21140952Y-106509047D01*
X-24698095Y-99842380D02*
X-24698095Y-98842380D01*
X-24698095Y-99318571D02*
X-24126666Y-99318571D01*
X-24126666Y-99842380D02*
X-24126666Y-98842380D01*
X-23126666Y-99842380D02*
X-23698095Y-99842380D01*
X-23412380Y-99842380D02*
X-23412380Y-98842380D01*
X-23507619Y-98985238D01*
X-23602857Y-99080476D01*
X-23698095Y-99128095D01*
X-22221904Y-98842380D02*
X-22698095Y-98842380D01*
X-22745714Y-99318571D01*
X-22698095Y-99270952D01*
X-22602857Y-99223333D01*
X-22364761Y-99223333D01*
X-22269523Y-99270952D01*
X-22221904Y-99318571D01*
X-22174285Y-99413809D01*
X-22174285Y-99651904D01*
X-22221904Y-99747142D01*
X-22269523Y-99794761D01*
X-22364761Y-99842380D01*
X-22602857Y-99842380D01*
X-22698095Y-99794761D01*
X-22745714Y-99747142D01*
%TO.C,H16*%
X-102480476Y-191032380D02*
X-102480476Y-191746666D01*
X-102528095Y-191889523D01*
X-102623333Y-191984761D01*
X-102766190Y-192032380D01*
X-102861428Y-192032380D01*
X-101575714Y-192032380D02*
X-101575714Y-191508571D01*
X-101623333Y-191413333D01*
X-101718571Y-191365714D01*
X-101909047Y-191365714D01*
X-102004285Y-191413333D01*
X-101575714Y-191984761D02*
X-101670952Y-192032380D01*
X-101909047Y-192032380D01*
X-102004285Y-191984761D01*
X-102051904Y-191889523D01*
X-102051904Y-191794285D01*
X-102004285Y-191699047D01*
X-101909047Y-191651428D01*
X-101670952Y-191651428D01*
X-101575714Y-191603809D01*
X-100670952Y-191984761D02*
X-100766190Y-192032380D01*
X-100956666Y-192032380D01*
X-101051904Y-191984761D01*
X-101099523Y-191937142D01*
X-101147142Y-191841904D01*
X-101147142Y-191556190D01*
X-101099523Y-191460952D01*
X-101051904Y-191413333D01*
X-100956666Y-191365714D01*
X-100766190Y-191365714D01*
X-100670952Y-191413333D01*
X-100242380Y-192032380D02*
X-100242380Y-191032380D01*
X-100147142Y-191651428D02*
X-99861428Y-192032380D01*
X-99861428Y-191365714D02*
X-100242380Y-191746666D01*
X-99670952Y-192127619D02*
X-98909047Y-192127619D01*
X-98670952Y-192032380D02*
X-98670952Y-191032380D01*
X-98670952Y-191508571D02*
X-98099523Y-191508571D01*
X-98099523Y-192032380D02*
X-98099523Y-191032380D01*
X-97480476Y-192032380D02*
X-97575714Y-191984761D01*
X-97623333Y-191937142D01*
X-97670952Y-191841904D01*
X-97670952Y-191556190D01*
X-97623333Y-191460952D01*
X-97575714Y-191413333D01*
X-97480476Y-191365714D01*
X-97337619Y-191365714D01*
X-97242380Y-191413333D01*
X-97194761Y-191460952D01*
X-97147142Y-191556190D01*
X-97147142Y-191841904D01*
X-97194761Y-191937142D01*
X-97242380Y-191984761D01*
X-97337619Y-192032380D01*
X-97480476Y-192032380D01*
X-96575714Y-192032380D02*
X-96670952Y-191984761D01*
X-96718571Y-191889523D01*
X-96718571Y-191032380D01*
X-95813809Y-191984761D02*
X-95909047Y-192032380D01*
X-96099523Y-192032380D01*
X-96194761Y-191984761D01*
X-96242380Y-191889523D01*
X-96242380Y-191508571D01*
X-96194761Y-191413333D01*
X-96099523Y-191365714D01*
X-95909047Y-191365714D01*
X-95813809Y-191413333D01*
X-95766190Y-191508571D01*
X-95766190Y-191603809D01*
X-96242380Y-191699047D01*
X-100228095Y-181032380D02*
X-100228095Y-180032380D01*
X-100228095Y-180508571D02*
X-99656666Y-180508571D01*
X-99656666Y-181032380D02*
X-99656666Y-180032380D01*
X-98656666Y-181032380D02*
X-99228095Y-181032380D01*
X-98942380Y-181032380D02*
X-98942380Y-180032380D01*
X-99037619Y-180175238D01*
X-99132857Y-180270476D01*
X-99228095Y-180318095D01*
X-97799523Y-180032380D02*
X-97990000Y-180032380D01*
X-98085238Y-180080000D01*
X-98132857Y-180127619D01*
X-98228095Y-180270476D01*
X-98275714Y-180460952D01*
X-98275714Y-180841904D01*
X-98228095Y-180937142D01*
X-98180476Y-180984761D01*
X-98085238Y-181032380D01*
X-97894761Y-181032380D01*
X-97799523Y-180984761D01*
X-97751904Y-180937142D01*
X-97704285Y-180841904D01*
X-97704285Y-180603809D01*
X-97751904Y-180508571D01*
X-97799523Y-180460952D01*
X-97894761Y-180413333D01*
X-98085238Y-180413333D01*
X-98180476Y-180460952D01*
X-98228095Y-180508571D01*
X-98275714Y-180603809D01*
%TO.C,H17*%
X-24570476Y-13272380D02*
X-24570476Y-12272380D01*
X-24237142Y-12986666D01*
X-23903809Y-12272380D01*
X-23903809Y-13272380D01*
X-23284761Y-13272380D02*
X-23379999Y-13224761D01*
X-23427619Y-13177142D01*
X-23475238Y-13081904D01*
X-23475238Y-12796190D01*
X-23427619Y-12700952D01*
X-23379999Y-12653333D01*
X-23284761Y-12605714D01*
X-23141904Y-12605714D01*
X-23046666Y-12653333D01*
X-22999047Y-12700952D01*
X-22951428Y-12796190D01*
X-22951428Y-13081904D01*
X-22999047Y-13177142D01*
X-23046666Y-13224761D01*
X-23141904Y-13272380D01*
X-23284761Y-13272380D01*
X-22094285Y-12605714D02*
X-22094285Y-13272380D01*
X-22522857Y-12605714D02*
X-22522857Y-13129523D01*
X-22475238Y-13224761D01*
X-22379999Y-13272380D01*
X-22237142Y-13272380D01*
X-22141904Y-13224761D01*
X-22094285Y-13177142D01*
X-21618095Y-12605714D02*
X-21618095Y-13272380D01*
X-21618095Y-12700952D02*
X-21570476Y-12653333D01*
X-21475238Y-12605714D01*
X-21332380Y-12605714D01*
X-21237142Y-12653333D01*
X-21189523Y-12748571D01*
X-21189523Y-13272380D01*
X-20856190Y-12605714D02*
X-20475238Y-12605714D01*
X-20713333Y-12272380D02*
X-20713333Y-13129523D01*
X-20665714Y-13224761D01*
X-20570476Y-13272380D01*
X-20475238Y-13272380D01*
X-20141904Y-13272380D02*
X-20141904Y-12605714D01*
X-20141904Y-12272380D02*
X-20189523Y-12320000D01*
X-20141904Y-12367619D01*
X-20094285Y-12320000D01*
X-20141904Y-12272380D01*
X-20141904Y-12367619D01*
X-19665714Y-12605714D02*
X-19665714Y-13272380D01*
X-19665714Y-12700952D02*
X-19618095Y-12653333D01*
X-19522857Y-12605714D01*
X-19380000Y-12605714D01*
X-19284761Y-12653333D01*
X-19237142Y-12748571D01*
X-19237142Y-13272380D01*
X-18332380Y-12605714D02*
X-18332380Y-13415238D01*
X-18380000Y-13510476D01*
X-18427619Y-13558095D01*
X-18522857Y-13605714D01*
X-18665714Y-13605714D01*
X-18760952Y-13558095D01*
X-18332380Y-13224761D02*
X-18427619Y-13272380D01*
X-18618095Y-13272380D01*
X-18713333Y-13224761D01*
X-18760952Y-13177142D01*
X-18808571Y-13081904D01*
X-18808571Y-12796190D01*
X-18760952Y-12700952D01*
X-18713333Y-12653333D01*
X-18618095Y-12605714D01*
X-18427619Y-12605714D01*
X-18332380Y-12653333D01*
X-18094285Y-13367619D02*
X-17332380Y-13367619D01*
X-17094285Y-13272380D02*
X-17094285Y-12272380D01*
X-17094285Y-12748571D02*
X-16522857Y-12748571D01*
X-16522857Y-13272380D02*
X-16522857Y-12272380D01*
X-15903809Y-13272380D02*
X-15999047Y-13224761D01*
X-16046666Y-13177142D01*
X-16094285Y-13081904D01*
X-16094285Y-12796190D01*
X-16046666Y-12700952D01*
X-15999047Y-12653333D01*
X-15903809Y-12605714D01*
X-15760952Y-12605714D01*
X-15665714Y-12653333D01*
X-15618095Y-12700952D01*
X-15570476Y-12796190D01*
X-15570476Y-13081904D01*
X-15618095Y-13177142D01*
X-15665714Y-13224761D01*
X-15760952Y-13272380D01*
X-15903809Y-13272380D01*
X-14999047Y-13272380D02*
X-15094285Y-13224761D01*
X-15141904Y-13129523D01*
X-15141904Y-12272380D01*
X-14237142Y-13224761D02*
X-14332380Y-13272380D01*
X-14522857Y-13272380D01*
X-14618095Y-13224761D01*
X-14665714Y-13129523D01*
X-14665714Y-12748571D01*
X-14618095Y-12653333D01*
X-14522857Y-12605714D01*
X-14332380Y-12605714D01*
X-14237142Y-12653333D01*
X-14189523Y-12748571D01*
X-14189523Y-12843809D01*
X-14665714Y-12939047D01*
X-13999047Y-13367619D02*
X-13237142Y-13367619D01*
X-13046666Y-13224761D02*
X-12903809Y-13272380D01*
X-12665714Y-13272380D01*
X-12570476Y-13224761D01*
X-12522857Y-13177142D01*
X-12475238Y-13081904D01*
X-12475238Y-12986666D01*
X-12522857Y-12891428D01*
X-12570476Y-12843809D01*
X-12665714Y-12796190D01*
X-12856190Y-12748571D01*
X-12951428Y-12700952D01*
X-12999047Y-12653333D01*
X-13046666Y-12558095D01*
X-13046666Y-12462857D01*
X-12999047Y-12367619D01*
X-12951428Y-12320000D01*
X-12856190Y-12272380D01*
X-12618095Y-12272380D01*
X-12475238Y-12320000D01*
X-11903809Y-13272380D02*
X-11999047Y-13224761D01*
X-12046666Y-13129523D01*
X-12046666Y-12272380D01*
X-11380000Y-13272380D02*
X-11475238Y-13224761D01*
X-11522857Y-13177142D01*
X-11570476Y-13081904D01*
X-11570476Y-12796190D01*
X-11522857Y-12700952D01*
X-11475238Y-12653333D01*
X-11380000Y-12605714D01*
X-11237142Y-12605714D01*
X-11141904Y-12653333D01*
X-11094285Y-12700952D01*
X-11046666Y-12796190D01*
X-11046666Y-13081904D01*
X-11094285Y-13177142D01*
X-11141904Y-13224761D01*
X-11237142Y-13272380D01*
X-11380000Y-13272380D01*
X-10760952Y-12605714D02*
X-10380000Y-12605714D01*
X-10618095Y-12272380D02*
X-10618095Y-13129523D01*
X-10570476Y-13224761D01*
X-10475238Y-13272380D01*
X-10380000Y-13272380D01*
X-10189523Y-12605714D02*
X-9808571Y-12605714D01*
X-10046666Y-12272380D02*
X-10046666Y-13129523D01*
X-9999047Y-13224761D01*
X-9903809Y-13272380D01*
X-9808571Y-13272380D01*
X-9094285Y-13224761D02*
X-9189523Y-13272380D01*
X-9380000Y-13272380D01*
X-9475238Y-13224761D01*
X-9522857Y-13129523D01*
X-9522857Y-12748571D01*
X-9475238Y-12653333D01*
X-9380000Y-12605714D01*
X-9189523Y-12605714D01*
X-9094285Y-12653333D01*
X-9046666Y-12748571D01*
X-9046666Y-12843809D01*
X-9522857Y-12939047D01*
X-8189523Y-13272380D02*
X-8189523Y-12272380D01*
X-8189523Y-13224761D02*
X-8284761Y-13272380D01*
X-8475238Y-13272380D01*
X-8570476Y-13224761D01*
X-8618095Y-13177142D01*
X-8665714Y-13081904D01*
X-8665714Y-12796190D01*
X-8618095Y-12700952D01*
X-8570476Y-12653333D01*
X-8475238Y-12605714D01*
X-8284761Y-12605714D01*
X-8189523Y-12653333D01*
X-17318095Y-9072380D02*
X-17318095Y-8072380D01*
X-17318095Y-8548571D02*
X-16746666Y-8548571D01*
X-16746666Y-9072380D02*
X-16746666Y-8072380D01*
X-15746666Y-9072380D02*
X-16318095Y-9072380D01*
X-16032380Y-9072380D02*
X-16032380Y-8072380D01*
X-16127619Y-8215238D01*
X-16222857Y-8310476D01*
X-16318095Y-8358095D01*
X-15413333Y-8072380D02*
X-14746666Y-8072380D01*
X-15175238Y-9072380D01*
%TO.C,H18*%
X-26709047Y-40472380D02*
X-27185238Y-40472380D01*
X-27185238Y-39472380D01*
X-25994761Y-40424761D02*
X-26090000Y-40472380D01*
X-26280476Y-40472380D01*
X-26375714Y-40424761D01*
X-26423333Y-40329523D01*
X-26423333Y-39948571D01*
X-26375714Y-39853333D01*
X-26280476Y-39805714D01*
X-26090000Y-39805714D01*
X-25994761Y-39853333D01*
X-25947142Y-39948571D01*
X-25947142Y-40043809D01*
X-26423333Y-40139047D01*
X-25090000Y-40472380D02*
X-25090000Y-39472380D01*
X-25090000Y-40424761D02*
X-25185238Y-40472380D01*
X-25375714Y-40472380D01*
X-25470952Y-40424761D01*
X-25518571Y-40377142D01*
X-25566190Y-40281904D01*
X-25566190Y-39996190D01*
X-25518571Y-39900952D01*
X-25470952Y-39853333D01*
X-25375714Y-39805714D01*
X-25185238Y-39805714D01*
X-25090000Y-39853333D01*
X-24851904Y-40567619D02*
X-24090000Y-40567619D01*
X-23851904Y-40472380D02*
X-23851904Y-39472380D01*
X-23851904Y-39948571D02*
X-23280476Y-39948571D01*
X-23280476Y-40472380D02*
X-23280476Y-39472380D01*
X-22661428Y-40472380D02*
X-22756666Y-40424761D01*
X-22804285Y-40377142D01*
X-22851904Y-40281904D01*
X-22851904Y-39996190D01*
X-22804285Y-39900952D01*
X-22756666Y-39853333D01*
X-22661428Y-39805714D01*
X-22518571Y-39805714D01*
X-22423333Y-39853333D01*
X-22375714Y-39900952D01*
X-22328095Y-39996190D01*
X-22328095Y-40281904D01*
X-22375714Y-40377142D01*
X-22423333Y-40424761D01*
X-22518571Y-40472380D01*
X-22661428Y-40472380D01*
X-21756666Y-40472380D02*
X-21851904Y-40424761D01*
X-21899523Y-40329523D01*
X-21899523Y-39472380D01*
X-20994761Y-40424761D02*
X-21090000Y-40472380D01*
X-21280476Y-40472380D01*
X-21375714Y-40424761D01*
X-21423333Y-40329523D01*
X-21423333Y-39948571D01*
X-21375714Y-39853333D01*
X-21280476Y-39805714D01*
X-21090000Y-39805714D01*
X-20994761Y-39853333D01*
X-20947142Y-39948571D01*
X-20947142Y-40043809D01*
X-21423333Y-40139047D01*
X-25028095Y-34472380D02*
X-25028095Y-33472380D01*
X-25028095Y-33948571D02*
X-24456666Y-33948571D01*
X-24456666Y-34472380D02*
X-24456666Y-33472380D01*
X-23456666Y-34472380D02*
X-24028095Y-34472380D01*
X-23742380Y-34472380D02*
X-23742380Y-33472380D01*
X-23837619Y-33615238D01*
X-23932857Y-33710476D01*
X-24028095Y-33758095D01*
X-22885238Y-33900952D02*
X-22980476Y-33853333D01*
X-23028095Y-33805714D01*
X-23075714Y-33710476D01*
X-23075714Y-33662857D01*
X-23028095Y-33567619D01*
X-22980476Y-33520000D01*
X-22885238Y-33472380D01*
X-22694761Y-33472380D01*
X-22599523Y-33520000D01*
X-22551904Y-33567619D01*
X-22504285Y-33662857D01*
X-22504285Y-33710476D01*
X-22551904Y-33805714D01*
X-22599523Y-33853333D01*
X-22694761Y-33900952D01*
X-22885238Y-33900952D01*
X-22980476Y-33948571D01*
X-23028095Y-33996190D01*
X-23075714Y-34091428D01*
X-23075714Y-34281904D01*
X-23028095Y-34377142D01*
X-22980476Y-34424761D01*
X-22885238Y-34472380D01*
X-22694761Y-34472380D01*
X-22599523Y-34424761D01*
X-22551904Y-34377142D01*
X-22504285Y-34281904D01*
X-22504285Y-34091428D01*
X-22551904Y-33996190D01*
X-22599523Y-33948571D01*
X-22694761Y-33900952D01*
%TO.C,H19*%
X-103007619Y-61852380D02*
X-103007619Y-60852380D01*
X-102626666Y-60852380D01*
X-102531428Y-60900000D01*
X-102483809Y-60947619D01*
X-102436190Y-61042857D01*
X-102436190Y-61185714D01*
X-102483809Y-61280952D01*
X-102531428Y-61328571D01*
X-102626666Y-61376190D01*
X-103007619Y-61376190D01*
X-101864761Y-61852380D02*
X-101960000Y-61804761D01*
X-102007619Y-61757142D01*
X-102055238Y-61661904D01*
X-102055238Y-61376190D01*
X-102007619Y-61280952D01*
X-101960000Y-61233333D01*
X-101864761Y-61185714D01*
X-101721904Y-61185714D01*
X-101626666Y-61233333D01*
X-101579047Y-61280952D01*
X-101531428Y-61376190D01*
X-101531428Y-61661904D01*
X-101579047Y-61757142D01*
X-101626666Y-61804761D01*
X-101721904Y-61852380D01*
X-101864761Y-61852380D01*
X-101245714Y-61185714D02*
X-100864761Y-61185714D01*
X-101102857Y-60852380D02*
X-101102857Y-61709523D01*
X-101055238Y-61804761D01*
X-100960000Y-61852380D01*
X-100864761Y-61852380D01*
X-100769523Y-61947619D02*
X-100007619Y-61947619D01*
X-99769523Y-61852380D02*
X-99769523Y-60852380D01*
X-99769523Y-61328571D02*
X-99198095Y-61328571D01*
X-99198095Y-61852380D02*
X-99198095Y-60852380D01*
X-98579047Y-61852380D02*
X-98674285Y-61804761D01*
X-98721904Y-61757142D01*
X-98769523Y-61661904D01*
X-98769523Y-61376190D01*
X-98721904Y-61280952D01*
X-98674285Y-61233333D01*
X-98579047Y-61185714D01*
X-98436190Y-61185714D01*
X-98340952Y-61233333D01*
X-98293333Y-61280952D01*
X-98245714Y-61376190D01*
X-98245714Y-61661904D01*
X-98293333Y-61757142D01*
X-98340952Y-61804761D01*
X-98436190Y-61852380D01*
X-98579047Y-61852380D01*
X-97674285Y-61852380D02*
X-97769523Y-61804761D01*
X-97817142Y-61709523D01*
X-97817142Y-60852380D01*
X-96912380Y-61804761D02*
X-97007619Y-61852380D01*
X-97198095Y-61852380D01*
X-97293333Y-61804761D01*
X-97340952Y-61709523D01*
X-97340952Y-61328571D01*
X-97293333Y-61233333D01*
X-97198095Y-61185714D01*
X-97007619Y-61185714D01*
X-96912380Y-61233333D01*
X-96864761Y-61328571D01*
X-96864761Y-61423809D01*
X-97340952Y-61519047D01*
X-100898095Y-54852380D02*
X-100898095Y-53852380D01*
X-100898095Y-54328571D02*
X-100326666Y-54328571D01*
X-100326666Y-54852380D02*
X-100326666Y-53852380D01*
X-99326666Y-54852380D02*
X-99898095Y-54852380D01*
X-99612380Y-54852380D02*
X-99612380Y-53852380D01*
X-99707619Y-53995238D01*
X-99802857Y-54090476D01*
X-99898095Y-54138095D01*
X-98850476Y-54852380D02*
X-98660000Y-54852380D01*
X-98564761Y-54804761D01*
X-98517142Y-54757142D01*
X-98421904Y-54614285D01*
X-98374285Y-54423809D01*
X-98374285Y-54042857D01*
X-98421904Y-53947619D01*
X-98469523Y-53900000D01*
X-98564761Y-53852380D01*
X-98755238Y-53852380D01*
X-98850476Y-53900000D01*
X-98898095Y-53947619D01*
X-98945714Y-54042857D01*
X-98945714Y-54280952D01*
X-98898095Y-54376190D01*
X-98850476Y-54423809D01*
X-98755238Y-54471428D01*
X-98564761Y-54471428D01*
X-98469523Y-54423809D01*
X-98421904Y-54376190D01*
X-98374285Y-54280952D01*
%TO.C,H20*%
X-27490476Y-191062380D02*
X-27490476Y-191776666D01*
X-27538095Y-191919523D01*
X-27633333Y-192014761D01*
X-27776190Y-192062380D01*
X-27871428Y-192062380D01*
X-26585714Y-192062380D02*
X-26585714Y-191538571D01*
X-26633333Y-191443333D01*
X-26728571Y-191395714D01*
X-26919047Y-191395714D01*
X-27014285Y-191443333D01*
X-26585714Y-192014761D02*
X-26680952Y-192062380D01*
X-26919047Y-192062380D01*
X-27014285Y-192014761D01*
X-27061904Y-191919523D01*
X-27061904Y-191824285D01*
X-27014285Y-191729047D01*
X-26919047Y-191681428D01*
X-26680952Y-191681428D01*
X-26585714Y-191633809D01*
X-25680952Y-192014761D02*
X-25776190Y-192062380D01*
X-25966666Y-192062380D01*
X-26061904Y-192014761D01*
X-26109523Y-191967142D01*
X-26157142Y-191871904D01*
X-26157142Y-191586190D01*
X-26109523Y-191490952D01*
X-26061904Y-191443333D01*
X-25966666Y-191395714D01*
X-25776190Y-191395714D01*
X-25680952Y-191443333D01*
X-25252380Y-192062380D02*
X-25252380Y-191062380D01*
X-25157142Y-191681428D02*
X-24871428Y-192062380D01*
X-24871428Y-191395714D02*
X-25252380Y-191776666D01*
X-24680952Y-192157619D02*
X-23919047Y-192157619D01*
X-23680952Y-192062380D02*
X-23680952Y-191062380D01*
X-23680952Y-191538571D02*
X-23109523Y-191538571D01*
X-23109523Y-192062380D02*
X-23109523Y-191062380D01*
X-22490476Y-192062380D02*
X-22585714Y-192014761D01*
X-22633333Y-191967142D01*
X-22680952Y-191871904D01*
X-22680952Y-191586190D01*
X-22633333Y-191490952D01*
X-22585714Y-191443333D01*
X-22490476Y-191395714D01*
X-22347619Y-191395714D01*
X-22252380Y-191443333D01*
X-22204761Y-191490952D01*
X-22157142Y-191586190D01*
X-22157142Y-191871904D01*
X-22204761Y-191967142D01*
X-22252380Y-192014761D01*
X-22347619Y-192062380D01*
X-22490476Y-192062380D01*
X-21585714Y-192062380D02*
X-21680952Y-192014761D01*
X-21728571Y-191919523D01*
X-21728571Y-191062380D01*
X-20823809Y-192014761D02*
X-20919047Y-192062380D01*
X-21109523Y-192062380D01*
X-21204761Y-192014761D01*
X-21252380Y-191919523D01*
X-21252380Y-191538571D01*
X-21204761Y-191443333D01*
X-21109523Y-191395714D01*
X-20919047Y-191395714D01*
X-20823809Y-191443333D01*
X-20776190Y-191538571D01*
X-20776190Y-191633809D01*
X-21252380Y-191729047D01*
X-25238095Y-181062380D02*
X-25238095Y-180062380D01*
X-25238095Y-180538571D02*
X-24666666Y-180538571D01*
X-24666666Y-181062380D02*
X-24666666Y-180062380D01*
X-24238095Y-180157619D02*
X-24190476Y-180110000D01*
X-24095238Y-180062380D01*
X-23857142Y-180062380D01*
X-23761904Y-180110000D01*
X-23714285Y-180157619D01*
X-23666666Y-180252857D01*
X-23666666Y-180348095D01*
X-23714285Y-180490952D01*
X-24285714Y-181062380D01*
X-23666666Y-181062380D01*
X-23047619Y-180062380D02*
X-22952380Y-180062380D01*
X-22857142Y-180110000D01*
X-22809523Y-180157619D01*
X-22761904Y-180252857D01*
X-22714285Y-180443333D01*
X-22714285Y-180681428D01*
X-22761904Y-180871904D01*
X-22809523Y-180967142D01*
X-22857142Y-181014761D01*
X-22952380Y-181062380D01*
X-23047619Y-181062380D01*
X-23142857Y-181014761D01*
X-23190476Y-180967142D01*
X-23238095Y-180871904D01*
X-23285714Y-180681428D01*
X-23285714Y-180443333D01*
X-23238095Y-180252857D01*
X-23190476Y-180157619D01*
X-23142857Y-180110000D01*
X-23047619Y-180062380D01*
%TO.C,H21*%
X-52500476Y-191052380D02*
X-52500476Y-191766666D01*
X-52548095Y-191909523D01*
X-52643333Y-192004761D01*
X-52786190Y-192052380D01*
X-52881428Y-192052380D01*
X-51595714Y-192052380D02*
X-51595714Y-191528571D01*
X-51643333Y-191433333D01*
X-51738571Y-191385714D01*
X-51929047Y-191385714D01*
X-52024285Y-191433333D01*
X-51595714Y-192004761D02*
X-51690952Y-192052380D01*
X-51929047Y-192052380D01*
X-52024285Y-192004761D01*
X-52071904Y-191909523D01*
X-52071904Y-191814285D01*
X-52024285Y-191719047D01*
X-51929047Y-191671428D01*
X-51690952Y-191671428D01*
X-51595714Y-191623809D01*
X-50690952Y-192004761D02*
X-50786190Y-192052380D01*
X-50976666Y-192052380D01*
X-51071904Y-192004761D01*
X-51119523Y-191957142D01*
X-51167142Y-191861904D01*
X-51167142Y-191576190D01*
X-51119523Y-191480952D01*
X-51071904Y-191433333D01*
X-50976666Y-191385714D01*
X-50786190Y-191385714D01*
X-50690952Y-191433333D01*
X-50262380Y-192052380D02*
X-50262380Y-191052380D01*
X-50167142Y-191671428D02*
X-49881428Y-192052380D01*
X-49881428Y-191385714D02*
X-50262380Y-191766666D01*
X-49690952Y-192147619D02*
X-48929047Y-192147619D01*
X-48690952Y-192052380D02*
X-48690952Y-191052380D01*
X-48690952Y-191528571D02*
X-48119523Y-191528571D01*
X-48119523Y-192052380D02*
X-48119523Y-191052380D01*
X-47500476Y-192052380D02*
X-47595714Y-192004761D01*
X-47643333Y-191957142D01*
X-47690952Y-191861904D01*
X-47690952Y-191576190D01*
X-47643333Y-191480952D01*
X-47595714Y-191433333D01*
X-47500476Y-191385714D01*
X-47357619Y-191385714D01*
X-47262380Y-191433333D01*
X-47214761Y-191480952D01*
X-47167142Y-191576190D01*
X-47167142Y-191861904D01*
X-47214761Y-191957142D01*
X-47262380Y-192004761D01*
X-47357619Y-192052380D01*
X-47500476Y-192052380D01*
X-46595714Y-192052380D02*
X-46690952Y-192004761D01*
X-46738571Y-191909523D01*
X-46738571Y-191052380D01*
X-45833809Y-192004761D02*
X-45929047Y-192052380D01*
X-46119523Y-192052380D01*
X-46214761Y-192004761D01*
X-46262380Y-191909523D01*
X-46262380Y-191528571D01*
X-46214761Y-191433333D01*
X-46119523Y-191385714D01*
X-45929047Y-191385714D01*
X-45833809Y-191433333D01*
X-45786190Y-191528571D01*
X-45786190Y-191623809D01*
X-46262380Y-191719047D01*
X-50248095Y-181052380D02*
X-50248095Y-180052380D01*
X-50248095Y-180528571D02*
X-49676666Y-180528571D01*
X-49676666Y-181052380D02*
X-49676666Y-180052380D01*
X-49248095Y-180147619D02*
X-49200476Y-180100000D01*
X-49105238Y-180052380D01*
X-48867142Y-180052380D01*
X-48771904Y-180100000D01*
X-48724285Y-180147619D01*
X-48676666Y-180242857D01*
X-48676666Y-180338095D01*
X-48724285Y-180480952D01*
X-49295714Y-181052380D01*
X-48676666Y-181052380D01*
X-47724285Y-181052380D02*
X-48295714Y-181052380D01*
X-48010000Y-181052380D02*
X-48010000Y-180052380D01*
X-48105238Y-180195238D01*
X-48200476Y-180290476D01*
X-48295714Y-180338095D01*
%TO.C,H22*%
X-77480476Y-166022380D02*
X-77480476Y-166736666D01*
X-77528095Y-166879523D01*
X-77623333Y-166974761D01*
X-77766190Y-167022380D01*
X-77861428Y-167022380D01*
X-76575714Y-167022380D02*
X-76575714Y-166498571D01*
X-76623333Y-166403333D01*
X-76718571Y-166355714D01*
X-76909047Y-166355714D01*
X-77004285Y-166403333D01*
X-76575714Y-166974761D02*
X-76670952Y-167022380D01*
X-76909047Y-167022380D01*
X-77004285Y-166974761D01*
X-77051904Y-166879523D01*
X-77051904Y-166784285D01*
X-77004285Y-166689047D01*
X-76909047Y-166641428D01*
X-76670952Y-166641428D01*
X-76575714Y-166593809D01*
X-75670952Y-166974761D02*
X-75766190Y-167022380D01*
X-75956666Y-167022380D01*
X-76051904Y-166974761D01*
X-76099523Y-166927142D01*
X-76147142Y-166831904D01*
X-76147142Y-166546190D01*
X-76099523Y-166450952D01*
X-76051904Y-166403333D01*
X-75956666Y-166355714D01*
X-75766190Y-166355714D01*
X-75670952Y-166403333D01*
X-75242380Y-167022380D02*
X-75242380Y-166022380D01*
X-75147142Y-166641428D02*
X-74861428Y-167022380D01*
X-74861428Y-166355714D02*
X-75242380Y-166736666D01*
X-74670952Y-167117619D02*
X-73909047Y-167117619D01*
X-73670952Y-167022380D02*
X-73670952Y-166022380D01*
X-73670952Y-166498571D02*
X-73099523Y-166498571D01*
X-73099523Y-167022380D02*
X-73099523Y-166022380D01*
X-72480476Y-167022380D02*
X-72575714Y-166974761D01*
X-72623333Y-166927142D01*
X-72670952Y-166831904D01*
X-72670952Y-166546190D01*
X-72623333Y-166450952D01*
X-72575714Y-166403333D01*
X-72480476Y-166355714D01*
X-72337619Y-166355714D01*
X-72242380Y-166403333D01*
X-72194761Y-166450952D01*
X-72147142Y-166546190D01*
X-72147142Y-166831904D01*
X-72194761Y-166927142D01*
X-72242380Y-166974761D01*
X-72337619Y-167022380D01*
X-72480476Y-167022380D01*
X-71575714Y-167022380D02*
X-71670952Y-166974761D01*
X-71718571Y-166879523D01*
X-71718571Y-166022380D01*
X-70813809Y-166974761D02*
X-70909047Y-167022380D01*
X-71099523Y-167022380D01*
X-71194761Y-166974761D01*
X-71242380Y-166879523D01*
X-71242380Y-166498571D01*
X-71194761Y-166403333D01*
X-71099523Y-166355714D01*
X-70909047Y-166355714D01*
X-70813809Y-166403333D01*
X-70766190Y-166498571D01*
X-70766190Y-166593809D01*
X-71242380Y-166689047D01*
X-75228095Y-156022380D02*
X-75228095Y-155022380D01*
X-75228095Y-155498571D02*
X-74656666Y-155498571D01*
X-74656666Y-156022380D02*
X-74656666Y-155022380D01*
X-74228095Y-155117619D02*
X-74180476Y-155070000D01*
X-74085238Y-155022380D01*
X-73847142Y-155022380D01*
X-73751904Y-155070000D01*
X-73704285Y-155117619D01*
X-73656666Y-155212857D01*
X-73656666Y-155308095D01*
X-73704285Y-155450952D01*
X-74275714Y-156022380D01*
X-73656666Y-156022380D01*
X-73275714Y-155117619D02*
X-73228095Y-155070000D01*
X-73132857Y-155022380D01*
X-72894761Y-155022380D01*
X-72799523Y-155070000D01*
X-72751904Y-155117619D01*
X-72704285Y-155212857D01*
X-72704285Y-155308095D01*
X-72751904Y-155450952D01*
X-73323333Y-156022380D01*
X-72704285Y-156022380D01*
%TO.C,H23*%
X-102470476Y-166072380D02*
X-102470476Y-166786666D01*
X-102518095Y-166929523D01*
X-102613333Y-167024761D01*
X-102756190Y-167072380D01*
X-102851428Y-167072380D01*
X-101565714Y-167072380D02*
X-101565714Y-166548571D01*
X-101613333Y-166453333D01*
X-101708571Y-166405714D01*
X-101899047Y-166405714D01*
X-101994285Y-166453333D01*
X-101565714Y-167024761D02*
X-101660952Y-167072380D01*
X-101899047Y-167072380D01*
X-101994285Y-167024761D01*
X-102041904Y-166929523D01*
X-102041904Y-166834285D01*
X-101994285Y-166739047D01*
X-101899047Y-166691428D01*
X-101660952Y-166691428D01*
X-101565714Y-166643809D01*
X-100660952Y-167024761D02*
X-100756190Y-167072380D01*
X-100946666Y-167072380D01*
X-101041904Y-167024761D01*
X-101089523Y-166977142D01*
X-101137142Y-166881904D01*
X-101137142Y-166596190D01*
X-101089523Y-166500952D01*
X-101041904Y-166453333D01*
X-100946666Y-166405714D01*
X-100756190Y-166405714D01*
X-100660952Y-166453333D01*
X-100232380Y-167072380D02*
X-100232380Y-166072380D01*
X-100137142Y-166691428D02*
X-99851428Y-167072380D01*
X-99851428Y-166405714D02*
X-100232380Y-166786666D01*
X-99660952Y-167167619D02*
X-98899047Y-167167619D01*
X-98660952Y-167072380D02*
X-98660952Y-166072380D01*
X-98660952Y-166548571D02*
X-98089523Y-166548571D01*
X-98089523Y-167072380D02*
X-98089523Y-166072380D01*
X-97470476Y-167072380D02*
X-97565714Y-167024761D01*
X-97613333Y-166977142D01*
X-97660952Y-166881904D01*
X-97660952Y-166596190D01*
X-97613333Y-166500952D01*
X-97565714Y-166453333D01*
X-97470476Y-166405714D01*
X-97327619Y-166405714D01*
X-97232380Y-166453333D01*
X-97184761Y-166500952D01*
X-97137142Y-166596190D01*
X-97137142Y-166881904D01*
X-97184761Y-166977142D01*
X-97232380Y-167024761D01*
X-97327619Y-167072380D01*
X-97470476Y-167072380D01*
X-96565714Y-167072380D02*
X-96660952Y-167024761D01*
X-96708571Y-166929523D01*
X-96708571Y-166072380D01*
X-95803809Y-167024761D02*
X-95899047Y-167072380D01*
X-96089523Y-167072380D01*
X-96184761Y-167024761D01*
X-96232380Y-166929523D01*
X-96232380Y-166548571D01*
X-96184761Y-166453333D01*
X-96089523Y-166405714D01*
X-95899047Y-166405714D01*
X-95803809Y-166453333D01*
X-95756190Y-166548571D01*
X-95756190Y-166643809D01*
X-96232380Y-166739047D01*
X-100218095Y-156072380D02*
X-100218095Y-155072380D01*
X-100218095Y-155548571D02*
X-99646666Y-155548571D01*
X-99646666Y-156072380D02*
X-99646666Y-155072380D01*
X-99218095Y-155167619D02*
X-99170476Y-155120000D01*
X-99075238Y-155072380D01*
X-98837142Y-155072380D01*
X-98741904Y-155120000D01*
X-98694285Y-155167619D01*
X-98646666Y-155262857D01*
X-98646666Y-155358095D01*
X-98694285Y-155500952D01*
X-99265714Y-156072380D01*
X-98646666Y-156072380D01*
X-98313333Y-155072380D02*
X-97694285Y-155072380D01*
X-98027619Y-155453333D01*
X-97884761Y-155453333D01*
X-97789523Y-155500952D01*
X-97741904Y-155548571D01*
X-97694285Y-155643809D01*
X-97694285Y-155881904D01*
X-97741904Y-155977142D01*
X-97789523Y-156024761D01*
X-97884761Y-156072380D01*
X-98170476Y-156072380D01*
X-98265714Y-156024761D01*
X-98313333Y-155977142D01*
%TD*%
M02*
