%TF.GenerationSoftware,KiCad,Pcbnew,(5.1.9)-1*%
%TF.CreationDate,2021-08-21T12:12:35+01:00*%
%TF.ProjectId,KOSMOS LFO6 Front Panel,4b4f534d-4f53-4204-9c46-4f362046726f,rev?*%
%TF.SameCoordinates,Original*%
%TF.FileFunction,Other,User*%
%FSLAX46Y46*%
G04 Gerber Fmt 4.6, Leading zero omitted, Abs format (unit mm)*
G04 Created by KiCad (PCBNEW (5.1.9)-1) date 2021-08-21 12:12:35*
%MOMM*%
%LPD*%
G01*
G04 APERTURE LIST*
%ADD10C,0.050000*%
G04 APERTURE END LIST*
D10*
%TO.C,H1*%
X-108640000Y-199320000D02*
X-105840000Y-199320000D01*
X-108640000Y-205820000D02*
X-105840000Y-205820000D01*
X-108640000Y-199320000D02*
G75*
G03*
X-108640000Y-205820000I0J-3250000D01*
G01*
X-105840000Y-199320000D02*
G75*
G02*
X-105840000Y-205820000I0J-3250000D01*
G01*
%TO.C,H2*%
X-57930000Y-79140000D02*
G75*
G03*
X-57930000Y-79140000I-4250000J0D01*
G01*
%TO.C,H3*%
X-17530000Y-54400000D02*
G75*
G03*
X-17530000Y-54400000I-6250000J0D01*
G01*
%TO.C,H4*%
X-64270000Y-180590000D02*
G75*
G03*
X-64270000Y-180590000I-10000000J0D01*
G01*
%TO.C,H5*%
X-93730000Y-99390000D02*
G75*
G03*
X-93730000Y-99390000I-6250000J0D01*
G01*
%TO.C,H6*%
X-14290000Y-155590000D02*
G75*
G03*
X-14290000Y-155590000I-10000000J0D01*
G01*
%TO.C,H7*%
X-108620000Y-11830000D02*
X-105820000Y-11830000D01*
X-108620000Y-5330000D02*
X-105820000Y-5330000D01*
X-105820000Y-5330000D02*
G75*
G02*
X-105820000Y-11830000I0J-3250000D01*
G01*
X-108620000Y-5330000D02*
G75*
G03*
X-108620000Y-11830000I0J-3250000D01*
G01*
%TO.C,H8*%
X-19800000Y-79120000D02*
G75*
G03*
X-19800000Y-79120000I-4250000J0D01*
G01*
%TO.C,H9*%
X-55620000Y-99390000D02*
G75*
G03*
X-55620000Y-99390000I-6250000J0D01*
G01*
%TO.C,H10*%
X-76800000Y-138470000D02*
G75*
G03*
X-76800000Y-138470000I-10000000J0D01*
G01*
%TO.C,H11*%
X-17810000Y-205870000D02*
X-15010000Y-205870000D01*
X-17810000Y-199370000D02*
X-15010000Y-199370000D01*
X-15010000Y-199370000D02*
G75*
G02*
X-15010000Y-205870000I0J-3250000D01*
G01*
X-17810000Y-199370000D02*
G75*
G03*
X-17810000Y-205870000I0J-3250000D01*
G01*
%TO.C,H12*%
X-96050000Y-79120000D02*
G75*
G03*
X-96050000Y-79120000I-4250000J0D01*
G01*
%TO.C,H13*%
X-55570000Y-54410000D02*
G75*
G03*
X-55570000Y-54410000I-6250000J0D01*
G01*
%TO.C,H14*%
X-39290000Y-155590000D02*
G75*
G03*
X-39290000Y-155590000I-10000000J0D01*
G01*
%TO.C,H15*%
X-17510000Y-99390000D02*
G75*
G03*
X-17510000Y-99390000I-6250000J0D01*
G01*
%TO.C,H16*%
X-89290000Y-180580000D02*
G75*
G03*
X-89290000Y-180580000I-10000000J0D01*
G01*
%TO.C,H17*%
X-17780000Y-5370000D02*
X-14980000Y-5370000D01*
X-17780000Y-11870000D02*
X-14980000Y-11870000D01*
X-17780000Y-5370000D02*
G75*
G03*
X-17780000Y-11870000I0J-3250000D01*
G01*
X-14980000Y-5370000D02*
G75*
G02*
X-14980000Y-11870000I0J-3250000D01*
G01*
%TO.C,H18*%
X-19840000Y-34020000D02*
G75*
G03*
X-19840000Y-34020000I-4250000J0D01*
G01*
%TO.C,H19*%
X-93710000Y-54400000D02*
G75*
G03*
X-93710000Y-54400000I-6250000J0D01*
G01*
%TO.C,H20*%
X-14300000Y-180610000D02*
G75*
G03*
X-14300000Y-180610000I-10000000J0D01*
G01*
%TO.C,H21*%
X-39310000Y-180600000D02*
G75*
G03*
X-39310000Y-180600000I-10000000J0D01*
G01*
%TO.C,H22*%
X-64290000Y-155570000D02*
G75*
G03*
X-64290000Y-155570000I-10000000J0D01*
G01*
%TO.C,H23*%
X-89280000Y-155620000D02*
G75*
G03*
X-89280000Y-155620000I-10000000J0D01*
G01*
%TD*%
M02*
