%TF.GenerationSoftware,KiCad,Pcbnew,(5.1.9)-1*%
%TF.CreationDate,2021-08-20T18:58:33+01:00*%
%TF.ProjectId,KOSMOS LFO6 Jack Panel,4b4f534d-4f53-4204-9c46-4f36204a6163,rev?*%
%TF.SameCoordinates,Original*%
%TF.FileFunction,Other,User*%
%FSLAX46Y46*%
G04 Gerber Fmt 4.6, Leading zero omitted, Abs format (unit mm)*
G04 Created by KiCad (PCBNEW (5.1.9)-1) date 2021-08-20 18:58:33*
%MOMM*%
%LPD*%
G01*
G04 APERTURE LIST*
%ADD10C,0.050000*%
%ADD11C,0.120000*%
G04 APERTURE END LIST*
D10*
%TO.C,J1*%
X47500000Y-16080000D02*
X47500000Y-19680000D01*
X79050000Y-16080000D02*
X47500000Y-16080000D01*
X79050000Y-19680000D02*
X79050000Y-16080000D01*
X47500000Y-19680000D02*
X79050000Y-19680000D01*
D11*
%TO.C,J2*%
X17430000Y-55700000D02*
X17430000Y-37700000D01*
X35430000Y-55700000D02*
X17430000Y-55700000D01*
X35430000Y-37700000D02*
X35430000Y-55700000D01*
X17430000Y-37700000D02*
X35430000Y-37700000D01*
%TO.C,J3*%
X17430000Y-62690000D02*
X35430000Y-62690000D01*
X35430000Y-62690000D02*
X35430000Y-80690000D01*
X35430000Y-80690000D02*
X17430000Y-80690000D01*
X17430000Y-80690000D02*
X17430000Y-62690000D01*
%TO.C,J4*%
X42410000Y-55700000D02*
X42410000Y-37700000D01*
X60410000Y-55700000D02*
X42410000Y-55700000D01*
X60410000Y-37700000D02*
X60410000Y-55700000D01*
X42410000Y-37700000D02*
X60410000Y-37700000D01*
%TO.C,J5*%
X42430000Y-62680000D02*
X60430000Y-62680000D01*
X60430000Y-62680000D02*
X60430000Y-80680000D01*
X60430000Y-80680000D02*
X42430000Y-80680000D01*
X42430000Y-80680000D02*
X42430000Y-62680000D01*
%TO.C,J6*%
X29930000Y-38510000D02*
X29930000Y-20510000D01*
X47930000Y-38510000D02*
X29930000Y-38510000D01*
X47930000Y-20510000D02*
X47930000Y-38510000D01*
X29930000Y-20510000D02*
X47930000Y-20510000D01*
%TO.C,J7*%
X67430000Y-55690000D02*
X67430000Y-37690000D01*
X85430000Y-55690000D02*
X67430000Y-55690000D01*
X85430000Y-37690000D02*
X85430000Y-55690000D01*
X67430000Y-37690000D02*
X85430000Y-37690000D01*
%TO.C,J8*%
X67440000Y-62600000D02*
X85440000Y-62600000D01*
X85440000Y-62600000D02*
X85440000Y-80600000D01*
X85440000Y-80600000D02*
X67440000Y-80600000D01*
X67440000Y-80600000D02*
X67440000Y-62600000D01*
%TO.C,J9*%
X92440000Y-55700000D02*
X92440000Y-37700000D01*
X110440000Y-55700000D02*
X92440000Y-55700000D01*
X110440000Y-37700000D02*
X110440000Y-55700000D01*
X92440000Y-37700000D02*
X110440000Y-37700000D01*
%TO.C,J10*%
X92430000Y-62690000D02*
X110430000Y-62690000D01*
X110430000Y-62690000D02*
X110430000Y-80690000D01*
X110430000Y-80690000D02*
X92430000Y-80690000D01*
X92430000Y-80690000D02*
X92430000Y-62690000D01*
%TD*%
M02*
