%TF.GenerationSoftware,KiCad,Pcbnew,(5.1.9)-1*%
%TF.CreationDate,2021-08-20T18:58:32+01:00*%
%TF.ProjectId,KOSMOS LFO6 Jack Panel,4b4f534d-4f53-4204-9c46-4f36204a6163,rev?*%
%TF.SameCoordinates,Original*%
%TF.FileFunction,Copper,L1,Top*%
%TF.FilePolarity,Positive*%
%FSLAX46Y46*%
G04 Gerber Fmt 4.6, Leading zero omitted, Abs format (unit mm)*
G04 Created by KiCad (PCBNEW (5.1.9)-1) date 2021-08-20 18:58:32*
%MOMM*%
%LPD*%
G01*
G04 APERTURE LIST*
%TA.AperFunction,ComponentPad*%
%ADD10R,1.700000X1.700000*%
%TD*%
%TA.AperFunction,ComponentPad*%
%ADD11O,1.700000X1.700000*%
%TD*%
%TA.AperFunction,ComponentPad*%
%ADD12C,4.500000*%
%TD*%
%TA.AperFunction,ComponentPad*%
%ADD13R,4.500001X4.500001*%
%TD*%
%TA.AperFunction,ComponentPad*%
%ADD14C,4.500001*%
%TD*%
%TA.AperFunction,Conductor*%
%ADD15C,0.250000*%
%TD*%
%TA.AperFunction,Conductor*%
%ADD16C,0.254000*%
%TD*%
%TA.AperFunction,Conductor*%
%ADD17C,0.100000*%
%TD*%
G04 APERTURE END LIST*
D10*
%TO.P,J1,1*%
%TO.N,/Lfo1UniOut*%
X49300000Y-17880000D03*
D11*
%TO.P,J1,2*%
%TO.N,/Lfo1BiOut*%
X51840000Y-17880000D03*
%TO.P,J1,3*%
%TO.N,/Lfo2UniOut*%
X54380000Y-17880000D03*
%TO.P,J1,4*%
%TO.N,/Lfo2BiOut*%
X56920000Y-17880000D03*
%TO.P,J1,5*%
%TO.N,/Lfo3UniOut*%
X59460000Y-17880000D03*
%TO.P,J1,6*%
%TO.N,/Lfo3BiOut*%
X62000000Y-17880000D03*
%TO.P,J1,7*%
%TO.N,/Lfo4UniOut*%
X64540000Y-17880000D03*
%TO.P,J1,8*%
%TO.N,/Lfo4BiOut*%
X67080000Y-17880000D03*
%TO.P,J1,9*%
%TO.N,/cv1in*%
X69620000Y-17880000D03*
%TO.P,J1,10*%
%TO.N,Net-(J1-Pad10)*%
X72160000Y-17880000D03*
%TO.P,J1,11*%
%TO.N,Net-(J1-Pad11)*%
X74700000Y-17880000D03*
%TO.P,J1,12*%
%TO.N,GND*%
X77240000Y-17880000D03*
%TD*%
D12*
%TO.P,J2,T*%
%TO.N,/Lfo1UniOut*%
X20030000Y-47200000D03*
D13*
%TO.P,J2,S*%
%TO.N,GND*%
X31170000Y-51440000D03*
D14*
%TO.P,J2,R*%
%TO.N,N/C*%
X26930000Y-40300000D03*
D12*
%TO.P,J2,TN*%
X23930000Y-53100000D03*
D14*
%TO.P,J2,RN*%
X32830000Y-44200000D03*
%TD*%
%TO.P,J3,RN*%
%TO.N,N/C*%
X32830000Y-69190000D03*
D12*
%TO.P,J3,TN*%
X23930000Y-78090000D03*
D14*
%TO.P,J3,R*%
X26930000Y-65290000D03*
D13*
%TO.P,J3,S*%
%TO.N,GND*%
X31170000Y-76430000D03*
D12*
%TO.P,J3,T*%
%TO.N,/Lfo1BiOut*%
X20030000Y-72190000D03*
%TD*%
%TO.P,J4,T*%
%TO.N,/Lfo2UniOut*%
X45010000Y-47200000D03*
D13*
%TO.P,J4,S*%
%TO.N,GND*%
X56150000Y-51440000D03*
D14*
%TO.P,J4,R*%
%TO.N,N/C*%
X51910000Y-40300000D03*
D12*
%TO.P,J4,TN*%
X48910000Y-53100000D03*
D14*
%TO.P,J4,RN*%
X57810000Y-44200000D03*
%TD*%
%TO.P,J5,RN*%
%TO.N,N/C*%
X57830000Y-69180000D03*
D12*
%TO.P,J5,TN*%
X48930000Y-78080000D03*
D14*
%TO.P,J5,R*%
X51930000Y-65280000D03*
D13*
%TO.P,J5,S*%
%TO.N,GND*%
X56170000Y-76420000D03*
D12*
%TO.P,J5,T*%
%TO.N,/Lfo2BiOut*%
X45030000Y-72180000D03*
%TD*%
%TO.P,J6,T*%
%TO.N,/cv1in*%
X32530000Y-30010000D03*
D13*
%TO.P,J6,S*%
%TO.N,GND*%
X43670000Y-34250000D03*
D14*
%TO.P,J6,R*%
%TO.N,N/C*%
X39430000Y-23110000D03*
D12*
%TO.P,J6,TN*%
X36430000Y-35910000D03*
D14*
%TO.P,J6,RN*%
X45330000Y-27010000D03*
%TD*%
D12*
%TO.P,J7,T*%
%TO.N,/Lfo3UniOut*%
X70030000Y-47190000D03*
D13*
%TO.P,J7,S*%
%TO.N,GND*%
X81170000Y-51430000D03*
D14*
%TO.P,J7,R*%
%TO.N,N/C*%
X76930000Y-40290000D03*
D12*
%TO.P,J7,TN*%
X73930000Y-53090000D03*
D14*
%TO.P,J7,RN*%
X82830000Y-44190000D03*
%TD*%
%TO.P,J8,RN*%
%TO.N,N/C*%
X82840000Y-69100000D03*
D12*
%TO.P,J8,TN*%
X73940000Y-78000000D03*
D14*
%TO.P,J8,R*%
X76940000Y-65200000D03*
D13*
%TO.P,J8,S*%
%TO.N,GND*%
X81180000Y-76340000D03*
D12*
%TO.P,J8,T*%
%TO.N,/Lfo3BiOut*%
X70040000Y-72100000D03*
%TD*%
%TO.P,J9,T*%
%TO.N,/Lfo4UniOut*%
X95040000Y-47200000D03*
D13*
%TO.P,J9,S*%
%TO.N,GND*%
X106180000Y-51440000D03*
D14*
%TO.P,J9,R*%
%TO.N,N/C*%
X101940000Y-40300000D03*
D12*
%TO.P,J9,TN*%
X98940000Y-53100000D03*
D14*
%TO.P,J9,RN*%
X107840000Y-44200000D03*
%TD*%
%TO.P,J10,RN*%
%TO.N,N/C*%
X107830000Y-69190000D03*
D12*
%TO.P,J10,TN*%
X98930000Y-78090000D03*
D14*
%TO.P,J10,R*%
X101930000Y-65290000D03*
D13*
%TO.P,J10,S*%
%TO.N,GND*%
X106170000Y-76430000D03*
D12*
%TO.P,J10,T*%
%TO.N,/Lfo4BiOut*%
X95030000Y-72190000D03*
%TD*%
D15*
%TO.N,/Lfo1UniOut*%
X46259989Y-35953600D02*
X49300000Y-32913589D01*
X35763589Y-47200000D02*
X46259989Y-36703600D01*
X46259989Y-36703600D02*
X46259989Y-35953600D01*
X49300000Y-32913589D02*
X49300000Y-17880000D01*
X20030000Y-47200000D02*
X35763589Y-47200000D01*
%TO.N,/Lfo1BiOut*%
X20030000Y-67665004D02*
X51840000Y-35855004D01*
X20030000Y-72190000D02*
X20030000Y-67665004D01*
X51840000Y-35855004D02*
X51840000Y-17880000D01*
%TO.N,/Lfo2UniOut*%
X45010000Y-47200000D02*
X45010000Y-43321415D01*
X45010000Y-43321415D02*
X54380000Y-33951415D01*
X54380000Y-33951415D02*
X54380000Y-17880000D01*
%TO.N,/Lfo2BiOut*%
X60385001Y-21345001D02*
X56920000Y-17880000D01*
X60385001Y-53013997D02*
X60385001Y-21345001D01*
X45030000Y-68368998D02*
X60385001Y-53013997D01*
X45030000Y-72180000D02*
X45030000Y-68368998D01*
%TO.N,/Lfo3UniOut*%
X70030000Y-47190000D02*
X70030000Y-28450000D01*
X70030000Y-28450000D02*
X59460000Y-17880000D01*
%TO.N,/Lfo3BiOut*%
X85405001Y-41285001D02*
X62000000Y-17880000D01*
X85405001Y-52923997D02*
X85405001Y-41285001D01*
X70040000Y-68288998D02*
X85405001Y-52923997D01*
X70040000Y-72100000D02*
X70040000Y-68288998D01*
%TO.N,/Lfo4UniOut*%
X93860000Y-47200000D02*
X64540000Y-17880000D01*
X95040000Y-47200000D02*
X93860000Y-47200000D01*
%TO.N,/Lfo4BiOut*%
X68255001Y-19055001D02*
X67080000Y-17880000D01*
X86506003Y-19055001D02*
X68255001Y-19055001D01*
X110415001Y-42963999D02*
X86506003Y-19055001D01*
X110415001Y-52993997D02*
X110415001Y-42963999D01*
X95030000Y-68378998D02*
X110415001Y-52993997D01*
X95030000Y-72190000D02*
X95030000Y-68378998D01*
%TO.N,/cv1in*%
X32530000Y-30010000D02*
X32530000Y-21570000D01*
X32530000Y-21570000D02*
X39680000Y-14420000D01*
X66160000Y-14420000D02*
X69620000Y-17880000D01*
X39680000Y-14420000D02*
X66160000Y-14420000D01*
%TD*%
D16*
%TO.N,GND*%
X32018998Y-21006201D02*
X31990000Y-21029999D01*
X31966202Y-21058997D01*
X31966201Y-21058998D01*
X31895026Y-21145724D01*
X31824454Y-21277754D01*
X31780998Y-21421015D01*
X31766324Y-21570000D01*
X31770001Y-21607332D01*
X31770000Y-27219653D01*
X31688477Y-27235869D01*
X31163440Y-27453346D01*
X30690920Y-27769074D01*
X30289074Y-28170920D01*
X29973346Y-28643440D01*
X29755869Y-29168477D01*
X29645000Y-29725852D01*
X29645000Y-30294148D01*
X29755869Y-30851523D01*
X29973346Y-31376560D01*
X30289074Y-31849080D01*
X30690920Y-32250926D01*
X31163440Y-32566654D01*
X31688477Y-32784131D01*
X32245852Y-32895000D01*
X32814148Y-32895000D01*
X33371523Y-32784131D01*
X33896560Y-32566654D01*
X34369080Y-32250926D01*
X34620006Y-32000000D01*
X40781928Y-32000000D01*
X40785000Y-33964250D01*
X40943750Y-34123000D01*
X43543000Y-34123000D01*
X43543000Y-31523750D01*
X43797000Y-31523750D01*
X43797000Y-34123000D01*
X46396250Y-34123000D01*
X46555000Y-33964250D01*
X46558072Y-32000000D01*
X46545812Y-31875518D01*
X46509502Y-31755820D01*
X46450537Y-31645506D01*
X46371185Y-31548815D01*
X46274494Y-31469463D01*
X46164180Y-31410498D01*
X46044482Y-31374188D01*
X45920000Y-31361928D01*
X43955750Y-31365000D01*
X43797000Y-31523750D01*
X43543000Y-31523750D01*
X43384250Y-31365000D01*
X41420000Y-31361928D01*
X41295518Y-31374188D01*
X41175820Y-31410498D01*
X41065506Y-31469463D01*
X40968815Y-31548815D01*
X40889463Y-31645506D01*
X40830498Y-31755820D01*
X40794188Y-31875518D01*
X40781928Y-32000000D01*
X34620006Y-32000000D01*
X34770926Y-31849080D01*
X35086654Y-31376560D01*
X35304131Y-30851523D01*
X35415000Y-30294148D01*
X35415000Y-29725852D01*
X35304131Y-29168477D01*
X35086654Y-28643440D01*
X34770926Y-28170920D01*
X34369080Y-27769074D01*
X33896560Y-27453346D01*
X33371523Y-27235869D01*
X33290000Y-27219653D01*
X33290000Y-26725852D01*
X42445000Y-26725852D01*
X42445000Y-27294148D01*
X42555869Y-27851523D01*
X42773346Y-28376560D01*
X43089074Y-28849080D01*
X43490920Y-29250926D01*
X43963440Y-29566654D01*
X44488477Y-29784131D01*
X45045852Y-29895000D01*
X45614148Y-29895000D01*
X46171523Y-29784131D01*
X46696560Y-29566654D01*
X47169080Y-29250926D01*
X47570926Y-28849080D01*
X47886654Y-28376560D01*
X48104131Y-27851523D01*
X48215000Y-27294148D01*
X48215000Y-26725852D01*
X48104131Y-26168477D01*
X47886654Y-25643440D01*
X47570926Y-25170920D01*
X47169080Y-24769074D01*
X46696560Y-24453346D01*
X46171523Y-24235869D01*
X45614148Y-24125000D01*
X45045852Y-24125000D01*
X44488477Y-24235869D01*
X43963440Y-24453346D01*
X43490920Y-24769074D01*
X43089074Y-25170920D01*
X42773346Y-25643440D01*
X42555869Y-26168477D01*
X42445000Y-26725852D01*
X33290000Y-26725852D01*
X33290000Y-22825852D01*
X36545000Y-22825852D01*
X36545000Y-23394148D01*
X36655869Y-23951523D01*
X36873346Y-24476560D01*
X37189074Y-24949080D01*
X37590920Y-25350926D01*
X38063440Y-25666654D01*
X38588477Y-25884131D01*
X39145852Y-25995000D01*
X39714148Y-25995000D01*
X40271523Y-25884131D01*
X40796560Y-25666654D01*
X41269080Y-25350926D01*
X41670926Y-24949080D01*
X41986654Y-24476560D01*
X42204131Y-23951523D01*
X42315000Y-23394148D01*
X42315000Y-22825852D01*
X42204131Y-22268477D01*
X41986654Y-21743440D01*
X41670926Y-21270920D01*
X41269080Y-20869074D01*
X40796560Y-20553346D01*
X40271523Y-20335869D01*
X39714148Y-20225000D01*
X39145852Y-20225000D01*
X38588477Y-20335869D01*
X38063440Y-20553346D01*
X37590920Y-20869074D01*
X37189074Y-21270920D01*
X36873346Y-21743440D01*
X36655869Y-22268477D01*
X36545000Y-22825852D01*
X33290000Y-22825852D01*
X33290000Y-21884801D01*
X39994802Y-15180000D01*
X65845199Y-15180000D01*
X67060199Y-16395000D01*
X66933740Y-16395000D01*
X66646842Y-16452068D01*
X66376589Y-16564010D01*
X66133368Y-16726525D01*
X65926525Y-16933368D01*
X65810000Y-17107760D01*
X65693475Y-16933368D01*
X65486632Y-16726525D01*
X65243411Y-16564010D01*
X64973158Y-16452068D01*
X64686260Y-16395000D01*
X64393740Y-16395000D01*
X64106842Y-16452068D01*
X63836589Y-16564010D01*
X63593368Y-16726525D01*
X63386525Y-16933368D01*
X63270000Y-17107760D01*
X63153475Y-16933368D01*
X62946632Y-16726525D01*
X62703411Y-16564010D01*
X62433158Y-16452068D01*
X62146260Y-16395000D01*
X61853740Y-16395000D01*
X61566842Y-16452068D01*
X61296589Y-16564010D01*
X61053368Y-16726525D01*
X60846525Y-16933368D01*
X60730000Y-17107760D01*
X60613475Y-16933368D01*
X60406632Y-16726525D01*
X60163411Y-16564010D01*
X59893158Y-16452068D01*
X59606260Y-16395000D01*
X59313740Y-16395000D01*
X59026842Y-16452068D01*
X58756589Y-16564010D01*
X58513368Y-16726525D01*
X58306525Y-16933368D01*
X58190000Y-17107760D01*
X58073475Y-16933368D01*
X57866632Y-16726525D01*
X57623411Y-16564010D01*
X57353158Y-16452068D01*
X57066260Y-16395000D01*
X56773740Y-16395000D01*
X56486842Y-16452068D01*
X56216589Y-16564010D01*
X55973368Y-16726525D01*
X55766525Y-16933368D01*
X55650000Y-17107760D01*
X55533475Y-16933368D01*
X55326632Y-16726525D01*
X55083411Y-16564010D01*
X54813158Y-16452068D01*
X54526260Y-16395000D01*
X54233740Y-16395000D01*
X53946842Y-16452068D01*
X53676589Y-16564010D01*
X53433368Y-16726525D01*
X53226525Y-16933368D01*
X53110000Y-17107760D01*
X52993475Y-16933368D01*
X52786632Y-16726525D01*
X52543411Y-16564010D01*
X52273158Y-16452068D01*
X51986260Y-16395000D01*
X51693740Y-16395000D01*
X51406842Y-16452068D01*
X51136589Y-16564010D01*
X50893368Y-16726525D01*
X50761513Y-16858380D01*
X50739502Y-16785820D01*
X50680537Y-16675506D01*
X50601185Y-16578815D01*
X50504494Y-16499463D01*
X50394180Y-16440498D01*
X50274482Y-16404188D01*
X50150000Y-16391928D01*
X48450000Y-16391928D01*
X48325518Y-16404188D01*
X48205820Y-16440498D01*
X48095506Y-16499463D01*
X47998815Y-16578815D01*
X47919463Y-16675506D01*
X47860498Y-16785820D01*
X47824188Y-16905518D01*
X47811928Y-17030000D01*
X47811928Y-18730000D01*
X47824188Y-18854482D01*
X47860498Y-18974180D01*
X47919463Y-19084494D01*
X47998815Y-19181185D01*
X48095506Y-19260537D01*
X48205820Y-19319502D01*
X48325518Y-19355812D01*
X48450000Y-19368072D01*
X48540001Y-19368072D01*
X48540000Y-32598787D01*
X46555075Y-34583713D01*
X46555000Y-34535750D01*
X46396250Y-34377000D01*
X43797000Y-34377000D01*
X43797000Y-36976250D01*
X43955750Y-37135000D01*
X44752541Y-37136246D01*
X35448788Y-46440000D01*
X34670006Y-46440000D01*
X35070926Y-46039080D01*
X35386654Y-45566560D01*
X35604131Y-45041523D01*
X35715000Y-44484148D01*
X35715000Y-43915852D01*
X35604131Y-43358477D01*
X35386654Y-42833440D01*
X35070926Y-42360920D01*
X34669080Y-41959074D01*
X34196560Y-41643346D01*
X33671523Y-41425869D01*
X33114148Y-41315000D01*
X32545852Y-41315000D01*
X31988477Y-41425869D01*
X31463440Y-41643346D01*
X30990920Y-41959074D01*
X30589074Y-42360920D01*
X30273346Y-42833440D01*
X30055869Y-43358477D01*
X29945000Y-43915852D01*
X29945000Y-44484148D01*
X30055869Y-45041523D01*
X30273346Y-45566560D01*
X30589074Y-46039080D01*
X30989994Y-46440000D01*
X22820347Y-46440000D01*
X22804131Y-46358477D01*
X22586654Y-45833440D01*
X22270926Y-45360920D01*
X21869080Y-44959074D01*
X21396560Y-44643346D01*
X20871523Y-44425869D01*
X20314148Y-44315000D01*
X19745852Y-44315000D01*
X19188477Y-44425869D01*
X18663440Y-44643346D01*
X18190920Y-44959074D01*
X17789074Y-45360920D01*
X17473346Y-45833440D01*
X17255869Y-46358477D01*
X17145000Y-46915852D01*
X17145000Y-47484148D01*
X17255869Y-48041523D01*
X17473346Y-48566560D01*
X17789074Y-49039080D01*
X18190920Y-49440926D01*
X18663440Y-49756654D01*
X19188477Y-49974131D01*
X19745852Y-50085000D01*
X20314148Y-50085000D01*
X20871523Y-49974131D01*
X21396560Y-49756654D01*
X21869080Y-49440926D01*
X22120006Y-49190000D01*
X28281928Y-49190000D01*
X28285000Y-51154250D01*
X28443750Y-51313000D01*
X31043000Y-51313000D01*
X31043000Y-48713750D01*
X31297000Y-48713750D01*
X31297000Y-51313000D01*
X33896250Y-51313000D01*
X34055000Y-51154250D01*
X34058072Y-49190000D01*
X34045812Y-49065518D01*
X34009502Y-48945820D01*
X33950537Y-48835506D01*
X33871185Y-48738815D01*
X33774494Y-48659463D01*
X33664180Y-48600498D01*
X33544482Y-48564188D01*
X33420000Y-48551928D01*
X31455750Y-48555000D01*
X31297000Y-48713750D01*
X31043000Y-48713750D01*
X30884250Y-48555000D01*
X28920000Y-48551928D01*
X28795518Y-48564188D01*
X28675820Y-48600498D01*
X28565506Y-48659463D01*
X28468815Y-48738815D01*
X28389463Y-48835506D01*
X28330498Y-48945820D01*
X28294188Y-49065518D01*
X28281928Y-49190000D01*
X22120006Y-49190000D01*
X22270926Y-49039080D01*
X22586654Y-48566560D01*
X22804131Y-48041523D01*
X22820347Y-47960000D01*
X35726267Y-47960000D01*
X35763589Y-47963676D01*
X35800911Y-47960000D01*
X35800922Y-47960000D01*
X35912575Y-47949003D01*
X36055836Y-47905546D01*
X36187865Y-47834974D01*
X36303590Y-47740001D01*
X36327393Y-47710997D01*
X46770993Y-37267398D01*
X46799990Y-37243601D01*
X46894963Y-37127876D01*
X46965535Y-36995847D01*
X47008992Y-36852586D01*
X47019989Y-36740933D01*
X47019989Y-36740924D01*
X47023665Y-36703601D01*
X47019989Y-36666278D01*
X47019989Y-36268401D01*
X49811004Y-33477387D01*
X49840001Y-33453590D01*
X49934974Y-33337865D01*
X50005546Y-33205836D01*
X50049003Y-33062575D01*
X50060000Y-32950922D01*
X50060000Y-32950914D01*
X50063676Y-32913589D01*
X50060000Y-32876264D01*
X50060000Y-19368072D01*
X50150000Y-19368072D01*
X50274482Y-19355812D01*
X50394180Y-19319502D01*
X50504494Y-19260537D01*
X50601185Y-19181185D01*
X50680537Y-19084494D01*
X50739502Y-18974180D01*
X50761513Y-18901620D01*
X50893368Y-19033475D01*
X51080001Y-19158179D01*
X51080000Y-35540201D01*
X34056311Y-52563891D01*
X34055000Y-51725750D01*
X33896250Y-51567000D01*
X31297000Y-51567000D01*
X31297000Y-54166250D01*
X31455750Y-54325000D01*
X32293891Y-54326311D01*
X19518998Y-67101205D01*
X19490000Y-67125003D01*
X19466202Y-67154001D01*
X19466201Y-67154002D01*
X19395026Y-67240728D01*
X19324454Y-67372758D01*
X19294180Y-67472562D01*
X19280998Y-67516018D01*
X19274356Y-67583452D01*
X19266324Y-67665004D01*
X19270001Y-67702336D01*
X19270001Y-69399653D01*
X19188477Y-69415869D01*
X18663440Y-69633346D01*
X18190920Y-69949074D01*
X17789074Y-70350920D01*
X17473346Y-70823440D01*
X17255869Y-71348477D01*
X17145000Y-71905852D01*
X17145000Y-72474148D01*
X17255869Y-73031523D01*
X17473346Y-73556560D01*
X17789074Y-74029080D01*
X18190920Y-74430926D01*
X18663440Y-74746654D01*
X19188477Y-74964131D01*
X19745852Y-75075000D01*
X20314148Y-75075000D01*
X20871523Y-74964131D01*
X21396560Y-74746654D01*
X21869080Y-74430926D01*
X22120006Y-74180000D01*
X28281928Y-74180000D01*
X28285000Y-76144250D01*
X28443750Y-76303000D01*
X31043000Y-76303000D01*
X31043000Y-73703750D01*
X31297000Y-73703750D01*
X31297000Y-76303000D01*
X33896250Y-76303000D01*
X34055000Y-76144250D01*
X34058072Y-74180000D01*
X34045812Y-74055518D01*
X34009502Y-73935820D01*
X33950537Y-73825506D01*
X33871185Y-73728815D01*
X33774494Y-73649463D01*
X33664180Y-73590498D01*
X33544482Y-73554188D01*
X33420000Y-73541928D01*
X31455750Y-73545000D01*
X31297000Y-73703750D01*
X31043000Y-73703750D01*
X30884250Y-73545000D01*
X28920000Y-73541928D01*
X28795518Y-73554188D01*
X28675820Y-73590498D01*
X28565506Y-73649463D01*
X28468815Y-73728815D01*
X28389463Y-73825506D01*
X28330498Y-73935820D01*
X28294188Y-74055518D01*
X28281928Y-74180000D01*
X22120006Y-74180000D01*
X22270926Y-74029080D01*
X22586654Y-73556560D01*
X22804131Y-73031523D01*
X22915000Y-72474148D01*
X22915000Y-71905852D01*
X22804131Y-71348477D01*
X22586654Y-70823440D01*
X22270926Y-70350920D01*
X21869080Y-69949074D01*
X21396560Y-69633346D01*
X20871523Y-69415869D01*
X20790000Y-69399653D01*
X20790000Y-68905852D01*
X29945000Y-68905852D01*
X29945000Y-69474148D01*
X30055869Y-70031523D01*
X30273346Y-70556560D01*
X30589074Y-71029080D01*
X30990920Y-71430926D01*
X31463440Y-71746654D01*
X31988477Y-71964131D01*
X32545852Y-72075000D01*
X33114148Y-72075000D01*
X33671523Y-71964131D01*
X34196560Y-71746654D01*
X34669080Y-71430926D01*
X35070926Y-71029080D01*
X35386654Y-70556560D01*
X35604131Y-70031523D01*
X35715000Y-69474148D01*
X35715000Y-68905852D01*
X35604131Y-68348477D01*
X35386654Y-67823440D01*
X35070926Y-67350920D01*
X34669080Y-66949074D01*
X34196560Y-66633346D01*
X33671523Y-66415869D01*
X33114148Y-66305000D01*
X32545852Y-66305000D01*
X31988477Y-66415869D01*
X31463440Y-66633346D01*
X30990920Y-66949074D01*
X30589074Y-67350920D01*
X30273346Y-67823440D01*
X30055869Y-68348477D01*
X29945000Y-68905852D01*
X20790000Y-68905852D01*
X20790000Y-67979805D01*
X24114785Y-64655020D01*
X24045000Y-65005852D01*
X24045000Y-65574148D01*
X24155869Y-66131523D01*
X24373346Y-66656560D01*
X24689074Y-67129080D01*
X25090920Y-67530926D01*
X25563440Y-67846654D01*
X26088477Y-68064131D01*
X26645852Y-68175000D01*
X27214148Y-68175000D01*
X27771523Y-68064131D01*
X28296560Y-67846654D01*
X28769080Y-67530926D01*
X29170926Y-67129080D01*
X29486654Y-66656560D01*
X29704131Y-66131523D01*
X29815000Y-65574148D01*
X29815000Y-65005852D01*
X29704131Y-64448477D01*
X29486654Y-63923440D01*
X29170926Y-63450920D01*
X28769080Y-63049074D01*
X28296560Y-62733346D01*
X27771523Y-62515869D01*
X27214148Y-62405000D01*
X26645852Y-62405000D01*
X26295020Y-62474785D01*
X35953954Y-52815852D01*
X46025000Y-52815852D01*
X46025000Y-53384148D01*
X46135869Y-53941523D01*
X46353346Y-54466560D01*
X46669074Y-54939080D01*
X47070920Y-55340926D01*
X47543440Y-55656654D01*
X48068477Y-55874131D01*
X48625852Y-55985000D01*
X49194148Y-55985000D01*
X49751523Y-55874131D01*
X50276560Y-55656654D01*
X50749080Y-55340926D01*
X51150926Y-54939080D01*
X51466654Y-54466560D01*
X51684131Y-53941523D01*
X51734162Y-53690000D01*
X53261928Y-53690000D01*
X53274188Y-53814482D01*
X53310498Y-53934180D01*
X53369463Y-54044494D01*
X53448815Y-54141185D01*
X53545506Y-54220537D01*
X53655820Y-54279502D01*
X53775518Y-54315812D01*
X53900000Y-54328072D01*
X55864250Y-54325000D01*
X56023000Y-54166250D01*
X56023000Y-51567000D01*
X53423750Y-51567000D01*
X53265000Y-51725750D01*
X53261928Y-53690000D01*
X51734162Y-53690000D01*
X51795000Y-53384148D01*
X51795000Y-52815852D01*
X51684131Y-52258477D01*
X51466654Y-51733440D01*
X51150926Y-51260920D01*
X50749080Y-50859074D01*
X50276560Y-50543346D01*
X49751523Y-50325869D01*
X49194148Y-50215000D01*
X48625852Y-50215000D01*
X48068477Y-50325869D01*
X47543440Y-50543346D01*
X47070920Y-50859074D01*
X46669074Y-51260920D01*
X46353346Y-51733440D01*
X46135869Y-52258477D01*
X46025000Y-52815852D01*
X35953954Y-52815852D01*
X42192302Y-46577505D01*
X42125000Y-46915852D01*
X42125000Y-47484148D01*
X42235869Y-48041523D01*
X42453346Y-48566560D01*
X42769074Y-49039080D01*
X43170920Y-49440926D01*
X43643440Y-49756654D01*
X44168477Y-49974131D01*
X44725852Y-50085000D01*
X45294148Y-50085000D01*
X45851523Y-49974131D01*
X46376560Y-49756654D01*
X46849080Y-49440926D01*
X47100006Y-49190000D01*
X53261928Y-49190000D01*
X53265000Y-51154250D01*
X53423750Y-51313000D01*
X56023000Y-51313000D01*
X56023000Y-48713750D01*
X56277000Y-48713750D01*
X56277000Y-51313000D01*
X58876250Y-51313000D01*
X59035000Y-51154250D01*
X59038072Y-49190000D01*
X59025812Y-49065518D01*
X58989502Y-48945820D01*
X58930537Y-48835506D01*
X58851185Y-48738815D01*
X58754494Y-48659463D01*
X58644180Y-48600498D01*
X58524482Y-48564188D01*
X58400000Y-48551928D01*
X56435750Y-48555000D01*
X56277000Y-48713750D01*
X56023000Y-48713750D01*
X55864250Y-48555000D01*
X53900000Y-48551928D01*
X53775518Y-48564188D01*
X53655820Y-48600498D01*
X53545506Y-48659463D01*
X53448815Y-48738815D01*
X53369463Y-48835506D01*
X53310498Y-48945820D01*
X53274188Y-49065518D01*
X53261928Y-49190000D01*
X47100006Y-49190000D01*
X47250926Y-49039080D01*
X47566654Y-48566560D01*
X47784131Y-48041523D01*
X47895000Y-47484148D01*
X47895000Y-46915852D01*
X47784131Y-46358477D01*
X47566654Y-45833440D01*
X47250926Y-45360920D01*
X46849080Y-44959074D01*
X46376560Y-44643346D01*
X45851523Y-44425869D01*
X45770000Y-44409653D01*
X45770000Y-43636216D01*
X49025000Y-40381216D01*
X49025000Y-40584148D01*
X49135869Y-41141523D01*
X49353346Y-41666560D01*
X49669074Y-42139080D01*
X50070920Y-42540926D01*
X50543440Y-42856654D01*
X51068477Y-43074131D01*
X51625852Y-43185000D01*
X52194148Y-43185000D01*
X52751523Y-43074131D01*
X53276560Y-42856654D01*
X53749080Y-42540926D01*
X54150926Y-42139080D01*
X54466654Y-41666560D01*
X54684131Y-41141523D01*
X54795000Y-40584148D01*
X54795000Y-40015852D01*
X54684131Y-39458477D01*
X54466654Y-38933440D01*
X54150926Y-38460920D01*
X53749080Y-38059074D01*
X53276560Y-37743346D01*
X52751523Y-37525869D01*
X52194148Y-37415000D01*
X51991217Y-37415000D01*
X54891004Y-34515213D01*
X54920001Y-34491416D01*
X54946332Y-34459332D01*
X55014974Y-34375692D01*
X55085546Y-34243662D01*
X55085546Y-34243661D01*
X55129003Y-34100401D01*
X55140000Y-33988748D01*
X55140000Y-33988739D01*
X55143676Y-33951416D01*
X55140000Y-33914093D01*
X55140000Y-19158178D01*
X55326632Y-19033475D01*
X55533475Y-18826632D01*
X55650000Y-18652240D01*
X55766525Y-18826632D01*
X55973368Y-19033475D01*
X56216589Y-19195990D01*
X56486842Y-19307932D01*
X56773740Y-19365000D01*
X57066260Y-19365000D01*
X57286408Y-19321210D01*
X59625002Y-21659805D01*
X59625001Y-41942985D01*
X59176560Y-41643346D01*
X58651523Y-41425869D01*
X58094148Y-41315000D01*
X57525852Y-41315000D01*
X56968477Y-41425869D01*
X56443440Y-41643346D01*
X55970920Y-41959074D01*
X55569074Y-42360920D01*
X55253346Y-42833440D01*
X55035869Y-43358477D01*
X54925000Y-43915852D01*
X54925000Y-44484148D01*
X55035869Y-45041523D01*
X55253346Y-45566560D01*
X55569074Y-46039080D01*
X55970920Y-46440926D01*
X56443440Y-46756654D01*
X56968477Y-46974131D01*
X57525852Y-47085000D01*
X58094148Y-47085000D01*
X58651523Y-46974131D01*
X59176560Y-46756654D01*
X59625001Y-46457015D01*
X59625001Y-52699195D01*
X59037441Y-53286755D01*
X59035000Y-51725750D01*
X58876250Y-51567000D01*
X56277000Y-51567000D01*
X56277000Y-54166250D01*
X56435750Y-54325000D01*
X57996755Y-54327441D01*
X44518998Y-67805199D01*
X44490000Y-67828997D01*
X44466202Y-67857995D01*
X44466201Y-67857996D01*
X44395026Y-67944722D01*
X44324454Y-68076752D01*
X44321421Y-68086752D01*
X44280998Y-68220012D01*
X44274203Y-68288998D01*
X44266324Y-68368998D01*
X44270001Y-68406330D01*
X44270001Y-69389653D01*
X44188477Y-69405869D01*
X43663440Y-69623346D01*
X43190920Y-69939074D01*
X42789074Y-70340920D01*
X42473346Y-70813440D01*
X42255869Y-71338477D01*
X42145000Y-71895852D01*
X42145000Y-72464148D01*
X42255869Y-73021523D01*
X42473346Y-73546560D01*
X42789074Y-74019080D01*
X43190920Y-74420926D01*
X43663440Y-74736654D01*
X44188477Y-74954131D01*
X44745852Y-75065000D01*
X45314148Y-75065000D01*
X45871523Y-74954131D01*
X46396560Y-74736654D01*
X46869080Y-74420926D01*
X47120006Y-74170000D01*
X53281928Y-74170000D01*
X53285000Y-76134250D01*
X53443750Y-76293000D01*
X56043000Y-76293000D01*
X56043000Y-73693750D01*
X56297000Y-73693750D01*
X56297000Y-76293000D01*
X58896250Y-76293000D01*
X59055000Y-76134250D01*
X59058072Y-74170000D01*
X59045812Y-74045518D01*
X59009502Y-73925820D01*
X58950537Y-73815506D01*
X58871185Y-73718815D01*
X58774494Y-73639463D01*
X58664180Y-73580498D01*
X58544482Y-73544188D01*
X58420000Y-73531928D01*
X56455750Y-73535000D01*
X56297000Y-73693750D01*
X56043000Y-73693750D01*
X55884250Y-73535000D01*
X53920000Y-73531928D01*
X53795518Y-73544188D01*
X53675820Y-73580498D01*
X53565506Y-73639463D01*
X53468815Y-73718815D01*
X53389463Y-73815506D01*
X53330498Y-73925820D01*
X53294188Y-74045518D01*
X53281928Y-74170000D01*
X47120006Y-74170000D01*
X47270926Y-74019080D01*
X47586654Y-73546560D01*
X47804131Y-73021523D01*
X47915000Y-72464148D01*
X47915000Y-71895852D01*
X47804131Y-71338477D01*
X47586654Y-70813440D01*
X47270926Y-70340920D01*
X46869080Y-69939074D01*
X46396560Y-69623346D01*
X45871523Y-69405869D01*
X45790000Y-69389653D01*
X45790000Y-68895852D01*
X54945000Y-68895852D01*
X54945000Y-69464148D01*
X55055869Y-70021523D01*
X55273346Y-70546560D01*
X55589074Y-71019080D01*
X55990920Y-71420926D01*
X56463440Y-71736654D01*
X56988477Y-71954131D01*
X57545852Y-72065000D01*
X58114148Y-72065000D01*
X58671523Y-71954131D01*
X59196560Y-71736654D01*
X59669080Y-71420926D01*
X60070926Y-71019080D01*
X60386654Y-70546560D01*
X60604131Y-70021523D01*
X60715000Y-69464148D01*
X60715000Y-68895852D01*
X60604131Y-68338477D01*
X60386654Y-67813440D01*
X60070926Y-67340920D01*
X59669080Y-66939074D01*
X59196560Y-66623346D01*
X58671523Y-66405869D01*
X58114148Y-66295000D01*
X57545852Y-66295000D01*
X56988477Y-66405869D01*
X56463440Y-66623346D01*
X55990920Y-66939074D01*
X55589074Y-67340920D01*
X55273346Y-67813440D01*
X55055869Y-68338477D01*
X54945000Y-68895852D01*
X45790000Y-68895852D01*
X45790000Y-68683799D01*
X49045000Y-65428799D01*
X49045000Y-65564148D01*
X49155869Y-66121523D01*
X49373346Y-66646560D01*
X49689074Y-67119080D01*
X50090920Y-67520926D01*
X50563440Y-67836654D01*
X51088477Y-68054131D01*
X51645852Y-68165000D01*
X52214148Y-68165000D01*
X52771523Y-68054131D01*
X53296560Y-67836654D01*
X53769080Y-67520926D01*
X54170926Y-67119080D01*
X54486654Y-66646560D01*
X54704131Y-66121523D01*
X54815000Y-65564148D01*
X54815000Y-64995852D01*
X54704131Y-64438477D01*
X54486654Y-63913440D01*
X54170926Y-63440920D01*
X53769080Y-63039074D01*
X53296560Y-62723346D01*
X52771523Y-62505869D01*
X52214148Y-62395000D01*
X52078799Y-62395000D01*
X60896005Y-53577795D01*
X60925002Y-53553998D01*
X61019975Y-53438273D01*
X61090547Y-53306244D01*
X61134004Y-53162983D01*
X61145001Y-53051330D01*
X61145001Y-53051322D01*
X61148677Y-53013997D01*
X61145001Y-52976672D01*
X61145001Y-52805852D01*
X71045000Y-52805852D01*
X71045000Y-53374148D01*
X71155869Y-53931523D01*
X71373346Y-54456560D01*
X71689074Y-54929080D01*
X72090920Y-55330926D01*
X72563440Y-55646654D01*
X73088477Y-55864131D01*
X73645852Y-55975000D01*
X74214148Y-55975000D01*
X74771523Y-55864131D01*
X75296560Y-55646654D01*
X75769080Y-55330926D01*
X76170926Y-54929080D01*
X76486654Y-54456560D01*
X76704131Y-53931523D01*
X76754162Y-53680000D01*
X78281928Y-53680000D01*
X78294188Y-53804482D01*
X78330498Y-53924180D01*
X78389463Y-54034494D01*
X78468815Y-54131185D01*
X78565506Y-54210537D01*
X78675820Y-54269502D01*
X78795518Y-54305812D01*
X78920000Y-54318072D01*
X80884250Y-54315000D01*
X81043000Y-54156250D01*
X81043000Y-51557000D01*
X78443750Y-51557000D01*
X78285000Y-51715750D01*
X78281928Y-53680000D01*
X76754162Y-53680000D01*
X76815000Y-53374148D01*
X76815000Y-52805852D01*
X76704131Y-52248477D01*
X76486654Y-51723440D01*
X76170926Y-51250920D01*
X75769080Y-50849074D01*
X75296560Y-50533346D01*
X74771523Y-50315869D01*
X74214148Y-50205000D01*
X73645852Y-50205000D01*
X73088477Y-50315869D01*
X72563440Y-50533346D01*
X72090920Y-50849074D01*
X71689074Y-51250920D01*
X71373346Y-51723440D01*
X71155869Y-52248477D01*
X71045000Y-52805852D01*
X61145001Y-52805852D01*
X61145001Y-21382323D01*
X61148677Y-21345000D01*
X61145001Y-21307677D01*
X61145001Y-21307668D01*
X61134004Y-21196015D01*
X61090547Y-21052754D01*
X61019975Y-20920725D01*
X61006812Y-20904686D01*
X60948800Y-20833997D01*
X60948796Y-20833993D01*
X60925002Y-20805000D01*
X60896009Y-20781206D01*
X59479802Y-19365000D01*
X59606260Y-19365000D01*
X59826408Y-19321209D01*
X69270001Y-28764803D01*
X69270000Y-44399653D01*
X69188477Y-44415869D01*
X68663440Y-44633346D01*
X68190920Y-44949074D01*
X67789074Y-45350920D01*
X67473346Y-45823440D01*
X67255869Y-46348477D01*
X67145000Y-46905852D01*
X67145000Y-47474148D01*
X67255869Y-48031523D01*
X67473346Y-48556560D01*
X67789074Y-49029080D01*
X68190920Y-49430926D01*
X68663440Y-49746654D01*
X69188477Y-49964131D01*
X69745852Y-50075000D01*
X70314148Y-50075000D01*
X70871523Y-49964131D01*
X71396560Y-49746654D01*
X71869080Y-49430926D01*
X72120006Y-49180000D01*
X78281928Y-49180000D01*
X78285000Y-51144250D01*
X78443750Y-51303000D01*
X81043000Y-51303000D01*
X81043000Y-48703750D01*
X81297000Y-48703750D01*
X81297000Y-51303000D01*
X83896250Y-51303000D01*
X84055000Y-51144250D01*
X84058072Y-49180000D01*
X84045812Y-49055518D01*
X84009502Y-48935820D01*
X83950537Y-48825506D01*
X83871185Y-48728815D01*
X83774494Y-48649463D01*
X83664180Y-48590498D01*
X83544482Y-48554188D01*
X83420000Y-48541928D01*
X81455750Y-48545000D01*
X81297000Y-48703750D01*
X81043000Y-48703750D01*
X80884250Y-48545000D01*
X78920000Y-48541928D01*
X78795518Y-48554188D01*
X78675820Y-48590498D01*
X78565506Y-48649463D01*
X78468815Y-48728815D01*
X78389463Y-48825506D01*
X78330498Y-48935820D01*
X78294188Y-49055518D01*
X78281928Y-49180000D01*
X72120006Y-49180000D01*
X72270926Y-49029080D01*
X72586654Y-48556560D01*
X72804131Y-48031523D01*
X72915000Y-47474148D01*
X72915000Y-46905852D01*
X72804131Y-46348477D01*
X72586654Y-45823440D01*
X72270926Y-45350920D01*
X71869080Y-44949074D01*
X71396560Y-44633346D01*
X70871523Y-44415869D01*
X70790000Y-44399653D01*
X70790000Y-40005852D01*
X74045000Y-40005852D01*
X74045000Y-40574148D01*
X74155869Y-41131523D01*
X74373346Y-41656560D01*
X74689074Y-42129080D01*
X75090920Y-42530926D01*
X75563440Y-42846654D01*
X76088477Y-43064131D01*
X76645852Y-43175000D01*
X77214148Y-43175000D01*
X77771523Y-43064131D01*
X78296560Y-42846654D01*
X78769080Y-42530926D01*
X79170926Y-42129080D01*
X79486654Y-41656560D01*
X79704131Y-41131523D01*
X79815000Y-40574148D01*
X79815000Y-40005852D01*
X79704131Y-39448477D01*
X79486654Y-38923440D01*
X79170926Y-38450920D01*
X78769080Y-38049074D01*
X78296560Y-37733346D01*
X77771523Y-37515869D01*
X77214148Y-37405000D01*
X76645852Y-37405000D01*
X76088477Y-37515869D01*
X75563440Y-37733346D01*
X75090920Y-38049074D01*
X74689074Y-38450920D01*
X74373346Y-38923440D01*
X74155869Y-39448477D01*
X74045000Y-40005852D01*
X70790000Y-40005852D01*
X70790000Y-28487322D01*
X70793676Y-28449999D01*
X70790000Y-28412676D01*
X70790000Y-28412667D01*
X70779003Y-28301014D01*
X70735546Y-28157753D01*
X70664974Y-28025724D01*
X70570001Y-27909999D01*
X70541003Y-27886201D01*
X62019801Y-19365000D01*
X62146260Y-19365000D01*
X62366408Y-19321209D01*
X84645002Y-41599804D01*
X84645002Y-41932986D01*
X84196560Y-41633346D01*
X83671523Y-41415869D01*
X83114148Y-41305000D01*
X82545852Y-41305000D01*
X81988477Y-41415869D01*
X81463440Y-41633346D01*
X80990920Y-41949074D01*
X80589074Y-42350920D01*
X80273346Y-42823440D01*
X80055869Y-43348477D01*
X79945000Y-43905852D01*
X79945000Y-44474148D01*
X80055869Y-45031523D01*
X80273346Y-45556560D01*
X80589074Y-46029080D01*
X80990920Y-46430926D01*
X81463440Y-46746654D01*
X81988477Y-46964131D01*
X82545852Y-47075000D01*
X83114148Y-47075000D01*
X83671523Y-46964131D01*
X84196560Y-46746654D01*
X84645002Y-46447015D01*
X84645001Y-52609195D01*
X84057316Y-53196880D01*
X84055000Y-51715750D01*
X83896250Y-51557000D01*
X81297000Y-51557000D01*
X81297000Y-54156250D01*
X81455750Y-54315000D01*
X82936880Y-54317316D01*
X69528998Y-67725199D01*
X69500000Y-67748997D01*
X69476202Y-67777995D01*
X69476201Y-67777996D01*
X69405026Y-67864722D01*
X69334454Y-67996752D01*
X69317049Y-68054131D01*
X69290998Y-68140012D01*
X69282253Y-68228803D01*
X69276324Y-68288998D01*
X69280001Y-68326330D01*
X69280001Y-69309653D01*
X69198477Y-69325869D01*
X68673440Y-69543346D01*
X68200920Y-69859074D01*
X67799074Y-70260920D01*
X67483346Y-70733440D01*
X67265869Y-71258477D01*
X67155000Y-71815852D01*
X67155000Y-72384148D01*
X67265869Y-72941523D01*
X67483346Y-73466560D01*
X67799074Y-73939080D01*
X68200920Y-74340926D01*
X68673440Y-74656654D01*
X69198477Y-74874131D01*
X69755852Y-74985000D01*
X70324148Y-74985000D01*
X70881523Y-74874131D01*
X71406560Y-74656654D01*
X71879080Y-74340926D01*
X72130006Y-74090000D01*
X78291928Y-74090000D01*
X78295000Y-76054250D01*
X78453750Y-76213000D01*
X81053000Y-76213000D01*
X81053000Y-73613750D01*
X81307000Y-73613750D01*
X81307000Y-76213000D01*
X83906250Y-76213000D01*
X84065000Y-76054250D01*
X84068072Y-74090000D01*
X84055812Y-73965518D01*
X84019502Y-73845820D01*
X83960537Y-73735506D01*
X83881185Y-73638815D01*
X83784494Y-73559463D01*
X83674180Y-73500498D01*
X83554482Y-73464188D01*
X83430000Y-73451928D01*
X81465750Y-73455000D01*
X81307000Y-73613750D01*
X81053000Y-73613750D01*
X80894250Y-73455000D01*
X78930000Y-73451928D01*
X78805518Y-73464188D01*
X78685820Y-73500498D01*
X78575506Y-73559463D01*
X78478815Y-73638815D01*
X78399463Y-73735506D01*
X78340498Y-73845820D01*
X78304188Y-73965518D01*
X78291928Y-74090000D01*
X72130006Y-74090000D01*
X72280926Y-73939080D01*
X72596654Y-73466560D01*
X72814131Y-72941523D01*
X72925000Y-72384148D01*
X72925000Y-71815852D01*
X72814131Y-71258477D01*
X72596654Y-70733440D01*
X72280926Y-70260920D01*
X71879080Y-69859074D01*
X71406560Y-69543346D01*
X70881523Y-69325869D01*
X70800000Y-69309653D01*
X70800000Y-68815852D01*
X79955000Y-68815852D01*
X79955000Y-69384148D01*
X80065869Y-69941523D01*
X80283346Y-70466560D01*
X80599074Y-70939080D01*
X81000920Y-71340926D01*
X81473440Y-71656654D01*
X81998477Y-71874131D01*
X82555852Y-71985000D01*
X83124148Y-71985000D01*
X83681523Y-71874131D01*
X84206560Y-71656654D01*
X84679080Y-71340926D01*
X85080926Y-70939080D01*
X85396654Y-70466560D01*
X85614131Y-69941523D01*
X85725000Y-69384148D01*
X85725000Y-68815852D01*
X85614131Y-68258477D01*
X85396654Y-67733440D01*
X85080926Y-67260920D01*
X84679080Y-66859074D01*
X84206560Y-66543346D01*
X83681523Y-66325869D01*
X83124148Y-66215000D01*
X82555852Y-66215000D01*
X81998477Y-66325869D01*
X81473440Y-66543346D01*
X81000920Y-66859074D01*
X80599074Y-67260920D01*
X80283346Y-67733440D01*
X80065869Y-68258477D01*
X79955000Y-68815852D01*
X70800000Y-68815852D01*
X70800000Y-68603799D01*
X74055000Y-65348799D01*
X74055000Y-65484148D01*
X74165869Y-66041523D01*
X74383346Y-66566560D01*
X74699074Y-67039080D01*
X75100920Y-67440926D01*
X75573440Y-67756654D01*
X76098477Y-67974131D01*
X76655852Y-68085000D01*
X77224148Y-68085000D01*
X77781523Y-67974131D01*
X78306560Y-67756654D01*
X78779080Y-67440926D01*
X79180926Y-67039080D01*
X79496654Y-66566560D01*
X79714131Y-66041523D01*
X79825000Y-65484148D01*
X79825000Y-64915852D01*
X79714131Y-64358477D01*
X79496654Y-63833440D01*
X79180926Y-63360920D01*
X78779080Y-62959074D01*
X78306560Y-62643346D01*
X77781523Y-62425869D01*
X77224148Y-62315000D01*
X77088799Y-62315000D01*
X85916005Y-53487795D01*
X85945002Y-53463998D01*
X86039975Y-53348273D01*
X86110547Y-53216244D01*
X86154004Y-53072983D01*
X86165001Y-52961330D01*
X86165001Y-52961320D01*
X86168677Y-52923997D01*
X86165001Y-52886674D01*
X86165001Y-52815852D01*
X96055000Y-52815852D01*
X96055000Y-53384148D01*
X96165869Y-53941523D01*
X96383346Y-54466560D01*
X96699074Y-54939080D01*
X97100920Y-55340926D01*
X97573440Y-55656654D01*
X98098477Y-55874131D01*
X98655852Y-55985000D01*
X99224148Y-55985000D01*
X99781523Y-55874131D01*
X100306560Y-55656654D01*
X100779080Y-55340926D01*
X101180926Y-54939080D01*
X101496654Y-54466560D01*
X101714131Y-53941523D01*
X101764162Y-53690000D01*
X103291928Y-53690000D01*
X103304188Y-53814482D01*
X103340498Y-53934180D01*
X103399463Y-54044494D01*
X103478815Y-54141185D01*
X103575506Y-54220537D01*
X103685820Y-54279502D01*
X103805518Y-54315812D01*
X103930000Y-54328072D01*
X105894250Y-54325000D01*
X106053000Y-54166250D01*
X106053000Y-51567000D01*
X103453750Y-51567000D01*
X103295000Y-51725750D01*
X103291928Y-53690000D01*
X101764162Y-53690000D01*
X101825000Y-53384148D01*
X101825000Y-52815852D01*
X101714131Y-52258477D01*
X101496654Y-51733440D01*
X101180926Y-51260920D01*
X100779080Y-50859074D01*
X100306560Y-50543346D01*
X99781523Y-50325869D01*
X99224148Y-50215000D01*
X98655852Y-50215000D01*
X98098477Y-50325869D01*
X97573440Y-50543346D01*
X97100920Y-50859074D01*
X96699074Y-51260920D01*
X96383346Y-51733440D01*
X96165869Y-52258477D01*
X96055000Y-52815852D01*
X86165001Y-52815852D01*
X86165001Y-41322324D01*
X86168677Y-41285001D01*
X86165001Y-41247678D01*
X86165001Y-41247668D01*
X86154004Y-41136015D01*
X86110547Y-40992754D01*
X86039975Y-40860725D01*
X85945002Y-40745000D01*
X85916004Y-40721202D01*
X64559801Y-19365000D01*
X64686260Y-19365000D01*
X64906408Y-19321209D01*
X92212413Y-46627215D01*
X92155000Y-46915852D01*
X92155000Y-47484148D01*
X92265869Y-48041523D01*
X92483346Y-48566560D01*
X92799074Y-49039080D01*
X93200920Y-49440926D01*
X93673440Y-49756654D01*
X94198477Y-49974131D01*
X94755852Y-50085000D01*
X95324148Y-50085000D01*
X95881523Y-49974131D01*
X96406560Y-49756654D01*
X96879080Y-49440926D01*
X97130006Y-49190000D01*
X103291928Y-49190000D01*
X103295000Y-51154250D01*
X103453750Y-51313000D01*
X106053000Y-51313000D01*
X106053000Y-48713750D01*
X106307000Y-48713750D01*
X106307000Y-51313000D01*
X108906250Y-51313000D01*
X109065000Y-51154250D01*
X109068072Y-49190000D01*
X109055812Y-49065518D01*
X109019502Y-48945820D01*
X108960537Y-48835506D01*
X108881185Y-48738815D01*
X108784494Y-48659463D01*
X108674180Y-48600498D01*
X108554482Y-48564188D01*
X108430000Y-48551928D01*
X106465750Y-48555000D01*
X106307000Y-48713750D01*
X106053000Y-48713750D01*
X105894250Y-48555000D01*
X103930000Y-48551928D01*
X103805518Y-48564188D01*
X103685820Y-48600498D01*
X103575506Y-48659463D01*
X103478815Y-48738815D01*
X103399463Y-48835506D01*
X103340498Y-48945820D01*
X103304188Y-49065518D01*
X103291928Y-49190000D01*
X97130006Y-49190000D01*
X97280926Y-49039080D01*
X97596654Y-48566560D01*
X97814131Y-48041523D01*
X97925000Y-47484148D01*
X97925000Y-46915852D01*
X97814131Y-46358477D01*
X97596654Y-45833440D01*
X97280926Y-45360920D01*
X96879080Y-44959074D01*
X96406560Y-44643346D01*
X95881523Y-44425869D01*
X95324148Y-44315000D01*
X94755852Y-44315000D01*
X94198477Y-44425869D01*
X93673440Y-44643346D01*
X93200920Y-44959074D01*
X92947398Y-45212596D01*
X87750654Y-40015852D01*
X99055000Y-40015852D01*
X99055000Y-40584148D01*
X99165869Y-41141523D01*
X99383346Y-41666560D01*
X99699074Y-42139080D01*
X100100920Y-42540926D01*
X100573440Y-42856654D01*
X101098477Y-43074131D01*
X101655852Y-43185000D01*
X102224148Y-43185000D01*
X102781523Y-43074131D01*
X103306560Y-42856654D01*
X103779080Y-42540926D01*
X104180926Y-42139080D01*
X104496654Y-41666560D01*
X104714131Y-41141523D01*
X104825000Y-40584148D01*
X104825000Y-40015852D01*
X104714131Y-39458477D01*
X104496654Y-38933440D01*
X104180926Y-38460920D01*
X103779080Y-38059074D01*
X103306560Y-37743346D01*
X102781523Y-37525869D01*
X102224148Y-37415000D01*
X101655852Y-37415000D01*
X101098477Y-37525869D01*
X100573440Y-37743346D01*
X100100920Y-38059074D01*
X99699074Y-38460920D01*
X99383346Y-38933440D01*
X99165869Y-39458477D01*
X99055000Y-40015852D01*
X87750654Y-40015852D01*
X67099801Y-19365000D01*
X67226260Y-19365000D01*
X67446408Y-19321210D01*
X67691201Y-19566003D01*
X67715000Y-19595002D01*
X67830725Y-19689975D01*
X67962754Y-19760547D01*
X68106015Y-19804004D01*
X68217668Y-19815001D01*
X68217677Y-19815001D01*
X68255000Y-19818677D01*
X68292323Y-19815001D01*
X86191202Y-19815001D01*
X107691200Y-41315000D01*
X107555852Y-41315000D01*
X106998477Y-41425869D01*
X106473440Y-41643346D01*
X106000920Y-41959074D01*
X105599074Y-42360920D01*
X105283346Y-42833440D01*
X105065869Y-43358477D01*
X104955000Y-43915852D01*
X104955000Y-44484148D01*
X105065869Y-45041523D01*
X105283346Y-45566560D01*
X105599074Y-46039080D01*
X106000920Y-46440926D01*
X106473440Y-46756654D01*
X106998477Y-46974131D01*
X107555852Y-47085000D01*
X108124148Y-47085000D01*
X108681523Y-46974131D01*
X109206560Y-46756654D01*
X109655002Y-46457015D01*
X109655001Y-52679195D01*
X109067410Y-53266786D01*
X109065000Y-51725750D01*
X108906250Y-51567000D01*
X106307000Y-51567000D01*
X106307000Y-54166250D01*
X106465750Y-54325000D01*
X108006786Y-54327410D01*
X94518998Y-67815199D01*
X94490000Y-67838997D01*
X94466202Y-67867995D01*
X94466201Y-67867996D01*
X94395026Y-67954722D01*
X94324454Y-68086752D01*
X94308298Y-68140013D01*
X94284032Y-68220012D01*
X94280998Y-68230013D01*
X94266324Y-68378998D01*
X94270001Y-68416330D01*
X94270001Y-69399653D01*
X94188477Y-69415869D01*
X93663440Y-69633346D01*
X93190920Y-69949074D01*
X92789074Y-70350920D01*
X92473346Y-70823440D01*
X92255869Y-71348477D01*
X92145000Y-71905852D01*
X92145000Y-72474148D01*
X92255869Y-73031523D01*
X92473346Y-73556560D01*
X92789074Y-74029080D01*
X93190920Y-74430926D01*
X93663440Y-74746654D01*
X94188477Y-74964131D01*
X94745852Y-75075000D01*
X95314148Y-75075000D01*
X95871523Y-74964131D01*
X96396560Y-74746654D01*
X96869080Y-74430926D01*
X97120006Y-74180000D01*
X103281928Y-74180000D01*
X103285000Y-76144250D01*
X103443750Y-76303000D01*
X106043000Y-76303000D01*
X106043000Y-73703750D01*
X106297000Y-73703750D01*
X106297000Y-76303000D01*
X108896250Y-76303000D01*
X109055000Y-76144250D01*
X109058072Y-74180000D01*
X109045812Y-74055518D01*
X109009502Y-73935820D01*
X108950537Y-73825506D01*
X108871185Y-73728815D01*
X108774494Y-73649463D01*
X108664180Y-73590498D01*
X108544482Y-73554188D01*
X108420000Y-73541928D01*
X106455750Y-73545000D01*
X106297000Y-73703750D01*
X106043000Y-73703750D01*
X105884250Y-73545000D01*
X103920000Y-73541928D01*
X103795518Y-73554188D01*
X103675820Y-73590498D01*
X103565506Y-73649463D01*
X103468815Y-73728815D01*
X103389463Y-73825506D01*
X103330498Y-73935820D01*
X103294188Y-74055518D01*
X103281928Y-74180000D01*
X97120006Y-74180000D01*
X97270926Y-74029080D01*
X97586654Y-73556560D01*
X97804131Y-73031523D01*
X97915000Y-72474148D01*
X97915000Y-71905852D01*
X97804131Y-71348477D01*
X97586654Y-70823440D01*
X97270926Y-70350920D01*
X96869080Y-69949074D01*
X96396560Y-69633346D01*
X95871523Y-69415869D01*
X95790000Y-69399653D01*
X95790000Y-68905852D01*
X104945000Y-68905852D01*
X104945000Y-69474148D01*
X105055869Y-70031523D01*
X105273346Y-70556560D01*
X105589074Y-71029080D01*
X105990920Y-71430926D01*
X106463440Y-71746654D01*
X106988477Y-71964131D01*
X107545852Y-72075000D01*
X108114148Y-72075000D01*
X108671523Y-71964131D01*
X109196560Y-71746654D01*
X109669080Y-71430926D01*
X110070926Y-71029080D01*
X110386654Y-70556560D01*
X110604131Y-70031523D01*
X110715000Y-69474148D01*
X110715000Y-68905852D01*
X110604131Y-68348477D01*
X110386654Y-67823440D01*
X110070926Y-67350920D01*
X109669080Y-66949074D01*
X109196560Y-66633346D01*
X108671523Y-66415869D01*
X108114148Y-66305000D01*
X107545852Y-66305000D01*
X106988477Y-66415869D01*
X106463440Y-66633346D01*
X105990920Y-66949074D01*
X105589074Y-67350920D01*
X105273346Y-67823440D01*
X105055869Y-68348477D01*
X104945000Y-68905852D01*
X95790000Y-68905852D01*
X95790000Y-68693799D01*
X99045000Y-65438799D01*
X99045000Y-65574148D01*
X99155869Y-66131523D01*
X99373346Y-66656560D01*
X99689074Y-67129080D01*
X100090920Y-67530926D01*
X100563440Y-67846654D01*
X101088477Y-68064131D01*
X101645852Y-68175000D01*
X102214148Y-68175000D01*
X102771523Y-68064131D01*
X103296560Y-67846654D01*
X103769080Y-67530926D01*
X104170926Y-67129080D01*
X104486654Y-66656560D01*
X104704131Y-66131523D01*
X104815000Y-65574148D01*
X104815000Y-65005852D01*
X104704131Y-64448477D01*
X104486654Y-63923440D01*
X104170926Y-63450920D01*
X103769080Y-63049074D01*
X103296560Y-62733346D01*
X102771523Y-62515869D01*
X102214148Y-62405000D01*
X102078799Y-62405000D01*
X110926005Y-53557795D01*
X110955002Y-53533998D01*
X110981333Y-53501914D01*
X111049975Y-53418274D01*
X111120547Y-53286244D01*
X111157937Y-53162982D01*
X111164004Y-53142983D01*
X111175001Y-53031330D01*
X111175001Y-53031321D01*
X111178677Y-52993998D01*
X111175001Y-52956675D01*
X111175001Y-43001321D01*
X111178677Y-42963998D01*
X111175001Y-42926675D01*
X111175001Y-42926666D01*
X111164004Y-42815013D01*
X111120547Y-42671752D01*
X111049975Y-42539723D01*
X110955002Y-42423998D01*
X110926004Y-42400200D01*
X87069807Y-18544004D01*
X87046004Y-18515000D01*
X86930279Y-18420027D01*
X86798250Y-18349455D01*
X86654989Y-18305998D01*
X86543336Y-18295001D01*
X86543325Y-18295001D01*
X86506003Y-18291325D01*
X86468681Y-18295001D01*
X78660868Y-18295001D01*
X78681481Y-18236891D01*
X78560814Y-18007000D01*
X77367000Y-18007000D01*
X77367000Y-18027000D01*
X77113000Y-18027000D01*
X77113000Y-18007000D01*
X77093000Y-18007000D01*
X77093000Y-17753000D01*
X77113000Y-17753000D01*
X77113000Y-16559845D01*
X77367000Y-16559845D01*
X77367000Y-17753000D01*
X78560814Y-17753000D01*
X78681481Y-17523109D01*
X78584157Y-17248748D01*
X78435178Y-16998645D01*
X78240269Y-16782412D01*
X78006920Y-16608359D01*
X77744099Y-16483175D01*
X77596890Y-16438524D01*
X77367000Y-16559845D01*
X77113000Y-16559845D01*
X76883110Y-16438524D01*
X76735901Y-16483175D01*
X76473080Y-16608359D01*
X76239731Y-16782412D01*
X76044822Y-16998645D01*
X75975195Y-17115534D01*
X75853475Y-16933368D01*
X75646632Y-16726525D01*
X75403411Y-16564010D01*
X75133158Y-16452068D01*
X74846260Y-16395000D01*
X74553740Y-16395000D01*
X74266842Y-16452068D01*
X73996589Y-16564010D01*
X73753368Y-16726525D01*
X73546525Y-16933368D01*
X73430000Y-17107760D01*
X73313475Y-16933368D01*
X73106632Y-16726525D01*
X72863411Y-16564010D01*
X72593158Y-16452068D01*
X72306260Y-16395000D01*
X72013740Y-16395000D01*
X71726842Y-16452068D01*
X71456589Y-16564010D01*
X71213368Y-16726525D01*
X71006525Y-16933368D01*
X70890000Y-17107760D01*
X70773475Y-16933368D01*
X70566632Y-16726525D01*
X70323411Y-16564010D01*
X70053158Y-16452068D01*
X69766260Y-16395000D01*
X69473740Y-16395000D01*
X69253592Y-16438790D01*
X67184801Y-14370000D01*
X111260000Y-14370000D01*
X111260001Y-82110000D01*
X16580478Y-82110000D01*
X16583594Y-77805852D01*
X21045000Y-77805852D01*
X21045000Y-78374148D01*
X21155869Y-78931523D01*
X21373346Y-79456560D01*
X21689074Y-79929080D01*
X22090920Y-80330926D01*
X22563440Y-80646654D01*
X23088477Y-80864131D01*
X23645852Y-80975000D01*
X24214148Y-80975000D01*
X24771523Y-80864131D01*
X25296560Y-80646654D01*
X25769080Y-80330926D01*
X26170926Y-79929080D01*
X26486654Y-79456560D01*
X26704131Y-78931523D01*
X26754162Y-78680000D01*
X28281928Y-78680000D01*
X28294188Y-78804482D01*
X28330498Y-78924180D01*
X28389463Y-79034494D01*
X28468815Y-79131185D01*
X28565506Y-79210537D01*
X28675820Y-79269502D01*
X28795518Y-79305812D01*
X28920000Y-79318072D01*
X30884250Y-79315000D01*
X31043000Y-79156250D01*
X31043000Y-76557000D01*
X31297000Y-76557000D01*
X31297000Y-79156250D01*
X31455750Y-79315000D01*
X33420000Y-79318072D01*
X33544482Y-79305812D01*
X33664180Y-79269502D01*
X33774494Y-79210537D01*
X33871185Y-79131185D01*
X33950537Y-79034494D01*
X34009502Y-78924180D01*
X34045812Y-78804482D01*
X34058072Y-78680000D01*
X34056690Y-77795852D01*
X46045000Y-77795852D01*
X46045000Y-78364148D01*
X46155869Y-78921523D01*
X46373346Y-79446560D01*
X46689074Y-79919080D01*
X47090920Y-80320926D01*
X47563440Y-80636654D01*
X48088477Y-80854131D01*
X48645852Y-80965000D01*
X49214148Y-80965000D01*
X49771523Y-80854131D01*
X50296560Y-80636654D01*
X50769080Y-80320926D01*
X51170926Y-79919080D01*
X51486654Y-79446560D01*
X51704131Y-78921523D01*
X51754162Y-78670000D01*
X53281928Y-78670000D01*
X53294188Y-78794482D01*
X53330498Y-78914180D01*
X53389463Y-79024494D01*
X53468815Y-79121185D01*
X53565506Y-79200537D01*
X53675820Y-79259502D01*
X53795518Y-79295812D01*
X53920000Y-79308072D01*
X55884250Y-79305000D01*
X56043000Y-79146250D01*
X56043000Y-76547000D01*
X56297000Y-76547000D01*
X56297000Y-79146250D01*
X56455750Y-79305000D01*
X58420000Y-79308072D01*
X58544482Y-79295812D01*
X58664180Y-79259502D01*
X58774494Y-79200537D01*
X58871185Y-79121185D01*
X58950537Y-79024494D01*
X59009502Y-78914180D01*
X59045812Y-78794482D01*
X59058072Y-78670000D01*
X59056580Y-77715852D01*
X71055000Y-77715852D01*
X71055000Y-78284148D01*
X71165869Y-78841523D01*
X71383346Y-79366560D01*
X71699074Y-79839080D01*
X72100920Y-80240926D01*
X72573440Y-80556654D01*
X73098477Y-80774131D01*
X73655852Y-80885000D01*
X74224148Y-80885000D01*
X74781523Y-80774131D01*
X75306560Y-80556654D01*
X75779080Y-80240926D01*
X76180926Y-79839080D01*
X76496654Y-79366560D01*
X76714131Y-78841523D01*
X76764162Y-78590000D01*
X78291928Y-78590000D01*
X78304188Y-78714482D01*
X78340498Y-78834180D01*
X78399463Y-78944494D01*
X78478815Y-79041185D01*
X78575506Y-79120537D01*
X78685820Y-79179502D01*
X78805518Y-79215812D01*
X78930000Y-79228072D01*
X80894250Y-79225000D01*
X81053000Y-79066250D01*
X81053000Y-76467000D01*
X81307000Y-76467000D01*
X81307000Y-79066250D01*
X81465750Y-79225000D01*
X83430000Y-79228072D01*
X83554482Y-79215812D01*
X83674180Y-79179502D01*
X83784494Y-79120537D01*
X83881185Y-79041185D01*
X83960537Y-78944494D01*
X84019502Y-78834180D01*
X84055812Y-78714482D01*
X84068072Y-78590000D01*
X84066846Y-77805852D01*
X96045000Y-77805852D01*
X96045000Y-78374148D01*
X96155869Y-78931523D01*
X96373346Y-79456560D01*
X96689074Y-79929080D01*
X97090920Y-80330926D01*
X97563440Y-80646654D01*
X98088477Y-80864131D01*
X98645852Y-80975000D01*
X99214148Y-80975000D01*
X99771523Y-80864131D01*
X100296560Y-80646654D01*
X100769080Y-80330926D01*
X101170926Y-79929080D01*
X101486654Y-79456560D01*
X101704131Y-78931523D01*
X101754162Y-78680000D01*
X103281928Y-78680000D01*
X103294188Y-78804482D01*
X103330498Y-78924180D01*
X103389463Y-79034494D01*
X103468815Y-79131185D01*
X103565506Y-79210537D01*
X103675820Y-79269502D01*
X103795518Y-79305812D01*
X103920000Y-79318072D01*
X105884250Y-79315000D01*
X106043000Y-79156250D01*
X106043000Y-76557000D01*
X106297000Y-76557000D01*
X106297000Y-79156250D01*
X106455750Y-79315000D01*
X108420000Y-79318072D01*
X108544482Y-79305812D01*
X108664180Y-79269502D01*
X108774494Y-79210537D01*
X108871185Y-79131185D01*
X108950537Y-79034494D01*
X109009502Y-78924180D01*
X109045812Y-78804482D01*
X109058072Y-78680000D01*
X109055000Y-76715750D01*
X108896250Y-76557000D01*
X106297000Y-76557000D01*
X106043000Y-76557000D01*
X103443750Y-76557000D01*
X103285000Y-76715750D01*
X103281928Y-78680000D01*
X101754162Y-78680000D01*
X101815000Y-78374148D01*
X101815000Y-77805852D01*
X101704131Y-77248477D01*
X101486654Y-76723440D01*
X101170926Y-76250920D01*
X100769080Y-75849074D01*
X100296560Y-75533346D01*
X99771523Y-75315869D01*
X99214148Y-75205000D01*
X98645852Y-75205000D01*
X98088477Y-75315869D01*
X97563440Y-75533346D01*
X97090920Y-75849074D01*
X96689074Y-76250920D01*
X96373346Y-76723440D01*
X96155869Y-77248477D01*
X96045000Y-77805852D01*
X84066846Y-77805852D01*
X84065000Y-76625750D01*
X83906250Y-76467000D01*
X81307000Y-76467000D01*
X81053000Y-76467000D01*
X78453750Y-76467000D01*
X78295000Y-76625750D01*
X78291928Y-78590000D01*
X76764162Y-78590000D01*
X76825000Y-78284148D01*
X76825000Y-77715852D01*
X76714131Y-77158477D01*
X76496654Y-76633440D01*
X76180926Y-76160920D01*
X75779080Y-75759074D01*
X75306560Y-75443346D01*
X74781523Y-75225869D01*
X74224148Y-75115000D01*
X73655852Y-75115000D01*
X73098477Y-75225869D01*
X72573440Y-75443346D01*
X72100920Y-75759074D01*
X71699074Y-76160920D01*
X71383346Y-76633440D01*
X71165869Y-77158477D01*
X71055000Y-77715852D01*
X59056580Y-77715852D01*
X59055000Y-76705750D01*
X58896250Y-76547000D01*
X56297000Y-76547000D01*
X56043000Y-76547000D01*
X53443750Y-76547000D01*
X53285000Y-76705750D01*
X53281928Y-78670000D01*
X51754162Y-78670000D01*
X51815000Y-78364148D01*
X51815000Y-77795852D01*
X51704131Y-77238477D01*
X51486654Y-76713440D01*
X51170926Y-76240920D01*
X50769080Y-75839074D01*
X50296560Y-75523346D01*
X49771523Y-75305869D01*
X49214148Y-75195000D01*
X48645852Y-75195000D01*
X48088477Y-75305869D01*
X47563440Y-75523346D01*
X47090920Y-75839074D01*
X46689074Y-76240920D01*
X46373346Y-76713440D01*
X46155869Y-77238477D01*
X46045000Y-77795852D01*
X34056690Y-77795852D01*
X34055000Y-76715750D01*
X33896250Y-76557000D01*
X31297000Y-76557000D01*
X31043000Y-76557000D01*
X28443750Y-76557000D01*
X28285000Y-76715750D01*
X28281928Y-78680000D01*
X26754162Y-78680000D01*
X26815000Y-78374148D01*
X26815000Y-77805852D01*
X26704131Y-77248477D01*
X26486654Y-76723440D01*
X26170926Y-76250920D01*
X25769080Y-75849074D01*
X25296560Y-75533346D01*
X24771523Y-75315869D01*
X24214148Y-75205000D01*
X23645852Y-75205000D01*
X23088477Y-75315869D01*
X22563440Y-75533346D01*
X22090920Y-75849074D01*
X21689074Y-76250920D01*
X21373346Y-76723440D01*
X21155869Y-77248477D01*
X21045000Y-77805852D01*
X16583594Y-77805852D01*
X16601686Y-52815852D01*
X21045000Y-52815852D01*
X21045000Y-53384148D01*
X21155869Y-53941523D01*
X21373346Y-54466560D01*
X21689074Y-54939080D01*
X22090920Y-55340926D01*
X22563440Y-55656654D01*
X23088477Y-55874131D01*
X23645852Y-55985000D01*
X24214148Y-55985000D01*
X24771523Y-55874131D01*
X25296560Y-55656654D01*
X25769080Y-55340926D01*
X26170926Y-54939080D01*
X26486654Y-54466560D01*
X26704131Y-53941523D01*
X26754162Y-53690000D01*
X28281928Y-53690000D01*
X28294188Y-53814482D01*
X28330498Y-53934180D01*
X28389463Y-54044494D01*
X28468815Y-54141185D01*
X28565506Y-54220537D01*
X28675820Y-54279502D01*
X28795518Y-54315812D01*
X28920000Y-54328072D01*
X30884250Y-54325000D01*
X31043000Y-54166250D01*
X31043000Y-51567000D01*
X28443750Y-51567000D01*
X28285000Y-51725750D01*
X28281928Y-53690000D01*
X26754162Y-53690000D01*
X26815000Y-53384148D01*
X26815000Y-52815852D01*
X26704131Y-52258477D01*
X26486654Y-51733440D01*
X26170926Y-51260920D01*
X25769080Y-50859074D01*
X25296560Y-50543346D01*
X24771523Y-50325869D01*
X24214148Y-50215000D01*
X23645852Y-50215000D01*
X23088477Y-50325869D01*
X22563440Y-50543346D01*
X22090920Y-50859074D01*
X21689074Y-51260920D01*
X21373346Y-51733440D01*
X21155869Y-52258477D01*
X21045000Y-52815852D01*
X16601686Y-52815852D01*
X16610953Y-40015852D01*
X24045000Y-40015852D01*
X24045000Y-40584148D01*
X24155869Y-41141523D01*
X24373346Y-41666560D01*
X24689074Y-42139080D01*
X25090920Y-42540926D01*
X25563440Y-42856654D01*
X26088477Y-43074131D01*
X26645852Y-43185000D01*
X27214148Y-43185000D01*
X27771523Y-43074131D01*
X28296560Y-42856654D01*
X28769080Y-42540926D01*
X29170926Y-42139080D01*
X29486654Y-41666560D01*
X29704131Y-41141523D01*
X29815000Y-40584148D01*
X29815000Y-40015852D01*
X29704131Y-39458477D01*
X29486654Y-38933440D01*
X29170926Y-38460920D01*
X28769080Y-38059074D01*
X28296560Y-37743346D01*
X27771523Y-37525869D01*
X27214148Y-37415000D01*
X26645852Y-37415000D01*
X26088477Y-37525869D01*
X25563440Y-37743346D01*
X25090920Y-38059074D01*
X24689074Y-38460920D01*
X24373346Y-38933440D01*
X24155869Y-39458477D01*
X24045000Y-40015852D01*
X16610953Y-40015852D01*
X16614131Y-35625852D01*
X33545000Y-35625852D01*
X33545000Y-36194148D01*
X33655869Y-36751523D01*
X33873346Y-37276560D01*
X34189074Y-37749080D01*
X34590920Y-38150926D01*
X35063440Y-38466654D01*
X35588477Y-38684131D01*
X36145852Y-38795000D01*
X36714148Y-38795000D01*
X37271523Y-38684131D01*
X37796560Y-38466654D01*
X38269080Y-38150926D01*
X38670926Y-37749080D01*
X38986654Y-37276560D01*
X39204131Y-36751523D01*
X39254162Y-36500000D01*
X40781928Y-36500000D01*
X40794188Y-36624482D01*
X40830498Y-36744180D01*
X40889463Y-36854494D01*
X40968815Y-36951185D01*
X41065506Y-37030537D01*
X41175820Y-37089502D01*
X41295518Y-37125812D01*
X41420000Y-37138072D01*
X43384250Y-37135000D01*
X43543000Y-36976250D01*
X43543000Y-34377000D01*
X40943750Y-34377000D01*
X40785000Y-34535750D01*
X40781928Y-36500000D01*
X39254162Y-36500000D01*
X39315000Y-36194148D01*
X39315000Y-35625852D01*
X39204131Y-35068477D01*
X38986654Y-34543440D01*
X38670926Y-34070920D01*
X38269080Y-33669074D01*
X37796560Y-33353346D01*
X37271523Y-33135869D01*
X36714148Y-33025000D01*
X36145852Y-33025000D01*
X35588477Y-33135869D01*
X35063440Y-33353346D01*
X34590920Y-33669074D01*
X34189074Y-34070920D01*
X33873346Y-34543440D01*
X33655869Y-35068477D01*
X33545000Y-35625852D01*
X16614131Y-35625852D01*
X16629522Y-14370000D01*
X38655198Y-14370000D01*
X32018998Y-21006201D01*
%TA.AperFunction,Conductor*%
D17*
G36*
X32018998Y-21006201D02*
G01*
X31990000Y-21029999D01*
X31966202Y-21058997D01*
X31966201Y-21058998D01*
X31895026Y-21145724D01*
X31824454Y-21277754D01*
X31780998Y-21421015D01*
X31766324Y-21570000D01*
X31770001Y-21607332D01*
X31770000Y-27219653D01*
X31688477Y-27235869D01*
X31163440Y-27453346D01*
X30690920Y-27769074D01*
X30289074Y-28170920D01*
X29973346Y-28643440D01*
X29755869Y-29168477D01*
X29645000Y-29725852D01*
X29645000Y-30294148D01*
X29755869Y-30851523D01*
X29973346Y-31376560D01*
X30289074Y-31849080D01*
X30690920Y-32250926D01*
X31163440Y-32566654D01*
X31688477Y-32784131D01*
X32245852Y-32895000D01*
X32814148Y-32895000D01*
X33371523Y-32784131D01*
X33896560Y-32566654D01*
X34369080Y-32250926D01*
X34620006Y-32000000D01*
X40781928Y-32000000D01*
X40785000Y-33964250D01*
X40943750Y-34123000D01*
X43543000Y-34123000D01*
X43543000Y-31523750D01*
X43797000Y-31523750D01*
X43797000Y-34123000D01*
X46396250Y-34123000D01*
X46555000Y-33964250D01*
X46558072Y-32000000D01*
X46545812Y-31875518D01*
X46509502Y-31755820D01*
X46450537Y-31645506D01*
X46371185Y-31548815D01*
X46274494Y-31469463D01*
X46164180Y-31410498D01*
X46044482Y-31374188D01*
X45920000Y-31361928D01*
X43955750Y-31365000D01*
X43797000Y-31523750D01*
X43543000Y-31523750D01*
X43384250Y-31365000D01*
X41420000Y-31361928D01*
X41295518Y-31374188D01*
X41175820Y-31410498D01*
X41065506Y-31469463D01*
X40968815Y-31548815D01*
X40889463Y-31645506D01*
X40830498Y-31755820D01*
X40794188Y-31875518D01*
X40781928Y-32000000D01*
X34620006Y-32000000D01*
X34770926Y-31849080D01*
X35086654Y-31376560D01*
X35304131Y-30851523D01*
X35415000Y-30294148D01*
X35415000Y-29725852D01*
X35304131Y-29168477D01*
X35086654Y-28643440D01*
X34770926Y-28170920D01*
X34369080Y-27769074D01*
X33896560Y-27453346D01*
X33371523Y-27235869D01*
X33290000Y-27219653D01*
X33290000Y-26725852D01*
X42445000Y-26725852D01*
X42445000Y-27294148D01*
X42555869Y-27851523D01*
X42773346Y-28376560D01*
X43089074Y-28849080D01*
X43490920Y-29250926D01*
X43963440Y-29566654D01*
X44488477Y-29784131D01*
X45045852Y-29895000D01*
X45614148Y-29895000D01*
X46171523Y-29784131D01*
X46696560Y-29566654D01*
X47169080Y-29250926D01*
X47570926Y-28849080D01*
X47886654Y-28376560D01*
X48104131Y-27851523D01*
X48215000Y-27294148D01*
X48215000Y-26725852D01*
X48104131Y-26168477D01*
X47886654Y-25643440D01*
X47570926Y-25170920D01*
X47169080Y-24769074D01*
X46696560Y-24453346D01*
X46171523Y-24235869D01*
X45614148Y-24125000D01*
X45045852Y-24125000D01*
X44488477Y-24235869D01*
X43963440Y-24453346D01*
X43490920Y-24769074D01*
X43089074Y-25170920D01*
X42773346Y-25643440D01*
X42555869Y-26168477D01*
X42445000Y-26725852D01*
X33290000Y-26725852D01*
X33290000Y-22825852D01*
X36545000Y-22825852D01*
X36545000Y-23394148D01*
X36655869Y-23951523D01*
X36873346Y-24476560D01*
X37189074Y-24949080D01*
X37590920Y-25350926D01*
X38063440Y-25666654D01*
X38588477Y-25884131D01*
X39145852Y-25995000D01*
X39714148Y-25995000D01*
X40271523Y-25884131D01*
X40796560Y-25666654D01*
X41269080Y-25350926D01*
X41670926Y-24949080D01*
X41986654Y-24476560D01*
X42204131Y-23951523D01*
X42315000Y-23394148D01*
X42315000Y-22825852D01*
X42204131Y-22268477D01*
X41986654Y-21743440D01*
X41670926Y-21270920D01*
X41269080Y-20869074D01*
X40796560Y-20553346D01*
X40271523Y-20335869D01*
X39714148Y-20225000D01*
X39145852Y-20225000D01*
X38588477Y-20335869D01*
X38063440Y-20553346D01*
X37590920Y-20869074D01*
X37189074Y-21270920D01*
X36873346Y-21743440D01*
X36655869Y-22268477D01*
X36545000Y-22825852D01*
X33290000Y-22825852D01*
X33290000Y-21884801D01*
X39994802Y-15180000D01*
X65845199Y-15180000D01*
X67060199Y-16395000D01*
X66933740Y-16395000D01*
X66646842Y-16452068D01*
X66376589Y-16564010D01*
X66133368Y-16726525D01*
X65926525Y-16933368D01*
X65810000Y-17107760D01*
X65693475Y-16933368D01*
X65486632Y-16726525D01*
X65243411Y-16564010D01*
X64973158Y-16452068D01*
X64686260Y-16395000D01*
X64393740Y-16395000D01*
X64106842Y-16452068D01*
X63836589Y-16564010D01*
X63593368Y-16726525D01*
X63386525Y-16933368D01*
X63270000Y-17107760D01*
X63153475Y-16933368D01*
X62946632Y-16726525D01*
X62703411Y-16564010D01*
X62433158Y-16452068D01*
X62146260Y-16395000D01*
X61853740Y-16395000D01*
X61566842Y-16452068D01*
X61296589Y-16564010D01*
X61053368Y-16726525D01*
X60846525Y-16933368D01*
X60730000Y-17107760D01*
X60613475Y-16933368D01*
X60406632Y-16726525D01*
X60163411Y-16564010D01*
X59893158Y-16452068D01*
X59606260Y-16395000D01*
X59313740Y-16395000D01*
X59026842Y-16452068D01*
X58756589Y-16564010D01*
X58513368Y-16726525D01*
X58306525Y-16933368D01*
X58190000Y-17107760D01*
X58073475Y-16933368D01*
X57866632Y-16726525D01*
X57623411Y-16564010D01*
X57353158Y-16452068D01*
X57066260Y-16395000D01*
X56773740Y-16395000D01*
X56486842Y-16452068D01*
X56216589Y-16564010D01*
X55973368Y-16726525D01*
X55766525Y-16933368D01*
X55650000Y-17107760D01*
X55533475Y-16933368D01*
X55326632Y-16726525D01*
X55083411Y-16564010D01*
X54813158Y-16452068D01*
X54526260Y-16395000D01*
X54233740Y-16395000D01*
X53946842Y-16452068D01*
X53676589Y-16564010D01*
X53433368Y-16726525D01*
X53226525Y-16933368D01*
X53110000Y-17107760D01*
X52993475Y-16933368D01*
X52786632Y-16726525D01*
X52543411Y-16564010D01*
X52273158Y-16452068D01*
X51986260Y-16395000D01*
X51693740Y-16395000D01*
X51406842Y-16452068D01*
X51136589Y-16564010D01*
X50893368Y-16726525D01*
X50761513Y-16858380D01*
X50739502Y-16785820D01*
X50680537Y-16675506D01*
X50601185Y-16578815D01*
X50504494Y-16499463D01*
X50394180Y-16440498D01*
X50274482Y-16404188D01*
X50150000Y-16391928D01*
X48450000Y-16391928D01*
X48325518Y-16404188D01*
X48205820Y-16440498D01*
X48095506Y-16499463D01*
X47998815Y-16578815D01*
X47919463Y-16675506D01*
X47860498Y-16785820D01*
X47824188Y-16905518D01*
X47811928Y-17030000D01*
X47811928Y-18730000D01*
X47824188Y-18854482D01*
X47860498Y-18974180D01*
X47919463Y-19084494D01*
X47998815Y-19181185D01*
X48095506Y-19260537D01*
X48205820Y-19319502D01*
X48325518Y-19355812D01*
X48450000Y-19368072D01*
X48540001Y-19368072D01*
X48540000Y-32598787D01*
X46555075Y-34583713D01*
X46555000Y-34535750D01*
X46396250Y-34377000D01*
X43797000Y-34377000D01*
X43797000Y-36976250D01*
X43955750Y-37135000D01*
X44752541Y-37136246D01*
X35448788Y-46440000D01*
X34670006Y-46440000D01*
X35070926Y-46039080D01*
X35386654Y-45566560D01*
X35604131Y-45041523D01*
X35715000Y-44484148D01*
X35715000Y-43915852D01*
X35604131Y-43358477D01*
X35386654Y-42833440D01*
X35070926Y-42360920D01*
X34669080Y-41959074D01*
X34196560Y-41643346D01*
X33671523Y-41425869D01*
X33114148Y-41315000D01*
X32545852Y-41315000D01*
X31988477Y-41425869D01*
X31463440Y-41643346D01*
X30990920Y-41959074D01*
X30589074Y-42360920D01*
X30273346Y-42833440D01*
X30055869Y-43358477D01*
X29945000Y-43915852D01*
X29945000Y-44484148D01*
X30055869Y-45041523D01*
X30273346Y-45566560D01*
X30589074Y-46039080D01*
X30989994Y-46440000D01*
X22820347Y-46440000D01*
X22804131Y-46358477D01*
X22586654Y-45833440D01*
X22270926Y-45360920D01*
X21869080Y-44959074D01*
X21396560Y-44643346D01*
X20871523Y-44425869D01*
X20314148Y-44315000D01*
X19745852Y-44315000D01*
X19188477Y-44425869D01*
X18663440Y-44643346D01*
X18190920Y-44959074D01*
X17789074Y-45360920D01*
X17473346Y-45833440D01*
X17255869Y-46358477D01*
X17145000Y-46915852D01*
X17145000Y-47484148D01*
X17255869Y-48041523D01*
X17473346Y-48566560D01*
X17789074Y-49039080D01*
X18190920Y-49440926D01*
X18663440Y-49756654D01*
X19188477Y-49974131D01*
X19745852Y-50085000D01*
X20314148Y-50085000D01*
X20871523Y-49974131D01*
X21396560Y-49756654D01*
X21869080Y-49440926D01*
X22120006Y-49190000D01*
X28281928Y-49190000D01*
X28285000Y-51154250D01*
X28443750Y-51313000D01*
X31043000Y-51313000D01*
X31043000Y-48713750D01*
X31297000Y-48713750D01*
X31297000Y-51313000D01*
X33896250Y-51313000D01*
X34055000Y-51154250D01*
X34058072Y-49190000D01*
X34045812Y-49065518D01*
X34009502Y-48945820D01*
X33950537Y-48835506D01*
X33871185Y-48738815D01*
X33774494Y-48659463D01*
X33664180Y-48600498D01*
X33544482Y-48564188D01*
X33420000Y-48551928D01*
X31455750Y-48555000D01*
X31297000Y-48713750D01*
X31043000Y-48713750D01*
X30884250Y-48555000D01*
X28920000Y-48551928D01*
X28795518Y-48564188D01*
X28675820Y-48600498D01*
X28565506Y-48659463D01*
X28468815Y-48738815D01*
X28389463Y-48835506D01*
X28330498Y-48945820D01*
X28294188Y-49065518D01*
X28281928Y-49190000D01*
X22120006Y-49190000D01*
X22270926Y-49039080D01*
X22586654Y-48566560D01*
X22804131Y-48041523D01*
X22820347Y-47960000D01*
X35726267Y-47960000D01*
X35763589Y-47963676D01*
X35800911Y-47960000D01*
X35800922Y-47960000D01*
X35912575Y-47949003D01*
X36055836Y-47905546D01*
X36187865Y-47834974D01*
X36303590Y-47740001D01*
X36327393Y-47710997D01*
X46770993Y-37267398D01*
X46799990Y-37243601D01*
X46894963Y-37127876D01*
X46965535Y-36995847D01*
X47008992Y-36852586D01*
X47019989Y-36740933D01*
X47019989Y-36740924D01*
X47023665Y-36703601D01*
X47019989Y-36666278D01*
X47019989Y-36268401D01*
X49811004Y-33477387D01*
X49840001Y-33453590D01*
X49934974Y-33337865D01*
X50005546Y-33205836D01*
X50049003Y-33062575D01*
X50060000Y-32950922D01*
X50060000Y-32950914D01*
X50063676Y-32913589D01*
X50060000Y-32876264D01*
X50060000Y-19368072D01*
X50150000Y-19368072D01*
X50274482Y-19355812D01*
X50394180Y-19319502D01*
X50504494Y-19260537D01*
X50601185Y-19181185D01*
X50680537Y-19084494D01*
X50739502Y-18974180D01*
X50761513Y-18901620D01*
X50893368Y-19033475D01*
X51080001Y-19158179D01*
X51080000Y-35540201D01*
X34056311Y-52563891D01*
X34055000Y-51725750D01*
X33896250Y-51567000D01*
X31297000Y-51567000D01*
X31297000Y-54166250D01*
X31455750Y-54325000D01*
X32293891Y-54326311D01*
X19518998Y-67101205D01*
X19490000Y-67125003D01*
X19466202Y-67154001D01*
X19466201Y-67154002D01*
X19395026Y-67240728D01*
X19324454Y-67372758D01*
X19294180Y-67472562D01*
X19280998Y-67516018D01*
X19274356Y-67583452D01*
X19266324Y-67665004D01*
X19270001Y-67702336D01*
X19270001Y-69399653D01*
X19188477Y-69415869D01*
X18663440Y-69633346D01*
X18190920Y-69949074D01*
X17789074Y-70350920D01*
X17473346Y-70823440D01*
X17255869Y-71348477D01*
X17145000Y-71905852D01*
X17145000Y-72474148D01*
X17255869Y-73031523D01*
X17473346Y-73556560D01*
X17789074Y-74029080D01*
X18190920Y-74430926D01*
X18663440Y-74746654D01*
X19188477Y-74964131D01*
X19745852Y-75075000D01*
X20314148Y-75075000D01*
X20871523Y-74964131D01*
X21396560Y-74746654D01*
X21869080Y-74430926D01*
X22120006Y-74180000D01*
X28281928Y-74180000D01*
X28285000Y-76144250D01*
X28443750Y-76303000D01*
X31043000Y-76303000D01*
X31043000Y-73703750D01*
X31297000Y-73703750D01*
X31297000Y-76303000D01*
X33896250Y-76303000D01*
X34055000Y-76144250D01*
X34058072Y-74180000D01*
X34045812Y-74055518D01*
X34009502Y-73935820D01*
X33950537Y-73825506D01*
X33871185Y-73728815D01*
X33774494Y-73649463D01*
X33664180Y-73590498D01*
X33544482Y-73554188D01*
X33420000Y-73541928D01*
X31455750Y-73545000D01*
X31297000Y-73703750D01*
X31043000Y-73703750D01*
X30884250Y-73545000D01*
X28920000Y-73541928D01*
X28795518Y-73554188D01*
X28675820Y-73590498D01*
X28565506Y-73649463D01*
X28468815Y-73728815D01*
X28389463Y-73825506D01*
X28330498Y-73935820D01*
X28294188Y-74055518D01*
X28281928Y-74180000D01*
X22120006Y-74180000D01*
X22270926Y-74029080D01*
X22586654Y-73556560D01*
X22804131Y-73031523D01*
X22915000Y-72474148D01*
X22915000Y-71905852D01*
X22804131Y-71348477D01*
X22586654Y-70823440D01*
X22270926Y-70350920D01*
X21869080Y-69949074D01*
X21396560Y-69633346D01*
X20871523Y-69415869D01*
X20790000Y-69399653D01*
X20790000Y-68905852D01*
X29945000Y-68905852D01*
X29945000Y-69474148D01*
X30055869Y-70031523D01*
X30273346Y-70556560D01*
X30589074Y-71029080D01*
X30990920Y-71430926D01*
X31463440Y-71746654D01*
X31988477Y-71964131D01*
X32545852Y-72075000D01*
X33114148Y-72075000D01*
X33671523Y-71964131D01*
X34196560Y-71746654D01*
X34669080Y-71430926D01*
X35070926Y-71029080D01*
X35386654Y-70556560D01*
X35604131Y-70031523D01*
X35715000Y-69474148D01*
X35715000Y-68905852D01*
X35604131Y-68348477D01*
X35386654Y-67823440D01*
X35070926Y-67350920D01*
X34669080Y-66949074D01*
X34196560Y-66633346D01*
X33671523Y-66415869D01*
X33114148Y-66305000D01*
X32545852Y-66305000D01*
X31988477Y-66415869D01*
X31463440Y-66633346D01*
X30990920Y-66949074D01*
X30589074Y-67350920D01*
X30273346Y-67823440D01*
X30055869Y-68348477D01*
X29945000Y-68905852D01*
X20790000Y-68905852D01*
X20790000Y-67979805D01*
X24114785Y-64655020D01*
X24045000Y-65005852D01*
X24045000Y-65574148D01*
X24155869Y-66131523D01*
X24373346Y-66656560D01*
X24689074Y-67129080D01*
X25090920Y-67530926D01*
X25563440Y-67846654D01*
X26088477Y-68064131D01*
X26645852Y-68175000D01*
X27214148Y-68175000D01*
X27771523Y-68064131D01*
X28296560Y-67846654D01*
X28769080Y-67530926D01*
X29170926Y-67129080D01*
X29486654Y-66656560D01*
X29704131Y-66131523D01*
X29815000Y-65574148D01*
X29815000Y-65005852D01*
X29704131Y-64448477D01*
X29486654Y-63923440D01*
X29170926Y-63450920D01*
X28769080Y-63049074D01*
X28296560Y-62733346D01*
X27771523Y-62515869D01*
X27214148Y-62405000D01*
X26645852Y-62405000D01*
X26295020Y-62474785D01*
X35953954Y-52815852D01*
X46025000Y-52815852D01*
X46025000Y-53384148D01*
X46135869Y-53941523D01*
X46353346Y-54466560D01*
X46669074Y-54939080D01*
X47070920Y-55340926D01*
X47543440Y-55656654D01*
X48068477Y-55874131D01*
X48625852Y-55985000D01*
X49194148Y-55985000D01*
X49751523Y-55874131D01*
X50276560Y-55656654D01*
X50749080Y-55340926D01*
X51150926Y-54939080D01*
X51466654Y-54466560D01*
X51684131Y-53941523D01*
X51734162Y-53690000D01*
X53261928Y-53690000D01*
X53274188Y-53814482D01*
X53310498Y-53934180D01*
X53369463Y-54044494D01*
X53448815Y-54141185D01*
X53545506Y-54220537D01*
X53655820Y-54279502D01*
X53775518Y-54315812D01*
X53900000Y-54328072D01*
X55864250Y-54325000D01*
X56023000Y-54166250D01*
X56023000Y-51567000D01*
X53423750Y-51567000D01*
X53265000Y-51725750D01*
X53261928Y-53690000D01*
X51734162Y-53690000D01*
X51795000Y-53384148D01*
X51795000Y-52815852D01*
X51684131Y-52258477D01*
X51466654Y-51733440D01*
X51150926Y-51260920D01*
X50749080Y-50859074D01*
X50276560Y-50543346D01*
X49751523Y-50325869D01*
X49194148Y-50215000D01*
X48625852Y-50215000D01*
X48068477Y-50325869D01*
X47543440Y-50543346D01*
X47070920Y-50859074D01*
X46669074Y-51260920D01*
X46353346Y-51733440D01*
X46135869Y-52258477D01*
X46025000Y-52815852D01*
X35953954Y-52815852D01*
X42192302Y-46577505D01*
X42125000Y-46915852D01*
X42125000Y-47484148D01*
X42235869Y-48041523D01*
X42453346Y-48566560D01*
X42769074Y-49039080D01*
X43170920Y-49440926D01*
X43643440Y-49756654D01*
X44168477Y-49974131D01*
X44725852Y-50085000D01*
X45294148Y-50085000D01*
X45851523Y-49974131D01*
X46376560Y-49756654D01*
X46849080Y-49440926D01*
X47100006Y-49190000D01*
X53261928Y-49190000D01*
X53265000Y-51154250D01*
X53423750Y-51313000D01*
X56023000Y-51313000D01*
X56023000Y-48713750D01*
X56277000Y-48713750D01*
X56277000Y-51313000D01*
X58876250Y-51313000D01*
X59035000Y-51154250D01*
X59038072Y-49190000D01*
X59025812Y-49065518D01*
X58989502Y-48945820D01*
X58930537Y-48835506D01*
X58851185Y-48738815D01*
X58754494Y-48659463D01*
X58644180Y-48600498D01*
X58524482Y-48564188D01*
X58400000Y-48551928D01*
X56435750Y-48555000D01*
X56277000Y-48713750D01*
X56023000Y-48713750D01*
X55864250Y-48555000D01*
X53900000Y-48551928D01*
X53775518Y-48564188D01*
X53655820Y-48600498D01*
X53545506Y-48659463D01*
X53448815Y-48738815D01*
X53369463Y-48835506D01*
X53310498Y-48945820D01*
X53274188Y-49065518D01*
X53261928Y-49190000D01*
X47100006Y-49190000D01*
X47250926Y-49039080D01*
X47566654Y-48566560D01*
X47784131Y-48041523D01*
X47895000Y-47484148D01*
X47895000Y-46915852D01*
X47784131Y-46358477D01*
X47566654Y-45833440D01*
X47250926Y-45360920D01*
X46849080Y-44959074D01*
X46376560Y-44643346D01*
X45851523Y-44425869D01*
X45770000Y-44409653D01*
X45770000Y-43636216D01*
X49025000Y-40381216D01*
X49025000Y-40584148D01*
X49135869Y-41141523D01*
X49353346Y-41666560D01*
X49669074Y-42139080D01*
X50070920Y-42540926D01*
X50543440Y-42856654D01*
X51068477Y-43074131D01*
X51625852Y-43185000D01*
X52194148Y-43185000D01*
X52751523Y-43074131D01*
X53276560Y-42856654D01*
X53749080Y-42540926D01*
X54150926Y-42139080D01*
X54466654Y-41666560D01*
X54684131Y-41141523D01*
X54795000Y-40584148D01*
X54795000Y-40015852D01*
X54684131Y-39458477D01*
X54466654Y-38933440D01*
X54150926Y-38460920D01*
X53749080Y-38059074D01*
X53276560Y-37743346D01*
X52751523Y-37525869D01*
X52194148Y-37415000D01*
X51991217Y-37415000D01*
X54891004Y-34515213D01*
X54920001Y-34491416D01*
X54946332Y-34459332D01*
X55014974Y-34375692D01*
X55085546Y-34243662D01*
X55085546Y-34243661D01*
X55129003Y-34100401D01*
X55140000Y-33988748D01*
X55140000Y-33988739D01*
X55143676Y-33951416D01*
X55140000Y-33914093D01*
X55140000Y-19158178D01*
X55326632Y-19033475D01*
X55533475Y-18826632D01*
X55650000Y-18652240D01*
X55766525Y-18826632D01*
X55973368Y-19033475D01*
X56216589Y-19195990D01*
X56486842Y-19307932D01*
X56773740Y-19365000D01*
X57066260Y-19365000D01*
X57286408Y-19321210D01*
X59625002Y-21659805D01*
X59625001Y-41942985D01*
X59176560Y-41643346D01*
X58651523Y-41425869D01*
X58094148Y-41315000D01*
X57525852Y-41315000D01*
X56968477Y-41425869D01*
X56443440Y-41643346D01*
X55970920Y-41959074D01*
X55569074Y-42360920D01*
X55253346Y-42833440D01*
X55035869Y-43358477D01*
X54925000Y-43915852D01*
X54925000Y-44484148D01*
X55035869Y-45041523D01*
X55253346Y-45566560D01*
X55569074Y-46039080D01*
X55970920Y-46440926D01*
X56443440Y-46756654D01*
X56968477Y-46974131D01*
X57525852Y-47085000D01*
X58094148Y-47085000D01*
X58651523Y-46974131D01*
X59176560Y-46756654D01*
X59625001Y-46457015D01*
X59625001Y-52699195D01*
X59037441Y-53286755D01*
X59035000Y-51725750D01*
X58876250Y-51567000D01*
X56277000Y-51567000D01*
X56277000Y-54166250D01*
X56435750Y-54325000D01*
X57996755Y-54327441D01*
X44518998Y-67805199D01*
X44490000Y-67828997D01*
X44466202Y-67857995D01*
X44466201Y-67857996D01*
X44395026Y-67944722D01*
X44324454Y-68076752D01*
X44321421Y-68086752D01*
X44280998Y-68220012D01*
X44274203Y-68288998D01*
X44266324Y-68368998D01*
X44270001Y-68406330D01*
X44270001Y-69389653D01*
X44188477Y-69405869D01*
X43663440Y-69623346D01*
X43190920Y-69939074D01*
X42789074Y-70340920D01*
X42473346Y-70813440D01*
X42255869Y-71338477D01*
X42145000Y-71895852D01*
X42145000Y-72464148D01*
X42255869Y-73021523D01*
X42473346Y-73546560D01*
X42789074Y-74019080D01*
X43190920Y-74420926D01*
X43663440Y-74736654D01*
X44188477Y-74954131D01*
X44745852Y-75065000D01*
X45314148Y-75065000D01*
X45871523Y-74954131D01*
X46396560Y-74736654D01*
X46869080Y-74420926D01*
X47120006Y-74170000D01*
X53281928Y-74170000D01*
X53285000Y-76134250D01*
X53443750Y-76293000D01*
X56043000Y-76293000D01*
X56043000Y-73693750D01*
X56297000Y-73693750D01*
X56297000Y-76293000D01*
X58896250Y-76293000D01*
X59055000Y-76134250D01*
X59058072Y-74170000D01*
X59045812Y-74045518D01*
X59009502Y-73925820D01*
X58950537Y-73815506D01*
X58871185Y-73718815D01*
X58774494Y-73639463D01*
X58664180Y-73580498D01*
X58544482Y-73544188D01*
X58420000Y-73531928D01*
X56455750Y-73535000D01*
X56297000Y-73693750D01*
X56043000Y-73693750D01*
X55884250Y-73535000D01*
X53920000Y-73531928D01*
X53795518Y-73544188D01*
X53675820Y-73580498D01*
X53565506Y-73639463D01*
X53468815Y-73718815D01*
X53389463Y-73815506D01*
X53330498Y-73925820D01*
X53294188Y-74045518D01*
X53281928Y-74170000D01*
X47120006Y-74170000D01*
X47270926Y-74019080D01*
X47586654Y-73546560D01*
X47804131Y-73021523D01*
X47915000Y-72464148D01*
X47915000Y-71895852D01*
X47804131Y-71338477D01*
X47586654Y-70813440D01*
X47270926Y-70340920D01*
X46869080Y-69939074D01*
X46396560Y-69623346D01*
X45871523Y-69405869D01*
X45790000Y-69389653D01*
X45790000Y-68895852D01*
X54945000Y-68895852D01*
X54945000Y-69464148D01*
X55055869Y-70021523D01*
X55273346Y-70546560D01*
X55589074Y-71019080D01*
X55990920Y-71420926D01*
X56463440Y-71736654D01*
X56988477Y-71954131D01*
X57545852Y-72065000D01*
X58114148Y-72065000D01*
X58671523Y-71954131D01*
X59196560Y-71736654D01*
X59669080Y-71420926D01*
X60070926Y-71019080D01*
X60386654Y-70546560D01*
X60604131Y-70021523D01*
X60715000Y-69464148D01*
X60715000Y-68895852D01*
X60604131Y-68338477D01*
X60386654Y-67813440D01*
X60070926Y-67340920D01*
X59669080Y-66939074D01*
X59196560Y-66623346D01*
X58671523Y-66405869D01*
X58114148Y-66295000D01*
X57545852Y-66295000D01*
X56988477Y-66405869D01*
X56463440Y-66623346D01*
X55990920Y-66939074D01*
X55589074Y-67340920D01*
X55273346Y-67813440D01*
X55055869Y-68338477D01*
X54945000Y-68895852D01*
X45790000Y-68895852D01*
X45790000Y-68683799D01*
X49045000Y-65428799D01*
X49045000Y-65564148D01*
X49155869Y-66121523D01*
X49373346Y-66646560D01*
X49689074Y-67119080D01*
X50090920Y-67520926D01*
X50563440Y-67836654D01*
X51088477Y-68054131D01*
X51645852Y-68165000D01*
X52214148Y-68165000D01*
X52771523Y-68054131D01*
X53296560Y-67836654D01*
X53769080Y-67520926D01*
X54170926Y-67119080D01*
X54486654Y-66646560D01*
X54704131Y-66121523D01*
X54815000Y-65564148D01*
X54815000Y-64995852D01*
X54704131Y-64438477D01*
X54486654Y-63913440D01*
X54170926Y-63440920D01*
X53769080Y-63039074D01*
X53296560Y-62723346D01*
X52771523Y-62505869D01*
X52214148Y-62395000D01*
X52078799Y-62395000D01*
X60896005Y-53577795D01*
X60925002Y-53553998D01*
X61019975Y-53438273D01*
X61090547Y-53306244D01*
X61134004Y-53162983D01*
X61145001Y-53051330D01*
X61145001Y-53051322D01*
X61148677Y-53013997D01*
X61145001Y-52976672D01*
X61145001Y-52805852D01*
X71045000Y-52805852D01*
X71045000Y-53374148D01*
X71155869Y-53931523D01*
X71373346Y-54456560D01*
X71689074Y-54929080D01*
X72090920Y-55330926D01*
X72563440Y-55646654D01*
X73088477Y-55864131D01*
X73645852Y-55975000D01*
X74214148Y-55975000D01*
X74771523Y-55864131D01*
X75296560Y-55646654D01*
X75769080Y-55330926D01*
X76170926Y-54929080D01*
X76486654Y-54456560D01*
X76704131Y-53931523D01*
X76754162Y-53680000D01*
X78281928Y-53680000D01*
X78294188Y-53804482D01*
X78330498Y-53924180D01*
X78389463Y-54034494D01*
X78468815Y-54131185D01*
X78565506Y-54210537D01*
X78675820Y-54269502D01*
X78795518Y-54305812D01*
X78920000Y-54318072D01*
X80884250Y-54315000D01*
X81043000Y-54156250D01*
X81043000Y-51557000D01*
X78443750Y-51557000D01*
X78285000Y-51715750D01*
X78281928Y-53680000D01*
X76754162Y-53680000D01*
X76815000Y-53374148D01*
X76815000Y-52805852D01*
X76704131Y-52248477D01*
X76486654Y-51723440D01*
X76170926Y-51250920D01*
X75769080Y-50849074D01*
X75296560Y-50533346D01*
X74771523Y-50315869D01*
X74214148Y-50205000D01*
X73645852Y-50205000D01*
X73088477Y-50315869D01*
X72563440Y-50533346D01*
X72090920Y-50849074D01*
X71689074Y-51250920D01*
X71373346Y-51723440D01*
X71155869Y-52248477D01*
X71045000Y-52805852D01*
X61145001Y-52805852D01*
X61145001Y-21382323D01*
X61148677Y-21345000D01*
X61145001Y-21307677D01*
X61145001Y-21307668D01*
X61134004Y-21196015D01*
X61090547Y-21052754D01*
X61019975Y-20920725D01*
X61006812Y-20904686D01*
X60948800Y-20833997D01*
X60948796Y-20833993D01*
X60925002Y-20805000D01*
X60896009Y-20781206D01*
X59479802Y-19365000D01*
X59606260Y-19365000D01*
X59826408Y-19321209D01*
X69270001Y-28764803D01*
X69270000Y-44399653D01*
X69188477Y-44415869D01*
X68663440Y-44633346D01*
X68190920Y-44949074D01*
X67789074Y-45350920D01*
X67473346Y-45823440D01*
X67255869Y-46348477D01*
X67145000Y-46905852D01*
X67145000Y-47474148D01*
X67255869Y-48031523D01*
X67473346Y-48556560D01*
X67789074Y-49029080D01*
X68190920Y-49430926D01*
X68663440Y-49746654D01*
X69188477Y-49964131D01*
X69745852Y-50075000D01*
X70314148Y-50075000D01*
X70871523Y-49964131D01*
X71396560Y-49746654D01*
X71869080Y-49430926D01*
X72120006Y-49180000D01*
X78281928Y-49180000D01*
X78285000Y-51144250D01*
X78443750Y-51303000D01*
X81043000Y-51303000D01*
X81043000Y-48703750D01*
X81297000Y-48703750D01*
X81297000Y-51303000D01*
X83896250Y-51303000D01*
X84055000Y-51144250D01*
X84058072Y-49180000D01*
X84045812Y-49055518D01*
X84009502Y-48935820D01*
X83950537Y-48825506D01*
X83871185Y-48728815D01*
X83774494Y-48649463D01*
X83664180Y-48590498D01*
X83544482Y-48554188D01*
X83420000Y-48541928D01*
X81455750Y-48545000D01*
X81297000Y-48703750D01*
X81043000Y-48703750D01*
X80884250Y-48545000D01*
X78920000Y-48541928D01*
X78795518Y-48554188D01*
X78675820Y-48590498D01*
X78565506Y-48649463D01*
X78468815Y-48728815D01*
X78389463Y-48825506D01*
X78330498Y-48935820D01*
X78294188Y-49055518D01*
X78281928Y-49180000D01*
X72120006Y-49180000D01*
X72270926Y-49029080D01*
X72586654Y-48556560D01*
X72804131Y-48031523D01*
X72915000Y-47474148D01*
X72915000Y-46905852D01*
X72804131Y-46348477D01*
X72586654Y-45823440D01*
X72270926Y-45350920D01*
X71869080Y-44949074D01*
X71396560Y-44633346D01*
X70871523Y-44415869D01*
X70790000Y-44399653D01*
X70790000Y-40005852D01*
X74045000Y-40005852D01*
X74045000Y-40574148D01*
X74155869Y-41131523D01*
X74373346Y-41656560D01*
X74689074Y-42129080D01*
X75090920Y-42530926D01*
X75563440Y-42846654D01*
X76088477Y-43064131D01*
X76645852Y-43175000D01*
X77214148Y-43175000D01*
X77771523Y-43064131D01*
X78296560Y-42846654D01*
X78769080Y-42530926D01*
X79170926Y-42129080D01*
X79486654Y-41656560D01*
X79704131Y-41131523D01*
X79815000Y-40574148D01*
X79815000Y-40005852D01*
X79704131Y-39448477D01*
X79486654Y-38923440D01*
X79170926Y-38450920D01*
X78769080Y-38049074D01*
X78296560Y-37733346D01*
X77771523Y-37515869D01*
X77214148Y-37405000D01*
X76645852Y-37405000D01*
X76088477Y-37515869D01*
X75563440Y-37733346D01*
X75090920Y-38049074D01*
X74689074Y-38450920D01*
X74373346Y-38923440D01*
X74155869Y-39448477D01*
X74045000Y-40005852D01*
X70790000Y-40005852D01*
X70790000Y-28487322D01*
X70793676Y-28449999D01*
X70790000Y-28412676D01*
X70790000Y-28412667D01*
X70779003Y-28301014D01*
X70735546Y-28157753D01*
X70664974Y-28025724D01*
X70570001Y-27909999D01*
X70541003Y-27886201D01*
X62019801Y-19365000D01*
X62146260Y-19365000D01*
X62366408Y-19321209D01*
X84645002Y-41599804D01*
X84645002Y-41932986D01*
X84196560Y-41633346D01*
X83671523Y-41415869D01*
X83114148Y-41305000D01*
X82545852Y-41305000D01*
X81988477Y-41415869D01*
X81463440Y-41633346D01*
X80990920Y-41949074D01*
X80589074Y-42350920D01*
X80273346Y-42823440D01*
X80055869Y-43348477D01*
X79945000Y-43905852D01*
X79945000Y-44474148D01*
X80055869Y-45031523D01*
X80273346Y-45556560D01*
X80589074Y-46029080D01*
X80990920Y-46430926D01*
X81463440Y-46746654D01*
X81988477Y-46964131D01*
X82545852Y-47075000D01*
X83114148Y-47075000D01*
X83671523Y-46964131D01*
X84196560Y-46746654D01*
X84645002Y-46447015D01*
X84645001Y-52609195D01*
X84057316Y-53196880D01*
X84055000Y-51715750D01*
X83896250Y-51557000D01*
X81297000Y-51557000D01*
X81297000Y-54156250D01*
X81455750Y-54315000D01*
X82936880Y-54317316D01*
X69528998Y-67725199D01*
X69500000Y-67748997D01*
X69476202Y-67777995D01*
X69476201Y-67777996D01*
X69405026Y-67864722D01*
X69334454Y-67996752D01*
X69317049Y-68054131D01*
X69290998Y-68140012D01*
X69282253Y-68228803D01*
X69276324Y-68288998D01*
X69280001Y-68326330D01*
X69280001Y-69309653D01*
X69198477Y-69325869D01*
X68673440Y-69543346D01*
X68200920Y-69859074D01*
X67799074Y-70260920D01*
X67483346Y-70733440D01*
X67265869Y-71258477D01*
X67155000Y-71815852D01*
X67155000Y-72384148D01*
X67265869Y-72941523D01*
X67483346Y-73466560D01*
X67799074Y-73939080D01*
X68200920Y-74340926D01*
X68673440Y-74656654D01*
X69198477Y-74874131D01*
X69755852Y-74985000D01*
X70324148Y-74985000D01*
X70881523Y-74874131D01*
X71406560Y-74656654D01*
X71879080Y-74340926D01*
X72130006Y-74090000D01*
X78291928Y-74090000D01*
X78295000Y-76054250D01*
X78453750Y-76213000D01*
X81053000Y-76213000D01*
X81053000Y-73613750D01*
X81307000Y-73613750D01*
X81307000Y-76213000D01*
X83906250Y-76213000D01*
X84065000Y-76054250D01*
X84068072Y-74090000D01*
X84055812Y-73965518D01*
X84019502Y-73845820D01*
X83960537Y-73735506D01*
X83881185Y-73638815D01*
X83784494Y-73559463D01*
X83674180Y-73500498D01*
X83554482Y-73464188D01*
X83430000Y-73451928D01*
X81465750Y-73455000D01*
X81307000Y-73613750D01*
X81053000Y-73613750D01*
X80894250Y-73455000D01*
X78930000Y-73451928D01*
X78805518Y-73464188D01*
X78685820Y-73500498D01*
X78575506Y-73559463D01*
X78478815Y-73638815D01*
X78399463Y-73735506D01*
X78340498Y-73845820D01*
X78304188Y-73965518D01*
X78291928Y-74090000D01*
X72130006Y-74090000D01*
X72280926Y-73939080D01*
X72596654Y-73466560D01*
X72814131Y-72941523D01*
X72925000Y-72384148D01*
X72925000Y-71815852D01*
X72814131Y-71258477D01*
X72596654Y-70733440D01*
X72280926Y-70260920D01*
X71879080Y-69859074D01*
X71406560Y-69543346D01*
X70881523Y-69325869D01*
X70800000Y-69309653D01*
X70800000Y-68815852D01*
X79955000Y-68815852D01*
X79955000Y-69384148D01*
X80065869Y-69941523D01*
X80283346Y-70466560D01*
X80599074Y-70939080D01*
X81000920Y-71340926D01*
X81473440Y-71656654D01*
X81998477Y-71874131D01*
X82555852Y-71985000D01*
X83124148Y-71985000D01*
X83681523Y-71874131D01*
X84206560Y-71656654D01*
X84679080Y-71340926D01*
X85080926Y-70939080D01*
X85396654Y-70466560D01*
X85614131Y-69941523D01*
X85725000Y-69384148D01*
X85725000Y-68815852D01*
X85614131Y-68258477D01*
X85396654Y-67733440D01*
X85080926Y-67260920D01*
X84679080Y-66859074D01*
X84206560Y-66543346D01*
X83681523Y-66325869D01*
X83124148Y-66215000D01*
X82555852Y-66215000D01*
X81998477Y-66325869D01*
X81473440Y-66543346D01*
X81000920Y-66859074D01*
X80599074Y-67260920D01*
X80283346Y-67733440D01*
X80065869Y-68258477D01*
X79955000Y-68815852D01*
X70800000Y-68815852D01*
X70800000Y-68603799D01*
X74055000Y-65348799D01*
X74055000Y-65484148D01*
X74165869Y-66041523D01*
X74383346Y-66566560D01*
X74699074Y-67039080D01*
X75100920Y-67440926D01*
X75573440Y-67756654D01*
X76098477Y-67974131D01*
X76655852Y-68085000D01*
X77224148Y-68085000D01*
X77781523Y-67974131D01*
X78306560Y-67756654D01*
X78779080Y-67440926D01*
X79180926Y-67039080D01*
X79496654Y-66566560D01*
X79714131Y-66041523D01*
X79825000Y-65484148D01*
X79825000Y-64915852D01*
X79714131Y-64358477D01*
X79496654Y-63833440D01*
X79180926Y-63360920D01*
X78779080Y-62959074D01*
X78306560Y-62643346D01*
X77781523Y-62425869D01*
X77224148Y-62315000D01*
X77088799Y-62315000D01*
X85916005Y-53487795D01*
X85945002Y-53463998D01*
X86039975Y-53348273D01*
X86110547Y-53216244D01*
X86154004Y-53072983D01*
X86165001Y-52961330D01*
X86165001Y-52961320D01*
X86168677Y-52923997D01*
X86165001Y-52886674D01*
X86165001Y-52815852D01*
X96055000Y-52815852D01*
X96055000Y-53384148D01*
X96165869Y-53941523D01*
X96383346Y-54466560D01*
X96699074Y-54939080D01*
X97100920Y-55340926D01*
X97573440Y-55656654D01*
X98098477Y-55874131D01*
X98655852Y-55985000D01*
X99224148Y-55985000D01*
X99781523Y-55874131D01*
X100306560Y-55656654D01*
X100779080Y-55340926D01*
X101180926Y-54939080D01*
X101496654Y-54466560D01*
X101714131Y-53941523D01*
X101764162Y-53690000D01*
X103291928Y-53690000D01*
X103304188Y-53814482D01*
X103340498Y-53934180D01*
X103399463Y-54044494D01*
X103478815Y-54141185D01*
X103575506Y-54220537D01*
X103685820Y-54279502D01*
X103805518Y-54315812D01*
X103930000Y-54328072D01*
X105894250Y-54325000D01*
X106053000Y-54166250D01*
X106053000Y-51567000D01*
X103453750Y-51567000D01*
X103295000Y-51725750D01*
X103291928Y-53690000D01*
X101764162Y-53690000D01*
X101825000Y-53384148D01*
X101825000Y-52815852D01*
X101714131Y-52258477D01*
X101496654Y-51733440D01*
X101180926Y-51260920D01*
X100779080Y-50859074D01*
X100306560Y-50543346D01*
X99781523Y-50325869D01*
X99224148Y-50215000D01*
X98655852Y-50215000D01*
X98098477Y-50325869D01*
X97573440Y-50543346D01*
X97100920Y-50859074D01*
X96699074Y-51260920D01*
X96383346Y-51733440D01*
X96165869Y-52258477D01*
X96055000Y-52815852D01*
X86165001Y-52815852D01*
X86165001Y-41322324D01*
X86168677Y-41285001D01*
X86165001Y-41247678D01*
X86165001Y-41247668D01*
X86154004Y-41136015D01*
X86110547Y-40992754D01*
X86039975Y-40860725D01*
X85945002Y-40745000D01*
X85916004Y-40721202D01*
X64559801Y-19365000D01*
X64686260Y-19365000D01*
X64906408Y-19321209D01*
X92212413Y-46627215D01*
X92155000Y-46915852D01*
X92155000Y-47484148D01*
X92265869Y-48041523D01*
X92483346Y-48566560D01*
X92799074Y-49039080D01*
X93200920Y-49440926D01*
X93673440Y-49756654D01*
X94198477Y-49974131D01*
X94755852Y-50085000D01*
X95324148Y-50085000D01*
X95881523Y-49974131D01*
X96406560Y-49756654D01*
X96879080Y-49440926D01*
X97130006Y-49190000D01*
X103291928Y-49190000D01*
X103295000Y-51154250D01*
X103453750Y-51313000D01*
X106053000Y-51313000D01*
X106053000Y-48713750D01*
X106307000Y-48713750D01*
X106307000Y-51313000D01*
X108906250Y-51313000D01*
X109065000Y-51154250D01*
X109068072Y-49190000D01*
X109055812Y-49065518D01*
X109019502Y-48945820D01*
X108960537Y-48835506D01*
X108881185Y-48738815D01*
X108784494Y-48659463D01*
X108674180Y-48600498D01*
X108554482Y-48564188D01*
X108430000Y-48551928D01*
X106465750Y-48555000D01*
X106307000Y-48713750D01*
X106053000Y-48713750D01*
X105894250Y-48555000D01*
X103930000Y-48551928D01*
X103805518Y-48564188D01*
X103685820Y-48600498D01*
X103575506Y-48659463D01*
X103478815Y-48738815D01*
X103399463Y-48835506D01*
X103340498Y-48945820D01*
X103304188Y-49065518D01*
X103291928Y-49190000D01*
X97130006Y-49190000D01*
X97280926Y-49039080D01*
X97596654Y-48566560D01*
X97814131Y-48041523D01*
X97925000Y-47484148D01*
X97925000Y-46915852D01*
X97814131Y-46358477D01*
X97596654Y-45833440D01*
X97280926Y-45360920D01*
X96879080Y-44959074D01*
X96406560Y-44643346D01*
X95881523Y-44425869D01*
X95324148Y-44315000D01*
X94755852Y-44315000D01*
X94198477Y-44425869D01*
X93673440Y-44643346D01*
X93200920Y-44959074D01*
X92947398Y-45212596D01*
X87750654Y-40015852D01*
X99055000Y-40015852D01*
X99055000Y-40584148D01*
X99165869Y-41141523D01*
X99383346Y-41666560D01*
X99699074Y-42139080D01*
X100100920Y-42540926D01*
X100573440Y-42856654D01*
X101098477Y-43074131D01*
X101655852Y-43185000D01*
X102224148Y-43185000D01*
X102781523Y-43074131D01*
X103306560Y-42856654D01*
X103779080Y-42540926D01*
X104180926Y-42139080D01*
X104496654Y-41666560D01*
X104714131Y-41141523D01*
X104825000Y-40584148D01*
X104825000Y-40015852D01*
X104714131Y-39458477D01*
X104496654Y-38933440D01*
X104180926Y-38460920D01*
X103779080Y-38059074D01*
X103306560Y-37743346D01*
X102781523Y-37525869D01*
X102224148Y-37415000D01*
X101655852Y-37415000D01*
X101098477Y-37525869D01*
X100573440Y-37743346D01*
X100100920Y-38059074D01*
X99699074Y-38460920D01*
X99383346Y-38933440D01*
X99165869Y-39458477D01*
X99055000Y-40015852D01*
X87750654Y-40015852D01*
X67099801Y-19365000D01*
X67226260Y-19365000D01*
X67446408Y-19321210D01*
X67691201Y-19566003D01*
X67715000Y-19595002D01*
X67830725Y-19689975D01*
X67962754Y-19760547D01*
X68106015Y-19804004D01*
X68217668Y-19815001D01*
X68217677Y-19815001D01*
X68255000Y-19818677D01*
X68292323Y-19815001D01*
X86191202Y-19815001D01*
X107691200Y-41315000D01*
X107555852Y-41315000D01*
X106998477Y-41425869D01*
X106473440Y-41643346D01*
X106000920Y-41959074D01*
X105599074Y-42360920D01*
X105283346Y-42833440D01*
X105065869Y-43358477D01*
X104955000Y-43915852D01*
X104955000Y-44484148D01*
X105065869Y-45041523D01*
X105283346Y-45566560D01*
X105599074Y-46039080D01*
X106000920Y-46440926D01*
X106473440Y-46756654D01*
X106998477Y-46974131D01*
X107555852Y-47085000D01*
X108124148Y-47085000D01*
X108681523Y-46974131D01*
X109206560Y-46756654D01*
X109655002Y-46457015D01*
X109655001Y-52679195D01*
X109067410Y-53266786D01*
X109065000Y-51725750D01*
X108906250Y-51567000D01*
X106307000Y-51567000D01*
X106307000Y-54166250D01*
X106465750Y-54325000D01*
X108006786Y-54327410D01*
X94518998Y-67815199D01*
X94490000Y-67838997D01*
X94466202Y-67867995D01*
X94466201Y-67867996D01*
X94395026Y-67954722D01*
X94324454Y-68086752D01*
X94308298Y-68140013D01*
X94284032Y-68220012D01*
X94280998Y-68230013D01*
X94266324Y-68378998D01*
X94270001Y-68416330D01*
X94270001Y-69399653D01*
X94188477Y-69415869D01*
X93663440Y-69633346D01*
X93190920Y-69949074D01*
X92789074Y-70350920D01*
X92473346Y-70823440D01*
X92255869Y-71348477D01*
X92145000Y-71905852D01*
X92145000Y-72474148D01*
X92255869Y-73031523D01*
X92473346Y-73556560D01*
X92789074Y-74029080D01*
X93190920Y-74430926D01*
X93663440Y-74746654D01*
X94188477Y-74964131D01*
X94745852Y-75075000D01*
X95314148Y-75075000D01*
X95871523Y-74964131D01*
X96396560Y-74746654D01*
X96869080Y-74430926D01*
X97120006Y-74180000D01*
X103281928Y-74180000D01*
X103285000Y-76144250D01*
X103443750Y-76303000D01*
X106043000Y-76303000D01*
X106043000Y-73703750D01*
X106297000Y-73703750D01*
X106297000Y-76303000D01*
X108896250Y-76303000D01*
X109055000Y-76144250D01*
X109058072Y-74180000D01*
X109045812Y-74055518D01*
X109009502Y-73935820D01*
X108950537Y-73825506D01*
X108871185Y-73728815D01*
X108774494Y-73649463D01*
X108664180Y-73590498D01*
X108544482Y-73554188D01*
X108420000Y-73541928D01*
X106455750Y-73545000D01*
X106297000Y-73703750D01*
X106043000Y-73703750D01*
X105884250Y-73545000D01*
X103920000Y-73541928D01*
X103795518Y-73554188D01*
X103675820Y-73590498D01*
X103565506Y-73649463D01*
X103468815Y-73728815D01*
X103389463Y-73825506D01*
X103330498Y-73935820D01*
X103294188Y-74055518D01*
X103281928Y-74180000D01*
X97120006Y-74180000D01*
X97270926Y-74029080D01*
X97586654Y-73556560D01*
X97804131Y-73031523D01*
X97915000Y-72474148D01*
X97915000Y-71905852D01*
X97804131Y-71348477D01*
X97586654Y-70823440D01*
X97270926Y-70350920D01*
X96869080Y-69949074D01*
X96396560Y-69633346D01*
X95871523Y-69415869D01*
X95790000Y-69399653D01*
X95790000Y-68905852D01*
X104945000Y-68905852D01*
X104945000Y-69474148D01*
X105055869Y-70031523D01*
X105273346Y-70556560D01*
X105589074Y-71029080D01*
X105990920Y-71430926D01*
X106463440Y-71746654D01*
X106988477Y-71964131D01*
X107545852Y-72075000D01*
X108114148Y-72075000D01*
X108671523Y-71964131D01*
X109196560Y-71746654D01*
X109669080Y-71430926D01*
X110070926Y-71029080D01*
X110386654Y-70556560D01*
X110604131Y-70031523D01*
X110715000Y-69474148D01*
X110715000Y-68905852D01*
X110604131Y-68348477D01*
X110386654Y-67823440D01*
X110070926Y-67350920D01*
X109669080Y-66949074D01*
X109196560Y-66633346D01*
X108671523Y-66415869D01*
X108114148Y-66305000D01*
X107545852Y-66305000D01*
X106988477Y-66415869D01*
X106463440Y-66633346D01*
X105990920Y-66949074D01*
X105589074Y-67350920D01*
X105273346Y-67823440D01*
X105055869Y-68348477D01*
X104945000Y-68905852D01*
X95790000Y-68905852D01*
X95790000Y-68693799D01*
X99045000Y-65438799D01*
X99045000Y-65574148D01*
X99155869Y-66131523D01*
X99373346Y-66656560D01*
X99689074Y-67129080D01*
X100090920Y-67530926D01*
X100563440Y-67846654D01*
X101088477Y-68064131D01*
X101645852Y-68175000D01*
X102214148Y-68175000D01*
X102771523Y-68064131D01*
X103296560Y-67846654D01*
X103769080Y-67530926D01*
X104170926Y-67129080D01*
X104486654Y-66656560D01*
X104704131Y-66131523D01*
X104815000Y-65574148D01*
X104815000Y-65005852D01*
X104704131Y-64448477D01*
X104486654Y-63923440D01*
X104170926Y-63450920D01*
X103769080Y-63049074D01*
X103296560Y-62733346D01*
X102771523Y-62515869D01*
X102214148Y-62405000D01*
X102078799Y-62405000D01*
X110926005Y-53557795D01*
X110955002Y-53533998D01*
X110981333Y-53501914D01*
X111049975Y-53418274D01*
X111120547Y-53286244D01*
X111157937Y-53162982D01*
X111164004Y-53142983D01*
X111175001Y-53031330D01*
X111175001Y-53031321D01*
X111178677Y-52993998D01*
X111175001Y-52956675D01*
X111175001Y-43001321D01*
X111178677Y-42963998D01*
X111175001Y-42926675D01*
X111175001Y-42926666D01*
X111164004Y-42815013D01*
X111120547Y-42671752D01*
X111049975Y-42539723D01*
X110955002Y-42423998D01*
X110926004Y-42400200D01*
X87069807Y-18544004D01*
X87046004Y-18515000D01*
X86930279Y-18420027D01*
X86798250Y-18349455D01*
X86654989Y-18305998D01*
X86543336Y-18295001D01*
X86543325Y-18295001D01*
X86506003Y-18291325D01*
X86468681Y-18295001D01*
X78660868Y-18295001D01*
X78681481Y-18236891D01*
X78560814Y-18007000D01*
X77367000Y-18007000D01*
X77367000Y-18027000D01*
X77113000Y-18027000D01*
X77113000Y-18007000D01*
X77093000Y-18007000D01*
X77093000Y-17753000D01*
X77113000Y-17753000D01*
X77113000Y-16559845D01*
X77367000Y-16559845D01*
X77367000Y-17753000D01*
X78560814Y-17753000D01*
X78681481Y-17523109D01*
X78584157Y-17248748D01*
X78435178Y-16998645D01*
X78240269Y-16782412D01*
X78006920Y-16608359D01*
X77744099Y-16483175D01*
X77596890Y-16438524D01*
X77367000Y-16559845D01*
X77113000Y-16559845D01*
X76883110Y-16438524D01*
X76735901Y-16483175D01*
X76473080Y-16608359D01*
X76239731Y-16782412D01*
X76044822Y-16998645D01*
X75975195Y-17115534D01*
X75853475Y-16933368D01*
X75646632Y-16726525D01*
X75403411Y-16564010D01*
X75133158Y-16452068D01*
X74846260Y-16395000D01*
X74553740Y-16395000D01*
X74266842Y-16452068D01*
X73996589Y-16564010D01*
X73753368Y-16726525D01*
X73546525Y-16933368D01*
X73430000Y-17107760D01*
X73313475Y-16933368D01*
X73106632Y-16726525D01*
X72863411Y-16564010D01*
X72593158Y-16452068D01*
X72306260Y-16395000D01*
X72013740Y-16395000D01*
X71726842Y-16452068D01*
X71456589Y-16564010D01*
X71213368Y-16726525D01*
X71006525Y-16933368D01*
X70890000Y-17107760D01*
X70773475Y-16933368D01*
X70566632Y-16726525D01*
X70323411Y-16564010D01*
X70053158Y-16452068D01*
X69766260Y-16395000D01*
X69473740Y-16395000D01*
X69253592Y-16438790D01*
X67184801Y-14370000D01*
X111260000Y-14370000D01*
X111260001Y-82110000D01*
X16580478Y-82110000D01*
X16583594Y-77805852D01*
X21045000Y-77805852D01*
X21045000Y-78374148D01*
X21155869Y-78931523D01*
X21373346Y-79456560D01*
X21689074Y-79929080D01*
X22090920Y-80330926D01*
X22563440Y-80646654D01*
X23088477Y-80864131D01*
X23645852Y-80975000D01*
X24214148Y-80975000D01*
X24771523Y-80864131D01*
X25296560Y-80646654D01*
X25769080Y-80330926D01*
X26170926Y-79929080D01*
X26486654Y-79456560D01*
X26704131Y-78931523D01*
X26754162Y-78680000D01*
X28281928Y-78680000D01*
X28294188Y-78804482D01*
X28330498Y-78924180D01*
X28389463Y-79034494D01*
X28468815Y-79131185D01*
X28565506Y-79210537D01*
X28675820Y-79269502D01*
X28795518Y-79305812D01*
X28920000Y-79318072D01*
X30884250Y-79315000D01*
X31043000Y-79156250D01*
X31043000Y-76557000D01*
X31297000Y-76557000D01*
X31297000Y-79156250D01*
X31455750Y-79315000D01*
X33420000Y-79318072D01*
X33544482Y-79305812D01*
X33664180Y-79269502D01*
X33774494Y-79210537D01*
X33871185Y-79131185D01*
X33950537Y-79034494D01*
X34009502Y-78924180D01*
X34045812Y-78804482D01*
X34058072Y-78680000D01*
X34056690Y-77795852D01*
X46045000Y-77795852D01*
X46045000Y-78364148D01*
X46155869Y-78921523D01*
X46373346Y-79446560D01*
X46689074Y-79919080D01*
X47090920Y-80320926D01*
X47563440Y-80636654D01*
X48088477Y-80854131D01*
X48645852Y-80965000D01*
X49214148Y-80965000D01*
X49771523Y-80854131D01*
X50296560Y-80636654D01*
X50769080Y-80320926D01*
X51170926Y-79919080D01*
X51486654Y-79446560D01*
X51704131Y-78921523D01*
X51754162Y-78670000D01*
X53281928Y-78670000D01*
X53294188Y-78794482D01*
X53330498Y-78914180D01*
X53389463Y-79024494D01*
X53468815Y-79121185D01*
X53565506Y-79200537D01*
X53675820Y-79259502D01*
X53795518Y-79295812D01*
X53920000Y-79308072D01*
X55884250Y-79305000D01*
X56043000Y-79146250D01*
X56043000Y-76547000D01*
X56297000Y-76547000D01*
X56297000Y-79146250D01*
X56455750Y-79305000D01*
X58420000Y-79308072D01*
X58544482Y-79295812D01*
X58664180Y-79259502D01*
X58774494Y-79200537D01*
X58871185Y-79121185D01*
X58950537Y-79024494D01*
X59009502Y-78914180D01*
X59045812Y-78794482D01*
X59058072Y-78670000D01*
X59056580Y-77715852D01*
X71055000Y-77715852D01*
X71055000Y-78284148D01*
X71165869Y-78841523D01*
X71383346Y-79366560D01*
X71699074Y-79839080D01*
X72100920Y-80240926D01*
X72573440Y-80556654D01*
X73098477Y-80774131D01*
X73655852Y-80885000D01*
X74224148Y-80885000D01*
X74781523Y-80774131D01*
X75306560Y-80556654D01*
X75779080Y-80240926D01*
X76180926Y-79839080D01*
X76496654Y-79366560D01*
X76714131Y-78841523D01*
X76764162Y-78590000D01*
X78291928Y-78590000D01*
X78304188Y-78714482D01*
X78340498Y-78834180D01*
X78399463Y-78944494D01*
X78478815Y-79041185D01*
X78575506Y-79120537D01*
X78685820Y-79179502D01*
X78805518Y-79215812D01*
X78930000Y-79228072D01*
X80894250Y-79225000D01*
X81053000Y-79066250D01*
X81053000Y-76467000D01*
X81307000Y-76467000D01*
X81307000Y-79066250D01*
X81465750Y-79225000D01*
X83430000Y-79228072D01*
X83554482Y-79215812D01*
X83674180Y-79179502D01*
X83784494Y-79120537D01*
X83881185Y-79041185D01*
X83960537Y-78944494D01*
X84019502Y-78834180D01*
X84055812Y-78714482D01*
X84068072Y-78590000D01*
X84066846Y-77805852D01*
X96045000Y-77805852D01*
X96045000Y-78374148D01*
X96155869Y-78931523D01*
X96373346Y-79456560D01*
X96689074Y-79929080D01*
X97090920Y-80330926D01*
X97563440Y-80646654D01*
X98088477Y-80864131D01*
X98645852Y-80975000D01*
X99214148Y-80975000D01*
X99771523Y-80864131D01*
X100296560Y-80646654D01*
X100769080Y-80330926D01*
X101170926Y-79929080D01*
X101486654Y-79456560D01*
X101704131Y-78931523D01*
X101754162Y-78680000D01*
X103281928Y-78680000D01*
X103294188Y-78804482D01*
X103330498Y-78924180D01*
X103389463Y-79034494D01*
X103468815Y-79131185D01*
X103565506Y-79210537D01*
X103675820Y-79269502D01*
X103795518Y-79305812D01*
X103920000Y-79318072D01*
X105884250Y-79315000D01*
X106043000Y-79156250D01*
X106043000Y-76557000D01*
X106297000Y-76557000D01*
X106297000Y-79156250D01*
X106455750Y-79315000D01*
X108420000Y-79318072D01*
X108544482Y-79305812D01*
X108664180Y-79269502D01*
X108774494Y-79210537D01*
X108871185Y-79131185D01*
X108950537Y-79034494D01*
X109009502Y-78924180D01*
X109045812Y-78804482D01*
X109058072Y-78680000D01*
X109055000Y-76715750D01*
X108896250Y-76557000D01*
X106297000Y-76557000D01*
X106043000Y-76557000D01*
X103443750Y-76557000D01*
X103285000Y-76715750D01*
X103281928Y-78680000D01*
X101754162Y-78680000D01*
X101815000Y-78374148D01*
X101815000Y-77805852D01*
X101704131Y-77248477D01*
X101486654Y-76723440D01*
X101170926Y-76250920D01*
X100769080Y-75849074D01*
X100296560Y-75533346D01*
X99771523Y-75315869D01*
X99214148Y-75205000D01*
X98645852Y-75205000D01*
X98088477Y-75315869D01*
X97563440Y-75533346D01*
X97090920Y-75849074D01*
X96689074Y-76250920D01*
X96373346Y-76723440D01*
X96155869Y-77248477D01*
X96045000Y-77805852D01*
X84066846Y-77805852D01*
X84065000Y-76625750D01*
X83906250Y-76467000D01*
X81307000Y-76467000D01*
X81053000Y-76467000D01*
X78453750Y-76467000D01*
X78295000Y-76625750D01*
X78291928Y-78590000D01*
X76764162Y-78590000D01*
X76825000Y-78284148D01*
X76825000Y-77715852D01*
X76714131Y-77158477D01*
X76496654Y-76633440D01*
X76180926Y-76160920D01*
X75779080Y-75759074D01*
X75306560Y-75443346D01*
X74781523Y-75225869D01*
X74224148Y-75115000D01*
X73655852Y-75115000D01*
X73098477Y-75225869D01*
X72573440Y-75443346D01*
X72100920Y-75759074D01*
X71699074Y-76160920D01*
X71383346Y-76633440D01*
X71165869Y-77158477D01*
X71055000Y-77715852D01*
X59056580Y-77715852D01*
X59055000Y-76705750D01*
X58896250Y-76547000D01*
X56297000Y-76547000D01*
X56043000Y-76547000D01*
X53443750Y-76547000D01*
X53285000Y-76705750D01*
X53281928Y-78670000D01*
X51754162Y-78670000D01*
X51815000Y-78364148D01*
X51815000Y-77795852D01*
X51704131Y-77238477D01*
X51486654Y-76713440D01*
X51170926Y-76240920D01*
X50769080Y-75839074D01*
X50296560Y-75523346D01*
X49771523Y-75305869D01*
X49214148Y-75195000D01*
X48645852Y-75195000D01*
X48088477Y-75305869D01*
X47563440Y-75523346D01*
X47090920Y-75839074D01*
X46689074Y-76240920D01*
X46373346Y-76713440D01*
X46155869Y-77238477D01*
X46045000Y-77795852D01*
X34056690Y-77795852D01*
X34055000Y-76715750D01*
X33896250Y-76557000D01*
X31297000Y-76557000D01*
X31043000Y-76557000D01*
X28443750Y-76557000D01*
X28285000Y-76715750D01*
X28281928Y-78680000D01*
X26754162Y-78680000D01*
X26815000Y-78374148D01*
X26815000Y-77805852D01*
X26704131Y-77248477D01*
X26486654Y-76723440D01*
X26170926Y-76250920D01*
X25769080Y-75849074D01*
X25296560Y-75533346D01*
X24771523Y-75315869D01*
X24214148Y-75205000D01*
X23645852Y-75205000D01*
X23088477Y-75315869D01*
X22563440Y-75533346D01*
X22090920Y-75849074D01*
X21689074Y-76250920D01*
X21373346Y-76723440D01*
X21155869Y-77248477D01*
X21045000Y-77805852D01*
X16583594Y-77805852D01*
X16601686Y-52815852D01*
X21045000Y-52815852D01*
X21045000Y-53384148D01*
X21155869Y-53941523D01*
X21373346Y-54466560D01*
X21689074Y-54939080D01*
X22090920Y-55340926D01*
X22563440Y-55656654D01*
X23088477Y-55874131D01*
X23645852Y-55985000D01*
X24214148Y-55985000D01*
X24771523Y-55874131D01*
X25296560Y-55656654D01*
X25769080Y-55340926D01*
X26170926Y-54939080D01*
X26486654Y-54466560D01*
X26704131Y-53941523D01*
X26754162Y-53690000D01*
X28281928Y-53690000D01*
X28294188Y-53814482D01*
X28330498Y-53934180D01*
X28389463Y-54044494D01*
X28468815Y-54141185D01*
X28565506Y-54220537D01*
X28675820Y-54279502D01*
X28795518Y-54315812D01*
X28920000Y-54328072D01*
X30884250Y-54325000D01*
X31043000Y-54166250D01*
X31043000Y-51567000D01*
X28443750Y-51567000D01*
X28285000Y-51725750D01*
X28281928Y-53690000D01*
X26754162Y-53690000D01*
X26815000Y-53384148D01*
X26815000Y-52815852D01*
X26704131Y-52258477D01*
X26486654Y-51733440D01*
X26170926Y-51260920D01*
X25769080Y-50859074D01*
X25296560Y-50543346D01*
X24771523Y-50325869D01*
X24214148Y-50215000D01*
X23645852Y-50215000D01*
X23088477Y-50325869D01*
X22563440Y-50543346D01*
X22090920Y-50859074D01*
X21689074Y-51260920D01*
X21373346Y-51733440D01*
X21155869Y-52258477D01*
X21045000Y-52815852D01*
X16601686Y-52815852D01*
X16610953Y-40015852D01*
X24045000Y-40015852D01*
X24045000Y-40584148D01*
X24155869Y-41141523D01*
X24373346Y-41666560D01*
X24689074Y-42139080D01*
X25090920Y-42540926D01*
X25563440Y-42856654D01*
X26088477Y-43074131D01*
X26645852Y-43185000D01*
X27214148Y-43185000D01*
X27771523Y-43074131D01*
X28296560Y-42856654D01*
X28769080Y-42540926D01*
X29170926Y-42139080D01*
X29486654Y-41666560D01*
X29704131Y-41141523D01*
X29815000Y-40584148D01*
X29815000Y-40015852D01*
X29704131Y-39458477D01*
X29486654Y-38933440D01*
X29170926Y-38460920D01*
X28769080Y-38059074D01*
X28296560Y-37743346D01*
X27771523Y-37525869D01*
X27214148Y-37415000D01*
X26645852Y-37415000D01*
X26088477Y-37525869D01*
X25563440Y-37743346D01*
X25090920Y-38059074D01*
X24689074Y-38460920D01*
X24373346Y-38933440D01*
X24155869Y-39458477D01*
X24045000Y-40015852D01*
X16610953Y-40015852D01*
X16614131Y-35625852D01*
X33545000Y-35625852D01*
X33545000Y-36194148D01*
X33655869Y-36751523D01*
X33873346Y-37276560D01*
X34189074Y-37749080D01*
X34590920Y-38150926D01*
X35063440Y-38466654D01*
X35588477Y-38684131D01*
X36145852Y-38795000D01*
X36714148Y-38795000D01*
X37271523Y-38684131D01*
X37796560Y-38466654D01*
X38269080Y-38150926D01*
X38670926Y-37749080D01*
X38986654Y-37276560D01*
X39204131Y-36751523D01*
X39254162Y-36500000D01*
X40781928Y-36500000D01*
X40794188Y-36624482D01*
X40830498Y-36744180D01*
X40889463Y-36854494D01*
X40968815Y-36951185D01*
X41065506Y-37030537D01*
X41175820Y-37089502D01*
X41295518Y-37125812D01*
X41420000Y-37138072D01*
X43384250Y-37135000D01*
X43543000Y-36976250D01*
X43543000Y-34377000D01*
X40943750Y-34377000D01*
X40785000Y-34535750D01*
X40781928Y-36500000D01*
X39254162Y-36500000D01*
X39315000Y-36194148D01*
X39315000Y-35625852D01*
X39204131Y-35068477D01*
X38986654Y-34543440D01*
X38670926Y-34070920D01*
X38269080Y-33669074D01*
X37796560Y-33353346D01*
X37271523Y-33135869D01*
X36714148Y-33025000D01*
X36145852Y-33025000D01*
X35588477Y-33135869D01*
X35063440Y-33353346D01*
X34590920Y-33669074D01*
X34189074Y-34070920D01*
X33873346Y-34543440D01*
X33655869Y-35068477D01*
X33545000Y-35625852D01*
X16614131Y-35625852D01*
X16629522Y-14370000D01*
X38655198Y-14370000D01*
X32018998Y-21006201D01*
G37*
%TD.AperFunction*%
%TD*%
M02*
