M48
; DRILL file {KiCad (5.1.9)-1} date 08/20/21 18:58:36
; FORMAT={-:-/ absolute / inch / decimal}
; #@! TF.CreationDate,2021-08-20T18:58:36+01:00
; #@! TF.GenerationSoftware,Kicad,Pcbnew,(5.1.9)-1
; #@! TF.FileFunction,Plated,1,2,PTH
FMAT,2
INCH
T1C0.0394
T2C0.1063
%
G90
G05
T1
X1.9409Y-0.7039
X2.0409Y-0.7039
X2.1409Y-0.7039
X2.2409Y-0.7039
X2.3409Y-0.7039
X2.4409Y-0.7039
X2.5409Y-0.7039
X2.6409Y-0.7039
X2.7409Y-0.7039
X2.8409Y-0.7039
X2.9409Y-0.7039
X3.0409Y-0.7039
T2
X0.7886Y-1.8583
X0.7886Y-2.8421
X0.9421Y-2.0906
X0.9421Y-3.0744
X1.0602Y-1.5866
X1.0602Y-2.5705
X1.2272Y-2.0252
X1.2272Y-3.0091
X1.2807Y-1.1815
X1.2925Y-1.7402
X1.2925Y-2.724
X1.4343Y-1.4138
X1.5524Y-0.9098
X1.7193Y-1.3484
X1.772Y-1.8583
X1.7728Y-2.8417
X1.7846Y-1.0634
X1.9256Y-2.0906
X1.9264Y-3.074
X2.0437Y-1.5866
X2.0445Y-2.5701
X2.2106Y-2.0252
X2.2114Y-3.0087
X2.276Y-1.7402
X2.2768Y-2.7236
X2.7571Y-1.8579
X2.7575Y-2.8386
X2.9106Y-2.0902
X2.911Y-3.0709
X3.0287Y-1.5862
X3.0291Y-2.5669
X3.1957Y-2.0248
X3.1961Y-3.0055
X3.261Y-1.7398
X3.2614Y-2.7205
X3.7413Y-2.8421
X3.7417Y-1.8583
X3.8949Y-3.0744
X3.8953Y-2.0906
X4.013Y-2.5705
X4.0134Y-1.5866
X4.1799Y-3.0091
X4.1803Y-2.0252
X4.2453Y-2.724
X4.2457Y-1.7402
T0
M30
