%TF.GenerationSoftware,KiCad,Pcbnew,(5.1.9)-1*%
%TF.CreationDate,2021-08-20T18:58:32+01:00*%
%TF.ProjectId,KOSMOS LFO6 Jack Panel,4b4f534d-4f53-4204-9c46-4f36204a6163,rev?*%
%TF.SameCoordinates,Original*%
%TF.FileFunction,OtherDrawing,Comment*%
%FSLAX46Y46*%
G04 Gerber Fmt 4.6, Leading zero omitted, Abs format (unit mm)*
G04 Created by KiCad (PCBNEW (5.1.9)-1) date 2021-08-20 18:58:32*
%MOMM*%
%LPD*%
G01*
G04 APERTURE LIST*
%ADD10C,0.625000*%
%ADD11C,0.312500*%
%ADD12C,0.200000*%
%ADD13C,0.120000*%
G04 APERTURE END LIST*
D10*
X296561952Y-1513247591D02*
X295704809Y-1513247591D01*
X295276237Y-1513485687D01*
X295061952Y-1513723782D01*
X294633380Y-1514438067D01*
X294419094Y-1515390448D01*
X294419094Y-1517295210D01*
X294633380Y-1517771401D01*
X294847666Y-1518009496D01*
X295276237Y-1518247591D01*
X296133380Y-1518247591D01*
X296561952Y-1518009496D01*
X296776237Y-1517771401D01*
X296990523Y-1517295210D01*
X296990523Y-1516104734D01*
X296776237Y-1515628544D01*
X296561952Y-1515390448D01*
X296133380Y-1515152353D01*
X295276237Y-1515152353D01*
X294847666Y-1515390448D01*
X294633380Y-1515628544D01*
X294419094Y-1516104734D01*
X302347666Y-1516342829D02*
X305776237Y-1516342829D01*
X304061952Y-1518247591D02*
X304061952Y-1514438067D01*
X313704809Y-1518247591D02*
X311133380Y-1518247591D01*
X312419094Y-1518247591D02*
X312419094Y-1513247591D01*
X311990523Y-1513961877D01*
X311561952Y-1514438067D01*
X311133380Y-1514676163D01*
D11*
X288195069Y-1498923309D02*
X287980784Y-1498804261D01*
X287659355Y-1498804261D01*
X287337926Y-1498923309D01*
X287123641Y-1499161404D01*
X287016498Y-1499399499D01*
X286909355Y-1499875689D01*
X286909355Y-1500232832D01*
X287016498Y-1500709023D01*
X287123641Y-1500947118D01*
X287337926Y-1501185213D01*
X287659355Y-1501304261D01*
X287873641Y-1501304261D01*
X288195069Y-1501185213D01*
X288302212Y-1501066166D01*
X288302212Y-1500232832D01*
X287873641Y-1500232832D01*
X290337926Y-1501304261D02*
X289266498Y-1501304261D01*
X289266498Y-1498804261D01*
X291516498Y-1498804261D02*
X291945069Y-1498804261D01*
X292159355Y-1498923309D01*
X292373641Y-1499161404D01*
X292480784Y-1499637594D01*
X292480784Y-1500470928D01*
X292373641Y-1500947118D01*
X292159355Y-1501185213D01*
X291945069Y-1501304261D01*
X291516498Y-1501304261D01*
X291302212Y-1501185213D01*
X291087926Y-1500947118D01*
X290980784Y-1500470928D01*
X290980784Y-1499637594D01*
X291087926Y-1499161404D01*
X291302212Y-1498923309D01*
X291516498Y-1498804261D01*
X294195069Y-1499994737D02*
X294516498Y-1500113785D01*
X294623641Y-1500232832D01*
X294730784Y-1500470928D01*
X294730784Y-1500828070D01*
X294623641Y-1501066166D01*
X294516498Y-1501185213D01*
X294302212Y-1501304261D01*
X293445069Y-1501304261D01*
X293445069Y-1498804261D01*
X294195069Y-1498804261D01*
X294409355Y-1498923309D01*
X294516498Y-1499042356D01*
X294623641Y-1499280451D01*
X294623641Y-1499518547D01*
X294516498Y-1499756642D01*
X294409355Y-1499875689D01*
X294195069Y-1499994737D01*
X293445069Y-1499994737D01*
X295587926Y-1500589975D02*
X296659355Y-1500589975D01*
X295373641Y-1501304261D02*
X296123641Y-1498804261D01*
X296873641Y-1501304261D01*
X298695069Y-1501304261D02*
X297623641Y-1501304261D01*
X297623641Y-1498804261D01*
X301052212Y-1501185213D02*
X301373641Y-1501304261D01*
X301909355Y-1501304261D01*
X302123641Y-1501185213D01*
X302230784Y-1501066166D01*
X302337926Y-1500828070D01*
X302337926Y-1500589975D01*
X302230784Y-1500351880D01*
X302123641Y-1500232832D01*
X301909355Y-1500113785D01*
X301480784Y-1499994737D01*
X301266498Y-1499875689D01*
X301159355Y-1499756642D01*
X301052212Y-1499518547D01*
X301052212Y-1499280451D01*
X301159355Y-1499042356D01*
X301266498Y-1498923309D01*
X301480784Y-1498804261D01*
X302016498Y-1498804261D01*
X302337926Y-1498923309D01*
X303302212Y-1501304261D02*
X303302212Y-1498804261D01*
X304159355Y-1498804261D01*
X304373641Y-1498923309D01*
X304480784Y-1499042356D01*
X304587926Y-1499280451D01*
X304587926Y-1499637594D01*
X304480784Y-1499875689D01*
X304373641Y-1499994737D01*
X304159355Y-1500113785D01*
X303302212Y-1500113785D01*
X305552212Y-1499994737D02*
X306302212Y-1499994737D01*
X306623641Y-1501304261D02*
X305552212Y-1501304261D01*
X305552212Y-1498804261D01*
X306623641Y-1498804261D01*
X307587926Y-1499994737D02*
X308337926Y-1499994737D01*
X308659355Y-1501304261D02*
X307587926Y-1501304261D01*
X307587926Y-1498804261D01*
X308659355Y-1498804261D01*
X309623641Y-1501304261D02*
X309623641Y-1498804261D01*
X310159355Y-1498804261D01*
X310480784Y-1498923309D01*
X310695069Y-1499161404D01*
X310802212Y-1499399499D01*
X310909355Y-1499875689D01*
X310909355Y-1500232832D01*
X310802212Y-1500709023D01*
X310695069Y-1500947118D01*
X310480784Y-1501185213D01*
X310159355Y-1501304261D01*
X309623641Y-1501304261D01*
X1172455102Y288012142D02*
X1172347959Y287893095D01*
X1172026531Y287774047D01*
X1171812245Y287774047D01*
X1171490816Y287893095D01*
X1171276531Y288131190D01*
X1171169388Y288369285D01*
X1171062245Y288845476D01*
X1171062245Y289202619D01*
X1171169388Y289678809D01*
X1171276531Y289916904D01*
X1171490816Y290155000D01*
X1171812245Y290274047D01*
X1172026531Y290274047D01*
X1172347959Y290155000D01*
X1172455102Y290035952D01*
X1173097959Y290274047D02*
X1173847959Y287774047D01*
X1174597959Y290274047D01*
X334837259Y-1518366639D02*
X333765831Y-1518366639D01*
X333765831Y-1515866639D01*
X336337259Y-1517057115D02*
X335587259Y-1517057115D01*
X335587259Y-1518366639D02*
X335587259Y-1515866639D01*
X336658688Y-1515866639D01*
X337944402Y-1515866639D02*
X338372974Y-1515866639D01*
X338587259Y-1515985687D01*
X338801545Y-1516223782D01*
X338908688Y-1516699972D01*
X338908688Y-1517533306D01*
X338801545Y-1518009496D01*
X338587259Y-1518247591D01*
X338372974Y-1518366639D01*
X337944402Y-1518366639D01*
X337730117Y-1518247591D01*
X337515831Y-1518009496D01*
X337408688Y-1517533306D01*
X337408688Y-1516699972D01*
X337515831Y-1516223782D01*
X337730117Y-1515985687D01*
X337944402Y-1515866639D01*
X342551545Y-1516699972D02*
X342551545Y-1518366639D01*
X342015831Y-1515747591D02*
X341480117Y-1517533306D01*
X342872974Y-1517533306D01*
X312113226Y-1515866639D02*
X313506083Y-1515866639D01*
X312756083Y-1516819020D01*
X313077512Y-1516819020D01*
X313291798Y-1516938067D01*
X313398940Y-1517057115D01*
X313506083Y-1517295210D01*
X313506083Y-1517890448D01*
X313398940Y-1518128544D01*
X313291798Y-1518247591D01*
X313077512Y-1518366639D01*
X312434655Y-1518366639D01*
X312220369Y-1518247591D01*
X312113226Y-1518128544D01*
X263272454Y-1518366639D02*
X261986740Y-1518366639D01*
X262629597Y-1518366639D02*
X262629597Y-1515866639D01*
X262415311Y-1516223782D01*
X262201026Y-1516461877D01*
X261986740Y-1516580925D01*
X1171062245Y290035952D02*
X1171169388Y290155000D01*
X1171383674Y290274047D01*
X1171919388Y290274047D01*
X1172133674Y290155000D01*
X1172240816Y290035952D01*
X1172347959Y289797857D01*
X1172347959Y289559761D01*
X1172240816Y289202619D01*
X1170955102Y287774047D01*
X1172347959Y287774047D01*
X1172347959Y287774047D02*
X1171062245Y287774047D01*
X1171705102Y287774047D02*
X1171705102Y290274047D01*
X1171490816Y289916904D01*
X1171276531Y289678809D01*
X1171062245Y289559761D01*
X1172133674Y289440714D02*
X1172133674Y287774047D01*
X1171597959Y290393095D02*
X1171062245Y288607380D01*
X1172455102Y288607380D01*
X338394117Y-1516699972D02*
X338394117Y-1518366639D01*
X337858402Y-1515747591D02*
X337322688Y-1517533306D01*
X338715545Y-1517533306D01*
X335222495Y-1501304261D02*
X334151067Y-1501304261D01*
X334151067Y-1498804261D01*
X336722495Y-1499994737D02*
X335972495Y-1499994737D01*
X335972495Y-1501304261D02*
X335972495Y-1498804261D01*
X337043924Y-1498804261D01*
X338329638Y-1498804261D02*
X338758210Y-1498804261D01*
X338972495Y-1498923309D01*
X339186781Y-1499161404D01*
X339293924Y-1499637594D01*
X339293924Y-1500470928D01*
X339186781Y-1500947118D01*
X338972495Y-1501185213D01*
X338758210Y-1501304261D01*
X338329638Y-1501304261D01*
X338115353Y-1501185213D01*
X337901067Y-1500947118D01*
X337793924Y-1500470928D01*
X337793924Y-1499637594D01*
X337901067Y-1499161404D01*
X338115353Y-1498923309D01*
X338329638Y-1498804261D01*
X343151067Y-1501304261D02*
X341865353Y-1501304261D01*
X342508210Y-1501304261D02*
X342508210Y-1498804261D01*
X342293924Y-1499161404D01*
X342079638Y-1499399499D01*
X341865353Y-1499518547D01*
X296592352Y-1518366639D02*
X295520924Y-1518366639D01*
X295520924Y-1515866639D01*
X298092352Y-1517057115D02*
X297342352Y-1517057115D01*
X297342352Y-1518366639D02*
X297342352Y-1515866639D01*
X298413781Y-1515866639D01*
X299699495Y-1515866639D02*
X300128067Y-1515866639D01*
X300342352Y-1515985687D01*
X300556638Y-1516223782D01*
X300663781Y-1516699972D01*
X300663781Y-1517533306D01*
X300556638Y-1518009496D01*
X300342352Y-1518247591D01*
X300128067Y-1518366639D01*
X299699495Y-1518366639D01*
X299485210Y-1518247591D01*
X299270924Y-1518009496D01*
X299163781Y-1517533306D01*
X299163781Y-1516699972D01*
X299270924Y-1516223782D01*
X299485210Y-1515985687D01*
X299699495Y-1515866639D01*
X303128067Y-1515866639D02*
X304520924Y-1515866639D01*
X303770924Y-1516819020D01*
X304092352Y-1516819020D01*
X304306638Y-1516938067D01*
X304413781Y-1517057115D01*
X304520924Y-1517295210D01*
X304520924Y-1517890448D01*
X304413781Y-1518128544D01*
X304306638Y-1518247591D01*
X304092352Y-1518366639D01*
X303449495Y-1518366639D01*
X303235210Y-1518247591D01*
X303128067Y-1518128544D01*
X1170955102Y290274047D02*
X1172347959Y290274047D01*
X1171597959Y289321666D01*
X1171919388Y289321666D01*
X1172133674Y289202619D01*
X1172240816Y289083571D01*
X1172347959Y288845476D01*
X1172347959Y288250238D01*
X1172240816Y288012142D01*
X1172133674Y287893095D01*
X1171919388Y287774047D01*
X1171276531Y287774047D01*
X1171062245Y287893095D01*
X1170955102Y288012142D01*
X258910198Y-1518366639D02*
X257838770Y-1518366639D01*
X257838770Y-1515866639D01*
X260410198Y-1517057115D02*
X259660198Y-1517057115D01*
X259660198Y-1518366639D02*
X259660198Y-1515866639D01*
X260731627Y-1515866639D01*
X262017341Y-1515866639D02*
X262445913Y-1515866639D01*
X262660198Y-1515985687D01*
X262874484Y-1516223782D01*
X262981627Y-1516699972D01*
X262981627Y-1517533306D01*
X262874484Y-1518009496D01*
X262660198Y-1518247591D01*
X262445913Y-1518366639D01*
X262017341Y-1518366639D01*
X261803056Y-1518247591D01*
X261588770Y-1518009496D01*
X261481627Y-1517533306D01*
X261481627Y-1516699972D01*
X261588770Y-1516223782D01*
X261803056Y-1515985687D01*
X262017341Y-1515866639D01*
X265553056Y-1516104734D02*
X265660198Y-1515985687D01*
X265874484Y-1515866639D01*
X266410198Y-1515866639D01*
X266624484Y-1515985687D01*
X266731627Y-1516104734D01*
X266838770Y-1516342829D01*
X266838770Y-1516580925D01*
X266731627Y-1516938067D01*
X265445913Y-1518366639D01*
X266838770Y-1518366639D01*
X261587992Y-1501064460D02*
X261480849Y-1501183507D01*
X261159421Y-1501302555D01*
X260945135Y-1501302555D01*
X260623706Y-1501183507D01*
X260409421Y-1500945412D01*
X260302278Y-1500707317D01*
X260195135Y-1500231126D01*
X260195135Y-1499873983D01*
X260302278Y-1499397793D01*
X260409421Y-1499159698D01*
X260623706Y-1498921603D01*
X260945135Y-1498802555D01*
X261159421Y-1498802555D01*
X261480849Y-1498921603D01*
X261587992Y-1499040650D01*
X262230849Y-1498802555D02*
X262980849Y-1501302555D01*
X263730849Y-1498802555D01*
X274561192Y-1518128544D02*
X274454049Y-1518247591D01*
X274132621Y-1518366639D01*
X273918335Y-1518366639D01*
X273596906Y-1518247591D01*
X273382621Y-1518009496D01*
X273275478Y-1517771401D01*
X273168335Y-1517295210D01*
X273168335Y-1516938067D01*
X273275478Y-1516461877D01*
X273382621Y-1516223782D01*
X273596906Y-1515985687D01*
X273918335Y-1515866639D01*
X274132621Y-1515866639D01*
X274454049Y-1515985687D01*
X274561192Y-1516104734D01*
X275204049Y-1515866639D02*
X275954049Y-1518366639D01*
X276704049Y-1515866639D01*
D10*
X1173836799Y292893095D02*
X1172979656Y292893095D01*
X1172551084Y292655000D01*
X1172336799Y292416904D01*
X1171908227Y291702619D01*
X1171693941Y290750238D01*
X1171693941Y288845476D01*
X1171908227Y288369285D01*
X1172122513Y288131190D01*
X1172551084Y287893095D01*
X1173408227Y287893095D01*
X1173836799Y288131190D01*
X1174051084Y288369285D01*
X1174265370Y288845476D01*
X1174265370Y290035952D01*
X1174051084Y290512142D01*
X1173836799Y290750238D01*
X1173408227Y290988333D01*
X1172551084Y290988333D01*
X1172122513Y290750238D01*
X1171908227Y290512142D01*
X1171693941Y290035952D01*
X1179622513Y289797857D02*
X1183051084Y289797857D01*
X1181336799Y287893095D02*
X1181336799Y291702619D01*
X1190979656Y287893095D02*
X1188408227Y287893095D01*
X1189693941Y287893095D02*
X1189693941Y292893095D01*
X1189265370Y292178809D01*
X1188836799Y291702619D01*
X1188408227Y291464523D01*
D11*
X287264707Y-1516104734D02*
X287371850Y-1515985687D01*
X287586136Y-1515866639D01*
X288121850Y-1515866639D01*
X288336136Y-1515985687D01*
X288443278Y-1516104734D01*
X288550421Y-1516342829D01*
X288550421Y-1516580925D01*
X288443278Y-1516938067D01*
X287157564Y-1518366639D01*
X288550421Y-1518366639D01*
D10*
X291692507Y-1466827399D02*
X292335364Y-1467065494D01*
X292549650Y-1467303589D01*
X292763936Y-1467779780D01*
X292763936Y-1468494065D01*
X292549650Y-1468970256D01*
X292335364Y-1469208351D01*
X291906793Y-1469446446D01*
X290192507Y-1469446446D01*
X290192507Y-1464446446D01*
X291692507Y-1464446446D01*
X292121079Y-1464684542D01*
X292335364Y-1464922637D01*
X292549650Y-1465398827D01*
X292549650Y-1465875018D01*
X292335364Y-1466351208D01*
X292121079Y-1466589303D01*
X291692507Y-1466827399D01*
X290192507Y-1466827399D01*
X297263936Y-1469446446D02*
X295763936Y-1467065494D01*
X294692507Y-1469446446D02*
X294692507Y-1464446446D01*
X296406793Y-1464446446D01*
X296835364Y-1464684542D01*
X297049650Y-1464922637D01*
X297263936Y-1465398827D01*
X297263936Y-1466113113D01*
X297049650Y-1466589303D01*
X296835364Y-1466827399D01*
X296406793Y-1467065494D01*
X294692507Y-1467065494D01*
X299192507Y-1466827399D02*
X300692507Y-1466827399D01*
X301335364Y-1469446446D02*
X299192507Y-1469446446D01*
X299192507Y-1464446446D01*
X301335364Y-1464446446D01*
X303263936Y-1469446446D02*
X303263936Y-1464446446D01*
X305835364Y-1469446446D01*
X305835364Y-1464446446D01*
X307978221Y-1469446446D02*
X307978221Y-1464446446D01*
X310549650Y-1469446446D01*
X310549650Y-1464446446D01*
D11*
X1088654726Y289440714D02*
X1088654726Y287774047D01*
X1088119011Y290393095D02*
X1087583297Y288607380D01*
X1088976154Y288607380D01*
X1062373835Y290274047D02*
X1063766692Y290274047D01*
X1063016692Y289321666D01*
X1063338121Y289321666D01*
X1063552407Y289202619D01*
X1063659549Y289083571D01*
X1063766692Y288845476D01*
X1063766692Y288250238D01*
X1063659549Y288012142D01*
X1063552407Y287893095D01*
X1063338121Y287774047D01*
X1062695264Y287774047D01*
X1062480978Y287893095D01*
X1062373835Y288012142D01*
X296592352Y287774047D02*
X295520924Y287774047D01*
X295520924Y290274047D01*
X298092352Y289083571D02*
X297342352Y289083571D01*
X297342352Y287774047D02*
X297342352Y290274047D01*
X298413781Y290274047D01*
X299699495Y290274047D02*
X300128067Y290274047D01*
X300342352Y290155000D01*
X300556638Y289916904D01*
X300663781Y289440714D01*
X300663781Y288607380D01*
X300556638Y288131190D01*
X300342352Y287893095D01*
X300128067Y287774047D01*
X299699495Y287774047D01*
X299485210Y287893095D01*
X299270924Y288131190D01*
X299163781Y288607380D01*
X299163781Y289440714D01*
X299270924Y289916904D01*
X299485210Y290155000D01*
X299699495Y290274047D01*
X303128067Y290274047D02*
X304520924Y290274047D01*
X303770924Y289321666D01*
X304092352Y289321666D01*
X304306638Y289202619D01*
X304413781Y289083571D01*
X304520924Y288845476D01*
X304520924Y288250238D01*
X304413781Y288012142D01*
X304306638Y287893095D01*
X304092352Y287774047D01*
X303449495Y287774047D01*
X303235210Y287893095D01*
X303128067Y288012142D01*
X258910198Y287774047D02*
X257838770Y287774047D01*
X257838770Y290274047D01*
X260410198Y289083571D02*
X259660198Y289083571D01*
X259660198Y287774047D02*
X259660198Y290274047D01*
X260731627Y290274047D01*
X262017341Y290274047D02*
X262445913Y290274047D01*
X262660198Y290155000D01*
X262874484Y289916904D01*
X262981627Y289440714D01*
X262981627Y288607380D01*
X262874484Y288131190D01*
X262660198Y287893095D01*
X262445913Y287774047D01*
X262017341Y287774047D01*
X261803056Y287893095D01*
X261588770Y288131190D01*
X261481627Y288607380D01*
X261481627Y289440714D01*
X261588770Y289916904D01*
X261803056Y290155000D01*
X262017341Y290274047D01*
X265553056Y290035952D02*
X265660198Y290155000D01*
X265874484Y290274047D01*
X266410198Y290274047D01*
X266624484Y290155000D01*
X266731627Y290035952D01*
X266838770Y289797857D01*
X266838770Y289559761D01*
X266731627Y289202619D01*
X265445913Y287774047D01*
X266838770Y287774047D01*
X1037525316Y290035952D02*
X1037632459Y290155000D01*
X1037846745Y290274047D01*
X1038382459Y290274047D01*
X1038596745Y290155000D01*
X1038703887Y290035952D01*
X1038811030Y289797857D01*
X1038811030Y289559761D01*
X1038703887Y289202619D01*
X1037418173Y287774047D01*
X1038811030Y287774047D01*
X1011848600Y288012142D02*
X1011741457Y287893095D01*
X1011420029Y287774047D01*
X1011205743Y287774047D01*
X1010884314Y287893095D01*
X1010670029Y288131190D01*
X1010562886Y288369285D01*
X1010455743Y288845476D01*
X1010455743Y289202619D01*
X1010562886Y289678809D01*
X1010670029Y289916904D01*
X1010884314Y290155000D01*
X1011205743Y290274047D01*
X1011420029Y290274047D01*
X1011741457Y290155000D01*
X1011848600Y290035952D01*
X1012491457Y290274047D02*
X1013241457Y287774047D01*
X1013991457Y290274047D01*
X263272454Y287774047D02*
X261986740Y287774047D01*
X262629597Y287774047D02*
X262629597Y290274047D01*
X262415311Y289916904D01*
X262201026Y289678809D01*
X261986740Y289559761D01*
X806170407Y287774047D02*
X805098979Y287774047D01*
X805098979Y290274047D01*
X807670407Y289083571D02*
X806920407Y289083571D01*
X806920407Y287774047D02*
X806920407Y290274047D01*
X807991836Y290274047D01*
X809277550Y290274047D02*
X809706122Y290274047D01*
X809920407Y290155000D01*
X810134693Y289916904D01*
X810241836Y289440714D01*
X810241836Y288607380D01*
X810134693Y288131190D01*
X809920407Y287893095D01*
X809706122Y287774047D01*
X809277550Y287774047D01*
X809063265Y287893095D01*
X808848979Y288131190D01*
X808741836Y288607380D01*
X808741836Y289440714D01*
X808848979Y289916904D01*
X809063265Y290155000D01*
X809277550Y290274047D01*
X812706122Y290274047D02*
X814098979Y290274047D01*
X813348979Y289321666D01*
X813670407Y289321666D01*
X813884693Y289202619D01*
X813991836Y289083571D01*
X814098979Y288845476D01*
X814098979Y288250238D01*
X813991836Y288012142D01*
X813884693Y287893095D01*
X813670407Y287774047D01*
X813027550Y287774047D01*
X812813265Y287893095D01*
X812706122Y288012142D01*
D10*
X291692507Y290512142D02*
X292335364Y290274047D01*
X292549650Y290035952D01*
X292763936Y289559761D01*
X292763936Y288845476D01*
X292549650Y288369285D01*
X292335364Y288131190D01*
X291906793Y287893095D01*
X290192507Y287893095D01*
X290192507Y292893095D01*
X291692507Y292893095D01*
X292121079Y292655000D01*
X292335364Y292416904D01*
X292549650Y291940714D01*
X292549650Y291464523D01*
X292335364Y290988333D01*
X292121079Y290750238D01*
X291692507Y290512142D01*
X290192507Y290512142D01*
X297263936Y287893095D02*
X295763936Y290274047D01*
X294692507Y287893095D02*
X294692507Y292893095D01*
X296406793Y292893095D01*
X296835364Y292655000D01*
X297049650Y292416904D01*
X297263936Y291940714D01*
X297263936Y291226428D01*
X297049650Y290750238D01*
X296835364Y290512142D01*
X296406793Y290274047D01*
X294692507Y290274047D01*
X299192507Y290512142D02*
X300692507Y290512142D01*
X301335364Y287893095D02*
X299192507Y287893095D01*
X299192507Y292893095D01*
X301335364Y292893095D01*
X303263936Y287893095D02*
X303263936Y292893095D01*
X305835364Y287893095D01*
X305835364Y292893095D01*
X307978221Y287893095D02*
X307978221Y292893095D01*
X310549650Y287893095D01*
X310549650Y292893095D01*
D11*
X288195069Y290155000D02*
X287980784Y290274047D01*
X287659355Y290274047D01*
X287337926Y290155000D01*
X287123641Y289916904D01*
X287016498Y289678809D01*
X286909355Y289202619D01*
X286909355Y288845476D01*
X287016498Y288369285D01*
X287123641Y288131190D01*
X287337926Y287893095D01*
X287659355Y287774047D01*
X287873641Y287774047D01*
X288195069Y287893095D01*
X288302212Y288012142D01*
X288302212Y288845476D01*
X287873641Y288845476D01*
X290337926Y287774047D02*
X289266498Y287774047D01*
X289266498Y290274047D01*
X291516498Y290274047D02*
X291945069Y290274047D01*
X292159355Y290155000D01*
X292373641Y289916904D01*
X292480784Y289440714D01*
X292480784Y288607380D01*
X292373641Y288131190D01*
X292159355Y287893095D01*
X291945069Y287774047D01*
X291516498Y287774047D01*
X291302212Y287893095D01*
X291087926Y288131190D01*
X290980784Y288607380D01*
X290980784Y289440714D01*
X291087926Y289916904D01*
X291302212Y290155000D01*
X291516498Y290274047D01*
X294195069Y289083571D02*
X294516498Y288964523D01*
X294623641Y288845476D01*
X294730784Y288607380D01*
X294730784Y288250238D01*
X294623641Y288012142D01*
X294516498Y287893095D01*
X294302212Y287774047D01*
X293445069Y287774047D01*
X293445069Y290274047D01*
X294195069Y290274047D01*
X294409355Y290155000D01*
X294516498Y290035952D01*
X294623641Y289797857D01*
X294623641Y289559761D01*
X294516498Y289321666D01*
X294409355Y289202619D01*
X294195069Y289083571D01*
X293445069Y289083571D01*
X295587926Y288488333D02*
X296659355Y288488333D01*
X295373641Y287774047D02*
X296123641Y290274047D01*
X296873641Y287774047D01*
X298695069Y287774047D02*
X297623641Y287774047D01*
X297623641Y290274047D01*
X301052212Y287893095D02*
X301373641Y287774047D01*
X301909355Y287774047D01*
X302123641Y287893095D01*
X302230784Y288012142D01*
X302337926Y288250238D01*
X302337926Y288488333D01*
X302230784Y288726428D01*
X302123641Y288845476D01*
X301909355Y288964523D01*
X301480784Y289083571D01*
X301266498Y289202619D01*
X301159355Y289321666D01*
X301052212Y289559761D01*
X301052212Y289797857D01*
X301159355Y290035952D01*
X301266498Y290155000D01*
X301480784Y290274047D01*
X302016498Y290274047D01*
X302337926Y290155000D01*
X303302212Y287774047D02*
X303302212Y290274047D01*
X304159355Y290274047D01*
X304373641Y290155000D01*
X304480784Y290035952D01*
X304587926Y289797857D01*
X304587926Y289440714D01*
X304480784Y289202619D01*
X304373641Y289083571D01*
X304159355Y288964523D01*
X303302212Y288964523D01*
X305552212Y289083571D02*
X306302212Y289083571D01*
X306623641Y287774047D02*
X305552212Y287774047D01*
X305552212Y290274047D01*
X306623641Y290274047D01*
X307587926Y289083571D02*
X308337926Y289083571D01*
X308659355Y287774047D02*
X307587926Y287774047D01*
X307587926Y290274047D01*
X308659355Y290274047D01*
X309623641Y287774047D02*
X309623641Y290274047D01*
X310159355Y290274047D01*
X310480784Y290155000D01*
X310695069Y289916904D01*
X310802212Y289678809D01*
X310909355Y289202619D01*
X310909355Y288845476D01*
X310802212Y288369285D01*
X310695069Y288131190D01*
X310480784Y287893095D01*
X310159355Y287774047D01*
X309623641Y287774047D01*
X335222495Y287774047D02*
X334151067Y287774047D01*
X334151067Y290274047D01*
X336722495Y289083571D02*
X335972495Y289083571D01*
X335972495Y287774047D02*
X335972495Y290274047D01*
X337043924Y290274047D01*
X338329638Y290274047D02*
X338758210Y290274047D01*
X338972495Y290155000D01*
X339186781Y289916904D01*
X339293924Y289440714D01*
X339293924Y288607380D01*
X339186781Y288131190D01*
X338972495Y287893095D01*
X338758210Y287774047D01*
X338329638Y287774047D01*
X338115353Y287893095D01*
X337901067Y288131190D01*
X337793924Y288607380D01*
X337793924Y289440714D01*
X337901067Y289916904D01*
X338115353Y290155000D01*
X338329638Y290274047D01*
X343151067Y287774047D02*
X341865353Y287774047D01*
X342508210Y287774047D02*
X342508210Y290274047D01*
X342293924Y289916904D01*
X342079638Y289678809D01*
X341865353Y289559761D01*
X287264707Y190328231D02*
X287371850Y190447279D01*
X287586136Y190566326D01*
X288121850Y190566326D01*
X288336136Y190447279D01*
X288443278Y190328231D01*
X288550421Y190090136D01*
X288550421Y189852040D01*
X288443278Y189494898D01*
X287157564Y188066326D01*
X288550421Y188066326D01*
X287264707Y290035952D02*
X287371850Y290155000D01*
X287586136Y290274047D01*
X288121850Y290274047D01*
X288336136Y290155000D01*
X288443278Y290035952D01*
X288550421Y289797857D01*
X288550421Y289559761D01*
X288443278Y289202619D01*
X287157564Y287774047D01*
X288550421Y287774047D01*
X768488254Y287774047D02*
X767416826Y287774047D01*
X767416826Y290274047D01*
X769988254Y289083571D02*
X769238254Y289083571D01*
X769238254Y287774047D02*
X769238254Y290274047D01*
X770309683Y290274047D01*
X771595397Y290274047D02*
X772023969Y290274047D01*
X772238254Y290155000D01*
X772452540Y289916904D01*
X772559683Y289440714D01*
X772559683Y288607380D01*
X772452540Y288131190D01*
X772238254Y287893095D01*
X772023969Y287774047D01*
X771595397Y287774047D01*
X771381112Y287893095D01*
X771166826Y288131190D01*
X771059683Y288607380D01*
X771059683Y289440714D01*
X771166826Y289916904D01*
X771381112Y290155000D01*
X771595397Y290274047D01*
X775131112Y290035952D02*
X775238254Y290155000D01*
X775452540Y290274047D01*
X775988254Y290274047D01*
X776202540Y290155000D01*
X776309683Y290035952D01*
X776416826Y289797857D01*
X776416826Y289559761D01*
X776309683Y289202619D01*
X775023969Y287774047D01*
X776416826Y287774047D01*
X771166047Y288012142D02*
X771058904Y287893095D01*
X770737476Y287774047D01*
X770523190Y287774047D01*
X770201761Y287893095D01*
X769987476Y288131190D01*
X769880333Y288369285D01*
X769773190Y288845476D01*
X769773190Y289202619D01*
X769880333Y289678809D01*
X769987476Y289916904D01*
X770201761Y290155000D01*
X770523190Y290274047D01*
X770737476Y290274047D01*
X771058904Y290155000D01*
X771166047Y290035952D01*
X771808904Y290274047D02*
X772558904Y287774047D01*
X773308904Y290274047D01*
X288195069Y290155000D02*
X287980784Y290274047D01*
X287659355Y290274047D01*
X287337926Y290155000D01*
X287123641Y289916904D01*
X287016498Y289678809D01*
X286909355Y289202619D01*
X286909355Y288845476D01*
X287016498Y288369285D01*
X287123641Y288131190D01*
X287337926Y287893095D01*
X287659355Y287774047D01*
X287873641Y287774047D01*
X288195069Y287893095D01*
X288302212Y288012142D01*
X288302212Y288845476D01*
X287873641Y288845476D01*
X290337926Y287774047D02*
X289266498Y287774047D01*
X289266498Y290274047D01*
X291516498Y290274047D02*
X291945069Y290274047D01*
X292159355Y290155000D01*
X292373641Y289916904D01*
X292480784Y289440714D01*
X292480784Y288607380D01*
X292373641Y288131190D01*
X292159355Y287893095D01*
X291945069Y287774047D01*
X291516498Y287774047D01*
X291302212Y287893095D01*
X291087926Y288131190D01*
X290980784Y288607380D01*
X290980784Y289440714D01*
X291087926Y289916904D01*
X291302212Y290155000D01*
X291516498Y290274047D01*
X294195069Y289083571D02*
X294516498Y288964523D01*
X294623641Y288845476D01*
X294730784Y288607380D01*
X294730784Y288250238D01*
X294623641Y288012142D01*
X294516498Y287893095D01*
X294302212Y287774047D01*
X293445069Y287774047D01*
X293445069Y290274047D01*
X294195069Y290274047D01*
X294409355Y290155000D01*
X294516498Y290035952D01*
X294623641Y289797857D01*
X294623641Y289559761D01*
X294516498Y289321666D01*
X294409355Y289202619D01*
X294195069Y289083571D01*
X293445069Y289083571D01*
X295587926Y288488333D02*
X296659355Y288488333D01*
X295373641Y287774047D02*
X296123641Y290274047D01*
X296873641Y287774047D01*
X298695069Y287774047D02*
X297623641Y287774047D01*
X297623641Y290274047D01*
X301052212Y287893095D02*
X301373641Y287774047D01*
X301909355Y287774047D01*
X302123641Y287893095D01*
X302230784Y288012142D01*
X302337926Y288250238D01*
X302337926Y288488333D01*
X302230784Y288726428D01*
X302123641Y288845476D01*
X301909355Y288964523D01*
X301480784Y289083571D01*
X301266498Y289202619D01*
X301159355Y289321666D01*
X301052212Y289559761D01*
X301052212Y289797857D01*
X301159355Y290035952D01*
X301266498Y290155000D01*
X301480784Y290274047D01*
X302016498Y290274047D01*
X302337926Y290155000D01*
X303302212Y287774047D02*
X303302212Y290274047D01*
X304159355Y290274047D01*
X304373641Y290155000D01*
X304480784Y290035952D01*
X304587926Y289797857D01*
X304587926Y289440714D01*
X304480784Y289202619D01*
X304373641Y289083571D01*
X304159355Y288964523D01*
X303302212Y288964523D01*
X305552212Y289083571D02*
X306302212Y289083571D01*
X306623641Y287774047D02*
X305552212Y287774047D01*
X305552212Y290274047D01*
X306623641Y290274047D01*
X307587926Y289083571D02*
X308337926Y289083571D01*
X308659355Y287774047D02*
X307587926Y287774047D01*
X307587926Y290274047D01*
X308659355Y290274047D01*
X309623641Y287774047D02*
X309623641Y290274047D01*
X310159355Y290274047D01*
X310480784Y290155000D01*
X310695069Y289916904D01*
X310802212Y289678809D01*
X310909355Y289202619D01*
X310909355Y288845476D01*
X310802212Y288369285D01*
X310695069Y288131190D01*
X310480784Y287893095D01*
X310159355Y287774047D01*
X309623641Y287774047D01*
X261587992Y288012142D02*
X261480849Y287893095D01*
X261159421Y287774047D01*
X260945135Y287774047D01*
X260623706Y287893095D01*
X260409421Y288131190D01*
X260302278Y288369285D01*
X260195135Y288845476D01*
X260195135Y289202619D01*
X260302278Y289678809D01*
X260409421Y289916904D01*
X260623706Y290155000D01*
X260945135Y290274047D01*
X261159421Y290274047D01*
X261480849Y290155000D01*
X261587992Y290035952D01*
X262230849Y290274047D02*
X262980849Y287774047D01*
X263730849Y290274047D01*
X338394117Y189743225D02*
X338394117Y188076558D01*
X337858402Y190695606D02*
X337322688Y188909891D01*
X338715545Y188909891D01*
X784139247Y288012142D02*
X784032104Y287893095D01*
X783710676Y287774047D01*
X783496390Y287774047D01*
X783174961Y287893095D01*
X782960676Y288131190D01*
X782853533Y288369285D01*
X782746390Y288845476D01*
X782746390Y289202619D01*
X782853533Y289678809D01*
X782960676Y289916904D01*
X783174961Y290155000D01*
X783496390Y290274047D01*
X783710676Y290274047D01*
X784032104Y290155000D01*
X784139247Y290035952D01*
X784782104Y290274047D02*
X785532104Y287774047D01*
X786282104Y290274047D01*
D10*
X296561952Y136696687D02*
X295704809Y136696687D01*
X295276237Y136458592D01*
X295061952Y136220496D01*
X294633380Y135506211D01*
X294419094Y134553830D01*
X294419094Y132649068D01*
X294633380Y132172877D01*
X294847666Y131934782D01*
X295276237Y131696687D01*
X296133380Y131696687D01*
X296561952Y131934782D01*
X296776237Y132172877D01*
X296990523Y132649068D01*
X296990523Y133839544D01*
X296776237Y134315734D01*
X296561952Y134553830D01*
X296133380Y134791925D01*
X295276237Y134791925D01*
X294847666Y134553830D01*
X294633380Y134315734D01*
X294419094Y133839544D01*
X302347666Y133601449D02*
X305776237Y133601449D01*
X304061952Y131696687D02*
X304061952Y135506211D01*
X313704809Y131696687D02*
X311133380Y131696687D01*
X312419094Y131696687D02*
X312419094Y136696687D01*
X311990523Y135982401D01*
X311561952Y135506211D01*
X311133380Y135268115D01*
D11*
X338394117Y289440714D02*
X338394117Y287774047D01*
X337858402Y290393095D02*
X337322688Y288607380D01*
X338715545Y288607380D01*
X334837259Y287774047D02*
X333765831Y287774047D01*
X333765831Y290274047D01*
X336337259Y289083571D02*
X335587259Y289083571D01*
X335587259Y287774047D02*
X335587259Y290274047D01*
X336658688Y290274047D01*
X337944402Y290274047D02*
X338372974Y290274047D01*
X338587259Y290155000D01*
X338801545Y289916904D01*
X338908688Y289440714D01*
X338908688Y288607380D01*
X338801545Y288131190D01*
X338587259Y287893095D01*
X338372974Y287774047D01*
X337944402Y287774047D01*
X337730117Y287893095D01*
X337515831Y288131190D01*
X337408688Y288607380D01*
X337408688Y289440714D01*
X337515831Y289916904D01*
X337730117Y290155000D01*
X337944402Y290274047D01*
X342551545Y289440714D02*
X342551545Y287774047D01*
X342015831Y290393095D02*
X341480117Y288607380D01*
X342872974Y288607380D01*
X1013533063Y287774047D02*
X1012247349Y287774047D01*
X1012890206Y287774047D02*
X1012890206Y290274047D01*
X1012675920Y289916904D01*
X1012461635Y289678809D01*
X1012247349Y289559761D01*
X844415314Y287774047D02*
X843343886Y287774047D01*
X843343886Y290274047D01*
X845915314Y289083571D02*
X845165314Y289083571D01*
X845165314Y287774047D02*
X845165314Y290274047D01*
X846236743Y290274047D01*
X847522457Y290274047D02*
X847951029Y290274047D01*
X848165314Y290155000D01*
X848379600Y289916904D01*
X848486743Y289440714D01*
X848486743Y288607380D01*
X848379600Y288131190D01*
X848165314Y287893095D01*
X847951029Y287774047D01*
X847522457Y287774047D01*
X847308172Y287893095D01*
X847093886Y288131190D01*
X846986743Y288607380D01*
X846986743Y289440714D01*
X847093886Y289916904D01*
X847308172Y290155000D01*
X847522457Y290274047D01*
X852129600Y289440714D02*
X852129600Y287774047D01*
X851593886Y290393095D02*
X851058172Y288607380D01*
X852451029Y288607380D01*
X796842763Y290035952D02*
X796949906Y290155000D01*
X797164192Y290274047D01*
X797699906Y290274047D01*
X797914192Y290155000D01*
X798021334Y290035952D01*
X798128477Y289797857D01*
X798128477Y289559761D01*
X798021334Y289202619D01*
X796735620Y287774047D01*
X798128477Y287774047D01*
X1085097868Y287774047D02*
X1084026440Y287774047D01*
X1084026440Y290274047D01*
X1086597868Y289083571D02*
X1085847868Y289083571D01*
X1085847868Y287774047D02*
X1085847868Y290274047D01*
X1086919297Y290274047D01*
X1088205011Y290274047D02*
X1088633583Y290274047D01*
X1088847868Y290155000D01*
X1089062154Y289916904D01*
X1089169297Y289440714D01*
X1089169297Y288607380D01*
X1089062154Y288131190D01*
X1088847868Y287893095D01*
X1088633583Y287774047D01*
X1088205011Y287774047D01*
X1087990726Y287893095D01*
X1087776440Y288131190D01*
X1087669297Y288607380D01*
X1087669297Y289440714D01*
X1087776440Y289916904D01*
X1087990726Y290155000D01*
X1088205011Y290274047D01*
X1092812154Y289440714D02*
X1092812154Y287774047D01*
X1092276440Y290393095D02*
X1091740726Y288607380D01*
X1093133583Y288607380D01*
X334837259Y287774047D02*
X333765831Y287774047D01*
X333765831Y290274047D01*
X336337259Y289083571D02*
X335587259Y289083571D01*
X335587259Y287774047D02*
X335587259Y290274047D01*
X336658688Y290274047D01*
X337944402Y290274047D02*
X338372974Y290274047D01*
X338587259Y290155000D01*
X338801545Y289916904D01*
X338908688Y289440714D01*
X338908688Y288607380D01*
X338801545Y288131190D01*
X338587259Y287893095D01*
X338372974Y287774047D01*
X337944402Y287774047D01*
X337730117Y287893095D01*
X337515831Y288131190D01*
X337408688Y288607380D01*
X337408688Y289440714D01*
X337515831Y289916904D01*
X337730117Y290155000D01*
X337944402Y290274047D01*
X342551545Y289440714D02*
X342551545Y287774047D01*
X342015831Y290393095D02*
X341480117Y288607380D01*
X342872974Y288607380D01*
X263272454Y287774047D02*
X261986740Y287774047D01*
X262629597Y287774047D02*
X262629597Y290274047D01*
X262415311Y289916904D01*
X262201026Y289678809D01*
X261986740Y289559761D01*
X1038455678Y290155000D02*
X1038241393Y290274047D01*
X1037919964Y290274047D01*
X1037598535Y290155000D01*
X1037384250Y289916904D01*
X1037277107Y289678809D01*
X1037169964Y289202619D01*
X1037169964Y288845476D01*
X1037277107Y288369285D01*
X1037384250Y288131190D01*
X1037598535Y287893095D01*
X1037919964Y287774047D01*
X1038134250Y287774047D01*
X1038455678Y287893095D01*
X1038562821Y288012142D01*
X1038562821Y288845476D01*
X1038134250Y288845476D01*
X1040598535Y287774047D02*
X1039527107Y287774047D01*
X1039527107Y290274047D01*
X1041777107Y290274047D02*
X1042205678Y290274047D01*
X1042419964Y290155000D01*
X1042634250Y289916904D01*
X1042741393Y289440714D01*
X1042741393Y288607380D01*
X1042634250Y288131190D01*
X1042419964Y287893095D01*
X1042205678Y287774047D01*
X1041777107Y287774047D01*
X1041562821Y287893095D01*
X1041348535Y288131190D01*
X1041241393Y288607380D01*
X1041241393Y289440714D01*
X1041348535Y289916904D01*
X1041562821Y290155000D01*
X1041777107Y290274047D01*
X1044455678Y289083571D02*
X1044777107Y288964523D01*
X1044884250Y288845476D01*
X1044991393Y288607380D01*
X1044991393Y288250238D01*
X1044884250Y288012142D01*
X1044777107Y287893095D01*
X1044562821Y287774047D01*
X1043705678Y287774047D01*
X1043705678Y290274047D01*
X1044455678Y290274047D01*
X1044669964Y290155000D01*
X1044777107Y290035952D01*
X1044884250Y289797857D01*
X1044884250Y289559761D01*
X1044777107Y289321666D01*
X1044669964Y289202619D01*
X1044455678Y289083571D01*
X1043705678Y289083571D01*
X1045848535Y288488333D02*
X1046919964Y288488333D01*
X1045634250Y287774047D02*
X1046384250Y290274047D01*
X1047134250Y287774047D01*
X1048955678Y287774047D02*
X1047884250Y287774047D01*
X1047884250Y290274047D01*
X1051312821Y287893095D02*
X1051634250Y287774047D01*
X1052169964Y287774047D01*
X1052384250Y287893095D01*
X1052491393Y288012142D01*
X1052598535Y288250238D01*
X1052598535Y288488333D01*
X1052491393Y288726428D01*
X1052384250Y288845476D01*
X1052169964Y288964523D01*
X1051741393Y289083571D01*
X1051527107Y289202619D01*
X1051419964Y289321666D01*
X1051312821Y289559761D01*
X1051312821Y289797857D01*
X1051419964Y290035952D01*
X1051527107Y290155000D01*
X1051741393Y290274047D01*
X1052277107Y290274047D01*
X1052598535Y290155000D01*
X1053562821Y287774047D02*
X1053562821Y290274047D01*
X1054419964Y290274047D01*
X1054634250Y290155000D01*
X1054741393Y290035952D01*
X1054848535Y289797857D01*
X1054848535Y289440714D01*
X1054741393Y289202619D01*
X1054634250Y289083571D01*
X1054419964Y288964523D01*
X1053562821Y288964523D01*
X1055812821Y289083571D02*
X1056562821Y289083571D01*
X1056884250Y287774047D02*
X1055812821Y287774047D01*
X1055812821Y290274047D01*
X1056884250Y290274047D01*
X1057848535Y289083571D02*
X1058598535Y289083571D01*
X1058919964Y287774047D02*
X1057848535Y287774047D01*
X1057848535Y290274047D01*
X1058919964Y290274047D01*
X1059884250Y287774047D02*
X1059884250Y290274047D01*
X1060419964Y290274047D01*
X1060741393Y290155000D01*
X1060955678Y289916904D01*
X1061062821Y289678809D01*
X1061169964Y289202619D01*
X1061169964Y288845476D01*
X1061062821Y288369285D01*
X1060955678Y288131190D01*
X1060741393Y287893095D01*
X1060419964Y287774047D01*
X1059884250Y287774047D01*
D10*
X1041953116Y290512142D02*
X1042595973Y290274047D01*
X1042810259Y290035952D01*
X1043024545Y289559761D01*
X1043024545Y288845476D01*
X1042810259Y288369285D01*
X1042595973Y288131190D01*
X1042167402Y287893095D01*
X1040453116Y287893095D01*
X1040453116Y292893095D01*
X1041953116Y292893095D01*
X1042381688Y292655000D01*
X1042595973Y292416904D01*
X1042810259Y291940714D01*
X1042810259Y291464523D01*
X1042595973Y290988333D01*
X1042381688Y290750238D01*
X1041953116Y290512142D01*
X1040453116Y290512142D01*
X1047524545Y287893095D02*
X1046024545Y290274047D01*
X1044953116Y287893095D02*
X1044953116Y292893095D01*
X1046667402Y292893095D01*
X1047095973Y292655000D01*
X1047310259Y292416904D01*
X1047524545Y291940714D01*
X1047524545Y291226428D01*
X1047310259Y290750238D01*
X1047095973Y290512142D01*
X1046667402Y290274047D01*
X1044953116Y290274047D01*
X1049453116Y290512142D02*
X1050953116Y290512142D01*
X1051595973Y287893095D02*
X1049453116Y287893095D01*
X1049453116Y292893095D01*
X1051595973Y292893095D01*
X1053524545Y287893095D02*
X1053524545Y292893095D01*
X1056095973Y287893095D01*
X1056095973Y292893095D01*
X1058238830Y287893095D02*
X1058238830Y292893095D01*
X1060810259Y287893095D01*
X1060810259Y292893095D01*
X296561952Y292893095D02*
X295704809Y292893095D01*
X295276237Y292655000D01*
X295061952Y292416904D01*
X294633380Y291702619D01*
X294419094Y290750238D01*
X294419094Y288845476D01*
X294633380Y288369285D01*
X294847666Y288131190D01*
X295276237Y287893095D01*
X296133380Y287893095D01*
X296561952Y288131190D01*
X296776237Y288369285D01*
X296990523Y288845476D01*
X296990523Y290035952D01*
X296776237Y290512142D01*
X296561952Y290750238D01*
X296133380Y290988333D01*
X295276237Y290988333D01*
X294847666Y290750238D01*
X294633380Y290512142D01*
X294419094Y290035952D01*
X302347666Y289797857D02*
X305776237Y289797857D01*
X304061952Y287893095D02*
X304061952Y291702619D01*
X313704809Y287893095D02*
X311133380Y287893095D01*
X312419094Y287893095D02*
X312419094Y292893095D01*
X311990523Y292178809D01*
X311561952Y291702619D01*
X311133380Y291464523D01*
D11*
X772850509Y287774047D02*
X771564795Y287774047D01*
X772207652Y287774047D02*
X772207652Y290274047D01*
X771993366Y289916904D01*
X771779081Y289678809D01*
X771564795Y289559761D01*
X312113226Y290274047D02*
X313506083Y290274047D01*
X312756083Y289321666D01*
X313077512Y289321666D01*
X313291798Y289202619D01*
X313398940Y289083571D01*
X313506083Y288845476D01*
X313506083Y288250238D01*
X313398940Y288012142D01*
X313291798Y287893095D01*
X313077512Y287774047D01*
X312434655Y287774047D01*
X312220369Y287893095D01*
X312113226Y288012142D01*
X274561192Y288012142D02*
X274454049Y287893095D01*
X274132621Y287774047D01*
X273918335Y287774047D01*
X273596906Y287893095D01*
X273382621Y288131190D01*
X273275478Y288369285D01*
X273168335Y288845476D01*
X273168335Y289202619D01*
X273275478Y289678809D01*
X273382621Y289916904D01*
X273596906Y290155000D01*
X273918335Y290274047D01*
X274132621Y290274047D01*
X274454049Y290155000D01*
X274561192Y290035952D01*
X275204049Y290274047D02*
X275954049Y287774047D01*
X276704049Y290274047D01*
X296592352Y287774047D02*
X295520924Y287774047D01*
X295520924Y290274047D01*
X298092352Y289083571D02*
X297342352Y289083571D01*
X297342352Y287774047D02*
X297342352Y290274047D01*
X298413781Y290274047D01*
X299699495Y290274047D02*
X300128067Y290274047D01*
X300342352Y290155000D01*
X300556638Y289916904D01*
X300663781Y289440714D01*
X300663781Y288607380D01*
X300556638Y288131190D01*
X300342352Y287893095D01*
X300128067Y287774047D01*
X299699495Y287774047D01*
X299485210Y287893095D01*
X299270924Y288131190D01*
X299163781Y288607380D01*
X299163781Y289440714D01*
X299270924Y289916904D01*
X299485210Y290155000D01*
X299699495Y290274047D01*
X303128067Y290274047D02*
X304520924Y290274047D01*
X303770924Y289321666D01*
X304092352Y289321666D01*
X304306638Y289202619D01*
X304413781Y289083571D01*
X304520924Y288845476D01*
X304520924Y288250238D01*
X304413781Y288012142D01*
X304306638Y287893095D01*
X304092352Y287774047D01*
X303449495Y287774047D01*
X303235210Y287893095D01*
X303128067Y288012142D01*
D10*
X801270562Y290512142D02*
X801913419Y290274047D01*
X802127705Y290035952D01*
X802341991Y289559761D01*
X802341991Y288845476D01*
X802127705Y288369285D01*
X801913419Y288131190D01*
X801484848Y287893095D01*
X799770562Y287893095D01*
X799770562Y292893095D01*
X801270562Y292893095D01*
X801699134Y292655000D01*
X801913419Y292416904D01*
X802127705Y291940714D01*
X802127705Y291464523D01*
X801913419Y290988333D01*
X801699134Y290750238D01*
X801270562Y290512142D01*
X799770562Y290512142D01*
X806841991Y287893095D02*
X805341991Y290274047D01*
X804270562Y287893095D02*
X804270562Y292893095D01*
X805984848Y292893095D01*
X806413419Y292655000D01*
X806627705Y292416904D01*
X806841991Y291940714D01*
X806841991Y291226428D01*
X806627705Y290750238D01*
X806413419Y290512142D01*
X805984848Y290274047D01*
X804270562Y290274047D01*
X808770562Y290512142D02*
X810270562Y290512142D01*
X810913419Y287893095D02*
X808770562Y287893095D01*
X808770562Y292893095D01*
X810913419Y292893095D01*
X812841991Y287893095D02*
X812841991Y292893095D01*
X815413419Y287893095D01*
X815413419Y292893095D01*
X817556276Y287893095D02*
X817556276Y292893095D01*
X820127705Y287893095D01*
X820127705Y292893095D01*
D11*
X287264707Y290035952D02*
X287371850Y290155000D01*
X287586136Y290274047D01*
X288121850Y290274047D01*
X288336136Y290155000D01*
X288443278Y290035952D01*
X288550421Y289797857D01*
X288550421Y289559761D01*
X288443278Y289202619D01*
X287157564Y287774047D01*
X288550421Y287774047D01*
X312113226Y290274047D02*
X313506083Y290274047D01*
X312756083Y289321666D01*
X313077512Y289321666D01*
X313291798Y289202619D01*
X313398940Y289083571D01*
X313506083Y288845476D01*
X313506083Y288250238D01*
X313398940Y288012142D01*
X313291798Y287893095D01*
X313077512Y287774047D01*
X312434655Y287774047D01*
X312220369Y287893095D01*
X312113226Y288012142D01*
X1009170807Y287774047D02*
X1008099379Y287774047D01*
X1008099379Y290274047D01*
X1010670807Y289083571D02*
X1009920807Y289083571D01*
X1009920807Y287774047D02*
X1009920807Y290274047D01*
X1010992236Y290274047D01*
X1012277950Y290274047D02*
X1012706522Y290274047D01*
X1012920807Y290155000D01*
X1013135093Y289916904D01*
X1013242236Y289440714D01*
X1013242236Y288607380D01*
X1013135093Y288131190D01*
X1012920807Y287893095D01*
X1012706522Y287774047D01*
X1012277950Y287774047D01*
X1012063665Y287893095D01*
X1011849379Y288131190D01*
X1011742236Y288607380D01*
X1011742236Y289440714D01*
X1011849379Y289916904D01*
X1012063665Y290155000D01*
X1012277950Y290274047D01*
X1015813665Y290035952D02*
X1015920807Y290155000D01*
X1016135093Y290274047D01*
X1016670807Y290274047D01*
X1016885093Y290155000D01*
X1016992236Y290035952D01*
X1017099379Y289797857D01*
X1017099379Y289559761D01*
X1016992236Y289202619D01*
X1015706522Y287774047D01*
X1017099379Y287774047D01*
X1172240816Y287774047D02*
X1171169388Y287774047D01*
X1171169388Y290274047D01*
X1173740816Y289083571D02*
X1172990816Y289083571D01*
X1172990816Y287774047D02*
X1172990816Y290274047D01*
X1174062245Y290274047D01*
X1175347959Y290274047D02*
X1175776531Y290274047D01*
X1175990816Y290155000D01*
X1176205102Y289916904D01*
X1176312245Y289440714D01*
X1176312245Y288607380D01*
X1176205102Y288131190D01*
X1175990816Y287893095D01*
X1175776531Y287774047D01*
X1175347959Y287774047D01*
X1175133674Y287893095D01*
X1174919388Y288131190D01*
X1174812245Y288607380D01*
X1174812245Y289440714D01*
X1174919388Y289916904D01*
X1175133674Y290155000D01*
X1175347959Y290274047D01*
X1178776531Y290274047D02*
X1180169388Y290274047D01*
X1179419388Y289321666D01*
X1179740816Y289321666D01*
X1179955102Y289202619D01*
X1180062245Y289083571D01*
X1180169388Y288845476D01*
X1180169388Y288250238D01*
X1180062245Y288012142D01*
X1179955102Y287893095D01*
X1179740816Y287774047D01*
X1179097959Y287774047D01*
X1178883674Y287893095D01*
X1178776531Y288012142D01*
X263272454Y188066326D02*
X261986740Y188066326D01*
X262629597Y188066326D02*
X262629597Y190566326D01*
X262415311Y190209183D01*
X262201026Y189971088D01*
X261986740Y189852040D01*
X274561192Y288012142D02*
X274454049Y287893095D01*
X274132621Y287774047D01*
X273918335Y287774047D01*
X273596906Y287893095D01*
X273382621Y288131190D01*
X273275478Y288369285D01*
X273168335Y288845476D01*
X273168335Y289202619D01*
X273275478Y289678809D01*
X273382621Y289916904D01*
X273596906Y290155000D01*
X273918335Y290274047D01*
X274132621Y290274047D01*
X274454049Y290155000D01*
X274561192Y290035952D01*
X275204049Y290274047D02*
X275954049Y287774047D01*
X276704049Y290274047D01*
X844800551Y287774047D02*
X843729123Y287774047D01*
X843729123Y290274047D01*
X846300551Y289083571D02*
X845550551Y289083571D01*
X845550551Y287774047D02*
X845550551Y290274047D01*
X846621980Y290274047D01*
X847907694Y290274047D02*
X848336266Y290274047D01*
X848550551Y290155000D01*
X848764837Y289916904D01*
X848871980Y289440714D01*
X848871980Y288607380D01*
X848764837Y288131190D01*
X848550551Y287893095D01*
X848336266Y287774047D01*
X847907694Y287774047D01*
X847693409Y287893095D01*
X847479123Y288131190D01*
X847371980Y288607380D01*
X847371980Y289440714D01*
X847479123Y289916904D01*
X847693409Y290155000D01*
X847907694Y290274047D01*
X852729123Y287774047D02*
X851443409Y287774047D01*
X852086266Y287774047D02*
X852086266Y290274047D01*
X851871980Y289916904D01*
X851657694Y289678809D01*
X851443409Y289559761D01*
X1172240816Y287774047D02*
X1171169388Y287774047D01*
X1171169388Y290274047D01*
X1173740816Y289083571D02*
X1172990816Y289083571D01*
X1172990816Y287774047D02*
X1172990816Y290274047D01*
X1174062245Y290274047D01*
X1175347959Y290274047D02*
X1175776531Y290274047D01*
X1175990816Y290155000D01*
X1176205102Y289916904D01*
X1176312245Y289440714D01*
X1176312245Y288607380D01*
X1176205102Y288131190D01*
X1175990816Y287893095D01*
X1175776531Y287774047D01*
X1175347959Y287774047D01*
X1175133674Y287893095D01*
X1174919388Y288131190D01*
X1174812245Y288607380D01*
X1174812245Y289440714D01*
X1174919388Y289916904D01*
X1175133674Y290155000D01*
X1175347959Y290274047D01*
X1179955102Y289440714D02*
X1179955102Y287774047D01*
X1179419388Y290393095D02*
X1178883674Y288607380D01*
X1180276531Y288607380D01*
X1172240816Y287774047D02*
X1171169388Y287774047D01*
X1171169388Y290274047D01*
X1173740816Y289083571D02*
X1172990816Y289083571D01*
X1172990816Y287774047D02*
X1172990816Y290274047D01*
X1174062245Y290274047D01*
X1175347959Y290274047D02*
X1175776531Y290274047D01*
X1175990816Y290155000D01*
X1176205102Y289916904D01*
X1176312245Y289440714D01*
X1176312245Y288607380D01*
X1176205102Y288131190D01*
X1175990816Y287893095D01*
X1175776531Y287774047D01*
X1175347959Y287774047D01*
X1175133674Y287893095D01*
X1174919388Y288131190D01*
X1174812245Y288607380D01*
X1174812245Y289440714D01*
X1174919388Y289916904D01*
X1175133674Y290155000D01*
X1175347959Y290274047D01*
X1178883674Y290035952D02*
X1178990816Y290155000D01*
X1179205102Y290274047D01*
X1179740816Y290274047D01*
X1179955102Y290155000D01*
X1180062245Y290035952D01*
X1180169388Y289797857D01*
X1180169388Y289559761D01*
X1180062245Y289202619D01*
X1178776531Y287774047D01*
X1180169388Y287774047D01*
D10*
X806140008Y292893095D02*
X805282865Y292893095D01*
X804854293Y292655000D01*
X804640008Y292416904D01*
X804211436Y291702619D01*
X803997150Y290750238D01*
X803997150Y288845476D01*
X804211436Y288369285D01*
X804425722Y288131190D01*
X804854293Y287893095D01*
X805711436Y287893095D01*
X806140008Y288131190D01*
X806354293Y288369285D01*
X806568579Y288845476D01*
X806568579Y290035952D01*
X806354293Y290512142D01*
X806140008Y290750238D01*
X805711436Y290988333D01*
X804854293Y290988333D01*
X804425722Y290750238D01*
X804211436Y290512142D01*
X803997150Y290035952D01*
X811925722Y289797857D02*
X815354293Y289797857D01*
X813640008Y287893095D02*
X813640008Y291702619D01*
X823282865Y287893095D02*
X820711436Y287893095D01*
X821997150Y287893095D02*
X821997150Y292893095D01*
X821568579Y292178809D01*
X821140008Y291702619D01*
X820711436Y291464523D01*
D11*
X338394117Y289440714D02*
X338394117Y287774047D01*
X337858402Y290393095D02*
X337322688Y288607380D01*
X338715545Y288607380D01*
X1172240816Y287774047D02*
X1171169388Y287774047D01*
X1171169388Y290274047D01*
X1173740816Y289083571D02*
X1172990816Y289083571D01*
X1172990816Y287774047D02*
X1172990816Y290274047D01*
X1174062245Y290274047D01*
X1175347959Y290274047D02*
X1175776531Y290274047D01*
X1175990816Y290155000D01*
X1176205102Y289916904D01*
X1176312245Y289440714D01*
X1176312245Y288607380D01*
X1176205102Y288131190D01*
X1175990816Y287893095D01*
X1175776531Y287774047D01*
X1175347959Y287774047D01*
X1175133674Y287893095D01*
X1174919388Y288131190D01*
X1174812245Y288607380D01*
X1174812245Y289440714D01*
X1174919388Y289916904D01*
X1175133674Y290155000D01*
X1175347959Y290274047D01*
X1180169388Y287774047D02*
X1178883674Y287774047D01*
X1179526531Y287774047D02*
X1179526531Y290274047D01*
X1179312245Y289916904D01*
X1179097959Y289678809D01*
X1178883674Y289559761D01*
X1024821800Y288012142D02*
X1024714657Y287893095D01*
X1024393229Y287774047D01*
X1024178943Y287774047D01*
X1023857514Y287893095D01*
X1023643229Y288131190D01*
X1023536086Y288369285D01*
X1023428943Y288845476D01*
X1023428943Y289202619D01*
X1023536086Y289678809D01*
X1023643229Y289916904D01*
X1023857514Y290155000D01*
X1024178943Y290274047D01*
X1024393229Y290274047D01*
X1024714657Y290155000D01*
X1024821800Y290035952D01*
X1025464657Y290274047D02*
X1026214657Y287774047D01*
X1026964657Y290274047D01*
X1172347959Y290155000D02*
X1172133674Y290274047D01*
X1171812245Y290274047D01*
X1171490816Y290155000D01*
X1171276531Y289916904D01*
X1171169388Y289678809D01*
X1171062245Y289202619D01*
X1171062245Y288845476D01*
X1171169388Y288369285D01*
X1171276531Y288131190D01*
X1171490816Y287893095D01*
X1171812245Y287774047D01*
X1172026531Y287774047D01*
X1172347959Y287893095D01*
X1172455102Y288012142D01*
X1172455102Y288845476D01*
X1172026531Y288845476D01*
X1174490816Y287774047D02*
X1173419388Y287774047D01*
X1173419388Y290274047D01*
X1175669388Y290274047D02*
X1176097959Y290274047D01*
X1176312245Y290155000D01*
X1176526531Y289916904D01*
X1176633674Y289440714D01*
X1176633674Y288607380D01*
X1176526531Y288131190D01*
X1176312245Y287893095D01*
X1176097959Y287774047D01*
X1175669388Y287774047D01*
X1175455102Y287893095D01*
X1175240816Y288131190D01*
X1175133674Y288607380D01*
X1175133674Y289440714D01*
X1175240816Y289916904D01*
X1175455102Y290155000D01*
X1175669388Y290274047D01*
X1178347959Y289083571D02*
X1178669388Y288964523D01*
X1178776531Y288845476D01*
X1178883674Y288607380D01*
X1178883674Y288250238D01*
X1178776531Y288012142D01*
X1178669388Y287893095D01*
X1178455102Y287774047D01*
X1177597959Y287774047D01*
X1177597959Y290274047D01*
X1178347959Y290274047D01*
X1178562245Y290155000D01*
X1178669388Y290035952D01*
X1178776531Y289797857D01*
X1178776531Y289559761D01*
X1178669388Y289321666D01*
X1178562245Y289202619D01*
X1178347959Y289083571D01*
X1177597959Y289083571D01*
X1179740816Y288488333D02*
X1180812245Y288488333D01*
X1179526531Y287774047D02*
X1180276531Y290274047D01*
X1181026531Y287774047D01*
X1182847959Y287774047D02*
X1181776531Y287774047D01*
X1181776531Y290274047D01*
X1185205102Y287893095D02*
X1185526531Y287774047D01*
X1186062245Y287774047D01*
X1186276531Y287893095D01*
X1186383674Y288012142D01*
X1186490816Y288250238D01*
X1186490816Y288488333D01*
X1186383674Y288726428D01*
X1186276531Y288845476D01*
X1186062245Y288964523D01*
X1185633674Y289083571D01*
X1185419388Y289202619D01*
X1185312245Y289321666D01*
X1185205102Y289559761D01*
X1185205102Y289797857D01*
X1185312245Y290035952D01*
X1185419388Y290155000D01*
X1185633674Y290274047D01*
X1186169388Y290274047D01*
X1186490816Y290155000D01*
X1187455102Y287774047D02*
X1187455102Y290274047D01*
X1188312245Y290274047D01*
X1188526531Y290155000D01*
X1188633674Y290035952D01*
X1188740816Y289797857D01*
X1188740816Y289440714D01*
X1188633674Y289202619D01*
X1188526531Y289083571D01*
X1188312245Y288964523D01*
X1187455102Y288964523D01*
X1189705102Y289083571D02*
X1190455102Y289083571D01*
X1190776531Y287774047D02*
X1189705102Y287774047D01*
X1189705102Y290274047D01*
X1190776531Y290274047D01*
X1191740816Y289083571D02*
X1192490816Y289083571D01*
X1192812245Y287774047D02*
X1191740816Y287774047D01*
X1191740816Y290274047D01*
X1192812245Y290274047D01*
X1193776531Y287774047D02*
X1193776531Y290274047D01*
X1194312245Y290274047D01*
X1194633674Y290155000D01*
X1194847959Y289916904D01*
X1194955102Y289678809D01*
X1195062245Y289202619D01*
X1195062245Y288845476D01*
X1194955102Y288369285D01*
X1194847959Y288131190D01*
X1194633674Y287893095D01*
X1194312245Y287774047D01*
X1193776531Y287774047D01*
X1172455102Y288012142D02*
X1172347959Y287893095D01*
X1172026531Y287774047D01*
X1171812245Y287774047D01*
X1171490816Y287893095D01*
X1171276531Y288131190D01*
X1171169388Y288369285D01*
X1171062245Y288845476D01*
X1171062245Y289202619D01*
X1171169388Y289678809D01*
X1171276531Y289916904D01*
X1171490816Y290155000D01*
X1171812245Y290274047D01*
X1172026531Y290274047D01*
X1172347959Y290155000D01*
X1172455102Y290035952D01*
X1173097959Y290274047D02*
X1173847959Y287774047D01*
X1174597959Y290274047D01*
X847972173Y289440714D02*
X847972173Y287774047D01*
X847436458Y290393095D02*
X846900744Y288607380D01*
X848293601Y288607380D01*
X258910198Y287774047D02*
X257838770Y287774047D01*
X257838770Y290274047D01*
X260410198Y289083571D02*
X259660198Y289083571D01*
X259660198Y287774047D02*
X259660198Y290274047D01*
X260731627Y290274047D01*
X262017341Y290274047D02*
X262445913Y290274047D01*
X262660198Y290155000D01*
X262874484Y289916904D01*
X262981627Y289440714D01*
X262981627Y288607380D01*
X262874484Y288131190D01*
X262660198Y287893095D01*
X262445913Y287774047D01*
X262017341Y287774047D01*
X261803056Y287893095D01*
X261588770Y288131190D01*
X261481627Y288607380D01*
X261481627Y289440714D01*
X261588770Y289916904D01*
X261803056Y290155000D01*
X262017341Y290274047D01*
X265553056Y290035952D02*
X265660198Y290155000D01*
X265874484Y290274047D01*
X266410198Y290274047D01*
X266624484Y290155000D01*
X266731627Y290035952D01*
X266838770Y289797857D01*
X266838770Y289559761D01*
X266731627Y289202619D01*
X265445913Y287774047D01*
X266838770Y287774047D01*
X821691281Y290274047D02*
X823084138Y290274047D01*
X822334138Y289321666D01*
X822655567Y289321666D01*
X822869853Y289202619D01*
X822976995Y289083571D01*
X823084138Y288845476D01*
X823084138Y288250238D01*
X822976995Y288012142D01*
X822869853Y287893095D01*
X822655567Y287774047D01*
X822012710Y287774047D01*
X821798424Y287893095D01*
X821691281Y288012142D01*
X335222495Y287774047D02*
X334151067Y287774047D01*
X334151067Y290274047D01*
X336722495Y289083571D02*
X335972495Y289083571D01*
X335972495Y287774047D02*
X335972495Y290274047D01*
X337043924Y290274047D01*
X338329638Y290274047D02*
X338758210Y290274047D01*
X338972495Y290155000D01*
X339186781Y289916904D01*
X339293924Y289440714D01*
X339293924Y288607380D01*
X339186781Y288131190D01*
X338972495Y287893095D01*
X338758210Y287774047D01*
X338329638Y287774047D01*
X338115353Y287893095D01*
X337901067Y288131190D01*
X337793924Y288607380D01*
X337793924Y289440714D01*
X337901067Y289916904D01*
X338115353Y290155000D01*
X338329638Y290274047D01*
X343151067Y287774047D02*
X341865353Y287774047D01*
X342508210Y287774047D02*
X342508210Y290274047D01*
X342293924Y289916904D01*
X342079638Y289678809D01*
X341865353Y289559761D01*
D10*
X291692507Y290512142D02*
X292335364Y290274047D01*
X292549650Y290035952D01*
X292763936Y289559761D01*
X292763936Y288845476D01*
X292549650Y288369285D01*
X292335364Y288131190D01*
X291906793Y287893095D01*
X290192507Y287893095D01*
X290192507Y292893095D01*
X291692507Y292893095D01*
X292121079Y292655000D01*
X292335364Y292416904D01*
X292549650Y291940714D01*
X292549650Y291464523D01*
X292335364Y290988333D01*
X292121079Y290750238D01*
X291692507Y290512142D01*
X290192507Y290512142D01*
X297263936Y287893095D02*
X295763936Y290274047D01*
X294692507Y287893095D02*
X294692507Y292893095D01*
X296406793Y292893095D01*
X296835364Y292655000D01*
X297049650Y292416904D01*
X297263936Y291940714D01*
X297263936Y291226428D01*
X297049650Y290750238D01*
X296835364Y290512142D01*
X296406793Y290274047D01*
X294692507Y290274047D01*
X299192507Y290512142D02*
X300692507Y290512142D01*
X301335364Y287893095D02*
X299192507Y287893095D01*
X299192507Y292893095D01*
X301335364Y292893095D01*
X303263936Y287893095D02*
X303263936Y292893095D01*
X305835364Y287893095D01*
X305835364Y292893095D01*
X307978221Y287893095D02*
X307978221Y292893095D01*
X310549650Y287893095D01*
X310549650Y292893095D01*
D11*
X797773124Y290155000D02*
X797558839Y290274047D01*
X797237410Y290274047D01*
X796915981Y290155000D01*
X796701696Y289916904D01*
X796594553Y289678809D01*
X796487410Y289202619D01*
X796487410Y288845476D01*
X796594553Y288369285D01*
X796701696Y288131190D01*
X796915981Y287893095D01*
X797237410Y287774047D01*
X797451696Y287774047D01*
X797773124Y287893095D01*
X797880267Y288012142D01*
X797880267Y288845476D01*
X797451696Y288845476D01*
X799915981Y287774047D02*
X798844553Y287774047D01*
X798844553Y290274047D01*
X801094553Y290274047D02*
X801523124Y290274047D01*
X801737410Y290155000D01*
X801951696Y289916904D01*
X802058839Y289440714D01*
X802058839Y288607380D01*
X801951696Y288131190D01*
X801737410Y287893095D01*
X801523124Y287774047D01*
X801094553Y287774047D01*
X800880267Y287893095D01*
X800665981Y288131190D01*
X800558839Y288607380D01*
X800558839Y289440714D01*
X800665981Y289916904D01*
X800880267Y290155000D01*
X801094553Y290274047D01*
X803773124Y289083571D02*
X804094553Y288964523D01*
X804201696Y288845476D01*
X804308839Y288607380D01*
X804308839Y288250238D01*
X804201696Y288012142D01*
X804094553Y287893095D01*
X803880267Y287774047D01*
X803023124Y287774047D01*
X803023124Y290274047D01*
X803773124Y290274047D01*
X803987410Y290155000D01*
X804094553Y290035952D01*
X804201696Y289797857D01*
X804201696Y289559761D01*
X804094553Y289321666D01*
X803987410Y289202619D01*
X803773124Y289083571D01*
X803023124Y289083571D01*
X805165981Y288488333D02*
X806237410Y288488333D01*
X804951696Y287774047D02*
X805701696Y290274047D01*
X806451696Y287774047D01*
X808273124Y287774047D02*
X807201696Y287774047D01*
X807201696Y290274047D01*
X810630267Y287893095D02*
X810951696Y287774047D01*
X811487410Y287774047D01*
X811701696Y287893095D01*
X811808839Y288012142D01*
X811915981Y288250238D01*
X811915981Y288488333D01*
X811808839Y288726428D01*
X811701696Y288845476D01*
X811487410Y288964523D01*
X811058839Y289083571D01*
X810844553Y289202619D01*
X810737410Y289321666D01*
X810630267Y289559761D01*
X810630267Y289797857D01*
X810737410Y290035952D01*
X810844553Y290155000D01*
X811058839Y290274047D01*
X811594553Y290274047D01*
X811915981Y290155000D01*
X812880267Y287774047D02*
X812880267Y290274047D01*
X813737410Y290274047D01*
X813951696Y290155000D01*
X814058839Y290035952D01*
X814165981Y289797857D01*
X814165981Y289440714D01*
X814058839Y289202619D01*
X813951696Y289083571D01*
X813737410Y288964523D01*
X812880267Y288964523D01*
X815130267Y289083571D02*
X815880267Y289083571D01*
X816201696Y287774047D02*
X815130267Y287774047D01*
X815130267Y290274047D01*
X816201696Y290274047D01*
X817165981Y289083571D02*
X817915981Y289083571D01*
X818237410Y287774047D02*
X817165981Y287774047D01*
X817165981Y290274047D01*
X818237410Y290274047D01*
X819201696Y287774047D02*
X819201696Y290274047D01*
X819737410Y290274047D01*
X820058839Y290155000D01*
X820273124Y289916904D01*
X820380267Y289678809D01*
X820487410Y289202619D01*
X820487410Y288845476D01*
X820380267Y288369285D01*
X820273124Y288131190D01*
X820058839Y287893095D01*
X819737410Y287774047D01*
X819201696Y287774047D01*
D10*
X1173408227Y290512142D02*
X1174051084Y290274047D01*
X1174265370Y290035952D01*
X1174479656Y289559761D01*
X1174479656Y288845476D01*
X1174265370Y288369285D01*
X1174051084Y288131190D01*
X1173622513Y287893095D01*
X1171908227Y287893095D01*
X1171908227Y292893095D01*
X1173408227Y292893095D01*
X1173836799Y292655000D01*
X1174051084Y292416904D01*
X1174265370Y291940714D01*
X1174265370Y291464523D01*
X1174051084Y290988333D01*
X1173836799Y290750238D01*
X1173408227Y290512142D01*
X1171908227Y290512142D01*
X1178979656Y287893095D02*
X1177479656Y290274047D01*
X1176408227Y287893095D02*
X1176408227Y292893095D01*
X1178122513Y292893095D01*
X1178551084Y292655000D01*
X1178765370Y292416904D01*
X1178979656Y291940714D01*
X1178979656Y291226428D01*
X1178765370Y290750238D01*
X1178551084Y290512142D01*
X1178122513Y290274047D01*
X1176408227Y290274047D01*
X1180908227Y290512142D02*
X1182408227Y290512142D01*
X1183051084Y287893095D02*
X1180908227Y287893095D01*
X1180908227Y292893095D01*
X1183051084Y292893095D01*
X1184979656Y287893095D02*
X1184979656Y292893095D01*
X1187551084Y287893095D01*
X1187551084Y292893095D01*
X1189693941Y287893095D02*
X1189693941Y292893095D01*
X1192265370Y287893095D01*
X1192265370Y292893095D01*
X296561952Y292893095D02*
X295704809Y292893095D01*
X295276237Y292655000D01*
X295061952Y292416904D01*
X294633380Y291702619D01*
X294419094Y290750238D01*
X294419094Y288845476D01*
X294633380Y288369285D01*
X294847666Y288131190D01*
X295276237Y287893095D01*
X296133380Y287893095D01*
X296561952Y288131190D01*
X296776237Y288369285D01*
X296990523Y288845476D01*
X296990523Y290035952D01*
X296776237Y290512142D01*
X296561952Y290750238D01*
X296133380Y290988333D01*
X295276237Y290988333D01*
X294847666Y290750238D01*
X294633380Y290512142D01*
X294419094Y290035952D01*
X302347666Y289797857D02*
X305776237Y289797857D01*
X304061952Y287893095D02*
X304061952Y291702619D01*
X313704809Y287893095D02*
X311133380Y287893095D01*
X312419094Y287893095D02*
X312419094Y292893095D01*
X311990523Y292178809D01*
X311561952Y291702619D01*
X311133380Y291464523D01*
D11*
X261587992Y288012142D02*
X261480849Y287893095D01*
X261159421Y287774047D01*
X260945135Y287774047D01*
X260623706Y287893095D01*
X260409421Y288131190D01*
X260302278Y288369285D01*
X260195135Y288845476D01*
X260195135Y289202619D01*
X260302278Y289678809D01*
X260409421Y289916904D01*
X260623706Y290155000D01*
X260945135Y290274047D01*
X261159421Y290274047D01*
X261480849Y290155000D01*
X261587992Y290035952D01*
X262230849Y290274047D02*
X262980849Y287774047D01*
X263730849Y290274047D01*
X312113226Y190566326D02*
X313506083Y190566326D01*
X312756083Y189613945D01*
X313077512Y189613945D01*
X313291798Y189494898D01*
X313398940Y189375850D01*
X313506083Y189137755D01*
X313506083Y188542517D01*
X313398940Y188304421D01*
X313291798Y188185374D01*
X313077512Y188066326D01*
X312434655Y188066326D01*
X312220369Y188185374D01*
X312113226Y188304421D01*
X1046852961Y287774047D02*
X1045781533Y287774047D01*
X1045781533Y290274047D01*
X1048352961Y289083571D02*
X1047602961Y289083571D01*
X1047602961Y287774047D02*
X1047602961Y290274047D01*
X1048674390Y290274047D01*
X1049960104Y290274047D02*
X1050388676Y290274047D01*
X1050602961Y290155000D01*
X1050817247Y289916904D01*
X1050924390Y289440714D01*
X1050924390Y288607380D01*
X1050817247Y288131190D01*
X1050602961Y287893095D01*
X1050388676Y287774047D01*
X1049960104Y287774047D01*
X1049745819Y287893095D01*
X1049531533Y288131190D01*
X1049424390Y288607380D01*
X1049424390Y289440714D01*
X1049531533Y289916904D01*
X1049745819Y290155000D01*
X1049960104Y290274047D01*
X1053388676Y290274047D02*
X1054781533Y290274047D01*
X1054031533Y289321666D01*
X1054352961Y289321666D01*
X1054567247Y289202619D01*
X1054674390Y289083571D01*
X1054781533Y288845476D01*
X1054781533Y288250238D01*
X1054674390Y288012142D01*
X1054567247Y287893095D01*
X1054352961Y287774047D01*
X1053710104Y287774047D01*
X1053495819Y287893095D01*
X1053388676Y288012142D01*
X1085483104Y287774047D02*
X1084411676Y287774047D01*
X1084411676Y290274047D01*
X1086983104Y289083571D02*
X1086233104Y289083571D01*
X1086233104Y287774047D02*
X1086233104Y290274047D01*
X1087304533Y290274047D01*
X1088590247Y290274047D02*
X1089018819Y290274047D01*
X1089233104Y290155000D01*
X1089447390Y289916904D01*
X1089554533Y289440714D01*
X1089554533Y288607380D01*
X1089447390Y288131190D01*
X1089233104Y287893095D01*
X1089018819Y287774047D01*
X1088590247Y287774047D01*
X1088375962Y287893095D01*
X1088161676Y288131190D01*
X1088054533Y288607380D01*
X1088054533Y289440714D01*
X1088161676Y289916904D01*
X1088375962Y290155000D01*
X1088590247Y290274047D01*
X1093411676Y287774047D02*
X1092125962Y287774047D01*
X1092768819Y287774047D02*
X1092768819Y290274047D01*
X1092554533Y289916904D01*
X1092340247Y289678809D01*
X1092125962Y289559761D01*
D10*
X1046822561Y292893095D02*
X1045965418Y292893095D01*
X1045536846Y292655000D01*
X1045322561Y292416904D01*
X1044893989Y291702619D01*
X1044679703Y290750238D01*
X1044679703Y288845476D01*
X1044893989Y288369285D01*
X1045108275Y288131190D01*
X1045536846Y287893095D01*
X1046393989Y287893095D01*
X1046822561Y288131190D01*
X1047036846Y288369285D01*
X1047251132Y288845476D01*
X1047251132Y290035952D01*
X1047036846Y290512142D01*
X1046822561Y290750238D01*
X1046393989Y290988333D01*
X1045536846Y290988333D01*
X1045108275Y290750238D01*
X1044893989Y290512142D01*
X1044679703Y290035952D01*
X1052608275Y289797857D02*
X1056036846Y289797857D01*
X1054322561Y287893095D02*
X1054322561Y291702619D01*
X1063965418Y287893095D02*
X1061393989Y287893095D01*
X1062679703Y287893095D02*
X1062679703Y292893095D01*
X1062251132Y292178809D01*
X1061822561Y291702619D01*
X1061393989Y291464523D01*
D11*
X261587992Y288012142D02*
X261480849Y287893095D01*
X261159421Y287774047D01*
X260945135Y287774047D01*
X260623706Y287893095D01*
X260409421Y288131190D01*
X260302278Y288369285D01*
X260195135Y288845476D01*
X260195135Y289202619D01*
X260302278Y289678809D01*
X260409421Y289916904D01*
X260623706Y290155000D01*
X260945135Y290274047D01*
X261159421Y290274047D01*
X261480849Y290155000D01*
X261587992Y290035952D01*
X262230849Y290274047D02*
X262980849Y287774047D01*
X263730849Y290274047D01*
X25103945Y287774047D02*
X24032517Y287774047D01*
X24032517Y290274047D01*
X26603945Y289083571D02*
X25853945Y289083571D01*
X25853945Y287774047D02*
X25853945Y290274047D01*
X26925374Y290274047D01*
X28211088Y290274047D02*
X28639660Y290274047D01*
X28853945Y290155000D01*
X29068231Y289916904D01*
X29175374Y289440714D01*
X29175374Y288607380D01*
X29068231Y288131190D01*
X28853945Y287893095D01*
X28639660Y287774047D01*
X28211088Y287774047D01*
X27996803Y287893095D01*
X27782517Y288131190D01*
X27675374Y288607380D01*
X27675374Y289440714D01*
X27782517Y289916904D01*
X27996803Y290155000D01*
X28211088Y290274047D01*
X33032517Y287774047D02*
X31746803Y287774047D01*
X32389660Y287774047D02*
X32389660Y290274047D01*
X32175374Y289916904D01*
X31961088Y289678809D01*
X31746803Y289559761D01*
X335222495Y287645978D02*
X334151067Y287645978D01*
X334151067Y290145978D01*
X336722495Y288955502D02*
X335972495Y288955502D01*
X335972495Y287645978D02*
X335972495Y290145978D01*
X337043924Y290145978D01*
X338329638Y290145978D02*
X338758210Y290145978D01*
X338972495Y290026931D01*
X339186781Y289788835D01*
X339293924Y289312645D01*
X339293924Y288479311D01*
X339186781Y288003121D01*
X338972495Y287765026D01*
X338758210Y287645978D01*
X338329638Y287645978D01*
X338115353Y287765026D01*
X337901067Y288003121D01*
X337793924Y288479311D01*
X337793924Y289312645D01*
X337901067Y289788835D01*
X338115353Y290026931D01*
X338329638Y290145978D01*
X343151067Y287645978D02*
X341865353Y287645978D01*
X342508210Y287645978D02*
X342508210Y290145978D01*
X342293924Y289788835D01*
X342079638Y289550740D01*
X341865353Y289431692D01*
D10*
X291692507Y290512142D02*
X292335364Y290274047D01*
X292549650Y290035952D01*
X292763936Y289559761D01*
X292763936Y288845476D01*
X292549650Y288369285D01*
X292335364Y288131190D01*
X291906793Y287893095D01*
X290192507Y287893095D01*
X290192507Y292893095D01*
X291692507Y292893095D01*
X292121079Y292655000D01*
X292335364Y292416904D01*
X292549650Y291940714D01*
X292549650Y291464523D01*
X292335364Y290988333D01*
X292121079Y290750238D01*
X291692507Y290512142D01*
X290192507Y290512142D01*
X297263936Y287893095D02*
X295763936Y290274047D01*
X294692507Y287893095D02*
X294692507Y292893095D01*
X296406793Y292893095D01*
X296835364Y292655000D01*
X297049650Y292416904D01*
X297263936Y291940714D01*
X297263936Y291226428D01*
X297049650Y290750238D01*
X296835364Y290512142D01*
X296406793Y290274047D01*
X294692507Y290274047D01*
X299192507Y290512142D02*
X300692507Y290512142D01*
X301335364Y287893095D02*
X299192507Y287893095D01*
X299192507Y292893095D01*
X301335364Y292893095D01*
X303263936Y287893095D02*
X303263936Y292893095D01*
X305835364Y287893095D01*
X305835364Y292893095D01*
X307978221Y287893095D02*
X307978221Y292893095D01*
X310549650Y287893095D01*
X310549650Y292893095D01*
D11*
X28275567Y289440714D02*
X28275567Y287774047D01*
X27739852Y290393095D02*
X27204138Y288607380D01*
X28596995Y288607380D01*
X24718709Y287774047D02*
X23647281Y287774047D01*
X23647281Y290274047D01*
X26218709Y289083571D02*
X25468709Y289083571D01*
X25468709Y287774047D02*
X25468709Y290274047D01*
X26540138Y290274047D01*
X27825852Y290274047D02*
X28254424Y290274047D01*
X28468709Y290155000D01*
X28682995Y289916904D01*
X28790138Y289440714D01*
X28790138Y288607380D01*
X28682995Y288131190D01*
X28468709Y287893095D01*
X28254424Y287774047D01*
X27825852Y287774047D01*
X27611567Y287893095D01*
X27397281Y288131190D01*
X27290138Y288607380D01*
X27290138Y289440714D01*
X27397281Y289916904D01*
X27611567Y290155000D01*
X27825852Y290274047D01*
X32432995Y289440714D02*
X32432995Y287774047D01*
X31897281Y290393095D02*
X31361567Y288607380D01*
X32754424Y288607380D01*
X258910198Y287774047D02*
X257838770Y287774047D01*
X257838770Y290274047D01*
X260410198Y289083571D02*
X259660198Y289083571D01*
X259660198Y287774047D02*
X259660198Y290274047D01*
X260731627Y290274047D01*
X262017341Y290274047D02*
X262445913Y290274047D01*
X262660198Y290155000D01*
X262874484Y289916904D01*
X262981627Y289440714D01*
X262981627Y288607380D01*
X262874484Y288131190D01*
X262660198Y287893095D01*
X262445913Y287774047D01*
X262017341Y287774047D01*
X261803056Y287893095D01*
X261588770Y288131190D01*
X261481627Y288607380D01*
X261481627Y289440714D01*
X261588770Y289916904D01*
X261803056Y290155000D01*
X262017341Y290274047D01*
X265553056Y290035952D02*
X265660198Y290155000D01*
X265874484Y290274047D01*
X266410198Y290274047D01*
X266624484Y290155000D01*
X266731627Y290035952D01*
X266838770Y289797857D01*
X266838770Y289559761D01*
X266731627Y289202619D01*
X265445913Y287774047D01*
X266838770Y287774047D01*
X170051993Y290274047D02*
X171444850Y290274047D01*
X170694850Y289321666D01*
X171016279Y289321666D01*
X171230565Y289202619D01*
X171337707Y289083571D01*
X171444850Y288845476D01*
X171444850Y288250238D01*
X171337707Y288012142D01*
X171230565Y287893095D01*
X171016279Y287774047D01*
X170373422Y287774047D01*
X170159136Y287893095D01*
X170051993Y288012142D01*
X145203475Y290035952D02*
X145310618Y290155000D01*
X145524904Y290274047D01*
X146060618Y290274047D01*
X146274904Y290155000D01*
X146382046Y290035952D01*
X146489189Y289797857D01*
X146489189Y289559761D01*
X146382046Y289202619D01*
X145096332Y287774047D01*
X146489189Y287774047D01*
X-13526197Y287774047D02*
X-14597625Y287774047D01*
X-14597625Y290274047D01*
X-12026197Y289083571D02*
X-12776197Y289083571D01*
X-12776197Y287774047D02*
X-12776197Y290274047D01*
X-11704768Y290274047D01*
X-10419054Y290274047D02*
X-9990482Y290274047D01*
X-9776197Y290155000D01*
X-9561911Y289916904D01*
X-9454768Y289440714D01*
X-9454768Y288607380D01*
X-9561911Y288131190D01*
X-9776197Y287893095D01*
X-9990482Y287774047D01*
X-10419054Y287774047D01*
X-10633340Y287893095D01*
X-10847625Y288131190D01*
X-10954768Y288607380D01*
X-10954768Y289440714D01*
X-10847625Y289916904D01*
X-10633340Y290155000D01*
X-10419054Y290274047D01*
X-6990482Y290274047D02*
X-5597625Y290274047D01*
X-6347625Y289321666D01*
X-6026197Y289321666D01*
X-5811911Y289202619D01*
X-5704768Y289083571D01*
X-5597625Y288845476D01*
X-5597625Y288250238D01*
X-5704768Y288012142D01*
X-5811911Y287893095D01*
X-6026197Y287774047D01*
X-6669054Y287774047D01*
X-6883340Y287893095D01*
X-6990482Y288012142D01*
X132499959Y288012142D02*
X132392816Y287893095D01*
X132071388Y287774047D01*
X131857102Y287774047D01*
X131535673Y287893095D01*
X131321388Y288131190D01*
X131214245Y288369285D01*
X131107102Y288845476D01*
X131107102Y289202619D01*
X131214245Y289678809D01*
X131321388Y289916904D01*
X131535673Y290155000D01*
X131857102Y290274047D01*
X132071388Y290274047D01*
X132392816Y290155000D01*
X132499959Y290035952D01*
X133142816Y290274047D02*
X133892816Y287774047D01*
X134642816Y290274047D01*
X263272454Y287774047D02*
X261986740Y287774047D01*
X262629597Y287774047D02*
X262629597Y290274047D01*
X262415311Y289916904D01*
X262201026Y289678809D01*
X261986740Y289559761D01*
X288195069Y290155000D02*
X287980784Y290274047D01*
X287659355Y290274047D01*
X287337926Y290155000D01*
X287123641Y289916904D01*
X287016498Y289678809D01*
X286909355Y289202619D01*
X286909355Y288845476D01*
X287016498Y288369285D01*
X287123641Y288131190D01*
X287337926Y287893095D01*
X287659355Y287774047D01*
X287873641Y287774047D01*
X288195069Y287893095D01*
X288302212Y288012142D01*
X288302212Y288845476D01*
X287873641Y288845476D01*
X290337926Y287774047D02*
X289266498Y287774047D01*
X289266498Y290274047D01*
X291516498Y290274047D02*
X291945069Y290274047D01*
X292159355Y290155000D01*
X292373641Y289916904D01*
X292480784Y289440714D01*
X292480784Y288607380D01*
X292373641Y288131190D01*
X292159355Y287893095D01*
X291945069Y287774047D01*
X291516498Y287774047D01*
X291302212Y287893095D01*
X291087926Y288131190D01*
X290980784Y288607380D01*
X290980784Y289440714D01*
X291087926Y289916904D01*
X291302212Y290155000D01*
X291516498Y290274047D01*
X294195069Y289083571D02*
X294516498Y288964523D01*
X294623641Y288845476D01*
X294730784Y288607380D01*
X294730784Y288250238D01*
X294623641Y288012142D01*
X294516498Y287893095D01*
X294302212Y287774047D01*
X293445069Y287774047D01*
X293445069Y290274047D01*
X294195069Y290274047D01*
X294409355Y290155000D01*
X294516498Y290035952D01*
X294623641Y289797857D01*
X294623641Y289559761D01*
X294516498Y289321666D01*
X294409355Y289202619D01*
X294195069Y289083571D01*
X293445069Y289083571D01*
X295587926Y288488333D02*
X296659355Y288488333D01*
X295373641Y287774047D02*
X296123641Y290274047D01*
X296873641Y287774047D01*
X298695069Y287774047D02*
X297623641Y287774047D01*
X297623641Y290274047D01*
X301052212Y287893095D02*
X301373641Y287774047D01*
X301909355Y287774047D01*
X302123641Y287893095D01*
X302230784Y288012142D01*
X302337926Y288250238D01*
X302337926Y288488333D01*
X302230784Y288726428D01*
X302123641Y288845476D01*
X301909355Y288964523D01*
X301480784Y289083571D01*
X301266498Y289202619D01*
X301159355Y289321666D01*
X301052212Y289559761D01*
X301052212Y289797857D01*
X301159355Y290035952D01*
X301266498Y290155000D01*
X301480784Y290274047D01*
X302016498Y290274047D01*
X302337926Y290155000D01*
X303302212Y287774047D02*
X303302212Y290274047D01*
X304159355Y290274047D01*
X304373641Y290155000D01*
X304480784Y290035952D01*
X304587926Y289797857D01*
X304587926Y289440714D01*
X304480784Y289202619D01*
X304373641Y289083571D01*
X304159355Y288964523D01*
X303302212Y288964523D01*
X305552212Y289083571D02*
X306302212Y289083571D01*
X306623641Y287774047D02*
X305552212Y287774047D01*
X305552212Y290274047D01*
X306623641Y290274047D01*
X307587926Y289083571D02*
X308337926Y289083571D01*
X308659355Y287774047D02*
X307587926Y287774047D01*
X307587926Y290274047D01*
X308659355Y290274047D01*
X309623641Y287774047D02*
X309623641Y290274047D01*
X310159355Y290274047D01*
X310480784Y290155000D01*
X310695069Y289916904D01*
X310802212Y289678809D01*
X310909355Y289202619D01*
X310909355Y288845476D01*
X310802212Y288369285D01*
X310695069Y288131190D01*
X310480784Y287893095D01*
X310159355Y287774047D01*
X309623641Y287774047D01*
X116848966Y287774047D02*
X115777538Y287774047D01*
X115777538Y290274047D01*
X118348966Y289083571D02*
X117598966Y289083571D01*
X117598966Y287774047D02*
X117598966Y290274047D01*
X118670395Y290274047D01*
X119956109Y290274047D02*
X120384681Y290274047D01*
X120598966Y290155000D01*
X120813252Y289916904D01*
X120920395Y289440714D01*
X120920395Y288607380D01*
X120813252Y288131190D01*
X120598966Y287893095D01*
X120384681Y287774047D01*
X119956109Y287774047D01*
X119741824Y287893095D01*
X119527538Y288131190D01*
X119420395Y288607380D01*
X119420395Y289440714D01*
X119527538Y289916904D01*
X119741824Y290155000D01*
X119956109Y290274047D01*
X123491824Y290035952D02*
X123598966Y290155000D01*
X123813252Y290274047D01*
X124348966Y290274047D01*
X124563252Y290155000D01*
X124670395Y290035952D01*
X124777538Y289797857D01*
X124777538Y289559761D01*
X124670395Y289202619D01*
X123384681Y287774047D01*
X124777538Y287774047D01*
X196332885Y289440714D02*
X196332885Y287774047D01*
X195797170Y290393095D02*
X195261456Y288607380D01*
X196654313Y288607380D01*
X-48530557Y288012142D02*
X-48637700Y287893095D01*
X-48959128Y287774047D01*
X-49173414Y287774047D01*
X-49494843Y287893095D01*
X-49709128Y288131190D01*
X-49816271Y288369285D01*
X-49923414Y288845476D01*
X-49923414Y289202619D01*
X-49816271Y289678809D01*
X-49709128Y289916904D01*
X-49494843Y290155000D01*
X-49173414Y290274047D01*
X-48959128Y290274047D01*
X-48637700Y290155000D01*
X-48530557Y290035952D01*
X-47887700Y290274047D02*
X-47137700Y287774047D01*
X-46387700Y290274047D01*
D10*
X296561952Y292893095D02*
X295704809Y292893095D01*
X295276237Y292655000D01*
X295061952Y292416904D01*
X294633380Y291702619D01*
X294419094Y290750238D01*
X294419094Y288845476D01*
X294633380Y288369285D01*
X294847666Y288131190D01*
X295276237Y287893095D01*
X296133380Y287893095D01*
X296561952Y288131190D01*
X296776237Y288369285D01*
X296990523Y288845476D01*
X296990523Y290035952D01*
X296776237Y290512142D01*
X296561952Y290750238D01*
X296133380Y290988333D01*
X295276237Y290988333D01*
X294847666Y290750238D01*
X294633380Y290512142D01*
X294419094Y290035952D01*
X302347666Y289797857D02*
X305776237Y289797857D01*
X304061952Y287893095D02*
X304061952Y291702619D01*
X313704809Y287893095D02*
X311133380Y287893095D01*
X312419094Y287893095D02*
X312419094Y292893095D01*
X311990523Y292178809D01*
X311561952Y291702619D01*
X311133380Y291464523D01*
D11*
X193161263Y287774047D02*
X192089835Y287774047D01*
X192089835Y290274047D01*
X194661263Y289083571D02*
X193911263Y289083571D01*
X193911263Y287774047D02*
X193911263Y290274047D01*
X194982692Y290274047D01*
X196268406Y290274047D02*
X196696978Y290274047D01*
X196911263Y290155000D01*
X197125549Y289916904D01*
X197232692Y289440714D01*
X197232692Y288607380D01*
X197125549Y288131190D01*
X196911263Y287893095D01*
X196696978Y287774047D01*
X196268406Y287774047D01*
X196054121Y287893095D01*
X195839835Y288131190D01*
X195732692Y288607380D01*
X195732692Y289440714D01*
X195839835Y289916904D01*
X196054121Y290155000D01*
X196268406Y290274047D01*
X201089835Y287774047D02*
X199804121Y287774047D01*
X200446978Y287774047D02*
X200446978Y290274047D01*
X200232692Y289916904D01*
X200018406Y289678809D01*
X199804121Y289559761D01*
D10*
X-18426042Y290512142D02*
X-17783185Y290274047D01*
X-17568899Y290035952D01*
X-17354613Y289559761D01*
X-17354613Y288845476D01*
X-17568899Y288369285D01*
X-17783185Y288131190D01*
X-18211756Y287893095D01*
X-19926042Y287893095D01*
X-19926042Y292893095D01*
X-18426042Y292893095D01*
X-17997471Y292655000D01*
X-17783185Y292416904D01*
X-17568899Y291940714D01*
X-17568899Y291464523D01*
X-17783185Y290988333D01*
X-17997471Y290750238D01*
X-18426042Y290512142D01*
X-19926042Y290512142D01*
X-12854613Y287893095D02*
X-14354613Y290274047D01*
X-15426042Y287893095D02*
X-15426042Y292893095D01*
X-13711756Y292893095D01*
X-13283185Y292655000D01*
X-13068899Y292416904D01*
X-12854613Y291940714D01*
X-12854613Y291226428D01*
X-13068899Y290750238D01*
X-13283185Y290512142D01*
X-13711756Y290274047D01*
X-15426042Y290274047D01*
X-10926042Y290512142D02*
X-9426042Y290512142D01*
X-8783185Y287893095D02*
X-10926042Y287893095D01*
X-10926042Y292893095D01*
X-8783185Y292893095D01*
X-6854613Y287893095D02*
X-6854613Y292893095D01*
X-4283185Y287893095D01*
X-4283185Y292893095D01*
X-2140328Y287893095D02*
X-2140328Y292893095D01*
X431100Y287893095D01*
X431100Y292893095D01*
X154500720Y292893095D02*
X153643577Y292893095D01*
X153215005Y292655000D01*
X153000720Y292416904D01*
X152572148Y291702619D01*
X152357862Y290750238D01*
X152357862Y288845476D01*
X152572148Y288369285D01*
X152786434Y288131190D01*
X153215005Y287893095D01*
X154072148Y287893095D01*
X154500720Y288131190D01*
X154715005Y288369285D01*
X154929291Y288845476D01*
X154929291Y290035952D01*
X154715005Y290512142D01*
X154500720Y290750238D01*
X154072148Y290988333D01*
X153215005Y290988333D01*
X152786434Y290750238D01*
X152572148Y290512142D01*
X152357862Y290035952D01*
X160286434Y289797857D02*
X163715005Y289797857D01*
X162000720Y287893095D02*
X162000720Y291702619D01*
X171643577Y287893095D02*
X169072148Y287893095D01*
X170357862Y287893095D02*
X170357862Y292893095D01*
X169929291Y292178809D01*
X169500720Y291702619D01*
X169072148Y291464523D01*
D11*
X192776026Y287774047D02*
X191704598Y287774047D01*
X191704598Y290274047D01*
X194276026Y289083571D02*
X193526026Y289083571D01*
X193526026Y287774047D02*
X193526026Y290274047D01*
X194597455Y290274047D01*
X195883169Y290274047D02*
X196311741Y290274047D01*
X196526026Y290155000D01*
X196740312Y289916904D01*
X196847455Y289440714D01*
X196847455Y288607380D01*
X196740312Y288131190D01*
X196526026Y287893095D01*
X196311741Y287774047D01*
X195883169Y287774047D01*
X195668884Y287893095D01*
X195454598Y288131190D01*
X195347455Y288607380D01*
X195347455Y289440714D01*
X195454598Y289916904D01*
X195668884Y290155000D01*
X195883169Y290274047D01*
X200490312Y289440714D02*
X200490312Y287774047D01*
X199954598Y290393095D02*
X199418884Y288607380D01*
X200811741Y288607380D01*
X296592352Y287774047D02*
X295520924Y287774047D01*
X295520924Y290274047D01*
X298092352Y289083571D02*
X297342352Y289083571D01*
X297342352Y287774047D02*
X297342352Y290274047D01*
X298413781Y290274047D01*
X299699495Y290274047D02*
X300128067Y290274047D01*
X300342352Y290155000D01*
X300556638Y289916904D01*
X300663781Y289440714D01*
X300663781Y288607380D01*
X300556638Y288131190D01*
X300342352Y287893095D01*
X300128067Y287774047D01*
X299699495Y287774047D01*
X299485210Y287893095D01*
X299270924Y288131190D01*
X299163781Y288607380D01*
X299163781Y289440714D01*
X299270924Y289916904D01*
X299485210Y290155000D01*
X299699495Y290274047D01*
X303128067Y290274047D02*
X304520924Y290274047D01*
X303770924Y289321666D01*
X304092352Y289321666D01*
X304306638Y289202619D01*
X304413781Y289083571D01*
X304520924Y288845476D01*
X304520924Y288250238D01*
X304413781Y288012142D01*
X304306638Y287893095D01*
X304092352Y287774047D01*
X303449495Y287774047D01*
X303235210Y287893095D01*
X303128067Y288012142D01*
D10*
X149631274Y290512142D02*
X150274131Y290274047D01*
X150488417Y290035952D01*
X150702703Y289559761D01*
X150702703Y288845476D01*
X150488417Y288369285D01*
X150274131Y288131190D01*
X149845560Y287893095D01*
X148131274Y287893095D01*
X148131274Y292893095D01*
X149631274Y292893095D01*
X150059846Y292655000D01*
X150274131Y292416904D01*
X150488417Y291940714D01*
X150488417Y291464523D01*
X150274131Y290988333D01*
X150059846Y290750238D01*
X149631274Y290512142D01*
X148131274Y290512142D01*
X155202703Y287893095D02*
X153702703Y290274047D01*
X152631274Y287893095D02*
X152631274Y292893095D01*
X154345560Y292893095D01*
X154774131Y292655000D01*
X154988417Y292416904D01*
X155202703Y291940714D01*
X155202703Y291226428D01*
X154988417Y290750238D01*
X154774131Y290512142D01*
X154345560Y290274047D01*
X152631274Y290274047D01*
X157131274Y290512142D02*
X158631274Y290512142D01*
X159274131Y287893095D02*
X157131274Y287893095D01*
X157131274Y292893095D01*
X159274131Y292893095D01*
X161202703Y287893095D02*
X161202703Y292893095D01*
X163774131Y287893095D01*
X163774131Y292893095D01*
X165916988Y287893095D02*
X165916988Y292893095D01*
X168488417Y287893095D01*
X168488417Y292893095D01*
D11*
X146133836Y290155000D02*
X145919551Y290274047D01*
X145598122Y290274047D01*
X145276693Y290155000D01*
X145062408Y289916904D01*
X144955265Y289678809D01*
X144848122Y289202619D01*
X144848122Y288845476D01*
X144955265Y288369285D01*
X145062408Y288131190D01*
X145276693Y287893095D01*
X145598122Y287774047D01*
X145812408Y287774047D01*
X146133836Y287893095D01*
X146240979Y288012142D01*
X146240979Y288845476D01*
X145812408Y288845476D01*
X148276693Y287774047D02*
X147205265Y287774047D01*
X147205265Y290274047D01*
X149455265Y290274047D02*
X149883836Y290274047D01*
X150098122Y290155000D01*
X150312408Y289916904D01*
X150419551Y289440714D01*
X150419551Y288607380D01*
X150312408Y288131190D01*
X150098122Y287893095D01*
X149883836Y287774047D01*
X149455265Y287774047D01*
X149240979Y287893095D01*
X149026693Y288131190D01*
X148919551Y288607380D01*
X148919551Y289440714D01*
X149026693Y289916904D01*
X149240979Y290155000D01*
X149455265Y290274047D01*
X152133836Y289083571D02*
X152455265Y288964523D01*
X152562408Y288845476D01*
X152669551Y288607380D01*
X152669551Y288250238D01*
X152562408Y288012142D01*
X152455265Y287893095D01*
X152240979Y287774047D01*
X151383836Y287774047D01*
X151383836Y290274047D01*
X152133836Y290274047D01*
X152348122Y290155000D01*
X152455265Y290035952D01*
X152562408Y289797857D01*
X152562408Y289559761D01*
X152455265Y289321666D01*
X152348122Y289202619D01*
X152133836Y289083571D01*
X151383836Y289083571D01*
X153526693Y288488333D02*
X154598122Y288488333D01*
X153312408Y287774047D02*
X154062408Y290274047D01*
X154812408Y287774047D01*
X156633836Y287774047D02*
X155562408Y287774047D01*
X155562408Y290274047D01*
X158990979Y287893095D02*
X159312408Y287774047D01*
X159848122Y287774047D01*
X160062408Y287893095D01*
X160169551Y288012142D01*
X160276693Y288250238D01*
X160276693Y288488333D01*
X160169551Y288726428D01*
X160062408Y288845476D01*
X159848122Y288964523D01*
X159419551Y289083571D01*
X159205265Y289202619D01*
X159098122Y289321666D01*
X158990979Y289559761D01*
X158990979Y289797857D01*
X159098122Y290035952D01*
X159205265Y290155000D01*
X159419551Y290274047D01*
X159955265Y290274047D01*
X160276693Y290155000D01*
X161240979Y287774047D02*
X161240979Y290274047D01*
X162098122Y290274047D01*
X162312408Y290155000D01*
X162419551Y290035952D01*
X162526693Y289797857D01*
X162526693Y289440714D01*
X162419551Y289202619D01*
X162312408Y289083571D01*
X162098122Y288964523D01*
X161240979Y288964523D01*
X163490979Y289083571D02*
X164240979Y289083571D01*
X164562408Y287774047D02*
X163490979Y287774047D01*
X163490979Y290274047D01*
X164562408Y290274047D01*
X165526693Y289083571D02*
X166276693Y289083571D01*
X166598122Y287774047D02*
X165526693Y287774047D01*
X165526693Y290274047D01*
X166598122Y290274047D01*
X167562408Y287774047D02*
X167562408Y290274047D01*
X168098122Y290274047D01*
X168419551Y290155000D01*
X168633836Y289916904D01*
X168740979Y289678809D01*
X168848122Y289202619D01*
X168848122Y288845476D01*
X168740979Y288369285D01*
X168633836Y288131190D01*
X168419551Y287893095D01*
X168098122Y287774047D01*
X167562408Y287774047D01*
X-51208351Y287774047D02*
X-52279779Y287774047D01*
X-52279779Y290274047D01*
X-49708351Y289083571D02*
X-50458351Y289083571D01*
X-50458351Y287774047D02*
X-50458351Y290274047D01*
X-49386922Y290274047D01*
X-48101208Y290274047D02*
X-47672636Y290274047D01*
X-47458351Y290155000D01*
X-47244065Y289916904D01*
X-47136922Y289440714D01*
X-47136922Y288607380D01*
X-47244065Y288131190D01*
X-47458351Y287893095D01*
X-47672636Y287774047D01*
X-48101208Y287774047D01*
X-48315494Y287893095D01*
X-48529779Y288131190D01*
X-48636922Y288607380D01*
X-48636922Y289440714D01*
X-48529779Y289916904D01*
X-48315494Y290155000D01*
X-48101208Y290274047D01*
X-44565494Y290035952D02*
X-44458351Y290155000D01*
X-44244065Y290274047D01*
X-43708351Y290274047D01*
X-43494065Y290155000D01*
X-43386922Y290035952D01*
X-43279779Y289797857D01*
X-43279779Y289559761D01*
X-43386922Y289202619D01*
X-44672636Y287774047D01*
X-43279779Y287774047D01*
X154531119Y287774047D02*
X153459691Y287774047D01*
X153459691Y290274047D01*
X156031119Y289083571D02*
X155281119Y289083571D01*
X155281119Y287774047D02*
X155281119Y290274047D01*
X156352548Y290274047D01*
X157638262Y290274047D02*
X158066834Y290274047D01*
X158281119Y290155000D01*
X158495405Y289916904D01*
X158602548Y289440714D01*
X158602548Y288607380D01*
X158495405Y288131190D01*
X158281119Y287893095D01*
X158066834Y287774047D01*
X157638262Y287774047D01*
X157423977Y287893095D01*
X157209691Y288131190D01*
X157102548Y288607380D01*
X157102548Y289440714D01*
X157209691Y289916904D01*
X157423977Y290155000D01*
X157638262Y290274047D01*
X161066834Y290274047D02*
X162459691Y290274047D01*
X161709691Y289321666D01*
X162031119Y289321666D01*
X162245405Y289202619D01*
X162352548Y289083571D01*
X162459691Y288845476D01*
X162459691Y288250238D01*
X162352548Y288012142D01*
X162245405Y287893095D01*
X162031119Y287774047D01*
X161388262Y287774047D01*
X161173977Y287893095D01*
X161066834Y288012142D01*
X274561192Y288012142D02*
X274454049Y287893095D01*
X274132621Y287774047D01*
X273918335Y287774047D01*
X273596906Y287893095D01*
X273382621Y288131190D01*
X273275478Y288369285D01*
X273168335Y288845476D01*
X273168335Y289202619D01*
X273275478Y289678809D01*
X273382621Y289916904D01*
X273596906Y290155000D01*
X273918335Y290274047D01*
X274132621Y290274047D01*
X274454049Y290155000D01*
X274561192Y290035952D01*
X275204049Y290274047D02*
X275954049Y287774047D01*
X276704049Y290274047D01*
X335222495Y287774047D02*
X334151067Y287774047D01*
X334151067Y290274047D01*
X336722495Y289083571D02*
X335972495Y289083571D01*
X335972495Y287774047D02*
X335972495Y290274047D01*
X337043924Y290274047D01*
X338329638Y290274047D02*
X338758210Y290274047D01*
X338972495Y290155000D01*
X339186781Y289916904D01*
X339293924Y289440714D01*
X339293924Y288607380D01*
X339186781Y288131190D01*
X338972495Y287893095D01*
X338758210Y287774047D01*
X338329638Y287774047D01*
X338115353Y287893095D01*
X337901067Y288131190D01*
X337793924Y288607380D01*
X337793924Y289440714D01*
X337901067Y289916904D01*
X338115353Y290155000D01*
X338329638Y290274047D01*
X343151067Y287774047D02*
X341865353Y287774047D01*
X342508210Y287774047D02*
X342508210Y290274047D01*
X342293924Y289916904D01*
X342079638Y289678809D01*
X341865353Y289559761D01*
X119526759Y288012142D02*
X119419616Y287893095D01*
X119098188Y287774047D01*
X118883902Y287774047D01*
X118562473Y287893095D01*
X118348188Y288131190D01*
X118241045Y288369285D01*
X118133902Y288845476D01*
X118133902Y289202619D01*
X118241045Y289678809D01*
X118348188Y289916904D01*
X118562473Y290155000D01*
X118883902Y290274047D01*
X119098188Y290274047D01*
X119419616Y290155000D01*
X119526759Y290035952D01*
X120169616Y290274047D02*
X120919616Y287774047D01*
X121669616Y290274047D01*
X121211221Y287774047D02*
X119925507Y287774047D01*
X120568364Y287774047D02*
X120568364Y290274047D01*
X120354078Y289916904D01*
X120139793Y289678809D01*
X119925507Y289559761D01*
X1994676Y290274047D02*
X3387533Y290274047D01*
X2637533Y289321666D01*
X2958962Y289321666D01*
X3173248Y289202619D01*
X3280390Y289083571D01*
X3387533Y288845476D01*
X3387533Y288250238D01*
X3280390Y288012142D01*
X3173248Y287893095D01*
X2958962Y287774047D01*
X2316105Y287774047D01*
X2101819Y287893095D01*
X1994676Y288012142D01*
X274561192Y204185894D02*
X274454049Y204066847D01*
X274132621Y203947799D01*
X273918335Y203947799D01*
X273596906Y204066847D01*
X273382621Y204304942D01*
X273275478Y204543037D01*
X273168335Y205019228D01*
X273168335Y205376371D01*
X273275478Y205852561D01*
X273382621Y206090656D01*
X273596906Y206328752D01*
X273918335Y206447799D01*
X274132621Y206447799D01*
X274454049Y206328752D01*
X274561192Y206209704D01*
X275204049Y206447799D02*
X275954049Y203947799D01*
X276704049Y206447799D01*
X287264707Y290035952D02*
X287371850Y290155000D01*
X287586136Y290274047D01*
X288121850Y290274047D01*
X288336136Y290155000D01*
X288443278Y290035952D01*
X288550421Y289797857D01*
X288550421Y289559761D01*
X288443278Y289202619D01*
X287157564Y287774047D01*
X288550421Y287774047D01*
X334837259Y242675978D02*
X333765831Y242675978D01*
X333765831Y245175978D01*
X336337259Y243985502D02*
X335587259Y243985502D01*
X335587259Y242675978D02*
X335587259Y245175978D01*
X336658688Y245175978D01*
X337944402Y245175978D02*
X338372974Y245175978D01*
X338587259Y245056931D01*
X338801545Y244818835D01*
X338908688Y244342645D01*
X338908688Y243509311D01*
X338801545Y243033121D01*
X338587259Y242795026D01*
X338372974Y242675978D01*
X337944402Y242675978D01*
X337730117Y242795026D01*
X337515831Y243033121D01*
X337408688Y243509311D01*
X337408688Y244342645D01*
X337515831Y244818835D01*
X337730117Y245056931D01*
X337944402Y245175978D01*
X342551545Y244342645D02*
X342551545Y242675978D01*
X342015831Y245295026D02*
X341480117Y243509311D01*
X342872974Y243509311D01*
X296592352Y242675978D02*
X295520924Y242675978D01*
X295520924Y245175978D01*
X298092352Y243985502D02*
X297342352Y243985502D01*
X297342352Y242675978D02*
X297342352Y245175978D01*
X298413781Y245175978D01*
X299699495Y245175978D02*
X300128067Y245175978D01*
X300342352Y245056931D01*
X300556638Y244818835D01*
X300663781Y244342645D01*
X300663781Y243509311D01*
X300556638Y243033121D01*
X300342352Y242795026D01*
X300128067Y242675978D01*
X299699495Y242675978D01*
X299485210Y242795026D01*
X299270924Y243033121D01*
X299163781Y243509311D01*
X299163781Y244342645D01*
X299270924Y244818835D01*
X299485210Y245056931D01*
X299699495Y245175978D01*
X303128067Y245175978D02*
X304520924Y245175978D01*
X303770924Y244223597D01*
X304092352Y244223597D01*
X304306638Y244104550D01*
X304413781Y243985502D01*
X304520924Y243747407D01*
X304520924Y243152169D01*
X304413781Y242914073D01*
X304306638Y242795026D01*
X304092352Y242675978D01*
X303449495Y242675978D01*
X303235210Y242795026D01*
X303128067Y242914073D01*
X258910198Y242675978D02*
X257838770Y242675978D01*
X257838770Y245175978D01*
X260410198Y243985502D02*
X259660198Y243985502D01*
X259660198Y242675978D02*
X259660198Y245175978D01*
X260731627Y245175978D01*
X262017341Y245175978D02*
X262445913Y245175978D01*
X262660198Y245056931D01*
X262874484Y244818835D01*
X262981627Y244342645D01*
X262981627Y243509311D01*
X262874484Y243033121D01*
X262660198Y242795026D01*
X262445913Y242675978D01*
X262017341Y242675978D01*
X261803056Y242795026D01*
X261588770Y243033121D01*
X261481627Y243509311D01*
X261481627Y244342645D01*
X261588770Y244818835D01*
X261803056Y245056931D01*
X262017341Y245175978D01*
X265553056Y244937883D02*
X265660198Y245056931D01*
X265874484Y245175978D01*
X266410198Y245175978D01*
X266624484Y245056931D01*
X266731627Y244937883D01*
X266838770Y244699788D01*
X266838770Y244461692D01*
X266731627Y244104550D01*
X265445913Y242675978D01*
X266838770Y242675978D01*
D10*
X291692507Y290512142D02*
X292335364Y290274047D01*
X292549650Y290035952D01*
X292763936Y289559761D01*
X292763936Y288845476D01*
X292549650Y288369285D01*
X292335364Y288131190D01*
X291906793Y287893095D01*
X290192507Y287893095D01*
X290192507Y292893095D01*
X291692507Y292893095D01*
X292121079Y292655000D01*
X292335364Y292416904D01*
X292549650Y291940714D01*
X292549650Y291464523D01*
X292335364Y290988333D01*
X292121079Y290750238D01*
X291692507Y290512142D01*
X290192507Y290512142D01*
X297263936Y287893095D02*
X295763936Y290274047D01*
X294692507Y287893095D02*
X294692507Y292893095D01*
X296406793Y292893095D01*
X296835364Y292655000D01*
X297049650Y292416904D01*
X297263936Y291940714D01*
X297263936Y291226428D01*
X297049650Y290750238D01*
X296835364Y290512142D01*
X296406793Y290274047D01*
X294692507Y290274047D01*
X299192507Y290512142D02*
X300692507Y290512142D01*
X301335364Y287893095D02*
X299192507Y287893095D01*
X299192507Y292893095D01*
X301335364Y292893095D01*
X303263936Y287893095D02*
X303263936Y292893095D01*
X305835364Y287893095D01*
X305835364Y292893095D01*
X307978221Y287893095D02*
X307978221Y292893095D01*
X310549650Y287893095D01*
X310549650Y292893095D01*
D11*
X288195069Y290026931D02*
X287980784Y290145978D01*
X287659355Y290145978D01*
X287337926Y290026931D01*
X287123641Y289788835D01*
X287016498Y289550740D01*
X286909355Y289074550D01*
X286909355Y288717407D01*
X287016498Y288241216D01*
X287123641Y288003121D01*
X287337926Y287765026D01*
X287659355Y287645978D01*
X287873641Y287645978D01*
X288195069Y287765026D01*
X288302212Y287884073D01*
X288302212Y288717407D01*
X287873641Y288717407D01*
X290337926Y287645978D02*
X289266498Y287645978D01*
X289266498Y290145978D01*
X291516498Y290145978D02*
X291945069Y290145978D01*
X292159355Y290026931D01*
X292373641Y289788835D01*
X292480784Y289312645D01*
X292480784Y288479311D01*
X292373641Y288003121D01*
X292159355Y287765026D01*
X291945069Y287645978D01*
X291516498Y287645978D01*
X291302212Y287765026D01*
X291087926Y288003121D01*
X290980784Y288479311D01*
X290980784Y289312645D01*
X291087926Y289788835D01*
X291302212Y290026931D01*
X291516498Y290145978D01*
X294195069Y288955502D02*
X294516498Y288836454D01*
X294623641Y288717407D01*
X294730784Y288479311D01*
X294730784Y288122169D01*
X294623641Y287884073D01*
X294516498Y287765026D01*
X294302212Y287645978D01*
X293445069Y287645978D01*
X293445069Y290145978D01*
X294195069Y290145978D01*
X294409355Y290026931D01*
X294516498Y289907883D01*
X294623641Y289669788D01*
X294623641Y289431692D01*
X294516498Y289193597D01*
X294409355Y289074550D01*
X294195069Y288955502D01*
X293445069Y288955502D01*
X295587926Y288360264D02*
X296659355Y288360264D01*
X295373641Y287645978D02*
X296123641Y290145978D01*
X296873641Y287645978D01*
X298695069Y287645978D02*
X297623641Y287645978D01*
X297623641Y290145978D01*
X301052212Y287765026D02*
X301373641Y287645978D01*
X301909355Y287645978D01*
X302123641Y287765026D01*
X302230784Y287884073D01*
X302337926Y288122169D01*
X302337926Y288360264D01*
X302230784Y288598359D01*
X302123641Y288717407D01*
X301909355Y288836454D01*
X301480784Y288955502D01*
X301266498Y289074550D01*
X301159355Y289193597D01*
X301052212Y289431692D01*
X301052212Y289669788D01*
X301159355Y289907883D01*
X301266498Y290026931D01*
X301480784Y290145978D01*
X302016498Y290145978D01*
X302337926Y290026931D01*
X303302212Y287645978D02*
X303302212Y290145978D01*
X304159355Y290145978D01*
X304373641Y290026931D01*
X304480784Y289907883D01*
X304587926Y289669788D01*
X304587926Y289312645D01*
X304480784Y289074550D01*
X304373641Y288955502D01*
X304159355Y288836454D01*
X303302212Y288836454D01*
X305552212Y288955502D02*
X306302212Y288955502D01*
X306623641Y287645978D02*
X305552212Y287645978D01*
X305552212Y290145978D01*
X306623641Y290145978D01*
X307587926Y288955502D02*
X308337926Y288955502D01*
X308659355Y287645978D02*
X307587926Y287645978D01*
X307587926Y290145978D01*
X308659355Y290145978D01*
X309623641Y287645978D02*
X309623641Y290145978D01*
X310159355Y290145978D01*
X310480784Y290026931D01*
X310695069Y289788835D01*
X310802212Y289550740D01*
X310909355Y289074550D01*
X310909355Y288717407D01*
X310802212Y288241216D01*
X310695069Y288003121D01*
X310480784Y287765026D01*
X310159355Y287645978D01*
X309623641Y287645978D01*
D10*
X-13556597Y292893095D02*
X-14413739Y292893095D01*
X-14842311Y292655000D01*
X-15056597Y292416904D01*
X-15485168Y291702619D01*
X-15699454Y290750238D01*
X-15699454Y288845476D01*
X-15485168Y288369285D01*
X-15270882Y288131190D01*
X-14842311Y287893095D01*
X-13985168Y287893095D01*
X-13556597Y288131190D01*
X-13342311Y288369285D01*
X-13128025Y288845476D01*
X-13128025Y290035952D01*
X-13342311Y290512142D01*
X-13556597Y290750238D01*
X-13985168Y290988333D01*
X-14842311Y290988333D01*
X-15270882Y290750238D01*
X-15485168Y290512142D01*
X-15699454Y290035952D01*
X-7770882Y289797857D02*
X-4342311Y289797857D01*
X-6056597Y287893095D02*
X-6056597Y291702619D01*
X3586260Y287893095D02*
X1014831Y287893095D01*
X2300545Y287893095D02*
X2300545Y292893095D01*
X1871974Y292178809D01*
X1443403Y291702619D01*
X1014831Y291464523D01*
D11*
X338394117Y289440714D02*
X338394117Y287774047D01*
X337858402Y290393095D02*
X337322688Y288607380D01*
X338715545Y288607380D01*
X261587992Y287885778D02*
X261480849Y287766731D01*
X261159421Y287647683D01*
X260945135Y287647683D01*
X260623706Y287766731D01*
X260409421Y288004826D01*
X260302278Y288242921D01*
X260195135Y288719112D01*
X260195135Y289076255D01*
X260302278Y289552445D01*
X260409421Y289790540D01*
X260623706Y290028636D01*
X260945135Y290147683D01*
X261159421Y290147683D01*
X261480849Y290028636D01*
X261587992Y289909588D01*
X262230849Y290147683D02*
X262980849Y287647683D01*
X263730849Y290147683D01*
X-22853842Y290035952D02*
X-22746699Y290155000D01*
X-22532414Y290274047D01*
X-21996699Y290274047D01*
X-21782414Y290155000D01*
X-21675271Y290035952D01*
X-21568128Y289797857D01*
X-21568128Y289559761D01*
X-21675271Y289202619D01*
X-22960985Y287774047D01*
X-21568128Y287774047D01*
X-35557357Y288012142D02*
X-35664500Y287893095D01*
X-35985928Y287774047D01*
X-36200214Y287774047D01*
X-36521643Y287893095D01*
X-36735928Y288131190D01*
X-36843071Y288369285D01*
X-36950214Y288845476D01*
X-36950214Y289202619D01*
X-36843071Y289678809D01*
X-36735928Y289916904D01*
X-36521643Y290155000D01*
X-36200214Y290274047D01*
X-35985928Y290274047D01*
X-35664500Y290155000D01*
X-35557357Y290035952D01*
X-34914500Y290274047D02*
X-34164500Y287774047D01*
X-33414500Y290274047D01*
X-46846095Y287774047D02*
X-48131809Y287774047D01*
X-47488952Y287774047D02*
X-47488952Y290274047D01*
X-47703238Y289916904D01*
X-47917523Y289678809D01*
X-48131809Y289559761D01*
X-21923480Y290155000D02*
X-22137766Y290274047D01*
X-22459194Y290274047D01*
X-22780623Y290155000D01*
X-22994908Y289916904D01*
X-23102051Y289678809D01*
X-23209194Y289202619D01*
X-23209194Y288845476D01*
X-23102051Y288369285D01*
X-22994908Y288131190D01*
X-22780623Y287893095D01*
X-22459194Y287774047D01*
X-22244908Y287774047D01*
X-21923480Y287893095D01*
X-21816337Y288012142D01*
X-21816337Y288845476D01*
X-22244908Y288845476D01*
X-19780623Y287774047D02*
X-20852051Y287774047D01*
X-20852051Y290274047D01*
X-18602051Y290274047D02*
X-18173480Y290274047D01*
X-17959194Y290155000D01*
X-17744908Y289916904D01*
X-17637766Y289440714D01*
X-17637766Y288607380D01*
X-17744908Y288131190D01*
X-17959194Y287893095D01*
X-18173480Y287774047D01*
X-18602051Y287774047D01*
X-18816337Y287893095D01*
X-19030623Y288131190D01*
X-19137766Y288607380D01*
X-19137766Y289440714D01*
X-19030623Y289916904D01*
X-18816337Y290155000D01*
X-18602051Y290274047D01*
X-15923480Y289083571D02*
X-15602051Y288964523D01*
X-15494908Y288845476D01*
X-15387766Y288607380D01*
X-15387766Y288250238D01*
X-15494908Y288012142D01*
X-15602051Y287893095D01*
X-15816337Y287774047D01*
X-16673480Y287774047D01*
X-16673480Y290274047D01*
X-15923480Y290274047D01*
X-15709194Y290155000D01*
X-15602051Y290035952D01*
X-15494908Y289797857D01*
X-15494908Y289559761D01*
X-15602051Y289321666D01*
X-15709194Y289202619D01*
X-15923480Y289083571D01*
X-16673480Y289083571D01*
X-14530623Y288488333D02*
X-13459194Y288488333D01*
X-14744908Y287774047D02*
X-13994908Y290274047D01*
X-13244908Y287774047D01*
X-11423480Y287774047D02*
X-12494908Y287774047D01*
X-12494908Y290274047D01*
X-9066337Y287893095D02*
X-8744908Y287774047D01*
X-8209194Y287774047D01*
X-7994908Y287893095D01*
X-7887766Y288012142D01*
X-7780623Y288250238D01*
X-7780623Y288488333D01*
X-7887766Y288726428D01*
X-7994908Y288845476D01*
X-8209194Y288964523D01*
X-8637766Y289083571D01*
X-8852051Y289202619D01*
X-8959194Y289321666D01*
X-9066337Y289559761D01*
X-9066337Y289797857D01*
X-8959194Y290035952D01*
X-8852051Y290155000D01*
X-8637766Y290274047D01*
X-8102051Y290274047D01*
X-7780623Y290155000D01*
X-6816337Y287774047D02*
X-6816337Y290274047D01*
X-5959194Y290274047D01*
X-5744908Y290155000D01*
X-5637766Y290035952D01*
X-5530623Y289797857D01*
X-5530623Y289440714D01*
X-5637766Y289202619D01*
X-5744908Y289083571D01*
X-5959194Y288964523D01*
X-6816337Y288964523D01*
X-4566337Y289083571D02*
X-3816337Y289083571D01*
X-3494908Y287774047D02*
X-4566337Y287774047D01*
X-4566337Y290274047D01*
X-3494908Y290274047D01*
X-2530623Y289083571D02*
X-1780623Y289083571D01*
X-1459194Y287774047D02*
X-2530623Y287774047D01*
X-2530623Y290274047D01*
X-1459194Y290274047D01*
X-494908Y287774047D02*
X-494908Y290274047D01*
X40805Y290274047D01*
X362233Y290155000D01*
X576519Y289916904D01*
X683662Y289678809D01*
X790805Y289202619D01*
X790805Y288845476D01*
X683662Y288369285D01*
X576519Y288131190D01*
X362233Y287893095D01*
X40805Y287774047D01*
X-494908Y287774047D01*
X312113226Y290274047D02*
X313506083Y290274047D01*
X312756083Y289321666D01*
X313077512Y289321666D01*
X313291798Y289202619D01*
X313398940Y289083571D01*
X313506083Y288845476D01*
X313506083Y288250238D01*
X313398940Y288012142D01*
X313291798Y287893095D01*
X313077512Y287774047D01*
X312434655Y287774047D01*
X312220369Y287893095D01*
X312113226Y288012142D01*
X228599352Y286155000D02*
X228599352Y284869285D01*
X228599352Y285512142D02*
X226099352Y285512142D01*
X226456495Y285297857D01*
X226694590Y285083571D01*
X226813638Y284869285D01*
X226099352Y286905000D02*
X226099352Y288405000D01*
X228599352Y287440714D01*
X226099352Y290226428D02*
X226099352Y289797857D01*
X226218400Y289583571D01*
X226337447Y289476428D01*
X226694590Y289262142D01*
X227170780Y289155000D01*
X228123161Y289155000D01*
X228361257Y289262142D01*
X228480304Y289369285D01*
X228599352Y289583571D01*
X228599352Y290012142D01*
X228480304Y290226428D01*
X228361257Y290333571D01*
X228123161Y290440714D01*
X227527923Y290440714D01*
X227289828Y290333571D01*
X227170780Y290226428D01*
X227051733Y290012142D01*
X227051733Y289583571D01*
X227170780Y289369285D01*
X227289828Y289262142D01*
X227527923Y289155000D01*
X334837259Y287774047D02*
X333765831Y287774047D01*
X333765831Y290274047D01*
X336337259Y289083571D02*
X335587259Y289083571D01*
X335587259Y287774047D02*
X335587259Y290274047D01*
X336658688Y290274047D01*
X337944402Y290274047D02*
X338372974Y290274047D01*
X338587259Y290155000D01*
X338801545Y289916904D01*
X338908688Y289440714D01*
X338908688Y288607380D01*
X338801545Y288131190D01*
X338587259Y287893095D01*
X338372974Y287774047D01*
X337944402Y287774047D01*
X337730117Y287893095D01*
X337515831Y288131190D01*
X337408688Y288607380D01*
X337408688Y289440714D01*
X337515831Y289916904D01*
X337730117Y290155000D01*
X337944402Y290274047D01*
X342551545Y289440714D02*
X342551545Y287774047D01*
X342015831Y290393095D02*
X341480117Y288607380D01*
X342872974Y288607380D01*
D12*
X303400600Y-1509635121D02*
G75*
G03*
X303400600Y-1509635121I-3500000J0D01*
G01*
X341394000Y-1509296921D02*
X334527200Y-1509973321D01*
X297090700Y-1518485687D02*
X301957200Y-1518485687D01*
X303294000Y-1518485687D02*
X296427200Y-1518485687D01*
X292831900Y-1518485687D02*
X292999300Y-1518485687D01*
X265194000Y-1518485687D02*
X258327200Y-1518485687D01*
X341460600Y-1509635121D02*
G75*
G03*
X341460600Y-1509635121I-3500000J0D01*
G01*
X337622400Y-1506201721D02*
X338298800Y-1513068521D01*
X261422400Y-1506201721D02*
X262098800Y-1513068521D01*
X302029533Y-1518485687D02*
G75*
G03*
X302029533Y-1518485687I-2500000J0D01*
G01*
X335208066Y-1518485687D02*
X340074566Y-1518485687D01*
X263941233Y-1518485687D02*
G75*
G03*
X263941233Y-1518485687I-2500000J0D01*
G01*
X290291900Y-1518485687D02*
X290459300Y-1518485687D01*
X299562400Y-1506201721D02*
X300238800Y-1513068521D01*
X265260600Y-1509635121D02*
G75*
G03*
X265260600Y-1509635121I-3500000J0D01*
G01*
X259002400Y-1518485687D02*
X263868900Y-1518485687D01*
X341460600Y-1518485687D02*
G75*
G03*
X341460600Y-1518485687I-3500000J0D01*
G01*
X308071900Y-1518485687D02*
X308239300Y-1518485687D01*
X297911900Y-1518485687D02*
X298079300Y-1518485687D01*
X267425600Y-1518485687D02*
G75*
G03*
X267425600Y-1518485687I-5000000J0D01*
G01*
X303360600Y-1518485687D02*
G75*
G03*
X303360600Y-1518485687I-3500000J0D01*
G01*
X311545600Y-1518485687D02*
X309845600Y-1518485687D01*
X306465600Y-1518485687D02*
X304765600Y-1518485687D01*
X299522400Y-1518485687D02*
X300198800Y-1518485687D01*
X265260600Y-1518485687D02*
G75*
G03*
X265260600Y-1518485687I-3500000J0D01*
G01*
X337407066Y-1518485687D02*
X337885466Y-1518485687D01*
X299289700Y-1518485687D02*
X299768100Y-1518485687D01*
X298845600Y-1518485687D02*
X297145600Y-1518485687D01*
X309005600Y-1518485687D02*
X307305600Y-1518485687D01*
X310611900Y-1518485687D02*
X310779300Y-1518485687D01*
X300451900Y-1518485687D02*
X300619300Y-1518485687D01*
X288685600Y-1518485687D02*
X286985600Y-1518485687D01*
X305531900Y-1518485687D02*
X305699300Y-1518485687D01*
X340146899Y-1518485687D02*
G75*
G03*
X340146899Y-1518485687I-2500000J0D01*
G01*
X302991900Y-1518485687D02*
X303159300Y-1518485687D01*
X303334000Y-1509296921D02*
X296467200Y-1509973321D01*
X296305600Y-1518485687D02*
X294605600Y-1518485687D01*
X301385600Y-1518485687D02*
X299685600Y-1518485687D01*
X251925600Y-1518485687D02*
X251925600Y-1518485687D01*
X347925600Y-1518485687D02*
X251925600Y-1518485687D01*
X261422400Y-1518485687D02*
X262098800Y-1518485687D01*
X251925600Y-1518485687D02*
X347253600Y-1518485687D01*
X314085600Y-1518485687D02*
X312385600Y-1518485687D01*
X303925600Y-1518485687D02*
X302225600Y-1518485687D01*
X293765600Y-1518485687D02*
X292065600Y-1518485687D01*
X341394000Y-1518485687D02*
X334527200Y-1518485687D01*
X287751900Y-1518485687D02*
X287919300Y-1518485687D01*
X291225600Y-1518485687D02*
X289525600Y-1518485687D01*
X337622400Y-1518485687D02*
X338298800Y-1518485687D01*
X265194000Y-1509296921D02*
X258327200Y-1509973321D01*
X313151900Y-1518485687D02*
X313319300Y-1518485687D01*
X295371900Y-1518485687D02*
X295539300Y-1518485687D01*
X1170430549Y287655000D02*
G75*
G03*
X1170430549Y287655000I0J0D01*
G01*
X1170430549Y287655000D02*
X1170430549Y287655000D01*
X1170430549Y287655000D02*
X1170430549Y287655000D01*
X1170430549Y287655000D02*
X1170430549Y287655000D01*
X1170430549Y287655000D02*
X1170430549Y287655000D01*
X1170430549Y287655000D02*
X1170430549Y287655000D01*
X1170430549Y287655000D02*
X1170430549Y287655000D01*
X1170430549Y287655000D02*
G75*
G03*
X1170430549Y287655000I0J0D01*
G01*
X1170430549Y287655000D02*
X1170430549Y287655000D01*
X1170430549Y287655000D02*
X1170430549Y287655000D01*
X1170430549Y287655000D02*
X1170430549Y287655000D01*
X1170430549Y287655000D02*
X1170430549Y287655000D01*
X1170430549Y287655000D02*
X1170430549Y287655000D01*
X1170430549Y287655000D02*
X1170430549Y287655000D01*
X1170430549Y287655000D02*
X1170430549Y287655000D01*
X1170430549Y287655000D02*
X1170430549Y287655000D01*
X1170430549Y287655000D02*
X1170430549Y287655000D01*
X1170430549Y287655000D02*
G75*
G03*
X1170430549Y287655000I0J0D01*
G01*
X261201400Y-1518485687D02*
X261679800Y-1518485687D01*
X347925600Y-1472825121D02*
X251925600Y-1472825121D01*
X1170430549Y287655000D02*
X1170430549Y287655000D01*
X1170430549Y287655000D02*
G75*
G03*
X1170430549Y287655000I0J0D01*
G01*
X1170430549Y287655000D02*
X1170430549Y287655000D01*
X1170430549Y287655000D02*
G75*
G03*
X1170430549Y287655000I0J0D01*
G01*
X1170430549Y287655000D02*
G75*
G03*
X1170430549Y287655000I0J0D01*
G01*
X1170430549Y287655000D02*
X1170430549Y287655000D01*
X1170430549Y287655000D02*
X1170430549Y287655000D01*
X340140744Y-1489255149D02*
G75*
G03*
X340140744Y-1489255149I-2500000J0D01*
G01*
X335212600Y-1489494321D02*
X340078600Y-1489015021D01*
X1170430549Y287655000D02*
X1170430549Y287655000D01*
X1170430549Y287655000D02*
X1170430549Y287655000D01*
X349925600Y-1518485687D02*
X349925600Y-1460825121D01*
X1170430549Y287655000D02*
X1170430549Y287655000D01*
X1170430549Y287655000D02*
G75*
G03*
X1170430549Y287655000I0J0D01*
G01*
X1170430549Y287655000D02*
X1170430549Y287655000D01*
X1170430549Y287655000D02*
X1170430549Y287655000D01*
X337401600Y-1486826821D02*
X337893600Y-1491822721D01*
X251925600Y-1472825121D02*
X251925600Y-1518485687D01*
X1170430549Y287655000D02*
X1170430549Y287655000D01*
X347925600Y-1518485687D02*
X347925600Y-1472825121D01*
X1170430549Y287655000D02*
X1170430549Y287655000D01*
X251925600Y-1518485687D02*
X347925600Y-1518485687D01*
X1170430549Y287655000D02*
X1170430549Y287655000D01*
X249925600Y-1460825121D02*
X249925600Y-1518485687D01*
X1170430549Y287655000D02*
X1170430549Y287655000D01*
X1170430549Y287655000D02*
X1170430549Y287655000D01*
X1170430549Y287655000D02*
X1170430549Y287655000D01*
X249925600Y-1518485687D02*
X349925600Y-1518485687D01*
X1170430549Y287655000D02*
X1170430549Y287655000D01*
X1170430549Y287655000D02*
G75*
G03*
X1170430549Y287655000I0J0D01*
G01*
X1170430549Y287655000D02*
G75*
G03*
X1170430549Y287655000I0J0D01*
G01*
X1170430549Y287655000D02*
X1170430549Y287655000D01*
X1170430549Y287655000D02*
X1170430549Y287655000D01*
X1170430549Y287655000D02*
G75*
G03*
X1170430549Y287655000I0J0D01*
G01*
X1170430549Y287655000D02*
X1170430549Y287655000D01*
X1170430549Y287655000D02*
X1170430549Y287655000D01*
X349925600Y-1460825121D02*
X249925600Y-1460825121D01*
X1170430549Y287655000D02*
X1170430549Y287655000D01*
X1170430549Y287655000D02*
X1170430549Y287655000D01*
X1170430549Y287655000D02*
G75*
G03*
X1170430549Y287655000I0J0D01*
G01*
X1170430549Y287655000D02*
X1170430549Y287655000D01*
X1170430549Y287655000D02*
G75*
G03*
X1170430549Y287655000I0J0D01*
G01*
X1170430549Y287655000D02*
X1170430549Y287655000D01*
X1170430549Y287655000D02*
G75*
G03*
X1170430549Y287655000I0J0D01*
G01*
X1170430549Y287655000D02*
G75*
G03*
X1170430549Y287655000I0J0D01*
G01*
X1170430549Y287655000D02*
X1170430549Y287655000D01*
X1170430549Y287655000D02*
X1170430549Y287655000D01*
X1170430549Y287655000D02*
X1170430549Y287655000D01*
X1170430549Y287655000D02*
X1170430549Y287655000D01*
X1170430549Y287655000D02*
X1170430549Y287655000D01*
X1170430549Y287655000D02*
X1170430549Y287655000D01*
X1170430549Y287655000D02*
X1170430549Y287655000D01*
X1170430549Y287655000D02*
X1170430549Y287655000D01*
X1170430549Y287655000D02*
X1170430549Y287655000D01*
X1170430549Y287655000D02*
X1170430549Y287655000D01*
X1170430549Y287655000D02*
X1170430549Y287655000D01*
X1170430549Y287655000D02*
X1170430549Y287655000D01*
X1095586209Y287655000D02*
X1098786209Y287655000D01*
X1001586209Y287655000D02*
X1004786209Y287655000D01*
X1170430549Y287655000D02*
G75*
G03*
X1170430549Y287655000I0J0D01*
G01*
X1170430549Y287655000D02*
X1170430549Y287655000D01*
X1170430549Y287655000D02*
X1170430549Y287655000D01*
X1170430549Y287655000D02*
X1170430549Y287655000D01*
X1170430549Y287655000D02*
X1170430549Y287655000D01*
X1170430549Y287655000D02*
X1170430549Y287655000D01*
X1170430549Y287655000D02*
X1170430549Y287655000D01*
X1170430549Y287655000D02*
X1170430549Y287655000D01*
X1170430549Y287655000D02*
X1170430549Y287655000D01*
X1170430549Y287655000D02*
X1170430549Y287655000D01*
X1170430549Y287655000D02*
X1170430549Y287655000D01*
X1170430549Y287655000D02*
X1170430549Y287655000D01*
X1170430549Y287655000D02*
X1170430549Y287655000D01*
X1170430549Y287655000D02*
X1170430549Y287655000D01*
X1170430549Y287655000D02*
X1170430549Y287655000D01*
X1170430549Y287655000D02*
G75*
G03*
X1170430549Y287655000I0J0D01*
G01*
X1170430549Y287655000D02*
G75*
G03*
X1170430549Y287655000I0J0D01*
G01*
X1170430549Y287655000D02*
X1170430549Y287655000D01*
X1170430549Y287655000D02*
X1170430549Y287655000D01*
X1170430549Y287655000D02*
G75*
G03*
X1170430549Y287655000I0J0D01*
G01*
X1170430549Y287655000D02*
X1170430549Y287655000D01*
X1170430549Y287655000D02*
X1170430549Y287655000D01*
X1170430549Y287655000D02*
X1170430549Y287655000D01*
X1004786209Y287655000D02*
G75*
G03*
X1004786209Y287655000I-1600000J0D01*
G01*
X1170430549Y287655000D02*
G75*
G03*
X1170430549Y287655000I0J0D01*
G01*
X1170430549Y287655000D02*
X1170430549Y287655000D01*
X1170430549Y287655000D02*
X1170430549Y287655000D01*
X1170430549Y287655000D02*
X1170430549Y287655000D01*
X1170430549Y287655000D02*
X1170430549Y287655000D01*
X1170430549Y287655000D02*
G75*
G03*
X1170430549Y287655000I0J0D01*
G01*
X1170430549Y287655000D02*
G75*
G03*
X1170430549Y287655000I0J0D01*
G01*
X1170430549Y287655000D02*
X1170430549Y287655000D01*
X1170430549Y287655000D02*
X1170430549Y287655000D01*
X1170430549Y287655000D02*
X1170430549Y287655000D01*
X1170430549Y287655000D02*
X1170430549Y287655000D01*
X1170430549Y287655000D02*
X1170430549Y287655000D01*
X1170430549Y287655000D02*
X1170430549Y287655000D01*
X1170430549Y287655000D02*
X1170430549Y287655000D01*
X1170430549Y287655000D02*
X1170430549Y287655000D01*
X1003186209Y287655000D02*
X1003186209Y287655000D01*
X1170430549Y287655000D02*
X1170430549Y287655000D01*
X1170430549Y287655000D02*
X1170430549Y287655000D01*
X1170430549Y287655000D02*
X1170430549Y287655000D01*
X1170430549Y287655000D02*
G75*
G03*
X1170430549Y287655000I0J0D01*
G01*
X1170430549Y287655000D02*
X1170430549Y287655000D01*
X1170430549Y287655000D02*
X1170430549Y287655000D01*
X1170430549Y287655000D02*
X1170430549Y287655000D01*
X1170430549Y287655000D02*
G75*
G03*
X1170430549Y287655000I0J0D01*
G01*
X1170430549Y287655000D02*
X1170430549Y287655000D01*
X1007686209Y287655000D02*
X1017686209Y287655000D01*
X1098786209Y287655000D02*
G75*
G03*
X1098786209Y287655000I-1600000J0D01*
G01*
X1098786209Y287655000D02*
G75*
G03*
X1098786209Y287655000I-1600000J0D01*
G01*
X1097186209Y287655000D02*
X1097186209Y287655000D01*
X1001586209Y287655000D02*
X1004786209Y287655000D01*
X1063412509Y287655000D02*
X1063579909Y287655000D01*
X1004786209Y287655000D02*
G75*
G03*
X1004786209Y287655000I-1600000J0D01*
G01*
X1037686209Y287655000D02*
X1037686209Y287655000D01*
X1048172509Y287655000D02*
X1048339909Y287655000D01*
X1054186209Y287655000D02*
X1052486209Y287655000D01*
X1044399379Y287655000D02*
X1056061384Y287655000D01*
X1049940313Y287655000D02*
X1047353792Y287655000D01*
X1030186209Y287655000D02*
G75*
G03*
X1030186209Y287655000I-5000000J0D01*
G01*
X1012686209Y287655000D02*
X1012686209Y287655000D01*
X1049940313Y287655000D02*
X1052526834Y287655000D01*
X1055113356Y287655000D02*
X1052526834Y287655000D01*
X1056726209Y287655000D02*
X1055026209Y287655000D01*
X1055792509Y287655000D02*
X1055959909Y287655000D01*
X1049940313Y287655000D02*
X1052526834Y287655000D01*
X1044767270Y287655000D02*
X1047353792Y287655000D01*
X1062686209Y287655000D02*
X1062686209Y287655000D01*
X1007686209Y287655000D02*
X1017686209Y287655000D01*
X1098186209Y287655000D02*
X1002186209Y287655000D01*
X1049106209Y287655000D02*
X1047406209Y287655000D01*
X1057686209Y287655000D02*
X1067686209Y287655000D01*
X1017686209Y287655000D02*
G75*
G03*
X1017686209Y287655000I-5000000J0D01*
G01*
X1050712509Y287655000D02*
X1050879909Y287655000D01*
X1061806209Y287655000D02*
X1060106209Y287655000D01*
X1049940313Y287655000D02*
X1047353792Y287655000D01*
X1067686209Y287655000D02*
G75*
G03*
X1067686209Y287655000I-5000000J0D01*
G01*
X1044399379Y287655000D02*
X1056061384Y287655000D01*
X1012686209Y287655000D02*
X1012686209Y287655000D01*
X1002186209Y287655000D02*
X1002186209Y287655000D01*
X1032686209Y287655000D02*
X1042686209Y287655000D01*
X1092686209Y287655000D02*
G75*
G03*
X1092686209Y287655000I-5000000J0D01*
G01*
X1020186209Y287655000D02*
X1030186209Y287655000D01*
X1062686209Y287655000D02*
X1062686209Y287655000D01*
X1082686209Y287655000D02*
X1092686209Y287655000D01*
X1059266209Y287655000D02*
X1057566209Y287655000D01*
X1002186209Y287655000D02*
X1097514209Y287655000D01*
X1055113356Y287655000D02*
X1052526834Y287655000D01*
X1087686209Y287655000D02*
X1087686209Y287655000D01*
X1044767270Y287655000D02*
X1047353792Y287655000D01*
X1042686209Y287655000D02*
G75*
G03*
X1042686209Y287655000I-5000000J0D01*
G01*
X1082686209Y287655000D02*
X1092686209Y287655000D01*
X1087686209Y287655000D02*
X1087686209Y287655000D01*
X1057686209Y287655000D02*
X1067686209Y287655000D01*
X1092686209Y287655000D02*
G75*
G03*
X1092686209Y287655000I-5000000J0D01*
G01*
X1058332509Y287655000D02*
X1058499909Y287655000D01*
X1046566209Y287655000D02*
X1044866209Y287655000D01*
X1064346209Y287655000D02*
X1062646209Y287655000D01*
X1060872509Y287655000D02*
X1061039909Y287655000D01*
X1017686209Y287655000D02*
G75*
G03*
X1017686209Y287655000I-5000000J0D01*
G01*
X1051646209Y287655000D02*
X1049946209Y287655000D01*
X1042686209Y287655000D02*
G75*
G03*
X1042686209Y287655000I-5000000J0D01*
G01*
X1032686209Y287655000D02*
X1042686209Y287655000D01*
X1097186209Y287655000D02*
X1097186209Y287655000D01*
X1037686209Y287655000D02*
X1037686209Y287655000D01*
X1045632509Y287655000D02*
X1045799909Y287655000D01*
X1003186209Y287655000D02*
X1003186209Y287655000D01*
X1095586209Y287655000D02*
X1098786209Y287655000D01*
X1025186209Y287655000D02*
X1025186209Y287655000D01*
X1053252509Y287655000D02*
X1053419909Y287655000D01*
X1067686209Y287655000D02*
G75*
G03*
X1067686209Y287655000I-5000000J0D01*
G01*
X1091721209Y287655000D02*
G75*
G03*
X1091721209Y287655000I-3500000J0D01*
G01*
X1091654609Y287655000D02*
X1084787809Y287655000D01*
X1087883009Y287655000D02*
X1088559409Y287655000D01*
X1015454609Y287655000D02*
X1008587809Y287655000D01*
X1100186209Y287655000D02*
X1000186209Y287655000D01*
X345325600Y287655000D02*
X348525600Y287655000D01*
X1049550309Y287655000D02*
X1050028709Y287655000D01*
X1014201842Y287655000D02*
G75*
G03*
X1014201842Y287655000I-2500000J0D01*
G01*
X254525600Y287655000D02*
G75*
G03*
X254525600Y287655000I-1600000J0D01*
G01*
X251325600Y287655000D02*
X254525600Y287655000D01*
X1011462009Y287655000D02*
X1011940409Y287655000D01*
X1098186209Y287655000D02*
X1098186209Y287655000D01*
X251325600Y287655000D02*
X254525600Y287655000D01*
X1085468675Y287655000D02*
X1090335175Y287655000D01*
X1047351309Y287655000D02*
X1052217809Y287655000D01*
X1087662209Y287655000D02*
X1088154209Y287655000D01*
X294506661Y287655000D02*
X297093183Y287655000D01*
X1043092509Y287655000D02*
X1043259909Y287655000D01*
X1015521209Y287655000D02*
G75*
G03*
X1015521209Y287655000I-3500000J0D01*
G01*
X299679704Y287655000D02*
X302266225Y287655000D01*
X299679704Y287655000D02*
X302266225Y287655000D01*
X1002186209Y287655000D02*
X1002186209Y287655000D01*
X345325600Y287655000D02*
X348525600Y287655000D01*
X1052290142Y287655000D02*
G75*
G03*
X1052290142Y287655000I-2500000J0D01*
G01*
X1090401352Y287655000D02*
G75*
G03*
X1090401352Y287655000I-2500000J0D01*
G01*
X1011683009Y287655000D02*
X1012359409Y287655000D01*
X1044026209Y287655000D02*
X1042326209Y287655000D01*
X1041486209Y287655000D02*
X1039786209Y287655000D01*
X1040552509Y287655000D02*
X1040719909Y287655000D01*
X1085473209Y287655000D02*
X1090339209Y287655000D01*
X1038946209Y287655000D02*
X1037246209Y287655000D01*
X1038012509Y287655000D02*
X1038179909Y287655000D01*
X1091721209Y287655000D02*
G75*
G03*
X1091721209Y287655000I-3500000J0D01*
G01*
X1100186209Y287655000D02*
X1100186209Y287655000D01*
X1009263009Y287655000D02*
X1014129509Y287655000D01*
X1053621209Y287655000D02*
G75*
G03*
X1053621209Y287655000I-3500000J0D01*
G01*
X1091654609Y287655000D02*
X1084787809Y287655000D01*
X1053594609Y287655000D02*
X1046727809Y287655000D01*
X294138770Y287655000D02*
X305800775Y287655000D01*
X1087883009Y287655000D02*
X1088559409Y287655000D01*
X1087667675Y287655000D02*
X1088146075Y287655000D01*
X1053554609Y287655000D02*
X1046687809Y287655000D01*
X1011683009Y287655000D02*
X1012359409Y287655000D01*
X1049783009Y287655000D02*
X1050459409Y287655000D01*
X1015454609Y287655000D02*
X1008587809Y287655000D01*
X1053661209Y287655000D02*
G75*
G03*
X1053661209Y287655000I-3500000J0D01*
G01*
X1090407508Y287655000D02*
G75*
G03*
X1090407508Y287655000I-2500000J0D01*
G01*
X1002186209Y287655000D02*
X1098186209Y287655000D01*
X1000186209Y287655000D02*
X1000186209Y287655000D01*
X294138770Y287655000D02*
X305800775Y287655000D01*
X348525600Y287655000D02*
G75*
G03*
X348525600Y287655000I-1600000J0D01*
G01*
X252925600Y287655000D02*
X252925600Y287655000D01*
X348525600Y287655000D02*
G75*
G03*
X348525600Y287655000I-1600000J0D01*
G01*
X254525600Y287655000D02*
G75*
G03*
X254525600Y287655000I-1600000J0D01*
G01*
X1049823009Y287655000D02*
X1050499409Y287655000D01*
X1098186209Y287655000D02*
X1002186209Y287655000D01*
X1000186209Y287655000D02*
X1100186209Y287655000D01*
X304852747Y287655000D02*
X302266225Y287655000D01*
X252925600Y287655000D02*
X252925600Y287655000D01*
X299679704Y287655000D02*
X297093183Y287655000D01*
X346925600Y287655000D02*
X346925600Y287655000D01*
X346925600Y287655000D02*
X346925600Y287655000D01*
X304852747Y287655000D02*
X302266225Y287655000D01*
X1015521209Y287655000D02*
G75*
G03*
X1015521209Y287655000I-3500000J0D01*
G01*
X348525600Y-1463825121D02*
G75*
G03*
X348525600Y-1463825121I-1600000J0D01*
G01*
X345325600Y-1463825121D02*
X348525600Y-1463825121D01*
X299679704Y-1518485687D02*
X297093183Y-1518485687D01*
X252925600Y-1518485687D02*
X252925600Y-1518485687D01*
X346925600Y-1462225121D02*
X346925600Y-1465425121D01*
X299679704Y-1518485687D02*
X302266225Y-1518485687D01*
X294138770Y-1518485687D02*
X305800775Y-1518485687D01*
X294506661Y-1518485687D02*
X297093183Y-1518485687D01*
X292425600Y-1518485687D02*
G75*
G03*
X292425600Y-1518485687I-5000000J0D01*
G01*
X287425600Y-1518485687D02*
X287425600Y-1518485687D01*
X317425600Y-1518485687D02*
G75*
G03*
X317425600Y-1518485687I-5000000J0D01*
G01*
X282425600Y-1518485687D02*
X292425600Y-1518485687D01*
X332425600Y-1518485687D02*
X342425600Y-1518485687D01*
X304852747Y-1518485687D02*
X302266225Y-1518485687D01*
X292425600Y-1518485687D02*
G75*
G03*
X292425600Y-1518485687I-5000000J0D01*
G01*
X307425600Y-1518485687D02*
X317425600Y-1518485687D01*
X254525600Y-1518485687D02*
G75*
G03*
X254525600Y-1518485687I-1600000J0D01*
G01*
X346925600Y-1518485687D02*
X346925600Y-1518485687D01*
X337425600Y-1518485687D02*
X337425600Y-1518485687D01*
X342425600Y-1518485687D02*
G75*
G03*
X342425600Y-1518485687I-5000000J0D01*
G01*
X279925600Y-1518485687D02*
G75*
G03*
X279925600Y-1518485687I-5000000J0D01*
G01*
X257425600Y-1518485687D02*
X267425600Y-1518485687D01*
X337425600Y-1518485687D02*
X337425600Y-1518485687D01*
X342425600Y-1518485687D02*
G75*
G03*
X342425600Y-1518485687I-5000000J0D01*
G01*
X312425600Y-1518485687D02*
X312425600Y-1518485687D01*
X312425600Y-1518485687D02*
X312425600Y-1518485687D01*
X267425600Y-1518485687D02*
G75*
G03*
X267425600Y-1518485687I-5000000J0D01*
G01*
X348525600Y-1518485687D02*
G75*
G03*
X348525600Y-1518485687I-1600000J0D01*
G01*
X254525600Y-1463825121D02*
G75*
G03*
X254525600Y-1463825121I-1600000J0D01*
G01*
X252925600Y-1462225121D02*
X252925600Y-1465425121D01*
X282425600Y-1518485687D02*
X292425600Y-1518485687D01*
X251325600Y-1463825121D02*
X254525600Y-1463825121D01*
X262425600Y-1518485687D02*
X262425600Y-1518485687D01*
X332425600Y-1518485687D02*
X342425600Y-1518485687D01*
X287425600Y-1518485687D02*
X287425600Y-1518485687D01*
X262425600Y-1518485687D02*
X262425600Y-1518485687D01*
X251325600Y-1518485687D02*
X254525600Y-1518485687D01*
X294138770Y-1518485687D02*
X305800775Y-1518485687D01*
X317425600Y-1518485687D02*
G75*
G03*
X317425600Y-1518485687I-5000000J0D01*
G01*
X299679704Y-1518485687D02*
X297093183Y-1518485687D01*
X274925600Y-1518485687D02*
X274925600Y-1518485687D01*
X269925600Y-1518485687D02*
X279925600Y-1518485687D01*
X307425600Y-1518485687D02*
X317425600Y-1518485687D01*
X345325600Y-1518485687D02*
X348525600Y-1518485687D01*
X304852747Y-1518485687D02*
X302266225Y-1518485687D01*
X294506661Y-1518485687D02*
X297093183Y-1518485687D01*
X257425600Y-1518485687D02*
X267425600Y-1518485687D01*
X299679704Y-1518485687D02*
X302266225Y-1518485687D01*
X-27692950Y287655000D02*
X-17692950Y287655000D01*
X-17692950Y287655000D02*
G75*
G03*
X-17692950Y287655000I-5000000J0D01*
G01*
X22307050Y287655000D02*
X32307050Y287655000D01*
X1427050Y287655000D02*
X-272950Y287655000D01*
X7307050Y287655000D02*
G75*
G03*
X7307050Y287655000I-5000000J0D01*
G01*
X-22692950Y287655000D02*
X-22692950Y287655000D01*
X-4586650Y287655000D02*
X-4419250Y287655000D01*
X-17692950Y287655000D02*
G75*
G03*
X-17692950Y287655000I-5000000J0D01*
G01*
X-2046650Y287655000D02*
X-1879250Y287655000D01*
X37807050Y287655000D02*
X-58192950Y287655000D01*
X2307050Y287655000D02*
X2307050Y287655000D01*
X22307050Y287655000D02*
X32307050Y287655000D01*
X-42692950Y287655000D02*
G75*
G03*
X-42692950Y287655000I-5000000J0D01*
G01*
X-2692950Y287655000D02*
X7307050Y287655000D01*
X-2692950Y287655000D02*
X7307050Y287655000D01*
X7307050Y287655000D02*
G75*
G03*
X7307050Y287655000I-5000000J0D01*
G01*
X-42692950Y287655000D02*
G75*
G03*
X-42692950Y287655000I-5000000J0D01*
G01*
X-58192950Y287655000D02*
X-58192950Y287655000D01*
X2307050Y287655000D02*
X2307050Y287655000D01*
X-47692950Y287655000D02*
X-47692950Y287655000D01*
X-35192950Y287655000D02*
X-35192950Y287655000D01*
X38407050Y287655000D02*
G75*
G03*
X38407050Y287655000I-1600000J0D01*
G01*
X-15611889Y287655000D02*
X-13025367Y287655000D01*
X-52692950Y287655000D02*
X-42692950Y287655000D01*
X-58792950Y287655000D02*
X-55592950Y287655000D01*
X-57192950Y287655000D02*
X-57192950Y287655000D01*
X-55592950Y287655000D02*
G75*
G03*
X-55592950Y287655000I-1600000J0D01*
G01*
X493350Y287655000D02*
X660750Y287655000D01*
X-27692950Y287655000D02*
X-17692950Y287655000D01*
X-15979780Y287655000D02*
X-4317775Y287655000D01*
X-5265803Y287655000D02*
X-7852325Y287655000D01*
X-10438846Y287655000D02*
X-7852325Y287655000D01*
X-52692950Y287655000D02*
X-42692950Y287655000D01*
X32307050Y287655000D02*
G75*
G03*
X32307050Y287655000I-5000000J0D01*
G01*
X32307050Y287655000D02*
G75*
G03*
X32307050Y287655000I-5000000J0D01*
G01*
X-10438846Y287655000D02*
X-13025367Y287655000D01*
X-5265803Y287655000D02*
X-7852325Y287655000D01*
X-10438846Y287655000D02*
X-13025367Y287655000D01*
X-15979780Y287655000D02*
X-4317775Y287655000D01*
X3033350Y287655000D02*
X3200750Y287655000D01*
X3967050Y287655000D02*
X2267050Y287655000D01*
X-10438846Y287655000D02*
X-7852325Y287655000D01*
X-15611889Y287655000D02*
X-13025367Y287655000D01*
X27307050Y287655000D02*
X27307050Y287655000D01*
X-30192950Y287655000D02*
G75*
G03*
X-30192950Y287655000I-5000000J0D01*
G01*
X-58192950Y287655000D02*
X37135050Y287655000D01*
X-40192950Y287655000D02*
X-30192950Y287655000D01*
X-47692950Y287655000D02*
X-47692950Y287655000D01*
X-3652950Y287655000D02*
X-5352950Y287655000D01*
X27307050Y287655000D02*
X27307050Y287655000D01*
X-1112950Y287655000D02*
X-2812950Y287655000D01*
X-22692950Y287655000D02*
X-22692950Y287655000D01*
X-12206650Y287655000D02*
X-12039250Y287655000D01*
X-13812950Y287655000D02*
X-15512950Y287655000D01*
X-17286650Y287655000D02*
X-17119250Y287655000D01*
X-10556150Y287655000D02*
X-9879750Y287655000D01*
X254525600Y287655000D02*
G75*
G03*
X254525600Y287655000I-1600000J0D01*
G01*
X27288516Y287655000D02*
X27766916Y287655000D01*
X-22366650Y287655000D02*
X-22199250Y287655000D01*
X-48696150Y287655000D02*
X-48019750Y287655000D01*
X25089516Y287655000D02*
X29956016Y287655000D01*
X251325600Y287655000D02*
X254525600Y287655000D01*
X-6824550Y287655000D02*
X-13691350Y287655000D01*
X-44857950Y287655000D02*
G75*
G03*
X-44857950Y287655000I-3500000J0D01*
G01*
X-48917150Y287655000D02*
X-48438750Y287655000D01*
X-58192950Y287655000D02*
X37807050Y287655000D01*
X251325600Y287655000D02*
X254525600Y287655000D01*
X254525600Y287655000D02*
G75*
G03*
X254525600Y287655000I-1600000J0D01*
G01*
X-19826650Y287655000D02*
X-19659250Y287655000D01*
X-21432950Y287655000D02*
X-23132950Y287655000D01*
X31275450Y287655000D02*
X24408650Y287655000D01*
X27503850Y287655000D02*
X28180250Y287655000D01*
X-10828850Y287655000D02*
X-10350450Y287655000D01*
X39807050Y287655000D02*
X-60192950Y287655000D01*
X348525600Y287655000D02*
G75*
G03*
X348525600Y287655000I-1600000J0D01*
G01*
X-10596150Y287655000D02*
X-9919750Y287655000D01*
X-44924550Y287655000D02*
X-51791350Y287655000D01*
X-48696150Y287655000D02*
X-48019750Y287655000D01*
X31275450Y287655000D02*
X24408650Y287655000D01*
X27503850Y287655000D02*
X28180250Y287655000D01*
X-44857950Y287655000D02*
G75*
G03*
X-44857950Y287655000I-3500000J0D01*
G01*
X346925600Y287655000D02*
X346925600Y287655000D01*
X345325600Y287655000D02*
X348525600Y287655000D01*
X27283050Y287655000D02*
X27775050Y287655000D01*
X37807050Y287655000D02*
X37807050Y287655000D01*
X252925600Y287655000D02*
X252925600Y287655000D01*
X345325600Y287655000D02*
X348525600Y287655000D01*
X39807050Y287655000D02*
X39807050Y287655000D01*
X346925600Y287655000D02*
X346925600Y287655000D01*
X37807050Y287655000D02*
X-58192950Y287655000D01*
X-14746650Y287655000D02*
X-14579250Y287655000D01*
X-16352950Y287655000D02*
X-18052950Y287655000D01*
X31342050Y287655000D02*
G75*
G03*
X31342050Y287655000I-3500000J0D01*
G01*
X-60192950Y287655000D02*
X-60192950Y287655000D01*
X-18892950Y287655000D02*
X-20592950Y287655000D01*
X-6757950Y287655000D02*
G75*
G03*
X-6757950Y287655000I-3500000J0D01*
G01*
X31342050Y287655000D02*
G75*
G03*
X31342050Y287655000I-3500000J0D01*
G01*
X348525600Y287655000D02*
G75*
G03*
X348525600Y287655000I-1600000J0D01*
G01*
X-58192950Y287655000D02*
X-58192950Y287655000D01*
X-6717950Y287655000D02*
G75*
G03*
X-6717950Y287655000I-3500000J0D01*
G01*
X-6784550Y287655000D02*
X-13651350Y287655000D01*
X-13027850Y287655000D02*
X-8161350Y287655000D01*
X-51116150Y287655000D02*
X-46249650Y287655000D01*
X30022194Y287655000D02*
G75*
G03*
X30022194Y287655000I-2500000J0D01*
G01*
X25094050Y287655000D02*
X29960050Y287655000D01*
X-60192950Y287655000D02*
X39807050Y287655000D01*
X-6192950Y287655000D02*
X-7892950Y287655000D01*
X-7126650Y287655000D02*
X-6959250Y287655000D01*
X-8732950Y287655000D02*
X-10432950Y287655000D01*
X-11272950Y287655000D02*
X-12972950Y287655000D01*
X252925600Y287655000D02*
X252925600Y287655000D01*
X30028349Y287655000D02*
G75*
G03*
X30028349Y287655000I-2500000J0D01*
G01*
X-44924550Y287655000D02*
X-51791350Y287655000D01*
X-8089017Y287655000D02*
G75*
G03*
X-8089017Y287655000I-2500000J0D01*
G01*
X-46177317Y287655000D02*
G75*
G03*
X-46177317Y287655000I-2500000J0D01*
G01*
X-9666650Y287655000D02*
X-9499250Y287655000D01*
X282425600Y287655000D02*
X292425600Y287655000D01*
X305531900Y287655000D02*
X305699300Y287655000D01*
X298845600Y287655000D02*
X297145600Y287655000D01*
X341460600Y287655000D02*
G75*
G03*
X341460600Y287655000I-3500000J0D01*
G01*
X312425600Y287655000D02*
X312425600Y287655000D01*
X300451900Y287655000D02*
X300619300Y287655000D01*
X291225600Y287655000D02*
X289525600Y287655000D01*
X313151900Y287655000D02*
X313319300Y287655000D01*
X311545600Y287655000D02*
X309845600Y287655000D01*
X290291900Y287655000D02*
X290459300Y287655000D01*
X292831900Y287655000D02*
X292999300Y287655000D01*
X308071900Y287655000D02*
X308239300Y287655000D01*
X301385600Y287655000D02*
X299685600Y287655000D01*
X341394000Y287655000D02*
X334527200Y287655000D01*
X274925600Y287655000D02*
X274925600Y287655000D01*
X304852747Y287655000D02*
X302266225Y287655000D01*
X294506661Y287655000D02*
X297093183Y287655000D01*
X307425600Y287655000D02*
X317425600Y287655000D01*
X304852747Y287655000D02*
X302266225Y287655000D01*
X269925600Y287655000D02*
X279925600Y287655000D01*
X251925600Y287655000D02*
X347253600Y287655000D01*
X294506661Y287655000D02*
X297093183Y287655000D01*
X251925600Y287655000D02*
X251925600Y287655000D01*
X314085600Y287655000D02*
X312385600Y287655000D01*
X293765600Y287655000D02*
X292065600Y287655000D01*
X292425600Y287655000D02*
G75*
G03*
X292425600Y287655000I-5000000J0D01*
G01*
X317425600Y287655000D02*
G75*
G03*
X317425600Y287655000I-5000000J0D01*
G01*
X262425600Y287655000D02*
X262425600Y287655000D01*
X337425600Y287655000D02*
X337425600Y287655000D01*
X287425600Y287655000D02*
X287425600Y287655000D01*
X347925600Y287655000D02*
X251925600Y287655000D01*
X302991900Y287655000D02*
X303159300Y287655000D01*
X342425600Y287655000D02*
G75*
G03*
X342425600Y287655000I-5000000J0D01*
G01*
X257425600Y287655000D02*
X267425600Y287655000D01*
X267425600Y287655000D02*
G75*
G03*
X267425600Y287655000I-5000000J0D01*
G01*
X337425600Y287655000D02*
X337425600Y287655000D01*
X282425600Y287655000D02*
X292425600Y287655000D01*
X262425600Y287655000D02*
X262425600Y287655000D01*
X306465600Y287655000D02*
X304765600Y287655000D01*
X310611900Y287655000D02*
X310779300Y287655000D01*
X309005600Y287655000D02*
X307305600Y287655000D01*
X303925600Y287655000D02*
X302225600Y287655000D01*
X288685600Y287655000D02*
X286985600Y287655000D01*
X297911900Y287655000D02*
X298079300Y287655000D01*
X287751900Y287655000D02*
X287919300Y287655000D01*
X296305600Y287655000D02*
X294605600Y287655000D01*
X292425600Y287655000D02*
G75*
G03*
X292425600Y287655000I-5000000J0D01*
G01*
X332425600Y287655000D02*
X342425600Y287655000D01*
X294138770Y287655000D02*
X305800775Y287655000D01*
X279925600Y287655000D02*
G75*
G03*
X279925600Y287655000I-5000000J0D01*
G01*
X307425600Y287655000D02*
X317425600Y287655000D01*
X257425600Y287655000D02*
X267425600Y287655000D01*
X299679704Y287655000D02*
X302266225Y287655000D01*
X312425600Y287655000D02*
X312425600Y287655000D01*
X267425600Y287655000D02*
G75*
G03*
X267425600Y287655000I-5000000J0D01*
G01*
X287425600Y287655000D02*
X287425600Y287655000D01*
X299679704Y287655000D02*
X297093183Y287655000D01*
X342425600Y287655000D02*
G75*
G03*
X342425600Y287655000I-5000000J0D01*
G01*
X294138770Y287655000D02*
X305800775Y287655000D01*
X299679704Y287655000D02*
X302266225Y287655000D01*
X295371900Y287655000D02*
X295539300Y287655000D01*
X299679704Y287655000D02*
X297093183Y287655000D01*
X317425600Y287655000D02*
G75*
G03*
X317425600Y287655000I-5000000J0D01*
G01*
X332425600Y287655000D02*
X342425600Y287655000D01*
X152445429Y287655000D02*
X155031950Y287655000D01*
X152077538Y287655000D02*
X163739542Y287655000D01*
X127864367Y287655000D02*
X137864367Y287655000D01*
X162791514Y287655000D02*
X160204993Y287655000D01*
X349925600Y287655000D02*
X249925600Y287655000D01*
X110864367Y287655000D02*
X110864367Y287655000D01*
X157618471Y287655000D02*
X155031950Y287655000D01*
X157618471Y287655000D02*
X160204993Y287655000D01*
X259002400Y287655000D02*
X263868900Y287655000D01*
X347925600Y287655000D02*
X347925600Y287655000D01*
X110864367Y287655000D02*
X110864367Y287655000D01*
X203264367Y287655000D02*
X206464367Y287655000D01*
X157618471Y287655000D02*
X155031950Y287655000D01*
X162791514Y287655000D02*
X160204993Y287655000D01*
X120364367Y287655000D02*
X120364367Y287655000D01*
X206464367Y287655000D02*
G75*
G03*
X206464367Y287655000I-1600000J0D01*
G01*
X109264367Y287655000D02*
X112464367Y287655000D01*
X203264367Y287655000D02*
X206464367Y287655000D01*
X204864367Y287655000D02*
X204864367Y287655000D01*
X204864367Y287655000D02*
X204864367Y287655000D01*
X302029533Y287655000D02*
G75*
G03*
X302029533Y287655000I-2500000J0D01*
G01*
X340140744Y287655000D02*
G75*
G03*
X340140744Y287655000I-2500000J0D01*
G01*
X145364367Y287655000D02*
X145364367Y287655000D01*
X140364367Y287655000D02*
X150364367Y287655000D01*
X303334000Y287655000D02*
X296467200Y287655000D01*
X249925600Y287655000D02*
X349925600Y287655000D01*
X265260600Y287655000D02*
G75*
G03*
X265260600Y287655000I-3500000J0D01*
G01*
X337407066Y287655000D02*
X337885466Y287655000D01*
X337622400Y287655000D02*
X338298800Y287655000D01*
X303360600Y287655000D02*
G75*
G03*
X303360600Y287655000I-3500000J0D01*
G01*
X303294000Y287655000D02*
X296427200Y287655000D01*
X299522400Y287655000D02*
X300198800Y287655000D01*
X265260600Y287655000D02*
G75*
G03*
X265260600Y287655000I-3500000J0D01*
G01*
X297090700Y287655000D02*
X301957200Y287655000D01*
X265194000Y287655000D02*
X258327200Y287655000D01*
X347925600Y287655000D02*
X251925600Y287655000D01*
X337622400Y287655000D02*
X338298800Y287655000D01*
X337401600Y287655000D02*
X337893600Y287655000D01*
X152077538Y287655000D02*
X163739542Y287655000D01*
X261422400Y287655000D02*
X262098800Y287655000D01*
X112464367Y287655000D02*
G75*
G03*
X112464367Y287655000I-1600000J0D01*
G01*
X341460600Y287655000D02*
G75*
G03*
X341460600Y287655000I-3500000J0D01*
G01*
X112464367Y287655000D02*
G75*
G03*
X112464367Y287655000I-1600000J0D01*
G01*
X341394000Y287655000D02*
X334527200Y287655000D01*
X261201400Y287655000D02*
X261679800Y287655000D01*
X349925600Y287655000D02*
X349925600Y287655000D01*
X303400600Y287655000D02*
G75*
G03*
X303400600Y287655000I-3500000J0D01*
G01*
X299562400Y287655000D02*
X300238800Y287655000D01*
X132864367Y287655000D02*
X132864367Y287655000D01*
X340146899Y287655000D02*
G75*
G03*
X340146899Y287655000I-2500000J0D01*
G01*
X265194000Y287655000D02*
X258327200Y287655000D01*
X261422400Y287655000D02*
X262098800Y287655000D01*
X206464367Y287655000D02*
G75*
G03*
X206464367Y287655000I-1600000J0D01*
G01*
X157618471Y287655000D02*
X160204993Y287655000D01*
X152445429Y287655000D02*
X155031950Y287655000D01*
X335208066Y287655000D02*
X340074566Y287655000D01*
X251925600Y287655000D02*
X251925600Y287655000D01*
X299289700Y287655000D02*
X299768100Y287655000D01*
X335212600Y287655000D02*
X340078600Y287655000D01*
X115364367Y287655000D02*
X125364367Y287655000D01*
X109264367Y287655000D02*
X112464367Y287655000D01*
X249925600Y287655000D02*
X249925600Y287655000D01*
X251925600Y287655000D02*
X347925600Y287655000D01*
X263941233Y287655000D02*
G75*
G03*
X263941233Y287655000I-2500000J0D01*
G01*
X175364367Y287655000D02*
G75*
G03*
X175364367Y287655000I-5000000J0D01*
G01*
X193151367Y287655000D02*
X198017367Y287655000D01*
X119361167Y287655000D02*
X120037567Y287655000D01*
X160930667Y287655000D02*
X161098067Y287655000D01*
X175364367Y287655000D02*
G75*
G03*
X175364367Y287655000I-5000000J0D01*
G01*
X120364367Y287655000D02*
X120364367Y287655000D01*
X164404367Y287655000D02*
X162704367Y287655000D01*
X156784367Y287655000D02*
X155084367Y287655000D01*
X154244367Y287655000D02*
X152544367Y287655000D01*
X199332767Y287655000D02*
X192465967Y287655000D01*
X123132767Y287655000D02*
X116265967Y287655000D01*
X116941167Y287655000D02*
X121807667Y287655000D01*
X161232767Y287655000D02*
X154365967Y287655000D01*
X151704367Y287655000D02*
X150004367Y287655000D01*
X195561167Y287655000D02*
X196237567Y287655000D01*
X115364367Y287655000D02*
X125364367Y287655000D01*
X169484367Y287655000D02*
X167784367Y287655000D01*
X146624367Y287655000D02*
X144924367Y287655000D01*
X148230667Y287655000D02*
X148398067Y287655000D01*
X161272767Y287655000D02*
X154405967Y287655000D01*
X172024367Y287655000D02*
X170324367Y287655000D01*
X168550667Y287655000D02*
X168718067Y287655000D01*
X190364367Y287655000D02*
X200364367Y287655000D01*
X190364367Y287655000D02*
X200364367Y287655000D01*
X161864367Y287655000D02*
X160164367Y287655000D01*
X157228467Y287655000D02*
X157706867Y287655000D01*
X166010667Y287655000D02*
X166178067Y287655000D01*
X159324367Y287655000D02*
X157624367Y287655000D01*
X158390667Y287655000D02*
X158558067Y287655000D01*
X157461167Y287655000D02*
X158137567Y287655000D01*
X199332767Y287655000D02*
X192465967Y287655000D01*
X195340367Y287655000D02*
X195832367Y287655000D01*
X125364367Y287655000D02*
G75*
G03*
X125364367Y287655000I-5000000J0D01*
G01*
X170364367Y287655000D02*
X170364367Y287655000D01*
X165364367Y287655000D02*
X175364367Y287655000D01*
X150364367Y287655000D02*
G75*
G03*
X150364367Y287655000I-5000000J0D01*
G01*
X195364367Y287655000D02*
X195364367Y287655000D01*
X195364367Y287655000D02*
X195364367Y287655000D01*
X165364367Y287655000D02*
X175364367Y287655000D01*
X205864367Y287655000D02*
X109864367Y287655000D01*
X195561167Y287655000D02*
X196237567Y287655000D01*
X123132767Y287655000D02*
X116265967Y287655000D01*
X166944367Y287655000D02*
X165244367Y287655000D01*
X149164367Y287655000D02*
X147464367Y287655000D01*
X119361167Y287655000D02*
X120037567Y287655000D01*
X193146833Y287655000D02*
X198013333Y287655000D01*
X155029467Y287655000D02*
X159895967Y287655000D01*
X137864367Y287655000D02*
G75*
G03*
X137864367Y287655000I-5000000J0D01*
G01*
X155850667Y287655000D02*
X156018067Y287655000D01*
X157501167Y287655000D02*
X158177567Y287655000D01*
X119140167Y287655000D02*
X119618567Y287655000D01*
X170364367Y287655000D02*
X170364367Y287655000D01*
X145364367Y287655000D02*
X145364367Y287655000D01*
X200364367Y287655000D02*
G75*
G03*
X200364367Y287655000I-5000000J0D01*
G01*
X140364367Y287655000D02*
X150364367Y287655000D01*
X195345833Y287655000D02*
X195824233Y287655000D01*
X109864367Y287655000D02*
X109864367Y287655000D01*
X200364367Y287655000D02*
G75*
G03*
X200364367Y287655000I-5000000J0D01*
G01*
X171090667Y287655000D02*
X171258067Y287655000D01*
X163470667Y287655000D02*
X163638067Y287655000D01*
X145690667Y287655000D02*
X145858067Y287655000D01*
X109864367Y287655000D02*
X205192367Y287655000D01*
X153310667Y287655000D02*
X153478067Y287655000D01*
X150770667Y287655000D02*
X150938067Y287655000D01*
X259002400Y254370019D02*
X263868900Y254836295D01*
X299289700Y257037819D02*
X299768100Y252181219D01*
X349925600Y287655000D02*
X249925600Y287655000D01*
X303360600Y234339919D02*
G75*
G03*
X303360600Y234339919I-3500000J0D01*
G01*
X261422400Y282748519D02*
X262098800Y275881719D01*
X299522400Y237773319D02*
X300198800Y230906519D01*
X299562400Y282748519D02*
X300238800Y275881719D01*
X261422400Y237778519D02*
X262098800Y230911719D01*
X337407066Y257038151D02*
X337885466Y252181551D01*
X297090700Y254369419D02*
X301957200Y254835695D01*
X251925600Y287655000D02*
X251925600Y145125119D01*
X249925600Y287655000D02*
X249925600Y128125119D01*
X347925600Y287655000D02*
X251925600Y287655000D01*
X263941233Y254603692D02*
G75*
G03*
X263941233Y254603692I-2500000J0D01*
G01*
X249925600Y128125119D02*
X349925600Y128125119D01*
X293765600Y207014119D02*
X292065600Y206846119D01*
X341394000Y279653319D02*
X334527200Y278976919D01*
X335212600Y287655000D02*
X340078600Y287655000D01*
X340140744Y287655000D02*
G75*
G03*
X340140744Y287655000I-2500000J0D01*
G01*
X-58792950Y287655000D02*
X-55592950Y287655000D01*
X291225600Y207014119D02*
X289525600Y206846119D01*
X337622400Y282748519D02*
X338298800Y275881719D01*
X309005600Y207014119D02*
X307305600Y206846119D01*
X295371900Y207780119D02*
X295539300Y206080119D01*
X265194000Y279653319D02*
X258327200Y278976919D01*
X36807050Y287655000D02*
X36807050Y287655000D01*
X341394000Y234683319D02*
X334527200Y234006919D01*
X287751900Y207780119D02*
X287919300Y206080119D01*
X340146899Y254603424D02*
G75*
G03*
X340146899Y254603424I-2500000J0D01*
G01*
X303334000Y279653319D02*
X296467200Y278976919D01*
X335208066Y254369751D02*
X340074566Y254836027D01*
X251925600Y145125119D02*
X347925600Y145125119D01*
X349925600Y128125119D02*
X349925600Y287655000D01*
X341460600Y234345119D02*
G75*
G03*
X341460600Y234345119I-3500000J0D01*
G01*
X306465600Y207014119D02*
X304765600Y206846119D01*
X305531900Y207780119D02*
X305699300Y206080119D01*
X298845600Y207014119D02*
X297145600Y206846119D01*
X290291900Y207780119D02*
X290459300Y206080119D01*
X265194000Y234683319D02*
X258327200Y234006919D01*
X297911900Y207780119D02*
X298079300Y206080119D01*
X347925600Y145125119D02*
X347925600Y287655000D01*
X-55592950Y287655000D02*
G75*
G03*
X-55592950Y287655000I-1600000J0D01*
G01*
X300451900Y207780119D02*
X300619300Y206080119D01*
X261201400Y257038419D02*
X261679800Y252181819D01*
X303400600Y279315119D02*
G75*
G03*
X303400600Y279315119I-3500000J0D01*
G01*
X35207050Y287655000D02*
X38407050Y287655000D01*
X36807050Y287655000D02*
X36807050Y287655000D01*
X35207050Y287655000D02*
X38407050Y287655000D01*
X302029533Y254603092D02*
G75*
G03*
X302029533Y254603092I-2500000J0D01*
G01*
X-57192950Y287655000D02*
X-57192950Y287655000D01*
X308071900Y207780119D02*
X308239300Y206080119D01*
X303925600Y207014119D02*
X302225600Y206846119D01*
X302991900Y207780119D02*
X303159300Y206080119D01*
X303294000Y234678119D02*
X296427200Y234001719D01*
X265260600Y234345119D02*
G75*
G03*
X265260600Y234345119I-3500000J0D01*
G01*
X38407050Y287655000D02*
G75*
G03*
X38407050Y287655000I-1600000J0D01*
G01*
X301385600Y207014119D02*
X299685600Y206846119D01*
X292831900Y207780119D02*
X292999300Y206080119D01*
X341460600Y279315119D02*
G75*
G03*
X341460600Y279315119I-3500000J0D01*
G01*
X265260600Y279315119D02*
G75*
G03*
X265260600Y279315119I-3500000J0D01*
G01*
X337401600Y287655000D02*
X337893600Y287655000D01*
X296305600Y207014119D02*
X294605600Y206846119D01*
X288685600Y207014119D02*
X286985600Y206846119D01*
X337622400Y237778519D02*
X338298800Y230911719D01*
X762503655Y287655000D02*
X762503655Y287655000D01*
X299289700Y287655000D02*
X299768100Y287655000D01*
X349925600Y287655000D02*
X249925600Y287655000D01*
X809257759Y287655000D02*
X811844281Y287655000D01*
X341394000Y287655000D02*
X334527200Y287655000D01*
X261201400Y287655000D02*
X261679800Y287655000D01*
X337622400Y287655000D02*
X338298800Y287655000D01*
X303400600Y287655000D02*
G75*
G03*
X303400600Y287655000I-3500000J0D01*
G01*
X814430802Y287655000D02*
X811844281Y287655000D01*
X340140744Y287655000D02*
G75*
G03*
X340140744Y287655000I-2500000J0D01*
G01*
X265260600Y287655000D02*
G75*
G03*
X265260600Y287655000I-3500000J0D01*
G01*
X856503655Y287655000D02*
X856503655Y287655000D01*
X809257759Y287655000D02*
X811844281Y287655000D01*
X803716826Y287655000D02*
X815378830Y287655000D01*
X337407066Y287655000D02*
X337885466Y287655000D01*
X249925600Y287655000D02*
X249925600Y287655000D01*
X297090700Y287655000D02*
X301957200Y287655000D01*
X779503655Y287655000D02*
X789503655Y287655000D01*
X259002400Y287655000D02*
X263868900Y287655000D01*
X858103655Y287655000D02*
G75*
G03*
X858103655Y287655000I-1600000J0D01*
G01*
X804084717Y287655000D02*
X806671238Y287655000D01*
X760903655Y287655000D02*
X764103655Y287655000D01*
X764103655Y287655000D02*
G75*
G03*
X764103655Y287655000I-1600000J0D01*
G01*
X854903655Y287655000D02*
X858103655Y287655000D01*
X760903655Y287655000D02*
X764103655Y287655000D01*
X303334000Y287655000D02*
X296467200Y287655000D01*
X299562400Y287655000D02*
X300238800Y287655000D01*
X265194000Y287655000D02*
X258327200Y287655000D01*
X337401600Y287655000D02*
X337893600Y287655000D01*
X251925600Y287655000D02*
X251925600Y287655000D01*
X347925600Y287655000D02*
X347925600Y287655000D01*
X804084717Y287655000D02*
X806671238Y287655000D01*
X251925600Y287655000D02*
X347925600Y287655000D01*
X335212600Y287655000D02*
X340078600Y287655000D01*
X762503655Y287655000D02*
X762503655Y287655000D01*
X349925600Y287655000D02*
X349925600Y287655000D01*
X764103655Y287655000D02*
G75*
G03*
X764103655Y287655000I-1600000J0D01*
G01*
X809257759Y287655000D02*
X806671238Y287655000D01*
X340146899Y287655000D02*
G75*
G03*
X340146899Y287655000I-2500000J0D01*
G01*
X347925600Y287655000D02*
X251925600Y287655000D01*
X261422400Y287655000D02*
X262098800Y287655000D01*
X335208066Y287655000D02*
X340074566Y287655000D01*
X854903655Y287655000D02*
X858103655Y287655000D01*
X302029533Y287655000D02*
G75*
G03*
X302029533Y287655000I-2500000J0D01*
G01*
X809257759Y287655000D02*
X806671238Y287655000D01*
X263941233Y287655000D02*
G75*
G03*
X263941233Y287655000I-2500000J0D01*
G01*
X858103655Y287655000D02*
G75*
G03*
X858103655Y287655000I-1600000J0D01*
G01*
X249925600Y287655000D02*
X349925600Y287655000D01*
X814430802Y287655000D02*
X811844281Y287655000D01*
X784503655Y287655000D02*
X784503655Y287655000D01*
X856503655Y287655000D02*
X856503655Y287655000D01*
X803716826Y287655000D02*
X815378830Y287655000D01*
X809100455Y287655000D02*
X809776855Y287655000D01*
X847200455Y287655000D02*
X847876855Y287655000D01*
X817003655Y287655000D02*
X827003655Y287655000D01*
X797003655Y287655000D02*
X797003655Y287655000D01*
X812872055Y287655000D02*
X806005255Y287655000D01*
X761503655Y287655000D02*
X761503655Y287655000D01*
X847003655Y287655000D02*
X847003655Y287655000D01*
X772003655Y287655000D02*
X772003655Y287655000D01*
X777003655Y287655000D02*
G75*
G03*
X777003655Y287655000I-5000000J0D01*
G01*
X847200455Y287655000D02*
X847876855Y287655000D01*
X847003655Y287655000D02*
X847003655Y287655000D01*
X852003655Y287655000D02*
G75*
G03*
X852003655Y287655000I-5000000J0D01*
G01*
X820189955Y287655000D02*
X820357355Y287655000D01*
X810963655Y287655000D02*
X809263655Y287655000D01*
X804949955Y287655000D02*
X805117355Y287655000D01*
X802409955Y287655000D02*
X802577355Y287655000D01*
X802003655Y287655000D02*
G75*
G03*
X802003655Y287655000I-5000000J0D01*
G01*
X771000455Y287655000D02*
X771676855Y287655000D01*
X792003655Y287655000D02*
X802003655Y287655000D01*
X842003655Y287655000D02*
X852003655Y287655000D01*
X823663655Y287655000D02*
X821963655Y287655000D01*
X808423655Y287655000D02*
X806723655Y287655000D01*
X850972055Y287655000D02*
X844105255Y287655000D01*
X827003655Y287655000D02*
G75*
G03*
X827003655Y287655000I-5000000J0D01*
G01*
X842003655Y287655000D02*
X852003655Y287655000D01*
X852003655Y287655000D02*
G75*
G03*
X852003655Y287655000I-5000000J0D01*
G01*
X851038655Y287655000D02*
G75*
G03*
X851038655Y287655000I-3500000J0D01*
G01*
X792003655Y287655000D02*
X802003655Y287655000D01*
X799869955Y287655000D02*
X800037355Y287655000D01*
X797329955Y287655000D02*
X797497355Y287655000D01*
X850972055Y287655000D02*
X844105255Y287655000D01*
X816043655Y287655000D02*
X814343655Y287655000D01*
X813503655Y287655000D02*
X811803655Y287655000D01*
X803343655Y287655000D02*
X801643655Y287655000D01*
X800803655Y287655000D02*
X799103655Y287655000D01*
X807489955Y287655000D02*
X807657355Y287655000D01*
X851038655Y287655000D02*
G75*
G03*
X851038655Y287655000I-3500000J0D01*
G01*
X812569955Y287655000D02*
X812737355Y287655000D01*
X772003655Y287655000D02*
X772003655Y287655000D01*
X767003655Y287655000D02*
X777003655Y287655000D01*
X797003655Y287655000D02*
X797003655Y287655000D01*
X810029955Y287655000D02*
X810197355Y287655000D01*
X817003655Y287655000D02*
X827003655Y287655000D01*
X815109955Y287655000D02*
X815277355Y287655000D01*
X798263655Y287655000D02*
X796563655Y287655000D01*
X812912055Y287655000D02*
X806045255Y287655000D01*
X812978655Y287655000D02*
G75*
G03*
X812978655Y287655000I-3500000J0D01*
G01*
X827003655Y287655000D02*
G75*
G03*
X827003655Y287655000I-5000000J0D01*
G01*
X761503655Y287655000D02*
X856831655Y287655000D01*
X821123655Y287655000D02*
X819423655Y287655000D01*
X818583655Y287655000D02*
X816883655Y287655000D01*
X817649955Y287655000D02*
X817817355Y287655000D01*
X805883655Y287655000D02*
X804183655Y287655000D01*
X774772055Y287655000D02*
X767905255Y287655000D01*
X789503655Y287655000D02*
G75*
G03*
X789503655Y287655000I-5000000J0D01*
G01*
X822003655Y287655000D02*
X822003655Y287655000D01*
X777003655Y287655000D02*
G75*
G03*
X777003655Y287655000I-5000000J0D01*
G01*
X774838655Y287655000D02*
G75*
G03*
X774838655Y287655000I-3500000J0D01*
G01*
X812938655Y287655000D02*
G75*
G03*
X812938655Y287655000I-3500000J0D01*
G01*
X767003655Y287655000D02*
X777003655Y287655000D01*
X802003655Y287655000D02*
G75*
G03*
X802003655Y287655000I-5000000J0D01*
G01*
X857503655Y287655000D02*
X761503655Y287655000D01*
X822729955Y287655000D02*
X822897355Y287655000D01*
X822003655Y287655000D02*
X822003655Y287655000D01*
X348525600Y287655000D02*
G75*
G03*
X348525600Y287655000I-1600000J0D01*
G01*
X251325600Y287655000D02*
X254525600Y287655000D01*
X857503655Y287655000D02*
X857503655Y287655000D01*
X345325600Y287655000D02*
X348525600Y287655000D01*
X761503655Y287655000D02*
X761503655Y287655000D01*
X294138770Y287655000D02*
X305800775Y287655000D01*
X773519288Y287655000D02*
G75*
G03*
X773519288Y287655000I-2500000J0D01*
G01*
X846979655Y287655000D02*
X847471655Y287655000D01*
X859503655Y287655000D02*
X859503655Y287655000D01*
X342425600Y287655000D02*
G75*
G03*
X342425600Y287655000I-5000000J0D01*
G01*
X346925600Y287655000D02*
X346925600Y287655000D01*
X254525600Y287655000D02*
G75*
G03*
X254525600Y287655000I-1600000J0D01*
G01*
X304852747Y287655000D02*
X302266225Y287655000D01*
X262425600Y287655000D02*
X262425600Y287655000D01*
X292425600Y287655000D02*
G75*
G03*
X292425600Y287655000I-5000000J0D01*
G01*
X307425600Y287655000D02*
X317425600Y287655000D01*
X849724955Y287655000D02*
G75*
G03*
X849724955Y287655000I-2500000J0D01*
G01*
X844786121Y287655000D02*
X849652621Y287655000D01*
X806668755Y287655000D02*
X811535255Y287655000D01*
X808867755Y287655000D02*
X809346155Y287655000D01*
X299679704Y287655000D02*
X297093183Y287655000D01*
X267425600Y287655000D02*
G75*
G03*
X267425600Y287655000I-5000000J0D01*
G01*
X332425600Y287655000D02*
X342425600Y287655000D01*
X768580455Y287655000D02*
X773446955Y287655000D01*
X849718799Y287655000D02*
G75*
G03*
X849718799Y287655000I-2500000J0D01*
G01*
X844790655Y287655000D02*
X849656655Y287655000D01*
X857503655Y287655000D02*
X761503655Y287655000D01*
X252925600Y287655000D02*
X252925600Y287655000D01*
X761503655Y287655000D02*
X857503655Y287655000D01*
X337425600Y287655000D02*
X337425600Y287655000D01*
X342425600Y287655000D02*
G75*
G03*
X342425600Y287655000I-5000000J0D01*
G01*
X294506661Y287655000D02*
X297093183Y287655000D01*
X269925600Y287655000D02*
X279925600Y287655000D01*
X312425600Y287655000D02*
X312425600Y287655000D01*
X317425600Y287655000D02*
G75*
G03*
X317425600Y287655000I-5000000J0D01*
G01*
X287425600Y287655000D02*
X287425600Y287655000D01*
X337425600Y287655000D02*
X337425600Y287655000D01*
X279925600Y287655000D02*
G75*
G03*
X279925600Y287655000I-5000000J0D01*
G01*
X252925600Y287655000D02*
X252925600Y287655000D01*
X348525600Y287655000D02*
G75*
G03*
X348525600Y287655000I-1600000J0D01*
G01*
X346925600Y287655000D02*
X346925600Y287655000D01*
X257425600Y287655000D02*
X267425600Y287655000D01*
X345325600Y287655000D02*
X348525600Y287655000D01*
X759503655Y287655000D02*
X859503655Y287655000D01*
X254525600Y287655000D02*
G75*
G03*
X254525600Y287655000I-1600000J0D01*
G01*
X332425600Y287655000D02*
X342425600Y287655000D01*
X274925600Y287655000D02*
X274925600Y287655000D01*
X809140455Y287655000D02*
X809816855Y287655000D01*
X859503655Y287655000D02*
X759503655Y287655000D01*
X299679704Y287655000D02*
X302266225Y287655000D01*
X294138770Y287655000D02*
X305800775Y287655000D01*
X299679704Y287655000D02*
X302266225Y287655000D01*
X299679704Y287655000D02*
X297093183Y287655000D01*
X282425600Y287655000D02*
X292425600Y287655000D01*
X774838655Y287655000D02*
G75*
G03*
X774838655Y287655000I-3500000J0D01*
G01*
X774772055Y287655000D02*
X767905255Y287655000D01*
X771000455Y287655000D02*
X771676855Y287655000D01*
X846985121Y287655000D02*
X847463521Y287655000D01*
X811607588Y287655000D02*
G75*
G03*
X811607588Y287655000I-2500000J0D01*
G01*
X759503655Y287655000D02*
X759503655Y287655000D01*
X251325600Y287655000D02*
X254525600Y287655000D01*
X304852747Y287655000D02*
X302266225Y287655000D01*
X294506661Y287655000D02*
X297093183Y287655000D01*
X770779455Y287655000D02*
X771257855Y287655000D01*
X341460600Y287655000D02*
G75*
G03*
X341460600Y287655000I-3500000J0D01*
G01*
X312425600Y287655000D02*
X312425600Y287655000D01*
X337622400Y287655000D02*
X338298800Y287655000D01*
X307425600Y287655000D02*
X317425600Y287655000D01*
X317425600Y287655000D02*
G75*
G03*
X317425600Y287655000I-5000000J0D01*
G01*
X341394000Y287655000D02*
X334527200Y287655000D01*
X261422400Y287655000D02*
X262098800Y287655000D01*
X265194000Y287655000D02*
X258327200Y287655000D01*
X347925600Y287655000D02*
X251925600Y287655000D01*
X259002400Y287655000D02*
X263868900Y287655000D01*
X262425600Y287655000D02*
X262425600Y287655000D01*
X251925600Y287655000D02*
X251925600Y287655000D01*
X301385600Y287655000D02*
X299685600Y287655000D01*
X293765600Y287655000D02*
X292065600Y287655000D01*
X303400600Y287655000D02*
G75*
G03*
X303400600Y287655000I-3500000J0D01*
G01*
X265260600Y287655000D02*
G75*
G03*
X265260600Y287655000I-3500000J0D01*
G01*
X261201400Y287655000D02*
X261679800Y287655000D01*
X265194000Y287655000D02*
X258327200Y287655000D01*
X340146899Y287655000D02*
G75*
G03*
X340146899Y287655000I-2500000J0D01*
G01*
X340140744Y287655000D02*
G75*
G03*
X340140744Y287655000I-2500000J0D01*
G01*
X292831900Y287655000D02*
X292999300Y287655000D01*
X288685600Y287655000D02*
X286985600Y287655000D01*
X299562400Y287655000D02*
X300238800Y287655000D01*
X265260600Y287655000D02*
G75*
G03*
X265260600Y287655000I-3500000J0D01*
G01*
X311545600Y287655000D02*
X309845600Y287655000D01*
X335208066Y287655000D02*
X340074566Y287655000D01*
X302029533Y287655000D02*
G75*
G03*
X302029533Y287655000I-2500000J0D01*
G01*
X337622400Y287655000D02*
X338298800Y287655000D01*
X292425600Y287655000D02*
G75*
G03*
X292425600Y287655000I-5000000J0D01*
G01*
X310611900Y287655000D02*
X310779300Y287655000D01*
X257425600Y287655000D02*
X267425600Y287655000D01*
X251925600Y287655000D02*
X347253600Y287655000D01*
X290291900Y287655000D02*
X290459300Y287655000D01*
X302991900Y287655000D02*
X303159300Y287655000D01*
X261422400Y287655000D02*
X262098800Y287655000D01*
X313151900Y287655000D02*
X313319300Y287655000D01*
X303925600Y287655000D02*
X302225600Y287655000D01*
X303294000Y287655000D02*
X296427200Y287655000D01*
X299289700Y287655000D02*
X299768100Y287655000D01*
X287751900Y287655000D02*
X287919300Y287655000D01*
X287425600Y287655000D02*
X287425600Y287655000D01*
X309005600Y287655000D02*
X307305600Y287655000D01*
X314085600Y287655000D02*
X312385600Y287655000D01*
X306465600Y287655000D02*
X304765600Y287655000D01*
X305531900Y287655000D02*
X305699300Y287655000D01*
X300451900Y287655000D02*
X300619300Y287655000D01*
X299522400Y287655000D02*
X300198800Y287655000D01*
X341394000Y287655000D02*
X334527200Y287655000D01*
X337407066Y287655000D02*
X337885466Y287655000D01*
X337401600Y287655000D02*
X337893600Y287655000D01*
X341460600Y287655000D02*
G75*
G03*
X341460600Y287655000I-3500000J0D01*
G01*
X303360600Y287655000D02*
G75*
G03*
X303360600Y287655000I-3500000J0D01*
G01*
X308071900Y287655000D02*
X308239300Y287655000D01*
X291225600Y287655000D02*
X289525600Y287655000D01*
X295371900Y287655000D02*
X295539300Y287655000D01*
X296305600Y287655000D02*
X294605600Y287655000D01*
X335212600Y287655000D02*
X340078600Y287655000D01*
X282425600Y287655000D02*
X292425600Y287655000D01*
X297911900Y287655000D02*
X298079300Y287655000D01*
X303334000Y287655000D02*
X296467200Y287655000D01*
X267425600Y287655000D02*
G75*
G03*
X267425600Y287655000I-5000000J0D01*
G01*
X297090700Y287655000D02*
X301957200Y287655000D01*
X263941233Y287655000D02*
G75*
G03*
X263941233Y287655000I-2500000J0D01*
G01*
X298845600Y287655000D02*
X297145600Y287655000D01*
X252925600Y287655000D02*
X252925600Y287655000D01*
X348525600Y287655000D02*
G75*
G03*
X348525600Y287655000I-1600000J0D01*
G01*
X348525600Y131125119D02*
G75*
G03*
X348525600Y131125119I-1600000J0D01*
G01*
X346925600Y287655000D02*
X346925600Y287655000D01*
X267425600Y153125119D02*
G75*
G03*
X267425600Y153125119I-5000000J0D01*
G01*
X304852747Y178013862D02*
X302266225Y173728673D01*
X251325600Y287655000D02*
X254525600Y287655000D01*
X262425600Y183125119D02*
X262425600Y173125119D01*
X292425600Y178125119D02*
G75*
G03*
X292425600Y178125119I-5000000J0D01*
G01*
X342425600Y178125119D02*
G75*
G03*
X342425600Y178125119I-5000000J0D01*
G01*
X314085600Y207014119D02*
X312385600Y206846119D01*
X337425600Y158125119D02*
X337425600Y148125119D01*
X332425600Y153125119D02*
X342425600Y153125119D01*
X282425600Y153125119D02*
X292425600Y153125119D01*
X313151900Y207780119D02*
X313319300Y206080119D01*
X269925600Y195263892D02*
X279925600Y195263892D01*
X251925600Y145125119D02*
X347253600Y145125119D01*
X279925600Y195263892D02*
G75*
G03*
X279925600Y195263892I-5000000J0D01*
G01*
X252925600Y132725119D02*
X252925600Y129525119D01*
X294138770Y153492304D02*
X305800775Y153492304D01*
X299679704Y153492304D02*
X297093183Y157777493D01*
X282425600Y178125119D02*
X292425600Y178125119D01*
X337425600Y183125119D02*
X337425600Y173125119D01*
X312425600Y158125119D02*
X312425600Y148125119D01*
X299679704Y178013862D02*
X302266225Y173728673D01*
X347925600Y211111079D02*
X251925600Y211111079D01*
X287425600Y183125119D02*
X287425600Y173125119D01*
X317425600Y178125119D02*
G75*
G03*
X317425600Y178125119I-5000000J0D01*
G01*
X345325600Y131125119D02*
X348525600Y131125119D01*
X251925600Y287655000D02*
X251925600Y287655000D01*
X346925600Y132725119D02*
X346925600Y129525119D01*
X349925600Y287655000D02*
X349925600Y287655000D01*
X299679704Y153492304D02*
X302266225Y149207116D01*
X332425600Y178125119D02*
X342425600Y178125119D01*
X347925600Y287655000D02*
X347925600Y287655000D01*
X292425600Y153125119D02*
G75*
G03*
X292425600Y153125119I-5000000J0D01*
G01*
X294506661Y178013862D02*
X297093183Y182299050D01*
X317425600Y153125119D02*
G75*
G03*
X317425600Y153125119I-5000000J0D01*
G01*
X310611900Y207780119D02*
X310779300Y206080119D01*
X294506661Y153492304D02*
X297093183Y157777493D01*
X347925600Y287655000D02*
X251925600Y287655000D01*
X251925600Y287655000D02*
X347925600Y287655000D01*
X349925600Y287655000D02*
X249925600Y287655000D01*
X254525600Y287655000D02*
G75*
G03*
X254525600Y287655000I-1600000J0D01*
G01*
X342425600Y153125119D02*
G75*
G03*
X342425600Y153125119I-5000000J0D01*
G01*
X251925600Y211111079D02*
X251925600Y145125119D01*
X249925600Y287655000D02*
X249925600Y287655000D01*
X345325600Y287655000D02*
X348525600Y287655000D01*
X274925600Y200263892D02*
X274925600Y190263892D01*
X312425600Y183125119D02*
X312425600Y173125119D01*
X294138770Y173728673D02*
X305800775Y173728673D01*
X299679704Y178013862D02*
X297093183Y182299050D01*
X304852747Y153492304D02*
X302266225Y149207116D01*
X267425600Y178125119D02*
G75*
G03*
X267425600Y178125119I-5000000J0D01*
G01*
X311545600Y207014119D02*
X309845600Y206846119D01*
X249925600Y287655000D02*
X349925600Y287655000D01*
X287425600Y158125119D02*
X287425600Y148125119D01*
X251325600Y131125119D02*
X254525600Y131125119D01*
X307425600Y178125119D02*
X317425600Y178125119D01*
X257425600Y178125119D02*
X267425600Y178125119D01*
X307425600Y153125119D02*
X317425600Y153125119D01*
X257425600Y153125119D02*
X267425600Y153125119D01*
X262425600Y158125119D02*
X262425600Y148125119D01*
X254525600Y131125119D02*
G75*
G03*
X254525600Y131125119I-1600000J0D01*
G01*
X262425600Y287655000D02*
X262425600Y287655000D01*
X279925600Y287655000D02*
G75*
G03*
X279925600Y287655000I-5000000J0D01*
G01*
X257425600Y287655000D02*
X267425600Y287655000D01*
X267425600Y287655000D02*
G75*
G03*
X267425600Y287655000I-5000000J0D01*
G01*
X265260600Y287655000D02*
G75*
G03*
X265260600Y287655000I-3500000J0D01*
G01*
X314085600Y287655000D02*
X312385600Y287655000D01*
X303360600Y287655000D02*
G75*
G03*
X303360600Y287655000I-3500000J0D01*
G01*
X287425600Y287655000D02*
X287425600Y287655000D01*
X298845600Y287655000D02*
X297145600Y287655000D01*
X305531900Y287655000D02*
X305699300Y287655000D01*
X341460600Y287655000D02*
G75*
G03*
X341460600Y287655000I-3500000J0D01*
G01*
X290291900Y287655000D02*
X290459300Y287655000D01*
X292425600Y287655000D02*
G75*
G03*
X292425600Y287655000I-5000000J0D01*
G01*
X291225600Y287655000D02*
X289525600Y287655000D01*
X288685600Y287655000D02*
X286985600Y287655000D01*
X312425600Y287655000D02*
X312425600Y287655000D01*
X308071900Y287655000D02*
X308239300Y287655000D01*
X306465600Y287655000D02*
X304765600Y287655000D01*
X342425600Y287655000D02*
G75*
G03*
X342425600Y287655000I-5000000J0D01*
G01*
X262425600Y287655000D02*
X262425600Y287655000D01*
X251925600Y287655000D02*
X251925600Y287655000D01*
X300451900Y287655000D02*
X300619300Y287655000D01*
X293765600Y287655000D02*
X292065600Y287655000D01*
X341460600Y287655000D02*
G75*
G03*
X341460600Y287655000I-3500000J0D01*
G01*
X299522400Y287655000D02*
X300198800Y287655000D01*
X313151900Y287655000D02*
X313319300Y287655000D01*
X301385600Y287655000D02*
X299685600Y287655000D01*
X295371900Y287655000D02*
X295539300Y287655000D01*
X265194000Y287655000D02*
X258327200Y287655000D01*
X307425600Y287655000D02*
X317425600Y287655000D01*
X261422400Y287655000D02*
X262098800Y287655000D01*
X337622400Y287655000D02*
X338298800Y287655000D01*
X267425600Y287655000D02*
G75*
G03*
X267425600Y287655000I-5000000J0D01*
G01*
X292831900Y287655000D02*
X292999300Y287655000D01*
X332425600Y287655000D02*
X342425600Y287655000D01*
X274925600Y287655000D02*
X274925600Y287655000D01*
X292425600Y287655000D02*
G75*
G03*
X292425600Y287655000I-5000000J0D01*
G01*
X337425600Y287655000D02*
X337425600Y287655000D01*
X310611900Y287655000D02*
X310779300Y287655000D01*
X347925600Y287655000D02*
X251925600Y287655000D01*
X299679704Y287655000D02*
X297093183Y287655000D01*
X317425600Y287655000D02*
G75*
G03*
X317425600Y287655000I-5000000J0D01*
G01*
X282425600Y287655000D02*
X292425600Y287655000D01*
X337425600Y287655000D02*
X337425600Y287655000D01*
X287751900Y287655000D02*
X287919300Y287655000D01*
X342425600Y287655000D02*
G75*
G03*
X342425600Y287655000I-5000000J0D01*
G01*
X312425600Y287655000D02*
X312425600Y287655000D01*
X332425600Y287655000D02*
X342425600Y287655000D01*
X309005600Y287655000D02*
X307305600Y287655000D01*
X297911900Y287655000D02*
X298079300Y287655000D01*
X251925600Y287655000D02*
X347253600Y287655000D01*
X311545600Y287655000D02*
X309845600Y287655000D01*
X257425600Y287655000D02*
X267425600Y287655000D01*
X302991900Y287655000D02*
X303159300Y287655000D01*
X282425600Y287655000D02*
X292425600Y287655000D01*
X287425600Y287655000D02*
X287425600Y287655000D01*
X294506661Y287655000D02*
X297093183Y287655000D01*
X317425600Y287655000D02*
G75*
G03*
X317425600Y287655000I-5000000J0D01*
G01*
X296305600Y287655000D02*
X294605600Y287655000D01*
X269925600Y287655000D02*
X279925600Y287655000D01*
X303294000Y287655000D02*
X296427200Y287655000D01*
X341394000Y287655000D02*
X334527200Y287655000D01*
X303925600Y287655000D02*
X302225600Y287655000D01*
X307425600Y287655000D02*
X317425600Y287655000D01*
X109864367Y287655000D02*
X109864367Y287655000D01*
X205864367Y287655000D02*
X205864367Y287655000D01*
X205864367Y287655000D02*
X109864367Y287655000D01*
X206489367Y287655000D02*
X230619833Y287655000D01*
X107864367Y287655000D02*
X107864367Y287655000D01*
X207864367Y287655000D02*
X107864367Y287655000D01*
X107864367Y287655000D02*
X207864367Y287655000D01*
X150364367Y287655000D02*
G75*
G03*
X150364367Y287655000I-5000000J0D01*
G01*
X125364367Y287655000D02*
G75*
G03*
X125364367Y287655000I-5000000J0D01*
G01*
X199399367Y287655000D02*
G75*
G03*
X199399367Y287655000I-3500000J0D01*
G01*
X109864367Y287655000D02*
X205864367Y287655000D01*
X229369833Y287655000D02*
X229369833Y287655000D01*
X198085667Y287655000D02*
G75*
G03*
X198085667Y287655000I-2500000J0D01*
G01*
X161299367Y287655000D02*
G75*
G03*
X161299367Y287655000I-3500000J0D01*
G01*
X207864367Y287655000D02*
X207864367Y287655000D01*
X123199367Y287655000D02*
G75*
G03*
X123199367Y287655000I-3500000J0D01*
G01*
X199399367Y287655000D02*
G75*
G03*
X199399367Y287655000I-3500000J0D01*
G01*
X161339367Y287655000D02*
G75*
G03*
X161339367Y287655000I-3500000J0D01*
G01*
X123199367Y287655000D02*
G75*
G03*
X123199367Y287655000I-3500000J0D01*
G01*
X159968300Y287655000D02*
G75*
G03*
X159968300Y287655000I-2500000J0D01*
G01*
X198079511Y287655000D02*
G75*
G03*
X198079511Y287655000I-2500000J0D01*
G01*
X206489367Y287655000D02*
X230619833Y287655000D01*
X121880000Y287655000D02*
G75*
G03*
X121880000Y287655000I-2500000J0D01*
G01*
D13*
%TO.C,J2*%
X31744000Y-54558000D02*
X18536000Y-54558000D01*
X34284000Y-52526000D02*
X31744000Y-54558000D01*
X18536000Y-54558000D02*
X18536000Y-38810000D01*
X34284000Y-51510000D02*
X34284000Y-52526000D01*
X34284000Y-38810000D02*
X34284000Y-51510000D01*
X18536000Y-38810000D02*
X34284000Y-38810000D01*
%TO.C,J3*%
X18536000Y-63800000D02*
X34284000Y-63800000D01*
X34284000Y-63800000D02*
X34284000Y-76500000D01*
X34284000Y-76500000D02*
X34284000Y-77516000D01*
X18536000Y-79548000D02*
X18536000Y-63800000D01*
X34284000Y-77516000D02*
X31744000Y-79548000D01*
X31744000Y-79548000D02*
X18536000Y-79548000D01*
%TO.C,J4*%
X56724000Y-54558000D02*
X43516000Y-54558000D01*
X59264000Y-52526000D02*
X56724000Y-54558000D01*
X43516000Y-54558000D02*
X43516000Y-38810000D01*
X59264000Y-51510000D02*
X59264000Y-52526000D01*
X59264000Y-38810000D02*
X59264000Y-51510000D01*
X43516000Y-38810000D02*
X59264000Y-38810000D01*
%TO.C,J5*%
X43536000Y-63790000D02*
X59284000Y-63790000D01*
X59284000Y-63790000D02*
X59284000Y-76490000D01*
X59284000Y-76490000D02*
X59284000Y-77506000D01*
X43536000Y-79538000D02*
X43536000Y-63790000D01*
X59284000Y-77506000D02*
X56744000Y-79538000D01*
X56744000Y-79538000D02*
X43536000Y-79538000D01*
%TO.C,J6*%
X44244000Y-37368000D02*
X31036000Y-37368000D01*
X46784000Y-35336000D02*
X44244000Y-37368000D01*
X31036000Y-37368000D02*
X31036000Y-21620000D01*
X46784000Y-34320000D02*
X46784000Y-35336000D01*
X46784000Y-21620000D02*
X46784000Y-34320000D01*
X31036000Y-21620000D02*
X46784000Y-21620000D01*
%TO.C,J7*%
X81744000Y-54548000D02*
X68536000Y-54548000D01*
X84284000Y-52516000D02*
X81744000Y-54548000D01*
X68536000Y-54548000D02*
X68536000Y-38800000D01*
X84284000Y-51500000D02*
X84284000Y-52516000D01*
X84284000Y-38800000D02*
X84284000Y-51500000D01*
X68536000Y-38800000D02*
X84284000Y-38800000D01*
%TO.C,J8*%
X68546000Y-63710000D02*
X84294000Y-63710000D01*
X84294000Y-63710000D02*
X84294000Y-76410000D01*
X84294000Y-76410000D02*
X84294000Y-77426000D01*
X68546000Y-79458000D02*
X68546000Y-63710000D01*
X84294000Y-77426000D02*
X81754000Y-79458000D01*
X81754000Y-79458000D02*
X68546000Y-79458000D01*
%TO.C,J9*%
X106754000Y-54558000D02*
X93546000Y-54558000D01*
X109294000Y-52526000D02*
X106754000Y-54558000D01*
X93546000Y-54558000D02*
X93546000Y-38810000D01*
X109294000Y-51510000D02*
X109294000Y-52526000D01*
X109294000Y-38810000D02*
X109294000Y-51510000D01*
X93546000Y-38810000D02*
X109294000Y-38810000D01*
%TO.C,J10*%
X93536000Y-63800000D02*
X109284000Y-63800000D01*
X109284000Y-63800000D02*
X109284000Y-76500000D01*
X109284000Y-76500000D02*
X109284000Y-77516000D01*
X93536000Y-79548000D02*
X93536000Y-63800000D01*
X109284000Y-77516000D02*
X106744000Y-79548000D01*
X106744000Y-79548000D02*
X93536000Y-79548000D01*
%TD*%
M02*
