%TF.GenerationSoftware,KiCad,Pcbnew,(5.1.9)-1*%
%TF.CreationDate,2021-08-20T18:58:33+01:00*%
%TF.ProjectId,KOSMOS LFO6 Jack Panel,4b4f534d-4f53-4204-9c46-4f36204a6163,rev?*%
%TF.SameCoordinates,Original*%
%TF.FileFunction,Other,Fab,Top*%
%FSLAX46Y46*%
G04 Gerber Fmt 4.6, Leading zero omitted, Abs format (unit mm)*
G04 Created by KiCad (PCBNEW (5.1.9)-1) date 2021-08-20 18:58:33*
%MOMM*%
%LPD*%
G01*
G04 APERTURE LIST*
%ADD10C,0.100000*%
%ADD11C,0.150000*%
G04 APERTURE END LIST*
D10*
%TO.C,J1*%
X48665000Y-19150000D02*
X48030000Y-18515000D01*
X78510000Y-19150000D02*
X48665000Y-19150000D01*
X78510000Y-16610000D02*
X78510000Y-19150000D01*
X48030000Y-16610000D02*
X78510000Y-16610000D01*
X48030000Y-18515000D02*
X48030000Y-16610000D01*
%TD*%
%TO.C,J1*%
D11*
X57654285Y-21547142D02*
X57606666Y-21594761D01*
X57463809Y-21642380D01*
X57368571Y-21642380D01*
X57225714Y-21594761D01*
X57130476Y-21499523D01*
X57082857Y-21404285D01*
X57035238Y-21213809D01*
X57035238Y-21070952D01*
X57082857Y-20880476D01*
X57130476Y-20785238D01*
X57225714Y-20690000D01*
X57368571Y-20642380D01*
X57463809Y-20642380D01*
X57606666Y-20690000D01*
X57654285Y-20737619D01*
X58225714Y-21642380D02*
X58130476Y-21594761D01*
X58082857Y-21547142D01*
X58035238Y-21451904D01*
X58035238Y-21166190D01*
X58082857Y-21070952D01*
X58130476Y-21023333D01*
X58225714Y-20975714D01*
X58368571Y-20975714D01*
X58463809Y-21023333D01*
X58511428Y-21070952D01*
X58559047Y-21166190D01*
X58559047Y-21451904D01*
X58511428Y-21547142D01*
X58463809Y-21594761D01*
X58368571Y-21642380D01*
X58225714Y-21642380D01*
X58987619Y-20975714D02*
X58987619Y-21642380D01*
X58987619Y-21070952D02*
X59035238Y-21023333D01*
X59130476Y-20975714D01*
X59273333Y-20975714D01*
X59368571Y-21023333D01*
X59416190Y-21118571D01*
X59416190Y-21642380D01*
X59892380Y-20975714D02*
X59892380Y-21642380D01*
X59892380Y-21070952D02*
X59940000Y-21023333D01*
X60035238Y-20975714D01*
X60178095Y-20975714D01*
X60273333Y-21023333D01*
X60320952Y-21118571D01*
X60320952Y-21642380D01*
X60559047Y-21737619D02*
X61320952Y-21737619D01*
X61749523Y-20642380D02*
X61844761Y-20642380D01*
X61940000Y-20690000D01*
X61987619Y-20737619D01*
X62035238Y-20832857D01*
X62082857Y-21023333D01*
X62082857Y-21261428D01*
X62035238Y-21451904D01*
X61987619Y-21547142D01*
X61940000Y-21594761D01*
X61844761Y-21642380D01*
X61749523Y-21642380D01*
X61654285Y-21594761D01*
X61606666Y-21547142D01*
X61559047Y-21451904D01*
X61511428Y-21261428D01*
X61511428Y-21023333D01*
X61559047Y-20832857D01*
X61606666Y-20737619D01*
X61654285Y-20690000D01*
X61749523Y-20642380D01*
X63035238Y-21642380D02*
X62463809Y-21642380D01*
X62749523Y-21642380D02*
X62749523Y-20642380D01*
X62654285Y-20785238D01*
X62559047Y-20880476D01*
X62463809Y-20928095D01*
X63368571Y-21642380D02*
X63892380Y-20975714D01*
X63368571Y-20975714D02*
X63892380Y-21642380D01*
X64797142Y-21642380D02*
X64225714Y-21642380D01*
X64511428Y-21642380D02*
X64511428Y-20642380D01*
X64416190Y-20785238D01*
X64320952Y-20880476D01*
X64225714Y-20928095D01*
X65178095Y-20737619D02*
X65225714Y-20690000D01*
X65320952Y-20642380D01*
X65559047Y-20642380D01*
X65654285Y-20690000D01*
X65701904Y-20737619D01*
X65749523Y-20832857D01*
X65749523Y-20928095D01*
X65701904Y-21070952D01*
X65130476Y-21642380D01*
X65749523Y-21642380D01*
X65940000Y-21737619D02*
X66701904Y-21737619D01*
X67273333Y-21118571D02*
X66940000Y-21118571D01*
X66940000Y-21642380D02*
X66940000Y-20642380D01*
X67416190Y-20642380D01*
X68178095Y-21594761D02*
X68082857Y-21642380D01*
X67892380Y-21642380D01*
X67797142Y-21594761D01*
X67749523Y-21499523D01*
X67749523Y-21118571D01*
X67797142Y-21023333D01*
X67892380Y-20975714D01*
X68082857Y-20975714D01*
X68178095Y-21023333D01*
X68225714Y-21118571D01*
X68225714Y-21213809D01*
X67749523Y-21309047D01*
X68654285Y-21642380D02*
X68654285Y-20975714D01*
X68654285Y-21070952D02*
X68701904Y-21023333D01*
X68797142Y-20975714D01*
X68940000Y-20975714D01*
X69035238Y-21023333D01*
X69082857Y-21118571D01*
X69082857Y-21642380D01*
X69082857Y-21118571D02*
X69130476Y-21023333D01*
X69225714Y-20975714D01*
X69368571Y-20975714D01*
X69463809Y-21023333D01*
X69511428Y-21118571D01*
X69511428Y-21642380D01*
X70416190Y-21642380D02*
X70416190Y-21118571D01*
X70368571Y-21023333D01*
X70273333Y-20975714D01*
X70082857Y-20975714D01*
X69987619Y-21023333D01*
X70416190Y-21594761D02*
X70320952Y-21642380D01*
X70082857Y-21642380D01*
X69987619Y-21594761D01*
X69940000Y-21499523D01*
X69940000Y-21404285D01*
X69987619Y-21309047D01*
X70082857Y-21261428D01*
X70320952Y-21261428D01*
X70416190Y-21213809D01*
X71035238Y-21642380D02*
X70940000Y-21594761D01*
X70892380Y-21499523D01*
X70892380Y-20642380D01*
X71797142Y-21594761D02*
X71701904Y-21642380D01*
X71511428Y-21642380D01*
X71416190Y-21594761D01*
X71368571Y-21499523D01*
X71368571Y-21118571D01*
X71416190Y-21023333D01*
X71511428Y-20975714D01*
X71701904Y-20975714D01*
X71797142Y-21023333D01*
X71844761Y-21118571D01*
X71844761Y-21213809D01*
X71368571Y-21309047D01*
X62936666Y-17332380D02*
X62936666Y-18046666D01*
X62889047Y-18189523D01*
X62793809Y-18284761D01*
X62650952Y-18332380D01*
X62555714Y-18332380D01*
X63936666Y-18332380D02*
X63365238Y-18332380D01*
X63650952Y-18332380D02*
X63650952Y-17332380D01*
X63555714Y-17475238D01*
X63460476Y-17570476D01*
X63365238Y-17618095D01*
%TO.C,J2*%
X22453809Y-56866666D02*
X22930000Y-56866666D01*
X22358571Y-57152380D02*
X22691904Y-56152380D01*
X23025238Y-57152380D01*
X23787142Y-56485714D02*
X23787142Y-57152380D01*
X23358571Y-56485714D02*
X23358571Y-57009523D01*
X23406190Y-57104761D01*
X23501428Y-57152380D01*
X23644285Y-57152380D01*
X23739523Y-57104761D01*
X23787142Y-57057142D01*
X24691904Y-57152380D02*
X24691904Y-56152380D01*
X24691904Y-57104761D02*
X24596666Y-57152380D01*
X24406190Y-57152380D01*
X24310952Y-57104761D01*
X24263333Y-57057142D01*
X24215714Y-56961904D01*
X24215714Y-56676190D01*
X24263333Y-56580952D01*
X24310952Y-56533333D01*
X24406190Y-56485714D01*
X24596666Y-56485714D01*
X24691904Y-56533333D01*
X25168095Y-57152380D02*
X25168095Y-56485714D01*
X25168095Y-56152380D02*
X25120476Y-56200000D01*
X25168095Y-56247619D01*
X25215714Y-56200000D01*
X25168095Y-56152380D01*
X25168095Y-56247619D01*
X25787142Y-57152380D02*
X25691904Y-57104761D01*
X25644285Y-57057142D01*
X25596666Y-56961904D01*
X25596666Y-56676190D01*
X25644285Y-56580952D01*
X25691904Y-56533333D01*
X25787142Y-56485714D01*
X25930000Y-56485714D01*
X26025238Y-56533333D01*
X26072857Y-56580952D01*
X26120476Y-56676190D01*
X26120476Y-56961904D01*
X26072857Y-57057142D01*
X26025238Y-57104761D01*
X25930000Y-57152380D01*
X25787142Y-57152380D01*
X26834761Y-56152380D02*
X26834761Y-56866666D01*
X26787142Y-57009523D01*
X26691904Y-57104761D01*
X26549047Y-57152380D01*
X26453809Y-57152380D01*
X27739523Y-57152380D02*
X27739523Y-56628571D01*
X27691904Y-56533333D01*
X27596666Y-56485714D01*
X27406190Y-56485714D01*
X27310952Y-56533333D01*
X27739523Y-57104761D02*
X27644285Y-57152380D01*
X27406190Y-57152380D01*
X27310952Y-57104761D01*
X27263333Y-57009523D01*
X27263333Y-56914285D01*
X27310952Y-56819047D01*
X27406190Y-56771428D01*
X27644285Y-56771428D01*
X27739523Y-56723809D01*
X28644285Y-57104761D02*
X28549047Y-57152380D01*
X28358571Y-57152380D01*
X28263333Y-57104761D01*
X28215714Y-57057142D01*
X28168095Y-56961904D01*
X28168095Y-56676190D01*
X28215714Y-56580952D01*
X28263333Y-56533333D01*
X28358571Y-56485714D01*
X28549047Y-56485714D01*
X28644285Y-56533333D01*
X29072857Y-57152380D02*
X29072857Y-56152380D01*
X29168095Y-56771428D02*
X29453809Y-57152380D01*
X29453809Y-56485714D02*
X29072857Y-56866666D01*
X29834761Y-56247619D02*
X29882380Y-56200000D01*
X29977619Y-56152380D01*
X30215714Y-56152380D01*
X30310952Y-56200000D01*
X30358571Y-56247619D01*
X30406190Y-56342857D01*
X30406190Y-56438095D01*
X30358571Y-56580952D01*
X29787142Y-57152380D01*
X30406190Y-57152380D01*
%TO.C,J3*%
X22453809Y-81856666D02*
X22930000Y-81856666D01*
X22358571Y-82142380D02*
X22691904Y-81142380D01*
X23025238Y-82142380D01*
X23787142Y-81475714D02*
X23787142Y-82142380D01*
X23358571Y-81475714D02*
X23358571Y-81999523D01*
X23406190Y-82094761D01*
X23501428Y-82142380D01*
X23644285Y-82142380D01*
X23739523Y-82094761D01*
X23787142Y-82047142D01*
X24691904Y-82142380D02*
X24691904Y-81142380D01*
X24691904Y-82094761D02*
X24596666Y-82142380D01*
X24406190Y-82142380D01*
X24310952Y-82094761D01*
X24263333Y-82047142D01*
X24215714Y-81951904D01*
X24215714Y-81666190D01*
X24263333Y-81570952D01*
X24310952Y-81523333D01*
X24406190Y-81475714D01*
X24596666Y-81475714D01*
X24691904Y-81523333D01*
X25168095Y-82142380D02*
X25168095Y-81475714D01*
X25168095Y-81142380D02*
X25120476Y-81190000D01*
X25168095Y-81237619D01*
X25215714Y-81190000D01*
X25168095Y-81142380D01*
X25168095Y-81237619D01*
X25787142Y-82142380D02*
X25691904Y-82094761D01*
X25644285Y-82047142D01*
X25596666Y-81951904D01*
X25596666Y-81666190D01*
X25644285Y-81570952D01*
X25691904Y-81523333D01*
X25787142Y-81475714D01*
X25930000Y-81475714D01*
X26025238Y-81523333D01*
X26072857Y-81570952D01*
X26120476Y-81666190D01*
X26120476Y-81951904D01*
X26072857Y-82047142D01*
X26025238Y-82094761D01*
X25930000Y-82142380D01*
X25787142Y-82142380D01*
X26834761Y-81142380D02*
X26834761Y-81856666D01*
X26787142Y-81999523D01*
X26691904Y-82094761D01*
X26549047Y-82142380D01*
X26453809Y-82142380D01*
X27739523Y-82142380D02*
X27739523Y-81618571D01*
X27691904Y-81523333D01*
X27596666Y-81475714D01*
X27406190Y-81475714D01*
X27310952Y-81523333D01*
X27739523Y-82094761D02*
X27644285Y-82142380D01*
X27406190Y-82142380D01*
X27310952Y-82094761D01*
X27263333Y-81999523D01*
X27263333Y-81904285D01*
X27310952Y-81809047D01*
X27406190Y-81761428D01*
X27644285Y-81761428D01*
X27739523Y-81713809D01*
X28644285Y-82094761D02*
X28549047Y-82142380D01*
X28358571Y-82142380D01*
X28263333Y-82094761D01*
X28215714Y-82047142D01*
X28168095Y-81951904D01*
X28168095Y-81666190D01*
X28215714Y-81570952D01*
X28263333Y-81523333D01*
X28358571Y-81475714D01*
X28549047Y-81475714D01*
X28644285Y-81523333D01*
X29072857Y-82142380D02*
X29072857Y-81142380D01*
X29168095Y-81761428D02*
X29453809Y-82142380D01*
X29453809Y-81475714D02*
X29072857Y-81856666D01*
X29834761Y-81237619D02*
X29882380Y-81190000D01*
X29977619Y-81142380D01*
X30215714Y-81142380D01*
X30310952Y-81190000D01*
X30358571Y-81237619D01*
X30406190Y-81332857D01*
X30406190Y-81428095D01*
X30358571Y-81570952D01*
X29787142Y-82142380D01*
X30406190Y-82142380D01*
%TO.C,J4*%
X47433809Y-56866666D02*
X47910000Y-56866666D01*
X47338571Y-57152380D02*
X47671904Y-56152380D01*
X48005238Y-57152380D01*
X48767142Y-56485714D02*
X48767142Y-57152380D01*
X48338571Y-56485714D02*
X48338571Y-57009523D01*
X48386190Y-57104761D01*
X48481428Y-57152380D01*
X48624285Y-57152380D01*
X48719523Y-57104761D01*
X48767142Y-57057142D01*
X49671904Y-57152380D02*
X49671904Y-56152380D01*
X49671904Y-57104761D02*
X49576666Y-57152380D01*
X49386190Y-57152380D01*
X49290952Y-57104761D01*
X49243333Y-57057142D01*
X49195714Y-56961904D01*
X49195714Y-56676190D01*
X49243333Y-56580952D01*
X49290952Y-56533333D01*
X49386190Y-56485714D01*
X49576666Y-56485714D01*
X49671904Y-56533333D01*
X50148095Y-57152380D02*
X50148095Y-56485714D01*
X50148095Y-56152380D02*
X50100476Y-56200000D01*
X50148095Y-56247619D01*
X50195714Y-56200000D01*
X50148095Y-56152380D01*
X50148095Y-56247619D01*
X50767142Y-57152380D02*
X50671904Y-57104761D01*
X50624285Y-57057142D01*
X50576666Y-56961904D01*
X50576666Y-56676190D01*
X50624285Y-56580952D01*
X50671904Y-56533333D01*
X50767142Y-56485714D01*
X50910000Y-56485714D01*
X51005238Y-56533333D01*
X51052857Y-56580952D01*
X51100476Y-56676190D01*
X51100476Y-56961904D01*
X51052857Y-57057142D01*
X51005238Y-57104761D01*
X50910000Y-57152380D01*
X50767142Y-57152380D01*
X51814761Y-56152380D02*
X51814761Y-56866666D01*
X51767142Y-57009523D01*
X51671904Y-57104761D01*
X51529047Y-57152380D01*
X51433809Y-57152380D01*
X52719523Y-57152380D02*
X52719523Y-56628571D01*
X52671904Y-56533333D01*
X52576666Y-56485714D01*
X52386190Y-56485714D01*
X52290952Y-56533333D01*
X52719523Y-57104761D02*
X52624285Y-57152380D01*
X52386190Y-57152380D01*
X52290952Y-57104761D01*
X52243333Y-57009523D01*
X52243333Y-56914285D01*
X52290952Y-56819047D01*
X52386190Y-56771428D01*
X52624285Y-56771428D01*
X52719523Y-56723809D01*
X53624285Y-57104761D02*
X53529047Y-57152380D01*
X53338571Y-57152380D01*
X53243333Y-57104761D01*
X53195714Y-57057142D01*
X53148095Y-56961904D01*
X53148095Y-56676190D01*
X53195714Y-56580952D01*
X53243333Y-56533333D01*
X53338571Y-56485714D01*
X53529047Y-56485714D01*
X53624285Y-56533333D01*
X54052857Y-57152380D02*
X54052857Y-56152380D01*
X54148095Y-56771428D02*
X54433809Y-57152380D01*
X54433809Y-56485714D02*
X54052857Y-56866666D01*
X54814761Y-56247619D02*
X54862380Y-56200000D01*
X54957619Y-56152380D01*
X55195714Y-56152380D01*
X55290952Y-56200000D01*
X55338571Y-56247619D01*
X55386190Y-56342857D01*
X55386190Y-56438095D01*
X55338571Y-56580952D01*
X54767142Y-57152380D01*
X55386190Y-57152380D01*
%TO.C,J5*%
X47453809Y-81846666D02*
X47930000Y-81846666D01*
X47358571Y-82132380D02*
X47691904Y-81132380D01*
X48025238Y-82132380D01*
X48787142Y-81465714D02*
X48787142Y-82132380D01*
X48358571Y-81465714D02*
X48358571Y-81989523D01*
X48406190Y-82084761D01*
X48501428Y-82132380D01*
X48644285Y-82132380D01*
X48739523Y-82084761D01*
X48787142Y-82037142D01*
X49691904Y-82132380D02*
X49691904Y-81132380D01*
X49691904Y-82084761D02*
X49596666Y-82132380D01*
X49406190Y-82132380D01*
X49310952Y-82084761D01*
X49263333Y-82037142D01*
X49215714Y-81941904D01*
X49215714Y-81656190D01*
X49263333Y-81560952D01*
X49310952Y-81513333D01*
X49406190Y-81465714D01*
X49596666Y-81465714D01*
X49691904Y-81513333D01*
X50168095Y-82132380D02*
X50168095Y-81465714D01*
X50168095Y-81132380D02*
X50120476Y-81180000D01*
X50168095Y-81227619D01*
X50215714Y-81180000D01*
X50168095Y-81132380D01*
X50168095Y-81227619D01*
X50787142Y-82132380D02*
X50691904Y-82084761D01*
X50644285Y-82037142D01*
X50596666Y-81941904D01*
X50596666Y-81656190D01*
X50644285Y-81560952D01*
X50691904Y-81513333D01*
X50787142Y-81465714D01*
X50930000Y-81465714D01*
X51025238Y-81513333D01*
X51072857Y-81560952D01*
X51120476Y-81656190D01*
X51120476Y-81941904D01*
X51072857Y-82037142D01*
X51025238Y-82084761D01*
X50930000Y-82132380D01*
X50787142Y-82132380D01*
X51834761Y-81132380D02*
X51834761Y-81846666D01*
X51787142Y-81989523D01*
X51691904Y-82084761D01*
X51549047Y-82132380D01*
X51453809Y-82132380D01*
X52739523Y-82132380D02*
X52739523Y-81608571D01*
X52691904Y-81513333D01*
X52596666Y-81465714D01*
X52406190Y-81465714D01*
X52310952Y-81513333D01*
X52739523Y-82084761D02*
X52644285Y-82132380D01*
X52406190Y-82132380D01*
X52310952Y-82084761D01*
X52263333Y-81989523D01*
X52263333Y-81894285D01*
X52310952Y-81799047D01*
X52406190Y-81751428D01*
X52644285Y-81751428D01*
X52739523Y-81703809D01*
X53644285Y-82084761D02*
X53549047Y-82132380D01*
X53358571Y-82132380D01*
X53263333Y-82084761D01*
X53215714Y-82037142D01*
X53168095Y-81941904D01*
X53168095Y-81656190D01*
X53215714Y-81560952D01*
X53263333Y-81513333D01*
X53358571Y-81465714D01*
X53549047Y-81465714D01*
X53644285Y-81513333D01*
X54072857Y-82132380D02*
X54072857Y-81132380D01*
X54168095Y-81751428D02*
X54453809Y-82132380D01*
X54453809Y-81465714D02*
X54072857Y-81846666D01*
X54834761Y-81227619D02*
X54882380Y-81180000D01*
X54977619Y-81132380D01*
X55215714Y-81132380D01*
X55310952Y-81180000D01*
X55358571Y-81227619D01*
X55406190Y-81322857D01*
X55406190Y-81418095D01*
X55358571Y-81560952D01*
X54787142Y-82132380D01*
X55406190Y-82132380D01*
%TO.C,J6*%
X34953809Y-39676666D02*
X35430000Y-39676666D01*
X34858571Y-39962380D02*
X35191904Y-38962380D01*
X35525238Y-39962380D01*
X36287142Y-39295714D02*
X36287142Y-39962380D01*
X35858571Y-39295714D02*
X35858571Y-39819523D01*
X35906190Y-39914761D01*
X36001428Y-39962380D01*
X36144285Y-39962380D01*
X36239523Y-39914761D01*
X36287142Y-39867142D01*
X37191904Y-39962380D02*
X37191904Y-38962380D01*
X37191904Y-39914761D02*
X37096666Y-39962380D01*
X36906190Y-39962380D01*
X36810952Y-39914761D01*
X36763333Y-39867142D01*
X36715714Y-39771904D01*
X36715714Y-39486190D01*
X36763333Y-39390952D01*
X36810952Y-39343333D01*
X36906190Y-39295714D01*
X37096666Y-39295714D01*
X37191904Y-39343333D01*
X37668095Y-39962380D02*
X37668095Y-39295714D01*
X37668095Y-38962380D02*
X37620476Y-39010000D01*
X37668095Y-39057619D01*
X37715714Y-39010000D01*
X37668095Y-38962380D01*
X37668095Y-39057619D01*
X38287142Y-39962380D02*
X38191904Y-39914761D01*
X38144285Y-39867142D01*
X38096666Y-39771904D01*
X38096666Y-39486190D01*
X38144285Y-39390952D01*
X38191904Y-39343333D01*
X38287142Y-39295714D01*
X38430000Y-39295714D01*
X38525238Y-39343333D01*
X38572857Y-39390952D01*
X38620476Y-39486190D01*
X38620476Y-39771904D01*
X38572857Y-39867142D01*
X38525238Y-39914761D01*
X38430000Y-39962380D01*
X38287142Y-39962380D01*
X39334761Y-38962380D02*
X39334761Y-39676666D01*
X39287142Y-39819523D01*
X39191904Y-39914761D01*
X39049047Y-39962380D01*
X38953809Y-39962380D01*
X40239523Y-39962380D02*
X40239523Y-39438571D01*
X40191904Y-39343333D01*
X40096666Y-39295714D01*
X39906190Y-39295714D01*
X39810952Y-39343333D01*
X40239523Y-39914761D02*
X40144285Y-39962380D01*
X39906190Y-39962380D01*
X39810952Y-39914761D01*
X39763333Y-39819523D01*
X39763333Y-39724285D01*
X39810952Y-39629047D01*
X39906190Y-39581428D01*
X40144285Y-39581428D01*
X40239523Y-39533809D01*
X41144285Y-39914761D02*
X41049047Y-39962380D01*
X40858571Y-39962380D01*
X40763333Y-39914761D01*
X40715714Y-39867142D01*
X40668095Y-39771904D01*
X40668095Y-39486190D01*
X40715714Y-39390952D01*
X40763333Y-39343333D01*
X40858571Y-39295714D01*
X41049047Y-39295714D01*
X41144285Y-39343333D01*
X41572857Y-39962380D02*
X41572857Y-38962380D01*
X41668095Y-39581428D02*
X41953809Y-39962380D01*
X41953809Y-39295714D02*
X41572857Y-39676666D01*
X42334761Y-39057619D02*
X42382380Y-39010000D01*
X42477619Y-38962380D01*
X42715714Y-38962380D01*
X42810952Y-39010000D01*
X42858571Y-39057619D01*
X42906190Y-39152857D01*
X42906190Y-39248095D01*
X42858571Y-39390952D01*
X42287142Y-39962380D01*
X42906190Y-39962380D01*
%TO.C,J7*%
X72453809Y-56856666D02*
X72930000Y-56856666D01*
X72358571Y-57142380D02*
X72691904Y-56142380D01*
X73025238Y-57142380D01*
X73787142Y-56475714D02*
X73787142Y-57142380D01*
X73358571Y-56475714D02*
X73358571Y-56999523D01*
X73406190Y-57094761D01*
X73501428Y-57142380D01*
X73644285Y-57142380D01*
X73739523Y-57094761D01*
X73787142Y-57047142D01*
X74691904Y-57142380D02*
X74691904Y-56142380D01*
X74691904Y-57094761D02*
X74596666Y-57142380D01*
X74406190Y-57142380D01*
X74310952Y-57094761D01*
X74263333Y-57047142D01*
X74215714Y-56951904D01*
X74215714Y-56666190D01*
X74263333Y-56570952D01*
X74310952Y-56523333D01*
X74406190Y-56475714D01*
X74596666Y-56475714D01*
X74691904Y-56523333D01*
X75168095Y-57142380D02*
X75168095Y-56475714D01*
X75168095Y-56142380D02*
X75120476Y-56190000D01*
X75168095Y-56237619D01*
X75215714Y-56190000D01*
X75168095Y-56142380D01*
X75168095Y-56237619D01*
X75787142Y-57142380D02*
X75691904Y-57094761D01*
X75644285Y-57047142D01*
X75596666Y-56951904D01*
X75596666Y-56666190D01*
X75644285Y-56570952D01*
X75691904Y-56523333D01*
X75787142Y-56475714D01*
X75930000Y-56475714D01*
X76025238Y-56523333D01*
X76072857Y-56570952D01*
X76120476Y-56666190D01*
X76120476Y-56951904D01*
X76072857Y-57047142D01*
X76025238Y-57094761D01*
X75930000Y-57142380D01*
X75787142Y-57142380D01*
X76834761Y-56142380D02*
X76834761Y-56856666D01*
X76787142Y-56999523D01*
X76691904Y-57094761D01*
X76549047Y-57142380D01*
X76453809Y-57142380D01*
X77739523Y-57142380D02*
X77739523Y-56618571D01*
X77691904Y-56523333D01*
X77596666Y-56475714D01*
X77406190Y-56475714D01*
X77310952Y-56523333D01*
X77739523Y-57094761D02*
X77644285Y-57142380D01*
X77406190Y-57142380D01*
X77310952Y-57094761D01*
X77263333Y-56999523D01*
X77263333Y-56904285D01*
X77310952Y-56809047D01*
X77406190Y-56761428D01*
X77644285Y-56761428D01*
X77739523Y-56713809D01*
X78644285Y-57094761D02*
X78549047Y-57142380D01*
X78358571Y-57142380D01*
X78263333Y-57094761D01*
X78215714Y-57047142D01*
X78168095Y-56951904D01*
X78168095Y-56666190D01*
X78215714Y-56570952D01*
X78263333Y-56523333D01*
X78358571Y-56475714D01*
X78549047Y-56475714D01*
X78644285Y-56523333D01*
X79072857Y-57142380D02*
X79072857Y-56142380D01*
X79168095Y-56761428D02*
X79453809Y-57142380D01*
X79453809Y-56475714D02*
X79072857Y-56856666D01*
X79834761Y-56237619D02*
X79882380Y-56190000D01*
X79977619Y-56142380D01*
X80215714Y-56142380D01*
X80310952Y-56190000D01*
X80358571Y-56237619D01*
X80406190Y-56332857D01*
X80406190Y-56428095D01*
X80358571Y-56570952D01*
X79787142Y-57142380D01*
X80406190Y-57142380D01*
%TO.C,J8*%
X72463809Y-81766666D02*
X72940000Y-81766666D01*
X72368571Y-82052380D02*
X72701904Y-81052380D01*
X73035238Y-82052380D01*
X73797142Y-81385714D02*
X73797142Y-82052380D01*
X73368571Y-81385714D02*
X73368571Y-81909523D01*
X73416190Y-82004761D01*
X73511428Y-82052380D01*
X73654285Y-82052380D01*
X73749523Y-82004761D01*
X73797142Y-81957142D01*
X74701904Y-82052380D02*
X74701904Y-81052380D01*
X74701904Y-82004761D02*
X74606666Y-82052380D01*
X74416190Y-82052380D01*
X74320952Y-82004761D01*
X74273333Y-81957142D01*
X74225714Y-81861904D01*
X74225714Y-81576190D01*
X74273333Y-81480952D01*
X74320952Y-81433333D01*
X74416190Y-81385714D01*
X74606666Y-81385714D01*
X74701904Y-81433333D01*
X75178095Y-82052380D02*
X75178095Y-81385714D01*
X75178095Y-81052380D02*
X75130476Y-81100000D01*
X75178095Y-81147619D01*
X75225714Y-81100000D01*
X75178095Y-81052380D01*
X75178095Y-81147619D01*
X75797142Y-82052380D02*
X75701904Y-82004761D01*
X75654285Y-81957142D01*
X75606666Y-81861904D01*
X75606666Y-81576190D01*
X75654285Y-81480952D01*
X75701904Y-81433333D01*
X75797142Y-81385714D01*
X75940000Y-81385714D01*
X76035238Y-81433333D01*
X76082857Y-81480952D01*
X76130476Y-81576190D01*
X76130476Y-81861904D01*
X76082857Y-81957142D01*
X76035238Y-82004761D01*
X75940000Y-82052380D01*
X75797142Y-82052380D01*
X76844761Y-81052380D02*
X76844761Y-81766666D01*
X76797142Y-81909523D01*
X76701904Y-82004761D01*
X76559047Y-82052380D01*
X76463809Y-82052380D01*
X77749523Y-82052380D02*
X77749523Y-81528571D01*
X77701904Y-81433333D01*
X77606666Y-81385714D01*
X77416190Y-81385714D01*
X77320952Y-81433333D01*
X77749523Y-82004761D02*
X77654285Y-82052380D01*
X77416190Y-82052380D01*
X77320952Y-82004761D01*
X77273333Y-81909523D01*
X77273333Y-81814285D01*
X77320952Y-81719047D01*
X77416190Y-81671428D01*
X77654285Y-81671428D01*
X77749523Y-81623809D01*
X78654285Y-82004761D02*
X78559047Y-82052380D01*
X78368571Y-82052380D01*
X78273333Y-82004761D01*
X78225714Y-81957142D01*
X78178095Y-81861904D01*
X78178095Y-81576190D01*
X78225714Y-81480952D01*
X78273333Y-81433333D01*
X78368571Y-81385714D01*
X78559047Y-81385714D01*
X78654285Y-81433333D01*
X79082857Y-82052380D02*
X79082857Y-81052380D01*
X79178095Y-81671428D02*
X79463809Y-82052380D01*
X79463809Y-81385714D02*
X79082857Y-81766666D01*
X79844761Y-81147619D02*
X79892380Y-81100000D01*
X79987619Y-81052380D01*
X80225714Y-81052380D01*
X80320952Y-81100000D01*
X80368571Y-81147619D01*
X80416190Y-81242857D01*
X80416190Y-81338095D01*
X80368571Y-81480952D01*
X79797142Y-82052380D01*
X80416190Y-82052380D01*
%TO.C,J9*%
X97463809Y-56866666D02*
X97940000Y-56866666D01*
X97368571Y-57152380D02*
X97701904Y-56152380D01*
X98035238Y-57152380D01*
X98797142Y-56485714D02*
X98797142Y-57152380D01*
X98368571Y-56485714D02*
X98368571Y-57009523D01*
X98416190Y-57104761D01*
X98511428Y-57152380D01*
X98654285Y-57152380D01*
X98749523Y-57104761D01*
X98797142Y-57057142D01*
X99701904Y-57152380D02*
X99701904Y-56152380D01*
X99701904Y-57104761D02*
X99606666Y-57152380D01*
X99416190Y-57152380D01*
X99320952Y-57104761D01*
X99273333Y-57057142D01*
X99225714Y-56961904D01*
X99225714Y-56676190D01*
X99273333Y-56580952D01*
X99320952Y-56533333D01*
X99416190Y-56485714D01*
X99606666Y-56485714D01*
X99701904Y-56533333D01*
X100178095Y-57152380D02*
X100178095Y-56485714D01*
X100178095Y-56152380D02*
X100130476Y-56200000D01*
X100178095Y-56247619D01*
X100225714Y-56200000D01*
X100178095Y-56152380D01*
X100178095Y-56247619D01*
X100797142Y-57152380D02*
X100701904Y-57104761D01*
X100654285Y-57057142D01*
X100606666Y-56961904D01*
X100606666Y-56676190D01*
X100654285Y-56580952D01*
X100701904Y-56533333D01*
X100797142Y-56485714D01*
X100940000Y-56485714D01*
X101035238Y-56533333D01*
X101082857Y-56580952D01*
X101130476Y-56676190D01*
X101130476Y-56961904D01*
X101082857Y-57057142D01*
X101035238Y-57104761D01*
X100940000Y-57152380D01*
X100797142Y-57152380D01*
X101844761Y-56152380D02*
X101844761Y-56866666D01*
X101797142Y-57009523D01*
X101701904Y-57104761D01*
X101559047Y-57152380D01*
X101463809Y-57152380D01*
X102749523Y-57152380D02*
X102749523Y-56628571D01*
X102701904Y-56533333D01*
X102606666Y-56485714D01*
X102416190Y-56485714D01*
X102320952Y-56533333D01*
X102749523Y-57104761D02*
X102654285Y-57152380D01*
X102416190Y-57152380D01*
X102320952Y-57104761D01*
X102273333Y-57009523D01*
X102273333Y-56914285D01*
X102320952Y-56819047D01*
X102416190Y-56771428D01*
X102654285Y-56771428D01*
X102749523Y-56723809D01*
X103654285Y-57104761D02*
X103559047Y-57152380D01*
X103368571Y-57152380D01*
X103273333Y-57104761D01*
X103225714Y-57057142D01*
X103178095Y-56961904D01*
X103178095Y-56676190D01*
X103225714Y-56580952D01*
X103273333Y-56533333D01*
X103368571Y-56485714D01*
X103559047Y-56485714D01*
X103654285Y-56533333D01*
X104082857Y-57152380D02*
X104082857Y-56152380D01*
X104178095Y-56771428D02*
X104463809Y-57152380D01*
X104463809Y-56485714D02*
X104082857Y-56866666D01*
X104844761Y-56247619D02*
X104892380Y-56200000D01*
X104987619Y-56152380D01*
X105225714Y-56152380D01*
X105320952Y-56200000D01*
X105368571Y-56247619D01*
X105416190Y-56342857D01*
X105416190Y-56438095D01*
X105368571Y-56580952D01*
X104797142Y-57152380D01*
X105416190Y-57152380D01*
%TO.C,J10*%
X97453809Y-81856666D02*
X97930000Y-81856666D01*
X97358571Y-82142380D02*
X97691904Y-81142380D01*
X98025238Y-82142380D01*
X98787142Y-81475714D02*
X98787142Y-82142380D01*
X98358571Y-81475714D02*
X98358571Y-81999523D01*
X98406190Y-82094761D01*
X98501428Y-82142380D01*
X98644285Y-82142380D01*
X98739523Y-82094761D01*
X98787142Y-82047142D01*
X99691904Y-82142380D02*
X99691904Y-81142380D01*
X99691904Y-82094761D02*
X99596666Y-82142380D01*
X99406190Y-82142380D01*
X99310952Y-82094761D01*
X99263333Y-82047142D01*
X99215714Y-81951904D01*
X99215714Y-81666190D01*
X99263333Y-81570952D01*
X99310952Y-81523333D01*
X99406190Y-81475714D01*
X99596666Y-81475714D01*
X99691904Y-81523333D01*
X100168095Y-82142380D02*
X100168095Y-81475714D01*
X100168095Y-81142380D02*
X100120476Y-81190000D01*
X100168095Y-81237619D01*
X100215714Y-81190000D01*
X100168095Y-81142380D01*
X100168095Y-81237619D01*
X100787142Y-82142380D02*
X100691904Y-82094761D01*
X100644285Y-82047142D01*
X100596666Y-81951904D01*
X100596666Y-81666190D01*
X100644285Y-81570952D01*
X100691904Y-81523333D01*
X100787142Y-81475714D01*
X100930000Y-81475714D01*
X101025238Y-81523333D01*
X101072857Y-81570952D01*
X101120476Y-81666190D01*
X101120476Y-81951904D01*
X101072857Y-82047142D01*
X101025238Y-82094761D01*
X100930000Y-82142380D01*
X100787142Y-82142380D01*
X101834761Y-81142380D02*
X101834761Y-81856666D01*
X101787142Y-81999523D01*
X101691904Y-82094761D01*
X101549047Y-82142380D01*
X101453809Y-82142380D01*
X102739523Y-82142380D02*
X102739523Y-81618571D01*
X102691904Y-81523333D01*
X102596666Y-81475714D01*
X102406190Y-81475714D01*
X102310952Y-81523333D01*
X102739523Y-82094761D02*
X102644285Y-82142380D01*
X102406190Y-82142380D01*
X102310952Y-82094761D01*
X102263333Y-81999523D01*
X102263333Y-81904285D01*
X102310952Y-81809047D01*
X102406190Y-81761428D01*
X102644285Y-81761428D01*
X102739523Y-81713809D01*
X103644285Y-82094761D02*
X103549047Y-82142380D01*
X103358571Y-82142380D01*
X103263333Y-82094761D01*
X103215714Y-82047142D01*
X103168095Y-81951904D01*
X103168095Y-81666190D01*
X103215714Y-81570952D01*
X103263333Y-81523333D01*
X103358571Y-81475714D01*
X103549047Y-81475714D01*
X103644285Y-81523333D01*
X104072857Y-82142380D02*
X104072857Y-81142380D01*
X104168095Y-81761428D02*
X104453809Y-82142380D01*
X104453809Y-81475714D02*
X104072857Y-81856666D01*
X104834761Y-81237619D02*
X104882380Y-81190000D01*
X104977619Y-81142380D01*
X105215714Y-81142380D01*
X105310952Y-81190000D01*
X105358571Y-81237619D01*
X105406190Y-81332857D01*
X105406190Y-81428095D01*
X105358571Y-81570952D01*
X104787142Y-82142380D01*
X105406190Y-82142380D01*
%TD*%
M02*
