%TF.GenerationSoftware,KiCad,Pcbnew,(5.1.9)-1*%
%TF.CreationDate,2021-09-12T20:22:20+01:00*%
%TF.ProjectId,KOSMOS LFO6,4b4f534d-4f53-4204-9c46-4f362e6b6963,rev?*%
%TF.SameCoordinates,Original*%
%TF.FileFunction,Other,User*%
%FSLAX46Y46*%
G04 Gerber Fmt 4.6, Leading zero omitted, Abs format (unit mm)*
G04 Created by KiCad (PCBNEW (5.1.9)-1) date 2021-09-12 20:22:20*
%MOMM*%
%LPD*%
G01*
G04 APERTURE LIST*
%TA.AperFunction,Profile*%
%ADD10C,0.050000*%
%TD*%
%ADD11C,0.050000*%
G04 APERTURE END LIST*
D10*
X50368000Y-127195000D02*
X48463000Y-124782000D01*
X83896000Y-131386000D02*
X80340000Y-135000000D01*
X83896000Y-124909000D02*
X83896000Y-131386000D01*
X116027000Y-124909000D02*
X83896000Y-124909000D01*
X50368000Y-131386000D02*
X54051000Y-135000000D01*
X50368000Y-127195000D02*
X50368000Y-131386000D01*
X19888000Y-124782000D02*
X48463000Y-124782000D01*
X54051000Y-135000000D02*
X80340000Y-135000000D01*
X20000000Y-20000000D02*
X116000000Y-20000000D01*
X116000000Y-20000000D02*
X116027000Y-124909000D01*
X20000000Y-20000000D02*
X19888000Y-124782000D01*
D11*
%TO.C,R17*%
X84555000Y-39150000D02*
X87555000Y-39150000D01*
X87555000Y-39150000D02*
X87555000Y-51410000D01*
X87555000Y-51410000D02*
X84555000Y-51410000D01*
X84555000Y-51410000D02*
X84555000Y-39150000D01*
%TO.C,C1*%
X61200000Y-64630000D02*
X61200000Y-71730000D01*
X56300000Y-64630000D02*
X61200000Y-64630000D01*
X56300000Y-71730000D02*
X56300000Y-64630000D01*
X61200000Y-71730000D02*
X56300000Y-71730000D01*
%TO.C,C2*%
X64245000Y-46005000D02*
X64245000Y-50905000D01*
X64245000Y-50905000D02*
X57145000Y-50905000D01*
X57145000Y-50905000D02*
X57145000Y-46005000D01*
X57145000Y-46005000D02*
X64245000Y-46005000D01*
%TO.C,C3*%
X63405000Y-37660000D02*
G75*
G03*
X63405000Y-37660000I-4000000J0D01*
G01*
%TO.C,C4*%
X32885000Y-91000000D02*
G75*
G03*
X32885000Y-91000000I-4000000J0D01*
G01*
%TO.C,C5*%
X61200000Y-110985000D02*
X61200000Y-118085000D01*
X56300000Y-110985000D02*
X61200000Y-110985000D01*
X56300000Y-118085000D02*
X56300000Y-110985000D01*
X61200000Y-118085000D02*
X56300000Y-118085000D01*
%TO.C,C6*%
X63610000Y-91090000D02*
X63610000Y-95990000D01*
X63610000Y-95990000D02*
X56510000Y-95990000D01*
X56510000Y-95990000D02*
X56510000Y-91090000D01*
X56510000Y-91090000D02*
X63610000Y-91090000D01*
%TO.C,C7*%
X73135000Y-46005000D02*
X73135000Y-50905000D01*
X73135000Y-50905000D02*
X66035000Y-50905000D01*
X66035000Y-50905000D02*
X66035000Y-46005000D01*
X66035000Y-46005000D02*
X73135000Y-46005000D01*
%TO.C,C8*%
X74405000Y-87280000D02*
X74405000Y-92180000D01*
X74405000Y-92180000D02*
X67305000Y-92180000D01*
X67305000Y-92180000D02*
X67305000Y-87280000D01*
X67305000Y-87280000D02*
X74405000Y-87280000D01*
%TO.C,C9*%
X75350000Y-50695000D02*
X75350000Y-43595000D01*
X80250000Y-50695000D02*
X75350000Y-50695000D01*
X80250000Y-43595000D02*
X80250000Y-50695000D01*
X75350000Y-43595000D02*
X80250000Y-43595000D01*
%TO.C,C10*%
X92950000Y-73000000D02*
X88050000Y-73000000D01*
X88050000Y-73000000D02*
X88050000Y-65900000D01*
X88050000Y-65900000D02*
X92950000Y-65900000D01*
X92950000Y-65900000D02*
X92950000Y-73000000D01*
%TO.C,C11*%
X76620000Y-97050000D02*
X76620000Y-89950000D01*
X81520000Y-97050000D02*
X76620000Y-97050000D01*
X81520000Y-89950000D02*
X81520000Y-97050000D01*
X76620000Y-89950000D02*
X81520000Y-89950000D01*
%TO.C,C12*%
X99935000Y-118085000D02*
X95035000Y-118085000D01*
X95035000Y-118085000D02*
X95035000Y-110985000D01*
X95035000Y-110985000D02*
X99935000Y-110985000D01*
X99935000Y-110985000D02*
X99935000Y-118085000D01*
%TO.C,C13*%
X48370000Y-28860000D02*
X48370000Y-33760000D01*
X48370000Y-33760000D02*
X41270000Y-33760000D01*
X41270000Y-33760000D02*
X41270000Y-28860000D01*
X41270000Y-28860000D02*
X48370000Y-28860000D01*
%TO.C,C14*%
X41270000Y-33940000D02*
X48370000Y-33940000D01*
X41270000Y-38840000D02*
X41270000Y-33940000D01*
X48370000Y-38840000D02*
X41270000Y-38840000D01*
X48370000Y-33940000D02*
X48370000Y-38840000D01*
%TO.C,C15*%
X35425000Y-71950000D02*
G75*
G03*
X35425000Y-71950000I-4000000J0D01*
G01*
%TO.C,C16*%
X35425000Y-117670000D02*
G75*
G03*
X35425000Y-117670000I-4000000J0D01*
G01*
%TO.C,C17*%
X64765000Y-72040000D02*
X71865000Y-72040000D01*
X64765000Y-76940000D02*
X64765000Y-72040000D01*
X71865000Y-76940000D02*
X64765000Y-76940000D01*
X71865000Y-72040000D02*
X71865000Y-76940000D01*
%TO.C,C18*%
X66670000Y-119030000D02*
X73770000Y-119030000D01*
X66670000Y-123930000D02*
X66670000Y-119030000D01*
X73770000Y-123930000D02*
X66670000Y-123930000D01*
X73770000Y-119030000D02*
X73770000Y-123930000D01*
%TO.C,C19*%
X77990000Y-24345000D02*
G75*
G03*
X77990000Y-24345000I-4000000J0D01*
G01*
%TO.C,C20*%
X68465000Y-24305000D02*
G75*
G03*
X68465000Y-24305000I-4000000J0D01*
G01*
%TO.C,D1*%
X42855000Y-51410000D02*
X40355000Y-51410000D01*
X40355000Y-51410000D02*
X40355000Y-41690000D01*
X40355000Y-41690000D02*
X42855000Y-41690000D01*
X42855000Y-41690000D02*
X42855000Y-51410000D01*
%TO.C,D2*%
X42895000Y-51410000D02*
X42895000Y-41690000D01*
X45395000Y-51410000D02*
X42895000Y-51410000D01*
X45395000Y-41690000D02*
X45395000Y-51410000D01*
X42895000Y-41690000D02*
X45395000Y-41690000D01*
%TO.C,D3*%
X46030000Y-86775000D02*
X46030000Y-96495000D01*
X43530000Y-86775000D02*
X46030000Y-86775000D01*
X43530000Y-96495000D02*
X43530000Y-86775000D01*
X46030000Y-96495000D02*
X43530000Y-96495000D01*
%TO.C,D4*%
X40990000Y-86775000D02*
X43490000Y-86775000D01*
X43490000Y-86775000D02*
X43490000Y-96495000D01*
X43490000Y-96495000D02*
X40990000Y-96495000D01*
X40990000Y-96495000D02*
X40990000Y-86775000D01*
%TO.C,D6*%
X43530000Y-64550000D02*
X46030000Y-64550000D01*
X46030000Y-64550000D02*
X46030000Y-74270000D01*
X46030000Y-74270000D02*
X43530000Y-74270000D01*
X43530000Y-74270000D02*
X43530000Y-64550000D01*
%TO.C,D7*%
X43490000Y-64550000D02*
X43490000Y-74270000D01*
X40990000Y-64550000D02*
X43490000Y-64550000D01*
X40990000Y-74270000D02*
X40990000Y-64550000D01*
X43490000Y-74270000D02*
X40990000Y-74270000D01*
%TO.C,D8*%
X43530000Y-120625000D02*
X43530000Y-110905000D01*
X46030000Y-120625000D02*
X43530000Y-120625000D01*
X46030000Y-110905000D02*
X46030000Y-120625000D01*
X43530000Y-110905000D02*
X46030000Y-110905000D01*
%TO.C,D9*%
X43490000Y-120625000D02*
X40990000Y-120625000D01*
X40990000Y-120625000D02*
X40990000Y-110905000D01*
X40990000Y-110905000D02*
X43490000Y-110905000D01*
X43490000Y-110905000D02*
X43490000Y-120625000D01*
%TO.C,D12*%
X80260000Y-23385000D02*
X80260000Y-20185000D01*
X80260000Y-20185000D02*
X95660000Y-20185000D01*
X95660000Y-20185000D02*
X95660000Y-23385000D01*
X95660000Y-23385000D02*
X80260000Y-23385000D01*
%TO.C,D13*%
X61210000Y-30345000D02*
X76610000Y-30345000D01*
X61210000Y-33545000D02*
X61210000Y-30345000D01*
X76610000Y-33545000D02*
X61210000Y-33545000D01*
X76610000Y-30345000D02*
X76610000Y-33545000D01*
%TO.C,J1*%
X77915000Y-37530000D02*
X77915000Y-27630000D01*
X99275000Y-37530000D02*
X77915000Y-37530000D01*
X99275000Y-27630000D02*
X99275000Y-37530000D01*
X77915000Y-27630000D02*
X99275000Y-27630000D01*
%TO.C,Q1*%
X113735000Y-20325000D02*
X106635000Y-20325000D01*
X113735000Y-20325000D02*
X113735000Y-25065000D01*
X106635000Y-25065000D02*
X106635000Y-20325000D01*
X106635000Y-25065000D02*
X113735000Y-25065000D01*
%TO.C,Q2*%
X48215000Y-82850000D02*
X55315000Y-82850000D01*
X48215000Y-82850000D02*
X48215000Y-78110000D01*
X55315000Y-78110000D02*
X55315000Y-82850000D01*
X55315000Y-78110000D02*
X48215000Y-78110000D01*
%TO.C,Q3*%
X64840000Y-86365000D02*
X57740000Y-86365000D01*
X64840000Y-86365000D02*
X64840000Y-91105000D01*
X57740000Y-91105000D02*
X57740000Y-86365000D01*
X57740000Y-91105000D02*
X64840000Y-91105000D01*
%TO.C,Q4*%
X106115000Y-66130000D02*
X99015000Y-66130000D01*
X106115000Y-66130000D02*
X106115000Y-70870000D01*
X99015000Y-70870000D02*
X99015000Y-66130000D01*
X99015000Y-70870000D02*
X106115000Y-70870000D01*
%TO.C,R1*%
X39295000Y-32995000D02*
X36295000Y-32995000D01*
X36295000Y-32995000D02*
X36295000Y-20735000D01*
X36295000Y-20735000D02*
X39295000Y-20735000D01*
X39295000Y-20735000D02*
X39295000Y-32995000D01*
%TO.C,R2*%
X27220000Y-47590000D02*
X39480000Y-47590000D01*
X27220000Y-50590000D02*
X27220000Y-47590000D01*
X39480000Y-50590000D02*
X27220000Y-50590000D01*
X39480000Y-47590000D02*
X39480000Y-50590000D01*
%TO.C,R3*%
X40565000Y-84134999D02*
X40565000Y-96394999D01*
X37565000Y-84134999D02*
X40565000Y-84134999D01*
X37565000Y-96394999D02*
X37565000Y-84134999D01*
X40565000Y-96394999D02*
X37565000Y-96394999D01*
%TO.C,R4*%
X48820000Y-51410000D02*
X45820000Y-51410000D01*
X45820000Y-51410000D02*
X45820000Y-39150000D01*
X45820000Y-39150000D02*
X48820000Y-39150000D01*
X48820000Y-39150000D02*
X48820000Y-51410000D01*
%TO.C,R5*%
X49455000Y-96495000D02*
X46455000Y-96495000D01*
X46455000Y-96495000D02*
X46455000Y-84235000D01*
X46455000Y-84235000D02*
X49455000Y-84235000D01*
X49455000Y-84235000D02*
X49455000Y-96495000D01*
%TO.C,R6*%
X48995000Y-39150000D02*
X51995000Y-39150000D01*
X51995000Y-39150000D02*
X51995000Y-51410000D01*
X51995000Y-51410000D02*
X48995000Y-51410000D01*
X48995000Y-51410000D02*
X48995000Y-39150000D01*
%TO.C,R7*%
X49630000Y-96495000D02*
X49630000Y-84235000D01*
X52630000Y-96495000D02*
X49630000Y-96495000D01*
X52630000Y-84235000D02*
X52630000Y-96495000D01*
X49630000Y-84235000D02*
X52630000Y-84235000D01*
%TO.C,R8*%
X32945000Y-20735000D02*
X32945000Y-32995000D01*
X29945000Y-20735000D02*
X32945000Y-20735000D01*
X29945000Y-32995000D02*
X29945000Y-20735000D01*
X32945000Y-32995000D02*
X29945000Y-32995000D01*
%TO.C,R9*%
X52170000Y-39150000D02*
X55170000Y-39150000D01*
X55170000Y-39150000D02*
X55170000Y-51410000D01*
X55170000Y-51410000D02*
X52170000Y-51410000D01*
X52170000Y-51410000D02*
X52170000Y-39150000D01*
%TO.C,R10*%
X52805000Y-84235000D02*
X55805000Y-84235000D01*
X55805000Y-84235000D02*
X55805000Y-96495000D01*
X55805000Y-96495000D02*
X52805000Y-96495000D01*
X52805000Y-96495000D02*
X52805000Y-84235000D01*
%TO.C,R12*%
X57065000Y-42510000D02*
X69325000Y-42510000D01*
X57065000Y-45510000D02*
X57065000Y-42510000D01*
X69325000Y-45510000D02*
X57065000Y-45510000D01*
X69325000Y-42510000D02*
X69325000Y-45510000D01*
%TO.C,R13*%
X76310000Y-92675000D02*
X76310000Y-95675000D01*
X76310000Y-95675000D02*
X64050000Y-95675000D01*
X64050000Y-95675000D02*
X64050000Y-92675000D01*
X64050000Y-92675000D02*
X76310000Y-92675000D01*
%TO.C,R14*%
X36120000Y-32995000D02*
X33120000Y-32995000D01*
X33120000Y-32995000D02*
X33120000Y-20735000D01*
X33120000Y-20735000D02*
X36120000Y-20735000D01*
X36120000Y-20735000D02*
X36120000Y-32995000D01*
%TO.C,R15*%
X26770000Y-32995000D02*
X26770000Y-20735000D01*
X29770000Y-32995000D02*
X26770000Y-32995000D01*
X29770000Y-20735000D02*
X29770000Y-32995000D01*
X26770000Y-20735000D02*
X29770000Y-20735000D01*
%TO.C,R16*%
X90730000Y-39150000D02*
X90730000Y-51410000D01*
X87730000Y-39150000D02*
X90730000Y-39150000D01*
X87730000Y-51410000D02*
X87730000Y-39150000D01*
X90730000Y-51410000D02*
X87730000Y-51410000D01*
%TO.C,R18*%
X88190000Y-84870000D02*
X88190000Y-97130000D01*
X85190000Y-84870000D02*
X88190000Y-84870000D01*
X85190000Y-97130000D02*
X85190000Y-84870000D01*
X88190000Y-97130000D02*
X85190000Y-97130000D01*
%TO.C,R19*%
X91365000Y-97130000D02*
X88365000Y-97130000D01*
X88365000Y-97130000D02*
X88365000Y-84870000D01*
X88365000Y-84870000D02*
X91365000Y-84870000D01*
X91365000Y-84870000D02*
X91365000Y-97130000D01*
%TO.C,R20*%
X26595000Y-20735000D02*
X26595000Y-32995000D01*
X23595000Y-20735000D02*
X26595000Y-20735000D01*
X23595000Y-32995000D02*
X23595000Y-20735000D01*
X26595000Y-32995000D02*
X23595000Y-32995000D01*
%TO.C,R21*%
X90905000Y-39150000D02*
X93905000Y-39150000D01*
X93905000Y-39150000D02*
X93905000Y-51410000D01*
X93905000Y-51410000D02*
X90905000Y-51410000D01*
X90905000Y-51410000D02*
X90905000Y-39150000D01*
%TO.C,R22*%
X94540000Y-84870000D02*
X94540000Y-97130000D01*
X91540000Y-84870000D02*
X94540000Y-84870000D01*
X91540000Y-97130000D02*
X91540000Y-84870000D01*
X94540000Y-97130000D02*
X91540000Y-97130000D01*
%TO.C,R23*%
X94080000Y-51410000D02*
X94080000Y-39150000D01*
X97080000Y-51410000D02*
X94080000Y-51410000D01*
X97080000Y-39150000D02*
X97080000Y-51410000D01*
X94080000Y-39150000D02*
X97080000Y-39150000D01*
%TO.C,R24*%
X81380000Y-39150000D02*
X84380000Y-39150000D01*
X84380000Y-39150000D02*
X84380000Y-51410000D01*
X84380000Y-51410000D02*
X81380000Y-51410000D01*
X81380000Y-51410000D02*
X81380000Y-39150000D01*
%TO.C,R25*%
X94715000Y-84870000D02*
X97715000Y-84870000D01*
X97715000Y-84870000D02*
X97715000Y-97130000D01*
X97715000Y-97130000D02*
X94715000Y-97130000D01*
X94715000Y-97130000D02*
X94715000Y-84870000D01*
%TO.C,R26*%
X82015000Y-97130000D02*
X82015000Y-84870000D01*
X85015000Y-97130000D02*
X82015000Y-97130000D01*
X85015000Y-84870000D02*
X85015000Y-97130000D01*
X82015000Y-84870000D02*
X85015000Y-84870000D01*
%TO.C,R27*%
X113775000Y-25365000D02*
X113775000Y-28365000D01*
X113775000Y-28365000D02*
X101515000Y-28365000D01*
X101515000Y-28365000D02*
X101515000Y-25365000D01*
X101515000Y-25365000D02*
X113775000Y-25365000D01*
%TO.C,R28*%
X113775000Y-32175000D02*
X101515000Y-32175000D01*
X113775000Y-29175000D02*
X113775000Y-32175000D01*
X101515000Y-29175000D02*
X113775000Y-29175000D01*
X101515000Y-32175000D02*
X101515000Y-29175000D01*
%TO.C,R29*%
X37565000Y-64550000D02*
X40565000Y-64550000D01*
X40565000Y-64550000D02*
X40565000Y-76810000D01*
X40565000Y-76810000D02*
X37565000Y-76810000D01*
X37565000Y-76810000D02*
X37565000Y-64550000D01*
%TO.C,R30*%
X37565000Y-110905000D02*
X40565000Y-110905000D01*
X40565000Y-110905000D02*
X40565000Y-123165000D01*
X40565000Y-123165000D02*
X37565000Y-123165000D01*
X37565000Y-123165000D02*
X37565000Y-110905000D01*
%TO.C,R31*%
X46455000Y-76810000D02*
X46455000Y-64550000D01*
X49455000Y-76810000D02*
X46455000Y-76810000D01*
X49455000Y-64550000D02*
X49455000Y-76810000D01*
X46455000Y-64550000D02*
X49455000Y-64550000D01*
%TO.C,R32*%
X46455000Y-110905000D02*
X49455000Y-110905000D01*
X49455000Y-110905000D02*
X49455000Y-123165000D01*
X49455000Y-123165000D02*
X46455000Y-123165000D01*
X46455000Y-123165000D02*
X46455000Y-110905000D01*
%TO.C,R33*%
X47100000Y-83610000D02*
X34840000Y-83610000D01*
X47100000Y-80610000D02*
X47100000Y-83610000D01*
X34840000Y-80610000D02*
X47100000Y-80610000D01*
X34840000Y-83610000D02*
X34840000Y-80610000D01*
%TO.C,R34*%
X52630000Y-76810000D02*
X49630000Y-76810000D01*
X49630000Y-76810000D02*
X49630000Y-64550000D01*
X49630000Y-64550000D02*
X52630000Y-64550000D01*
X52630000Y-64550000D02*
X52630000Y-76810000D01*
%TO.C,R35*%
X52630000Y-110905000D02*
X52630000Y-123165000D01*
X49630000Y-110905000D02*
X52630000Y-110905000D01*
X49630000Y-123165000D02*
X49630000Y-110905000D01*
X52630000Y-123165000D02*
X49630000Y-123165000D01*
%TO.C,R36*%
X34840000Y-80435000D02*
X34840000Y-77435000D01*
X34840000Y-77435000D02*
X47100000Y-77435000D01*
X47100000Y-77435000D02*
X47100000Y-80435000D01*
X47100000Y-80435000D02*
X34840000Y-80435000D01*
%TO.C,R37*%
X55805000Y-64550000D02*
X55805000Y-76810000D01*
X52805000Y-64550000D02*
X55805000Y-64550000D01*
X52805000Y-76810000D02*
X52805000Y-64550000D01*
X55805000Y-76810000D02*
X52805000Y-76810000D01*
%TO.C,R38*%
X55805000Y-123165000D02*
X52805000Y-123165000D01*
X52805000Y-123165000D02*
X52805000Y-110905000D01*
X52805000Y-110905000D02*
X55805000Y-110905000D01*
X55805000Y-110905000D02*
X55805000Y-123165000D01*
%TO.C,R39*%
X63425000Y-72170000D02*
X63425000Y-84430000D01*
X60425000Y-72170000D02*
X63425000Y-72170000D01*
X60425000Y-84430000D02*
X60425000Y-72170000D01*
X63425000Y-84430000D02*
X60425000Y-84430000D01*
%TO.C,R40*%
X62145000Y-67910000D02*
X74405000Y-67910000D01*
X62145000Y-70910000D02*
X62145000Y-67910000D01*
X74405000Y-70910000D02*
X62145000Y-70910000D01*
X74405000Y-67910000D02*
X74405000Y-70910000D01*
%TO.C,R41*%
X73770000Y-115535000D02*
X73770000Y-118535000D01*
X73770000Y-118535000D02*
X61510000Y-118535000D01*
X61510000Y-118535000D02*
X61510000Y-115535000D01*
X61510000Y-115535000D02*
X73770000Y-115535000D01*
%TO.C,R42*%
X59615000Y-72170000D02*
X59615000Y-84430000D01*
X56615000Y-72170000D02*
X59615000Y-72170000D01*
X56615000Y-84430000D02*
X56615000Y-72170000D01*
X59615000Y-84430000D02*
X56615000Y-84430000D01*
%TO.C,R43*%
X84555000Y-63915000D02*
X87555000Y-63915000D01*
X87555000Y-63915000D02*
X87555000Y-76175000D01*
X87555000Y-76175000D02*
X84555000Y-76175000D01*
X84555000Y-76175000D02*
X84555000Y-63915000D01*
%TO.C,R44*%
X81380000Y-76175000D02*
X81380000Y-63915000D01*
X84380000Y-76175000D02*
X81380000Y-76175000D01*
X84380000Y-63915000D02*
X84380000Y-76175000D01*
X81380000Y-63915000D02*
X84380000Y-63915000D01*
%TO.C,R45*%
X87095000Y-123165000D02*
X87095000Y-110905000D01*
X90095000Y-123165000D02*
X87095000Y-123165000D01*
X90095000Y-110905000D02*
X90095000Y-123165000D01*
X87095000Y-110905000D02*
X90095000Y-110905000D01*
%TO.C,R46*%
X83920000Y-110905000D02*
X86920000Y-110905000D01*
X86920000Y-110905000D02*
X86920000Y-123165000D01*
X86920000Y-123165000D02*
X83920000Y-123165000D01*
X83920000Y-123165000D02*
X83920000Y-110905000D01*
%TO.C,R47*%
X97705000Y-74260000D02*
X109965000Y-74260000D01*
X97705000Y-77260000D02*
X97705000Y-74260000D01*
X109965000Y-77260000D02*
X97705000Y-77260000D01*
X109965000Y-74260000D02*
X109965000Y-77260000D01*
%TO.C,R48*%
X78205000Y-76175000D02*
X78205000Y-63915000D01*
X81205000Y-76175000D02*
X78205000Y-76175000D01*
X81205000Y-63915000D02*
X81205000Y-76175000D01*
X78205000Y-63915000D02*
X81205000Y-63915000D01*
%TO.C,R49*%
X80745000Y-110905000D02*
X83745000Y-110905000D01*
X83745000Y-110905000D02*
X83745000Y-123165000D01*
X83745000Y-123165000D02*
X80745000Y-123165000D01*
X80745000Y-123165000D02*
X80745000Y-110905000D01*
%TO.C,R50*%
X97705000Y-74085000D02*
X97705000Y-71085000D01*
X97705000Y-71085000D02*
X109965000Y-71085000D01*
X109965000Y-71085000D02*
X109965000Y-74085000D01*
X109965000Y-74085000D02*
X97705000Y-74085000D01*
%TO.C,R51*%
X78030000Y-76175000D02*
X75030000Y-76175000D01*
X75030000Y-76175000D02*
X75030000Y-63915000D01*
X75030000Y-63915000D02*
X78030000Y-63915000D01*
X78030000Y-63915000D02*
X78030000Y-76175000D01*
%TO.C,R52*%
X87105000Y-80435000D02*
X74845000Y-80435000D01*
X87105000Y-77435000D02*
X87105000Y-80435000D01*
X74845000Y-77435000D02*
X87105000Y-77435000D01*
X74845000Y-80435000D02*
X74845000Y-77435000D01*
%TO.C,R53*%
X80570000Y-110905000D02*
X80570000Y-123165000D01*
X77570000Y-110905000D02*
X80570000Y-110905000D01*
X77570000Y-123165000D02*
X77570000Y-110905000D01*
X80570000Y-123165000D02*
X77570000Y-123165000D01*
%TO.C,R54*%
X93905000Y-110905000D02*
X93905000Y-123165000D01*
X90905000Y-110905000D02*
X93905000Y-110905000D01*
X90905000Y-123165000D02*
X90905000Y-110905000D01*
X93905000Y-123165000D02*
X90905000Y-123165000D01*
%TO.C,RV8*%
X51725000Y-27160000D02*
X41625000Y-27160000D01*
X51725000Y-20510000D02*
X51725000Y-27160000D01*
X41625000Y-20510000D02*
X51725000Y-20510000D01*
X41625000Y-27160000D02*
X41625000Y-20510000D01*
%TO.C,U1*%
X38150000Y-63270000D02*
X38150000Y-52720000D01*
X59000000Y-63270000D02*
X38150000Y-63270000D01*
X59000000Y-52720000D02*
X59000000Y-63270000D01*
X38150000Y-52720000D02*
X59000000Y-52720000D01*
%TO.C,U2*%
X38150000Y-97805000D02*
X59000000Y-97805000D01*
X59000000Y-97805000D02*
X59000000Y-108355000D01*
X59000000Y-108355000D02*
X38150000Y-108355000D01*
X38150000Y-108355000D02*
X38150000Y-97805000D01*
%TO.C,U3*%
X78155000Y-63270000D02*
X78155000Y-52720000D01*
X96505000Y-63270000D02*
X78155000Y-63270000D01*
X96505000Y-52720000D02*
X96505000Y-63270000D01*
X78155000Y-52720000D02*
X96505000Y-52720000D01*
%TO.C,U4*%
X78155000Y-108990000D02*
X78155000Y-98440000D01*
X96505000Y-108990000D02*
X78155000Y-108990000D01*
X96505000Y-98440000D02*
X96505000Y-108990000D01*
X78155000Y-98440000D02*
X96505000Y-98440000D01*
%TO.C,U5*%
X21005000Y-34305000D02*
X39355000Y-34305000D01*
X39355000Y-34305000D02*
X39355000Y-44855000D01*
X39355000Y-44855000D02*
X21005000Y-44855000D01*
X21005000Y-44855000D02*
X21005000Y-34305000D01*
%TD*%
M02*
