M48
; DRILL file {KiCad (5.1.9)-1} date 09/12/21 20:22:24
; FORMAT={-:-/ absolute / inch / decimal}
; #@! TF.CreationDate,2021-09-12T20:22:24+01:00
; #@! TF.GenerationSoftware,Kicad,Pcbnew,(5.1.9)-1
; #@! TF.FileFunction,Plated,1,2,PTH
FMAT,2
INCH
T1C0.0157
T2C0.0315
T3C0.0354
T4C0.0394
T5C0.0433
T6C0.0709
%
G90
G05
T1
X1.663Y-3.1577
X1.663Y-3.3077
X1.763Y-1.2827
X1.813Y-1.3327
X1.938Y-4.6327
X1.988Y-1.3327
X2.013Y-1.2077
X2.013Y-1.4577
X2.0132Y-4.5829
X2.113Y-1.4327
X2.238Y-3.0827
X2.363Y-1.8077
X2.413Y-1.7327
X2.5124Y-4.2274
X2.638Y-4.1327
X2.863Y-3.2577
X2.963Y-2.3327
X2.988Y-2.0327
X2.988Y-2.4077
X3.038Y-3.2577
X3.088Y-2.0327
X3.188Y-1.6827
X3.263Y-4.5827
X3.388Y-3.2577
X3.488Y-3.2577
X3.7389Y-4.8886
X3.9Y-4.6647
T2
X0.888Y-1.4077
X0.888Y-1.7077
X0.988Y-0.8577
X0.988Y-1.2577
X0.988Y-1.4077
X0.988Y-1.7077
X1.088Y-1.4077
X1.088Y-1.7077
X1.088Y-3.5827
X1.113Y-0.8577
X1.113Y-1.2577
X1.113Y-1.9327
X1.1864Y-3.5827
X1.188Y-1.4077
X1.188Y-1.7077
X1.188Y-2.8327
X1.188Y-4.6327
X1.238Y-0.8577
X1.238Y-1.2577
X1.2864Y-2.8327
X1.2864Y-4.6327
X1.288Y-1.4077
X1.288Y-1.7077
X1.363Y-0.8577
X1.363Y-1.2577
X1.388Y-1.4077
X1.388Y-1.7077
X1.413Y-3.1077
X1.413Y-3.2327
X1.488Y-0.8577
X1.488Y-1.2577
X1.488Y-1.4077
X1.488Y-1.7077
X1.513Y-1.9327
X1.538Y-2.5827
X1.538Y-2.9827
X1.538Y-3.3537
X1.538Y-3.7537
X1.538Y-4.4077
X1.538Y-4.8077
X1.563Y-2.1327
X1.563Y-2.4327
X1.563Y-3.9077
X1.563Y-4.2077
X1.638Y-1.6827
X1.638Y-1.9827
X1.663Y-2.1327
X1.663Y-2.4327
X1.663Y-2.5827
X1.663Y-2.8827
X1.663Y-3.4577
X1.663Y-3.7577
X1.663Y-3.9077
X1.663Y-4.2077
X1.663Y-4.4077
X1.663Y-4.7077
X1.6661Y-1.2327
X1.6661Y-1.4327
X1.738Y-0.9827
X1.738Y-1.6827
X1.738Y-1.9827
X1.763Y-2.1327
X1.763Y-2.4327
X1.763Y-2.5827
X1.763Y-2.8827
X1.763Y-3.4577
X1.763Y-3.7577
X1.763Y-3.9077
X1.763Y-4.2077
X1.763Y-4.4077
X1.763Y-4.7077
X1.813Y-3.1077
X1.813Y-3.2327
X1.838Y-0.9827
X1.863Y-1.2327
X1.863Y-1.4327
X1.863Y-1.5827
X1.863Y-1.9827
X1.863Y-2.1327
X1.863Y-2.4327
X1.863Y-3.9077
X1.863Y-4.2077
X1.888Y-2.5827
X1.888Y-2.9827
X1.888Y-3.3577
X1.888Y-3.7577
X1.888Y-4.4077
X1.888Y-4.8077
X1.938Y-0.9827
X1.938Y-3.1827
X1.963Y-2.1327
X1.963Y-2.4327
X1.963Y-3.9077
X1.963Y-4.2077
X1.988Y-1.5827
X1.988Y-1.9827
X2.013Y-2.5827
X2.013Y-2.9827
X2.013Y-3.3577
X2.013Y-3.7577
X2.013Y-4.4077
X2.013Y-4.8077
X2.038Y-3.1827
X2.063Y-2.1327
X2.063Y-2.4327
X2.063Y-3.9077
X2.063Y-4.2077
X2.113Y-1.5827
X2.113Y-1.9827
X2.138Y-2.5827
X2.138Y-2.9827
X2.138Y-3.1827
X2.138Y-3.3577
X2.138Y-3.7577
X2.138Y-4.4077
X2.138Y-4.8077
X2.163Y-2.1327
X2.163Y-2.4327
X2.163Y-3.9077
X2.163Y-4.2077
X2.263Y-2.1327
X2.263Y-2.4327
X2.263Y-3.9077
X2.263Y-4.2077
X2.2661Y-3.6827
X2.288Y-1.7327
X2.288Y-2.8827
X2.288Y-3.2827
X2.2896Y-1.4827
X2.2911Y-1.9077
X2.313Y-2.5858
X2.313Y-2.7827
X2.313Y-3.5077
X2.313Y-4.4108
X2.313Y-4.6077
X2.388Y-1.4827
X2.413Y-3.5077
X2.438Y-2.8827
X2.438Y-3.2827
X2.463Y-3.6827
X2.463Y-4.6077
X2.488Y-1.9077
X2.488Y-2.7327
X2.513Y-3.5077
X2.538Y-0.9077
X2.538Y-1.0061
X2.563Y-3.7077
X2.5911Y-2.9327
X2.6411Y-1.9077
X2.6661Y-4.7827
X2.688Y-1.7327
X2.6911Y-3.5327
X2.788Y-2.9327
X2.838Y-1.9077
X2.863Y-4.6077
X2.863Y-4.7827
X2.888Y-2.7327
X2.888Y-3.5327
X2.913Y-0.9093
X2.913Y-1.0077
X2.963Y-3.7077
X2.988Y-3.1077
X3.013Y-2.5577
X3.013Y-2.9577
X3.063Y-1.7577
X3.063Y-1.9545
X3.113Y-3.5827
X3.113Y-3.7795
X3.113Y-4.4077
X3.113Y-4.8077
X3.138Y-2.1327
X3.138Y-2.4327
X3.138Y-2.5577
X3.138Y-2.9577
X3.138Y-3.9327
X3.138Y-4.2327
X3.238Y-2.1327
X3.238Y-2.4327
X3.238Y-3.9327
X3.238Y-4.2327
X3.238Y-4.4077
X3.238Y-4.8077
X3.263Y-1.5827
X3.263Y-1.9827
X3.263Y-2.5577
X3.263Y-2.9577
X3.288Y-3.3827
X3.288Y-3.7827
X3.338Y-2.1327
X3.338Y-2.4327
X3.338Y-3.9327
X3.338Y-4.2327
X3.363Y-4.4077
X3.363Y-4.8077
X3.388Y-1.5827
X3.388Y-1.9827
X3.388Y-2.5577
X3.388Y-2.9577
X3.388Y-3.1077
X3.413Y-3.3827
X3.413Y-3.7827
X3.438Y-2.1327
X3.438Y-2.4327
X3.438Y-3.9327
X3.438Y-4.2327
X3.488Y-4.4077
X3.488Y-4.8077
X3.513Y-1.5827
X3.513Y-1.9827
X3.538Y-2.1327
X3.538Y-2.4327
X3.538Y-3.3827
X3.538Y-3.7827
X3.538Y-3.9327
X3.538Y-4.2327
X3.563Y-2.6358
X3.563Y-2.8327
X3.638Y-1.5827
X3.638Y-1.9827
X3.638Y-2.1327
X3.638Y-2.4327
X3.638Y-3.9327
X3.638Y-4.2327
X3.638Y-4.4077
X3.638Y-4.8077
X3.663Y-3.3827
X3.663Y-3.7827
X3.738Y-2.1327
X3.738Y-2.4327
X3.738Y-3.9327
X3.738Y-4.2327
X3.763Y-1.5827
X3.763Y-1.9827
X3.788Y-3.3827
X3.788Y-3.7827
X3.838Y-4.4108
X3.838Y-4.6077
X3.888Y-2.8577
X3.888Y-2.9827
X3.938Y-2.6827
X4.038Y-1.0577
X4.038Y-1.2077
X4.038Y-2.6827
X4.138Y-2.6827
X4.238Y-0.9077
X4.288Y-2.8577
X4.288Y-2.9827
X4.338Y-0.9077
X4.438Y-0.9077
X4.438Y-1.0577
X4.438Y-1.2077
T3
X1.113Y-3.2102
X1.213Y-3.2102
X2.613Y-3.2102
X2.713Y-3.2102
X4.113Y-1.4352
X4.113Y-3.2102
X4.213Y-1.4352
X4.213Y-3.2102
T4
X1.0772Y-2.5329
X1.0772Y-4.3033
X1.1756Y-2.5329
X1.1756Y-4.3033
X1.274Y-2.5329
X1.274Y-4.3033
X2.1022Y-5.0874
X2.2022Y-5.0874
X2.3022Y-5.0874
X2.4022Y-5.0874
X2.5022Y-5.0874
X2.5772Y-4.3033
X2.5787Y-2.5329
X2.6022Y-5.0874
X2.6756Y-4.3033
X2.6772Y-2.5329
X2.7022Y-5.0874
X2.774Y-4.3033
X2.7756Y-2.5329
X2.8022Y-5.0874
X2.9022Y-5.0874
X3.0022Y-5.0874
X3.1022Y-5.0874
X3.2022Y-5.0874
X3.288Y-1.2327
X3.288Y-1.3327
X3.388Y-1.2327
X3.388Y-1.3327
X3.488Y-1.2327
X3.488Y-1.3327
X3.588Y-1.2327
X3.588Y-1.3327
X3.688Y-1.2327
X3.688Y-1.3327
X4.0772Y-2.5329
X4.0772Y-4.3033
X4.1756Y-2.5329
X4.1756Y-4.3033
X4.274Y-2.5329
X4.274Y-4.3033
T5
X2.463Y-1.2577
X2.963Y-1.2577
X3.213Y-0.8577
X3.713Y-0.8577
T6
X0.9866Y-2.2376
X0.9866Y-4.0081
X1.3646Y-2.2376
X1.3646Y-4.0081
X2.4866Y-4.0081
X2.4882Y-2.2376
X2.8646Y-4.0081
X2.8661Y-2.2376
X3.9866Y-2.2376
X3.9866Y-4.0081
X4.3646Y-2.2376
X4.3646Y-4.0081
T0
M30
