%TF.GenerationSoftware,KiCad,Pcbnew,(5.1.9)-1*%
%TF.CreationDate,2021-09-12T20:22:20+01:00*%
%TF.ProjectId,KOSMOS LFO6,4b4f534d-4f53-4204-9c46-4f362e6b6963,rev?*%
%TF.SameCoordinates,Original*%
%TF.FileFunction,Legend,Bot*%
%TF.FilePolarity,Positive*%
%FSLAX46Y46*%
G04 Gerber Fmt 4.6, Leading zero omitted, Abs format (unit mm)*
G04 Created by KiCad (PCBNEW (5.1.9)-1) date 2021-09-12 20:22:20*
%MOMM*%
%LPD*%
G01*
G04 APERTURE LIST*
%ADD10C,0.150000*%
%TA.AperFunction,Profile*%
%ADD11C,0.050000*%
%TD*%
%ADD12C,0.120000*%
G04 APERTURE END LIST*
D10*
X113034571Y-61141333D02*
X113082190Y-61284190D01*
X113129809Y-61331809D01*
X113225047Y-61379428D01*
X113367904Y-61379428D01*
X113463142Y-61331809D01*
X113510761Y-61284190D01*
X113558380Y-61188952D01*
X113558380Y-60808000D01*
X112558380Y-60808000D01*
X112558380Y-61141333D01*
X112606000Y-61236571D01*
X112653619Y-61284190D01*
X112748857Y-61331809D01*
X112844095Y-61331809D01*
X112939333Y-61284190D01*
X112986952Y-61236571D01*
X113034571Y-61141333D01*
X113034571Y-60808000D01*
X113558380Y-62379428D02*
X113082190Y-62046095D01*
X113558380Y-61808000D02*
X112558380Y-61808000D01*
X112558380Y-62188952D01*
X112606000Y-62284190D01*
X112653619Y-62331809D01*
X112748857Y-62379428D01*
X112891714Y-62379428D01*
X112986952Y-62331809D01*
X113034571Y-62284190D01*
X113082190Y-62188952D01*
X113082190Y-61808000D01*
X113034571Y-62808000D02*
X113034571Y-63141333D01*
X113558380Y-63284190D02*
X113558380Y-62808000D01*
X112558380Y-62808000D01*
X112558380Y-63284190D01*
X113558380Y-63712761D02*
X112558380Y-63712761D01*
X113558380Y-64284190D01*
X112558380Y-64284190D01*
X113558380Y-64760380D02*
X112558380Y-64760380D01*
X113558380Y-65331809D01*
X112558380Y-65331809D01*
X113653619Y-67236571D02*
X113606000Y-67141333D01*
X113510761Y-67046095D01*
X113367904Y-66903238D01*
X113320285Y-66808000D01*
X113320285Y-66712761D01*
X113558380Y-66760380D02*
X113510761Y-66665142D01*
X113415523Y-66569904D01*
X113225047Y-66522285D01*
X112891714Y-66522285D01*
X112701238Y-66569904D01*
X112606000Y-66665142D01*
X112558380Y-66760380D01*
X112558380Y-66950857D01*
X112606000Y-67046095D01*
X112701238Y-67141333D01*
X112891714Y-67188952D01*
X113225047Y-67188952D01*
X113415523Y-67141333D01*
X113510761Y-67046095D01*
X113558380Y-66950857D01*
X113558380Y-66760380D01*
X112891714Y-68046095D02*
X113558380Y-68046095D01*
X112891714Y-67617523D02*
X113415523Y-67617523D01*
X113510761Y-67665142D01*
X113558380Y-67760380D01*
X113558380Y-67903238D01*
X113510761Y-67998476D01*
X113463142Y-68046095D01*
X113558380Y-68950857D02*
X113034571Y-68950857D01*
X112939333Y-68903238D01*
X112891714Y-68808000D01*
X112891714Y-68617523D01*
X112939333Y-68522285D01*
X113510761Y-68950857D02*
X113558380Y-68855619D01*
X113558380Y-68617523D01*
X113510761Y-68522285D01*
X113415523Y-68474666D01*
X113320285Y-68474666D01*
X113225047Y-68522285D01*
X113177428Y-68617523D01*
X113177428Y-68855619D01*
X113129809Y-68950857D01*
X113558380Y-69855619D02*
X112558380Y-69855619D01*
X113510761Y-69855619D02*
X113558380Y-69760380D01*
X113558380Y-69569904D01*
X113510761Y-69474666D01*
X113463142Y-69427047D01*
X113367904Y-69379428D01*
X113082190Y-69379428D01*
X112986952Y-69427047D01*
X112939333Y-69474666D01*
X112891714Y-69569904D01*
X112891714Y-69760380D01*
X112939333Y-69855619D01*
X113558380Y-71236571D02*
X113510761Y-71141333D01*
X113415523Y-71093714D01*
X112558380Y-71093714D01*
X112891714Y-71474666D02*
X112891714Y-71855619D01*
X113558380Y-71617523D02*
X112701238Y-71617523D01*
X112606000Y-71665142D01*
X112558380Y-71760380D01*
X112558380Y-71855619D01*
X113558380Y-72331809D02*
X113510761Y-72236571D01*
X113463142Y-72188952D01*
X113367904Y-72141333D01*
X113082190Y-72141333D01*
X112986952Y-72188952D01*
X112939333Y-72236571D01*
X112891714Y-72331809D01*
X112891714Y-72474666D01*
X112939333Y-72569904D01*
X112986952Y-72617523D01*
X113082190Y-72665142D01*
X113367904Y-72665142D01*
X113463142Y-72617523D01*
X113510761Y-72569904D01*
X113558380Y-72474666D01*
X113558380Y-72331809D01*
X112891714Y-73760380D02*
X113558380Y-73998476D01*
X112891714Y-74236571D01*
X112558380Y-75569904D02*
X112558380Y-75665142D01*
X112606000Y-75760380D01*
X112653619Y-75807999D01*
X112748857Y-75855619D01*
X112939333Y-75903238D01*
X113177428Y-75903238D01*
X113367904Y-75855619D01*
X113463142Y-75807999D01*
X113510761Y-75760380D01*
X113558380Y-75665142D01*
X113558380Y-75569904D01*
X113510761Y-75474666D01*
X113463142Y-75427047D01*
X113367904Y-75379428D01*
X113177428Y-75331809D01*
X112939333Y-75331809D01*
X112748857Y-75379428D01*
X112653619Y-75427047D01*
X112606000Y-75474666D01*
X112558380Y-75569904D01*
X113463142Y-76331809D02*
X113510761Y-76379428D01*
X113558380Y-76331809D01*
X113510761Y-76284190D01*
X113463142Y-76331809D01*
X113558380Y-76331809D01*
X112653619Y-76760380D02*
X112606000Y-76807999D01*
X112558380Y-76903238D01*
X112558380Y-77141333D01*
X112606000Y-77236571D01*
X112653619Y-77284190D01*
X112748857Y-77331809D01*
X112844095Y-77331809D01*
X112986952Y-77284190D01*
X113558380Y-76712761D01*
X113558380Y-77331809D01*
X113510761Y-78474666D02*
X113558380Y-78617523D01*
X113558380Y-78855619D01*
X113510761Y-78950857D01*
X113463142Y-78998476D01*
X113367904Y-79046095D01*
X113272666Y-79046095D01*
X113177428Y-78998476D01*
X113129809Y-78950857D01*
X113082190Y-78855619D01*
X113034571Y-78665142D01*
X112986952Y-78569904D01*
X112939333Y-78522285D01*
X112844095Y-78474666D01*
X112748857Y-78474666D01*
X112653619Y-78522285D01*
X112606000Y-78569904D01*
X112558380Y-78665142D01*
X112558380Y-78903238D01*
X112606000Y-79046095D01*
X113510761Y-79855619D02*
X113558380Y-79760380D01*
X113558380Y-79569904D01*
X113510761Y-79474666D01*
X113415523Y-79427047D01*
X113034571Y-79427047D01*
X112939333Y-79474666D01*
X112891714Y-79569904D01*
X112891714Y-79760380D01*
X112939333Y-79855619D01*
X113034571Y-79903238D01*
X113129809Y-79903238D01*
X113225047Y-79427047D01*
X112891714Y-80331809D02*
X113891714Y-80331809D01*
X112939333Y-80331809D02*
X112891714Y-80427047D01*
X112891714Y-80617523D01*
X112939333Y-80712761D01*
X112986952Y-80760380D01*
X113082190Y-80807999D01*
X113367904Y-80807999D01*
X113463142Y-80760380D01*
X113510761Y-80712761D01*
X113558380Y-80617523D01*
X113558380Y-80427047D01*
X113510761Y-80331809D01*
X112891714Y-81093714D02*
X112891714Y-81474666D01*
X112558380Y-81236571D02*
X113415523Y-81236571D01*
X113510761Y-81284190D01*
X113558380Y-81379428D01*
X113558380Y-81474666D01*
X112653619Y-82522285D02*
X112606000Y-82569904D01*
X112558380Y-82665142D01*
X112558380Y-82903238D01*
X112606000Y-82998476D01*
X112653619Y-83046095D01*
X112748857Y-83093714D01*
X112844095Y-83093714D01*
X112986952Y-83046095D01*
X113558380Y-82474666D01*
X113558380Y-83093714D01*
X112558380Y-83712761D02*
X112558380Y-83807999D01*
X112606000Y-83903238D01*
X112653619Y-83950857D01*
X112748857Y-83998476D01*
X112939333Y-84046095D01*
X113177428Y-84046095D01*
X113367904Y-83998476D01*
X113463142Y-83950857D01*
X113510761Y-83903238D01*
X113558380Y-83807999D01*
X113558380Y-83712761D01*
X113510761Y-83617523D01*
X113463142Y-83569904D01*
X113367904Y-83522285D01*
X113177428Y-83474666D01*
X112939333Y-83474666D01*
X112748857Y-83522285D01*
X112653619Y-83569904D01*
X112606000Y-83617523D01*
X112558380Y-83712761D01*
X112653619Y-84427047D02*
X112606000Y-84474666D01*
X112558380Y-84569904D01*
X112558380Y-84807999D01*
X112606000Y-84903238D01*
X112653619Y-84950857D01*
X112748857Y-84998476D01*
X112844095Y-84998476D01*
X112986952Y-84950857D01*
X113558380Y-84379428D01*
X113558380Y-84998476D01*
X113558380Y-85950857D02*
X113558380Y-85379428D01*
X113558380Y-85665142D02*
X112558380Y-85665142D01*
X112701238Y-85569904D01*
X112796476Y-85474666D01*
X112844095Y-85379428D01*
X113510761Y-87093714D02*
X113558380Y-87236571D01*
X113558380Y-87474666D01*
X113510761Y-87569904D01*
X113463142Y-87617523D01*
X113367904Y-87665142D01*
X113272666Y-87665142D01*
X113177428Y-87617523D01*
X113129809Y-87569904D01*
X113082190Y-87474666D01*
X113034571Y-87284190D01*
X112986952Y-87188952D01*
X112939333Y-87141333D01*
X112844095Y-87093714D01*
X112748857Y-87093714D01*
X112653619Y-87141333D01*
X112606000Y-87188952D01*
X112558380Y-87284190D01*
X112558380Y-87522285D01*
X112606000Y-87665142D01*
X112891714Y-87950857D02*
X112891714Y-88331809D01*
X112558380Y-88093714D02*
X113415523Y-88093714D01*
X113510761Y-88141333D01*
X113558380Y-88236571D01*
X113558380Y-88331809D01*
X112891714Y-89093714D02*
X113558380Y-89093714D01*
X112891714Y-88665142D02*
X113415523Y-88665142D01*
X113510761Y-88712761D01*
X113558380Y-88807999D01*
X113558380Y-88950857D01*
X113510761Y-89046095D01*
X113463142Y-89093714D01*
X113558380Y-89998476D02*
X112558380Y-89998476D01*
X113510761Y-89998476D02*
X113558380Y-89903238D01*
X113558380Y-89712761D01*
X113510761Y-89617523D01*
X113463142Y-89569904D01*
X113367904Y-89522285D01*
X113082190Y-89522285D01*
X112986952Y-89569904D01*
X112939333Y-89617523D01*
X112891714Y-89712761D01*
X112891714Y-89903238D01*
X112939333Y-89998476D01*
X113558380Y-90474666D02*
X112891714Y-90474666D01*
X112558380Y-90474666D02*
X112606000Y-90427047D01*
X112653619Y-90474666D01*
X112606000Y-90522285D01*
X112558380Y-90474666D01*
X112653619Y-90474666D01*
X113558380Y-91093714D02*
X113510761Y-90998476D01*
X113463142Y-90950857D01*
X113367904Y-90903238D01*
X113082190Y-90903238D01*
X112986952Y-90950857D01*
X112939333Y-90998476D01*
X112891714Y-91093714D01*
X112891714Y-91236571D01*
X112939333Y-91331809D01*
X112986952Y-91379428D01*
X113082190Y-91427047D01*
X113367904Y-91427047D01*
X113463142Y-91379428D01*
X113510761Y-91331809D01*
X113558380Y-91236571D01*
X113558380Y-91093714D01*
X112558380Y-93046095D02*
X112558380Y-92855619D01*
X112606000Y-92760380D01*
X112653619Y-92712761D01*
X112796476Y-92617523D01*
X112986952Y-92569904D01*
X113367904Y-92569904D01*
X113463142Y-92617523D01*
X113510761Y-92665142D01*
X113558380Y-92760380D01*
X113558380Y-92950857D01*
X113510761Y-93046095D01*
X113463142Y-93093714D01*
X113367904Y-93141333D01*
X113129809Y-93141333D01*
X113034571Y-93093714D01*
X112986952Y-93046095D01*
X112939333Y-92950857D01*
X112939333Y-92760380D01*
X112986952Y-92665142D01*
X113034571Y-92617523D01*
X113129809Y-92569904D01*
X113177428Y-94331809D02*
X113177428Y-95093714D01*
X113558380Y-94712761D02*
X112796476Y-94712761D01*
X113558380Y-96855619D02*
X113558380Y-96284190D01*
X113558380Y-96569904D02*
X112558380Y-96569904D01*
X112701238Y-96474666D01*
X112796476Y-96379428D01*
X112844095Y-96284190D01*
D11*
X50368000Y-127195000D02*
X48463000Y-124782000D01*
X83896000Y-131386000D02*
X80340000Y-135000000D01*
X83896000Y-124909000D02*
X83896000Y-131386000D01*
X116027000Y-124909000D02*
X83896000Y-124909000D01*
X50368000Y-131386000D02*
X54051000Y-135000000D01*
X50368000Y-127195000D02*
X50368000Y-131386000D01*
X19888000Y-124782000D02*
X48463000Y-124782000D01*
X54051000Y-135000000D02*
X80340000Y-135000000D01*
X20000000Y-20000000D02*
X116000000Y-20000000D01*
X116000000Y-20000000D02*
X116027000Y-124909000D01*
X20000000Y-20000000D02*
X19888000Y-124782000D01*
D12*
%TO.C,R17*%
X84685000Y-42010000D02*
X87425000Y-42010000D01*
X87425000Y-42010000D02*
X87425000Y-48550000D01*
X87425000Y-48550000D02*
X84685000Y-48550000D01*
X84685000Y-48550000D02*
X84685000Y-42010000D01*
X86055000Y-41240000D02*
X86055000Y-42010000D01*
X86055000Y-49320000D02*
X86055000Y-48550000D01*
%TO.C,C1*%
X57825000Y-65060000D02*
X56429000Y-65060000D01*
X61071000Y-65060000D02*
X59675000Y-65060000D01*
X57825000Y-71300000D02*
X56429000Y-71300000D01*
X61071000Y-71300000D02*
X59675000Y-71300000D01*
X56429000Y-71300000D02*
X56429000Y-65060000D01*
X61071000Y-71300000D02*
X61071000Y-65060000D01*
%TO.C,C2*%
X63815000Y-46134000D02*
X57575000Y-46134000D01*
X63815000Y-50776000D02*
X57575000Y-50776000D01*
X63815000Y-46134000D02*
X63815000Y-47530000D01*
X63815000Y-49380000D02*
X63815000Y-50776000D01*
X57575000Y-46134000D02*
X57575000Y-47530000D01*
X57575000Y-49380000D02*
X57575000Y-50776000D01*
%TO.C,C3*%
X63172211Y-35110000D02*
X63172211Y-35860000D01*
X63547211Y-35485000D02*
X62797211Y-35485000D01*
X55564000Y-37219000D02*
X55564000Y-38101000D01*
X55604000Y-36967000D02*
X55604000Y-38353000D01*
X55644000Y-36783000D02*
X55644000Y-38537000D01*
X55684000Y-36632000D02*
X55684000Y-38688000D01*
X55724000Y-36502000D02*
X55724000Y-38818000D01*
X55764000Y-36385000D02*
X55764000Y-38935000D01*
X55804000Y-36279000D02*
X55804000Y-39041000D01*
X55844000Y-36182000D02*
X55844000Y-39138000D01*
X55884000Y-36091000D02*
X55884000Y-39229000D01*
X55924000Y-36006000D02*
X55924000Y-39314000D01*
X55964000Y-35927000D02*
X55964000Y-39393000D01*
X56004000Y-35851000D02*
X56004000Y-39469000D01*
X56044000Y-35779000D02*
X56044000Y-39541000D01*
X56084000Y-35711000D02*
X56084000Y-39609000D01*
X56124000Y-35646000D02*
X56124000Y-39674000D01*
X56164000Y-35583000D02*
X56164000Y-39737000D01*
X56204000Y-35523000D02*
X56204000Y-39797000D01*
X56244000Y-35465000D02*
X56244000Y-39855000D01*
X56284000Y-35410000D02*
X56284000Y-39910000D01*
X56324000Y-35356000D02*
X56324000Y-39964000D01*
X56364000Y-35305000D02*
X56364000Y-40015000D01*
X56404000Y-35255000D02*
X56404000Y-40065000D01*
X56444000Y-35206000D02*
X56444000Y-40114000D01*
X56484000Y-35160000D02*
X56484000Y-40160000D01*
X56524000Y-35114000D02*
X56524000Y-40206000D01*
X56564000Y-35071000D02*
X56564000Y-40249000D01*
X56604000Y-35028000D02*
X56604000Y-40292000D01*
X56644000Y-34987000D02*
X56644000Y-40333000D01*
X56684000Y-34947000D02*
X56684000Y-40373000D01*
X56724000Y-34908000D02*
X56724000Y-40412000D01*
X56764000Y-34870000D02*
X56764000Y-40450000D01*
X56804000Y-34833000D02*
X56804000Y-40487000D01*
X56844000Y-34797000D02*
X56844000Y-40523000D01*
X56884000Y-34762000D02*
X56884000Y-40558000D01*
X56924000Y-34729000D02*
X56924000Y-40591000D01*
X56964000Y-34696000D02*
X56964000Y-40624000D01*
X57004000Y-34664000D02*
X57004000Y-40656000D01*
X57044000Y-34632000D02*
X57044000Y-40688000D01*
X57084000Y-34602000D02*
X57084000Y-40718000D01*
X57124000Y-38700000D02*
X57124000Y-40748000D01*
X57124000Y-34572000D02*
X57124000Y-36620000D01*
X57164000Y-38700000D02*
X57164000Y-40776000D01*
X57164000Y-34544000D02*
X57164000Y-36620000D01*
X57204000Y-38700000D02*
X57204000Y-40804000D01*
X57204000Y-34516000D02*
X57204000Y-36620000D01*
X57244000Y-38700000D02*
X57244000Y-40832000D01*
X57244000Y-34488000D02*
X57244000Y-36620000D01*
X57284000Y-38700000D02*
X57284000Y-40858000D01*
X57284000Y-34462000D02*
X57284000Y-36620000D01*
X57324000Y-38700000D02*
X57324000Y-40884000D01*
X57324000Y-34436000D02*
X57324000Y-36620000D01*
X57364000Y-38700000D02*
X57364000Y-40909000D01*
X57364000Y-34411000D02*
X57364000Y-36620000D01*
X57404000Y-38700000D02*
X57404000Y-40934000D01*
X57404000Y-34386000D02*
X57404000Y-36620000D01*
X57444000Y-38700000D02*
X57444000Y-40957000D01*
X57444000Y-34363000D02*
X57444000Y-36620000D01*
X57484000Y-38700000D02*
X57484000Y-40981000D01*
X57484000Y-34339000D02*
X57484000Y-36620000D01*
X57524000Y-38700000D02*
X57524000Y-41003000D01*
X57524000Y-34317000D02*
X57524000Y-36620000D01*
X57564000Y-38700000D02*
X57564000Y-41025000D01*
X57564000Y-34295000D02*
X57564000Y-36620000D01*
X57604000Y-38700000D02*
X57604000Y-41046000D01*
X57604000Y-34274000D02*
X57604000Y-36620000D01*
X57644000Y-38700000D02*
X57644000Y-41067000D01*
X57644000Y-34253000D02*
X57644000Y-36620000D01*
X57684000Y-38700000D02*
X57684000Y-41087000D01*
X57684000Y-34233000D02*
X57684000Y-36620000D01*
X57724000Y-38700000D02*
X57724000Y-41107000D01*
X57724000Y-34213000D02*
X57724000Y-36620000D01*
X57764000Y-38700000D02*
X57764000Y-41126000D01*
X57764000Y-34194000D02*
X57764000Y-36620000D01*
X57804000Y-38700000D02*
X57804000Y-41144000D01*
X57804000Y-34176000D02*
X57804000Y-36620000D01*
X57844000Y-38700000D02*
X57844000Y-41162000D01*
X57844000Y-34158000D02*
X57844000Y-36620000D01*
X57884000Y-38700000D02*
X57884000Y-41180000D01*
X57884000Y-34140000D02*
X57884000Y-36620000D01*
X57924000Y-38700000D02*
X57924000Y-41196000D01*
X57924000Y-34124000D02*
X57924000Y-36620000D01*
X57964000Y-38700000D02*
X57964000Y-41213000D01*
X57964000Y-34107000D02*
X57964000Y-36620000D01*
X58004000Y-38700000D02*
X58004000Y-41228000D01*
X58004000Y-34092000D02*
X58004000Y-36620000D01*
X58044000Y-38700000D02*
X58044000Y-41244000D01*
X58044000Y-34076000D02*
X58044000Y-36620000D01*
X58084000Y-38700000D02*
X58084000Y-41258000D01*
X58084000Y-34062000D02*
X58084000Y-36620000D01*
X58124000Y-38700000D02*
X58124000Y-41273000D01*
X58124000Y-34047000D02*
X58124000Y-36620000D01*
X58164000Y-38700000D02*
X58164000Y-41286000D01*
X58164000Y-34034000D02*
X58164000Y-36620000D01*
X58204000Y-38700000D02*
X58204000Y-41300000D01*
X58204000Y-34020000D02*
X58204000Y-36620000D01*
X58244000Y-38700000D02*
X58244000Y-41313000D01*
X58244000Y-34007000D02*
X58244000Y-36620000D01*
X58284000Y-38700000D02*
X58284000Y-41325000D01*
X58284000Y-33995000D02*
X58284000Y-36620000D01*
X58324000Y-38700000D02*
X58324000Y-41337000D01*
X58324000Y-33983000D02*
X58324000Y-36620000D01*
X58364000Y-38700000D02*
X58364000Y-41348000D01*
X58364000Y-33972000D02*
X58364000Y-36620000D01*
X58404000Y-38700000D02*
X58404000Y-41359000D01*
X58404000Y-33961000D02*
X58404000Y-36620000D01*
X58444000Y-38700000D02*
X58444000Y-41370000D01*
X58444000Y-33950000D02*
X58444000Y-36620000D01*
X58484000Y-38700000D02*
X58484000Y-41380000D01*
X58484000Y-33940000D02*
X58484000Y-36620000D01*
X58524000Y-38700000D02*
X58524000Y-41389000D01*
X58524000Y-33931000D02*
X58524000Y-36620000D01*
X58564000Y-38700000D02*
X58564000Y-41398000D01*
X58564000Y-33922000D02*
X58564000Y-36620000D01*
X58604000Y-38700000D02*
X58604000Y-41407000D01*
X58604000Y-33913000D02*
X58604000Y-36620000D01*
X58644000Y-38700000D02*
X58644000Y-41415000D01*
X58644000Y-33905000D02*
X58644000Y-36620000D01*
X58684000Y-38700000D02*
X58684000Y-41423000D01*
X58684000Y-33897000D02*
X58684000Y-36620000D01*
X58725000Y-38700000D02*
X58725000Y-41430000D01*
X58725000Y-33890000D02*
X58725000Y-36620000D01*
X58765000Y-38700000D02*
X58765000Y-41437000D01*
X58765000Y-33883000D02*
X58765000Y-36620000D01*
X58805000Y-38700000D02*
X58805000Y-41444000D01*
X58805000Y-33876000D02*
X58805000Y-36620000D01*
X58845000Y-38700000D02*
X58845000Y-41450000D01*
X58845000Y-33870000D02*
X58845000Y-36620000D01*
X58885000Y-38700000D02*
X58885000Y-41455000D01*
X58885000Y-33865000D02*
X58885000Y-36620000D01*
X58925000Y-38700000D02*
X58925000Y-41461000D01*
X58925000Y-33859000D02*
X58925000Y-36620000D01*
X58965000Y-38700000D02*
X58965000Y-41465000D01*
X58965000Y-33855000D02*
X58965000Y-36620000D01*
X59005000Y-38700000D02*
X59005000Y-41470000D01*
X59005000Y-33850000D02*
X59005000Y-36620000D01*
X59045000Y-38700000D02*
X59045000Y-41474000D01*
X59045000Y-33846000D02*
X59045000Y-36620000D01*
X59085000Y-38700000D02*
X59085000Y-41477000D01*
X59085000Y-33843000D02*
X59085000Y-36620000D01*
X59125000Y-38700000D02*
X59125000Y-41480000D01*
X59125000Y-33840000D02*
X59125000Y-36620000D01*
X59165000Y-38700000D02*
X59165000Y-41483000D01*
X59165000Y-33837000D02*
X59165000Y-36620000D01*
X59205000Y-33835000D02*
X59205000Y-41485000D01*
X59245000Y-33833000D02*
X59245000Y-41487000D01*
X59285000Y-33831000D02*
X59285000Y-41489000D01*
X59325000Y-33830000D02*
X59325000Y-41490000D01*
X59365000Y-33830000D02*
X59365000Y-41490000D01*
X59405000Y-33830000D02*
X59405000Y-41490000D01*
X63275000Y-37660000D02*
G75*
G03*
X63275000Y-37660000I-3870000J0D01*
G01*
%TO.C,C4*%
X32755000Y-91000000D02*
G75*
G03*
X32755000Y-91000000I-3870000J0D01*
G01*
X28885000Y-94830000D02*
X28885000Y-87170000D01*
X28925000Y-94830000D02*
X28925000Y-87170000D01*
X28965000Y-94830000D02*
X28965000Y-87170000D01*
X29005000Y-94829000D02*
X29005000Y-87171000D01*
X29045000Y-94827000D02*
X29045000Y-87173000D01*
X29085000Y-94825000D02*
X29085000Y-87175000D01*
X29125000Y-94823000D02*
X29125000Y-92040000D01*
X29125000Y-89960000D02*
X29125000Y-87177000D01*
X29165000Y-94820000D02*
X29165000Y-92040000D01*
X29165000Y-89960000D02*
X29165000Y-87180000D01*
X29205000Y-94817000D02*
X29205000Y-92040000D01*
X29205000Y-89960000D02*
X29205000Y-87183000D01*
X29245000Y-94814000D02*
X29245000Y-92040000D01*
X29245000Y-89960000D02*
X29245000Y-87186000D01*
X29285000Y-94810000D02*
X29285000Y-92040000D01*
X29285000Y-89960000D02*
X29285000Y-87190000D01*
X29325000Y-94805000D02*
X29325000Y-92040000D01*
X29325000Y-89960000D02*
X29325000Y-87195000D01*
X29365000Y-94801000D02*
X29365000Y-92040000D01*
X29365000Y-89960000D02*
X29365000Y-87199000D01*
X29405000Y-94795000D02*
X29405000Y-92040000D01*
X29405000Y-89960000D02*
X29405000Y-87205000D01*
X29445000Y-94790000D02*
X29445000Y-92040000D01*
X29445000Y-89960000D02*
X29445000Y-87210000D01*
X29485000Y-94784000D02*
X29485000Y-92040000D01*
X29485000Y-89960000D02*
X29485000Y-87216000D01*
X29525000Y-94777000D02*
X29525000Y-92040000D01*
X29525000Y-89960000D02*
X29525000Y-87223000D01*
X29565000Y-94770000D02*
X29565000Y-92040000D01*
X29565000Y-89960000D02*
X29565000Y-87230000D01*
X29606000Y-94763000D02*
X29606000Y-92040000D01*
X29606000Y-89960000D02*
X29606000Y-87237000D01*
X29646000Y-94755000D02*
X29646000Y-92040000D01*
X29646000Y-89960000D02*
X29646000Y-87245000D01*
X29686000Y-94747000D02*
X29686000Y-92040000D01*
X29686000Y-89960000D02*
X29686000Y-87253000D01*
X29726000Y-94738000D02*
X29726000Y-92040000D01*
X29726000Y-89960000D02*
X29726000Y-87262000D01*
X29766000Y-94729000D02*
X29766000Y-92040000D01*
X29766000Y-89960000D02*
X29766000Y-87271000D01*
X29806000Y-94720000D02*
X29806000Y-92040000D01*
X29806000Y-89960000D02*
X29806000Y-87280000D01*
X29846000Y-94710000D02*
X29846000Y-92040000D01*
X29846000Y-89960000D02*
X29846000Y-87290000D01*
X29886000Y-94699000D02*
X29886000Y-92040000D01*
X29886000Y-89960000D02*
X29886000Y-87301000D01*
X29926000Y-94688000D02*
X29926000Y-92040000D01*
X29926000Y-89960000D02*
X29926000Y-87312000D01*
X29966000Y-94677000D02*
X29966000Y-92040000D01*
X29966000Y-89960000D02*
X29966000Y-87323000D01*
X30006000Y-94665000D02*
X30006000Y-92040000D01*
X30006000Y-89960000D02*
X30006000Y-87335000D01*
X30046000Y-94653000D02*
X30046000Y-92040000D01*
X30046000Y-89960000D02*
X30046000Y-87347000D01*
X30086000Y-94640000D02*
X30086000Y-92040000D01*
X30086000Y-89960000D02*
X30086000Y-87360000D01*
X30126000Y-94626000D02*
X30126000Y-92040000D01*
X30126000Y-89960000D02*
X30126000Y-87374000D01*
X30166000Y-94613000D02*
X30166000Y-92040000D01*
X30166000Y-89960000D02*
X30166000Y-87387000D01*
X30206000Y-94598000D02*
X30206000Y-92040000D01*
X30206000Y-89960000D02*
X30206000Y-87402000D01*
X30246000Y-94584000D02*
X30246000Y-92040000D01*
X30246000Y-89960000D02*
X30246000Y-87416000D01*
X30286000Y-94568000D02*
X30286000Y-92040000D01*
X30286000Y-89960000D02*
X30286000Y-87432000D01*
X30326000Y-94553000D02*
X30326000Y-92040000D01*
X30326000Y-89960000D02*
X30326000Y-87447000D01*
X30366000Y-94536000D02*
X30366000Y-92040000D01*
X30366000Y-89960000D02*
X30366000Y-87464000D01*
X30406000Y-94520000D02*
X30406000Y-92040000D01*
X30406000Y-89960000D02*
X30406000Y-87480000D01*
X30446000Y-94502000D02*
X30446000Y-92040000D01*
X30446000Y-89960000D02*
X30446000Y-87498000D01*
X30486000Y-94484000D02*
X30486000Y-92040000D01*
X30486000Y-89960000D02*
X30486000Y-87516000D01*
X30526000Y-94466000D02*
X30526000Y-92040000D01*
X30526000Y-89960000D02*
X30526000Y-87534000D01*
X30566000Y-94447000D02*
X30566000Y-92040000D01*
X30566000Y-89960000D02*
X30566000Y-87553000D01*
X30606000Y-94427000D02*
X30606000Y-92040000D01*
X30606000Y-89960000D02*
X30606000Y-87573000D01*
X30646000Y-94407000D02*
X30646000Y-92040000D01*
X30646000Y-89960000D02*
X30646000Y-87593000D01*
X30686000Y-94386000D02*
X30686000Y-92040000D01*
X30686000Y-89960000D02*
X30686000Y-87614000D01*
X30726000Y-94365000D02*
X30726000Y-92040000D01*
X30726000Y-89960000D02*
X30726000Y-87635000D01*
X30766000Y-94343000D02*
X30766000Y-92040000D01*
X30766000Y-89960000D02*
X30766000Y-87657000D01*
X30806000Y-94321000D02*
X30806000Y-92040000D01*
X30806000Y-89960000D02*
X30806000Y-87679000D01*
X30846000Y-94297000D02*
X30846000Y-92040000D01*
X30846000Y-89960000D02*
X30846000Y-87703000D01*
X30886000Y-94274000D02*
X30886000Y-92040000D01*
X30886000Y-89960000D02*
X30886000Y-87726000D01*
X30926000Y-94249000D02*
X30926000Y-92040000D01*
X30926000Y-89960000D02*
X30926000Y-87751000D01*
X30966000Y-94224000D02*
X30966000Y-92040000D01*
X30966000Y-89960000D02*
X30966000Y-87776000D01*
X31006000Y-94198000D02*
X31006000Y-92040000D01*
X31006000Y-89960000D02*
X31006000Y-87802000D01*
X31046000Y-94172000D02*
X31046000Y-92040000D01*
X31046000Y-89960000D02*
X31046000Y-87828000D01*
X31086000Y-94144000D02*
X31086000Y-92040000D01*
X31086000Y-89960000D02*
X31086000Y-87856000D01*
X31126000Y-94116000D02*
X31126000Y-92040000D01*
X31126000Y-89960000D02*
X31126000Y-87884000D01*
X31166000Y-94088000D02*
X31166000Y-92040000D01*
X31166000Y-89960000D02*
X31166000Y-87912000D01*
X31206000Y-94058000D02*
X31206000Y-87942000D01*
X31246000Y-94028000D02*
X31246000Y-87972000D01*
X31286000Y-93996000D02*
X31286000Y-88004000D01*
X31326000Y-93964000D02*
X31326000Y-88036000D01*
X31366000Y-93931000D02*
X31366000Y-88069000D01*
X31406000Y-93898000D02*
X31406000Y-88102000D01*
X31446000Y-93863000D02*
X31446000Y-88137000D01*
X31486000Y-93827000D02*
X31486000Y-88173000D01*
X31526000Y-93790000D02*
X31526000Y-88210000D01*
X31566000Y-93752000D02*
X31566000Y-88248000D01*
X31606000Y-93713000D02*
X31606000Y-88287000D01*
X31646000Y-93673000D02*
X31646000Y-88327000D01*
X31686000Y-93632000D02*
X31686000Y-88368000D01*
X31726000Y-93589000D02*
X31726000Y-88411000D01*
X31766000Y-93546000D02*
X31766000Y-88454000D01*
X31806000Y-93500000D02*
X31806000Y-88500000D01*
X31846000Y-93454000D02*
X31846000Y-88546000D01*
X31886000Y-93405000D02*
X31886000Y-88595000D01*
X31926000Y-93355000D02*
X31926000Y-88645000D01*
X31966000Y-93304000D02*
X31966000Y-88696000D01*
X32006000Y-93250000D02*
X32006000Y-88750000D01*
X32046000Y-93195000D02*
X32046000Y-88805000D01*
X32086000Y-93137000D02*
X32086000Y-88863000D01*
X32126000Y-93077000D02*
X32126000Y-88923000D01*
X32166000Y-93014000D02*
X32166000Y-88986000D01*
X32206000Y-92949000D02*
X32206000Y-89051000D01*
X32246000Y-92881000D02*
X32246000Y-89119000D01*
X32286000Y-92809000D02*
X32286000Y-89191000D01*
X32326000Y-92733000D02*
X32326000Y-89267000D01*
X32366000Y-92654000D02*
X32366000Y-89346000D01*
X32406000Y-92569000D02*
X32406000Y-89431000D01*
X32446000Y-92478000D02*
X32446000Y-89522000D01*
X32486000Y-92381000D02*
X32486000Y-89619000D01*
X32526000Y-92275000D02*
X32526000Y-89725000D01*
X32566000Y-92158000D02*
X32566000Y-89842000D01*
X32606000Y-92028000D02*
X32606000Y-89972000D01*
X32646000Y-91877000D02*
X32646000Y-90123000D01*
X32686000Y-91693000D02*
X32686000Y-90307000D01*
X32726000Y-91441000D02*
X32726000Y-90559000D01*
X24742789Y-93175000D02*
X25492789Y-93175000D01*
X25117789Y-93550000D02*
X25117789Y-92800000D01*
%TO.C,C5*%
X57825000Y-111415000D02*
X56429000Y-111415000D01*
X61071000Y-111415000D02*
X59675000Y-111415000D01*
X57825000Y-117655000D02*
X56429000Y-117655000D01*
X61071000Y-117655000D02*
X59675000Y-117655000D01*
X56429000Y-117655000D02*
X56429000Y-111415000D01*
X61071000Y-117655000D02*
X61071000Y-111415000D01*
%TO.C,C6*%
X63180000Y-91219000D02*
X56940000Y-91219000D01*
X63180000Y-95861000D02*
X56940000Y-95861000D01*
X63180000Y-91219000D02*
X63180000Y-92615000D01*
X63180000Y-94465000D02*
X63180000Y-95861000D01*
X56940000Y-91219000D02*
X56940000Y-92615000D01*
X56940000Y-94465000D02*
X56940000Y-95861000D01*
%TO.C,C7*%
X72705000Y-46134000D02*
X66465000Y-46134000D01*
X72705000Y-50776000D02*
X66465000Y-50776000D01*
X72705000Y-46134000D02*
X72705000Y-47530000D01*
X72705000Y-49380000D02*
X72705000Y-50776000D01*
X66465000Y-46134000D02*
X66465000Y-47530000D01*
X66465000Y-49380000D02*
X66465000Y-50776000D01*
%TO.C,C8*%
X73975000Y-87409000D02*
X67735000Y-87409000D01*
X73975000Y-92051000D02*
X67735000Y-92051000D01*
X73975000Y-87409000D02*
X73975000Y-88805000D01*
X73975000Y-90655000D02*
X73975000Y-92051000D01*
X67735000Y-87409000D02*
X67735000Y-88805000D01*
X67735000Y-90655000D02*
X67735000Y-92051000D01*
%TO.C,C9*%
X78725000Y-50265000D02*
X80121000Y-50265000D01*
X75479000Y-50265000D02*
X76875000Y-50265000D01*
X78725000Y-44025000D02*
X80121000Y-44025000D01*
X75479000Y-44025000D02*
X76875000Y-44025000D01*
X80121000Y-44025000D02*
X80121000Y-50265000D01*
X75479000Y-44025000D02*
X75479000Y-50265000D01*
%TO.C,C10*%
X92821000Y-72570000D02*
X92821000Y-66330000D01*
X88179000Y-72570000D02*
X88179000Y-66330000D01*
X92821000Y-72570000D02*
X91425000Y-72570000D01*
X89575000Y-72570000D02*
X88179000Y-72570000D01*
X92821000Y-66330000D02*
X91425000Y-66330000D01*
X89575000Y-66330000D02*
X88179000Y-66330000D01*
%TO.C,C11*%
X79995000Y-96620000D02*
X81391000Y-96620000D01*
X76749000Y-96620000D02*
X78145000Y-96620000D01*
X79995000Y-90380000D02*
X81391000Y-90380000D01*
X76749000Y-90380000D02*
X78145000Y-90380000D01*
X81391000Y-90380000D02*
X81391000Y-96620000D01*
X76749000Y-90380000D02*
X76749000Y-96620000D01*
%TO.C,C12*%
X99806000Y-117655000D02*
X99806000Y-111415000D01*
X95164000Y-117655000D02*
X95164000Y-111415000D01*
X99806000Y-117655000D02*
X98410000Y-117655000D01*
X96560000Y-117655000D02*
X95164000Y-117655000D01*
X99806000Y-111415000D02*
X98410000Y-111415000D01*
X96560000Y-111415000D02*
X95164000Y-111415000D01*
%TO.C,C13*%
X47940000Y-28989000D02*
X41700000Y-28989000D01*
X47940000Y-33631000D02*
X41700000Y-33631000D01*
X47940000Y-28989000D02*
X47940000Y-30385000D01*
X47940000Y-32235000D02*
X47940000Y-33631000D01*
X41700000Y-28989000D02*
X41700000Y-30385000D01*
X41700000Y-32235000D02*
X41700000Y-33631000D01*
%TO.C,C14*%
X41700000Y-37315000D02*
X41700000Y-38711000D01*
X41700000Y-34069000D02*
X41700000Y-35465000D01*
X47940000Y-37315000D02*
X47940000Y-38711000D01*
X47940000Y-34069000D02*
X47940000Y-35465000D01*
X47940000Y-38711000D02*
X41700000Y-38711000D01*
X47940000Y-34069000D02*
X41700000Y-34069000D01*
%TO.C,C15*%
X27657789Y-74500000D02*
X27657789Y-73750000D01*
X27282789Y-74125000D02*
X28032789Y-74125000D01*
X35266000Y-72391000D02*
X35266000Y-71509000D01*
X35226000Y-72643000D02*
X35226000Y-71257000D01*
X35186000Y-72827000D02*
X35186000Y-71073000D01*
X35146000Y-72978000D02*
X35146000Y-70922000D01*
X35106000Y-73108000D02*
X35106000Y-70792000D01*
X35066000Y-73225000D02*
X35066000Y-70675000D01*
X35026000Y-73331000D02*
X35026000Y-70569000D01*
X34986000Y-73428000D02*
X34986000Y-70472000D01*
X34946000Y-73519000D02*
X34946000Y-70381000D01*
X34906000Y-73604000D02*
X34906000Y-70296000D01*
X34866000Y-73683000D02*
X34866000Y-70217000D01*
X34826000Y-73759000D02*
X34826000Y-70141000D01*
X34786000Y-73831000D02*
X34786000Y-70069000D01*
X34746000Y-73899000D02*
X34746000Y-70001000D01*
X34706000Y-73964000D02*
X34706000Y-69936000D01*
X34666000Y-74027000D02*
X34666000Y-69873000D01*
X34626000Y-74087000D02*
X34626000Y-69813000D01*
X34586000Y-74145000D02*
X34586000Y-69755000D01*
X34546000Y-74200000D02*
X34546000Y-69700000D01*
X34506000Y-74254000D02*
X34506000Y-69646000D01*
X34466000Y-74305000D02*
X34466000Y-69595000D01*
X34426000Y-74355000D02*
X34426000Y-69545000D01*
X34386000Y-74404000D02*
X34386000Y-69496000D01*
X34346000Y-74450000D02*
X34346000Y-69450000D01*
X34306000Y-74496000D02*
X34306000Y-69404000D01*
X34266000Y-74539000D02*
X34266000Y-69361000D01*
X34226000Y-74582000D02*
X34226000Y-69318000D01*
X34186000Y-74623000D02*
X34186000Y-69277000D01*
X34146000Y-74663000D02*
X34146000Y-69237000D01*
X34106000Y-74702000D02*
X34106000Y-69198000D01*
X34066000Y-74740000D02*
X34066000Y-69160000D01*
X34026000Y-74777000D02*
X34026000Y-69123000D01*
X33986000Y-74813000D02*
X33986000Y-69087000D01*
X33946000Y-74848000D02*
X33946000Y-69052000D01*
X33906000Y-74881000D02*
X33906000Y-69019000D01*
X33866000Y-74914000D02*
X33866000Y-68986000D01*
X33826000Y-74946000D02*
X33826000Y-68954000D01*
X33786000Y-74978000D02*
X33786000Y-68922000D01*
X33746000Y-75008000D02*
X33746000Y-68892000D01*
X33706000Y-70910000D02*
X33706000Y-68862000D01*
X33706000Y-75038000D02*
X33706000Y-72990000D01*
X33666000Y-70910000D02*
X33666000Y-68834000D01*
X33666000Y-75066000D02*
X33666000Y-72990000D01*
X33626000Y-70910000D02*
X33626000Y-68806000D01*
X33626000Y-75094000D02*
X33626000Y-72990000D01*
X33586000Y-70910000D02*
X33586000Y-68778000D01*
X33586000Y-75122000D02*
X33586000Y-72990000D01*
X33546000Y-70910000D02*
X33546000Y-68752000D01*
X33546000Y-75148000D02*
X33546000Y-72990000D01*
X33506000Y-70910000D02*
X33506000Y-68726000D01*
X33506000Y-75174000D02*
X33506000Y-72990000D01*
X33466000Y-70910000D02*
X33466000Y-68701000D01*
X33466000Y-75199000D02*
X33466000Y-72990000D01*
X33426000Y-70910000D02*
X33426000Y-68676000D01*
X33426000Y-75224000D02*
X33426000Y-72990000D01*
X33386000Y-70910000D02*
X33386000Y-68653000D01*
X33386000Y-75247000D02*
X33386000Y-72990000D01*
X33346000Y-70910000D02*
X33346000Y-68629000D01*
X33346000Y-75271000D02*
X33346000Y-72990000D01*
X33306000Y-70910000D02*
X33306000Y-68607000D01*
X33306000Y-75293000D02*
X33306000Y-72990000D01*
X33266000Y-70910000D02*
X33266000Y-68585000D01*
X33266000Y-75315000D02*
X33266000Y-72990000D01*
X33226000Y-70910000D02*
X33226000Y-68564000D01*
X33226000Y-75336000D02*
X33226000Y-72990000D01*
X33186000Y-70910000D02*
X33186000Y-68543000D01*
X33186000Y-75357000D02*
X33186000Y-72990000D01*
X33146000Y-70910000D02*
X33146000Y-68523000D01*
X33146000Y-75377000D02*
X33146000Y-72990000D01*
X33106000Y-70910000D02*
X33106000Y-68503000D01*
X33106000Y-75397000D02*
X33106000Y-72990000D01*
X33066000Y-70910000D02*
X33066000Y-68484000D01*
X33066000Y-75416000D02*
X33066000Y-72990000D01*
X33026000Y-70910000D02*
X33026000Y-68466000D01*
X33026000Y-75434000D02*
X33026000Y-72990000D01*
X32986000Y-70910000D02*
X32986000Y-68448000D01*
X32986000Y-75452000D02*
X32986000Y-72990000D01*
X32946000Y-70910000D02*
X32946000Y-68430000D01*
X32946000Y-75470000D02*
X32946000Y-72990000D01*
X32906000Y-70910000D02*
X32906000Y-68414000D01*
X32906000Y-75486000D02*
X32906000Y-72990000D01*
X32866000Y-70910000D02*
X32866000Y-68397000D01*
X32866000Y-75503000D02*
X32866000Y-72990000D01*
X32826000Y-70910000D02*
X32826000Y-68382000D01*
X32826000Y-75518000D02*
X32826000Y-72990000D01*
X32786000Y-70910000D02*
X32786000Y-68366000D01*
X32786000Y-75534000D02*
X32786000Y-72990000D01*
X32746000Y-70910000D02*
X32746000Y-68352000D01*
X32746000Y-75548000D02*
X32746000Y-72990000D01*
X32706000Y-70910000D02*
X32706000Y-68337000D01*
X32706000Y-75563000D02*
X32706000Y-72990000D01*
X32666000Y-70910000D02*
X32666000Y-68324000D01*
X32666000Y-75576000D02*
X32666000Y-72990000D01*
X32626000Y-70910000D02*
X32626000Y-68310000D01*
X32626000Y-75590000D02*
X32626000Y-72990000D01*
X32586000Y-70910000D02*
X32586000Y-68297000D01*
X32586000Y-75603000D02*
X32586000Y-72990000D01*
X32546000Y-70910000D02*
X32546000Y-68285000D01*
X32546000Y-75615000D02*
X32546000Y-72990000D01*
X32506000Y-70910000D02*
X32506000Y-68273000D01*
X32506000Y-75627000D02*
X32506000Y-72990000D01*
X32466000Y-70910000D02*
X32466000Y-68262000D01*
X32466000Y-75638000D02*
X32466000Y-72990000D01*
X32426000Y-70910000D02*
X32426000Y-68251000D01*
X32426000Y-75649000D02*
X32426000Y-72990000D01*
X32386000Y-70910000D02*
X32386000Y-68240000D01*
X32386000Y-75660000D02*
X32386000Y-72990000D01*
X32346000Y-70910000D02*
X32346000Y-68230000D01*
X32346000Y-75670000D02*
X32346000Y-72990000D01*
X32306000Y-70910000D02*
X32306000Y-68221000D01*
X32306000Y-75679000D02*
X32306000Y-72990000D01*
X32266000Y-70910000D02*
X32266000Y-68212000D01*
X32266000Y-75688000D02*
X32266000Y-72990000D01*
X32226000Y-70910000D02*
X32226000Y-68203000D01*
X32226000Y-75697000D02*
X32226000Y-72990000D01*
X32186000Y-70910000D02*
X32186000Y-68195000D01*
X32186000Y-75705000D02*
X32186000Y-72990000D01*
X32146000Y-70910000D02*
X32146000Y-68187000D01*
X32146000Y-75713000D02*
X32146000Y-72990000D01*
X32105000Y-70910000D02*
X32105000Y-68180000D01*
X32105000Y-75720000D02*
X32105000Y-72990000D01*
X32065000Y-70910000D02*
X32065000Y-68173000D01*
X32065000Y-75727000D02*
X32065000Y-72990000D01*
X32025000Y-70910000D02*
X32025000Y-68166000D01*
X32025000Y-75734000D02*
X32025000Y-72990000D01*
X31985000Y-70910000D02*
X31985000Y-68160000D01*
X31985000Y-75740000D02*
X31985000Y-72990000D01*
X31945000Y-70910000D02*
X31945000Y-68155000D01*
X31945000Y-75745000D02*
X31945000Y-72990000D01*
X31905000Y-70910000D02*
X31905000Y-68149000D01*
X31905000Y-75751000D02*
X31905000Y-72990000D01*
X31865000Y-70910000D02*
X31865000Y-68145000D01*
X31865000Y-75755000D02*
X31865000Y-72990000D01*
X31825000Y-70910000D02*
X31825000Y-68140000D01*
X31825000Y-75760000D02*
X31825000Y-72990000D01*
X31785000Y-70910000D02*
X31785000Y-68136000D01*
X31785000Y-75764000D02*
X31785000Y-72990000D01*
X31745000Y-70910000D02*
X31745000Y-68133000D01*
X31745000Y-75767000D02*
X31745000Y-72990000D01*
X31705000Y-70910000D02*
X31705000Y-68130000D01*
X31705000Y-75770000D02*
X31705000Y-72990000D01*
X31665000Y-70910000D02*
X31665000Y-68127000D01*
X31665000Y-75773000D02*
X31665000Y-72990000D01*
X31625000Y-75775000D02*
X31625000Y-68125000D01*
X31585000Y-75777000D02*
X31585000Y-68123000D01*
X31545000Y-75779000D02*
X31545000Y-68121000D01*
X31505000Y-75780000D02*
X31505000Y-68120000D01*
X31465000Y-75780000D02*
X31465000Y-68120000D01*
X31425000Y-75780000D02*
X31425000Y-68120000D01*
X35295000Y-71950000D02*
G75*
G03*
X35295000Y-71950000I-3870000J0D01*
G01*
%TO.C,C16*%
X35295000Y-117670000D02*
G75*
G03*
X35295000Y-117670000I-3870000J0D01*
G01*
X31425000Y-121500000D02*
X31425000Y-113840000D01*
X31465000Y-121500000D02*
X31465000Y-113840000D01*
X31505000Y-121500000D02*
X31505000Y-113840000D01*
X31545000Y-121499000D02*
X31545000Y-113841000D01*
X31585000Y-121497000D02*
X31585000Y-113843000D01*
X31625000Y-121495000D02*
X31625000Y-113845000D01*
X31665000Y-121493000D02*
X31665000Y-118710000D01*
X31665000Y-116630000D02*
X31665000Y-113847000D01*
X31705000Y-121490000D02*
X31705000Y-118710000D01*
X31705000Y-116630000D02*
X31705000Y-113850000D01*
X31745000Y-121487000D02*
X31745000Y-118710000D01*
X31745000Y-116630000D02*
X31745000Y-113853000D01*
X31785000Y-121484000D02*
X31785000Y-118710000D01*
X31785000Y-116630000D02*
X31785000Y-113856000D01*
X31825000Y-121480000D02*
X31825000Y-118710000D01*
X31825000Y-116630000D02*
X31825000Y-113860000D01*
X31865000Y-121475000D02*
X31865000Y-118710000D01*
X31865000Y-116630000D02*
X31865000Y-113865000D01*
X31905000Y-121471000D02*
X31905000Y-118710000D01*
X31905000Y-116630000D02*
X31905000Y-113869000D01*
X31945000Y-121465000D02*
X31945000Y-118710000D01*
X31945000Y-116630000D02*
X31945000Y-113875000D01*
X31985000Y-121460000D02*
X31985000Y-118710000D01*
X31985000Y-116630000D02*
X31985000Y-113880000D01*
X32025000Y-121454000D02*
X32025000Y-118710000D01*
X32025000Y-116630000D02*
X32025000Y-113886000D01*
X32065000Y-121447000D02*
X32065000Y-118710000D01*
X32065000Y-116630000D02*
X32065000Y-113893000D01*
X32105000Y-121440000D02*
X32105000Y-118710000D01*
X32105000Y-116630000D02*
X32105000Y-113900000D01*
X32146000Y-121433000D02*
X32146000Y-118710000D01*
X32146000Y-116630000D02*
X32146000Y-113907000D01*
X32186000Y-121425000D02*
X32186000Y-118710000D01*
X32186000Y-116630000D02*
X32186000Y-113915000D01*
X32226000Y-121417000D02*
X32226000Y-118710000D01*
X32226000Y-116630000D02*
X32226000Y-113923000D01*
X32266000Y-121408000D02*
X32266000Y-118710000D01*
X32266000Y-116630000D02*
X32266000Y-113932000D01*
X32306000Y-121399000D02*
X32306000Y-118710000D01*
X32306000Y-116630000D02*
X32306000Y-113941000D01*
X32346000Y-121390000D02*
X32346000Y-118710000D01*
X32346000Y-116630000D02*
X32346000Y-113950000D01*
X32386000Y-121380000D02*
X32386000Y-118710000D01*
X32386000Y-116630000D02*
X32386000Y-113960000D01*
X32426000Y-121369000D02*
X32426000Y-118710000D01*
X32426000Y-116630000D02*
X32426000Y-113971000D01*
X32466000Y-121358000D02*
X32466000Y-118710000D01*
X32466000Y-116630000D02*
X32466000Y-113982000D01*
X32506000Y-121347000D02*
X32506000Y-118710000D01*
X32506000Y-116630000D02*
X32506000Y-113993000D01*
X32546000Y-121335000D02*
X32546000Y-118710000D01*
X32546000Y-116630000D02*
X32546000Y-114005000D01*
X32586000Y-121323000D02*
X32586000Y-118710000D01*
X32586000Y-116630000D02*
X32586000Y-114017000D01*
X32626000Y-121310000D02*
X32626000Y-118710000D01*
X32626000Y-116630000D02*
X32626000Y-114030000D01*
X32666000Y-121296000D02*
X32666000Y-118710000D01*
X32666000Y-116630000D02*
X32666000Y-114044000D01*
X32706000Y-121283000D02*
X32706000Y-118710000D01*
X32706000Y-116630000D02*
X32706000Y-114057000D01*
X32746000Y-121268000D02*
X32746000Y-118710000D01*
X32746000Y-116630000D02*
X32746000Y-114072000D01*
X32786000Y-121254000D02*
X32786000Y-118710000D01*
X32786000Y-116630000D02*
X32786000Y-114086000D01*
X32826000Y-121238000D02*
X32826000Y-118710000D01*
X32826000Y-116630000D02*
X32826000Y-114102000D01*
X32866000Y-121223000D02*
X32866000Y-118710000D01*
X32866000Y-116630000D02*
X32866000Y-114117000D01*
X32906000Y-121206000D02*
X32906000Y-118710000D01*
X32906000Y-116630000D02*
X32906000Y-114134000D01*
X32946000Y-121190000D02*
X32946000Y-118710000D01*
X32946000Y-116630000D02*
X32946000Y-114150000D01*
X32986000Y-121172000D02*
X32986000Y-118710000D01*
X32986000Y-116630000D02*
X32986000Y-114168000D01*
X33026000Y-121154000D02*
X33026000Y-118710000D01*
X33026000Y-116630000D02*
X33026000Y-114186000D01*
X33066000Y-121136000D02*
X33066000Y-118710000D01*
X33066000Y-116630000D02*
X33066000Y-114204000D01*
X33106000Y-121117000D02*
X33106000Y-118710000D01*
X33106000Y-116630000D02*
X33106000Y-114223000D01*
X33146000Y-121097000D02*
X33146000Y-118710000D01*
X33146000Y-116630000D02*
X33146000Y-114243000D01*
X33186000Y-121077000D02*
X33186000Y-118710000D01*
X33186000Y-116630000D02*
X33186000Y-114263000D01*
X33226000Y-121056000D02*
X33226000Y-118710000D01*
X33226000Y-116630000D02*
X33226000Y-114284000D01*
X33266000Y-121035000D02*
X33266000Y-118710000D01*
X33266000Y-116630000D02*
X33266000Y-114305000D01*
X33306000Y-121013000D02*
X33306000Y-118710000D01*
X33306000Y-116630000D02*
X33306000Y-114327000D01*
X33346000Y-120991000D02*
X33346000Y-118710000D01*
X33346000Y-116630000D02*
X33346000Y-114349000D01*
X33386000Y-120967000D02*
X33386000Y-118710000D01*
X33386000Y-116630000D02*
X33386000Y-114373000D01*
X33426000Y-120944000D02*
X33426000Y-118710000D01*
X33426000Y-116630000D02*
X33426000Y-114396000D01*
X33466000Y-120919000D02*
X33466000Y-118710000D01*
X33466000Y-116630000D02*
X33466000Y-114421000D01*
X33506000Y-120894000D02*
X33506000Y-118710000D01*
X33506000Y-116630000D02*
X33506000Y-114446000D01*
X33546000Y-120868000D02*
X33546000Y-118710000D01*
X33546000Y-116630000D02*
X33546000Y-114472000D01*
X33586000Y-120842000D02*
X33586000Y-118710000D01*
X33586000Y-116630000D02*
X33586000Y-114498000D01*
X33626000Y-120814000D02*
X33626000Y-118710000D01*
X33626000Y-116630000D02*
X33626000Y-114526000D01*
X33666000Y-120786000D02*
X33666000Y-118710000D01*
X33666000Y-116630000D02*
X33666000Y-114554000D01*
X33706000Y-120758000D02*
X33706000Y-118710000D01*
X33706000Y-116630000D02*
X33706000Y-114582000D01*
X33746000Y-120728000D02*
X33746000Y-114612000D01*
X33786000Y-120698000D02*
X33786000Y-114642000D01*
X33826000Y-120666000D02*
X33826000Y-114674000D01*
X33866000Y-120634000D02*
X33866000Y-114706000D01*
X33906000Y-120601000D02*
X33906000Y-114739000D01*
X33946000Y-120568000D02*
X33946000Y-114772000D01*
X33986000Y-120533000D02*
X33986000Y-114807000D01*
X34026000Y-120497000D02*
X34026000Y-114843000D01*
X34066000Y-120460000D02*
X34066000Y-114880000D01*
X34106000Y-120422000D02*
X34106000Y-114918000D01*
X34146000Y-120383000D02*
X34146000Y-114957000D01*
X34186000Y-120343000D02*
X34186000Y-114997000D01*
X34226000Y-120302000D02*
X34226000Y-115038000D01*
X34266000Y-120259000D02*
X34266000Y-115081000D01*
X34306000Y-120216000D02*
X34306000Y-115124000D01*
X34346000Y-120170000D02*
X34346000Y-115170000D01*
X34386000Y-120124000D02*
X34386000Y-115216000D01*
X34426000Y-120075000D02*
X34426000Y-115265000D01*
X34466000Y-120025000D02*
X34466000Y-115315000D01*
X34506000Y-119974000D02*
X34506000Y-115366000D01*
X34546000Y-119920000D02*
X34546000Y-115420000D01*
X34586000Y-119865000D02*
X34586000Y-115475000D01*
X34626000Y-119807000D02*
X34626000Y-115533000D01*
X34666000Y-119747000D02*
X34666000Y-115593000D01*
X34706000Y-119684000D02*
X34706000Y-115656000D01*
X34746000Y-119619000D02*
X34746000Y-115721000D01*
X34786000Y-119551000D02*
X34786000Y-115789000D01*
X34826000Y-119479000D02*
X34826000Y-115861000D01*
X34866000Y-119403000D02*
X34866000Y-115937000D01*
X34906000Y-119324000D02*
X34906000Y-116016000D01*
X34946000Y-119239000D02*
X34946000Y-116101000D01*
X34986000Y-119148000D02*
X34986000Y-116192000D01*
X35026000Y-119051000D02*
X35026000Y-116289000D01*
X35066000Y-118945000D02*
X35066000Y-116395000D01*
X35106000Y-118828000D02*
X35106000Y-116512000D01*
X35146000Y-118698000D02*
X35146000Y-116642000D01*
X35186000Y-118547000D02*
X35186000Y-116793000D01*
X35226000Y-118363000D02*
X35226000Y-116977000D01*
X35266000Y-118111000D02*
X35266000Y-117229000D01*
X27282789Y-119845000D02*
X28032789Y-119845000D01*
X27657789Y-120220000D02*
X27657789Y-119470000D01*
%TO.C,C17*%
X65195000Y-75415000D02*
X65195000Y-76811000D01*
X65195000Y-72169000D02*
X65195000Y-73565000D01*
X71435000Y-75415000D02*
X71435000Y-76811000D01*
X71435000Y-72169000D02*
X71435000Y-73565000D01*
X71435000Y-76811000D02*
X65195000Y-76811000D01*
X71435000Y-72169000D02*
X65195000Y-72169000D01*
%TO.C,C18*%
X67100000Y-122405000D02*
X67100000Y-123801000D01*
X67100000Y-119159000D02*
X67100000Y-120555000D01*
X73340000Y-122405000D02*
X73340000Y-123801000D01*
X73340000Y-119159000D02*
X73340000Y-120555000D01*
X73340000Y-123801000D02*
X67100000Y-123801000D01*
X73340000Y-119159000D02*
X67100000Y-119159000D01*
%TO.C,C19*%
X76540000Y-28112211D02*
X75790000Y-28112211D01*
X76165000Y-28487211D02*
X76165000Y-27737211D01*
X74431000Y-20504000D02*
X73549000Y-20504000D01*
X74683000Y-20544000D02*
X73297000Y-20544000D01*
X74867000Y-20584000D02*
X73113000Y-20584000D01*
X75018000Y-20624000D02*
X72962000Y-20624000D01*
X75148000Y-20664000D02*
X72832000Y-20664000D01*
X75265000Y-20704000D02*
X72715000Y-20704000D01*
X75371000Y-20744000D02*
X72609000Y-20744000D01*
X75468000Y-20784000D02*
X72512000Y-20784000D01*
X75559000Y-20824000D02*
X72421000Y-20824000D01*
X75644000Y-20864000D02*
X72336000Y-20864000D01*
X75723000Y-20904000D02*
X72257000Y-20904000D01*
X75799000Y-20944000D02*
X72181000Y-20944000D01*
X75871000Y-20984000D02*
X72109000Y-20984000D01*
X75939000Y-21024000D02*
X72041000Y-21024000D01*
X76004000Y-21064000D02*
X71976000Y-21064000D01*
X76067000Y-21104000D02*
X71913000Y-21104000D01*
X76127000Y-21144000D02*
X71853000Y-21144000D01*
X76185000Y-21184000D02*
X71795000Y-21184000D01*
X76240000Y-21224000D02*
X71740000Y-21224000D01*
X76294000Y-21264000D02*
X71686000Y-21264000D01*
X76345000Y-21304000D02*
X71635000Y-21304000D01*
X76395000Y-21344000D02*
X71585000Y-21344000D01*
X76444000Y-21384000D02*
X71536000Y-21384000D01*
X76490000Y-21424000D02*
X71490000Y-21424000D01*
X76536000Y-21464000D02*
X71444000Y-21464000D01*
X76579000Y-21504000D02*
X71401000Y-21504000D01*
X76622000Y-21544000D02*
X71358000Y-21544000D01*
X76663000Y-21584000D02*
X71317000Y-21584000D01*
X76703000Y-21624000D02*
X71277000Y-21624000D01*
X76742000Y-21664000D02*
X71238000Y-21664000D01*
X76780000Y-21704000D02*
X71200000Y-21704000D01*
X76817000Y-21744000D02*
X71163000Y-21744000D01*
X76853000Y-21784000D02*
X71127000Y-21784000D01*
X76888000Y-21824000D02*
X71092000Y-21824000D01*
X76921000Y-21864000D02*
X71059000Y-21864000D01*
X76954000Y-21904000D02*
X71026000Y-21904000D01*
X76986000Y-21944000D02*
X70994000Y-21944000D01*
X77018000Y-21984000D02*
X70962000Y-21984000D01*
X77048000Y-22024000D02*
X70932000Y-22024000D01*
X72950000Y-22064000D02*
X70902000Y-22064000D01*
X77078000Y-22064000D02*
X75030000Y-22064000D01*
X72950000Y-22104000D02*
X70874000Y-22104000D01*
X77106000Y-22104000D02*
X75030000Y-22104000D01*
X72950000Y-22144000D02*
X70846000Y-22144000D01*
X77134000Y-22144000D02*
X75030000Y-22144000D01*
X72950000Y-22184000D02*
X70818000Y-22184000D01*
X77162000Y-22184000D02*
X75030000Y-22184000D01*
X72950000Y-22224000D02*
X70792000Y-22224000D01*
X77188000Y-22224000D02*
X75030000Y-22224000D01*
X72950000Y-22264000D02*
X70766000Y-22264000D01*
X77214000Y-22264000D02*
X75030000Y-22264000D01*
X72950000Y-22304000D02*
X70741000Y-22304000D01*
X77239000Y-22304000D02*
X75030000Y-22304000D01*
X72950000Y-22344000D02*
X70716000Y-22344000D01*
X77264000Y-22344000D02*
X75030000Y-22344000D01*
X72950000Y-22384000D02*
X70693000Y-22384000D01*
X77287000Y-22384000D02*
X75030000Y-22384000D01*
X72950000Y-22424000D02*
X70669000Y-22424000D01*
X77311000Y-22424000D02*
X75030000Y-22424000D01*
X72950000Y-22464000D02*
X70647000Y-22464000D01*
X77333000Y-22464000D02*
X75030000Y-22464000D01*
X72950000Y-22504000D02*
X70625000Y-22504000D01*
X77355000Y-22504000D02*
X75030000Y-22504000D01*
X72950000Y-22544000D02*
X70604000Y-22544000D01*
X77376000Y-22544000D02*
X75030000Y-22544000D01*
X72950000Y-22584000D02*
X70583000Y-22584000D01*
X77397000Y-22584000D02*
X75030000Y-22584000D01*
X72950000Y-22624000D02*
X70563000Y-22624000D01*
X77417000Y-22624000D02*
X75030000Y-22624000D01*
X72950000Y-22664000D02*
X70543000Y-22664000D01*
X77437000Y-22664000D02*
X75030000Y-22664000D01*
X72950000Y-22704000D02*
X70524000Y-22704000D01*
X77456000Y-22704000D02*
X75030000Y-22704000D01*
X72950000Y-22744000D02*
X70506000Y-22744000D01*
X77474000Y-22744000D02*
X75030000Y-22744000D01*
X72950000Y-22784000D02*
X70488000Y-22784000D01*
X77492000Y-22784000D02*
X75030000Y-22784000D01*
X72950000Y-22824000D02*
X70470000Y-22824000D01*
X77510000Y-22824000D02*
X75030000Y-22824000D01*
X72950000Y-22864000D02*
X70454000Y-22864000D01*
X77526000Y-22864000D02*
X75030000Y-22864000D01*
X72950000Y-22904000D02*
X70437000Y-22904000D01*
X77543000Y-22904000D02*
X75030000Y-22904000D01*
X72950000Y-22944000D02*
X70422000Y-22944000D01*
X77558000Y-22944000D02*
X75030000Y-22944000D01*
X72950000Y-22984000D02*
X70406000Y-22984000D01*
X77574000Y-22984000D02*
X75030000Y-22984000D01*
X72950000Y-23024000D02*
X70392000Y-23024000D01*
X77588000Y-23024000D02*
X75030000Y-23024000D01*
X72950000Y-23064000D02*
X70377000Y-23064000D01*
X77603000Y-23064000D02*
X75030000Y-23064000D01*
X72950000Y-23104000D02*
X70364000Y-23104000D01*
X77616000Y-23104000D02*
X75030000Y-23104000D01*
X72950000Y-23144000D02*
X70350000Y-23144000D01*
X77630000Y-23144000D02*
X75030000Y-23144000D01*
X72950000Y-23184000D02*
X70337000Y-23184000D01*
X77643000Y-23184000D02*
X75030000Y-23184000D01*
X72950000Y-23224000D02*
X70325000Y-23224000D01*
X77655000Y-23224000D02*
X75030000Y-23224000D01*
X72950000Y-23264000D02*
X70313000Y-23264000D01*
X77667000Y-23264000D02*
X75030000Y-23264000D01*
X72950000Y-23304000D02*
X70302000Y-23304000D01*
X77678000Y-23304000D02*
X75030000Y-23304000D01*
X72950000Y-23344000D02*
X70291000Y-23344000D01*
X77689000Y-23344000D02*
X75030000Y-23344000D01*
X72950000Y-23384000D02*
X70280000Y-23384000D01*
X77700000Y-23384000D02*
X75030000Y-23384000D01*
X72950000Y-23424000D02*
X70270000Y-23424000D01*
X77710000Y-23424000D02*
X75030000Y-23424000D01*
X72950000Y-23464000D02*
X70261000Y-23464000D01*
X77719000Y-23464000D02*
X75030000Y-23464000D01*
X72950000Y-23504000D02*
X70252000Y-23504000D01*
X77728000Y-23504000D02*
X75030000Y-23504000D01*
X72950000Y-23544000D02*
X70243000Y-23544000D01*
X77737000Y-23544000D02*
X75030000Y-23544000D01*
X72950000Y-23584000D02*
X70235000Y-23584000D01*
X77745000Y-23584000D02*
X75030000Y-23584000D01*
X72950000Y-23624000D02*
X70227000Y-23624000D01*
X77753000Y-23624000D02*
X75030000Y-23624000D01*
X72950000Y-23665000D02*
X70220000Y-23665000D01*
X77760000Y-23665000D02*
X75030000Y-23665000D01*
X72950000Y-23705000D02*
X70213000Y-23705000D01*
X77767000Y-23705000D02*
X75030000Y-23705000D01*
X72950000Y-23745000D02*
X70206000Y-23745000D01*
X77774000Y-23745000D02*
X75030000Y-23745000D01*
X72950000Y-23785000D02*
X70200000Y-23785000D01*
X77780000Y-23785000D02*
X75030000Y-23785000D01*
X72950000Y-23825000D02*
X70195000Y-23825000D01*
X77785000Y-23825000D02*
X75030000Y-23825000D01*
X72950000Y-23865000D02*
X70189000Y-23865000D01*
X77791000Y-23865000D02*
X75030000Y-23865000D01*
X72950000Y-23905000D02*
X70185000Y-23905000D01*
X77795000Y-23905000D02*
X75030000Y-23905000D01*
X72950000Y-23945000D02*
X70180000Y-23945000D01*
X77800000Y-23945000D02*
X75030000Y-23945000D01*
X72950000Y-23985000D02*
X70176000Y-23985000D01*
X77804000Y-23985000D02*
X75030000Y-23985000D01*
X72950000Y-24025000D02*
X70173000Y-24025000D01*
X77807000Y-24025000D02*
X75030000Y-24025000D01*
X72950000Y-24065000D02*
X70170000Y-24065000D01*
X77810000Y-24065000D02*
X75030000Y-24065000D01*
X72950000Y-24105000D02*
X70167000Y-24105000D01*
X77813000Y-24105000D02*
X75030000Y-24105000D01*
X77815000Y-24145000D02*
X70165000Y-24145000D01*
X77817000Y-24185000D02*
X70163000Y-24185000D01*
X77819000Y-24225000D02*
X70161000Y-24225000D01*
X77820000Y-24265000D02*
X70160000Y-24265000D01*
X77820000Y-24305000D02*
X70160000Y-24305000D01*
X77820000Y-24345000D02*
X70160000Y-24345000D01*
X77860000Y-24345000D02*
G75*
G03*
X77860000Y-24345000I-3870000J0D01*
G01*
%TO.C,C20*%
X68335000Y-24305000D02*
G75*
G03*
X68335000Y-24305000I-3870000J0D01*
G01*
X60635000Y-24305000D02*
X68295000Y-24305000D01*
X60635000Y-24345000D02*
X68295000Y-24345000D01*
X60635000Y-24385000D02*
X68295000Y-24385000D01*
X60636000Y-24425000D02*
X68294000Y-24425000D01*
X60638000Y-24465000D02*
X68292000Y-24465000D01*
X60640000Y-24505000D02*
X68290000Y-24505000D01*
X60642000Y-24545000D02*
X63425000Y-24545000D01*
X65505000Y-24545000D02*
X68288000Y-24545000D01*
X60645000Y-24585000D02*
X63425000Y-24585000D01*
X65505000Y-24585000D02*
X68285000Y-24585000D01*
X60648000Y-24625000D02*
X63425000Y-24625000D01*
X65505000Y-24625000D02*
X68282000Y-24625000D01*
X60651000Y-24665000D02*
X63425000Y-24665000D01*
X65505000Y-24665000D02*
X68279000Y-24665000D01*
X60655000Y-24705000D02*
X63425000Y-24705000D01*
X65505000Y-24705000D02*
X68275000Y-24705000D01*
X60660000Y-24745000D02*
X63425000Y-24745000D01*
X65505000Y-24745000D02*
X68270000Y-24745000D01*
X60664000Y-24785000D02*
X63425000Y-24785000D01*
X65505000Y-24785000D02*
X68266000Y-24785000D01*
X60670000Y-24825000D02*
X63425000Y-24825000D01*
X65505000Y-24825000D02*
X68260000Y-24825000D01*
X60675000Y-24865000D02*
X63425000Y-24865000D01*
X65505000Y-24865000D02*
X68255000Y-24865000D01*
X60681000Y-24905000D02*
X63425000Y-24905000D01*
X65505000Y-24905000D02*
X68249000Y-24905000D01*
X60688000Y-24945000D02*
X63425000Y-24945000D01*
X65505000Y-24945000D02*
X68242000Y-24945000D01*
X60695000Y-24985000D02*
X63425000Y-24985000D01*
X65505000Y-24985000D02*
X68235000Y-24985000D01*
X60702000Y-25026000D02*
X63425000Y-25026000D01*
X65505000Y-25026000D02*
X68228000Y-25026000D01*
X60710000Y-25066000D02*
X63425000Y-25066000D01*
X65505000Y-25066000D02*
X68220000Y-25066000D01*
X60718000Y-25106000D02*
X63425000Y-25106000D01*
X65505000Y-25106000D02*
X68212000Y-25106000D01*
X60727000Y-25146000D02*
X63425000Y-25146000D01*
X65505000Y-25146000D02*
X68203000Y-25146000D01*
X60736000Y-25186000D02*
X63425000Y-25186000D01*
X65505000Y-25186000D02*
X68194000Y-25186000D01*
X60745000Y-25226000D02*
X63425000Y-25226000D01*
X65505000Y-25226000D02*
X68185000Y-25226000D01*
X60755000Y-25266000D02*
X63425000Y-25266000D01*
X65505000Y-25266000D02*
X68175000Y-25266000D01*
X60766000Y-25306000D02*
X63425000Y-25306000D01*
X65505000Y-25306000D02*
X68164000Y-25306000D01*
X60777000Y-25346000D02*
X63425000Y-25346000D01*
X65505000Y-25346000D02*
X68153000Y-25346000D01*
X60788000Y-25386000D02*
X63425000Y-25386000D01*
X65505000Y-25386000D02*
X68142000Y-25386000D01*
X60800000Y-25426000D02*
X63425000Y-25426000D01*
X65505000Y-25426000D02*
X68130000Y-25426000D01*
X60812000Y-25466000D02*
X63425000Y-25466000D01*
X65505000Y-25466000D02*
X68118000Y-25466000D01*
X60825000Y-25506000D02*
X63425000Y-25506000D01*
X65505000Y-25506000D02*
X68105000Y-25506000D01*
X60839000Y-25546000D02*
X63425000Y-25546000D01*
X65505000Y-25546000D02*
X68091000Y-25546000D01*
X60852000Y-25586000D02*
X63425000Y-25586000D01*
X65505000Y-25586000D02*
X68078000Y-25586000D01*
X60867000Y-25626000D02*
X63425000Y-25626000D01*
X65505000Y-25626000D02*
X68063000Y-25626000D01*
X60881000Y-25666000D02*
X63425000Y-25666000D01*
X65505000Y-25666000D02*
X68049000Y-25666000D01*
X60897000Y-25706000D02*
X63425000Y-25706000D01*
X65505000Y-25706000D02*
X68033000Y-25706000D01*
X60912000Y-25746000D02*
X63425000Y-25746000D01*
X65505000Y-25746000D02*
X68018000Y-25746000D01*
X60929000Y-25786000D02*
X63425000Y-25786000D01*
X65505000Y-25786000D02*
X68001000Y-25786000D01*
X60945000Y-25826000D02*
X63425000Y-25826000D01*
X65505000Y-25826000D02*
X67985000Y-25826000D01*
X60963000Y-25866000D02*
X63425000Y-25866000D01*
X65505000Y-25866000D02*
X67967000Y-25866000D01*
X60981000Y-25906000D02*
X63425000Y-25906000D01*
X65505000Y-25906000D02*
X67949000Y-25906000D01*
X60999000Y-25946000D02*
X63425000Y-25946000D01*
X65505000Y-25946000D02*
X67931000Y-25946000D01*
X61018000Y-25986000D02*
X63425000Y-25986000D01*
X65505000Y-25986000D02*
X67912000Y-25986000D01*
X61038000Y-26026000D02*
X63425000Y-26026000D01*
X65505000Y-26026000D02*
X67892000Y-26026000D01*
X61058000Y-26066000D02*
X63425000Y-26066000D01*
X65505000Y-26066000D02*
X67872000Y-26066000D01*
X61079000Y-26106000D02*
X63425000Y-26106000D01*
X65505000Y-26106000D02*
X67851000Y-26106000D01*
X61100000Y-26146000D02*
X63425000Y-26146000D01*
X65505000Y-26146000D02*
X67830000Y-26146000D01*
X61122000Y-26186000D02*
X63425000Y-26186000D01*
X65505000Y-26186000D02*
X67808000Y-26186000D01*
X61144000Y-26226000D02*
X63425000Y-26226000D01*
X65505000Y-26226000D02*
X67786000Y-26226000D01*
X61168000Y-26266000D02*
X63425000Y-26266000D01*
X65505000Y-26266000D02*
X67762000Y-26266000D01*
X61191000Y-26306000D02*
X63425000Y-26306000D01*
X65505000Y-26306000D02*
X67739000Y-26306000D01*
X61216000Y-26346000D02*
X63425000Y-26346000D01*
X65505000Y-26346000D02*
X67714000Y-26346000D01*
X61241000Y-26386000D02*
X63425000Y-26386000D01*
X65505000Y-26386000D02*
X67689000Y-26386000D01*
X61267000Y-26426000D02*
X63425000Y-26426000D01*
X65505000Y-26426000D02*
X67663000Y-26426000D01*
X61293000Y-26466000D02*
X63425000Y-26466000D01*
X65505000Y-26466000D02*
X67637000Y-26466000D01*
X61321000Y-26506000D02*
X63425000Y-26506000D01*
X65505000Y-26506000D02*
X67609000Y-26506000D01*
X61349000Y-26546000D02*
X63425000Y-26546000D01*
X65505000Y-26546000D02*
X67581000Y-26546000D01*
X61377000Y-26586000D02*
X63425000Y-26586000D01*
X65505000Y-26586000D02*
X67553000Y-26586000D01*
X61407000Y-26626000D02*
X67523000Y-26626000D01*
X61437000Y-26666000D02*
X67493000Y-26666000D01*
X61469000Y-26706000D02*
X67461000Y-26706000D01*
X61501000Y-26746000D02*
X67429000Y-26746000D01*
X61534000Y-26786000D02*
X67396000Y-26786000D01*
X61567000Y-26826000D02*
X67363000Y-26826000D01*
X61602000Y-26866000D02*
X67328000Y-26866000D01*
X61638000Y-26906000D02*
X67292000Y-26906000D01*
X61675000Y-26946000D02*
X67255000Y-26946000D01*
X61713000Y-26986000D02*
X67217000Y-26986000D01*
X61752000Y-27026000D02*
X67178000Y-27026000D01*
X61792000Y-27066000D02*
X67138000Y-27066000D01*
X61833000Y-27106000D02*
X67097000Y-27106000D01*
X61876000Y-27146000D02*
X67054000Y-27146000D01*
X61919000Y-27186000D02*
X67011000Y-27186000D01*
X61965000Y-27226000D02*
X66965000Y-27226000D01*
X62011000Y-27266000D02*
X66919000Y-27266000D01*
X62060000Y-27306000D02*
X66870000Y-27306000D01*
X62110000Y-27346000D02*
X66820000Y-27346000D01*
X62161000Y-27386000D02*
X66769000Y-27386000D01*
X62215000Y-27426000D02*
X66715000Y-27426000D01*
X62270000Y-27466000D02*
X66660000Y-27466000D01*
X62328000Y-27506000D02*
X66602000Y-27506000D01*
X62388000Y-27546000D02*
X66542000Y-27546000D01*
X62451000Y-27586000D02*
X66479000Y-27586000D01*
X62516000Y-27626000D02*
X66414000Y-27626000D01*
X62584000Y-27666000D02*
X66346000Y-27666000D01*
X62656000Y-27706000D02*
X66274000Y-27706000D01*
X62732000Y-27746000D02*
X66198000Y-27746000D01*
X62811000Y-27786000D02*
X66119000Y-27786000D01*
X62896000Y-27826000D02*
X66034000Y-27826000D01*
X62987000Y-27866000D02*
X65943000Y-27866000D01*
X63084000Y-27906000D02*
X65846000Y-27906000D01*
X63190000Y-27946000D02*
X65740000Y-27946000D01*
X63307000Y-27986000D02*
X65623000Y-27986000D01*
X63437000Y-28026000D02*
X65493000Y-28026000D01*
X63588000Y-28066000D02*
X65342000Y-28066000D01*
X63772000Y-28106000D02*
X65158000Y-28106000D01*
X64024000Y-28146000D02*
X64906000Y-28146000D01*
X62290000Y-20162789D02*
X62290000Y-20912789D01*
X61915000Y-20537789D02*
X62665000Y-20537789D01*
%TO.C,D1*%
X42725000Y-48670000D02*
X40485000Y-48670000D01*
X40485000Y-48670000D02*
X40485000Y-44430000D01*
X40485000Y-44430000D02*
X42725000Y-44430000D01*
X42725000Y-44430000D02*
X42725000Y-48670000D01*
X41605000Y-49320000D02*
X41605000Y-48670000D01*
X41605000Y-43780000D02*
X41605000Y-44430000D01*
X42725000Y-47950000D02*
X40485000Y-47950000D01*
X42725000Y-47830000D02*
X40485000Y-47830000D01*
X42725000Y-48070000D02*
X40485000Y-48070000D01*
%TO.C,D2*%
X43025000Y-45030000D02*
X45265000Y-45030000D01*
X43025000Y-45270000D02*
X45265000Y-45270000D01*
X43025000Y-45150000D02*
X45265000Y-45150000D01*
X44145000Y-49320000D02*
X44145000Y-48670000D01*
X44145000Y-43780000D02*
X44145000Y-44430000D01*
X43025000Y-48670000D02*
X43025000Y-44430000D01*
X45265000Y-48670000D02*
X43025000Y-48670000D01*
X45265000Y-44430000D02*
X45265000Y-48670000D01*
X43025000Y-44430000D02*
X45265000Y-44430000D01*
%TO.C,D3*%
X45900000Y-93155000D02*
X43660000Y-93155000D01*
X45900000Y-92915000D02*
X43660000Y-92915000D01*
X45900000Y-93035000D02*
X43660000Y-93035000D01*
X44780000Y-88865000D02*
X44780000Y-89515000D01*
X44780000Y-94405000D02*
X44780000Y-93755000D01*
X45900000Y-89515000D02*
X45900000Y-93755000D01*
X43660000Y-89515000D02*
X45900000Y-89515000D01*
X43660000Y-93755000D02*
X43660000Y-89515000D01*
X45900000Y-93755000D02*
X43660000Y-93755000D01*
%TO.C,D4*%
X41120000Y-89515000D02*
X43360000Y-89515000D01*
X43360000Y-89515000D02*
X43360000Y-93755000D01*
X43360000Y-93755000D02*
X41120000Y-93755000D01*
X41120000Y-93755000D02*
X41120000Y-89515000D01*
X42240000Y-88865000D02*
X42240000Y-89515000D01*
X42240000Y-94405000D02*
X42240000Y-93755000D01*
X41120000Y-90235000D02*
X43360000Y-90235000D01*
X41120000Y-90355000D02*
X43360000Y-90355000D01*
X41120000Y-90115000D02*
X43360000Y-90115000D01*
%TO.C,D6*%
X43660000Y-67290000D02*
X45900000Y-67290000D01*
X45900000Y-67290000D02*
X45900000Y-71530000D01*
X45900000Y-71530000D02*
X43660000Y-71530000D01*
X43660000Y-71530000D02*
X43660000Y-67290000D01*
X44780000Y-66640000D02*
X44780000Y-67290000D01*
X44780000Y-72180000D02*
X44780000Y-71530000D01*
X43660000Y-68010000D02*
X45900000Y-68010000D01*
X43660000Y-68130000D02*
X45900000Y-68130000D01*
X43660000Y-67890000D02*
X45900000Y-67890000D01*
%TO.C,D7*%
X43360000Y-70930000D02*
X41120000Y-70930000D01*
X43360000Y-70690000D02*
X41120000Y-70690000D01*
X43360000Y-70810000D02*
X41120000Y-70810000D01*
X42240000Y-66640000D02*
X42240000Y-67290000D01*
X42240000Y-72180000D02*
X42240000Y-71530000D01*
X43360000Y-67290000D02*
X43360000Y-71530000D01*
X41120000Y-67290000D02*
X43360000Y-67290000D01*
X41120000Y-71530000D02*
X41120000Y-67290000D01*
X43360000Y-71530000D02*
X41120000Y-71530000D01*
%TO.C,D8*%
X43660000Y-114245000D02*
X45900000Y-114245000D01*
X43660000Y-114485000D02*
X45900000Y-114485000D01*
X43660000Y-114365000D02*
X45900000Y-114365000D01*
X44780000Y-118535000D02*
X44780000Y-117885000D01*
X44780000Y-112995000D02*
X44780000Y-113645000D01*
X43660000Y-117885000D02*
X43660000Y-113645000D01*
X45900000Y-117885000D02*
X43660000Y-117885000D01*
X45900000Y-113645000D02*
X45900000Y-117885000D01*
X43660000Y-113645000D02*
X45900000Y-113645000D01*
%TO.C,D9*%
X43360000Y-117885000D02*
X41120000Y-117885000D01*
X41120000Y-117885000D02*
X41120000Y-113645000D01*
X41120000Y-113645000D02*
X43360000Y-113645000D01*
X43360000Y-113645000D02*
X43360000Y-117885000D01*
X42240000Y-118535000D02*
X42240000Y-117885000D01*
X42240000Y-112995000D02*
X42240000Y-113645000D01*
X43360000Y-117165000D02*
X41120000Y-117165000D01*
X43360000Y-117045000D02*
X41120000Y-117045000D01*
X43360000Y-117285000D02*
X41120000Y-117285000D01*
%TO.C,D12*%
X85240000Y-23255000D02*
X85240000Y-20315000D01*
X85240000Y-20315000D02*
X90680000Y-20315000D01*
X90680000Y-20315000D02*
X90680000Y-23255000D01*
X90680000Y-23255000D02*
X85240000Y-23255000D01*
X82950000Y-21785000D02*
X85240000Y-21785000D01*
X92970000Y-21785000D02*
X90680000Y-21785000D01*
X86140000Y-23255000D02*
X86140000Y-20315000D01*
X86260000Y-23255000D02*
X86260000Y-20315000D01*
X86020000Y-23255000D02*
X86020000Y-20315000D01*
%TO.C,D13*%
X70850000Y-30475000D02*
X70850000Y-33415000D01*
X70610000Y-30475000D02*
X70610000Y-33415000D01*
X70730000Y-30475000D02*
X70730000Y-33415000D01*
X63900000Y-31945000D02*
X66190000Y-31945000D01*
X73920000Y-31945000D02*
X71630000Y-31945000D01*
X66190000Y-30475000D02*
X71630000Y-30475000D01*
X66190000Y-33415000D02*
X66190000Y-30475000D01*
X71630000Y-33415000D02*
X66190000Y-33415000D01*
X71630000Y-30475000D02*
X71630000Y-33415000D01*
%TO.C,J1*%
X84015000Y-26630000D02*
X83515000Y-27630000D01*
X83015000Y-26630000D02*
X84015000Y-26630000D01*
X83515000Y-27630000D02*
X83015000Y-26630000D01*
X90645000Y-29330000D02*
X90645000Y-28020000D01*
X90645000Y-29330000D02*
X90645000Y-29330000D01*
X97585000Y-29330000D02*
X90645000Y-29330000D01*
X97585000Y-35830000D02*
X97585000Y-29330000D01*
X79605000Y-35830000D02*
X97585000Y-35830000D01*
X79605000Y-29330000D02*
X79605000Y-35830000D01*
X86545000Y-29330000D02*
X79605000Y-29330000D01*
X86545000Y-28020000D02*
X86545000Y-29330000D01*
X98885000Y-28020000D02*
X78305000Y-28020000D01*
X98885000Y-37140000D02*
X98885000Y-28020000D01*
X78305000Y-37140000D02*
X98885000Y-37140000D01*
X78305000Y-28020000D02*
X78305000Y-37140000D01*
%TO.C,Q1*%
X111985000Y-24905000D02*
X108385000Y-24905000D01*
X107860816Y-24177795D02*
G75*
G03*
X108385000Y-24905000I2324184J1122795D01*
G01*
X107828600Y-21956193D02*
G75*
G02*
X110185000Y-20455000I2356400J-1098807D01*
G01*
X112541400Y-21956193D02*
G75*
G03*
X110185000Y-20455000I-2356400J-1098807D01*
G01*
X112509184Y-24177795D02*
G75*
G02*
X111985000Y-24905000I-2324184J1122795D01*
G01*
%TO.C,Q2*%
X53565000Y-82690000D02*
X49965000Y-82690000D01*
X54089184Y-81962795D02*
G75*
G02*
X53565000Y-82690000I-2324184J1122795D01*
G01*
X54121400Y-79741193D02*
G75*
G03*
X51765000Y-78240000I-2356400J-1098807D01*
G01*
X49408600Y-79741193D02*
G75*
G02*
X51765000Y-78240000I2356400J-1098807D01*
G01*
X49440816Y-81962795D02*
G75*
G03*
X49965000Y-82690000I2324184J1122795D01*
G01*
%TO.C,Q3*%
X63090000Y-90945000D02*
X59490000Y-90945000D01*
X58965816Y-90217795D02*
G75*
G03*
X59490000Y-90945000I2324184J1122795D01*
G01*
X58933600Y-87996193D02*
G75*
G02*
X61290000Y-86495000I2356400J-1098807D01*
G01*
X63646400Y-87996193D02*
G75*
G03*
X61290000Y-86495000I-2356400J-1098807D01*
G01*
X63614184Y-90217795D02*
G75*
G02*
X63090000Y-90945000I-2324184J1122795D01*
G01*
%TO.C,Q4*%
X100765000Y-66290000D02*
X104365000Y-66290000D01*
X100240816Y-67017205D02*
G75*
G02*
X100765000Y-66290000I2324184J-1122795D01*
G01*
X100208600Y-69238807D02*
G75*
G03*
X102565000Y-70740000I2356400J1098807D01*
G01*
X104921400Y-69238807D02*
G75*
G02*
X102565000Y-70740000I-2356400J1098807D01*
G01*
X104889184Y-67017205D02*
G75*
G03*
X104365000Y-66290000I-2324184J-1122795D01*
G01*
%TO.C,R1*%
X39165000Y-30135000D02*
X36425000Y-30135000D01*
X36425000Y-30135000D02*
X36425000Y-23595000D01*
X36425000Y-23595000D02*
X39165000Y-23595000D01*
X39165000Y-23595000D02*
X39165000Y-30135000D01*
X37795000Y-30905000D02*
X37795000Y-30135000D01*
X37795000Y-22825000D02*
X37795000Y-23595000D01*
%TO.C,R2*%
X29310000Y-49090000D02*
X30080000Y-49090000D01*
X37390000Y-49090000D02*
X36620000Y-49090000D01*
X30080000Y-47720000D02*
X36620000Y-47720000D01*
X30080000Y-50460000D02*
X30080000Y-47720000D01*
X36620000Y-50460000D02*
X30080000Y-50460000D01*
X36620000Y-47720000D02*
X36620000Y-50460000D01*
%TO.C,R3*%
X39065000Y-86224999D02*
X39065000Y-86994999D01*
X39065000Y-94304999D02*
X39065000Y-93534999D01*
X40435000Y-86994999D02*
X40435000Y-93534999D01*
X37695000Y-86994999D02*
X40435000Y-86994999D01*
X37695000Y-93534999D02*
X37695000Y-86994999D01*
X40435000Y-93534999D02*
X37695000Y-93534999D01*
%TO.C,R4*%
X48690000Y-48550000D02*
X45950000Y-48550000D01*
X45950000Y-48550000D02*
X45950000Y-42010000D01*
X45950000Y-42010000D02*
X48690000Y-42010000D01*
X48690000Y-42010000D02*
X48690000Y-48550000D01*
X47320000Y-49320000D02*
X47320000Y-48550000D01*
X47320000Y-41240000D02*
X47320000Y-42010000D01*
%TO.C,R5*%
X49325000Y-93635000D02*
X46585000Y-93635000D01*
X46585000Y-93635000D02*
X46585000Y-87095000D01*
X46585000Y-87095000D02*
X49325000Y-87095000D01*
X49325000Y-87095000D02*
X49325000Y-93635000D01*
X47955000Y-94405000D02*
X47955000Y-93635000D01*
X47955000Y-86325000D02*
X47955000Y-87095000D01*
%TO.C,R6*%
X49125000Y-42010000D02*
X51865000Y-42010000D01*
X51865000Y-42010000D02*
X51865000Y-48550000D01*
X51865000Y-48550000D02*
X49125000Y-48550000D01*
X49125000Y-48550000D02*
X49125000Y-42010000D01*
X50495000Y-41240000D02*
X50495000Y-42010000D01*
X50495000Y-49320000D02*
X50495000Y-48550000D01*
%TO.C,R7*%
X51130000Y-94405000D02*
X51130000Y-93635000D01*
X51130000Y-86325000D02*
X51130000Y-87095000D01*
X49760000Y-93635000D02*
X49760000Y-87095000D01*
X52500000Y-93635000D02*
X49760000Y-93635000D01*
X52500000Y-87095000D02*
X52500000Y-93635000D01*
X49760000Y-87095000D02*
X52500000Y-87095000D01*
%TO.C,R8*%
X31445000Y-22825000D02*
X31445000Y-23595000D01*
X31445000Y-30905000D02*
X31445000Y-30135000D01*
X32815000Y-23595000D02*
X32815000Y-30135000D01*
X30075000Y-23595000D02*
X32815000Y-23595000D01*
X30075000Y-30135000D02*
X30075000Y-23595000D01*
X32815000Y-30135000D02*
X30075000Y-30135000D01*
%TO.C,R9*%
X52300000Y-42010000D02*
X55040000Y-42010000D01*
X55040000Y-42010000D02*
X55040000Y-48550000D01*
X55040000Y-48550000D02*
X52300000Y-48550000D01*
X52300000Y-48550000D02*
X52300000Y-42010000D01*
X53670000Y-41240000D02*
X53670000Y-42010000D01*
X53670000Y-49320000D02*
X53670000Y-48550000D01*
%TO.C,R10*%
X52935000Y-87095000D02*
X55675000Y-87095000D01*
X55675000Y-87095000D02*
X55675000Y-93635000D01*
X55675000Y-93635000D02*
X52935000Y-93635000D01*
X52935000Y-93635000D02*
X52935000Y-87095000D01*
X54305000Y-86325000D02*
X54305000Y-87095000D01*
X54305000Y-94405000D02*
X54305000Y-93635000D01*
%TO.C,R12*%
X59155000Y-44010000D02*
X59925000Y-44010000D01*
X67235000Y-44010000D02*
X66465000Y-44010000D01*
X59925000Y-42640000D02*
X66465000Y-42640000D01*
X59925000Y-45380000D02*
X59925000Y-42640000D01*
X66465000Y-45380000D02*
X59925000Y-45380000D01*
X66465000Y-42640000D02*
X66465000Y-45380000D01*
%TO.C,R13*%
X73450000Y-92805000D02*
X73450000Y-95545000D01*
X73450000Y-95545000D02*
X66910000Y-95545000D01*
X66910000Y-95545000D02*
X66910000Y-92805000D01*
X66910000Y-92805000D02*
X73450000Y-92805000D01*
X74220000Y-94175000D02*
X73450000Y-94175000D01*
X66140000Y-94175000D02*
X66910000Y-94175000D01*
%TO.C,R14*%
X35990000Y-30135000D02*
X33250000Y-30135000D01*
X33250000Y-30135000D02*
X33250000Y-23595000D01*
X33250000Y-23595000D02*
X35990000Y-23595000D01*
X35990000Y-23595000D02*
X35990000Y-30135000D01*
X34620000Y-30905000D02*
X34620000Y-30135000D01*
X34620000Y-22825000D02*
X34620000Y-23595000D01*
%TO.C,R15*%
X28270000Y-30905000D02*
X28270000Y-30135000D01*
X28270000Y-22825000D02*
X28270000Y-23595000D01*
X26900000Y-30135000D02*
X26900000Y-23595000D01*
X29640000Y-30135000D02*
X26900000Y-30135000D01*
X29640000Y-23595000D02*
X29640000Y-30135000D01*
X26900000Y-23595000D02*
X29640000Y-23595000D01*
%TO.C,R16*%
X89230000Y-41240000D02*
X89230000Y-42010000D01*
X89230000Y-49320000D02*
X89230000Y-48550000D01*
X90600000Y-42010000D02*
X90600000Y-48550000D01*
X87860000Y-42010000D02*
X90600000Y-42010000D01*
X87860000Y-48550000D02*
X87860000Y-42010000D01*
X90600000Y-48550000D02*
X87860000Y-48550000D01*
%TO.C,R18*%
X86690000Y-86960000D02*
X86690000Y-87730000D01*
X86690000Y-95040000D02*
X86690000Y-94270000D01*
X88060000Y-87730000D02*
X88060000Y-94270000D01*
X85320000Y-87730000D02*
X88060000Y-87730000D01*
X85320000Y-94270000D02*
X85320000Y-87730000D01*
X88060000Y-94270000D02*
X85320000Y-94270000D01*
%TO.C,R19*%
X91235000Y-94270000D02*
X88495000Y-94270000D01*
X88495000Y-94270000D02*
X88495000Y-87730000D01*
X88495000Y-87730000D02*
X91235000Y-87730000D01*
X91235000Y-87730000D02*
X91235000Y-94270000D01*
X89865000Y-95040000D02*
X89865000Y-94270000D01*
X89865000Y-86960000D02*
X89865000Y-87730000D01*
%TO.C,R20*%
X25095000Y-22825000D02*
X25095000Y-23595000D01*
X25095000Y-30905000D02*
X25095000Y-30135000D01*
X26465000Y-23595000D02*
X26465000Y-30135000D01*
X23725000Y-23595000D02*
X26465000Y-23595000D01*
X23725000Y-30135000D02*
X23725000Y-23595000D01*
X26465000Y-30135000D02*
X23725000Y-30135000D01*
%TO.C,R21*%
X91035000Y-42010000D02*
X93775000Y-42010000D01*
X93775000Y-42010000D02*
X93775000Y-48550000D01*
X93775000Y-48550000D02*
X91035000Y-48550000D01*
X91035000Y-48550000D02*
X91035000Y-42010000D01*
X92405000Y-41240000D02*
X92405000Y-42010000D01*
X92405000Y-49320000D02*
X92405000Y-48550000D01*
%TO.C,R22*%
X93040000Y-86960000D02*
X93040000Y-87730000D01*
X93040000Y-95040000D02*
X93040000Y-94270000D01*
X94410000Y-87730000D02*
X94410000Y-94270000D01*
X91670000Y-87730000D02*
X94410000Y-87730000D01*
X91670000Y-94270000D02*
X91670000Y-87730000D01*
X94410000Y-94270000D02*
X91670000Y-94270000D01*
%TO.C,R23*%
X95580000Y-49320000D02*
X95580000Y-48550000D01*
X95580000Y-41240000D02*
X95580000Y-42010000D01*
X94210000Y-48550000D02*
X94210000Y-42010000D01*
X96950000Y-48550000D02*
X94210000Y-48550000D01*
X96950000Y-42010000D02*
X96950000Y-48550000D01*
X94210000Y-42010000D02*
X96950000Y-42010000D01*
%TO.C,R24*%
X81510000Y-42010000D02*
X84250000Y-42010000D01*
X84250000Y-42010000D02*
X84250000Y-48550000D01*
X84250000Y-48550000D02*
X81510000Y-48550000D01*
X81510000Y-48550000D02*
X81510000Y-42010000D01*
X82880000Y-41240000D02*
X82880000Y-42010000D01*
X82880000Y-49320000D02*
X82880000Y-48550000D01*
%TO.C,R25*%
X94845000Y-87730000D02*
X97585000Y-87730000D01*
X97585000Y-87730000D02*
X97585000Y-94270000D01*
X97585000Y-94270000D02*
X94845000Y-94270000D01*
X94845000Y-94270000D02*
X94845000Y-87730000D01*
X96215000Y-86960000D02*
X96215000Y-87730000D01*
X96215000Y-95040000D02*
X96215000Y-94270000D01*
%TO.C,R26*%
X83515000Y-95040000D02*
X83515000Y-94270000D01*
X83515000Y-86960000D02*
X83515000Y-87730000D01*
X82145000Y-94270000D02*
X82145000Y-87730000D01*
X84885000Y-94270000D02*
X82145000Y-94270000D01*
X84885000Y-87730000D02*
X84885000Y-94270000D01*
X82145000Y-87730000D02*
X84885000Y-87730000D01*
%TO.C,R27*%
X110915000Y-25495000D02*
X110915000Y-28235000D01*
X110915000Y-28235000D02*
X104375000Y-28235000D01*
X104375000Y-28235000D02*
X104375000Y-25495000D01*
X104375000Y-25495000D02*
X110915000Y-25495000D01*
X111685000Y-26865000D02*
X110915000Y-26865000D01*
X103605000Y-26865000D02*
X104375000Y-26865000D01*
%TO.C,R28*%
X111685000Y-30675000D02*
X110915000Y-30675000D01*
X103605000Y-30675000D02*
X104375000Y-30675000D01*
X110915000Y-32045000D02*
X104375000Y-32045000D01*
X110915000Y-29305000D02*
X110915000Y-32045000D01*
X104375000Y-29305000D02*
X110915000Y-29305000D01*
X104375000Y-32045000D02*
X104375000Y-29305000D01*
%TO.C,R29*%
X37695000Y-67410000D02*
X40435000Y-67410000D01*
X40435000Y-67410000D02*
X40435000Y-73950000D01*
X40435000Y-73950000D02*
X37695000Y-73950000D01*
X37695000Y-73950000D02*
X37695000Y-67410000D01*
X39065000Y-66640000D02*
X39065000Y-67410000D01*
X39065000Y-74720000D02*
X39065000Y-73950000D01*
%TO.C,R30*%
X37695000Y-113765000D02*
X40435000Y-113765000D01*
X40435000Y-113765000D02*
X40435000Y-120305000D01*
X40435000Y-120305000D02*
X37695000Y-120305000D01*
X37695000Y-120305000D02*
X37695000Y-113765000D01*
X39065000Y-112995000D02*
X39065000Y-113765000D01*
X39065000Y-121075000D02*
X39065000Y-120305000D01*
%TO.C,R31*%
X47955000Y-74720000D02*
X47955000Y-73950000D01*
X47955000Y-66640000D02*
X47955000Y-67410000D01*
X46585000Y-73950000D02*
X46585000Y-67410000D01*
X49325000Y-73950000D02*
X46585000Y-73950000D01*
X49325000Y-67410000D02*
X49325000Y-73950000D01*
X46585000Y-67410000D02*
X49325000Y-67410000D01*
%TO.C,R32*%
X46585000Y-113765000D02*
X49325000Y-113765000D01*
X49325000Y-113765000D02*
X49325000Y-120305000D01*
X49325000Y-120305000D02*
X46585000Y-120305000D01*
X46585000Y-120305000D02*
X46585000Y-113765000D01*
X47955000Y-112995000D02*
X47955000Y-113765000D01*
X47955000Y-121075000D02*
X47955000Y-120305000D01*
%TO.C,R33*%
X45010000Y-82110000D02*
X44240000Y-82110000D01*
X36930000Y-82110000D02*
X37700000Y-82110000D01*
X44240000Y-83480000D02*
X37700000Y-83480000D01*
X44240000Y-80740000D02*
X44240000Y-83480000D01*
X37700000Y-80740000D02*
X44240000Y-80740000D01*
X37700000Y-83480000D02*
X37700000Y-80740000D01*
%TO.C,R34*%
X52500000Y-73950000D02*
X49760000Y-73950000D01*
X49760000Y-73950000D02*
X49760000Y-67410000D01*
X49760000Y-67410000D02*
X52500000Y-67410000D01*
X52500000Y-67410000D02*
X52500000Y-73950000D01*
X51130000Y-74720000D02*
X51130000Y-73950000D01*
X51130000Y-66640000D02*
X51130000Y-67410000D01*
%TO.C,R35*%
X51130000Y-112995000D02*
X51130000Y-113765000D01*
X51130000Y-121075000D02*
X51130000Y-120305000D01*
X52500000Y-113765000D02*
X52500000Y-120305000D01*
X49760000Y-113765000D02*
X52500000Y-113765000D01*
X49760000Y-120305000D02*
X49760000Y-113765000D01*
X52500000Y-120305000D02*
X49760000Y-120305000D01*
%TO.C,R36*%
X37700000Y-80305000D02*
X37700000Y-77565000D01*
X37700000Y-77565000D02*
X44240000Y-77565000D01*
X44240000Y-77565000D02*
X44240000Y-80305000D01*
X44240000Y-80305000D02*
X37700000Y-80305000D01*
X36930000Y-78935000D02*
X37700000Y-78935000D01*
X45010000Y-78935000D02*
X44240000Y-78935000D01*
%TO.C,R37*%
X54305000Y-66640000D02*
X54305000Y-67410000D01*
X54305000Y-74720000D02*
X54305000Y-73950000D01*
X55675000Y-67410000D02*
X55675000Y-73950000D01*
X52935000Y-67410000D02*
X55675000Y-67410000D01*
X52935000Y-73950000D02*
X52935000Y-67410000D01*
X55675000Y-73950000D02*
X52935000Y-73950000D01*
%TO.C,R38*%
X55675000Y-120305000D02*
X52935000Y-120305000D01*
X52935000Y-120305000D02*
X52935000Y-113765000D01*
X52935000Y-113765000D02*
X55675000Y-113765000D01*
X55675000Y-113765000D02*
X55675000Y-120305000D01*
X54305000Y-121075000D02*
X54305000Y-120305000D01*
X54305000Y-112995000D02*
X54305000Y-113765000D01*
%TO.C,R39*%
X61925000Y-74260000D02*
X61925000Y-75030000D01*
X61925000Y-82340000D02*
X61925000Y-81570000D01*
X63295000Y-75030000D02*
X63295000Y-81570000D01*
X60555000Y-75030000D02*
X63295000Y-75030000D01*
X60555000Y-81570000D02*
X60555000Y-75030000D01*
X63295000Y-81570000D02*
X60555000Y-81570000D01*
%TO.C,R40*%
X64235000Y-69410000D02*
X65005000Y-69410000D01*
X72315000Y-69410000D02*
X71545000Y-69410000D01*
X65005000Y-68040000D02*
X71545000Y-68040000D01*
X65005000Y-70780000D02*
X65005000Y-68040000D01*
X71545000Y-70780000D02*
X65005000Y-70780000D01*
X71545000Y-68040000D02*
X71545000Y-70780000D01*
%TO.C,R41*%
X70910000Y-115665000D02*
X70910000Y-118405000D01*
X70910000Y-118405000D02*
X64370000Y-118405000D01*
X64370000Y-118405000D02*
X64370000Y-115665000D01*
X64370000Y-115665000D02*
X70910000Y-115665000D01*
X71680000Y-117035000D02*
X70910000Y-117035000D01*
X63600000Y-117035000D02*
X64370000Y-117035000D01*
%TO.C,R42*%
X58115000Y-74260000D02*
X58115000Y-75030000D01*
X58115000Y-82340000D02*
X58115000Y-81570000D01*
X59485000Y-75030000D02*
X59485000Y-81570000D01*
X56745000Y-75030000D02*
X59485000Y-75030000D01*
X56745000Y-81570000D02*
X56745000Y-75030000D01*
X59485000Y-81570000D02*
X56745000Y-81570000D01*
%TO.C,R43*%
X84685000Y-66775000D02*
X87425000Y-66775000D01*
X87425000Y-66775000D02*
X87425000Y-73315000D01*
X87425000Y-73315000D02*
X84685000Y-73315000D01*
X84685000Y-73315000D02*
X84685000Y-66775000D01*
X86055000Y-66005000D02*
X86055000Y-66775000D01*
X86055000Y-74085000D02*
X86055000Y-73315000D01*
%TO.C,R44*%
X82880000Y-74085000D02*
X82880000Y-73315000D01*
X82880000Y-66005000D02*
X82880000Y-66775000D01*
X81510000Y-73315000D02*
X81510000Y-66775000D01*
X84250000Y-73315000D02*
X81510000Y-73315000D01*
X84250000Y-66775000D02*
X84250000Y-73315000D01*
X81510000Y-66775000D02*
X84250000Y-66775000D01*
%TO.C,R45*%
X88595000Y-121075000D02*
X88595000Y-120305000D01*
X88595000Y-112995000D02*
X88595000Y-113765000D01*
X87225000Y-120305000D02*
X87225000Y-113765000D01*
X89965000Y-120305000D02*
X87225000Y-120305000D01*
X89965000Y-113765000D02*
X89965000Y-120305000D01*
X87225000Y-113765000D02*
X89965000Y-113765000D01*
%TO.C,R46*%
X84050000Y-113765000D02*
X86790000Y-113765000D01*
X86790000Y-113765000D02*
X86790000Y-120305000D01*
X86790000Y-120305000D02*
X84050000Y-120305000D01*
X84050000Y-120305000D02*
X84050000Y-113765000D01*
X85420000Y-112995000D02*
X85420000Y-113765000D01*
X85420000Y-121075000D02*
X85420000Y-120305000D01*
%TO.C,R47*%
X99795000Y-75760000D02*
X100565000Y-75760000D01*
X107875000Y-75760000D02*
X107105000Y-75760000D01*
X100565000Y-74390000D02*
X107105000Y-74390000D01*
X100565000Y-77130000D02*
X100565000Y-74390000D01*
X107105000Y-77130000D02*
X100565000Y-77130000D01*
X107105000Y-74390000D02*
X107105000Y-77130000D01*
%TO.C,R48*%
X79705000Y-74085000D02*
X79705000Y-73315000D01*
X79705000Y-66005000D02*
X79705000Y-66775000D01*
X78335000Y-73315000D02*
X78335000Y-66775000D01*
X81075000Y-73315000D02*
X78335000Y-73315000D01*
X81075000Y-66775000D02*
X81075000Y-73315000D01*
X78335000Y-66775000D02*
X81075000Y-66775000D01*
%TO.C,R49*%
X80875000Y-113765000D02*
X83615000Y-113765000D01*
X83615000Y-113765000D02*
X83615000Y-120305000D01*
X83615000Y-120305000D02*
X80875000Y-120305000D01*
X80875000Y-120305000D02*
X80875000Y-113765000D01*
X82245000Y-112995000D02*
X82245000Y-113765000D01*
X82245000Y-121075000D02*
X82245000Y-120305000D01*
%TO.C,R50*%
X100565000Y-73955000D02*
X100565000Y-71215000D01*
X100565000Y-71215000D02*
X107105000Y-71215000D01*
X107105000Y-71215000D02*
X107105000Y-73955000D01*
X107105000Y-73955000D02*
X100565000Y-73955000D01*
X99795000Y-72585000D02*
X100565000Y-72585000D01*
X107875000Y-72585000D02*
X107105000Y-72585000D01*
%TO.C,R51*%
X77900000Y-73315000D02*
X75160000Y-73315000D01*
X75160000Y-73315000D02*
X75160000Y-66775000D01*
X75160000Y-66775000D02*
X77900000Y-66775000D01*
X77900000Y-66775000D02*
X77900000Y-73315000D01*
X76530000Y-74085000D02*
X76530000Y-73315000D01*
X76530000Y-66005000D02*
X76530000Y-66775000D01*
%TO.C,R52*%
X85015000Y-78935000D02*
X84245000Y-78935000D01*
X76935000Y-78935000D02*
X77705000Y-78935000D01*
X84245000Y-80305000D02*
X77705000Y-80305000D01*
X84245000Y-77565000D02*
X84245000Y-80305000D01*
X77705000Y-77565000D02*
X84245000Y-77565000D01*
X77705000Y-80305000D02*
X77705000Y-77565000D01*
%TO.C,R53*%
X79070000Y-112995000D02*
X79070000Y-113765000D01*
X79070000Y-121075000D02*
X79070000Y-120305000D01*
X80440000Y-113765000D02*
X80440000Y-120305000D01*
X77700000Y-113765000D02*
X80440000Y-113765000D01*
X77700000Y-120305000D02*
X77700000Y-113765000D01*
X80440000Y-120305000D02*
X77700000Y-120305000D01*
%TO.C,R54*%
X92405000Y-112995000D02*
X92405000Y-113765000D01*
X92405000Y-121075000D02*
X92405000Y-120305000D01*
X93775000Y-113765000D02*
X93775000Y-120305000D01*
X91035000Y-113765000D02*
X93775000Y-113765000D01*
X91035000Y-120305000D02*
X91035000Y-113765000D01*
X93775000Y-120305000D02*
X91035000Y-120305000D01*
%TO.C,RV8*%
X51570000Y-26990000D02*
X51570000Y-20650000D01*
X41800000Y-26990000D02*
X41800000Y-20650000D01*
X41800000Y-20650000D02*
X51570000Y-20650000D01*
X41800000Y-26990000D02*
X51570000Y-26990000D01*
%TO.C,U1*%
X38370000Y-60230000D02*
X38370000Y-58980000D01*
X58810000Y-60230000D02*
X38370000Y-60230000D01*
X58810000Y-55730000D02*
X58810000Y-60230000D01*
X38370000Y-55730000D02*
X58810000Y-55730000D01*
X38370000Y-56980000D02*
X38370000Y-55730000D01*
X38370000Y-58980000D02*
G75*
G03*
X38370000Y-56980000I0J1000000D01*
G01*
%TO.C,U2*%
X38370000Y-102065000D02*
X38370000Y-100815000D01*
X38370000Y-100815000D02*
X58810000Y-100815000D01*
X58810000Y-100815000D02*
X58810000Y-105315000D01*
X58810000Y-105315000D02*
X38370000Y-105315000D01*
X38370000Y-105315000D02*
X38370000Y-104065000D01*
X38370000Y-104065000D02*
G75*
G03*
X38370000Y-102065000I0J1000000D01*
G01*
%TO.C,U3*%
X78375000Y-60230000D02*
X78375000Y-58980000D01*
X96275000Y-60230000D02*
X78375000Y-60230000D01*
X96275000Y-55730000D02*
X96275000Y-60230000D01*
X78375000Y-55730000D02*
X96275000Y-55730000D01*
X78375000Y-56980000D02*
X78375000Y-55730000D01*
X78375000Y-58980000D02*
G75*
G03*
X78375000Y-56980000I0J1000000D01*
G01*
%TO.C,U4*%
X78375000Y-105950000D02*
X78375000Y-104700000D01*
X96275000Y-105950000D02*
X78375000Y-105950000D01*
X96275000Y-101450000D02*
X96275000Y-105950000D01*
X78375000Y-101450000D02*
X96275000Y-101450000D01*
X78375000Y-102700000D02*
X78375000Y-101450000D01*
X78375000Y-104700000D02*
G75*
G03*
X78375000Y-102700000I0J1000000D01*
G01*
%TO.C,U5*%
X21225000Y-38565000D02*
X21225000Y-37315000D01*
X21225000Y-37315000D02*
X39125000Y-37315000D01*
X39125000Y-37315000D02*
X39125000Y-41815000D01*
X39125000Y-41815000D02*
X21225000Y-41815000D01*
X21225000Y-41815000D02*
X21225000Y-40565000D01*
X21225000Y-40565000D02*
G75*
G03*
X21225000Y-38565000I0J1000000D01*
G01*
%TD*%
%TO.C,R17*%
D10*
X86507380Y-44637142D02*
X86031190Y-44303809D01*
X86507380Y-44065714D02*
X85507380Y-44065714D01*
X85507380Y-44446666D01*
X85555000Y-44541904D01*
X85602619Y-44589523D01*
X85697857Y-44637142D01*
X85840714Y-44637142D01*
X85935952Y-44589523D01*
X85983571Y-44541904D01*
X86031190Y-44446666D01*
X86031190Y-44065714D01*
X86507380Y-45589523D02*
X86507380Y-45018095D01*
X86507380Y-45303809D02*
X85507380Y-45303809D01*
X85650238Y-45208571D01*
X85745476Y-45113333D01*
X85793095Y-45018095D01*
X85507380Y-45922857D02*
X85507380Y-46589523D01*
X86507380Y-46160952D01*
%TO.C,C1*%
X59122143Y-68013333D02*
X59169762Y-67965714D01*
X59217381Y-67822857D01*
X59217381Y-67727619D01*
X59169762Y-67584761D01*
X59074524Y-67489523D01*
X58979286Y-67441904D01*
X58788810Y-67394285D01*
X58645953Y-67394285D01*
X58455477Y-67441904D01*
X58360239Y-67489523D01*
X58265001Y-67584761D01*
X58217381Y-67727619D01*
X58217381Y-67822857D01*
X58265001Y-67965714D01*
X58312620Y-68013333D01*
X59217381Y-68965714D02*
X59217381Y-68394285D01*
X59217381Y-68680000D02*
X58217381Y-68680000D01*
X58360239Y-68584761D01*
X58455477Y-68489523D01*
X58503096Y-68394285D01*
%TO.C,C2*%
X60861666Y-48562141D02*
X60909285Y-48609760D01*
X61052142Y-48657379D01*
X61147380Y-48657379D01*
X61290238Y-48609760D01*
X61385476Y-48514522D01*
X61433095Y-48419284D01*
X61480714Y-48228808D01*
X61480714Y-48085951D01*
X61433095Y-47895475D01*
X61385476Y-47800237D01*
X61290238Y-47704999D01*
X61147380Y-47657379D01*
X61052142Y-47657379D01*
X60909285Y-47704999D01*
X60861666Y-47752618D01*
X60480714Y-47752618D02*
X60433095Y-47704999D01*
X60337857Y-47657379D01*
X60099761Y-47657379D01*
X60004523Y-47704999D01*
X59956904Y-47752618D01*
X59909285Y-47847856D01*
X59909285Y-47943094D01*
X59956904Y-48085951D01*
X60528333Y-48657379D01*
X59909285Y-48657379D01*
%TO.C,C3*%
X59571666Y-33017142D02*
X59619285Y-33064761D01*
X59762142Y-33112380D01*
X59857380Y-33112380D01*
X60000238Y-33064761D01*
X60095476Y-32969523D01*
X60143095Y-32874285D01*
X60190714Y-32683809D01*
X60190714Y-32540952D01*
X60143095Y-32350476D01*
X60095476Y-32255238D01*
X60000238Y-32160000D01*
X59857380Y-32112380D01*
X59762142Y-32112380D01*
X59619285Y-32160000D01*
X59571666Y-32207619D01*
X59238333Y-32112380D02*
X58619285Y-32112380D01*
X58952619Y-32493333D01*
X58809761Y-32493333D01*
X58714523Y-32540952D01*
X58666904Y-32588571D01*
X58619285Y-32683809D01*
X58619285Y-32921904D01*
X58666904Y-33017142D01*
X58714523Y-33064761D01*
X58809761Y-33112380D01*
X59095476Y-33112380D01*
X59190714Y-33064761D01*
X59238333Y-33017142D01*
%TO.C,C4*%
X29051666Y-96357142D02*
X29099285Y-96404761D01*
X29242142Y-96452380D01*
X29337380Y-96452380D01*
X29480238Y-96404761D01*
X29575476Y-96309523D01*
X29623095Y-96214285D01*
X29670714Y-96023809D01*
X29670714Y-95880952D01*
X29623095Y-95690476D01*
X29575476Y-95595238D01*
X29480238Y-95500000D01*
X29337380Y-95452380D01*
X29242142Y-95452380D01*
X29099285Y-95500000D01*
X29051666Y-95547619D01*
X28194523Y-95785714D02*
X28194523Y-96452380D01*
X28432619Y-95404761D02*
X28670714Y-96119047D01*
X28051666Y-96119047D01*
%TO.C,C5*%
X59592143Y-114368333D02*
X59639762Y-114320714D01*
X59687381Y-114177857D01*
X59687381Y-114082619D01*
X59639762Y-113939761D01*
X59544524Y-113844523D01*
X59449286Y-113796904D01*
X59258810Y-113749285D01*
X59115953Y-113749285D01*
X58925477Y-113796904D01*
X58830239Y-113844523D01*
X58735001Y-113939761D01*
X58687381Y-114082619D01*
X58687381Y-114177857D01*
X58735001Y-114320714D01*
X58782620Y-114368333D01*
X58687381Y-115273095D02*
X58687381Y-114796904D01*
X59163572Y-114749285D01*
X59115953Y-114796904D01*
X59068334Y-114892142D01*
X59068334Y-115130238D01*
X59115953Y-115225476D01*
X59163572Y-115273095D01*
X59258810Y-115320714D01*
X59496905Y-115320714D01*
X59592143Y-115273095D01*
X59639762Y-115225476D01*
X59687381Y-115130238D01*
X59687381Y-114892142D01*
X59639762Y-114796904D01*
X59592143Y-114749285D01*
%TO.C,C6*%
X60226666Y-94122141D02*
X60274285Y-94169760D01*
X60417142Y-94217379D01*
X60512380Y-94217379D01*
X60655238Y-94169760D01*
X60750476Y-94074522D01*
X60798095Y-93979284D01*
X60845714Y-93788808D01*
X60845714Y-93645951D01*
X60798095Y-93455475D01*
X60750476Y-93360237D01*
X60655238Y-93264999D01*
X60512380Y-93217379D01*
X60417142Y-93217379D01*
X60274285Y-93264999D01*
X60226666Y-93312618D01*
X59369523Y-93217379D02*
X59560000Y-93217379D01*
X59655238Y-93264999D01*
X59702857Y-93312618D01*
X59798095Y-93455475D01*
X59845714Y-93645951D01*
X59845714Y-94026903D01*
X59798095Y-94122141D01*
X59750476Y-94169760D01*
X59655238Y-94217379D01*
X59464761Y-94217379D01*
X59369523Y-94169760D01*
X59321904Y-94122141D01*
X59274285Y-94026903D01*
X59274285Y-93788808D01*
X59321904Y-93693570D01*
X59369523Y-93645951D01*
X59464761Y-93598332D01*
X59655238Y-93598332D01*
X59750476Y-93645951D01*
X59798095Y-93693570D01*
X59845714Y-93788808D01*
%TO.C,C7*%
X69751666Y-48177142D02*
X69799285Y-48224761D01*
X69942142Y-48272380D01*
X70037380Y-48272380D01*
X70180238Y-48224761D01*
X70275476Y-48129523D01*
X70323095Y-48034285D01*
X70370714Y-47843809D01*
X70370714Y-47700952D01*
X70323095Y-47510476D01*
X70275476Y-47415238D01*
X70180238Y-47320000D01*
X70037380Y-47272380D01*
X69942142Y-47272380D01*
X69799285Y-47320000D01*
X69751666Y-47367619D01*
X69418333Y-47272380D02*
X68751666Y-47272380D01*
X69180238Y-48272380D01*
%TO.C,C8*%
X70506667Y-90002141D02*
X70554286Y-90049760D01*
X70697143Y-90097379D01*
X70792381Y-90097379D01*
X70935239Y-90049760D01*
X71030477Y-89954522D01*
X71078096Y-89859284D01*
X71125715Y-89668808D01*
X71125715Y-89525951D01*
X71078096Y-89335475D01*
X71030477Y-89240237D01*
X70935239Y-89144999D01*
X70792381Y-89097379D01*
X70697143Y-89097379D01*
X70554286Y-89144999D01*
X70506667Y-89192618D01*
X69935239Y-89525951D02*
X70030477Y-89478332D01*
X70078096Y-89430713D01*
X70125715Y-89335475D01*
X70125715Y-89287856D01*
X70078096Y-89192618D01*
X70030477Y-89144999D01*
X69935239Y-89097379D01*
X69744762Y-89097379D01*
X69649524Y-89144999D01*
X69601905Y-89192618D01*
X69554286Y-89287856D01*
X69554286Y-89335475D01*
X69601905Y-89430713D01*
X69649524Y-89478332D01*
X69744762Y-89525951D01*
X69935239Y-89525951D01*
X70030477Y-89573570D01*
X70078096Y-89621189D01*
X70125715Y-89716427D01*
X70125715Y-89906903D01*
X70078096Y-90002141D01*
X70030477Y-90049760D01*
X69935239Y-90097379D01*
X69744762Y-90097379D01*
X69649524Y-90049760D01*
X69601905Y-90002141D01*
X69554286Y-89906903D01*
X69554286Y-89716427D01*
X69601905Y-89621189D01*
X69649524Y-89573570D01*
X69744762Y-89525951D01*
%TO.C,C9*%
X77377141Y-46978333D02*
X77424760Y-46930714D01*
X77472379Y-46787857D01*
X77472379Y-46692619D01*
X77424760Y-46549761D01*
X77329522Y-46454523D01*
X77234284Y-46406904D01*
X77043808Y-46359285D01*
X76900951Y-46359285D01*
X76710475Y-46406904D01*
X76615237Y-46454523D01*
X76519999Y-46549761D01*
X76472379Y-46692619D01*
X76472379Y-46787857D01*
X76519999Y-46930714D01*
X76567618Y-46978333D01*
X77472379Y-47454523D02*
X77472379Y-47645000D01*
X77424760Y-47740238D01*
X77377141Y-47787857D01*
X77234284Y-47883095D01*
X77043808Y-47930714D01*
X76662856Y-47930714D01*
X76567618Y-47883095D01*
X76519999Y-47835476D01*
X76472379Y-47740238D01*
X76472379Y-47549761D01*
X76519999Y-47454523D01*
X76567618Y-47406904D01*
X76662856Y-47359285D01*
X76900951Y-47359285D01*
X76996189Y-47406904D01*
X77043808Y-47454523D01*
X77091427Y-47549761D01*
X77091427Y-47740238D01*
X77043808Y-47835476D01*
X76996189Y-47883095D01*
X76900951Y-47930714D01*
%TO.C,C10*%
X91667143Y-68667143D02*
X91714762Y-68619524D01*
X91762381Y-68476667D01*
X91762381Y-68381429D01*
X91714762Y-68238572D01*
X91619524Y-68143334D01*
X91524286Y-68095715D01*
X91333810Y-68048096D01*
X91190953Y-68048096D01*
X91000477Y-68095715D01*
X90905239Y-68143334D01*
X90810001Y-68238572D01*
X90762381Y-68381429D01*
X90762381Y-68476667D01*
X90810001Y-68619524D01*
X90857620Y-68667143D01*
X91762381Y-69619524D02*
X91762381Y-69048096D01*
X91762381Y-69333810D02*
X90762381Y-69333810D01*
X90905239Y-69238572D01*
X91000477Y-69143334D01*
X91048096Y-69048096D01*
X90762381Y-70238572D02*
X90762381Y-70333810D01*
X90810001Y-70429048D01*
X90857620Y-70476667D01*
X90952858Y-70524286D01*
X91143334Y-70571905D01*
X91381429Y-70571905D01*
X91571905Y-70524286D01*
X91667143Y-70476667D01*
X91714762Y-70429048D01*
X91762381Y-70333810D01*
X91762381Y-70238572D01*
X91714762Y-70143334D01*
X91667143Y-70095715D01*
X91571905Y-70048096D01*
X91381429Y-70000477D01*
X91143334Y-70000477D01*
X90952858Y-70048096D01*
X90857620Y-70095715D01*
X90810001Y-70143334D01*
X90762381Y-70238572D01*
%TO.C,C11*%
X79047141Y-92857142D02*
X79094760Y-92809523D01*
X79142379Y-92666666D01*
X79142379Y-92571428D01*
X79094760Y-92428571D01*
X78999522Y-92333333D01*
X78904284Y-92285714D01*
X78713808Y-92238095D01*
X78570951Y-92238095D01*
X78380475Y-92285714D01*
X78285237Y-92333333D01*
X78189999Y-92428571D01*
X78142379Y-92571428D01*
X78142379Y-92666666D01*
X78189999Y-92809523D01*
X78237618Y-92857142D01*
X79142379Y-93809523D02*
X79142379Y-93238095D01*
X79142379Y-93523809D02*
X78142379Y-93523809D01*
X78285237Y-93428571D01*
X78380475Y-93333333D01*
X78428094Y-93238095D01*
X79142379Y-94761904D02*
X79142379Y-94190476D01*
X79142379Y-94476190D02*
X78142379Y-94476190D01*
X78285237Y-94380952D01*
X78380475Y-94285714D01*
X78428094Y-94190476D01*
%TO.C,C12*%
X98172143Y-114187143D02*
X98219762Y-114139524D01*
X98267381Y-113996667D01*
X98267381Y-113901429D01*
X98219762Y-113758572D01*
X98124524Y-113663334D01*
X98029286Y-113615715D01*
X97838810Y-113568096D01*
X97695953Y-113568096D01*
X97505477Y-113615715D01*
X97410239Y-113663334D01*
X97315001Y-113758572D01*
X97267381Y-113901429D01*
X97267381Y-113996667D01*
X97315001Y-114139524D01*
X97362620Y-114187143D01*
X98267381Y-115139524D02*
X98267381Y-114568096D01*
X98267381Y-114853810D02*
X97267381Y-114853810D01*
X97410239Y-114758572D01*
X97505477Y-114663334D01*
X97553096Y-114568096D01*
X97362620Y-115520477D02*
X97315001Y-115568096D01*
X97267381Y-115663334D01*
X97267381Y-115901429D01*
X97315001Y-115996667D01*
X97362620Y-116044286D01*
X97457858Y-116091905D01*
X97553096Y-116091905D01*
X97695953Y-116044286D01*
X98267381Y-115472858D01*
X98267381Y-116091905D01*
%TO.C,C13*%
X45582858Y-30782141D02*
X45630477Y-30829760D01*
X45773334Y-30877379D01*
X45868572Y-30877379D01*
X46011429Y-30829760D01*
X46106667Y-30734522D01*
X46154286Y-30639284D01*
X46201905Y-30448808D01*
X46201905Y-30305951D01*
X46154286Y-30115475D01*
X46106667Y-30020237D01*
X46011429Y-29924999D01*
X45868572Y-29877379D01*
X45773334Y-29877379D01*
X45630477Y-29924999D01*
X45582858Y-29972618D01*
X44630477Y-30877379D02*
X45201905Y-30877379D01*
X44916191Y-30877379D02*
X44916191Y-29877379D01*
X45011429Y-30020237D01*
X45106667Y-30115475D01*
X45201905Y-30163094D01*
X44297143Y-29877379D02*
X43678096Y-29877379D01*
X44011429Y-30258332D01*
X43868572Y-30258332D01*
X43773334Y-30305951D01*
X43725715Y-30353570D01*
X43678096Y-30448808D01*
X43678096Y-30686903D01*
X43725715Y-30782141D01*
X43773334Y-30829760D01*
X43868572Y-30877379D01*
X44154286Y-30877379D01*
X44249524Y-30829760D01*
X44297143Y-30782141D01*
%TO.C,C14*%
X45147858Y-35702141D02*
X45195477Y-35749760D01*
X45338334Y-35797379D01*
X45433572Y-35797379D01*
X45576429Y-35749760D01*
X45671667Y-35654522D01*
X45719286Y-35559284D01*
X45766905Y-35368808D01*
X45766905Y-35225951D01*
X45719286Y-35035475D01*
X45671667Y-34940237D01*
X45576429Y-34844999D01*
X45433572Y-34797379D01*
X45338334Y-34797379D01*
X45195477Y-34844999D01*
X45147858Y-34892618D01*
X44195477Y-35797379D02*
X44766905Y-35797379D01*
X44481191Y-35797379D02*
X44481191Y-34797379D01*
X44576429Y-34940237D01*
X44671667Y-35035475D01*
X44766905Y-35083094D01*
X43338334Y-35130713D02*
X43338334Y-35797379D01*
X43576429Y-34749760D02*
X43814524Y-35464046D01*
X43195477Y-35464046D01*
%TO.C,C15*%
X32067857Y-77307142D02*
X32115476Y-77354761D01*
X32258333Y-77402380D01*
X32353571Y-77402380D01*
X32496428Y-77354761D01*
X32591666Y-77259523D01*
X32639285Y-77164285D01*
X32686904Y-76973809D01*
X32686904Y-76830952D01*
X32639285Y-76640476D01*
X32591666Y-76545238D01*
X32496428Y-76450000D01*
X32353571Y-76402380D01*
X32258333Y-76402380D01*
X32115476Y-76450000D01*
X32067857Y-76497619D01*
X31115476Y-77402380D02*
X31686904Y-77402380D01*
X31401190Y-77402380D02*
X31401190Y-76402380D01*
X31496428Y-76545238D01*
X31591666Y-76640476D01*
X31686904Y-76688095D01*
X30210714Y-76402380D02*
X30686904Y-76402380D01*
X30734523Y-76878571D01*
X30686904Y-76830952D01*
X30591666Y-76783333D01*
X30353571Y-76783333D01*
X30258333Y-76830952D01*
X30210714Y-76878571D01*
X30163095Y-76973809D01*
X30163095Y-77211904D01*
X30210714Y-77307142D01*
X30258333Y-77354761D01*
X30353571Y-77402380D01*
X30591666Y-77402380D01*
X30686904Y-77354761D01*
X30734523Y-77307142D01*
%TO.C,C16*%
X32067857Y-123027142D02*
X32115476Y-123074761D01*
X32258333Y-123122380D01*
X32353571Y-123122380D01*
X32496428Y-123074761D01*
X32591666Y-122979523D01*
X32639285Y-122884285D01*
X32686904Y-122693809D01*
X32686904Y-122550952D01*
X32639285Y-122360476D01*
X32591666Y-122265238D01*
X32496428Y-122170000D01*
X32353571Y-122122380D01*
X32258333Y-122122380D01*
X32115476Y-122170000D01*
X32067857Y-122217619D01*
X31115476Y-123122380D02*
X31686904Y-123122380D01*
X31401190Y-123122380D02*
X31401190Y-122122380D01*
X31496428Y-122265238D01*
X31591666Y-122360476D01*
X31686904Y-122408095D01*
X30258333Y-122122380D02*
X30448809Y-122122380D01*
X30544047Y-122170000D01*
X30591666Y-122217619D01*
X30686904Y-122360476D01*
X30734523Y-122550952D01*
X30734523Y-122931904D01*
X30686904Y-123027142D01*
X30639285Y-123074761D01*
X30544047Y-123122380D01*
X30353571Y-123122380D01*
X30258333Y-123074761D01*
X30210714Y-123027142D01*
X30163095Y-122931904D01*
X30163095Y-122693809D01*
X30210714Y-122598571D01*
X30258333Y-122550952D01*
X30353571Y-122503333D01*
X30544047Y-122503333D01*
X30639285Y-122550952D01*
X30686904Y-122598571D01*
X30734523Y-122693809D01*
%TO.C,C17*%
X69507858Y-74257141D02*
X69555477Y-74304760D01*
X69698334Y-74352379D01*
X69793572Y-74352379D01*
X69936429Y-74304760D01*
X70031667Y-74209522D01*
X70079286Y-74114284D01*
X70126905Y-73923808D01*
X70126905Y-73780951D01*
X70079286Y-73590475D01*
X70031667Y-73495237D01*
X69936429Y-73399999D01*
X69793572Y-73352379D01*
X69698334Y-73352379D01*
X69555477Y-73399999D01*
X69507858Y-73447618D01*
X68555477Y-74352379D02*
X69126905Y-74352379D01*
X68841191Y-74352379D02*
X68841191Y-73352379D01*
X68936429Y-73495237D01*
X69031667Y-73590475D01*
X69126905Y-73638094D01*
X68222143Y-73352379D02*
X67555477Y-73352379D01*
X67984048Y-74352379D01*
%TO.C,C18*%
X70822857Y-120567142D02*
X70870476Y-120614761D01*
X71013333Y-120662380D01*
X71108571Y-120662380D01*
X71251428Y-120614761D01*
X71346666Y-120519523D01*
X71394285Y-120424285D01*
X71441904Y-120233809D01*
X71441904Y-120090952D01*
X71394285Y-119900476D01*
X71346666Y-119805238D01*
X71251428Y-119710000D01*
X71108571Y-119662380D01*
X71013333Y-119662380D01*
X70870476Y-119710000D01*
X70822857Y-119757619D01*
X69870476Y-120662380D02*
X70441904Y-120662380D01*
X70156190Y-120662380D02*
X70156190Y-119662380D01*
X70251428Y-119805238D01*
X70346666Y-119900476D01*
X70441904Y-119948095D01*
X69299047Y-120090952D02*
X69394285Y-120043333D01*
X69441904Y-119995714D01*
X69489523Y-119900476D01*
X69489523Y-119852857D01*
X69441904Y-119757619D01*
X69394285Y-119710000D01*
X69299047Y-119662380D01*
X69108571Y-119662380D01*
X69013333Y-119710000D01*
X68965714Y-119757619D01*
X68918095Y-119852857D01*
X68918095Y-119900476D01*
X68965714Y-119995714D01*
X69013333Y-120043333D01*
X69108571Y-120090952D01*
X69299047Y-120090952D01*
X69394285Y-120138571D01*
X69441904Y-120186190D01*
X69489523Y-120281428D01*
X69489523Y-120471904D01*
X69441904Y-120567142D01*
X69394285Y-120614761D01*
X69299047Y-120662380D01*
X69108571Y-120662380D01*
X69013333Y-120614761D01*
X68965714Y-120567142D01*
X68918095Y-120471904D01*
X68918095Y-120281428D01*
X68965714Y-120186190D01*
X69013333Y-120138571D01*
X69108571Y-120090952D01*
%TO.C,C19*%
X79347142Y-23702142D02*
X79394761Y-23654523D01*
X79442380Y-23511666D01*
X79442380Y-23416428D01*
X79394761Y-23273571D01*
X79299523Y-23178333D01*
X79204285Y-23130714D01*
X79013809Y-23083095D01*
X78870952Y-23083095D01*
X78680476Y-23130714D01*
X78585238Y-23178333D01*
X78490000Y-23273571D01*
X78442380Y-23416428D01*
X78442380Y-23511666D01*
X78490000Y-23654523D01*
X78537619Y-23702142D01*
X79442380Y-24654523D02*
X79442380Y-24083095D01*
X79442380Y-24368809D02*
X78442380Y-24368809D01*
X78585238Y-24273571D01*
X78680476Y-24178333D01*
X78728095Y-24083095D01*
X79442380Y-25130714D02*
X79442380Y-25321190D01*
X79394761Y-25416428D01*
X79347142Y-25464047D01*
X79204285Y-25559285D01*
X79013809Y-25606904D01*
X78632857Y-25606904D01*
X78537619Y-25559285D01*
X78490000Y-25511666D01*
X78442380Y-25416428D01*
X78442380Y-25225952D01*
X78490000Y-25130714D01*
X78537619Y-25083095D01*
X78632857Y-25035476D01*
X78870952Y-25035476D01*
X78966190Y-25083095D01*
X79013809Y-25130714D01*
X79061428Y-25225952D01*
X79061428Y-25416428D01*
X79013809Y-25511666D01*
X78966190Y-25559285D01*
X78870952Y-25606904D01*
%TO.C,C20*%
X59822142Y-23662142D02*
X59869761Y-23614523D01*
X59917380Y-23471666D01*
X59917380Y-23376428D01*
X59869761Y-23233571D01*
X59774523Y-23138333D01*
X59679285Y-23090714D01*
X59488809Y-23043095D01*
X59345952Y-23043095D01*
X59155476Y-23090714D01*
X59060238Y-23138333D01*
X58965000Y-23233571D01*
X58917380Y-23376428D01*
X58917380Y-23471666D01*
X58965000Y-23614523D01*
X59012619Y-23662142D01*
X59012619Y-24043095D02*
X58965000Y-24090714D01*
X58917380Y-24185952D01*
X58917380Y-24424047D01*
X58965000Y-24519285D01*
X59012619Y-24566904D01*
X59107857Y-24614523D01*
X59203095Y-24614523D01*
X59345952Y-24566904D01*
X59917380Y-23995476D01*
X59917380Y-24614523D01*
X58917380Y-25233571D02*
X58917380Y-25328809D01*
X58965000Y-25424047D01*
X59012619Y-25471666D01*
X59107857Y-25519285D01*
X59298333Y-25566904D01*
X59536428Y-25566904D01*
X59726904Y-25519285D01*
X59822142Y-25471666D01*
X59869761Y-25424047D01*
X59917380Y-25328809D01*
X59917380Y-25233571D01*
X59869761Y-25138333D01*
X59822142Y-25090714D01*
X59726904Y-25043095D01*
X59536428Y-24995476D01*
X59298333Y-24995476D01*
X59107857Y-25043095D01*
X59012619Y-25090714D01*
X58965000Y-25138333D01*
X58917380Y-25233571D01*
%TO.C,D1*%
X42057380Y-45811904D02*
X41057380Y-45811904D01*
X41057380Y-46050000D01*
X41105000Y-46192857D01*
X41200238Y-46288095D01*
X41295476Y-46335714D01*
X41485952Y-46383333D01*
X41628809Y-46383333D01*
X41819285Y-46335714D01*
X41914523Y-46288095D01*
X42009761Y-46192857D01*
X42057380Y-46050000D01*
X42057380Y-45811904D01*
X42057380Y-47335714D02*
X42057380Y-46764285D01*
X42057380Y-47050000D02*
X41057380Y-47050000D01*
X41200238Y-46954761D01*
X41295476Y-46859523D01*
X41343095Y-46764285D01*
X42057380Y-48828095D02*
X41057380Y-48828095D01*
X42057380Y-49399523D02*
X41485952Y-48970952D01*
X41057380Y-49399523D02*
X41628809Y-48828095D01*
%TO.C,D2*%
X44597380Y-45811904D02*
X43597380Y-45811904D01*
X43597380Y-46050000D01*
X43645000Y-46192857D01*
X43740238Y-46288095D01*
X43835476Y-46335714D01*
X44025952Y-46383333D01*
X44168809Y-46383333D01*
X44359285Y-46335714D01*
X44454523Y-46288095D01*
X44549761Y-46192857D01*
X44597380Y-46050000D01*
X44597380Y-45811904D01*
X43692619Y-46764285D02*
X43645000Y-46811904D01*
X43597380Y-46907142D01*
X43597380Y-47145238D01*
X43645000Y-47240476D01*
X43692619Y-47288095D01*
X43787857Y-47335714D01*
X43883095Y-47335714D01*
X44025952Y-47288095D01*
X44597380Y-46716666D01*
X44597380Y-47335714D01*
X45232380Y-43748095D02*
X44232380Y-43748095D01*
X45232380Y-44319523D02*
X44660952Y-43890952D01*
X44232380Y-44319523D02*
X44803809Y-43748095D01*
%TO.C,D3*%
X45232380Y-90896904D02*
X44232380Y-90896904D01*
X44232380Y-91135000D01*
X44280000Y-91277857D01*
X44375238Y-91373095D01*
X44470476Y-91420714D01*
X44660952Y-91468333D01*
X44803809Y-91468333D01*
X44994285Y-91420714D01*
X45089523Y-91373095D01*
X45184761Y-91277857D01*
X45232380Y-91135000D01*
X45232380Y-90896904D01*
X44232380Y-91801666D02*
X44232380Y-92420714D01*
X44613333Y-92087380D01*
X44613333Y-92230238D01*
X44660952Y-92325476D01*
X44708571Y-92373095D01*
X44803809Y-92420714D01*
X45041904Y-92420714D01*
X45137142Y-92373095D01*
X45184761Y-92325476D01*
X45232380Y-92230238D01*
X45232380Y-91944523D01*
X45184761Y-91849285D01*
X45137142Y-91801666D01*
X45867380Y-94548095D02*
X44867380Y-94548095D01*
X45867380Y-95119523D02*
X45295952Y-94690952D01*
X44867380Y-95119523D02*
X45438809Y-94548095D01*
%TO.C,D4*%
X42347379Y-91071903D02*
X41347379Y-91071903D01*
X41347379Y-91309999D01*
X41394999Y-91452856D01*
X41490237Y-91548094D01*
X41585475Y-91595713D01*
X41775951Y-91643332D01*
X41918808Y-91643332D01*
X42109284Y-91595713D01*
X42204522Y-91548094D01*
X42299760Y-91452856D01*
X42347379Y-91309999D01*
X42347379Y-91071903D01*
X41680713Y-92500475D02*
X42347379Y-92500475D01*
X41299760Y-92262379D02*
X42014046Y-92024284D01*
X42014046Y-92643332D01*
X42347379Y-87738094D02*
X41347379Y-87738094D01*
X42347379Y-88309522D02*
X41775951Y-87880951D01*
X41347379Y-88309522D02*
X41918808Y-87738094D01*
%TO.C,D6*%
X44597380Y-69306904D02*
X43597380Y-69306904D01*
X43597380Y-69545000D01*
X43645000Y-69687857D01*
X43740238Y-69783095D01*
X43835476Y-69830714D01*
X44025952Y-69878333D01*
X44168809Y-69878333D01*
X44359285Y-69830714D01*
X44454523Y-69783095D01*
X44549761Y-69687857D01*
X44597380Y-69545000D01*
X44597380Y-69306904D01*
X43597380Y-70735476D02*
X43597380Y-70545000D01*
X43645000Y-70449761D01*
X43692619Y-70402142D01*
X43835476Y-70306904D01*
X44025952Y-70259285D01*
X44406904Y-70259285D01*
X44502142Y-70306904D01*
X44549761Y-70354523D01*
X44597380Y-70449761D01*
X44597380Y-70640238D01*
X44549761Y-70735476D01*
X44502142Y-70783095D01*
X44406904Y-70830714D01*
X44168809Y-70830714D01*
X44073571Y-70783095D01*
X44025952Y-70735476D01*
X43978333Y-70640238D01*
X43978333Y-70449761D01*
X44025952Y-70354523D01*
X44073571Y-70306904D01*
X44168809Y-70259285D01*
X45232380Y-65338095D02*
X44232380Y-65338095D01*
X45232380Y-65909523D02*
X44660952Y-65480952D01*
X44232380Y-65909523D02*
X44803809Y-65338095D01*
%TO.C,D7*%
X43142381Y-68756905D02*
X42142381Y-68756905D01*
X42142381Y-68995001D01*
X42190001Y-69137858D01*
X42285239Y-69233096D01*
X42380477Y-69280715D01*
X42570953Y-69328334D01*
X42713810Y-69328334D01*
X42904286Y-69280715D01*
X42999524Y-69233096D01*
X43094762Y-69137858D01*
X43142381Y-68995001D01*
X43142381Y-68756905D01*
X42142381Y-69661667D02*
X42142381Y-70328334D01*
X43142381Y-69899762D01*
X43142381Y-72408096D02*
X42142381Y-72408096D01*
X43142381Y-72979524D02*
X42570953Y-72550953D01*
X42142381Y-72979524D02*
X42713810Y-72408096D01*
%TO.C,D8*%
X45262379Y-115201903D02*
X44262379Y-115201903D01*
X44262379Y-115439999D01*
X44309999Y-115582856D01*
X44405237Y-115678094D01*
X44500475Y-115725713D01*
X44690951Y-115773332D01*
X44833808Y-115773332D01*
X45024284Y-115725713D01*
X45119522Y-115678094D01*
X45214760Y-115582856D01*
X45262379Y-115439999D01*
X45262379Y-115201903D01*
X44690951Y-116344760D02*
X44643332Y-116249522D01*
X44595713Y-116201903D01*
X44500475Y-116154284D01*
X44452856Y-116154284D01*
X44357618Y-116201903D01*
X44309999Y-116249522D01*
X44262379Y-116344760D01*
X44262379Y-116535237D01*
X44309999Y-116630475D01*
X44357618Y-116678094D01*
X44452856Y-116725713D01*
X44500475Y-116725713D01*
X44595713Y-116678094D01*
X44643332Y-116630475D01*
X44690951Y-116535237D01*
X44690951Y-116344760D01*
X44738570Y-116249522D01*
X44786189Y-116201903D01*
X44881427Y-116154284D01*
X45071903Y-116154284D01*
X45167141Y-116201903D01*
X45214760Y-116249522D01*
X45262379Y-116344760D01*
X45262379Y-116535237D01*
X45214760Y-116630475D01*
X45167141Y-116678094D01*
X45071903Y-116725713D01*
X44881427Y-116725713D01*
X44786189Y-116678094D01*
X44738570Y-116630475D01*
X44690951Y-116535237D01*
X45262379Y-111868094D02*
X44262379Y-111868094D01*
X45262379Y-112439522D02*
X44690951Y-112010951D01*
X44262379Y-112439522D02*
X44833808Y-111868094D01*
%TO.C,D9*%
X42592381Y-114786905D02*
X41592381Y-114786905D01*
X41592381Y-115025001D01*
X41640001Y-115167858D01*
X41735239Y-115263096D01*
X41830477Y-115310715D01*
X42020953Y-115358334D01*
X42163810Y-115358334D01*
X42354286Y-115310715D01*
X42449524Y-115263096D01*
X42544762Y-115167858D01*
X42592381Y-115025001D01*
X42592381Y-114786905D01*
X42592381Y-115834524D02*
X42592381Y-116025001D01*
X42544762Y-116120239D01*
X42497143Y-116167858D01*
X42354286Y-116263096D01*
X42163810Y-116310715D01*
X41782858Y-116310715D01*
X41687620Y-116263096D01*
X41640001Y-116215477D01*
X41592381Y-116120239D01*
X41592381Y-115929762D01*
X41640001Y-115834524D01*
X41687620Y-115786905D01*
X41782858Y-115739286D01*
X42020953Y-115739286D01*
X42116191Y-115786905D01*
X42163810Y-115834524D01*
X42211429Y-115929762D01*
X42211429Y-116120239D01*
X42163810Y-116215477D01*
X42116191Y-116263096D01*
X42020953Y-116310715D01*
X42592381Y-119313095D02*
X41592381Y-119313095D01*
X42592381Y-119884523D02*
X42020953Y-119455952D01*
X41592381Y-119884523D02*
X42163810Y-119313095D01*
%TO.C,D12*%
X89809285Y-22237380D02*
X89809285Y-21237380D01*
X89571190Y-21237380D01*
X89428333Y-21285000D01*
X89333095Y-21380238D01*
X89285476Y-21475476D01*
X89237857Y-21665952D01*
X89237857Y-21808809D01*
X89285476Y-21999285D01*
X89333095Y-22094523D01*
X89428333Y-22189761D01*
X89571190Y-22237380D01*
X89809285Y-22237380D01*
X88285476Y-22237380D02*
X88856904Y-22237380D01*
X88571190Y-22237380D02*
X88571190Y-21237380D01*
X88666428Y-21380238D01*
X88761666Y-21475476D01*
X88856904Y-21523095D01*
X87904523Y-21332619D02*
X87856904Y-21285000D01*
X87761666Y-21237380D01*
X87523571Y-21237380D01*
X87428333Y-21285000D01*
X87380714Y-21332619D01*
X87333095Y-21427857D01*
X87333095Y-21523095D01*
X87380714Y-21665952D01*
X87952142Y-22237380D01*
X87333095Y-22237380D01*
X81871904Y-24337380D02*
X81871904Y-23337380D01*
X81300476Y-24337380D02*
X81729047Y-23765952D01*
X81300476Y-23337380D02*
X81871904Y-23908809D01*
%TO.C,D13*%
X70124285Y-32397380D02*
X70124285Y-31397380D01*
X69886190Y-31397380D01*
X69743333Y-31445000D01*
X69648095Y-31540238D01*
X69600476Y-31635476D01*
X69552857Y-31825952D01*
X69552857Y-31968809D01*
X69600476Y-32159285D01*
X69648095Y-32254523D01*
X69743333Y-32349761D01*
X69886190Y-32397380D01*
X70124285Y-32397380D01*
X68600476Y-32397380D02*
X69171904Y-32397380D01*
X68886190Y-32397380D02*
X68886190Y-31397380D01*
X68981428Y-31540238D01*
X69076666Y-31635476D01*
X69171904Y-31683095D01*
X68267142Y-31397380D02*
X67648095Y-31397380D01*
X67981428Y-31778333D01*
X67838571Y-31778333D01*
X67743333Y-31825952D01*
X67695714Y-31873571D01*
X67648095Y-31968809D01*
X67648095Y-32206904D01*
X67695714Y-32302142D01*
X67743333Y-32349761D01*
X67838571Y-32397380D01*
X68124285Y-32397380D01*
X68219523Y-32349761D01*
X68267142Y-32302142D01*
X75521904Y-30297380D02*
X75521904Y-29297380D01*
X74950476Y-30297380D02*
X75379047Y-29725952D01*
X74950476Y-29297380D02*
X75521904Y-29868809D01*
%TO.C,J1*%
X76867380Y-32246666D02*
X77581666Y-32246666D01*
X77724523Y-32199047D01*
X77819761Y-32103809D01*
X77867380Y-31960952D01*
X77867380Y-31865714D01*
X77867380Y-33246666D02*
X77867380Y-32675238D01*
X77867380Y-32960952D02*
X76867380Y-32960952D01*
X77010238Y-32865714D01*
X77105476Y-32770476D01*
X77153095Y-32675238D01*
%TO.C,Q1*%
X110280238Y-20042619D02*
X110375476Y-19995000D01*
X110470714Y-19899761D01*
X110613571Y-19756904D01*
X110708809Y-19709285D01*
X110804047Y-19709285D01*
X110756428Y-19947380D02*
X110851666Y-19899761D01*
X110946904Y-19804523D01*
X110994523Y-19614047D01*
X110994523Y-19280714D01*
X110946904Y-19090238D01*
X110851666Y-18995000D01*
X110756428Y-18947380D01*
X110565952Y-18947380D01*
X110470714Y-18995000D01*
X110375476Y-19090238D01*
X110327857Y-19280714D01*
X110327857Y-19614047D01*
X110375476Y-19804523D01*
X110470714Y-19899761D01*
X110565952Y-19947380D01*
X110756428Y-19947380D01*
X109375476Y-19947380D02*
X109946904Y-19947380D01*
X109661190Y-19947380D02*
X109661190Y-18947380D01*
X109756428Y-19090238D01*
X109851666Y-19185476D01*
X109946904Y-19233095D01*
%TO.C,Q2*%
X51860238Y-78847619D02*
X51955476Y-78800000D01*
X52050714Y-78704761D01*
X52193571Y-78561904D01*
X52288809Y-78514285D01*
X52384047Y-78514285D01*
X52336428Y-78752380D02*
X52431666Y-78704761D01*
X52526904Y-78609523D01*
X52574523Y-78419047D01*
X52574523Y-78085714D01*
X52526904Y-77895238D01*
X52431666Y-77800000D01*
X52336428Y-77752380D01*
X52145952Y-77752380D01*
X52050714Y-77800000D01*
X51955476Y-77895238D01*
X51907857Y-78085714D01*
X51907857Y-78419047D01*
X51955476Y-78609523D01*
X52050714Y-78704761D01*
X52145952Y-78752380D01*
X52336428Y-78752380D01*
X51526904Y-77847619D02*
X51479285Y-77800000D01*
X51384047Y-77752380D01*
X51145952Y-77752380D01*
X51050714Y-77800000D01*
X51003095Y-77847619D01*
X50955476Y-77942857D01*
X50955476Y-78038095D01*
X51003095Y-78180952D01*
X51574523Y-78752380D01*
X50955476Y-78752380D01*
%TO.C,Q3*%
X61385238Y-86082619D02*
X61480476Y-86035000D01*
X61575714Y-85939761D01*
X61718571Y-85796904D01*
X61813809Y-85749285D01*
X61909047Y-85749285D01*
X61861428Y-85987380D02*
X61956666Y-85939761D01*
X62051904Y-85844523D01*
X62099523Y-85654047D01*
X62099523Y-85320714D01*
X62051904Y-85130238D01*
X61956666Y-85035000D01*
X61861428Y-84987380D01*
X61670952Y-84987380D01*
X61575714Y-85035000D01*
X61480476Y-85130238D01*
X61432857Y-85320714D01*
X61432857Y-85654047D01*
X61480476Y-85844523D01*
X61575714Y-85939761D01*
X61670952Y-85987380D01*
X61861428Y-85987380D01*
X61099523Y-84987380D02*
X60480476Y-84987380D01*
X60813809Y-85368333D01*
X60670952Y-85368333D01*
X60575714Y-85415952D01*
X60528095Y-85463571D01*
X60480476Y-85558809D01*
X60480476Y-85796904D01*
X60528095Y-85892142D01*
X60575714Y-85939761D01*
X60670952Y-85987380D01*
X60956666Y-85987380D01*
X61051904Y-85939761D01*
X61099523Y-85892142D01*
%TO.C,Q4*%
X98977238Y-71100619D02*
X99072476Y-71053000D01*
X99167714Y-70957761D01*
X99310571Y-70814904D01*
X99405809Y-70767285D01*
X99501047Y-70767285D01*
X99453428Y-71005380D02*
X99548666Y-70957761D01*
X99643904Y-70862523D01*
X99691523Y-70672047D01*
X99691523Y-70338714D01*
X99643904Y-70148238D01*
X99548666Y-70053000D01*
X99453428Y-70005380D01*
X99262952Y-70005380D01*
X99167714Y-70053000D01*
X99072476Y-70148238D01*
X99024857Y-70338714D01*
X99024857Y-70672047D01*
X99072476Y-70862523D01*
X99167714Y-70957761D01*
X99262952Y-71005380D01*
X99453428Y-71005380D01*
X98167714Y-70338714D02*
X98167714Y-71005380D01*
X98405809Y-69957761D02*
X98643904Y-70672047D01*
X98024857Y-70672047D01*
%TO.C,R1*%
X38247380Y-26698333D02*
X37771190Y-26365000D01*
X38247380Y-26126904D02*
X37247380Y-26126904D01*
X37247380Y-26507857D01*
X37295000Y-26603095D01*
X37342619Y-26650714D01*
X37437857Y-26698333D01*
X37580714Y-26698333D01*
X37675952Y-26650714D01*
X37723571Y-26603095D01*
X37771190Y-26507857D01*
X37771190Y-26126904D01*
X38247380Y-27650714D02*
X38247380Y-27079285D01*
X38247380Y-27365000D02*
X37247380Y-27365000D01*
X37390238Y-27269761D01*
X37485476Y-27174523D01*
X37533095Y-27079285D01*
%TO.C,R2*%
X33516666Y-48907380D02*
X33850000Y-48431190D01*
X34088095Y-48907380D02*
X34088095Y-47907380D01*
X33707142Y-47907380D01*
X33611904Y-47955000D01*
X33564285Y-48002619D01*
X33516666Y-48097857D01*
X33516666Y-48240714D01*
X33564285Y-48335952D01*
X33611904Y-48383571D01*
X33707142Y-48431190D01*
X34088095Y-48431190D01*
X33135714Y-48002619D02*
X33088095Y-47955000D01*
X32992857Y-47907380D01*
X32754761Y-47907380D01*
X32659523Y-47955000D01*
X32611904Y-48002619D01*
X32564285Y-48097857D01*
X32564285Y-48193095D01*
X32611904Y-48335952D01*
X33183333Y-48907380D01*
X32564285Y-48907380D01*
%TO.C,R3*%
X39617381Y-90098332D02*
X39141191Y-89764999D01*
X39617381Y-89526903D02*
X38617381Y-89526903D01*
X38617381Y-89907856D01*
X38665001Y-90003094D01*
X38712620Y-90050713D01*
X38807858Y-90098332D01*
X38950715Y-90098332D01*
X39045953Y-90050713D01*
X39093572Y-90003094D01*
X39141191Y-89907856D01*
X39141191Y-89526903D01*
X38617381Y-90431665D02*
X38617381Y-91050713D01*
X38998334Y-90717379D01*
X38998334Y-90860237D01*
X39045953Y-90955475D01*
X39093572Y-91003094D01*
X39188810Y-91050713D01*
X39426905Y-91050713D01*
X39522143Y-91003094D01*
X39569762Y-90955475D01*
X39617381Y-90860237D01*
X39617381Y-90574522D01*
X39569762Y-90479284D01*
X39522143Y-90431665D01*
%TO.C,R4*%
X47772380Y-45113333D02*
X47296190Y-44780000D01*
X47772380Y-44541904D02*
X46772380Y-44541904D01*
X46772380Y-44922857D01*
X46820000Y-45018095D01*
X46867619Y-45065714D01*
X46962857Y-45113333D01*
X47105714Y-45113333D01*
X47200952Y-45065714D01*
X47248571Y-45018095D01*
X47296190Y-44922857D01*
X47296190Y-44541904D01*
X47105714Y-45970476D02*
X47772380Y-45970476D01*
X46724761Y-45732380D02*
X47439047Y-45494285D01*
X47439047Y-46113333D01*
%TO.C,R5*%
X48147381Y-90073334D02*
X47671191Y-89740001D01*
X48147381Y-89501905D02*
X47147381Y-89501905D01*
X47147381Y-89882858D01*
X47195001Y-89978096D01*
X47242620Y-90025715D01*
X47337858Y-90073334D01*
X47480715Y-90073334D01*
X47575953Y-90025715D01*
X47623572Y-89978096D01*
X47671191Y-89882858D01*
X47671191Y-89501905D01*
X47147381Y-90978096D02*
X47147381Y-90501905D01*
X47623572Y-90454286D01*
X47575953Y-90501905D01*
X47528334Y-90597143D01*
X47528334Y-90835239D01*
X47575953Y-90930477D01*
X47623572Y-90978096D01*
X47718810Y-91025715D01*
X47956905Y-91025715D01*
X48052143Y-90978096D01*
X48099762Y-90930477D01*
X48147381Y-90835239D01*
X48147381Y-90597143D01*
X48099762Y-90501905D01*
X48052143Y-90454286D01*
%TO.C,R6*%
X50947380Y-45113333D02*
X50471190Y-44780000D01*
X50947380Y-44541904D02*
X49947380Y-44541904D01*
X49947380Y-44922857D01*
X49995000Y-45018095D01*
X50042619Y-45065714D01*
X50137857Y-45113333D01*
X50280714Y-45113333D01*
X50375952Y-45065714D01*
X50423571Y-45018095D01*
X50471190Y-44922857D01*
X50471190Y-44541904D01*
X49947380Y-45970476D02*
X49947380Y-45780000D01*
X49995000Y-45684761D01*
X50042619Y-45637142D01*
X50185476Y-45541904D01*
X50375952Y-45494285D01*
X50756904Y-45494285D01*
X50852142Y-45541904D01*
X50899761Y-45589523D01*
X50947380Y-45684761D01*
X50947380Y-45875238D01*
X50899761Y-45970476D01*
X50852142Y-46018095D01*
X50756904Y-46065714D01*
X50518809Y-46065714D01*
X50423571Y-46018095D01*
X50375952Y-45970476D01*
X50328333Y-45875238D01*
X50328333Y-45684761D01*
X50375952Y-45589523D01*
X50423571Y-45541904D01*
X50518809Y-45494285D01*
%TO.C,R7*%
X51327379Y-90198333D02*
X50851189Y-89865000D01*
X51327379Y-89626904D02*
X50327379Y-89626904D01*
X50327379Y-90007857D01*
X50374999Y-90103095D01*
X50422618Y-90150714D01*
X50517856Y-90198333D01*
X50660713Y-90198333D01*
X50755951Y-90150714D01*
X50803570Y-90103095D01*
X50851189Y-90007857D01*
X50851189Y-89626904D01*
X50327379Y-90531666D02*
X50327379Y-91198333D01*
X51327379Y-90769761D01*
%TO.C,R8*%
X31897380Y-26698333D02*
X31421190Y-26365000D01*
X31897380Y-26126904D02*
X30897380Y-26126904D01*
X30897380Y-26507857D01*
X30945000Y-26603095D01*
X30992619Y-26650714D01*
X31087857Y-26698333D01*
X31230714Y-26698333D01*
X31325952Y-26650714D01*
X31373571Y-26603095D01*
X31421190Y-26507857D01*
X31421190Y-26126904D01*
X31325952Y-27269761D02*
X31278333Y-27174523D01*
X31230714Y-27126904D01*
X31135476Y-27079285D01*
X31087857Y-27079285D01*
X30992619Y-27126904D01*
X30945000Y-27174523D01*
X30897380Y-27269761D01*
X30897380Y-27460238D01*
X30945000Y-27555476D01*
X30992619Y-27603095D01*
X31087857Y-27650714D01*
X31135476Y-27650714D01*
X31230714Y-27603095D01*
X31278333Y-27555476D01*
X31325952Y-27460238D01*
X31325952Y-27269761D01*
X31373571Y-27174523D01*
X31421190Y-27126904D01*
X31516428Y-27079285D01*
X31706904Y-27079285D01*
X31802142Y-27126904D01*
X31849761Y-27174523D01*
X31897380Y-27269761D01*
X31897380Y-27460238D01*
X31849761Y-27555476D01*
X31802142Y-27603095D01*
X31706904Y-27650714D01*
X31516428Y-27650714D01*
X31421190Y-27603095D01*
X31373571Y-27555476D01*
X31325952Y-27460238D01*
%TO.C,R9*%
X54122380Y-45113333D02*
X53646190Y-44780000D01*
X54122380Y-44541904D02*
X53122380Y-44541904D01*
X53122380Y-44922857D01*
X53170000Y-45018095D01*
X53217619Y-45065714D01*
X53312857Y-45113333D01*
X53455714Y-45113333D01*
X53550952Y-45065714D01*
X53598571Y-45018095D01*
X53646190Y-44922857D01*
X53646190Y-44541904D01*
X54122380Y-45589523D02*
X54122380Y-45780000D01*
X54074761Y-45875238D01*
X54027142Y-45922857D01*
X53884285Y-46018095D01*
X53693809Y-46065714D01*
X53312857Y-46065714D01*
X53217619Y-46018095D01*
X53170000Y-45970476D01*
X53122380Y-45875238D01*
X53122380Y-45684761D01*
X53170000Y-45589523D01*
X53217619Y-45541904D01*
X53312857Y-45494285D01*
X53550952Y-45494285D01*
X53646190Y-45541904D01*
X53693809Y-45589523D01*
X53741428Y-45684761D01*
X53741428Y-45875238D01*
X53693809Y-45970476D01*
X53646190Y-46018095D01*
X53550952Y-46065714D01*
%TO.C,R10*%
X54897379Y-89007141D02*
X54421189Y-88673808D01*
X54897379Y-88435713D02*
X53897379Y-88435713D01*
X53897379Y-88816665D01*
X53944999Y-88911903D01*
X53992618Y-88959522D01*
X54087856Y-89007141D01*
X54230713Y-89007141D01*
X54325951Y-88959522D01*
X54373570Y-88911903D01*
X54421189Y-88816665D01*
X54421189Y-88435713D01*
X54897379Y-89959522D02*
X54897379Y-89388094D01*
X54897379Y-89673808D02*
X53897379Y-89673808D01*
X54040237Y-89578570D01*
X54135475Y-89483332D01*
X54183094Y-89388094D01*
X53897379Y-90578570D02*
X53897379Y-90673808D01*
X53944999Y-90769046D01*
X53992618Y-90816665D01*
X54087856Y-90864284D01*
X54278332Y-90911903D01*
X54516427Y-90911903D01*
X54706903Y-90864284D01*
X54802141Y-90816665D01*
X54849760Y-90769046D01*
X54897379Y-90673808D01*
X54897379Y-90578570D01*
X54849760Y-90483332D01*
X54802141Y-90435713D01*
X54706903Y-90388094D01*
X54516427Y-90340475D01*
X54278332Y-90340475D01*
X54087856Y-90388094D01*
X53992618Y-90435713D01*
X53944999Y-90483332D01*
X53897379Y-90578570D01*
%TO.C,R12*%
X63837857Y-44462380D02*
X64171190Y-43986190D01*
X64409285Y-44462380D02*
X64409285Y-43462380D01*
X64028333Y-43462380D01*
X63933095Y-43510000D01*
X63885476Y-43557619D01*
X63837857Y-43652857D01*
X63837857Y-43795714D01*
X63885476Y-43890952D01*
X63933095Y-43938571D01*
X64028333Y-43986190D01*
X64409285Y-43986190D01*
X62885476Y-44462380D02*
X63456904Y-44462380D01*
X63171190Y-44462380D02*
X63171190Y-43462380D01*
X63266428Y-43605238D01*
X63361666Y-43700476D01*
X63456904Y-43748095D01*
X62504523Y-43557619D02*
X62456904Y-43510000D01*
X62361666Y-43462380D01*
X62123571Y-43462380D01*
X62028333Y-43510000D01*
X61980714Y-43557619D01*
X61933095Y-43652857D01*
X61933095Y-43748095D01*
X61980714Y-43890952D01*
X62552142Y-44462380D01*
X61933095Y-44462380D01*
%TO.C,R13*%
X70822857Y-94627380D02*
X71156190Y-94151190D01*
X71394285Y-94627380D02*
X71394285Y-93627380D01*
X71013333Y-93627380D01*
X70918095Y-93675000D01*
X70870476Y-93722619D01*
X70822857Y-93817857D01*
X70822857Y-93960714D01*
X70870476Y-94055952D01*
X70918095Y-94103571D01*
X71013333Y-94151190D01*
X71394285Y-94151190D01*
X69870476Y-94627380D02*
X70441904Y-94627380D01*
X70156190Y-94627380D02*
X70156190Y-93627380D01*
X70251428Y-93770238D01*
X70346666Y-93865476D01*
X70441904Y-93913095D01*
X69537142Y-93627380D02*
X68918095Y-93627380D01*
X69251428Y-94008333D01*
X69108571Y-94008333D01*
X69013333Y-94055952D01*
X68965714Y-94103571D01*
X68918095Y-94198809D01*
X68918095Y-94436904D01*
X68965714Y-94532142D01*
X69013333Y-94579761D01*
X69108571Y-94627380D01*
X69394285Y-94627380D01*
X69489523Y-94579761D01*
X69537142Y-94532142D01*
%TO.C,R14*%
X35072380Y-26222142D02*
X34596190Y-25888809D01*
X35072380Y-25650714D02*
X34072380Y-25650714D01*
X34072380Y-26031666D01*
X34120000Y-26126904D01*
X34167619Y-26174523D01*
X34262857Y-26222142D01*
X34405714Y-26222142D01*
X34500952Y-26174523D01*
X34548571Y-26126904D01*
X34596190Y-26031666D01*
X34596190Y-25650714D01*
X35072380Y-27174523D02*
X35072380Y-26603095D01*
X35072380Y-26888809D02*
X34072380Y-26888809D01*
X34215238Y-26793571D01*
X34310476Y-26698333D01*
X34358095Y-26603095D01*
X34405714Y-28031666D02*
X35072380Y-28031666D01*
X34024761Y-27793571D02*
X34739047Y-27555476D01*
X34739047Y-28174523D01*
%TO.C,R15*%
X28722380Y-26222142D02*
X28246190Y-25888809D01*
X28722380Y-25650714D02*
X27722380Y-25650714D01*
X27722380Y-26031666D01*
X27770000Y-26126904D01*
X27817619Y-26174523D01*
X27912857Y-26222142D01*
X28055714Y-26222142D01*
X28150952Y-26174523D01*
X28198571Y-26126904D01*
X28246190Y-26031666D01*
X28246190Y-25650714D01*
X28722380Y-27174523D02*
X28722380Y-26603095D01*
X28722380Y-26888809D02*
X27722380Y-26888809D01*
X27865238Y-26793571D01*
X27960476Y-26698333D01*
X28008095Y-26603095D01*
X27722380Y-28079285D02*
X27722380Y-27603095D01*
X28198571Y-27555476D01*
X28150952Y-27603095D01*
X28103333Y-27698333D01*
X28103333Y-27936428D01*
X28150952Y-28031666D01*
X28198571Y-28079285D01*
X28293809Y-28126904D01*
X28531904Y-28126904D01*
X28627142Y-28079285D01*
X28674761Y-28031666D01*
X28722380Y-27936428D01*
X28722380Y-27698333D01*
X28674761Y-27603095D01*
X28627142Y-27555476D01*
%TO.C,R16*%
X89682380Y-44637142D02*
X89206190Y-44303809D01*
X89682380Y-44065714D02*
X88682380Y-44065714D01*
X88682380Y-44446666D01*
X88730000Y-44541904D01*
X88777619Y-44589523D01*
X88872857Y-44637142D01*
X89015714Y-44637142D01*
X89110952Y-44589523D01*
X89158571Y-44541904D01*
X89206190Y-44446666D01*
X89206190Y-44065714D01*
X89682380Y-45589523D02*
X89682380Y-45018095D01*
X89682380Y-45303809D02*
X88682380Y-45303809D01*
X88825238Y-45208571D01*
X88920476Y-45113333D01*
X88968095Y-45018095D01*
X88682380Y-46446666D02*
X88682380Y-46256190D01*
X88730000Y-46160952D01*
X88777619Y-46113333D01*
X88920476Y-46018095D01*
X89110952Y-45970476D01*
X89491904Y-45970476D01*
X89587142Y-46018095D01*
X89634761Y-46065714D01*
X89682380Y-46160952D01*
X89682380Y-46351428D01*
X89634761Y-46446666D01*
X89587142Y-46494285D01*
X89491904Y-46541904D01*
X89253809Y-46541904D01*
X89158571Y-46494285D01*
X89110952Y-46446666D01*
X89063333Y-46351428D01*
X89063333Y-46160952D01*
X89110952Y-46065714D01*
X89158571Y-46018095D01*
X89253809Y-45970476D01*
%TO.C,R18*%
X86907381Y-89727143D02*
X86431191Y-89393810D01*
X86907381Y-89155715D02*
X85907381Y-89155715D01*
X85907381Y-89536667D01*
X85955001Y-89631905D01*
X86002620Y-89679524D01*
X86097858Y-89727143D01*
X86240715Y-89727143D01*
X86335953Y-89679524D01*
X86383572Y-89631905D01*
X86431191Y-89536667D01*
X86431191Y-89155715D01*
X86907381Y-90679524D02*
X86907381Y-90108096D01*
X86907381Y-90393810D02*
X85907381Y-90393810D01*
X86050239Y-90298572D01*
X86145477Y-90203334D01*
X86193096Y-90108096D01*
X86335953Y-91250953D02*
X86288334Y-91155715D01*
X86240715Y-91108096D01*
X86145477Y-91060477D01*
X86097858Y-91060477D01*
X86002620Y-91108096D01*
X85955001Y-91155715D01*
X85907381Y-91250953D01*
X85907381Y-91441429D01*
X85955001Y-91536667D01*
X86002620Y-91584286D01*
X86097858Y-91631905D01*
X86145477Y-91631905D01*
X86240715Y-91584286D01*
X86288334Y-91536667D01*
X86335953Y-91441429D01*
X86335953Y-91250953D01*
X86383572Y-91155715D01*
X86431191Y-91108096D01*
X86526429Y-91060477D01*
X86716905Y-91060477D01*
X86812143Y-91108096D01*
X86859762Y-91155715D01*
X86907381Y-91250953D01*
X86907381Y-91441429D01*
X86859762Y-91536667D01*
X86812143Y-91584286D01*
X86716905Y-91631905D01*
X86526429Y-91631905D01*
X86431191Y-91584286D01*
X86383572Y-91536667D01*
X86335953Y-91441429D01*
%TO.C,R19*%
X90057381Y-90182143D02*
X89581191Y-89848810D01*
X90057381Y-89610715D02*
X89057381Y-89610715D01*
X89057381Y-89991667D01*
X89105001Y-90086905D01*
X89152620Y-90134524D01*
X89247858Y-90182143D01*
X89390715Y-90182143D01*
X89485953Y-90134524D01*
X89533572Y-90086905D01*
X89581191Y-89991667D01*
X89581191Y-89610715D01*
X90057381Y-91134524D02*
X90057381Y-90563096D01*
X90057381Y-90848810D02*
X89057381Y-90848810D01*
X89200239Y-90753572D01*
X89295477Y-90658334D01*
X89343096Y-90563096D01*
X90057381Y-91610715D02*
X90057381Y-91801191D01*
X90009762Y-91896429D01*
X89962143Y-91944048D01*
X89819286Y-92039286D01*
X89628810Y-92086905D01*
X89247858Y-92086905D01*
X89152620Y-92039286D01*
X89105001Y-91991667D01*
X89057381Y-91896429D01*
X89057381Y-91705953D01*
X89105001Y-91610715D01*
X89152620Y-91563096D01*
X89247858Y-91515477D01*
X89485953Y-91515477D01*
X89581191Y-91563096D01*
X89628810Y-91610715D01*
X89676429Y-91705953D01*
X89676429Y-91896429D01*
X89628810Y-91991667D01*
X89581191Y-92039286D01*
X89485953Y-92086905D01*
%TO.C,R20*%
X25547380Y-26222142D02*
X25071190Y-25888809D01*
X25547380Y-25650714D02*
X24547380Y-25650714D01*
X24547380Y-26031666D01*
X24595000Y-26126904D01*
X24642619Y-26174523D01*
X24737857Y-26222142D01*
X24880714Y-26222142D01*
X24975952Y-26174523D01*
X25023571Y-26126904D01*
X25071190Y-26031666D01*
X25071190Y-25650714D01*
X24642619Y-26603095D02*
X24595000Y-26650714D01*
X24547380Y-26745952D01*
X24547380Y-26984047D01*
X24595000Y-27079285D01*
X24642619Y-27126904D01*
X24737857Y-27174523D01*
X24833095Y-27174523D01*
X24975952Y-27126904D01*
X25547380Y-26555476D01*
X25547380Y-27174523D01*
X24547380Y-27793571D02*
X24547380Y-27888809D01*
X24595000Y-27984047D01*
X24642619Y-28031666D01*
X24737857Y-28079285D01*
X24928333Y-28126904D01*
X25166428Y-28126904D01*
X25356904Y-28079285D01*
X25452142Y-28031666D01*
X25499761Y-27984047D01*
X25547380Y-27888809D01*
X25547380Y-27793571D01*
X25499761Y-27698333D01*
X25452142Y-27650714D01*
X25356904Y-27603095D01*
X25166428Y-27555476D01*
X24928333Y-27555476D01*
X24737857Y-27603095D01*
X24642619Y-27650714D01*
X24595000Y-27698333D01*
X24547380Y-27793571D01*
%TO.C,R21*%
X92857380Y-44637142D02*
X92381190Y-44303809D01*
X92857380Y-44065714D02*
X91857380Y-44065714D01*
X91857380Y-44446666D01*
X91905000Y-44541904D01*
X91952619Y-44589523D01*
X92047857Y-44637142D01*
X92190714Y-44637142D01*
X92285952Y-44589523D01*
X92333571Y-44541904D01*
X92381190Y-44446666D01*
X92381190Y-44065714D01*
X91952619Y-45018095D02*
X91905000Y-45065714D01*
X91857380Y-45160952D01*
X91857380Y-45399047D01*
X91905000Y-45494285D01*
X91952619Y-45541904D01*
X92047857Y-45589523D01*
X92143095Y-45589523D01*
X92285952Y-45541904D01*
X92857380Y-44970476D01*
X92857380Y-45589523D01*
X92857380Y-46541904D02*
X92857380Y-45970476D01*
X92857380Y-46256190D02*
X91857380Y-46256190D01*
X92000238Y-46160952D01*
X92095476Y-46065714D01*
X92143095Y-45970476D01*
%TO.C,R22*%
X94087381Y-89947143D02*
X93611191Y-89613810D01*
X94087381Y-89375715D02*
X93087381Y-89375715D01*
X93087381Y-89756667D01*
X93135001Y-89851905D01*
X93182620Y-89899524D01*
X93277858Y-89947143D01*
X93420715Y-89947143D01*
X93515953Y-89899524D01*
X93563572Y-89851905D01*
X93611191Y-89756667D01*
X93611191Y-89375715D01*
X93182620Y-90328096D02*
X93135001Y-90375715D01*
X93087381Y-90470953D01*
X93087381Y-90709048D01*
X93135001Y-90804286D01*
X93182620Y-90851905D01*
X93277858Y-90899524D01*
X93373096Y-90899524D01*
X93515953Y-90851905D01*
X94087381Y-90280477D01*
X94087381Y-90899524D01*
X93182620Y-91280477D02*
X93135001Y-91328096D01*
X93087381Y-91423334D01*
X93087381Y-91661429D01*
X93135001Y-91756667D01*
X93182620Y-91804286D01*
X93277858Y-91851905D01*
X93373096Y-91851905D01*
X93515953Y-91804286D01*
X94087381Y-91232858D01*
X94087381Y-91851905D01*
%TO.C,R23*%
X96207379Y-44787141D02*
X95731189Y-44453808D01*
X96207379Y-44215713D02*
X95207379Y-44215713D01*
X95207379Y-44596665D01*
X95254999Y-44691903D01*
X95302618Y-44739522D01*
X95397856Y-44787141D01*
X95540713Y-44787141D01*
X95635951Y-44739522D01*
X95683570Y-44691903D01*
X95731189Y-44596665D01*
X95731189Y-44215713D01*
X95302618Y-45168094D02*
X95254999Y-45215713D01*
X95207379Y-45310951D01*
X95207379Y-45549046D01*
X95254999Y-45644284D01*
X95302618Y-45691903D01*
X95397856Y-45739522D01*
X95493094Y-45739522D01*
X95635951Y-45691903D01*
X96207379Y-45120475D01*
X96207379Y-45739522D01*
X95207379Y-46072856D02*
X95207379Y-46691903D01*
X95588332Y-46358570D01*
X95588332Y-46501427D01*
X95635951Y-46596665D01*
X95683570Y-46644284D01*
X95778808Y-46691903D01*
X96016903Y-46691903D01*
X96112141Y-46644284D01*
X96159760Y-46596665D01*
X96207379Y-46501427D01*
X96207379Y-46215713D01*
X96159760Y-46120475D01*
X96112141Y-46072856D01*
%TO.C,R24*%
X83332380Y-44637142D02*
X82856190Y-44303809D01*
X83332380Y-44065714D02*
X82332380Y-44065714D01*
X82332380Y-44446666D01*
X82380000Y-44541904D01*
X82427619Y-44589523D01*
X82522857Y-44637142D01*
X82665714Y-44637142D01*
X82760952Y-44589523D01*
X82808571Y-44541904D01*
X82856190Y-44446666D01*
X82856190Y-44065714D01*
X82427619Y-45018095D02*
X82380000Y-45065714D01*
X82332380Y-45160952D01*
X82332380Y-45399047D01*
X82380000Y-45494285D01*
X82427619Y-45541904D01*
X82522857Y-45589523D01*
X82618095Y-45589523D01*
X82760952Y-45541904D01*
X83332380Y-44970476D01*
X83332380Y-45589523D01*
X82665714Y-46446666D02*
X83332380Y-46446666D01*
X82284761Y-46208571D02*
X82999047Y-45970476D01*
X82999047Y-46589523D01*
%TO.C,R25*%
X95872379Y-90357142D02*
X95396189Y-90023809D01*
X95872379Y-89785714D02*
X94872379Y-89785714D01*
X94872379Y-90166666D01*
X94919999Y-90261904D01*
X94967618Y-90309523D01*
X95062856Y-90357142D01*
X95205713Y-90357142D01*
X95300951Y-90309523D01*
X95348570Y-90261904D01*
X95396189Y-90166666D01*
X95396189Y-89785714D01*
X94967618Y-90738095D02*
X94919999Y-90785714D01*
X94872379Y-90880952D01*
X94872379Y-91119047D01*
X94919999Y-91214285D01*
X94967618Y-91261904D01*
X95062856Y-91309523D01*
X95158094Y-91309523D01*
X95300951Y-91261904D01*
X95872379Y-90690476D01*
X95872379Y-91309523D01*
X94872379Y-92214285D02*
X94872379Y-91738095D01*
X95348570Y-91690476D01*
X95300951Y-91738095D01*
X95253332Y-91833333D01*
X95253332Y-92071428D01*
X95300951Y-92166666D01*
X95348570Y-92214285D01*
X95443808Y-92261904D01*
X95681903Y-92261904D01*
X95777141Y-92214285D01*
X95824760Y-92166666D01*
X95872379Y-92071428D01*
X95872379Y-91833333D01*
X95824760Y-91738095D01*
X95777141Y-91690476D01*
%TO.C,R26*%
X83507379Y-89847141D02*
X83031189Y-89513808D01*
X83507379Y-89275713D02*
X82507379Y-89275713D01*
X82507379Y-89656665D01*
X82554999Y-89751903D01*
X82602618Y-89799522D01*
X82697856Y-89847141D01*
X82840713Y-89847141D01*
X82935951Y-89799522D01*
X82983570Y-89751903D01*
X83031189Y-89656665D01*
X83031189Y-89275713D01*
X82602618Y-90228094D02*
X82554999Y-90275713D01*
X82507379Y-90370951D01*
X82507379Y-90609046D01*
X82554999Y-90704284D01*
X82602618Y-90751903D01*
X82697856Y-90799522D01*
X82793094Y-90799522D01*
X82935951Y-90751903D01*
X83507379Y-90180475D01*
X83507379Y-90799522D01*
X82507379Y-91656665D02*
X82507379Y-91466189D01*
X82554999Y-91370951D01*
X82602618Y-91323332D01*
X82745475Y-91228094D01*
X82935951Y-91180475D01*
X83316903Y-91180475D01*
X83412141Y-91228094D01*
X83459760Y-91275713D01*
X83507379Y-91370951D01*
X83507379Y-91561427D01*
X83459760Y-91656665D01*
X83412141Y-91704284D01*
X83316903Y-91751903D01*
X83078808Y-91751903D01*
X82983570Y-91704284D01*
X82935951Y-91656665D01*
X82888332Y-91561427D01*
X82888332Y-91370951D01*
X82935951Y-91275713D01*
X82983570Y-91228094D01*
X83078808Y-91180475D01*
%TO.C,R27*%
X108287857Y-27577379D02*
X108621190Y-27101189D01*
X108859285Y-27577379D02*
X108859285Y-26577379D01*
X108478333Y-26577379D01*
X108383095Y-26624999D01*
X108335476Y-26672618D01*
X108287857Y-26767856D01*
X108287857Y-26910713D01*
X108335476Y-27005951D01*
X108383095Y-27053570D01*
X108478333Y-27101189D01*
X108859285Y-27101189D01*
X107906904Y-26672618D02*
X107859285Y-26624999D01*
X107764047Y-26577379D01*
X107525952Y-26577379D01*
X107430714Y-26624999D01*
X107383095Y-26672618D01*
X107335476Y-26767856D01*
X107335476Y-26863094D01*
X107383095Y-27005951D01*
X107954523Y-27577379D01*
X107335476Y-27577379D01*
X107002142Y-26577379D02*
X106335476Y-26577379D01*
X106764047Y-27577379D01*
%TO.C,R28*%
X108807856Y-31467381D02*
X109141189Y-30991191D01*
X109379284Y-31467381D02*
X109379284Y-30467381D01*
X108998332Y-30467381D01*
X108903094Y-30515001D01*
X108855475Y-30562620D01*
X108807856Y-30657858D01*
X108807856Y-30800715D01*
X108855475Y-30895953D01*
X108903094Y-30943572D01*
X108998332Y-30991191D01*
X109379284Y-30991191D01*
X108426903Y-30562620D02*
X108379284Y-30515001D01*
X108284046Y-30467381D01*
X108045951Y-30467381D01*
X107950713Y-30515001D01*
X107903094Y-30562620D01*
X107855475Y-30657858D01*
X107855475Y-30753096D01*
X107903094Y-30895953D01*
X108474522Y-31467381D01*
X107855475Y-31467381D01*
X107284046Y-30895953D02*
X107379284Y-30848334D01*
X107426903Y-30800715D01*
X107474522Y-30705477D01*
X107474522Y-30657858D01*
X107426903Y-30562620D01*
X107379284Y-30515001D01*
X107284046Y-30467381D01*
X107093570Y-30467381D01*
X106998332Y-30515001D01*
X106950713Y-30562620D01*
X106903094Y-30657858D01*
X106903094Y-30705477D01*
X106950713Y-30800715D01*
X106998332Y-30848334D01*
X107093570Y-30895953D01*
X107284046Y-30895953D01*
X107379284Y-30943572D01*
X107426903Y-30991191D01*
X107474522Y-31086429D01*
X107474522Y-31276905D01*
X107426903Y-31372143D01*
X107379284Y-31419762D01*
X107284046Y-31467381D01*
X107093570Y-31467381D01*
X106998332Y-31419762D01*
X106950713Y-31372143D01*
X106903094Y-31276905D01*
X106903094Y-31086429D01*
X106950713Y-30991191D01*
X106998332Y-30943572D01*
X107093570Y-30895953D01*
%TO.C,R29*%
X39117379Y-69372141D02*
X38641189Y-69038808D01*
X39117379Y-68800713D02*
X38117379Y-68800713D01*
X38117379Y-69181665D01*
X38164999Y-69276903D01*
X38212618Y-69324522D01*
X38307856Y-69372141D01*
X38450713Y-69372141D01*
X38545951Y-69324522D01*
X38593570Y-69276903D01*
X38641189Y-69181665D01*
X38641189Y-68800713D01*
X38212618Y-69753094D02*
X38164999Y-69800713D01*
X38117379Y-69895951D01*
X38117379Y-70134046D01*
X38164999Y-70229284D01*
X38212618Y-70276903D01*
X38307856Y-70324522D01*
X38403094Y-70324522D01*
X38545951Y-70276903D01*
X39117379Y-69705475D01*
X39117379Y-70324522D01*
X39117379Y-70800713D02*
X39117379Y-70991189D01*
X39069760Y-71086427D01*
X39022141Y-71134046D01*
X38879284Y-71229284D01*
X38688808Y-71276903D01*
X38307856Y-71276903D01*
X38212618Y-71229284D01*
X38164999Y-71181665D01*
X38117379Y-71086427D01*
X38117379Y-70895951D01*
X38164999Y-70800713D01*
X38212618Y-70753094D01*
X38307856Y-70705475D01*
X38545951Y-70705475D01*
X38641189Y-70753094D01*
X38688808Y-70800713D01*
X38736427Y-70895951D01*
X38736427Y-71086427D01*
X38688808Y-71181665D01*
X38641189Y-71229284D01*
X38545951Y-71276903D01*
%TO.C,R30*%
X39452379Y-116392142D02*
X38976189Y-116058809D01*
X39452379Y-115820714D02*
X38452379Y-115820714D01*
X38452379Y-116201666D01*
X38499999Y-116296904D01*
X38547618Y-116344523D01*
X38642856Y-116392142D01*
X38785713Y-116392142D01*
X38880951Y-116344523D01*
X38928570Y-116296904D01*
X38976189Y-116201666D01*
X38976189Y-115820714D01*
X38452379Y-116725476D02*
X38452379Y-117344523D01*
X38833332Y-117011190D01*
X38833332Y-117154047D01*
X38880951Y-117249285D01*
X38928570Y-117296904D01*
X39023808Y-117344523D01*
X39261903Y-117344523D01*
X39357141Y-117296904D01*
X39404760Y-117249285D01*
X39452379Y-117154047D01*
X39452379Y-116868333D01*
X39404760Y-116773095D01*
X39357141Y-116725476D01*
X38452379Y-117963571D02*
X38452379Y-118058809D01*
X38499999Y-118154047D01*
X38547618Y-118201666D01*
X38642856Y-118249285D01*
X38833332Y-118296904D01*
X39071427Y-118296904D01*
X39261903Y-118249285D01*
X39357141Y-118201666D01*
X39404760Y-118154047D01*
X39452379Y-118058809D01*
X39452379Y-117963571D01*
X39404760Y-117868333D01*
X39357141Y-117820714D01*
X39261903Y-117773095D01*
X39071427Y-117725476D01*
X38833332Y-117725476D01*
X38642856Y-117773095D01*
X38547618Y-117820714D01*
X38499999Y-117868333D01*
X38452379Y-117963571D01*
%TO.C,R31*%
X48292379Y-70447141D02*
X47816189Y-70113808D01*
X48292379Y-69875713D02*
X47292379Y-69875713D01*
X47292379Y-70256665D01*
X47339999Y-70351903D01*
X47387618Y-70399522D01*
X47482856Y-70447141D01*
X47625713Y-70447141D01*
X47720951Y-70399522D01*
X47768570Y-70351903D01*
X47816189Y-70256665D01*
X47816189Y-69875713D01*
X47292379Y-70780475D02*
X47292379Y-71399522D01*
X47673332Y-71066189D01*
X47673332Y-71209046D01*
X47720951Y-71304284D01*
X47768570Y-71351903D01*
X47863808Y-71399522D01*
X48101903Y-71399522D01*
X48197141Y-71351903D01*
X48244760Y-71304284D01*
X48292379Y-71209046D01*
X48292379Y-70923332D01*
X48244760Y-70828094D01*
X48197141Y-70780475D01*
X48292379Y-72351903D02*
X48292379Y-71780475D01*
X48292379Y-72066189D02*
X47292379Y-72066189D01*
X47435237Y-71970951D01*
X47530475Y-71875713D01*
X47578094Y-71780475D01*
%TO.C,R32*%
X47767379Y-116972141D02*
X47291189Y-116638808D01*
X47767379Y-116400713D02*
X46767379Y-116400713D01*
X46767379Y-116781665D01*
X46814999Y-116876903D01*
X46862618Y-116924522D01*
X46957856Y-116972141D01*
X47100713Y-116972141D01*
X47195951Y-116924522D01*
X47243570Y-116876903D01*
X47291189Y-116781665D01*
X47291189Y-116400713D01*
X46767379Y-117305475D02*
X46767379Y-117924522D01*
X47148332Y-117591189D01*
X47148332Y-117734046D01*
X47195951Y-117829284D01*
X47243570Y-117876903D01*
X47338808Y-117924522D01*
X47576903Y-117924522D01*
X47672141Y-117876903D01*
X47719760Y-117829284D01*
X47767379Y-117734046D01*
X47767379Y-117448332D01*
X47719760Y-117353094D01*
X47672141Y-117305475D01*
X46862618Y-118305475D02*
X46814999Y-118353094D01*
X46767379Y-118448332D01*
X46767379Y-118686427D01*
X46814999Y-118781665D01*
X46862618Y-118829284D01*
X46957856Y-118876903D01*
X47053094Y-118876903D01*
X47195951Y-118829284D01*
X47767379Y-118257856D01*
X47767379Y-118876903D01*
%TO.C,R33*%
X41612857Y-82917381D02*
X41946190Y-82441191D01*
X42184285Y-82917381D02*
X42184285Y-81917381D01*
X41803333Y-81917381D01*
X41708095Y-81965001D01*
X41660476Y-82012620D01*
X41612857Y-82107858D01*
X41612857Y-82250715D01*
X41660476Y-82345953D01*
X41708095Y-82393572D01*
X41803333Y-82441191D01*
X42184285Y-82441191D01*
X41279523Y-81917381D02*
X40660476Y-81917381D01*
X40993809Y-82298334D01*
X40850952Y-82298334D01*
X40755714Y-82345953D01*
X40708095Y-82393572D01*
X40660476Y-82488810D01*
X40660476Y-82726905D01*
X40708095Y-82822143D01*
X40755714Y-82869762D01*
X40850952Y-82917381D01*
X41136666Y-82917381D01*
X41231904Y-82869762D01*
X41279523Y-82822143D01*
X40327142Y-81917381D02*
X39708095Y-81917381D01*
X40041428Y-82298334D01*
X39898571Y-82298334D01*
X39803333Y-82345953D01*
X39755714Y-82393572D01*
X39708095Y-82488810D01*
X39708095Y-82726905D01*
X39755714Y-82822143D01*
X39803333Y-82869762D01*
X39898571Y-82917381D01*
X40184285Y-82917381D01*
X40279523Y-82869762D01*
X40327142Y-82822143D01*
%TO.C,R34*%
X51887381Y-70037142D02*
X51411191Y-69703809D01*
X51887381Y-69465714D02*
X50887381Y-69465714D01*
X50887381Y-69846666D01*
X50935001Y-69941904D01*
X50982620Y-69989523D01*
X51077858Y-70037142D01*
X51220715Y-70037142D01*
X51315953Y-69989523D01*
X51363572Y-69941904D01*
X51411191Y-69846666D01*
X51411191Y-69465714D01*
X50887381Y-70370476D02*
X50887381Y-70989523D01*
X51268334Y-70656190D01*
X51268334Y-70799047D01*
X51315953Y-70894285D01*
X51363572Y-70941904D01*
X51458810Y-70989523D01*
X51696905Y-70989523D01*
X51792143Y-70941904D01*
X51839762Y-70894285D01*
X51887381Y-70799047D01*
X51887381Y-70513333D01*
X51839762Y-70418095D01*
X51792143Y-70370476D01*
X51220715Y-71846666D02*
X51887381Y-71846666D01*
X50839762Y-71608571D02*
X51554048Y-71370476D01*
X51554048Y-71989523D01*
%TO.C,R35*%
X51527381Y-115872143D02*
X51051191Y-115538810D01*
X51527381Y-115300715D02*
X50527381Y-115300715D01*
X50527381Y-115681667D01*
X50575001Y-115776905D01*
X50622620Y-115824524D01*
X50717858Y-115872143D01*
X50860715Y-115872143D01*
X50955953Y-115824524D01*
X51003572Y-115776905D01*
X51051191Y-115681667D01*
X51051191Y-115300715D01*
X50527381Y-116205477D02*
X50527381Y-116824524D01*
X50908334Y-116491191D01*
X50908334Y-116634048D01*
X50955953Y-116729286D01*
X51003572Y-116776905D01*
X51098810Y-116824524D01*
X51336905Y-116824524D01*
X51432143Y-116776905D01*
X51479762Y-116729286D01*
X51527381Y-116634048D01*
X51527381Y-116348334D01*
X51479762Y-116253096D01*
X51432143Y-116205477D01*
X50527381Y-117729286D02*
X50527381Y-117253096D01*
X51003572Y-117205477D01*
X50955953Y-117253096D01*
X50908334Y-117348334D01*
X50908334Y-117586429D01*
X50955953Y-117681667D01*
X51003572Y-117729286D01*
X51098810Y-117776905D01*
X51336905Y-117776905D01*
X51432143Y-117729286D01*
X51479762Y-117681667D01*
X51527381Y-117586429D01*
X51527381Y-117348334D01*
X51479762Y-117253096D01*
X51432143Y-117205477D01*
%TO.C,R36*%
X42397856Y-79367381D02*
X42731189Y-78891191D01*
X42969284Y-79367381D02*
X42969284Y-78367381D01*
X42588332Y-78367381D01*
X42493094Y-78415001D01*
X42445475Y-78462620D01*
X42397856Y-78557858D01*
X42397856Y-78700715D01*
X42445475Y-78795953D01*
X42493094Y-78843572D01*
X42588332Y-78891191D01*
X42969284Y-78891191D01*
X42064522Y-78367381D02*
X41445475Y-78367381D01*
X41778808Y-78748334D01*
X41635951Y-78748334D01*
X41540713Y-78795953D01*
X41493094Y-78843572D01*
X41445475Y-78938810D01*
X41445475Y-79176905D01*
X41493094Y-79272143D01*
X41540713Y-79319762D01*
X41635951Y-79367381D01*
X41921665Y-79367381D01*
X42016903Y-79319762D01*
X42064522Y-79272143D01*
X40588332Y-78367381D02*
X40778808Y-78367381D01*
X40874046Y-78415001D01*
X40921665Y-78462620D01*
X41016903Y-78605477D01*
X41064522Y-78795953D01*
X41064522Y-79176905D01*
X41016903Y-79272143D01*
X40969284Y-79319762D01*
X40874046Y-79367381D01*
X40683570Y-79367381D01*
X40588332Y-79319762D01*
X40540713Y-79272143D01*
X40493094Y-79176905D01*
X40493094Y-78938810D01*
X40540713Y-78843572D01*
X40588332Y-78795953D01*
X40683570Y-78748334D01*
X40874046Y-78748334D01*
X40969284Y-78795953D01*
X41016903Y-78843572D01*
X41064522Y-78938810D01*
%TO.C,R37*%
X54977381Y-69887143D02*
X54501191Y-69553810D01*
X54977381Y-69315715D02*
X53977381Y-69315715D01*
X53977381Y-69696667D01*
X54025001Y-69791905D01*
X54072620Y-69839524D01*
X54167858Y-69887143D01*
X54310715Y-69887143D01*
X54405953Y-69839524D01*
X54453572Y-69791905D01*
X54501191Y-69696667D01*
X54501191Y-69315715D01*
X53977381Y-70220477D02*
X53977381Y-70839524D01*
X54358334Y-70506191D01*
X54358334Y-70649048D01*
X54405953Y-70744286D01*
X54453572Y-70791905D01*
X54548810Y-70839524D01*
X54786905Y-70839524D01*
X54882143Y-70791905D01*
X54929762Y-70744286D01*
X54977381Y-70649048D01*
X54977381Y-70363334D01*
X54929762Y-70268096D01*
X54882143Y-70220477D01*
X53977381Y-71172858D02*
X53977381Y-71839524D01*
X54977381Y-71410953D01*
%TO.C,R38*%
X54667381Y-117162143D02*
X54191191Y-116828810D01*
X54667381Y-116590715D02*
X53667381Y-116590715D01*
X53667381Y-116971667D01*
X53715001Y-117066905D01*
X53762620Y-117114524D01*
X53857858Y-117162143D01*
X54000715Y-117162143D01*
X54095953Y-117114524D01*
X54143572Y-117066905D01*
X54191191Y-116971667D01*
X54191191Y-116590715D01*
X53667381Y-117495477D02*
X53667381Y-118114524D01*
X54048334Y-117781191D01*
X54048334Y-117924048D01*
X54095953Y-118019286D01*
X54143572Y-118066905D01*
X54238810Y-118114524D01*
X54476905Y-118114524D01*
X54572143Y-118066905D01*
X54619762Y-118019286D01*
X54667381Y-117924048D01*
X54667381Y-117638334D01*
X54619762Y-117543096D01*
X54572143Y-117495477D01*
X54095953Y-118685953D02*
X54048334Y-118590715D01*
X54000715Y-118543096D01*
X53905477Y-118495477D01*
X53857858Y-118495477D01*
X53762620Y-118543096D01*
X53715001Y-118590715D01*
X53667381Y-118685953D01*
X53667381Y-118876429D01*
X53715001Y-118971667D01*
X53762620Y-119019286D01*
X53857858Y-119066905D01*
X53905477Y-119066905D01*
X54000715Y-119019286D01*
X54048334Y-118971667D01*
X54095953Y-118876429D01*
X54095953Y-118685953D01*
X54143572Y-118590715D01*
X54191191Y-118543096D01*
X54286429Y-118495477D01*
X54476905Y-118495477D01*
X54572143Y-118543096D01*
X54619762Y-118590715D01*
X54667381Y-118685953D01*
X54667381Y-118876429D01*
X54619762Y-118971667D01*
X54572143Y-119019286D01*
X54476905Y-119066905D01*
X54286429Y-119066905D01*
X54191191Y-119019286D01*
X54143572Y-118971667D01*
X54095953Y-118876429D01*
%TO.C,R39*%
X62632381Y-77657142D02*
X62156191Y-77323809D01*
X62632381Y-77085714D02*
X61632381Y-77085714D01*
X61632381Y-77466666D01*
X61680001Y-77561904D01*
X61727620Y-77609523D01*
X61822858Y-77657142D01*
X61965715Y-77657142D01*
X62060953Y-77609523D01*
X62108572Y-77561904D01*
X62156191Y-77466666D01*
X62156191Y-77085714D01*
X61632381Y-77990476D02*
X61632381Y-78609523D01*
X62013334Y-78276190D01*
X62013334Y-78419047D01*
X62060953Y-78514285D01*
X62108572Y-78561904D01*
X62203810Y-78609523D01*
X62441905Y-78609523D01*
X62537143Y-78561904D01*
X62584762Y-78514285D01*
X62632381Y-78419047D01*
X62632381Y-78133333D01*
X62584762Y-78038095D01*
X62537143Y-77990476D01*
X62632381Y-79085714D02*
X62632381Y-79276190D01*
X62584762Y-79371428D01*
X62537143Y-79419047D01*
X62394286Y-79514285D01*
X62203810Y-79561904D01*
X61822858Y-79561904D01*
X61727620Y-79514285D01*
X61680001Y-79466666D01*
X61632381Y-79371428D01*
X61632381Y-79180952D01*
X61680001Y-79085714D01*
X61727620Y-79038095D01*
X61822858Y-78990476D01*
X62060953Y-78990476D01*
X62156191Y-79038095D01*
X62203810Y-79085714D01*
X62251429Y-79180952D01*
X62251429Y-79371428D01*
X62203810Y-79466666D01*
X62156191Y-79514285D01*
X62060953Y-79561904D01*
%TO.C,R40*%
X68997858Y-69762379D02*
X69331191Y-69286189D01*
X69569286Y-69762379D02*
X69569286Y-68762379D01*
X69188334Y-68762379D01*
X69093096Y-68809999D01*
X69045477Y-68857618D01*
X68997858Y-68952856D01*
X68997858Y-69095713D01*
X69045477Y-69190951D01*
X69093096Y-69238570D01*
X69188334Y-69286189D01*
X69569286Y-69286189D01*
X68140715Y-69095713D02*
X68140715Y-69762379D01*
X68378810Y-68714760D02*
X68616905Y-69429046D01*
X67997858Y-69429046D01*
X67426429Y-68762379D02*
X67331191Y-68762379D01*
X67235953Y-68809999D01*
X67188334Y-68857618D01*
X67140715Y-68952856D01*
X67093096Y-69143332D01*
X67093096Y-69381427D01*
X67140715Y-69571903D01*
X67188334Y-69667141D01*
X67235953Y-69714760D01*
X67331191Y-69762379D01*
X67426429Y-69762379D01*
X67521667Y-69714760D01*
X67569286Y-69667141D01*
X67616905Y-69571903D01*
X67664524Y-69381427D01*
X67664524Y-69143332D01*
X67616905Y-68952856D01*
X67569286Y-68857618D01*
X67521667Y-68809999D01*
X67426429Y-68762379D01*
%TO.C,R41*%
X68282857Y-116907379D02*
X68616190Y-116431189D01*
X68854285Y-116907379D02*
X68854285Y-115907379D01*
X68473333Y-115907379D01*
X68378095Y-115954999D01*
X68330476Y-116002618D01*
X68282857Y-116097856D01*
X68282857Y-116240713D01*
X68330476Y-116335951D01*
X68378095Y-116383570D01*
X68473333Y-116431189D01*
X68854285Y-116431189D01*
X67425714Y-116240713D02*
X67425714Y-116907379D01*
X67663809Y-115859760D02*
X67901904Y-116574046D01*
X67282857Y-116574046D01*
X66378095Y-116907379D02*
X66949523Y-116907379D01*
X66663809Y-116907379D02*
X66663809Y-115907379D01*
X66759047Y-116050237D01*
X66854285Y-116145475D01*
X66949523Y-116193094D01*
%TO.C,R42*%
X58547381Y-78167143D02*
X58071191Y-77833810D01*
X58547381Y-77595715D02*
X57547381Y-77595715D01*
X57547381Y-77976667D01*
X57595001Y-78071905D01*
X57642620Y-78119524D01*
X57737858Y-78167143D01*
X57880715Y-78167143D01*
X57975953Y-78119524D01*
X58023572Y-78071905D01*
X58071191Y-77976667D01*
X58071191Y-77595715D01*
X57880715Y-79024286D02*
X58547381Y-79024286D01*
X57499762Y-78786191D02*
X58214048Y-78548096D01*
X58214048Y-79167143D01*
X57642620Y-79500477D02*
X57595001Y-79548096D01*
X57547381Y-79643334D01*
X57547381Y-79881429D01*
X57595001Y-79976667D01*
X57642620Y-80024286D01*
X57737858Y-80071905D01*
X57833096Y-80071905D01*
X57975953Y-80024286D01*
X58547381Y-79452858D01*
X58547381Y-80071905D01*
%TO.C,R43*%
X86287379Y-69527141D02*
X85811189Y-69193808D01*
X86287379Y-68955713D02*
X85287379Y-68955713D01*
X85287379Y-69336665D01*
X85334999Y-69431903D01*
X85382618Y-69479522D01*
X85477856Y-69527141D01*
X85620713Y-69527141D01*
X85715951Y-69479522D01*
X85763570Y-69431903D01*
X85811189Y-69336665D01*
X85811189Y-68955713D01*
X85620713Y-70384284D02*
X86287379Y-70384284D01*
X85239760Y-70146189D02*
X85954046Y-69908094D01*
X85954046Y-70527141D01*
X85287379Y-70812856D02*
X85287379Y-71431903D01*
X85668332Y-71098570D01*
X85668332Y-71241427D01*
X85715951Y-71336665D01*
X85763570Y-71384284D01*
X85858808Y-71431903D01*
X86096903Y-71431903D01*
X86192141Y-71384284D01*
X86239760Y-71336665D01*
X86287379Y-71241427D01*
X86287379Y-70955713D01*
X86239760Y-70860475D01*
X86192141Y-70812856D01*
%TO.C,R44*%
X83457379Y-69402142D02*
X82981189Y-69068809D01*
X83457379Y-68830714D02*
X82457379Y-68830714D01*
X82457379Y-69211666D01*
X82504999Y-69306904D01*
X82552618Y-69354523D01*
X82647856Y-69402142D01*
X82790713Y-69402142D01*
X82885951Y-69354523D01*
X82933570Y-69306904D01*
X82981189Y-69211666D01*
X82981189Y-68830714D01*
X82790713Y-70259285D02*
X83457379Y-70259285D01*
X82409760Y-70021190D02*
X83124046Y-69783095D01*
X83124046Y-70402142D01*
X82790713Y-71211666D02*
X83457379Y-71211666D01*
X82409760Y-70973571D02*
X83124046Y-70735476D01*
X83124046Y-71354523D01*
%TO.C,R45*%
X88732379Y-116777141D02*
X88256189Y-116443808D01*
X88732379Y-116205713D02*
X87732379Y-116205713D01*
X87732379Y-116586665D01*
X87779999Y-116681903D01*
X87827618Y-116729522D01*
X87922856Y-116777141D01*
X88065713Y-116777141D01*
X88160951Y-116729522D01*
X88208570Y-116681903D01*
X88256189Y-116586665D01*
X88256189Y-116205713D01*
X88065713Y-117634284D02*
X88732379Y-117634284D01*
X87684760Y-117396189D02*
X88399046Y-117158094D01*
X88399046Y-117777141D01*
X87732379Y-118634284D02*
X87732379Y-118158094D01*
X88208570Y-118110475D01*
X88160951Y-118158094D01*
X88113332Y-118253332D01*
X88113332Y-118491427D01*
X88160951Y-118586665D01*
X88208570Y-118634284D01*
X88303808Y-118681903D01*
X88541903Y-118681903D01*
X88637141Y-118634284D01*
X88684760Y-118586665D01*
X88732379Y-118491427D01*
X88732379Y-118253332D01*
X88684760Y-118158094D01*
X88637141Y-118110475D01*
%TO.C,R46*%
X85317379Y-116752141D02*
X84841189Y-116418808D01*
X85317379Y-116180713D02*
X84317379Y-116180713D01*
X84317379Y-116561665D01*
X84364999Y-116656903D01*
X84412618Y-116704522D01*
X84507856Y-116752141D01*
X84650713Y-116752141D01*
X84745951Y-116704522D01*
X84793570Y-116656903D01*
X84841189Y-116561665D01*
X84841189Y-116180713D01*
X84650713Y-117609284D02*
X85317379Y-117609284D01*
X84269760Y-117371189D02*
X84984046Y-117133094D01*
X84984046Y-117752141D01*
X84317379Y-118561665D02*
X84317379Y-118371189D01*
X84364999Y-118275951D01*
X84412618Y-118228332D01*
X84555475Y-118133094D01*
X84745951Y-118085475D01*
X85126903Y-118085475D01*
X85222141Y-118133094D01*
X85269760Y-118180713D01*
X85317379Y-118275951D01*
X85317379Y-118466427D01*
X85269760Y-118561665D01*
X85222141Y-118609284D01*
X85126903Y-118656903D01*
X84888808Y-118656903D01*
X84793570Y-118609284D01*
X84745951Y-118561665D01*
X84698332Y-118466427D01*
X84698332Y-118275951D01*
X84745951Y-118180713D01*
X84793570Y-118133094D01*
X84888808Y-118085475D01*
%TO.C,R47*%
X104477857Y-76212380D02*
X104811190Y-75736190D01*
X105049285Y-76212380D02*
X105049285Y-75212380D01*
X104668333Y-75212380D01*
X104573095Y-75260000D01*
X104525476Y-75307619D01*
X104477857Y-75402857D01*
X104477857Y-75545714D01*
X104525476Y-75640952D01*
X104573095Y-75688571D01*
X104668333Y-75736190D01*
X105049285Y-75736190D01*
X103620714Y-75545714D02*
X103620714Y-76212380D01*
X103858809Y-75164761D02*
X104096904Y-75879047D01*
X103477857Y-75879047D01*
X103192142Y-75212380D02*
X102525476Y-75212380D01*
X102954047Y-76212380D01*
%TO.C,R48*%
X80177379Y-68867141D02*
X79701189Y-68533808D01*
X80177379Y-68295713D02*
X79177379Y-68295713D01*
X79177379Y-68676665D01*
X79224999Y-68771903D01*
X79272618Y-68819522D01*
X79367856Y-68867141D01*
X79510713Y-68867141D01*
X79605951Y-68819522D01*
X79653570Y-68771903D01*
X79701189Y-68676665D01*
X79701189Y-68295713D01*
X79510713Y-69724284D02*
X80177379Y-69724284D01*
X79129760Y-69486189D02*
X79844046Y-69248094D01*
X79844046Y-69867141D01*
X79605951Y-70390951D02*
X79558332Y-70295713D01*
X79510713Y-70248094D01*
X79415475Y-70200475D01*
X79367856Y-70200475D01*
X79272618Y-70248094D01*
X79224999Y-70295713D01*
X79177379Y-70390951D01*
X79177379Y-70581427D01*
X79224999Y-70676665D01*
X79272618Y-70724284D01*
X79367856Y-70771903D01*
X79415475Y-70771903D01*
X79510713Y-70724284D01*
X79558332Y-70676665D01*
X79605951Y-70581427D01*
X79605951Y-70390951D01*
X79653570Y-70295713D01*
X79701189Y-70248094D01*
X79796427Y-70200475D01*
X79986903Y-70200475D01*
X80082141Y-70248094D01*
X80129760Y-70295713D01*
X80177379Y-70390951D01*
X80177379Y-70581427D01*
X80129760Y-70676665D01*
X80082141Y-70724284D01*
X79986903Y-70771903D01*
X79796427Y-70771903D01*
X79701189Y-70724284D01*
X79653570Y-70676665D01*
X79605951Y-70581427D01*
%TO.C,R49*%
X82837379Y-116922141D02*
X82361189Y-116588808D01*
X82837379Y-116350713D02*
X81837379Y-116350713D01*
X81837379Y-116731665D01*
X81884999Y-116826903D01*
X81932618Y-116874522D01*
X82027856Y-116922141D01*
X82170713Y-116922141D01*
X82265951Y-116874522D01*
X82313570Y-116826903D01*
X82361189Y-116731665D01*
X82361189Y-116350713D01*
X82170713Y-117779284D02*
X82837379Y-117779284D01*
X81789760Y-117541189D02*
X82504046Y-117303094D01*
X82504046Y-117922141D01*
X82837379Y-118350713D02*
X82837379Y-118541189D01*
X82789760Y-118636427D01*
X82742141Y-118684046D01*
X82599284Y-118779284D01*
X82408808Y-118826903D01*
X82027856Y-118826903D01*
X81932618Y-118779284D01*
X81884999Y-118731665D01*
X81837379Y-118636427D01*
X81837379Y-118445951D01*
X81884999Y-118350713D01*
X81932618Y-118303094D01*
X82027856Y-118255475D01*
X82265951Y-118255475D01*
X82361189Y-118303094D01*
X82408808Y-118350713D01*
X82456427Y-118445951D01*
X82456427Y-118636427D01*
X82408808Y-118731665D01*
X82361189Y-118779284D01*
X82265951Y-118826903D01*
%TO.C,R50*%
X104477857Y-72777381D02*
X104811190Y-72301191D01*
X105049285Y-72777381D02*
X105049285Y-71777381D01*
X104668333Y-71777381D01*
X104573095Y-71825001D01*
X104525476Y-71872620D01*
X104477857Y-71967858D01*
X104477857Y-72110715D01*
X104525476Y-72205953D01*
X104573095Y-72253572D01*
X104668333Y-72301191D01*
X105049285Y-72301191D01*
X103573095Y-71777381D02*
X104049285Y-71777381D01*
X104096904Y-72253572D01*
X104049285Y-72205953D01*
X103954047Y-72158334D01*
X103715952Y-72158334D01*
X103620714Y-72205953D01*
X103573095Y-72253572D01*
X103525476Y-72348810D01*
X103525476Y-72586905D01*
X103573095Y-72682143D01*
X103620714Y-72729762D01*
X103715952Y-72777381D01*
X103954047Y-72777381D01*
X104049285Y-72729762D01*
X104096904Y-72682143D01*
X102906428Y-71777381D02*
X102811190Y-71777381D01*
X102715952Y-71825001D01*
X102668333Y-71872620D01*
X102620714Y-71967858D01*
X102573095Y-72158334D01*
X102573095Y-72396429D01*
X102620714Y-72586905D01*
X102668333Y-72682143D01*
X102715952Y-72729762D01*
X102811190Y-72777381D01*
X102906428Y-72777381D01*
X103001666Y-72729762D01*
X103049285Y-72682143D01*
X103096904Y-72586905D01*
X103144523Y-72396429D01*
X103144523Y-72158334D01*
X103096904Y-71967858D01*
X103049285Y-71872620D01*
X103001666Y-71825001D01*
X102906428Y-71777381D01*
%TO.C,R51*%
X77117381Y-68932143D02*
X76641191Y-68598810D01*
X77117381Y-68360715D02*
X76117381Y-68360715D01*
X76117381Y-68741667D01*
X76165001Y-68836905D01*
X76212620Y-68884524D01*
X76307858Y-68932143D01*
X76450715Y-68932143D01*
X76545953Y-68884524D01*
X76593572Y-68836905D01*
X76641191Y-68741667D01*
X76641191Y-68360715D01*
X76117381Y-69836905D02*
X76117381Y-69360715D01*
X76593572Y-69313096D01*
X76545953Y-69360715D01*
X76498334Y-69455953D01*
X76498334Y-69694048D01*
X76545953Y-69789286D01*
X76593572Y-69836905D01*
X76688810Y-69884524D01*
X76926905Y-69884524D01*
X77022143Y-69836905D01*
X77069762Y-69789286D01*
X77117381Y-69694048D01*
X77117381Y-69455953D01*
X77069762Y-69360715D01*
X77022143Y-69313096D01*
X77117381Y-70836905D02*
X77117381Y-70265477D01*
X77117381Y-70551191D02*
X76117381Y-70551191D01*
X76260239Y-70455953D01*
X76355477Y-70360715D01*
X76403096Y-70265477D01*
%TO.C,R52*%
X81617857Y-79702381D02*
X81951190Y-79226191D01*
X82189285Y-79702381D02*
X82189285Y-78702381D01*
X81808333Y-78702381D01*
X81713095Y-78750001D01*
X81665476Y-78797620D01*
X81617857Y-78892858D01*
X81617857Y-79035715D01*
X81665476Y-79130953D01*
X81713095Y-79178572D01*
X81808333Y-79226191D01*
X82189285Y-79226191D01*
X80713095Y-78702381D02*
X81189285Y-78702381D01*
X81236904Y-79178572D01*
X81189285Y-79130953D01*
X81094047Y-79083334D01*
X80855952Y-79083334D01*
X80760714Y-79130953D01*
X80713095Y-79178572D01*
X80665476Y-79273810D01*
X80665476Y-79511905D01*
X80713095Y-79607143D01*
X80760714Y-79654762D01*
X80855952Y-79702381D01*
X81094047Y-79702381D01*
X81189285Y-79654762D01*
X81236904Y-79607143D01*
X80284523Y-78797620D02*
X80236904Y-78750001D01*
X80141666Y-78702381D01*
X79903571Y-78702381D01*
X79808333Y-78750001D01*
X79760714Y-78797620D01*
X79713095Y-78892858D01*
X79713095Y-78988096D01*
X79760714Y-79130953D01*
X80332142Y-79702381D01*
X79713095Y-79702381D01*
%TO.C,R53*%
X79522380Y-116392142D02*
X79046190Y-116058809D01*
X79522380Y-115820714D02*
X78522380Y-115820714D01*
X78522380Y-116201666D01*
X78570000Y-116296904D01*
X78617619Y-116344523D01*
X78712857Y-116392142D01*
X78855714Y-116392142D01*
X78950952Y-116344523D01*
X78998571Y-116296904D01*
X79046190Y-116201666D01*
X79046190Y-115820714D01*
X78522380Y-117296904D02*
X78522380Y-116820714D01*
X78998571Y-116773095D01*
X78950952Y-116820714D01*
X78903333Y-116915952D01*
X78903333Y-117154047D01*
X78950952Y-117249285D01*
X78998571Y-117296904D01*
X79093809Y-117344523D01*
X79331904Y-117344523D01*
X79427142Y-117296904D01*
X79474761Y-117249285D01*
X79522380Y-117154047D01*
X79522380Y-116915952D01*
X79474761Y-116820714D01*
X79427142Y-116773095D01*
X78522380Y-117677857D02*
X78522380Y-118296904D01*
X78903333Y-117963571D01*
X78903333Y-118106428D01*
X78950952Y-118201666D01*
X78998571Y-118249285D01*
X79093809Y-118296904D01*
X79331904Y-118296904D01*
X79427142Y-118249285D01*
X79474761Y-118201666D01*
X79522380Y-118106428D01*
X79522380Y-117820714D01*
X79474761Y-117725476D01*
X79427142Y-117677857D01*
%TO.C,R54*%
X93032381Y-116392142D02*
X92556191Y-116058809D01*
X93032381Y-115820714D02*
X92032381Y-115820714D01*
X92032381Y-116201666D01*
X92080001Y-116296904D01*
X92127620Y-116344523D01*
X92222858Y-116392142D01*
X92365715Y-116392142D01*
X92460953Y-116344523D01*
X92508572Y-116296904D01*
X92556191Y-116201666D01*
X92556191Y-115820714D01*
X92032381Y-117296904D02*
X92032381Y-116820714D01*
X92508572Y-116773095D01*
X92460953Y-116820714D01*
X92413334Y-116915952D01*
X92413334Y-117154047D01*
X92460953Y-117249285D01*
X92508572Y-117296904D01*
X92603810Y-117344523D01*
X92841905Y-117344523D01*
X92937143Y-117296904D01*
X92984762Y-117249285D01*
X93032381Y-117154047D01*
X93032381Y-116915952D01*
X92984762Y-116820714D01*
X92937143Y-116773095D01*
X92365715Y-118201666D02*
X93032381Y-118201666D01*
X91984762Y-117963571D02*
X92699048Y-117725476D01*
X92699048Y-118344523D01*
%TO.C,RV8*%
X47280238Y-28572380D02*
X47613571Y-28096190D01*
X47851666Y-28572380D02*
X47851666Y-27572380D01*
X47470714Y-27572380D01*
X47375476Y-27620000D01*
X47327857Y-27667619D01*
X47280238Y-27762857D01*
X47280238Y-27905714D01*
X47327857Y-28000952D01*
X47375476Y-28048571D01*
X47470714Y-28096190D01*
X47851666Y-28096190D01*
X46994523Y-27572380D02*
X46661190Y-28572380D01*
X46327857Y-27572380D01*
X45851666Y-28000952D02*
X45946904Y-27953333D01*
X45994523Y-27905714D01*
X46042142Y-27810476D01*
X46042142Y-27762857D01*
X45994523Y-27667619D01*
X45946904Y-27620000D01*
X45851666Y-27572380D01*
X45661190Y-27572380D01*
X45565952Y-27620000D01*
X45518333Y-27667619D01*
X45470714Y-27762857D01*
X45470714Y-27810476D01*
X45518333Y-27905714D01*
X45565952Y-27953333D01*
X45661190Y-28000952D01*
X45851666Y-28000952D01*
X45946904Y-28048571D01*
X45994523Y-28096190D01*
X46042142Y-28191428D01*
X46042142Y-28381904D01*
X45994523Y-28477142D01*
X45946904Y-28524761D01*
X45851666Y-28572380D01*
X45661190Y-28572380D01*
X45565952Y-28524761D01*
X45518333Y-28477142D01*
X45470714Y-28381904D01*
X45470714Y-28191428D01*
X45518333Y-28096190D01*
X45565952Y-28048571D01*
X45661190Y-28000952D01*
%TO.C,U1*%
X36822380Y-57218095D02*
X37631904Y-57218095D01*
X37727142Y-57265714D01*
X37774761Y-57313333D01*
X37822380Y-57408571D01*
X37822380Y-57599047D01*
X37774761Y-57694285D01*
X37727142Y-57741904D01*
X37631904Y-57789523D01*
X36822380Y-57789523D01*
X37822380Y-58789523D02*
X37822380Y-58218095D01*
X37822380Y-58503809D02*
X36822380Y-58503809D01*
X36965238Y-58408571D01*
X37060476Y-58313333D01*
X37108095Y-58218095D01*
%TO.C,U2*%
X36822380Y-102303095D02*
X37631904Y-102303095D01*
X37727142Y-102350714D01*
X37774761Y-102398333D01*
X37822380Y-102493571D01*
X37822380Y-102684047D01*
X37774761Y-102779285D01*
X37727142Y-102826904D01*
X37631904Y-102874523D01*
X36822380Y-102874523D01*
X36917619Y-103303095D02*
X36870000Y-103350714D01*
X36822380Y-103445952D01*
X36822380Y-103684047D01*
X36870000Y-103779285D01*
X36917619Y-103826904D01*
X37012857Y-103874523D01*
X37108095Y-103874523D01*
X37250952Y-103826904D01*
X37822380Y-103255476D01*
X37822380Y-103874523D01*
%TO.C,U3*%
X76827380Y-57218095D02*
X77636904Y-57218095D01*
X77732142Y-57265714D01*
X77779761Y-57313333D01*
X77827380Y-57408571D01*
X77827380Y-57599047D01*
X77779761Y-57694285D01*
X77732142Y-57741904D01*
X77636904Y-57789523D01*
X76827380Y-57789523D01*
X76827380Y-58170476D02*
X76827380Y-58789523D01*
X77208333Y-58456190D01*
X77208333Y-58599047D01*
X77255952Y-58694285D01*
X77303571Y-58741904D01*
X77398809Y-58789523D01*
X77636904Y-58789523D01*
X77732142Y-58741904D01*
X77779761Y-58694285D01*
X77827380Y-58599047D01*
X77827380Y-58313333D01*
X77779761Y-58218095D01*
X77732142Y-58170476D01*
%TO.C,U4*%
X76827380Y-102938095D02*
X77636904Y-102938095D01*
X77732142Y-102985714D01*
X77779761Y-103033333D01*
X77827380Y-103128571D01*
X77827380Y-103319047D01*
X77779761Y-103414285D01*
X77732142Y-103461904D01*
X77636904Y-103509523D01*
X76827380Y-103509523D01*
X77160714Y-104414285D02*
X77827380Y-104414285D01*
X76779761Y-104176190D02*
X77494047Y-103938095D01*
X77494047Y-104557142D01*
%TO.C,U5*%
X40041380Y-38930095D02*
X40850904Y-38930095D01*
X40946142Y-38977714D01*
X40993761Y-39025333D01*
X41041380Y-39120571D01*
X41041380Y-39311047D01*
X40993761Y-39406285D01*
X40946142Y-39453904D01*
X40850904Y-39501523D01*
X40041380Y-39501523D01*
X40041380Y-40453904D02*
X40041380Y-39977714D01*
X40517571Y-39930095D01*
X40469952Y-39977714D01*
X40422333Y-40072952D01*
X40422333Y-40311047D01*
X40469952Y-40406285D01*
X40517571Y-40453904D01*
X40612809Y-40501523D01*
X40850904Y-40501523D01*
X40946142Y-40453904D01*
X40993761Y-40406285D01*
X41041380Y-40311047D01*
X41041380Y-40072952D01*
X40993761Y-39977714D01*
X40946142Y-39930095D01*
%TD*%
M02*
