%TF.GenerationSoftware,KiCad,Pcbnew,(5.1.9)-1*%
%TF.CreationDate,2021-09-12T20:22:20+01:00*%
%TF.ProjectId,KOSMOS LFO6,4b4f534d-4f53-4204-9c46-4f362e6b6963,rev?*%
%TF.SameCoordinates,Original*%
%TF.FileFunction,Other,User*%
%FSLAX46Y46*%
G04 Gerber Fmt 4.6, Leading zero omitted, Abs format (unit mm)*
G04 Created by KiCad (PCBNEW (5.1.9)-1) date 2021-09-12 20:22:20*
%MOMM*%
%LPD*%
G01*
G04 APERTURE LIST*
%TA.AperFunction,Profile*%
%ADD10C,0.050000*%
%TD*%
%ADD11C,0.050000*%
G04 APERTURE END LIST*
D10*
X50368000Y-127195000D02*
X48463000Y-124782000D01*
X83896000Y-131386000D02*
X80340000Y-135000000D01*
X83896000Y-124909000D02*
X83896000Y-131386000D01*
X116027000Y-124909000D02*
X83896000Y-124909000D01*
X50368000Y-131386000D02*
X54051000Y-135000000D01*
X50368000Y-127195000D02*
X50368000Y-131386000D01*
X19888000Y-124782000D02*
X48463000Y-124782000D01*
X54051000Y-135000000D02*
X80340000Y-135000000D01*
X20000000Y-20000000D02*
X116000000Y-20000000D01*
X116000000Y-20000000D02*
X116027000Y-124909000D01*
X20000000Y-20000000D02*
X19888000Y-124782000D01*
D11*
%TO.C,RV3*%
X74670000Y-65485000D02*
X74670000Y-51735000D01*
X61330000Y-65485000D02*
X74670000Y-65485000D01*
X61330000Y-51735000D02*
X61330000Y-65485000D01*
X74670000Y-51735000D02*
X61330000Y-51735000D01*
%TO.C,RV4*%
X36530000Y-65485000D02*
X36530000Y-51735000D01*
X23190000Y-65485000D02*
X36530000Y-65485000D01*
X23190000Y-51735000D02*
X23190000Y-65485000D01*
X36530000Y-51735000D02*
X23190000Y-51735000D01*
%TO.C,D5*%
X108960000Y-39705000D02*
X108960000Y-33205000D01*
X108960000Y-33205000D02*
X102510000Y-33205000D01*
X102510000Y-33205000D02*
X102510000Y-39705000D01*
X102510000Y-39705000D02*
X108960000Y-39705000D01*
%TO.C,D10*%
X32770000Y-78290000D02*
X26320000Y-78290000D01*
X32770000Y-84790000D02*
X32770000Y-78290000D01*
X26320000Y-84790000D02*
X32770000Y-84790000D01*
X26320000Y-78290000D02*
X26320000Y-84790000D01*
%TO.C,D11*%
X64420000Y-78290000D02*
X64420000Y-84790000D01*
X64420000Y-84790000D02*
X70870000Y-84790000D01*
X70870000Y-84790000D02*
X70870000Y-78290000D01*
X70870000Y-78290000D02*
X64420000Y-78290000D01*
%TO.C,D14*%
X108970000Y-78290000D02*
X102520000Y-78290000D01*
X108970000Y-84790000D02*
X108970000Y-78290000D01*
X102520000Y-84790000D02*
X108970000Y-84790000D01*
X102520000Y-78290000D02*
X102520000Y-84790000D01*
%TO.C,J2*%
X83095000Y-131020000D02*
X51595000Y-131020000D01*
X83095000Y-127470000D02*
X83095000Y-131020000D01*
X51595000Y-127470000D02*
X83095000Y-127470000D01*
X51595000Y-131020000D02*
X51595000Y-127470000D01*
%TO.C,RV1*%
X112730000Y-65485000D02*
X112730000Y-51735000D01*
X99390000Y-65485000D02*
X112730000Y-65485000D01*
X99390000Y-51735000D02*
X99390000Y-65485000D01*
X112730000Y-51735000D02*
X99390000Y-51735000D01*
%TO.C,RV2*%
X74630000Y-110455000D02*
X74630000Y-96705000D01*
X61290000Y-110455000D02*
X74630000Y-110455000D01*
X61290000Y-96705000D02*
X61290000Y-110455000D01*
X74630000Y-96705000D02*
X61290000Y-96705000D01*
%TO.C,RV6*%
X36530000Y-96705000D02*
X23190000Y-96705000D01*
X23190000Y-96705000D02*
X23190000Y-110455000D01*
X23190000Y-110455000D02*
X36530000Y-110455000D01*
X36530000Y-110455000D02*
X36530000Y-96705000D01*
%TO.C,RV7*%
X112730000Y-96705000D02*
X99390000Y-96705000D01*
X99390000Y-96705000D02*
X99390000Y-110455000D01*
X99390000Y-110455000D02*
X112730000Y-110455000D01*
X112730000Y-110455000D02*
X112730000Y-96705000D01*
%TD*%
M02*
