%TF.GenerationSoftware,KiCad,Pcbnew,(5.1.9)-1*%
%TF.CreationDate,2021-09-12T20:22:20+01:00*%
%TF.ProjectId,KOSMOS LFO6,4b4f534d-4f53-4204-9c46-4f362e6b6963,rev?*%
%TF.SameCoordinates,Original*%
%TF.FileFunction,Other,Fab,Top*%
%FSLAX46Y46*%
G04 Gerber Fmt 4.6, Leading zero omitted, Abs format (unit mm)*
G04 Created by KiCad (PCBNEW (5.1.9)-1) date 2021-09-12 20:22:20*
%MOMM*%
%LPD*%
G01*
G04 APERTURE LIST*
%TA.AperFunction,Profile*%
%ADD10C,0.050000*%
%TD*%
%ADD11C,0.100000*%
%ADD12C,0.150000*%
%ADD13C,0.200000*%
G04 APERTURE END LIST*
D10*
X50368000Y-127195000D02*
X48463000Y-124782000D01*
X83896000Y-131386000D02*
X80340000Y-135000000D01*
X83896000Y-124909000D02*
X83896000Y-131386000D01*
X116027000Y-124909000D02*
X83896000Y-124909000D01*
X50368000Y-131386000D02*
X54051000Y-135000000D01*
X50368000Y-127195000D02*
X50368000Y-131386000D01*
X19888000Y-124782000D02*
X48463000Y-124782000D01*
X54051000Y-135000000D02*
X80340000Y-135000000D01*
X20000000Y-20000000D02*
X116000000Y-20000000D01*
X116000000Y-20000000D02*
X116027000Y-124909000D01*
X20000000Y-20000000D02*
X19888000Y-124782000D01*
D11*
%TO.C,RV3*%
X71500000Y-56835000D02*
G75*
G03*
X71500000Y-56835000I-3500000J0D01*
G01*
X72750000Y-63335000D02*
X63250000Y-63335000D01*
X72750000Y-51985000D02*
X63250000Y-51985000D01*
X63250000Y-63335000D02*
X63250000Y-51985000D01*
X72750000Y-63335000D02*
X72750000Y-51985000D01*
%TO.C,RV4*%
X33360000Y-56835000D02*
G75*
G03*
X33360000Y-56835000I-3500000J0D01*
G01*
X34610000Y-63335000D02*
X25110000Y-63335000D01*
X34610000Y-51985000D02*
X25110000Y-51985000D01*
X25110000Y-63335000D02*
X25110000Y-51985000D01*
X34610000Y-63335000D02*
X34610000Y-51985000D01*
%TO.C,D5*%
X108240000Y-36455000D02*
G75*
G03*
X108240000Y-36455000I-2500000J0D01*
G01*
X108240000Y-37924694D02*
X108240000Y-34985306D01*
X108240016Y-34985334D02*
G75*
G03*
X108240000Y-37924694I-2500016J-1469666D01*
G01*
%TO.C,D10*%
X27040000Y-80070306D02*
X27040000Y-83009694D01*
X32040000Y-81540000D02*
G75*
G03*
X32040000Y-81540000I-2500000J0D01*
G01*
X27039984Y-83009666D02*
G75*
G03*
X27040000Y-80070306I2500016J1469666D01*
G01*
%TO.C,D11*%
X70140000Y-81540000D02*
G75*
G03*
X70140000Y-81540000I-2500000J0D01*
G01*
X65140000Y-80070306D02*
X65140000Y-83009694D01*
X65139984Y-83009666D02*
G75*
G03*
X65140000Y-80070306I2500016J1469666D01*
G01*
%TO.C,D14*%
X103240000Y-80070306D02*
X103240000Y-83009694D01*
X108240000Y-81540000D02*
G75*
G03*
X108240000Y-81540000I-2500000J0D01*
G01*
X103239984Y-83009666D02*
G75*
G03*
X103240000Y-80070306I2500016J1469666D01*
G01*
%TO.C,J2*%
X82605000Y-130490000D02*
X52125000Y-130490000D01*
X82605000Y-127950000D02*
X82605000Y-130490000D01*
X52760000Y-127950000D02*
X82605000Y-127950000D01*
X52125000Y-128585000D02*
X52760000Y-127950000D01*
X52125000Y-130490000D02*
X52125000Y-128585000D01*
%TO.C,RV1*%
X109560000Y-56835000D02*
G75*
G03*
X109560000Y-56835000I-3500000J0D01*
G01*
X110810000Y-63335000D02*
X101310000Y-63335000D01*
X110810000Y-51985000D02*
X101310000Y-51985000D01*
X101310000Y-63335000D02*
X101310000Y-51985000D01*
X110810000Y-63335000D02*
X110810000Y-51985000D01*
%TO.C,RV2*%
X71460000Y-101805000D02*
G75*
G03*
X71460000Y-101805000I-3500000J0D01*
G01*
X72710000Y-108305000D02*
X63210000Y-108305000D01*
X72710000Y-96955000D02*
X63210000Y-96955000D01*
X63210000Y-108305000D02*
X63210000Y-96955000D01*
X72710000Y-108305000D02*
X72710000Y-96955000D01*
%TO.C,RV6*%
X34610000Y-108305000D02*
X34610000Y-96955000D01*
X25110000Y-108305000D02*
X25110000Y-96955000D01*
X34610000Y-96955000D02*
X25110000Y-96955000D01*
X34610000Y-108305000D02*
X25110000Y-108305000D01*
X33360000Y-101805000D02*
G75*
G03*
X33360000Y-101805000I-3500000J0D01*
G01*
%TO.C,RV7*%
X110810000Y-108305000D02*
X110810000Y-96955000D01*
X101310000Y-108305000D02*
X101310000Y-96955000D01*
X110810000Y-96955000D02*
X101310000Y-96955000D01*
X110810000Y-108305000D02*
X101310000Y-108305000D01*
X109560000Y-101805000D02*
G75*
G03*
X109560000Y-101805000I-3500000J0D01*
G01*
%TD*%
%TO.C,RV3*%
D12*
X74207380Y-62866428D02*
X74207380Y-63437857D01*
X74207380Y-63152142D02*
X73207380Y-63152142D01*
X73350238Y-63247380D01*
X73445476Y-63342619D01*
X73493095Y-63437857D01*
X73207380Y-62247380D02*
X73207380Y-62152142D01*
X73255000Y-62056904D01*
X73302619Y-62009285D01*
X73397857Y-61961666D01*
X73588333Y-61914047D01*
X73826428Y-61914047D01*
X74016904Y-61961666D01*
X74112142Y-62009285D01*
X74159761Y-62056904D01*
X74207380Y-62152142D01*
X74207380Y-62247380D01*
X74159761Y-62342619D01*
X74112142Y-62390238D01*
X74016904Y-62437857D01*
X73826428Y-62485476D01*
X73588333Y-62485476D01*
X73397857Y-62437857D01*
X73302619Y-62390238D01*
X73255000Y-62342619D01*
X73207380Y-62247380D01*
X73207380Y-61295000D02*
X73207380Y-61199761D01*
X73255000Y-61104523D01*
X73302619Y-61056904D01*
X73397857Y-61009285D01*
X73588333Y-60961666D01*
X73826428Y-60961666D01*
X74016904Y-61009285D01*
X74112142Y-61056904D01*
X74159761Y-61104523D01*
X74207380Y-61199761D01*
X74207380Y-61295000D01*
X74159761Y-61390238D01*
X74112142Y-61437857D01*
X74016904Y-61485476D01*
X73826428Y-61533095D01*
X73588333Y-61533095D01*
X73397857Y-61485476D01*
X73302619Y-61437857D01*
X73255000Y-61390238D01*
X73207380Y-61295000D01*
X74207380Y-60533095D02*
X73207380Y-60533095D01*
X73826428Y-60437857D02*
X74207380Y-60152142D01*
X73540714Y-60152142D02*
X73921666Y-60533095D01*
X68492380Y-57310238D02*
X68016190Y-57643571D01*
X68492380Y-57881666D02*
X67492380Y-57881666D01*
X67492380Y-57500714D01*
X67540000Y-57405476D01*
X67587619Y-57357857D01*
X67682857Y-57310238D01*
X67825714Y-57310238D01*
X67920952Y-57357857D01*
X67968571Y-57405476D01*
X68016190Y-57500714D01*
X68016190Y-57881666D01*
X67492380Y-57024523D02*
X68492380Y-56691190D01*
X67492380Y-56357857D01*
X67492380Y-56119761D02*
X67492380Y-55500714D01*
X67873333Y-55834047D01*
X67873333Y-55691190D01*
X67920952Y-55595952D01*
X67968571Y-55548333D01*
X68063809Y-55500714D01*
X68301904Y-55500714D01*
X68397142Y-55548333D01*
X68444761Y-55595952D01*
X68492380Y-55691190D01*
X68492380Y-55976904D01*
X68444761Y-56072142D01*
X68397142Y-56119761D01*
%TO.C,RV4*%
X37922380Y-65406428D02*
X37922380Y-65977857D01*
X37922380Y-65692142D02*
X36922380Y-65692142D01*
X37065238Y-65787380D01*
X37160476Y-65882619D01*
X37208095Y-65977857D01*
X36922380Y-64787380D02*
X36922380Y-64692142D01*
X36970000Y-64596904D01*
X37017619Y-64549285D01*
X37112857Y-64501666D01*
X37303333Y-64454047D01*
X37541428Y-64454047D01*
X37731904Y-64501666D01*
X37827142Y-64549285D01*
X37874761Y-64596904D01*
X37922380Y-64692142D01*
X37922380Y-64787380D01*
X37874761Y-64882619D01*
X37827142Y-64930238D01*
X37731904Y-64977857D01*
X37541428Y-65025476D01*
X37303333Y-65025476D01*
X37112857Y-64977857D01*
X37017619Y-64930238D01*
X36970000Y-64882619D01*
X36922380Y-64787380D01*
X36922380Y-63835000D02*
X36922380Y-63739761D01*
X36970000Y-63644523D01*
X37017619Y-63596904D01*
X37112857Y-63549285D01*
X37303333Y-63501666D01*
X37541428Y-63501666D01*
X37731904Y-63549285D01*
X37827142Y-63596904D01*
X37874761Y-63644523D01*
X37922380Y-63739761D01*
X37922380Y-63835000D01*
X37874761Y-63930238D01*
X37827142Y-63977857D01*
X37731904Y-64025476D01*
X37541428Y-64073095D01*
X37303333Y-64073095D01*
X37112857Y-64025476D01*
X37017619Y-63977857D01*
X36970000Y-63930238D01*
X36922380Y-63835000D01*
X37922380Y-63073095D02*
X36922380Y-63073095D01*
X37541428Y-62977857D02*
X37922380Y-62692142D01*
X37255714Y-62692142D02*
X37636666Y-63073095D01*
X30352380Y-57310238D02*
X29876190Y-57643571D01*
X30352380Y-57881666D02*
X29352380Y-57881666D01*
X29352380Y-57500714D01*
X29400000Y-57405476D01*
X29447619Y-57357857D01*
X29542857Y-57310238D01*
X29685714Y-57310238D01*
X29780952Y-57357857D01*
X29828571Y-57405476D01*
X29876190Y-57500714D01*
X29876190Y-57881666D01*
X29352380Y-57024523D02*
X30352380Y-56691190D01*
X29352380Y-56357857D01*
X29685714Y-55595952D02*
X30352380Y-55595952D01*
X29304761Y-55834047D02*
X30019047Y-56072142D01*
X30019047Y-55453095D01*
%TO.C,D5*%
X105097142Y-32947380D02*
X104620952Y-32947380D01*
X104620952Y-31947380D01*
X105430476Y-32423571D02*
X105763809Y-32423571D01*
X105906666Y-32947380D02*
X105430476Y-32947380D01*
X105430476Y-31947380D01*
X105906666Y-31947380D01*
X106335238Y-32947380D02*
X106335238Y-31947380D01*
X106573333Y-31947380D01*
X106716190Y-31995000D01*
X106811428Y-32090238D01*
X106859047Y-32185476D01*
X106906666Y-32375952D01*
X106906666Y-32518809D01*
X106859047Y-32709285D01*
X106811428Y-32804523D01*
X106716190Y-32899761D01*
X106573333Y-32947380D01*
X106335238Y-32947380D01*
D13*
X105169523Y-36816904D02*
X105169523Y-36016904D01*
X105360000Y-36016904D01*
X105474285Y-36055000D01*
X105550476Y-36131190D01*
X105588571Y-36207380D01*
X105626666Y-36359761D01*
X105626666Y-36474047D01*
X105588571Y-36626428D01*
X105550476Y-36702619D01*
X105474285Y-36778809D01*
X105360000Y-36816904D01*
X105169523Y-36816904D01*
X106350476Y-36016904D02*
X105969523Y-36016904D01*
X105931428Y-36397857D01*
X105969523Y-36359761D01*
X106045714Y-36321666D01*
X106236190Y-36321666D01*
X106312380Y-36359761D01*
X106350476Y-36397857D01*
X106388571Y-36474047D01*
X106388571Y-36664523D01*
X106350476Y-36740714D01*
X106312380Y-36778809D01*
X106236190Y-36816904D01*
X106045714Y-36816904D01*
X105969523Y-36778809D01*
X105931428Y-36740714D01*
%TO.C,D10*%
D12*
X28897142Y-85952380D02*
X28420952Y-85952380D01*
X28420952Y-84952380D01*
X29230476Y-85428571D02*
X29563809Y-85428571D01*
X29706666Y-85952380D02*
X29230476Y-85952380D01*
X29230476Y-84952380D01*
X29706666Y-84952380D01*
X30135238Y-85952380D02*
X30135238Y-84952380D01*
X30373333Y-84952380D01*
X30516190Y-85000000D01*
X30611428Y-85095238D01*
X30659047Y-85190476D01*
X30706666Y-85380952D01*
X30706666Y-85523809D01*
X30659047Y-85714285D01*
X30611428Y-85809523D01*
X30516190Y-85904761D01*
X30373333Y-85952380D01*
X30135238Y-85952380D01*
D13*
X28548571Y-81901904D02*
X28548571Y-81101904D01*
X28739047Y-81101904D01*
X28853333Y-81140000D01*
X28929523Y-81216190D01*
X28967619Y-81292380D01*
X29005714Y-81444761D01*
X29005714Y-81559047D01*
X28967619Y-81711428D01*
X28929523Y-81787619D01*
X28853333Y-81863809D01*
X28739047Y-81901904D01*
X28548571Y-81901904D01*
X29767619Y-81901904D02*
X29310476Y-81901904D01*
X29539047Y-81901904D02*
X29539047Y-81101904D01*
X29462857Y-81216190D01*
X29386666Y-81292380D01*
X29310476Y-81330476D01*
X30262857Y-81101904D02*
X30339047Y-81101904D01*
X30415238Y-81140000D01*
X30453333Y-81178095D01*
X30491428Y-81254285D01*
X30529523Y-81406666D01*
X30529523Y-81597142D01*
X30491428Y-81749523D01*
X30453333Y-81825714D01*
X30415238Y-81863809D01*
X30339047Y-81901904D01*
X30262857Y-81901904D01*
X30186666Y-81863809D01*
X30148571Y-81825714D01*
X30110476Y-81749523D01*
X30072380Y-81597142D01*
X30072380Y-81406666D01*
X30110476Y-81254285D01*
X30148571Y-81178095D01*
X30186666Y-81140000D01*
X30262857Y-81101904D01*
%TO.C,D11*%
D12*
X66997142Y-85952380D02*
X66520952Y-85952380D01*
X66520952Y-84952380D01*
X67330476Y-85428571D02*
X67663809Y-85428571D01*
X67806666Y-85952380D02*
X67330476Y-85952380D01*
X67330476Y-84952380D01*
X67806666Y-84952380D01*
X68235238Y-85952380D02*
X68235238Y-84952380D01*
X68473333Y-84952380D01*
X68616190Y-85000000D01*
X68711428Y-85095238D01*
X68759047Y-85190476D01*
X68806666Y-85380952D01*
X68806666Y-85523809D01*
X68759047Y-85714285D01*
X68711428Y-85809523D01*
X68616190Y-85904761D01*
X68473333Y-85952380D01*
X68235238Y-85952380D01*
D13*
X66648571Y-81901904D02*
X66648571Y-81101904D01*
X66839047Y-81101904D01*
X66953333Y-81140000D01*
X67029523Y-81216190D01*
X67067619Y-81292380D01*
X67105714Y-81444761D01*
X67105714Y-81559047D01*
X67067619Y-81711428D01*
X67029523Y-81787619D01*
X66953333Y-81863809D01*
X66839047Y-81901904D01*
X66648571Y-81901904D01*
X67867619Y-81901904D02*
X67410476Y-81901904D01*
X67639047Y-81901904D02*
X67639047Y-81101904D01*
X67562857Y-81216190D01*
X67486666Y-81292380D01*
X67410476Y-81330476D01*
X68629523Y-81901904D02*
X68172380Y-81901904D01*
X68400952Y-81901904D02*
X68400952Y-81101904D01*
X68324761Y-81216190D01*
X68248571Y-81292380D01*
X68172380Y-81330476D01*
%TO.C,D14*%
D12*
X105097142Y-85952380D02*
X104620952Y-85952380D01*
X104620952Y-84952380D01*
X105430476Y-85428571D02*
X105763809Y-85428571D01*
X105906666Y-85952380D02*
X105430476Y-85952380D01*
X105430476Y-84952380D01*
X105906666Y-84952380D01*
X106335238Y-85952380D02*
X106335238Y-84952380D01*
X106573333Y-84952380D01*
X106716190Y-85000000D01*
X106811428Y-85095238D01*
X106859047Y-85190476D01*
X106906666Y-85380952D01*
X106906666Y-85523809D01*
X106859047Y-85714285D01*
X106811428Y-85809523D01*
X106716190Y-85904761D01*
X106573333Y-85952380D01*
X106335238Y-85952380D01*
D13*
X104748571Y-81901904D02*
X104748571Y-81101904D01*
X104939047Y-81101904D01*
X105053333Y-81140000D01*
X105129523Y-81216190D01*
X105167619Y-81292380D01*
X105205714Y-81444761D01*
X105205714Y-81559047D01*
X105167619Y-81711428D01*
X105129523Y-81787619D01*
X105053333Y-81863809D01*
X104939047Y-81901904D01*
X104748571Y-81901904D01*
X105967619Y-81901904D02*
X105510476Y-81901904D01*
X105739047Y-81901904D02*
X105739047Y-81101904D01*
X105662857Y-81216190D01*
X105586666Y-81292380D01*
X105510476Y-81330476D01*
X106653333Y-81368571D02*
X106653333Y-81901904D01*
X106462857Y-81063809D02*
X106272380Y-81635238D01*
X106767619Y-81635238D01*
%TO.C,J2*%
D12*
X83557380Y-132696190D02*
X83557380Y-132124761D01*
X84557380Y-132410476D02*
X83557380Y-132410476D01*
X83557380Y-131600952D02*
X83557380Y-131410476D01*
X83605000Y-131315238D01*
X83700238Y-131220000D01*
X83890714Y-131172380D01*
X84224047Y-131172380D01*
X84414523Y-131220000D01*
X84509761Y-131315238D01*
X84557380Y-131410476D01*
X84557380Y-131600952D01*
X84509761Y-131696190D01*
X84414523Y-131791428D01*
X84224047Y-131839047D01*
X83890714Y-131839047D01*
X83700238Y-131791428D01*
X83605000Y-131696190D01*
X83557380Y-131600952D01*
X83557380Y-129696190D02*
X84271666Y-129696190D01*
X84414523Y-129743809D01*
X84509761Y-129839047D01*
X84557380Y-129981904D01*
X84557380Y-130077142D01*
X84271666Y-129267619D02*
X84271666Y-128791428D01*
X84557380Y-129362857D02*
X83557380Y-129029523D01*
X84557380Y-128696190D01*
X84462142Y-127791428D02*
X84509761Y-127839047D01*
X84557380Y-127981904D01*
X84557380Y-128077142D01*
X84509761Y-128220000D01*
X84414523Y-128315238D01*
X84319285Y-128362857D01*
X84128809Y-128410476D01*
X83985952Y-128410476D01*
X83795476Y-128362857D01*
X83700238Y-128315238D01*
X83605000Y-128220000D01*
X83557380Y-128077142D01*
X83557380Y-127981904D01*
X83605000Y-127839047D01*
X83652619Y-127791428D01*
X84557380Y-127362857D02*
X83557380Y-127362857D01*
X84557380Y-126791428D02*
X83985952Y-127220000D01*
X83557380Y-126791428D02*
X84128809Y-127362857D01*
X84509761Y-126410476D02*
X84557380Y-126267619D01*
X84557380Y-126029523D01*
X84509761Y-125934285D01*
X84462142Y-125886666D01*
X84366904Y-125839047D01*
X84271666Y-125839047D01*
X84176428Y-125886666D01*
X84128809Y-125934285D01*
X84081190Y-126029523D01*
X84033571Y-126220000D01*
X83985952Y-126315238D01*
X83938333Y-126362857D01*
X83843095Y-126410476D01*
X83747857Y-126410476D01*
X83652619Y-126362857D01*
X83605000Y-126315238D01*
X83557380Y-126220000D01*
X83557380Y-125981904D01*
X83605000Y-125839047D01*
X67031666Y-128672380D02*
X67031666Y-129386666D01*
X66984047Y-129529523D01*
X66888809Y-129624761D01*
X66745952Y-129672380D01*
X66650714Y-129672380D01*
X67460238Y-128767619D02*
X67507857Y-128720000D01*
X67603095Y-128672380D01*
X67841190Y-128672380D01*
X67936428Y-128720000D01*
X67984047Y-128767619D01*
X68031666Y-128862857D01*
X68031666Y-128958095D01*
X67984047Y-129100952D01*
X67412619Y-129672380D01*
X68031666Y-129672380D01*
%TO.C,RV1*%
X114122380Y-64620714D02*
X114122380Y-65192142D01*
X114122380Y-64906428D02*
X113122380Y-64906428D01*
X113265238Y-65001666D01*
X113360476Y-65096904D01*
X113408095Y-65192142D01*
X114122380Y-64192142D02*
X113122380Y-64192142D01*
X113836666Y-63858809D01*
X113122380Y-63525476D01*
X114122380Y-63525476D01*
X106552380Y-57310238D02*
X106076190Y-57643571D01*
X106552380Y-57881666D02*
X105552380Y-57881666D01*
X105552380Y-57500714D01*
X105600000Y-57405476D01*
X105647619Y-57357857D01*
X105742857Y-57310238D01*
X105885714Y-57310238D01*
X105980952Y-57357857D01*
X106028571Y-57405476D01*
X106076190Y-57500714D01*
X106076190Y-57881666D01*
X105552380Y-57024523D02*
X106552380Y-56691190D01*
X105552380Y-56357857D01*
X106552380Y-55500714D02*
X106552380Y-56072142D01*
X106552380Y-55786428D02*
X105552380Y-55786428D01*
X105695238Y-55881666D01*
X105790476Y-55976904D01*
X105838095Y-56072142D01*
%TO.C,RV2*%
X76022380Y-109590714D02*
X76022380Y-110162142D01*
X76022380Y-109876428D02*
X75022380Y-109876428D01*
X75165238Y-109971666D01*
X75260476Y-110066904D01*
X75308095Y-110162142D01*
X76022380Y-109162142D02*
X75022380Y-109162142D01*
X75736666Y-108828809D01*
X75022380Y-108495476D01*
X76022380Y-108495476D01*
X68452380Y-102280238D02*
X67976190Y-102613571D01*
X68452380Y-102851666D02*
X67452380Y-102851666D01*
X67452380Y-102470714D01*
X67500000Y-102375476D01*
X67547619Y-102327857D01*
X67642857Y-102280238D01*
X67785714Y-102280238D01*
X67880952Y-102327857D01*
X67928571Y-102375476D01*
X67976190Y-102470714D01*
X67976190Y-102851666D01*
X67452380Y-101994523D02*
X68452380Y-101661190D01*
X67452380Y-101327857D01*
X67547619Y-101042142D02*
X67500000Y-100994523D01*
X67452380Y-100899285D01*
X67452380Y-100661190D01*
X67500000Y-100565952D01*
X67547619Y-100518333D01*
X67642857Y-100470714D01*
X67738095Y-100470714D01*
X67880952Y-100518333D01*
X68452380Y-101089761D01*
X68452380Y-100470714D01*
%TO.C,RV6*%
X37922380Y-109590714D02*
X37922380Y-110162142D01*
X37922380Y-109876428D02*
X36922380Y-109876428D01*
X37065238Y-109971666D01*
X37160476Y-110066904D01*
X37208095Y-110162142D01*
X37922380Y-109162142D02*
X36922380Y-109162142D01*
X37636666Y-108828809D01*
X36922380Y-108495476D01*
X37922380Y-108495476D01*
X30352380Y-102280238D02*
X29876190Y-102613571D01*
X30352380Y-102851666D02*
X29352380Y-102851666D01*
X29352380Y-102470714D01*
X29400000Y-102375476D01*
X29447619Y-102327857D01*
X29542857Y-102280238D01*
X29685714Y-102280238D01*
X29780952Y-102327857D01*
X29828571Y-102375476D01*
X29876190Y-102470714D01*
X29876190Y-102851666D01*
X29352380Y-101994523D02*
X30352380Y-101661190D01*
X29352380Y-101327857D01*
X29352380Y-100565952D02*
X29352380Y-100756428D01*
X29400000Y-100851666D01*
X29447619Y-100899285D01*
X29590476Y-100994523D01*
X29780952Y-101042142D01*
X30161904Y-101042142D01*
X30257142Y-100994523D01*
X30304761Y-100946904D01*
X30352380Y-100851666D01*
X30352380Y-100661190D01*
X30304761Y-100565952D01*
X30257142Y-100518333D01*
X30161904Y-100470714D01*
X29923809Y-100470714D01*
X29828571Y-100518333D01*
X29780952Y-100565952D01*
X29733333Y-100661190D01*
X29733333Y-100851666D01*
X29780952Y-100946904D01*
X29828571Y-100994523D01*
X29923809Y-101042142D01*
%TO.C,RV7*%
X114122380Y-109590714D02*
X114122380Y-110162142D01*
X114122380Y-109876428D02*
X113122380Y-109876428D01*
X113265238Y-109971666D01*
X113360476Y-110066904D01*
X113408095Y-110162142D01*
X114122380Y-109162142D02*
X113122380Y-109162142D01*
X113836666Y-108828809D01*
X113122380Y-108495476D01*
X114122380Y-108495476D01*
X106552380Y-102280238D02*
X106076190Y-102613571D01*
X106552380Y-102851666D02*
X105552380Y-102851666D01*
X105552380Y-102470714D01*
X105600000Y-102375476D01*
X105647619Y-102327857D01*
X105742857Y-102280238D01*
X105885714Y-102280238D01*
X105980952Y-102327857D01*
X106028571Y-102375476D01*
X106076190Y-102470714D01*
X106076190Y-102851666D01*
X105552380Y-101994523D02*
X106552380Y-101661190D01*
X105552380Y-101327857D01*
X105552380Y-101089761D02*
X105552380Y-100423095D01*
X106552380Y-100851666D01*
%TD*%
M02*
