%TF.GenerationSoftware,KiCad,Pcbnew,(5.1.9)-1*%
%TF.CreationDate,2021-09-12T20:22:20+01:00*%
%TF.ProjectId,KOSMOS LFO6,4b4f534d-4f53-4204-9c46-4f362e6b6963,rev?*%
%TF.SameCoordinates,Original*%
%TF.FileFunction,Soldermask,Top*%
%TF.FilePolarity,Negative*%
%FSLAX46Y46*%
G04 Gerber Fmt 4.6, Leading zero omitted, Abs format (unit mm)*
G04 Created by KiCad (PCBNEW (5.1.9)-1) date 2021-09-12 20:22:20*
%MOMM*%
%LPD*%
G01*
G04 APERTURE LIST*
%TA.AperFunction,Profile*%
%ADD10C,0.050000*%
%TD*%
%ADD11O,1.600000X1.600000*%
%ADD12C,1.600000*%
%ADD13C,3.240000*%
%ADD14C,1.800000*%
%ADD15R,1.800000X1.800000*%
%ADD16R,1.600000X1.600000*%
%ADD17O,2.200000X2.200000*%
%ADD18R,2.200000X2.200000*%
%ADD19C,1.700000*%
%ADD20R,1.700000X1.700000*%
%ADD21O,1.700000X1.700000*%
%ADD22R,1.500000X1.500000*%
%ADD23C,1.500000*%
%ADD24C,1.440000*%
%ADD25R,1.600000X2.400000*%
%ADD26O,1.600000X2.400000*%
G04 APERTURE END LIST*
D10*
X50368000Y-127195000D02*
X48463000Y-124782000D01*
X83896000Y-131386000D02*
X80340000Y-135000000D01*
X83896000Y-124909000D02*
X83896000Y-131386000D01*
X116027000Y-124909000D02*
X83896000Y-124909000D01*
X50368000Y-131386000D02*
X54051000Y-135000000D01*
X50368000Y-127195000D02*
X50368000Y-131386000D01*
X19888000Y-124782000D02*
X48463000Y-124782000D01*
X54051000Y-135000000D02*
X80340000Y-135000000D01*
X20000000Y-20000000D02*
X116000000Y-20000000D01*
X116000000Y-20000000D02*
X116027000Y-124909000D01*
X20000000Y-20000000D02*
X19888000Y-124782000D01*
D11*
%TO.C,R17*%
X86055000Y-50360000D03*
D12*
X86055000Y-40200000D03*
%TD*%
D13*
%TO.C,RV3*%
X63200000Y-56835000D03*
X72800000Y-56835000D03*
D14*
X70500000Y-64335000D03*
X68000000Y-64335000D03*
D15*
X65500000Y-64335000D03*
%TD*%
D13*
%TO.C,RV4*%
X25060000Y-56835000D03*
X34660000Y-56835000D03*
D14*
X32360000Y-64335000D03*
X29860000Y-64335000D03*
D15*
X27360000Y-64335000D03*
%TD*%
D12*
%TO.C,C1*%
X58750000Y-70680000D03*
X58750000Y-65680000D03*
%TD*%
%TO.C,C2*%
X58195000Y-48455000D03*
X63195000Y-48455000D03*
%TD*%
D16*
%TO.C,C3*%
X60655000Y-37660000D03*
D12*
X58155000Y-37660000D03*
%TD*%
%TO.C,C4*%
X30135000Y-91000000D03*
D16*
X27635000Y-91000000D03*
%TD*%
D12*
%TO.C,C5*%
X58750000Y-117035000D03*
X58750000Y-112035000D03*
%TD*%
%TO.C,C6*%
X57560000Y-93540000D03*
X62560000Y-93540000D03*
%TD*%
%TO.C,C7*%
X67085000Y-48455000D03*
X72085000Y-48455000D03*
%TD*%
%TO.C,C8*%
X68355000Y-89730000D03*
X73355000Y-89730000D03*
%TD*%
%TO.C,C9*%
X77800000Y-44645000D03*
X77800000Y-49645000D03*
%TD*%
%TO.C,C10*%
X90500000Y-66950000D03*
X90500000Y-71950000D03*
%TD*%
%TO.C,C11*%
X79070000Y-91000000D03*
X79070000Y-96000000D03*
%TD*%
%TO.C,C12*%
X97485000Y-112035000D03*
X97485000Y-117035000D03*
%TD*%
%TO.C,C13*%
X42320000Y-31310000D03*
X47320000Y-31310000D03*
%TD*%
%TO.C,C14*%
X47320000Y-36390000D03*
X42320000Y-36390000D03*
%TD*%
D16*
%TO.C,C15*%
X30175000Y-71950000D03*
D12*
X32675000Y-71950000D03*
%TD*%
%TO.C,C16*%
X32675000Y-117670000D03*
D16*
X30175000Y-117670000D03*
%TD*%
D12*
%TO.C,C17*%
X70815000Y-74490000D03*
X65815000Y-74490000D03*
%TD*%
%TO.C,C18*%
X72720000Y-121480000D03*
X67720000Y-121480000D03*
%TD*%
D16*
%TO.C,C19*%
X73990000Y-25595000D03*
D12*
X73990000Y-23095000D03*
%TD*%
%TO.C,C20*%
X64465000Y-25555000D03*
D16*
X64465000Y-23055000D03*
%TD*%
D11*
%TO.C,D1*%
X41605000Y-42740000D03*
D16*
X41605000Y-50360000D03*
%TD*%
%TO.C,D2*%
X44145000Y-42740000D03*
D11*
X44145000Y-50360000D03*
%TD*%
D16*
%TO.C,D3*%
X44780000Y-95445000D03*
D11*
X44780000Y-87825000D03*
%TD*%
%TO.C,D4*%
X42240000Y-95445000D03*
D16*
X42240000Y-87825000D03*
%TD*%
D14*
%TO.C,D5*%
X104470000Y-36455000D03*
D15*
X107010000Y-36455000D03*
%TD*%
D11*
%TO.C,D6*%
X44780000Y-73220000D03*
D16*
X44780000Y-65600000D03*
%TD*%
%TO.C,D7*%
X42240000Y-73220000D03*
D11*
X42240000Y-65600000D03*
%TD*%
D16*
%TO.C,D8*%
X44780000Y-111955000D03*
D11*
X44780000Y-119575000D03*
%TD*%
%TO.C,D9*%
X42240000Y-111955000D03*
D16*
X42240000Y-119575000D03*
%TD*%
D15*
%TO.C,D10*%
X28270000Y-81540000D03*
D14*
X30810000Y-81540000D03*
%TD*%
%TO.C,D11*%
X68910000Y-81540000D03*
D15*
X66370000Y-81540000D03*
%TD*%
D17*
%TO.C,D12*%
X94310000Y-21785000D03*
D18*
X81610000Y-21785000D03*
%TD*%
%TO.C,D13*%
X75260000Y-31945000D03*
D17*
X62560000Y-31945000D03*
%TD*%
D15*
%TO.C,D14*%
X104470000Y-81540000D03*
D14*
X107010000Y-81540000D03*
%TD*%
%TO.C,J1*%
G36*
G01*
X82915000Y-30460000D02*
X84115000Y-30460000D01*
G75*
G02*
X84365000Y-30710000I0J-250000D01*
G01*
X84365000Y-31910000D01*
G75*
G02*
X84115000Y-32160000I-250000J0D01*
G01*
X82915000Y-32160000D01*
G75*
G02*
X82665000Y-31910000I0J250000D01*
G01*
X82665000Y-30710000D01*
G75*
G02*
X82915000Y-30460000I250000J0D01*
G01*
G37*
D19*
X86055000Y-31310000D03*
X88595000Y-31310000D03*
X91135000Y-31310000D03*
X93675000Y-31310000D03*
X83515000Y-33850000D03*
X86055000Y-33850000D03*
X88595000Y-33850000D03*
X91135000Y-33850000D03*
X93675000Y-33850000D03*
%TD*%
D20*
%TO.C,J2*%
X53395000Y-129220000D03*
D21*
X55935000Y-129220000D03*
X58475000Y-129220000D03*
X61015000Y-129220000D03*
X63555000Y-129220000D03*
X66095000Y-129220000D03*
X68635000Y-129220000D03*
X71175000Y-129220000D03*
X73715000Y-129220000D03*
X76255000Y-129220000D03*
X78795000Y-129220000D03*
X81335000Y-129220000D03*
%TD*%
D22*
%TO.C,Q1*%
X112725000Y-23055000D03*
D23*
X107645000Y-23055000D03*
X110185000Y-23055000D03*
%TD*%
%TO.C,Q2*%
X51765000Y-80840000D03*
X49225000Y-80840000D03*
D22*
X54305000Y-80840000D03*
%TD*%
%TO.C,Q3*%
X63830000Y-89095000D03*
D23*
X58750000Y-89095000D03*
X61290000Y-89095000D03*
%TD*%
%TO.C,Q4*%
X102565000Y-68140000D03*
X105105000Y-68140000D03*
D22*
X100025000Y-68140000D03*
%TD*%
D11*
%TO.C,R1*%
X37795000Y-21785000D03*
D12*
X37795000Y-31945000D03*
%TD*%
%TO.C,R2*%
X38430000Y-49090000D03*
D11*
X28270000Y-49090000D03*
%TD*%
D12*
%TO.C,R3*%
X39065000Y-95344999D03*
D11*
X39065000Y-85184999D03*
%TD*%
%TO.C,R4*%
X47320000Y-40200000D03*
D12*
X47320000Y-50360000D03*
%TD*%
D11*
%TO.C,R5*%
X47955000Y-85285000D03*
D12*
X47955000Y-95445000D03*
%TD*%
D11*
%TO.C,R6*%
X50495000Y-50360000D03*
D12*
X50495000Y-40200000D03*
%TD*%
%TO.C,R7*%
X51130000Y-85285000D03*
D11*
X51130000Y-95445000D03*
%TD*%
D12*
%TO.C,R8*%
X31445000Y-31945000D03*
D11*
X31445000Y-21785000D03*
%TD*%
%TO.C,R9*%
X53670000Y-50360000D03*
D12*
X53670000Y-40200000D03*
%TD*%
D11*
%TO.C,R10*%
X54305000Y-95445000D03*
D12*
X54305000Y-85285000D03*
%TD*%
%TO.C,R12*%
X68275000Y-44010000D03*
D11*
X58115000Y-44010000D03*
%TD*%
%TO.C,R13*%
X65100000Y-94175000D03*
D12*
X75260000Y-94175000D03*
%TD*%
D11*
%TO.C,R14*%
X34620000Y-21785000D03*
D12*
X34620000Y-31945000D03*
%TD*%
%TO.C,R15*%
X28270000Y-21785000D03*
D11*
X28270000Y-31945000D03*
%TD*%
D12*
%TO.C,R16*%
X89230000Y-50360000D03*
D11*
X89230000Y-40200000D03*
%TD*%
D12*
%TO.C,R18*%
X86690000Y-96080000D03*
D11*
X86690000Y-85920000D03*
%TD*%
%TO.C,R19*%
X89865000Y-85920000D03*
D12*
X89865000Y-96080000D03*
%TD*%
%TO.C,R20*%
X25095000Y-31945000D03*
D11*
X25095000Y-21785000D03*
%TD*%
%TO.C,R21*%
X92405000Y-50360000D03*
D12*
X92405000Y-40200000D03*
%TD*%
%TO.C,R22*%
X93040000Y-96080000D03*
D11*
X93040000Y-85920000D03*
%TD*%
D12*
%TO.C,R23*%
X95580000Y-40200000D03*
D11*
X95580000Y-50360000D03*
%TD*%
%TO.C,R24*%
X82880000Y-50360000D03*
D12*
X82880000Y-40200000D03*
%TD*%
D11*
%TO.C,R25*%
X96215000Y-96080000D03*
D12*
X96215000Y-85920000D03*
%TD*%
%TO.C,R26*%
X83515000Y-85920000D03*
D11*
X83515000Y-96080000D03*
%TD*%
%TO.C,R27*%
X102565000Y-26865000D03*
D12*
X112725000Y-26865000D03*
%TD*%
%TO.C,R28*%
X102565000Y-30675000D03*
D11*
X112725000Y-30675000D03*
%TD*%
%TO.C,R29*%
X39065000Y-75760000D03*
D12*
X39065000Y-65600000D03*
%TD*%
D11*
%TO.C,R30*%
X39065000Y-122115000D03*
D12*
X39065000Y-111955000D03*
%TD*%
%TO.C,R31*%
X47955000Y-65600000D03*
D11*
X47955000Y-75760000D03*
%TD*%
%TO.C,R32*%
X47955000Y-122115000D03*
D12*
X47955000Y-111955000D03*
%TD*%
%TO.C,R33*%
X35890000Y-82110000D03*
D11*
X46050000Y-82110000D03*
%TD*%
%TO.C,R34*%
X51130000Y-65600000D03*
D12*
X51130000Y-75760000D03*
%TD*%
%TO.C,R35*%
X51130000Y-122115000D03*
D11*
X51130000Y-111955000D03*
%TD*%
%TO.C,R36*%
X46050000Y-78935000D03*
D12*
X35890000Y-78935000D03*
%TD*%
%TO.C,R37*%
X54305000Y-75760000D03*
D11*
X54305000Y-65600000D03*
%TD*%
%TO.C,R38*%
X54305000Y-111955000D03*
D12*
X54305000Y-122115000D03*
%TD*%
%TO.C,R39*%
X61925000Y-83380000D03*
D11*
X61925000Y-73220000D03*
%TD*%
D12*
%TO.C,R40*%
X73355000Y-69410000D03*
D11*
X63195000Y-69410000D03*
%TD*%
%TO.C,R41*%
X62560000Y-117035000D03*
D12*
X72720000Y-117035000D03*
%TD*%
%TO.C,R42*%
X58115000Y-83380000D03*
D11*
X58115000Y-73220000D03*
%TD*%
%TO.C,R43*%
X86055000Y-75125000D03*
D12*
X86055000Y-64965000D03*
%TD*%
%TO.C,R44*%
X82880000Y-64965000D03*
D11*
X82880000Y-75125000D03*
%TD*%
D12*
%TO.C,R45*%
X88595000Y-111955000D03*
D11*
X88595000Y-122115000D03*
%TD*%
%TO.C,R46*%
X85420000Y-122115000D03*
D12*
X85420000Y-111955000D03*
%TD*%
%TO.C,R47*%
X108915000Y-75760000D03*
D11*
X98755000Y-75760000D03*
%TD*%
D12*
%TO.C,R48*%
X79705000Y-64965000D03*
D11*
X79705000Y-75125000D03*
%TD*%
%TO.C,R49*%
X82245000Y-122115000D03*
D12*
X82245000Y-111955000D03*
%TD*%
D11*
%TO.C,R50*%
X108915000Y-72585000D03*
D12*
X98755000Y-72585000D03*
%TD*%
D11*
%TO.C,R51*%
X76530000Y-64965000D03*
D12*
X76530000Y-75125000D03*
%TD*%
%TO.C,R52*%
X75895000Y-78935000D03*
D11*
X86055000Y-78935000D03*
%TD*%
D12*
%TO.C,R53*%
X79070000Y-122115000D03*
D11*
X79070000Y-111955000D03*
%TD*%
D12*
%TO.C,R54*%
X92405000Y-122115000D03*
D11*
X92405000Y-111955000D03*
%TD*%
D13*
%TO.C,RV1*%
X101260000Y-56835000D03*
X110860000Y-56835000D03*
D14*
X108560000Y-64335000D03*
X106060000Y-64335000D03*
D15*
X103560000Y-64335000D03*
%TD*%
D13*
%TO.C,RV2*%
X63160000Y-101805000D03*
X72760000Y-101805000D03*
D14*
X70460000Y-109305000D03*
X67960000Y-109305000D03*
D15*
X65460000Y-109305000D03*
%TD*%
%TO.C,RV6*%
X27360000Y-109305000D03*
D14*
X29860000Y-109305000D03*
X32360000Y-109305000D03*
D13*
X34660000Y-101805000D03*
X25060000Y-101805000D03*
%TD*%
D15*
%TO.C,RV7*%
X103560000Y-109305000D03*
D14*
X106060000Y-109305000D03*
X108560000Y-109305000D03*
D13*
X110860000Y-101805000D03*
X101260000Y-101805000D03*
%TD*%
D24*
%TO.C,RV8*%
X49225000Y-24960000D03*
X46685000Y-24960000D03*
X44145000Y-24960000D03*
%TD*%
D25*
%TO.C,U1*%
X39700000Y-54170000D03*
D26*
X57480000Y-61790000D03*
X42240000Y-54170000D03*
X54940000Y-61790000D03*
X44780000Y-54170000D03*
X52400000Y-61790000D03*
X47320000Y-54170000D03*
X49860000Y-61790000D03*
X49860000Y-54170000D03*
X47320000Y-61790000D03*
X52400000Y-54170000D03*
X44780000Y-61790000D03*
X54940000Y-54170000D03*
X42240000Y-61790000D03*
X57480000Y-54170000D03*
X39700000Y-61790000D03*
%TD*%
%TO.C,U2*%
X39700000Y-106875000D03*
X57480000Y-99255000D03*
X42240000Y-106875000D03*
X54940000Y-99255000D03*
X44780000Y-106875000D03*
X52400000Y-99255000D03*
X47320000Y-106875000D03*
X49860000Y-99255000D03*
X49860000Y-106875000D03*
X47320000Y-99255000D03*
X52400000Y-106875000D03*
X44780000Y-99255000D03*
X54940000Y-106875000D03*
X42240000Y-99255000D03*
X57480000Y-106875000D03*
D25*
X39700000Y-99255000D03*
%TD*%
%TO.C,U3*%
X79705000Y-54170000D03*
D26*
X94945000Y-61790000D03*
X82245000Y-54170000D03*
X92405000Y-61790000D03*
X84785000Y-54170000D03*
X89865000Y-61790000D03*
X87325000Y-54170000D03*
X87325000Y-61790000D03*
X89865000Y-54170000D03*
X84785000Y-61790000D03*
X92405000Y-54170000D03*
X82245000Y-61790000D03*
X94945000Y-54170000D03*
X79705000Y-61790000D03*
%TD*%
D25*
%TO.C,U4*%
X79705000Y-99890000D03*
D26*
X94945000Y-107510000D03*
X82245000Y-99890000D03*
X92405000Y-107510000D03*
X84785000Y-99890000D03*
X89865000Y-107510000D03*
X87325000Y-99890000D03*
X87325000Y-107510000D03*
X89865000Y-99890000D03*
X84785000Y-107510000D03*
X92405000Y-99890000D03*
X82245000Y-107510000D03*
X94945000Y-99890000D03*
X79705000Y-107510000D03*
%TD*%
%TO.C,U5*%
X22555000Y-43375000D03*
X37795000Y-35755000D03*
X25095000Y-43375000D03*
X35255000Y-35755000D03*
X27635000Y-43375000D03*
X32715000Y-35755000D03*
X30175000Y-43375000D03*
X30175000Y-35755000D03*
X32715000Y-43375000D03*
X27635000Y-35755000D03*
X35255000Y-43375000D03*
X25095000Y-35755000D03*
X37795000Y-43375000D03*
D25*
X22555000Y-35755000D03*
%TD*%
M02*
